 0
SECTION
 2
HEADER
 9
$ACADVER
 1
AC1009
 0
ENDSEC
 0
SECTION
 2
TABLES
 0
TABLE
 2
LTYPE
 70
1
 0
LTYPE
 2
CONTINUOUS
 70
64
 3
solid line
 72
65
 73
0
 40
0.0
 0
ENDTAB
 0
TABLE
 2
LAYER
 70
6
 0
LAYER
 2
0
 70
0
 62
7
 6
CONTINUOUS
 0
LAYER
 2
AR_3
 70
64
 62
7
 6
CONTINUOUS
 0
LAYER
 2
CUBO_5
 70
64
 62
88
 6
CONTINUOUS
 0
LAYER
 2
BOOLEANO
 70
64
 62
88
 6
CONTINUOUS
 0
LAYER
 2
GRIP
 70
64
 62
88
 6
CONTINUOUS
 0
LAYER
 2
MIRA
 70
64
 62
88
 6
CONTINUOUS
 0
LAYER
 2
CARGADOR
 70
64
 62
88
 6
CONTINUOUS
 0
LAYER
 2
GATILLO
 70
64
 62
88
 6
CONTINUOUS
 0
LAYER
 2
CA_ON
 70
64
 62
88
 6
CONTINUOUS
 0
ENDTAB
 0
ENDSEC
 0
SECTION
 2
BLOCKS
 0
ENDSEC
 0
SECTION
 2
ENTITIES
 0
POLYLINE
 8
CUBO_5
 66
1
 10
0.0
 20
0.0
 30
0.0
 70
64
 71
8
 72
6
 0
VERTEX
 8
CUBO_5
 10
0.042
 20
0.0477
 30
2.1929
 70
192
 0
VERTEX
 8
CUBO_5
 10
0.042
 20
0.0477
 30
2.2485
 70
192
 0
VERTEX
 8
CUBO_5
 10
0.2771
 20
0.0477
 30
2.1929
 70
192
 0
VERTEX
 8
CUBO_5
 10
0.2771
 20
0.0477
 30
2.2485
 70
192
 0
VERTEX
 8
CUBO_5
 10
0.2771
 20
0.0675
 30
2.1929
 70
192
 0
VERTEX
 8
CUBO_5
 10
0.2771
 20
0.0675
 30
2.2485
 70
192
 0
VERTEX
 8
CUBO_5
 10
0.042
 20
0.0675
 30
2.1929
 70
192
 0
VERTEX
 8
CUBO_5
 10
0.042
 20
0.0675
 30
2.2485
 70
192
 0
VERTEX
 8
CUBO_5
 10
0
 20
0
 30
0
 70
128
 71
1
 72
2
 73
4
 74
3
 0
VERTEX
 8
CUBO_5
 10
0
 20
0
 30
0
 70
128
 71
3
 72
4
 73
6
 74
5
 0
VERTEX
 8
CUBO_5
 10
0
 20
0
 30
0
 70
128
 71
5
 72
6
 73
8
 74
7
 0
VERTEX
 8
CUBO_5
 10
0
 20
0
 30
0
 70
128
 71
7
 72
8
 73
2
 74
1
 0
VERTEX
 8
CUBO_5
 10
0
 20
0
 30
0
 70
128
 71
2
 72
8
 73
6
 74
4
 0
VERTEX
 8
CUBO_5
 10
0
 20
0
 30
0
 70
128
 71
7
 72
1
 73
3
 74
5
 0
SEQEND
 0
POLYLINE
 8
BOOLEANO
 66
1
 10
0.0
 20
0.0
 30
0.0
 70
64
 71
182
 72
163
 0
VERTEX
 8
BOOLEANO
 10
-0.1998
 20
-0.0727
 30
2.1142
 70
192
 0
VERTEX
 8
BOOLEANO
 10
-0.1998
 20
-0.0727
 30
2.1228
 70
192
 0
VERTEX
 8
BOOLEANO
 10
-0.1998
 20
-0.0727
 30
2.1624
 70
192
 0
VERTEX
 8
BOOLEANO
 10
-0.1998
 20
-0.0727
 30
2.202
 70
192
 0
VERTEX
 8
BOOLEANO
 10
-0.1998
 20
-0.0727
 30
2.2415
 70
192
 0
VERTEX
 8
BOOLEANO
 10
-0.1998
 20
-0.0727
 30
2.2811
 70
192
 0
VERTEX
 8
BOOLEANO
 10
0.0791
 20
-0.0727
 30
2.0832
 70
192
 0
VERTEX
 8
BOOLEANO
 10
0.0791
 20
-0.0727
 30
2.1228
 70
192
 0
VERTEX
 8
BOOLEANO
 10
0.0791
 20
-0.0727
 30
2.1624
 70
192
 0
VERTEX
 8
BOOLEANO
 10
0.0791
 20
-0.0727
 30
2.202
 70
192
 0
VERTEX
 8
BOOLEANO
 10
0.0791
 20
-0.0727
 30
2.2415
 70
192
 0
VERTEX
 8
BOOLEANO
 10
0.0791
 20
-0.0727
 30
2.2811
 70
192
 0
VERTEX
 8
BOOLEANO
 10
0.358
 20
-0.0727
 30
2.0832
 70
192
 0
VERTEX
 8
BOOLEANO
 10
0.358
 20
-0.0727
 30
2.1228
 70
192
 0
VERTEX
 8
BOOLEANO
 10
0.358
 20
-0.0727
 30
2.1624
 70
192
 0
VERTEX
 8
BOOLEANO
 10
0.358
 20
-0.0727
 30
2.202
 70
192
 0
VERTEX
 8
BOOLEANO
 10
0.358
 20
-0.0727
 30
2.2415
 70
192
 0
VERTEX
 8
BOOLEANO
 10
0.358
 20
-0.0727
 30
2.2811
 70
192
 0
VERTEX
 8
BOOLEANO
 10
0.6369
 20
-0.0727
 30
2.0733
 70
192
 0
VERTEX
 8
BOOLEANO
 10
0.6369
 20
-0.0727
 30
2.1228
 70
192
 0
VERTEX
 8
BOOLEANO
 10
0.6369
 20
-0.0727
 30
2.1624
 70
192
 0
VERTEX
 8
BOOLEANO
 10
0.6369
 20
-0.0727
 30
2.202
 70
192
 0
VERTEX
 8
BOOLEANO
 10
0.6369
 20
-0.0727
 30
2.2415
 70
192
 0
VERTEX
 8
BOOLEANO
 10
0.6369
 20
-0.0727
 30
2.2811
 70
192
 0
VERTEX
 8
BOOLEANO
 10
0.9158
 20
-0.0727
 30
2.0048
 70
192
 0
VERTEX
 8
BOOLEANO
 10
0.9158
 20
-0.0727
 30
2.1228
 70
192
 0
VERTEX
 8
BOOLEANO
 10
0.9158
 20
-0.0727
 30
2.1624
 70
192
 0
VERTEX
 8
BOOLEANO
 10
0.9158
 20
-0.0727
 30
2.202
 70
192
 0
VERTEX
 8
BOOLEANO
 10
0.9158
 20
-0.0727
 30
2.2415
 70
192
 0
VERTEX
 8
BOOLEANO
 10
0.9158
 20
-0.0727
 30
2.2811
 70
192
 0
VERTEX
 8
BOOLEANO
 10
1.1946
 20
-0.0727
 30
1.8974
 70
192
 0
VERTEX
 8
BOOLEANO
 10
1.1946
 20
-0.0727
 30
2.1228
 70
192
 0
VERTEX
 8
BOOLEANO
 10
1.1946
 20
-0.0727
 30
2.1624
 70
192
 0
VERTEX
 8
BOOLEANO
 10
1.1946
 20
-0.0727
 30
2.202
 70
192
 0
VERTEX
 8
BOOLEANO
 10
1.1946
 20
-0.0727
 30
2.2415
 70
192
 0
VERTEX
 8
BOOLEANO
 10
1.1946
 20
-0.0727
 30
2.2811
 70
192
 0
VERTEX
 8
BOOLEANO
 10
1.1946
 20
0.0727
 30
1.8974
 70
192
 0
VERTEX
 8
BOOLEANO
 10
1.1946
 20
0.0727
 30
2.1228
 70
192
 0
VERTEX
 8
BOOLEANO
 10
1.1946
 20
0.0727
 30
2.1624
 70
192
 0
VERTEX
 8
BOOLEANO
 10
1.1946
 20
0.0727
 30
2.202
 70
192
 0
VERTEX
 8
BOOLEANO
 10
1.1946
 20
0.0727
 30
2.2415
 70
192
 0
VERTEX
 8
BOOLEANO
 10
1.1946
 20
0.0727
 30
2.2811
 70
192
 0
VERTEX
 8
BOOLEANO
 10
0.9158
 20
0.0727
 30
2.0048
 70
192
 0
VERTEX
 8
BOOLEANO
 10
0.9158
 20
0.0727
 30
2.1228
 70
192
 0
VERTEX
 8
BOOLEANO
 10
0.9158
 20
0.0727
 30
2.1624
 70
192
 0
VERTEX
 8
BOOLEANO
 10
0.9158
 20
0.0727
 30
2.202
 70
192
 0
VERTEX
 8
BOOLEANO
 10
0.9158
 20
0.0727
 30
2.2415
 70
192
 0
VERTEX
 8
BOOLEANO
 10
0.9158
 20
0.0727
 30
2.2811
 70
192
 0
VERTEX
 8
BOOLEANO
 10
0.6369
 20
0.0727
 30
2.0733
 70
192
 0
VERTEX
 8
BOOLEANO
 10
0.6369
 20
0.0727
 30
2.1228
 70
192
 0
VERTEX
 8
BOOLEANO
 10
0.6369
 20
0.0727
 30
2.1624
 70
192
 0
VERTEX
 8
BOOLEANO
 10
0.6369
 20
0.0727
 30
2.202
 70
192
 0
VERTEX
 8
BOOLEANO
 10
0.6369
 20
0.0727
 30
2.2415
 70
192
 0
VERTEX
 8
BOOLEANO
 10
0.6369
 20
0.0727
 30
2.2811
 70
192
 0
VERTEX
 8
BOOLEANO
 10
0.358
 20
0.0727
 30
2.0832
 70
192
 0
VERTEX
 8
BOOLEANO
 10
0.358
 20
0.0727
 30
2.1228
 70
192
 0
VERTEX
 8
BOOLEANO
 10
0.358
 20
0.0727
 30
2.1624
 70
192
 0
VERTEX
 8
BOOLEANO
 10
0.358
 20
0.0727
 30
2.202
 70
192
 0
VERTEX
 8
BOOLEANO
 10
0.358
 20
0.0727
 30
2.2415
 70
192
 0
VERTEX
 8
BOOLEANO
 10
0.358
 20
0.0727
 30
2.2811
 70
192
 0
VERTEX
 8
BOOLEANO
 10
0.0791
 20
0.0727
 30
2.0832
 70
192
 0
VERTEX
 8
BOOLEANO
 10
0.0791
 20
0.0727
 30
2.1228
 70
192
 0
VERTEX
 8
BOOLEANO
 10
0.0791
 20
0.0727
 30
2.1624
 70
192
 0
VERTEX
 8
BOOLEANO
 10
0.0791
 20
0.0727
 30
2.2811
 70
192
 0
VERTEX
 8
BOOLEANO
 10
-0.1998
 20
0.0727
 30
2.1142
 70
192
 0
VERTEX
 8
BOOLEANO
 10
-0.1998
 20
0.0727
 30
2.1228
 70
192
 0
VERTEX
 8
BOOLEANO
 10
-0.1998
 20
0.0727
 30
2.1624
 70
192
 0
VERTEX
 8
BOOLEANO
 10
-0.1998
 20
0.0727
 30
2.202
 70
192
 0
VERTEX
 8
BOOLEANO
 10
-0.1998
 20
0.0727
 30
2.2415
 70
192
 0
VERTEX
 8
BOOLEANO
 10
-0.1998
 20
0.0727
 30
2.2811
 70
192
 0
VERTEX
 8
BOOLEANO
 10
0.2771
 20
0.0727
 30
2.2415
 70
192
 0
VERTEX
 8
BOOLEANO
 10
0.2771
 20
0.0727
 30
2.202
 70
192
 0
VERTEX
 8
BOOLEANO
 10
0.042
 20
0.0727
 30
2.2415
 70
192
 0
VERTEX
 8
BOOLEANO
 10
0.0791
 20
0.0727
 30
2.1929
 70
192
 0
VERTEX
 8
BOOLEANO
 10
0.042
 20
0.0727
 30
2.202
 70
192
 0
VERTEX
 8
BOOLEANO
 10
0.0791
 20
0.0727
 30
2.2485
 70
192
 0
VERTEX
 8
BOOLEANO
 10
0.2771
 20
0.0727
 30
2.1929
 70
192
 0
VERTEX
 8
BOOLEANO
 10
0.042
 20
0.0727
 30
2.1929
 70
192
 0
VERTEX
 8
BOOLEANO
 10
0.042
 20
0.0727
 30
2.2485
 70
192
 0
VERTEX
 8
BOOLEANO
 10
0.2771
 20
0.0727
 30
2.2485
 70
192
 0
VERTEX
 8
BOOLEANO
 10
0.042
 20
0.0047
 30
2.1929
 70
192
 0
VERTEX
 8
BOOLEANO
 10
0.042
 20
0.0047
 30
2.2485
 70
192
 0
VERTEX
 8
BOOLEANO
 10
0.2771
 20
0.0047
 30
2.1929
 70
192
 0
VERTEX
 8
BOOLEANO
 10
0.2771
 20
0.0047
 30
2.2485
 70
192
 0
VERTEX
 8
BOOLEANO
 10
0.2771
 20
0.0727
 30
2.1929
 70
192
 0
VERTEX
 8
BOOLEANO
 10
0.2771
 20
0.0727
 30
2.2485
 70
192
 0
VERTEX
 8
BOOLEANO
 10
0.042
 20
0.0727
 30
2.1929
 70
192
 0
VERTEX
 8
BOOLEANO
 10
0.042
 20
0.0727
 30
2.2485
 70
192
 0
VERTEX
 8
BOOLEANO
 10
0.2771
 20
0.0727
 30
2.202
 70
192
 0
VERTEX
 8
BOOLEANO
 10
0.0791
 20
0.0727
 30
2.1929
 70
192
 0
VERTEX
 8
BOOLEANO
 10
0.042
 20
0.0727
 30
2.202
 70
192
 0
VERTEX
 8
BOOLEANO
 10
0.2771
 20
0.0727
 30
2.2415
 70
192
 0
VERTEX
 8
BOOLEANO
 10
0.042
 20
0.0727
 30
2.2415
 70
192
 0
VERTEX
 8
BOOLEANO
 10
0.0791
 20
0.0727
 30
2.2485
 70
192
 0
VERTEX
 8
BOOLEANO
 10
-0.0969
 20
-0.0413
 30
2.1042
 70
192
 0
VERTEX
 8
BOOLEANO
 10
-0.0807
 20
-0.0413
 30
2.1131
 70
192
 0
VERTEX
 8
BOOLEANO
 10
-0.0212
 20
-0.0413
 30
1.9688
 70
192
 0
VERTEX
 8
BOOLEANO
 10
-0.0101
 20
-0.0413
 30
1.9835
 70
192
 0
VERTEX
 8
BOOLEANO
 10
0.1749
 20
-0.0413
 30
1.9616
 70
192
 0
VERTEX
 8
BOOLEANO
 10
0.1749
 20
-0.0413
 30
1.98
 70
192
 0
VERTEX
 8
BOOLEANO
 10
0.1749
 20
0.0413
 30
1.9616
 70
192
 0
VERTEX
 8
BOOLEANO
 10
0.1749
 20
0.0413
 30
1.98
 70
192
 0
VERTEX
 8
BOOLEANO
 10
-0.0212
 20
0.0413
 30
1.9688
 70
192
 0
VERTEX
 8
BOOLEANO
 10
-0.0101
 20
0.0413
 30
1.9835
 70
192
 0
VERTEX
 8
BOOLEANO
 10
-0.0969
 20
0.0413
 30
2.1042
 70
192
 0
VERTEX
 8
BOOLEANO
 10
-0.0807
 20
0.0413
 30
2.1131
 70
192
 0
VERTEX
 8
BOOLEANO
 10
-0.5279
 20
-0.0519
 30
2.1096
 70
192
 0
VERTEX
 8
BOOLEANO
 10
-0.5279
 20
-0.0519
 30
2.1436
 70
192
 0
VERTEX
 8
BOOLEANO
 10
-0.5279
 20
-0.0519
 30
2.2019
 70
192
 0
VERTEX
 8
BOOLEANO
 10
-0.5279
 20
-0.0519
 30
2.2294
 70
192
 0
VERTEX
 8
BOOLEANO
 10
-0.4622
 20
-0.0519
 30
2.0852
 70
192
 0
VERTEX
 8
BOOLEANO
 10
-0.3714
 20
-0.0519
 30
2.1436
 70
192
 0
VERTEX
 8
BOOLEANO
 10
-0.3714
 20
-0.0519
 30
2.2019
 70
192
 0
VERTEX
 8
BOOLEANO
 10
-0.4382
 20
-0.0519
 30
2.2603
 70
192
 0
VERTEX
 8
BOOLEANO
 10
-0.2148
 20
-0.0519
 30
2.0852
 70
192
 0
VERTEX
 8
BOOLEANO
 10
-0.2148
 20
-0.0519
 30
2.1436
 70
192
 0
VERTEX
 8
BOOLEANO
 10
-0.2148
 20
-0.0519
 30
2.2019
 70
192
 0
VERTEX
 8
BOOLEANO
 10
-0.2148
 20
-0.0519
 30
2.2603
 70
192
 0
VERTEX
 8
BOOLEANO
 10
-0.0582
 20
-0.0519
 30
2.0852
 70
192
 0
VERTEX
 8
BOOLEANO
 10
-0.0582
 20
-0.0519
 30
2.1436
 70
192
 0
VERTEX
 8
BOOLEANO
 10
-0.0582
 20
-0.0519
 30
2.2019
 70
192
 0
VERTEX
 8
BOOLEANO
 10
-0.0582
 20
-0.0519
 30
2.2603
 70
192
 0
VERTEX
 8
BOOLEANO
 10
-0.0582
 20
0.0519
 30
2.0852
 70
192
 0
VERTEX
 8
BOOLEANO
 10
-0.0582
 20
0.0519
 30
2.1436
 70
192
 0
VERTEX
 8
BOOLEANO
 10
-0.0582
 20
0.0519
 30
2.2019
 70
192
 0
VERTEX
 8
BOOLEANO
 10
-0.0582
 20
0.0519
 30
2.2603
 70
192
 0
VERTEX
 8
BOOLEANO
 10
-0.2148
 20
0.0519
 30
2.0852
 70
192
 0
VERTEX
 8
BOOLEANO
 10
-0.2148
 20
0.0519
 30
2.1436
 70
192
 0
VERTEX
 8
BOOLEANO
 10
-0.2148
 20
0.0519
 30
2.2019
 70
192
 0
VERTEX
 8
BOOLEANO
 10
-0.2148
 20
0.0519
 30
2.2603
 70
192
 0
VERTEX
 8
BOOLEANO
 10
-0.4622
 20
0.0519
 30
2.0852
 70
192
 0
VERTEX
 8
BOOLEANO
 10
-0.3714
 20
0.0519
 30
2.1436
 70
192
 0
VERTEX
 8
BOOLEANO
 10
-0.3714
 20
0.0519
 30
2.2019
 70
192
 0
VERTEX
 8
BOOLEANO
 10
-0.4382
 20
0.0519
 30
2.2603
 70
192
 0
VERTEX
 8
BOOLEANO
 10
-0.5279
 20
0.0519
 30
2.1096
 70
192
 0
VERTEX
 8
BOOLEANO
 10
-0.5279
 20
0.0519
 30
2.1436
 70
192
 0
VERTEX
 8
BOOLEANO
 10
-0.5279
 20
0.0519
 30
2.2019
 70
192
 0
VERTEX
 8
BOOLEANO
 10
-0.5279
 20
0.0519
 30
2.2294
 70
192
 0
VERTEX
 8
BOOLEANO
 10
1.1694
 20
-0.0779
 30
1.8963
 70
192
 0
VERTEX
 8
BOOLEANO
 10
1.154
 20
-0.0779
 30
1.9163
 70
192
 0
VERTEX
 8
BOOLEANO
 10
1.1694
 20
-0.0779
 30
2.0146
 70
192
 0
VERTEX
 8
BOOLEANO
 10
1.1694
 20
-0.0779
 30
2.0828
 70
192
 0
VERTEX
 8
BOOLEANO
 10
1.1694
 20
-0.0779
 30
2.151
 70
192
 0
VERTEX
 8
BOOLEANO
 10
1.1489
 20
-0.0779
 30
2.2775
 70
192
 0
VERTEX
 8
BOOLEANO
 10
1.1694
 20
-0.0779
 30
2.3035
 70
192
 0
VERTEX
 8
BOOLEANO
 10
1.2154
 20
-0.0779
 30
1.8975
 70
192
 0
VERTEX
 8
BOOLEANO
 10
1.2326
 20
-0.0779
 30
1.9464
 70
192
 0
VERTEX
 8
BOOLEANO
 10
1.2326
 20
-0.0779
 30
2.0146
 70
192
 0
VERTEX
 8
BOOLEANO
 10
1.2115
 20
-0.0779
 30
2.0828
 70
192
 0
VERTEX
 8
BOOLEANO
 10
1.2154
 20
-0.0779
 30
2.151
 70
192
 0
VERTEX
 8
BOOLEANO
 10
1.2463
 20
-0.0779
 30
2.2569
 70
192
 0
VERTEX
 8
BOOLEANO
 10
1.2309
 20
-0.0779
 30
2.2908
 70
192
 0
VERTEX
 8
BOOLEANO
 10
1.2154
 20
0.0779
 30
1.8975
 70
192
 0
VERTEX
 8
BOOLEANO
 10
1.2326
 20
0.0779
 30
1.9464
 70
192
 0
VERTEX
 8
BOOLEANO
 10
1.2326
 20
0.0779
 30
2.0146
 70
192
 0
VERTEX
 8
BOOLEANO
 10
1.2115
 20
0.0779
 30
2.0828
 70
192
 0
VERTEX
 8
BOOLEANO
 10
1.2154
 20
0.0779
 30
2.151
 70
192
 0
VERTEX
 8
BOOLEANO
 10
1.2463
 20
0.0779
 30
2.2569
 70
192
 0
VERTEX
 8
BOOLEANO
 10
1.2309
 20
0.0779
 30
2.2908
 70
192
 0
VERTEX
 8
BOOLEANO
 10
1.1694
 20
0.0779
 30
1.8963
 70
192
 0
VERTEX
 8
BOOLEANO
 10
1.154
 20
0.0779
 30
1.9163
 70
192
 0
VERTEX
 8
BOOLEANO
 10
1.1694
 20
0.0779
 30
2.0146
 70
192
 0
VERTEX
 8
BOOLEANO
 10
1.1694
 20
0.0779
 30
2.0828
 70
192
 0
VERTEX
 8
BOOLEANO
 10
1.1694
 20
0.0779
 30
2.151
 70
192
 0
VERTEX
 8
BOOLEANO
 10
1.1489
 20
0.0779
 30
2.2775
 70
192
 0
VERTEX
 8
BOOLEANO
 10
1.1694
 20
0.0779
 30
2.3035
 70
192
 0
VERTEX
 8
BOOLEANO
 10
0.0677
 20
-0.0626
 30
2.0933
 70
192
 0
VERTEX
 8
BOOLEANO
 10
0.2384
 20
-0.0626
 30
2.184
 70
192
 0
VERTEX
 8
BOOLEANO
 10
0.3087
 20
-0.0626
 30
1.6398
 70
192
 0
VERTEX
 8
BOOLEANO
 10
0.4794
 20
-0.0626
 30
1.7305
 70
192
 0
VERTEX
 8
BOOLEANO
 10
0.3087
 20
0.0626
 30
1.6398
 70
192
 0
VERTEX
 8
BOOLEANO
 10
0.4794
 20
0.0626
 30
1.7305
 70
192
 0
VERTEX
 8
BOOLEANO
 10
0.0677
 20
0.0626
 30
2.0933
 70
192
 0
VERTEX
 8
BOOLEANO
 10
0.2384
 20
0.0626
 30
2.184
 70
192
 0
VERTEX
 8
BOOLEANO
 10
0.6615
 20
-0.0658
 30
2.0388
 70
192
 0
VERTEX
 8
BOOLEANO
 10
0.678
 20
-0.0658
 30
2.106
 70
192
 0
VERTEX
 8
BOOLEANO
 10
0.9023
 20
-0.0658
 30
1.9795
 70
192
 0
VERTEX
 8
BOOLEANO
 10
0.9189
 20
-0.0658
 30
2.0466
 70
192
 0
VERTEX
 8
BOOLEANO
 10
0.9023
 20
0.0658
 30
1.9795
 70
192
 0
VERTEX
 8
BOOLEANO
 10
0.9189
 20
0.0658
 30
2.0466
 70
192
 0
VERTEX
 8
BOOLEANO
 10
0.6615
 20
0.0658
 30
2.0388
 70
192
 0
VERTEX
 8
BOOLEANO
 10
0.678
 20
0.0658
 30
2.106
 70
192
 0
VERTEX
 8
BOOLEANO
 10
0
 20
0
 30
0
 70
128
 71
1
 72
2
 73
8
 74
7
 0
VERTEX
 8
BOOLEANO
 10
0
 20
0
 30
0
 70
128
 71
7
 72
8
 73
14
 74
13
 0
VERTEX
 8
BOOLEANO
 10
0
 20
0
 30
0
 70
128
 71
13
 72
14
 73
20
 74
19
 0
VERTEX
 8
BOOLEANO
 10
0
 20
0
 30
0
 70
128
 71
19
 72
20
 73
26
 74
25
 0
VERTEX
 8
BOOLEANO
 10
0
 20
0
 30
0
 70
128
 71
25
 72
26
 73
32
 74
31
 0
VERTEX
 8
BOOLEANO
 10
0
 20
0
 30
0
 70
128
 71
2
 72
3
 73
9
 74
8
 0
VERTEX
 8
BOOLEANO
 10
0
 20
0
 30
0
 70
128
 71
8
 72
9
 73
15
 74
14
 0
VERTEX
 8
BOOLEANO
 10
0
 20
0
 30
0
 70
128
 71
14
 72
15
 73
21
 74
20
 0
VERTEX
 8
BOOLEANO
 10
0
 20
0
 30
0
 70
128
 71
20
 72
21
 73
27
 74
26
 0
VERTEX
 8
BOOLEANO
 10
0
 20
0
 30
0
 70
128
 71
26
 72
27
 73
33
 74
32
 0
VERTEX
 8
BOOLEANO
 10
0
 20
0
 30
0
 70
128
 71
3
 72
4
 73
10
 74
9
 0
VERTEX
 8
BOOLEANO
 10
0
 20
0
 30
0
 70
128
 71
9
 72
10
 73
16
 74
15
 0
VERTEX
 8
BOOLEANO
 10
0
 20
0
 30
0
 70
128
 71
15
 72
16
 73
22
 74
21
 0
VERTEX
 8
BOOLEANO
 10
0
 20
0
 30
0
 70
128
 71
21
 72
22
 73
28
 74
27
 0
VERTEX
 8
BOOLEANO
 10
0
 20
0
 30
0
 70
128
 71
27
 72
28
 73
34
 74
33
 0
VERTEX
 8
BOOLEANO
 10
0
 20
0
 30
0
 70
128
 71
4
 72
5
 73
11
 74
10
 0
VERTEX
 8
BOOLEANO
 10
0
 20
0
 30
0
 70
128
 71
10
 72
11
 73
17
 74
16
 0
VERTEX
 8
BOOLEANO
 10
0
 20
0
 30
0
 70
128
 71
16
 72
17
 73
23
 74
22
 0
VERTEX
 8
BOOLEANO
 10
0
 20
0
 30
0
 70
128
 71
22
 72
23
 73
29
 74
28
 0
VERTEX
 8
BOOLEANO
 10
0
 20
0
 30
0
 70
128
 71
28
 72
29
 73
35
 74
34
 0
VERTEX
 8
BOOLEANO
 10
0
 20
0
 30
0
 70
128
 71
5
 72
6
 73
12
 74
11
 0
VERTEX
 8
BOOLEANO
 10
0
 20
0
 30
0
 70
128
 71
11
 72
12
 73
18
 74
17
 0
VERTEX
 8
BOOLEANO
 10
0
 20
0
 30
0
 70
128
 71
17
 72
18
 73
24
 74
23
 0
VERTEX
 8
BOOLEANO
 10
0
 20
0
 30
0
 70
128
 71
23
 72
24
 73
30
 74
29
 0
VERTEX
 8
BOOLEANO
 10
0
 20
0
 30
0
 70
128
 71
29
 72
30
 73
36
 74
35
 0
VERTEX
 8
BOOLEANO
 10
0
 20
0
 30
0
 70
128
 71
31
 72
32
 73
38
 74
37
 0
VERTEX
 8
BOOLEANO
 10
0
 20
0
 30
0
 70
128
 71
32
 72
33
 73
39
 74
38
 0
VERTEX
 8
BOOLEANO
 10
0
 20
0
 30
0
 70
128
 71
33
 72
34
 73
40
 74
39
 0
VERTEX
 8
BOOLEANO
 10
0
 20
0
 30
0
 70
128
 71
34
 72
35
 73
41
 74
40
 0
VERTEX
 8
BOOLEANO
 10
0
 20
0
 30
0
 70
128
 71
35
 72
36
 73
42
 74
41
 0
VERTEX
 8
BOOLEANO
 10
0
 20
0
 30
0
 70
128
 71
37
 72
38
 73
44
 74
43
 0
VERTEX
 8
BOOLEANO
 10
0
 20
0
 30
0
 70
128
 71
43
 72
44
 73
50
 74
49
 0
VERTEX
 8
BOOLEANO
 10
0
 20
0
 30
0
 70
128
 71
49
 72
50
 73
56
 74
55
 0
VERTEX
 8
BOOLEANO
 10
0
 20
0
 30
0
 70
128
 71
55
 72
56
 73
62
 74
61
 0
VERTEX
 8
BOOLEANO
 10
0
 20
0
 30
0
 70
128
 71
61
 72
62
 73
66
 74
65
 0
VERTEX
 8
BOOLEANO
 10
0
 20
0
 30
0
 70
128
 71
38
 72
39
 73
45
 74
44
 0
VERTEX
 8
BOOLEANO
 10
0
 20
0
 30
0
 70
128
 71
44
 72
45
 73
51
 74
50
 0
VERTEX
 8
BOOLEANO
 10
0
 20
0
 30
0
 70
128
 71
50
 72
51
 73
57
 74
56
 0
VERTEX
 8
BOOLEANO
 10
0
 20
0
 30
0
 70
128
 71
56
 72
57
 73
63
 74
62
 0
VERTEX
 8
BOOLEANO
 10
0
 20
0
 30
0
 70
128
 71
62
 72
63
 73
67
 74
66
 0
VERTEX
 8
BOOLEANO
 10
0
 20
0
 30
0
 70
128
 71
39
 72
40
 73
46
 74
45
 0
VERTEX
 8
BOOLEANO
 10
0
 20
0
 30
0
 70
128
 71
45
 72
46
 73
52
 74
51
 0
VERTEX
 8
BOOLEANO
 10
0
 20
0
 30
0
 70
128
 71
51
 72
52
 73
58
 74
57
 0
VERTEX
 8
BOOLEANO
 10
0
 20
0
 30
0
 70
128
 71
74
 72
63
 73
57
 74
77
 0
VERTEX
 8
BOOLEANO
 10
0
 20
0
 30
0
 70
128
 71
57
 72
58
 73
72
 74
77
 0
VERTEX
 8
BOOLEANO
 10
0
 20
0
 30
0
 70
128
 71
78
 72
75
 73
68
 74
67
 0
VERTEX
 8
BOOLEANO
 10
0
 20
0
 30
0
 70
128
 71
63
 72
74
 73
78
 74
67
 0
VERTEX
 8
BOOLEANO
 10
0
 20
0
 30
0
 70
128
 71
40
 72
41
 73
47
 74
46
 0
VERTEX
 8
BOOLEANO
 10
0
 20
0
 30
0
 70
128
 71
46
 72
47
 73
53
 74
52
 0
VERTEX
 8
BOOLEANO
 10
0
 20
0
 30
0
 70
128
 71
52
 72
53
 73
59
 74
58
 0
VERTEX
 8
BOOLEANO
 10
0
 20
0
 30
0
 70
128
 71
72
 72
58
 73
59
 74
71
 0
VERTEX
 8
BOOLEANO
 10
0
 20
0
 30
0
 70
128
 71
73
 72
69
 73
68
 74
75
 0
VERTEX
 8
BOOLEANO
 10
0
 20
0
 30
0
 70
128
 71
41
 72
42
 73
48
 74
47
 0
VERTEX
 8
BOOLEANO
 10
0
 20
0
 30
0
 70
128
 71
47
 72
48
 73
54
 74
53
 0
VERTEX
 8
BOOLEANO
 10
0
 20
0
 30
0
 70
128
 71
53
 72
54
 73
60
 74
59
 0
VERTEX
 8
BOOLEANO
 10
0
 20
0
 30
0
 70
128
 71
80
 72
71
 73
59
 74
60
 0
VERTEX
 8
BOOLEANO
 10
0
 20
0
 30
0
 70
128
 71
64
 72
76
 73
80
 74
60
 0
VERTEX
 8
BOOLEANO
 10
0
 20
0
 30
0
 70
128
 71
79
 72
76
 73
64
 74
70
 0
VERTEX
 8
BOOLEANO
 10
0
 20
0
 30
0
 70
128
 71
69
 72
73
 73
79
 74
70
 0
VERTEX
 8
BOOLEANO
 10
0
 20
0
 30
0
 70
128
 71
65
 72
66
 73
2
 74
1
 0
VERTEX
 8
BOOLEANO
 10
0
 20
0
 30
0
 70
128
 71
66
 72
67
 73
3
 74
2
 0
VERTEX
 8
BOOLEANO
 10
0
 20
0
 30
0
 70
128
 71
67
 72
68
 73
4
 74
3
 0
VERTEX
 8
BOOLEANO
 10
0
 20
0
 30
0
 70
128
 71
68
 72
69
 73
5
 74
4
 0
VERTEX
 8
BOOLEANO
 10
0
 20
0
 30
0
 70
128
 71
69
 72
70
 73
6
 74
5
 0
VERTEX
 8
BOOLEANO
 10
0
 20
0
 30
0
 70
128
 71
6
 72
70
 73
64
 74
12
 0
VERTEX
 8
BOOLEANO
 10
0
 20
0
 30
0
 70
128
 71
12
 72
64
 73
60
 74
18
 0
VERTEX
 8
BOOLEANO
 10
0
 20
0
 30
0
 70
128
 71
18
 72
60
 73
54
 74
24
 0
VERTEX
 8
BOOLEANO
 10
0
 20
0
 30
0
 70
128
 71
24
 72
54
 73
48
 74
30
 0
VERTEX
 8
BOOLEANO
 10
0
 20
0
 30
0
 70
128
 71
30
 72
48
 73
42
 74
36
 0
VERTEX
 8
BOOLEANO
 10
0
 20
0
 30
0
 70
128
 71
65
 72
1
 73
7
 74
61
 0
VERTEX
 8
BOOLEANO
 10
0
 20
0
 30
0
 70
128
 71
61
 72
7
 73
13
 74
55
 0
VERTEX
 8
BOOLEANO
 10
0
 20
0
 30
0
 70
128
 71
55
 72
13
 73
19
 74
49
 0
VERTEX
 8
BOOLEANO
 10
0
 20
0
 30
0
 70
128
 71
49
 72
19
 73
25
 74
43
 0
VERTEX
 8
BOOLEANO
 10
0
 20
0
 30
0
 70
128
 71
43
 72
25
 73
31
 74
37
 0
VERTEX
 8
BOOLEANO
 10
0
 20
0
 30
0
 70
128
 71
82
 72
81
 73
83
 74
84
 0
VERTEX
 8
BOOLEANO
 10
0
 20
0
 30
0
 70
128
 71
83
 72
85
 73
89
 74
84
 0
VERTEX
 8
BOOLEANO
 10
0
 20
0
 30
0
 70
128
 71
86
 72
84
 73
92
 74
92
 0
VERTEX
 8
BOOLEANO
 10
0
 20
0
 30
0
 70
128
 71
92
 72
84
 73
89
 74
89
 0
VERTEX
 8
BOOLEANO
 10
0
 20
0
 30
0
 70
128
 71
88
 72
93
 73
82
 74
82
 0
VERTEX
 8
BOOLEANO
 10
0
 20
0
 30
0
 70
128
 71
91
 72
87
 73
81
 74
82
 0
VERTEX
 8
BOOLEANO
 10
0
 20
0
 30
0
 70
128
 71
82
 72
93
 73
91
 74
91
 0
VERTEX
 8
BOOLEANO
 10
0
 20
0
 30
0
 70
128
 71
86
 72
94
 73
84
 74
84
 0
VERTEX
 8
BOOLEANO
 10
0
 20
0
 30
0
 70
128
 71
82
 72
84
 73
94
 74
88
 0
VERTEX
 8
BOOLEANO
 10
0
 20
0
 30
0
 70
128
 71
87
 72
90
 73
81
 74
81
 0
VERTEX
 8
BOOLEANO
 10
0
 20
0
 30
0
 70
128
 71
83
 72
81
 73
90
 74
85
 0
VERTEX
 8
BOOLEANO
 10
0
 20
0
 30
0
 70
128
 71
95
 72
96
 73
98
 74
97
 0
VERTEX
 8
BOOLEANO
 10
0
 20
0
 30
0
 70
128
 71
97
 72
98
 73
100
 74
99
 0
VERTEX
 8
BOOLEANO
 10
0
 20
0
 30
0
 70
128
 71
99
 72
100
 73
102
 74
101
 0
VERTEX
 8
BOOLEANO
 10
0
 20
0
 30
0
 70
128
 71
101
 72
102
 73
104
 74
103
 0
VERTEX
 8
BOOLEANO
 10
0
 20
0
 30
0
 70
128
 71
103
 72
104
 73
106
 74
105
 0
VERTEX
 8
BOOLEANO
 10
0
 20
0
 30
0
 70
128
 71
105
 72
106
 73
96
 74
95
 0
VERTEX
 8
BOOLEANO
 10
0
 20
0
 30
0
 70
128
 71
96
 72
106
 73
104
 74
98
 0
VERTEX
 8
BOOLEANO
 10
0
 20
0
 30
0
 70
128
 71
98
 72
104
 73
102
 74
100
 0
VERTEX
 8
BOOLEANO
 10
0
 20
0
 30
0
 70
128
 71
105
 72
95
 73
97
 74
103
 0
VERTEX
 8
BOOLEANO
 10
0
 20
0
 30
0
 70
128
 71
103
 72
97
 73
99
 74
101
 0
VERTEX
 8
BOOLEANO
 10
0
 20
0
 30
0
 70
128
 71
107
 72
108
 73
112
 74
111
 0
VERTEX
 8
BOOLEANO
 10
0
 20
0
 30
0
 70
128
 71
111
 72
112
 73
116
 74
115
 0
VERTEX
 8
BOOLEANO
 10
0
 20
0
 30
0
 70
128
 71
115
 72
116
 73
120
 74
119
 0
VERTEX
 8
BOOLEANO
 10
0
 20
0
 30
0
 70
128
 71
108
 72
109
 73
113
 74
112
 0
VERTEX
 8
BOOLEANO
 10
0
 20
0
 30
0
 70
128
 71
112
 72
113
 73
117
 74
116
 0
VERTEX
 8
BOOLEANO
 10
0
 20
0
 30
0
 70
128
 71
116
 72
117
 73
121
 74
120
 0
VERTEX
 8
BOOLEANO
 10
0
 20
0
 30
0
 70
128
 71
109
 72
110
 73
114
 74
113
 0
VERTEX
 8
BOOLEANO
 10
0
 20
0
 30
0
 70
128
 71
113
 72
114
 73
118
 74
117
 0
VERTEX
 8
BOOLEANO
 10
0
 20
0
 30
0
 70
128
 71
117
 72
118
 73
122
 74
121
 0
VERTEX
 8
BOOLEANO
 10
0
 20
0
 30
0
 70
128
 71
119
 72
120
 73
124
 74
123
 0
VERTEX
 8
BOOLEANO
 10
0
 20
0
 30
0
 70
128
 71
120
 72
121
 73
125
 74
124
 0
VERTEX
 8
BOOLEANO
 10
0
 20
0
 30
0
 70
128
 71
121
 72
122
 73
126
 74
125
 0
VERTEX
 8
BOOLEANO
 10
0
 20
0
 30
0
 70
128
 71
123
 72
124
 73
128
 74
127
 0
VERTEX
 8
BOOLEANO
 10
0
 20
0
 30
0
 70
128
 71
127
 72
128
 73
132
 74
131
 0
VERTEX
 8
BOOLEANO
 10
0
 20
0
 30
0
 70
128
 71
131
 72
132
 73
136
 74
135
 0
VERTEX
 8
BOOLEANO
 10
0
 20
0
 30
0
 70
128
 71
124
 72
125
 73
129
 74
128
 0
VERTEX
 8
BOOLEANO
 10
0
 20
0
 30
0
 70
128
 71
128
 72
129
 73
133
 74
132
 0
VERTEX
 8
BOOLEANO
 10
0
 20
0
 30
0
 70
128
 71
132
 72
133
 73
137
 74
136
 0
VERTEX
 8
BOOLEANO
 10
0
 20
0
 30
0
 70
128
 71
125
 72
126
 73
130
 74
129
 0
VERTEX
 8
BOOLEANO
 10
0
 20
0
 30
0
 70
128
 71
129
 72
130
 73
134
 74
133
 0
VERTEX
 8
BOOLEANO
 10
0
 20
0
 30
0
 70
128
 71
133
 72
134
 73
138
 74
137
 0
VERTEX
 8
BOOLEANO
 10
0
 20
0
 30
0
 70
128
 71
135
 72
136
 73
108
 74
107
 0
VERTEX
 8
BOOLEANO
 10
0
 20
0
 30
0
 70
128
 71
136
 72
137
 73
109
 74
108
 0
VERTEX
 8
BOOLEANO
 10
0
 20
0
 30
0
 70
128
 71
137
 72
138
 73
110
 74
109
 0
VERTEX
 8
BOOLEANO
 10
0
 20
0
 30
0
 70
128
 71
110
 72
138
 73
134
 74
114
 0
VERTEX
 8
BOOLEANO
 10
0
 20
0
 30
0
 70
128
 71
114
 72
134
 73
130
 74
118
 0
VERTEX
 8
BOOLEANO
 10
0
 20
0
 30
0
 70
128
 71
118
 72
130
 73
126
 74
122
 0
VERTEX
 8
BOOLEANO
 10
0
 20
0
 30
0
 70
128
 71
135
 72
107
 73
111
 74
131
 0
VERTEX
 8
BOOLEANO
 10
0
 20
0
 30
0
 70
128
 71
131
 72
111
 73
115
 74
127
 0
VERTEX
 8
BOOLEANO
 10
0
 20
0
 30
0
 70
128
 71
127
 72
115
 73
119
 74
123
 0
VERTEX
 8
BOOLEANO
 10
0
 20
0
 30
0
 70
128
 71
139
 72
140
 73
147
 74
146
 0
VERTEX
 8
BOOLEANO
 10
0
 20
0
 30
0
 70
128
 71
140
 72
141
 73
148
 74
147
 0
VERTEX
 8
BOOLEANO
 10
0
 20
0
 30
0
 70
128
 71
141
 72
142
 73
149
 74
148
 0
VERTEX
 8
BOOLEANO
 10
0
 20
0
 30
0
 70
128
 71
142
 72
143
 73
150
 74
149
 0
VERTEX
 8
BOOLEANO
 10
0
 20
0
 30
0
 70
128
 71
143
 72
144
 73
151
 74
150
 0
VERTEX
 8
BOOLEANO
 10
0
 20
0
 30
0
 70
128
 71
144
 72
145
 73
152
 74
151
 0
VERTEX
 8
BOOLEANO
 10
0
 20
0
 30
0
 70
128
 71
146
 72
147
 73
154
 74
153
 0
VERTEX
 8
BOOLEANO
 10
0
 20
0
 30
0
 70
128
 71
147
 72
148
 73
155
 74
154
 0
VERTEX
 8
BOOLEANO
 10
0
 20
0
 30
0
 70
128
 71
148
 72
149
 73
156
 74
155
 0
VERTEX
 8
BOOLEANO
 10
0
 20
0
 30
0
 70
128
 71
149
 72
150
 73
157
 74
156
 0
VERTEX
 8
BOOLEANO
 10
0
 20
0
 30
0
 70
128
 71
150
 72
151
 73
158
 74
157
 0
VERTEX
 8
BOOLEANO
 10
0
 20
0
 30
0
 70
128
 71
151
 72
152
 73
159
 74
158
 0
VERTEX
 8
BOOLEANO
 10
0
 20
0
 30
0
 70
128
 71
153
 72
154
 73
161
 74
160
 0
VERTEX
 8
BOOLEANO
 10
0
 20
0
 30
0
 70
128
 71
154
 72
155
 73
162
 74
161
 0
VERTEX
 8
BOOLEANO
 10
0
 20
0
 30
0
 70
128
 71
155
 72
156
 73
163
 74
162
 0
VERTEX
 8
BOOLEANO
 10
0
 20
0
 30
0
 70
128
 71
156
 72
157
 73
164
 74
163
 0
VERTEX
 8
BOOLEANO
 10
0
 20
0
 30
0
 70
128
 71
157
 72
158
 73
165
 74
164
 0
VERTEX
 8
BOOLEANO
 10
0
 20
0
 30
0
 70
128
 71
158
 72
159
 73
166
 74
165
 0
VERTEX
 8
BOOLEANO
 10
0
 20
0
 30
0
 70
128
 71
160
 72
161
 73
140
 74
139
 0
VERTEX
 8
BOOLEANO
 10
0
 20
0
 30
0
 70
128
 71
161
 72
162
 73
141
 74
140
 0
VERTEX
 8
BOOLEANO
 10
0
 20
0
 30
0
 70
128
 71
162
 72
163
 73
142
 74
141
 0
VERTEX
 8
BOOLEANO
 10
0
 20
0
 30
0
 70
128
 71
163
 72
164
 73
143
 74
142
 0
VERTEX
 8
BOOLEANO
 10
0
 20
0
 30
0
 70
128
 71
164
 72
165
 73
144
 74
143
 0
VERTEX
 8
BOOLEANO
 10
0
 20
0
 30
0
 70
128
 71
165
 72
166
 73
145
 74
144
 0
VERTEX
 8
BOOLEANO
 10
0
 20
0
 30
0
 70
128
 71
145
 72
166
 73
159
 74
152
 0
VERTEX
 8
BOOLEANO
 10
0
 20
0
 30
0
 70
128
 71
160
 72
139
 73
146
 74
153
 0
VERTEX
 8
BOOLEANO
 10
0
 20
0
 30
0
 70
128
 71
167
 72
168
 73
170
 74
169
 0
VERTEX
 8
BOOLEANO
 10
0
 20
0
 30
0
 70
128
 71
169
 72
170
 73
172
 74
171
 0
VERTEX
 8
BOOLEANO
 10
0
 20
0
 30
0
 70
128
 71
171
 72
172
 73
174
 74
173
 0
VERTEX
 8
BOOLEANO
 10
0
 20
0
 30
0
 70
128
 71
173
 72
174
 73
168
 74
167
 0
VERTEX
 8
BOOLEANO
 10
0
 20
0
 30
0
 70
128
 71
168
 72
174
 73
172
 74
170
 0
VERTEX
 8
BOOLEANO
 10
0
 20
0
 30
0
 70
128
 71
173
 72
167
 73
169
 74
171
 0
VERTEX
 8
BOOLEANO
 10
0
 20
0
 30
0
 70
128
 71
175
 72
176
 73
178
 74
177
 0
VERTEX
 8
BOOLEANO
 10
0
 20
0
 30
0
 70
128
 71
177
 72
178
 73
180
 74
179
 0
VERTEX
 8
BOOLEANO
 10
0
 20
0
 30
0
 70
128
 71
179
 72
180
 73
182
 74
181
 0
VERTEX
 8
BOOLEANO
 10
0
 20
0
 30
0
 70
128
 71
181
 72
182
 73
176
 74
175
 0
VERTEX
 8
BOOLEANO
 10
0
 20
0
 30
0
 70
128
 71
176
 72
182
 73
180
 74
178
 0
VERTEX
 8
BOOLEANO
 10
0
 20
0
 30
0
 70
128
 71
181
 72
175
 73
177
 74
179
 0
SEQEND
 0
POLYLINE
 8
GRIP
 66
1
 10
0.0
 20
0.0
 30
0.0
 70
64
 71
16
 72
12
 0
VERTEX
 8
GRIP
 10
-0.3851
 20
-0.0407
 30
1.8131
 70
192
 0
VERTEX
 8
GRIP
 10
-0.3851
 20
-0.0407
 30
2.1018
 70
192
 0
VERTEX
 8
GRIP
 10
-0.3003
 20
-0.0407
 30
1.8131
 70
192
 0
VERTEX
 8
GRIP
 10
-0.3003
 20
-0.0407
 30
2.1018
 70
192
 0
VERTEX
 8
GRIP
 10
-0.3003
 20
0.0407
 30
1.8131
 70
192
 0
VERTEX
 8
GRIP
 10
-0.3003
 20
0.0407
 30
2.1018
 70
192
 0
VERTEX
 8
GRIP
 10
-0.3851
 20
0.0407
 30
1.8131
 70
192
 0
VERTEX
 8
GRIP
 10
-0.3851
 20
0.0407
 30
2.1018
 70
192
 0
VERTEX
 8
GRIP
 10
-0.4457
 20
-0.0688
 30
2.0607
 70
192
 0
VERTEX
 8
GRIP
 10
-0.4457
 20
-0.0688
 30
2.1533
 70
192
 0
VERTEX
 8
GRIP
 10
-0.2381
 20
-0.0688
 30
2.0607
 70
192
 0
VERTEX
 8
GRIP
 10
-0.2381
 20
-0.0688
 30
2.1533
 70
192
 0
VERTEX
 8
GRIP
 10
-0.2381
 20
0.0688
 30
2.0607
 70
192
 0
VERTEX
 8
GRIP
 10
-0.2381
 20
0.0688
 30
2.1533
 70
192
 0
VERTEX
 8
GRIP
 10
-0.4457
 20
0.0688
 30
2.0607
 70
192
 0
VERTEX
 8
GRIP
 10
-0.4457
 20
0.0688
 30
2.1533
 70
192
 0
VERTEX
 8
GRIP
 10
0
 20
0
 30
0
 70
128
 71
1
 72
2
 73
4
 74
3
 0
VERTEX
 8
GRIP
 10
0
 20
0
 30
0
 70
128
 71
3
 72
4
 73
6
 74
5
 0
VERTEX
 8
GRIP
 10
0
 20
0
 30
0
 70
128
 71
5
 72
6
 73
8
 74
7
 0
VERTEX
 8
GRIP
 10
0
 20
0
 30
0
 70
128
 71
7
 72
8
 73
2
 74
1
 0
VERTEX
 8
GRIP
 10
0
 20
0
 30
0
 70
128
 71
2
 72
8
 73
6
 74
4
 0
VERTEX
 8
GRIP
 10
0
 20
0
 30
0
 70
128
 71
7
 72
1
 73
3
 74
5
 0
VERTEX
 8
GRIP
 10
0
 20
0
 30
0
 70
128
 71
9
 72
10
 73
12
 74
11
 0
VERTEX
 8
GRIP
 10
0
 20
0
 30
0
 70
128
 71
11
 72
12
 73
14
 74
13
 0
VERTEX
 8
GRIP
 10
0
 20
0
 30
0
 70
128
 71
13
 72
14
 73
16
 74
15
 0
VERTEX
 8
GRIP
 10
0
 20
0
 30
0
 70
128
 71
15
 72
16
 73
10
 74
9
 0
VERTEX
 8
GRIP
 10
0
 20
0
 30
0
 70
128
 71
10
 72
16
 73
14
 74
12
 0
VERTEX
 8
GRIP
 10
0
 20
0
 30
0
 70
128
 71
15
 72
9
 73
11
 74
13
 0
SEQEND
 0
POLYLINE
 8
MIRA
 66
1
 10
0.0
 20
0.0
 30
0.0
 70
64
 71
32
 72
22
 0
VERTEX
 8
MIRA
 10
0.3998
 20
-0.0707
 30
2.2789
 70
192
 0
VERTEX
 8
MIRA
 10
0.3998
 20
-0.0707
 30
2.4131
 70
192
 0
VERTEX
 8
MIRA
 10
0.4337
 20
-0.0707
 30
2.2789
 70
192
 0
VERTEX
 8
MIRA
 10
0.4337
 20
-0.0707
 30
2.4131
 70
192
 0
VERTEX
 8
MIRA
 10
0.4337
 20
0.0707
 30
2.2789
 70
192
 0
VERTEX
 8
MIRA
 10
0.4337
 20
0.0707
 30
2.4131
 70
192
 0
VERTEX
 8
MIRA
 10
0.3998
 20
0.0707
 30
2.2789
 70
192
 0
VERTEX
 8
MIRA
 10
0.3998
 20
0.0707
 30
2.4131
 70
192
 0
VERTEX
 8
MIRA
 10
0.4337
 20
-0.0574
 30
2.4018
 70
192
 0
VERTEX
 8
MIRA
 10
0.4337
 20
-0.0574
 30
2.3171
 70
192
 0
VERTEX
 8
MIRA
 10
0.4337
 20
0.0574
 30
2.4018
 70
192
 0
VERTEX
 8
MIRA
 10
0.4337
 20
0.0574
 30
2.3171
 70
192
 0
VERTEX
 8
MIRA
 10
0.3998
 20
-0.0574
 30
2.4018
 70
192
 0
VERTEX
 8
MIRA
 10
0.3998
 20
-0.0574
 30
2.3171
 70
192
 0
VERTEX
 8
MIRA
 10
0.3998
 20
0.0574
 30
2.4018
 70
192
 0
VERTEX
 8
MIRA
 10
0.3998
 20
0.0574
 30
2.3171
 70
192
 0
VERTEX
 8
MIRA
 10
0.4337
 20
-0.0574
 30
2.4018
 70
192
 0
VERTEX
 8
MIRA
 10
0.4337
 20
-0.0574
 30
2.3171
 70
192
 0
VERTEX
 8
MIRA
 10
0.4337
 20
0.0574
 30
2.4018
 70
192
 0
VERTEX
 8
MIRA
 10
0.4337
 20
0.0574
 30
2.3171
 70
192
 0
VERTEX
 8
MIRA
 10
0.3998
 20
-0.0574
 30
2.4018
 70
192
 0
VERTEX
 8
MIRA
 10
0.3998
 20
-0.0574
 30
2.3171
 70
192
 0
VERTEX
 8
MIRA
 10
0.3998
 20
0.0574
 30
2.4018
 70
192
 0
VERTEX
 8
MIRA
 10
0.3998
 20
0.0574
 30
2.3171
 70
192
 0
VERTEX
 8
MIRA
 10
0.4031
 20
-0.066
 30
2.2816
 70
192
 0
VERTEX
 8
MIRA
 10
0.4031
 20
-0.066
 30
2.307
 70
192
 0
VERTEX
 8
MIRA
 10
0.6534
 20
-0.066
 30
2.2816
 70
192
 0
VERTEX
 8
MIRA
 10
0.6534
 20
-0.066
 30
2.307
 70
192
 0
VERTEX
 8
MIRA
 10
0.6534
 20
0.066
 30
2.2816
 70
192
 0
VERTEX
 8
MIRA
 10
0.6534
 20
0.066
 30
2.307
 70
192
 0
VERTEX
 8
MIRA
 10
0.4031
 20
0.066
 30
2.2816
 70
192
 0
VERTEX
 8
MIRA
 10
0.4031
 20
0.066
 30
2.307
 70
192
 0
VERTEX
 8
MIRA
 10
0
 20
0
 30
0
 70
128
 71
1
 72
2
 73
4
 74
3
 0
VERTEX
 8
MIRA
 10
0
 20
0
 30
0
 70
128
 71
10
 72
12
 73
5
 74
3
 0
VERTEX
 8
MIRA
 10
0
 20
0
 30
0
 70
128
 71
6
 72
5
 73
12
 74
11
 0
VERTEX
 8
MIRA
 10
0
 20
0
 30
0
 70
128
 71
4
 72
6
 73
11
 74
9
 0
VERTEX
 8
MIRA
 10
0
 20
0
 30
0
 70
128
 71
9
 72
10
 73
3
 74
4
 0
VERTEX
 8
MIRA
 10
0
 20
0
 30
0
 70
128
 71
5
 72
6
 73
8
 74
7
 0
VERTEX
 8
MIRA
 10
0
 20
0
 30
0
 70
128
 71
16
 72
14
 73
1
 74
7
 0
VERTEX
 8
MIRA
 10
0
 20
0
 30
0
 70
128
 71
2
 72
1
 73
14
 74
13
 0
VERTEX
 8
MIRA
 10
0
 20
0
 30
0
 70
128
 71
8
 72
2
 73
13
 74
15
 0
VERTEX
 8
MIRA
 10
0
 20
0
 30
0
 70
128
 71
15
 72
16
 73
7
 74
8
 0
VERTEX
 8
MIRA
 10
0
 20
0
 30
0
 70
128
 71
2
 72
8
 73
6
 74
4
 0
VERTEX
 8
MIRA
 10
0
 20
0
 30
0
 70
128
 71
7
 72
1
 73
3
 74
5
 0
VERTEX
 8
MIRA
 10
0
 20
0
 30
0
 70
128
 71
17
 72
21
 73
22
 74
18
 0
VERTEX
 8
MIRA
 10
0
 20
0
 30
0
 70
128
 71
20
 72
24
 73
23
 74
19
 0
VERTEX
 8
MIRA
 10
0
 20
0
 30
0
 70
128
 71
19
 72
23
 73
21
 74
17
 0
VERTEX
 8
MIRA
 10
0
 20
0
 30
0
 70
128
 71
24
 72
20
 73
18
 74
22
 0
VERTEX
 8
MIRA
 10
0
 20
0
 30
0
 70
128
 71
25
 72
26
 73
28
 74
27
 0
VERTEX
 8
MIRA
 10
0
 20
0
 30
0
 70
128
 71
27
 72
28
 73
30
 74
29
 0
VERTEX
 8
MIRA
 10
0
 20
0
 30
0
 70
128
 71
29
 72
30
 73
32
 74
31
 0
VERTEX
 8
MIRA
 10
0
 20
0
 30
0
 70
128
 71
31
 72
32
 73
26
 74
25
 0
VERTEX
 8
MIRA
 10
0
 20
0
 30
0
 70
128
 71
26
 72
32
 73
30
 74
28
 0
VERTEX
 8
MIRA
 10
0
 20
0
 30
0
 70
128
 71
31
 72
25
 73
27
 74
29
 0
SEQEND
 0
POLYLINE
 8
CARGADOR
 66
1
 10
0.0
 20
0.0
 30
0.0
 70
64
 71
12
 72
10
 0
VERTEX
 8
CARGADOR
 10
0.5396
 20
-0.0418
 30
1.6793
 70
192
 0
VERTEX
 8
CARGADOR
 10
0.661
 20
-0.043
 30
1.9148
 70
192
 0
VERTEX
 8
CARGADOR
 10
0.6938
 20
-0.043
 30
2.1203
 70
192
 0
VERTEX
 8
CARGADOR
 10
0.7164
 20
-0.0597
 30
1.5783
 70
192
 0
VERTEX
 8
CARGADOR
 10
0.8629
 20
-0.043
 30
1.8825
 70
192
 0
VERTEX
 8
CARGADOR
 10
0.8957
 20
-0.043
 30
2.088
 70
192
 0
VERTEX
 8
CARGADOR
 10
0.7215
 20
0.0258
 30
1.5721
 70
192
 0
VERTEX
 8
CARGADOR
 10
0.8629
 20
0.043
 30
1.8825
 70
192
 0
VERTEX
 8
CARGADOR
 10
0.8957
 20
0.043
 30
2.088
 70
192
 0
VERTEX
 8
CARGADOR
 10
0.5447
 20
0.0438
 30
1.6731
 70
192
 0
VERTEX
 8
CARGADOR
 10
0.661
 20
0.043
 30
1.9148
 70
192
 0
VERTEX
 8
CARGADOR
 10
0.6938
 20
0.043
 30
2.1203
 70
192
 0
VERTEX
 8
CARGADOR
 10
0
 20
0
 30
0
 70
128
 71
1
 72
2
 73
5
 74
4
 0
VERTEX
 8
CARGADOR
 10
0
 20
0
 30
0
 70
128
 71
2
 72
3
 73
6
 74
5
 0
VERTEX
 8
CARGADOR
 10
0
 20
0
 30
0
 70
128
 71
4
 72
5
 73
8
 74
7
 0
VERTEX
 8
CARGADOR
 10
0
 20
0
 30
0
 70
128
 71
5
 72
6
 73
9
 74
8
 0
VERTEX
 8
CARGADOR
 10
0
 20
0
 30
0
 70
128
 71
7
 72
8
 73
11
 74
10
 0
VERTEX
 8
CARGADOR
 10
0
 20
0
 30
0
 70
128
 71
8
 72
9
 73
12
 74
11
 0
VERTEX
 8
CARGADOR
 10
0
 20
0
 30
0
 70
128
 71
10
 72
11
 73
2
 74
1
 0
VERTEX
 8
CARGADOR
 10
0
 20
0
 30
0
 70
128
 71
11
 72
12
 73
3
 74
2
 0
VERTEX
 8
CARGADOR
 10
0
 20
0
 30
0
 70
128
 71
3
 72
12
 73
9
 74
6
 0
VERTEX
 8
CARGADOR
 10
0
 20
0
 30
0
 70
128
 71
10
 72
1
 73
4
 74
7
 0
SEQEND
 0
POLYLINE
 8
GATILLO
 66
1
 10
0.0
 20
0.0
 30
0.0
 70
64
 71
8
 72
6
 0
VERTEX
 8
GATILLO
 10
0.0386
 20
-0.0128
 30
2.017
 70
192
 0
VERTEX
 8
GATILLO
 10
0.0463
 20
-0.0128
 30
2.0859
 70
192
 0
VERTEX
 8
GATILLO
 10
0.0489
 20
-0.0128
 30
2.0158
 70
192
 0
VERTEX
 8
GATILLO
 10
0.0566
 20
-0.0128
 30
2.0848
 70
192
 0
VERTEX
 8
GATILLO
 10
0.0489
 20
0.0128
 30
2.0158
 70
192
 0
VERTEX
 8
GATILLO
 10
0.0566
 20
0.0128
 30
2.0848
 70
192
 0
VERTEX
 8
GATILLO
 10
0.0386
 20
0.0128
 30
2.017
 70
192
 0
VERTEX
 8
GATILLO
 10
0.0463
 20
0.0128
 30
2.0859
 70
192
 0
VERTEX
 8
GATILLO
 10
0
 20
0
 30
0
 70
128
 71
1
 72
2
 73
4
 74
3
 0
VERTEX
 8
GATILLO
 10
0
 20
0
 30
0
 70
128
 71
3
 72
4
 73
6
 74
5
 0
VERTEX
 8
GATILLO
 10
0
 20
0
 30
0
 70
128
 71
5
 72
6
 73
8
 74
7
 0
VERTEX
 8
GATILLO
 10
0
 20
0
 30
0
 70
128
 71
7
 72
8
 73
2
 74
1
 0
VERTEX
 8
GATILLO
 10
0
 20
0
 30
0
 70
128
 71
2
 72
8
 73
6
 74
4
 0
VERTEX
 8
GATILLO
 10
0
 20
0
 30
0
 70
128
 71
7
 72
1
 73
3
 74
5
 0
SEQEND
 0
POLYLINE
 8
CA_ON
 66
1
 10
0.0
 20
0.0
 30
0.0
 70
64
 71
439
 72
257
 0
VERTEX
 8
CA_ON
 10
-1.0904
 20
0
 30
2.1429
 70
192
 0
VERTEX
 8
CA_ON
 10
-1.0904
 20
0
 30
2.1267
 70
192
 0
VERTEX
 8
CA_ON
 10
-1.0904
 20
0
 30
2.1267
 70
192
 0
VERTEX
 8
CA_ON
 10
-0.9873
 20
0
 30
2.1267
 70
192
 0
VERTEX
 8
CA_ON
 10
-0.9873
 20
0
 30
2.1267
 70
192
 0
VERTEX
 8
CA_ON
 10
-0.9873
 20
0
 30
2.1429
 70
192
 0
VERTEX
 8
CA_ON
 10
-0.9873
 20
0
 30
2.1429
 70
192
 0
VERTEX
 8
CA_ON
 10
-1.0904
 20
0
 30
2.1429
 70
192
 0
VERTEX
 8
CA_ON
 10
-1.0904
 20
0.0036
 30
2.1432
 70
192
 0
VERTEX
 8
CA_ON
 10
-1.0904
 20
0.0064
 30
2.1273
 70
192
 0
VERTEX
 8
CA_ON
 10
-1.0904
 20
0.0064
 30
2.1273
 70
192
 0
VERTEX
 8
CA_ON
 10
-0.9873
 20
0.0064
 30
2.1273
 70
192
 0
VERTEX
 8
CA_ON
 10
-0.9873
 20
0.0064
 30
2.1273
 70
192
 0
VERTEX
 8
CA_ON
 10
-0.9873
 20
0.0036
 30
2.1432
 70
192
 0
VERTEX
 8
CA_ON
 10
-0.9873
 20
0.0036
 30
2.1432
 70
192
 0
VERTEX
 8
CA_ON
 10
-1.0904
 20
0.0036
 30
2.1432
 70
192
 0
VERTEX
 8
CA_ON
 10
-1.0904
 20
0.007
 30
2.1441
 70
192
 0
VERTEX
 8
CA_ON
 10
-1.0904
 20
0.0126
 30
2.1289
 70
192
 0
VERTEX
 8
CA_ON
 10
-1.0904
 20
0.0126
 30
2.1289
 70
192
 0
VERTEX
 8
CA_ON
 10
-0.9873
 20
0.0126
 30
2.1289
 70
192
 0
VERTEX
 8
CA_ON
 10
-0.9873
 20
0.0126
 30
2.1289
 70
192
 0
VERTEX
 8
CA_ON
 10
-0.9873
 20
0.007
 30
2.1441
 70
192
 0
VERTEX
 8
CA_ON
 10
-0.9873
 20
0.007
 30
2.1441
 70
192
 0
VERTEX
 8
CA_ON
 10
-1.0904
 20
0.007
 30
2.1441
 70
192
 0
VERTEX
 8
CA_ON
 10
-1.0904
 20
0.0103
 30
2.1456
 70
192
 0
VERTEX
 8
CA_ON
 10
-1.0904
 20
0.0184
 30
2.1316
 70
192
 0
VERTEX
 8
CA_ON
 10
-1.0904
 20
0.0184
 30
2.1316
 70
192
 0
VERTEX
 8
CA_ON
 10
-0.9873
 20
0.0184
 30
2.1316
 70
192
 0
VERTEX
 8
CA_ON
 10
-0.9873
 20
0.0184
 30
2.1316
 70
192
 0
VERTEX
 8
CA_ON
 10
-0.9873
 20
0.0103
 30
2.1456
 70
192
 0
VERTEX
 8
CA_ON
 10
-0.9873
 20
0.0103
 30
2.1456
 70
192
 0
VERTEX
 8
CA_ON
 10
-1.0904
 20
0.0103
 30
2.1456
 70
192
 0
VERTEX
 8
CA_ON
 10
-1.0904
 20
0.0132
 30
2.1477
 70
192
 0
VERTEX
 8
CA_ON
 10
-1.0904
 20
0.0236
 30
2.1353
 70
192
 0
VERTEX
 8
CA_ON
 10
-1.0904
 20
0.0236
 30
2.1353
 70
192
 0
VERTEX
 8
CA_ON
 10
-0.9873
 20
0.0236
 30
2.1353
 70
192
 0
VERTEX
 8
CA_ON
 10
-0.9873
 20
0.0236
 30
2.1353
 70
192
 0
VERTEX
 8
CA_ON
 10
-0.9873
 20
0.0132
 30
2.1477
 70
192
 0
VERTEX
 8
CA_ON
 10
-0.9873
 20
0.0132
 30
2.1477
 70
192
 0
VERTEX
 8
CA_ON
 10
-1.0904
 20
0.0132
 30
2.1477
 70
192
 0
VERTEX
 8
CA_ON
 10
-1.0904
 20
0.0158
 30
2.1502
 70
192
 0
VERTEX
 8
CA_ON
 10
-1.0904
 20
0.0282
 30
2.1398
 70
192
 0
VERTEX
 8
CA_ON
 10
-1.0904
 20
0.0282
 30
2.1398
 70
192
 0
VERTEX
 8
CA_ON
 10
-0.9873
 20
0.0282
 30
2.1398
 70
192
 0
VERTEX
 8
CA_ON
 10
-0.9873
 20
0.0282
 30
2.1398
 70
192
 0
VERTEX
 8
CA_ON
 10
-0.9873
 20
0.0158
 30
2.1502
 70
192
 0
VERTEX
 8
CA_ON
 10
-0.9873
 20
0.0158
 30
2.1502
 70
192
 0
VERTEX
 8
CA_ON
 10
-1.0904
 20
0.0158
 30
2.1502
 70
192
 0
VERTEX
 8
CA_ON
 10
-1.0904
 20
0.0178
 30
2.1532
 70
192
 0
VERTEX
 8
CA_ON
 10
-1.0904
 20
0.0318
 30
2.1451
 70
192
 0
VERTEX
 8
CA_ON
 10
-1.0904
 20
0.0318
 30
2.1451
 70
192
 0
VERTEX
 8
CA_ON
 10
-0.9873
 20
0.0318
 30
2.1451
 70
192
 0
VERTEX
 8
CA_ON
 10
-0.9873
 20
0.0318
 30
2.1451
 70
192
 0
VERTEX
 8
CA_ON
 10
-0.9873
 20
0.0178
 30
2.1532
 70
192
 0
VERTEX
 8
CA_ON
 10
-0.9873
 20
0.0178
 30
2.1532
 70
192
 0
VERTEX
 8
CA_ON
 10
-1.0904
 20
0.0178
 30
2.1532
 70
192
 0
VERTEX
 8
CA_ON
 10
-1.0904
 20
0.0194
 30
2.1564
 70
192
 0
VERTEX
 8
CA_ON
 10
-1.0904
 20
0.0345
 30
2.1509
 70
192
 0
VERTEX
 8
CA_ON
 10
-1.0904
 20
0.0345
 30
2.1509
 70
192
 0
VERTEX
 8
CA_ON
 10
-0.9873
 20
0.0345
 30
2.1509
 70
192
 0
VERTEX
 8
CA_ON
 10
-0.9873
 20
0.0345
 30
2.1509
 70
192
 0
VERTEX
 8
CA_ON
 10
-0.9873
 20
0.0194
 30
2.1564
 70
192
 0
VERTEX
 8
CA_ON
 10
-0.9873
 20
0.0194
 30
2.1564
 70
192
 0
VERTEX
 8
CA_ON
 10
-1.0904
 20
0.0194
 30
2.1564
 70
192
 0
VERTEX
 8
CA_ON
 10
-1.0904
 20
0.0203
 30
2.1599
 70
192
 0
VERTEX
 8
CA_ON
 10
-1.0904
 20
0.0362
 30
2.1571
 70
192
 0
VERTEX
 8
CA_ON
 10
-1.0904
 20
0.0362
 30
2.1571
 70
192
 0
VERTEX
 8
CA_ON
 10
-0.9873
 20
0.0362
 30
2.1571
 70
192
 0
VERTEX
 8
CA_ON
 10
-0.9873
 20
0.0362
 30
2.1571
 70
192
 0
VERTEX
 8
CA_ON
 10
-0.9873
 20
0.0203
 30
2.1599
 70
192
 0
VERTEX
 8
CA_ON
 10
-0.9873
 20
0.0203
 30
2.1599
 70
192
 0
VERTEX
 8
CA_ON
 10
-1.0904
 20
0.0203
 30
2.1599
 70
192
 0
VERTEX
 8
CA_ON
 10
-1.0904
 20
0.0206
 30
2.1635
 70
192
 0
VERTEX
 8
CA_ON
 10
-1.0904
 20
0.0368
 30
2.1635
 70
192
 0
VERTEX
 8
CA_ON
 10
-1.0904
 20
0.0368
 30
2.1635
 70
192
 0
VERTEX
 8
CA_ON
 10
-0.9873
 20
0.0368
 30
2.1635
 70
192
 0
VERTEX
 8
CA_ON
 10
-0.9873
 20
0.0368
 30
2.1635
 70
192
 0
VERTEX
 8
CA_ON
 10
-0.9873
 20
0.0206
 30
2.1635
 70
192
 0
VERTEX
 8
CA_ON
 10
-0.9873
 20
0.0206
 30
2.1635
 70
192
 0
VERTEX
 8
CA_ON
 10
-1.0904
 20
0.0206
 30
2.1635
 70
192
 0
VERTEX
 8
CA_ON
 10
-1.0904
 20
0.0203
 30
2.167
 70
192
 0
VERTEX
 8
CA_ON
 10
-1.0904
 20
0.0362
 30
2.1698
 70
192
 0
VERTEX
 8
CA_ON
 10
-1.0904
 20
0.0362
 30
2.1698
 70
192
 0
VERTEX
 8
CA_ON
 10
-0.9873
 20
0.0362
 30
2.1698
 70
192
 0
VERTEX
 8
CA_ON
 10
-0.9873
 20
0.0362
 30
2.1698
 70
192
 0
VERTEX
 8
CA_ON
 10
-0.9873
 20
0.0203
 30
2.167
 70
192
 0
VERTEX
 8
CA_ON
 10
-0.9873
 20
0.0203
 30
2.167
 70
192
 0
VERTEX
 8
CA_ON
 10
-1.0904
 20
0.0203
 30
2.167
 70
192
 0
VERTEX
 8
CA_ON
 10
-1.0904
 20
0.0194
 30
2.1705
 70
192
 0
VERTEX
 8
CA_ON
 10
-1.0904
 20
0.0345
 30
2.176
 70
192
 0
VERTEX
 8
CA_ON
 10
-1.0904
 20
0.0345
 30
2.176
 70
192
 0
VERTEX
 8
CA_ON
 10
-0.9873
 20
0.0345
 30
2.176
 70
192
 0
VERTEX
 8
CA_ON
 10
-0.9873
 20
0.0345
 30
2.176
 70
192
 0
VERTEX
 8
CA_ON
 10
-0.9873
 20
0.0194
 30
2.1705
 70
192
 0
VERTEX
 8
CA_ON
 10
-0.9873
 20
0.0194
 30
2.1705
 70
192
 0
VERTEX
 8
CA_ON
 10
-1.0904
 20
0.0194
 30
2.1705
 70
192
 0
VERTEX
 8
CA_ON
 10
-1.0904
 20
0.0178
 30
2.1738
 70
192
 0
VERTEX
 8
CA_ON
 10
-1.0904
 20
0.0318
 30
2.1818
 70
192
 0
VERTEX
 8
CA_ON
 10
-1.0904
 20
0.0318
 30
2.1818
 70
192
 0
VERTEX
 8
CA_ON
 10
-0.9873
 20
0.0318
 30
2.1818
 70
192
 0
VERTEX
 8
CA_ON
 10
-0.9873
 20
0.0318
 30
2.1818
 70
192
 0
VERTEX
 8
CA_ON
 10
-0.9873
 20
0.0178
 30
2.1738
 70
192
 0
VERTEX
 8
CA_ON
 10
-0.9873
 20
0.0178
 30
2.1738
 70
192
 0
VERTEX
 8
CA_ON
 10
-1.0904
 20
0.0178
 30
2.1738
 70
192
 0
VERTEX
 8
CA_ON
 10
-1.0904
 20
0.0158
 30
2.1767
 70
192
 0
VERTEX
 8
CA_ON
 10
-1.0904
 20
0.0282
 30
2.1871
 70
192
 0
VERTEX
 8
CA_ON
 10
-1.0904
 20
0.0282
 30
2.1871
 70
192
 0
VERTEX
 8
CA_ON
 10
-0.9873
 20
0.0282
 30
2.1871
 70
192
 0
VERTEX
 8
CA_ON
 10
-0.9873
 20
0.0282
 30
2.1871
 70
192
 0
VERTEX
 8
CA_ON
 10
-0.9873
 20
0.0158
 30
2.1767
 70
192
 0
VERTEX
 8
CA_ON
 10
-0.9873
 20
0.0158
 30
2.1767
 70
192
 0
VERTEX
 8
CA_ON
 10
-1.0904
 20
0.0158
 30
2.1767
 70
192
 0
VERTEX
 8
CA_ON
 10
-1.0904
 20
0.0132
 30
2.1792
 70
192
 0
VERTEX
 8
CA_ON
 10
-1.0904
 20
0.0236
 30
2.1916
 70
192
 0
VERTEX
 8
CA_ON
 10
-1.0904
 20
0.0236
 30
2.1916
 70
192
 0
VERTEX
 8
CA_ON
 10
-0.9873
 20
0.0236
 30
2.1916
 70
192
 0
VERTEX
 8
CA_ON
 10
-0.9873
 20
0.0236
 30
2.1916
 70
192
 0
VERTEX
 8
CA_ON
 10
-0.9873
 20
0.0132
 30
2.1792
 70
192
 0
VERTEX
 8
CA_ON
 10
-0.9873
 20
0.0132
 30
2.1792
 70
192
 0
VERTEX
 8
CA_ON
 10
-1.0904
 20
0.0132
 30
2.1792
 70
192
 0
VERTEX
 8
CA_ON
 10
-1.0904
 20
0.0103
 30
2.1813
 70
192
 0
VERTEX
 8
CA_ON
 10
-1.0904
 20
0.0184
 30
2.1953
 70
192
 0
VERTEX
 8
CA_ON
 10
-1.0904
 20
0.0184
 30
2.1953
 70
192
 0
VERTEX
 8
CA_ON
 10
-0.9873
 20
0.0184
 30
2.1953
 70
192
 0
VERTEX
 8
CA_ON
 10
-0.9873
 20
0.0184
 30
2.1953
 70
192
 0
VERTEX
 8
CA_ON
 10
-0.9873
 20
0.0103
 30
2.1813
 70
192
 0
VERTEX
 8
CA_ON
 10
-0.9873
 20
0.0103
 30
2.1813
 70
192
 0
VERTEX
 8
CA_ON
 10
-1.0904
 20
0.0103
 30
2.1813
 70
192
 0
VERTEX
 8
CA_ON
 10
-1.0904
 20
0.007
 30
2.1828
 70
192
 0
VERTEX
 8
CA_ON
 10
-1.0904
 20
0.0126
 30
2.198
 70
192
 0
VERTEX
 8
CA_ON
 10
-1.0904
 20
0.0126
 30
2.198
 70
192
 0
VERTEX
 8
CA_ON
 10
-0.9873
 20
0.0126
 30
2.198
 70
192
 0
VERTEX
 8
CA_ON
 10
-0.9873
 20
0.0126
 30
2.198
 70
192
 0
VERTEX
 8
CA_ON
 10
-0.9873
 20
0.007
 30
2.1828
 70
192
 0
VERTEX
 8
CA_ON
 10
-0.9873
 20
0.007
 30
2.1828
 70
192
 0
VERTEX
 8
CA_ON
 10
-1.0904
 20
0.007
 30
2.1828
 70
192
 0
VERTEX
 8
CA_ON
 10
-1.0904
 20
0.0036
 30
2.1838
 70
192
 0
VERTEX
 8
CA_ON
 10
-1.0904
 20
0.0064
 30
2.1997
 70
192
 0
VERTEX
 8
CA_ON
 10
-1.0904
 20
0.0064
 30
2.1997
 70
192
 0
VERTEX
 8
CA_ON
 10
-0.9873
 20
0.0064
 30
2.1997
 70
192
 0
VERTEX
 8
CA_ON
 10
-0.9873
 20
0.0064
 30
2.1997
 70
192
 0
VERTEX
 8
CA_ON
 10
-0.9873
 20
0.0036
 30
2.1838
 70
192
 0
VERTEX
 8
CA_ON
 10
-0.9873
 20
0.0036
 30
2.1838
 70
192
 0
VERTEX
 8
CA_ON
 10
-1.0904
 20
0.0036
 30
2.1838
 70
192
 0
VERTEX
 8
CA_ON
 10
-1.0904
 20
0
 30
2.1841
 70
192
 0
VERTEX
 8
CA_ON
 10
-1.0904
 20
0
 30
2.2002
 70
192
 0
VERTEX
 8
CA_ON
 10
-1.0904
 20
0
 30
2.2002
 70
192
 0
VERTEX
 8
CA_ON
 10
-0.9873
 20
0
 30
2.2002
 70
192
 0
VERTEX
 8
CA_ON
 10
-0.9873
 20
0
 30
2.2002
 70
192
 0
VERTEX
 8
CA_ON
 10
-0.9873
 20
0
 30
2.1841
 70
192
 0
VERTEX
 8
CA_ON
 10
-0.9873
 20
0
 30
2.1841
 70
192
 0
VERTEX
 8
CA_ON
 10
-1.0904
 20
0
 30
2.1841
 70
192
 0
VERTEX
 8
CA_ON
 10
-1.0904
 20
-0.0036
 30
2.1838
 70
192
 0
VERTEX
 8
CA_ON
 10
-1.0904
 20
-0.0064
 30
2.1997
 70
192
 0
VERTEX
 8
CA_ON
 10
-1.0904
 20
-0.0064
 30
2.1997
 70
192
 0
VERTEX
 8
CA_ON
 10
-0.9873
 20
-0.0064
 30
2.1997
 70
192
 0
VERTEX
 8
CA_ON
 10
-0.9873
 20
-0.0064
 30
2.1997
 70
192
 0
VERTEX
 8
CA_ON
 10
-0.9873
 20
-0.0036
 30
2.1838
 70
192
 0
VERTEX
 8
CA_ON
 10
-0.9873
 20
-0.0036
 30
2.1838
 70
192
 0
VERTEX
 8
CA_ON
 10
-1.0904
 20
-0.0036
 30
2.1838
 70
192
 0
VERTEX
 8
CA_ON
 10
-1.0904
 20
-0.007
 30
2.1828
 70
192
 0
VERTEX
 8
CA_ON
 10
-1.0904
 20
-0.0126
 30
2.198
 70
192
 0
VERTEX
 8
CA_ON
 10
-1.0904
 20
-0.0126
 30
2.198
 70
192
 0
VERTEX
 8
CA_ON
 10
-0.9873
 20
-0.0126
 30
2.198
 70
192
 0
VERTEX
 8
CA_ON
 10
-0.9873
 20
-0.0126
 30
2.198
 70
192
 0
VERTEX
 8
CA_ON
 10
-0.9873
 20
-0.007
 30
2.1828
 70
192
 0
VERTEX
 8
CA_ON
 10
-0.9873
 20
-0.007
 30
2.1828
 70
192
 0
VERTEX
 8
CA_ON
 10
-1.0904
 20
-0.007
 30
2.1828
 70
192
 0
VERTEX
 8
CA_ON
 10
-1.0904
 20
-0.0103
 30
2.1813
 70
192
 0
VERTEX
 8
CA_ON
 10
-1.0904
 20
-0.0184
 30
2.1953
 70
192
 0
VERTEX
 8
CA_ON
 10
-1.0904
 20
-0.0184
 30
2.1953
 70
192
 0
VERTEX
 8
CA_ON
 10
-0.9873
 20
-0.0184
 30
2.1953
 70
192
 0
VERTEX
 8
CA_ON
 10
-0.9873
 20
-0.0184
 30
2.1953
 70
192
 0
VERTEX
 8
CA_ON
 10
-0.9873
 20
-0.0103
 30
2.1813
 70
192
 0
VERTEX
 8
CA_ON
 10
-0.9873
 20
-0.0103
 30
2.1813
 70
192
 0
VERTEX
 8
CA_ON
 10
-1.0904
 20
-0.0103
 30
2.1813
 70
192
 0
VERTEX
 8
CA_ON
 10
-1.0904
 20
-0.0132
 30
2.1792
 70
192
 0
VERTEX
 8
CA_ON
 10
-1.0904
 20
-0.0236
 30
2.1916
 70
192
 0
VERTEX
 8
CA_ON
 10
-1.0904
 20
-0.0236
 30
2.1916
 70
192
 0
VERTEX
 8
CA_ON
 10
-0.9873
 20
-0.0236
 30
2.1916
 70
192
 0
VERTEX
 8
CA_ON
 10
-0.9873
 20
-0.0236
 30
2.1916
 70
192
 0
VERTEX
 8
CA_ON
 10
-0.9873
 20
-0.0132
 30
2.1792
 70
192
 0
VERTEX
 8
CA_ON
 10
-0.9873
 20
-0.0132
 30
2.1792
 70
192
 0
VERTEX
 8
CA_ON
 10
-1.0904
 20
-0.0132
 30
2.1792
 70
192
 0
VERTEX
 8
CA_ON
 10
-1.0904
 20
-0.0158
 30
2.1767
 70
192
 0
VERTEX
 8
CA_ON
 10
-1.0904
 20
-0.0282
 30
2.1871
 70
192
 0
VERTEX
 8
CA_ON
 10
-1.0904
 20
-0.0282
 30
2.1871
 70
192
 0
VERTEX
 8
CA_ON
 10
-0.9873
 20
-0.0282
 30
2.1871
 70
192
 0
VERTEX
 8
CA_ON
 10
-0.9873
 20
-0.0282
 30
2.1871
 70
192
 0
VERTEX
 8
CA_ON
 10
-0.9873
 20
-0.0158
 30
2.1767
 70
192
 0
VERTEX
 8
CA_ON
 10
-0.9873
 20
-0.0158
 30
2.1767
 70
192
 0
VERTEX
 8
CA_ON
 10
-1.0904
 20
-0.0158
 30
2.1767
 70
192
 0
VERTEX
 8
CA_ON
 10
-1.0904
 20
-0.0178
 30
2.1738
 70
192
 0
VERTEX
 8
CA_ON
 10
-1.0904
 20
-0.0318
 30
2.1818
 70
192
 0
VERTEX
 8
CA_ON
 10
-1.0904
 20
-0.0318
 30
2.1818
 70
192
 0
VERTEX
 8
CA_ON
 10
-0.9873
 20
-0.0318
 30
2.1818
 70
192
 0
VERTEX
 8
CA_ON
 10
-0.9873
 20
-0.0318
 30
2.1818
 70
192
 0
VERTEX
 8
CA_ON
 10
-0.9873
 20
-0.0178
 30
2.1738
 70
192
 0
VERTEX
 8
CA_ON
 10
-0.9873
 20
-0.0178
 30
2.1738
 70
192
 0
VERTEX
 8
CA_ON
 10
-1.0904
 20
-0.0178
 30
2.1738
 70
192
 0
VERTEX
 8
CA_ON
 10
-1.0904
 20
-0.0194
 30
2.1705
 70
192
 0
VERTEX
 8
CA_ON
 10
-1.0904
 20
-0.0345
 30
2.176
 70
192
 0
VERTEX
 8
CA_ON
 10
-1.0904
 20
-0.0345
 30
2.176
 70
192
 0
VERTEX
 8
CA_ON
 10
-0.9873
 20
-0.0345
 30
2.176
 70
192
 0
VERTEX
 8
CA_ON
 10
-0.9873
 20
-0.0345
 30
2.176
 70
192
 0
VERTEX
 8
CA_ON
 10
-0.9873
 20
-0.0194
 30
2.1705
 70
192
 0
VERTEX
 8
CA_ON
 10
-0.9873
 20
-0.0194
 30
2.1705
 70
192
 0
VERTEX
 8
CA_ON
 10
-1.0904
 20
-0.0194
 30
2.1705
 70
192
 0
VERTEX
 8
CA_ON
 10
-1.0904
 20
-0.0203
 30
2.167
 70
192
 0
VERTEX
 8
CA_ON
 10
-1.0904
 20
-0.0362
 30
2.1698
 70
192
 0
VERTEX
 8
CA_ON
 10
-1.0904
 20
-0.0362
 30
2.1698
 70
192
 0
VERTEX
 8
CA_ON
 10
-0.9873
 20
-0.0362
 30
2.1698
 70
192
 0
VERTEX
 8
CA_ON
 10
-0.9873
 20
-0.0362
 30
2.1698
 70
192
 0
VERTEX
 8
CA_ON
 10
-0.9873
 20
-0.0203
 30
2.167
 70
192
 0
VERTEX
 8
CA_ON
 10
-0.9873
 20
-0.0203
 30
2.167
 70
192
 0
VERTEX
 8
CA_ON
 10
-1.0904
 20
-0.0203
 30
2.167
 70
192
 0
VERTEX
 8
CA_ON
 10
-1.0904
 20
-0.0206
 30
2.1635
 70
192
 0
VERTEX
 8
CA_ON
 10
-1.0904
 20
-0.0368
 30
2.1635
 70
192
 0
VERTEX
 8
CA_ON
 10
-1.0904
 20
-0.0368
 30
2.1635
 70
192
 0
VERTEX
 8
CA_ON
 10
-0.9873
 20
-0.0368
 30
2.1635
 70
192
 0
VERTEX
 8
CA_ON
 10
-0.9873
 20
-0.0368
 30
2.1635
 70
192
 0
VERTEX
 8
CA_ON
 10
-0.9873
 20
-0.0206
 30
2.1635
 70
192
 0
VERTEX
 8
CA_ON
 10
-0.9873
 20
-0.0206
 30
2.1635
 70
192
 0
VERTEX
 8
CA_ON
 10
-1.0904
 20
-0.0206
 30
2.1635
 70
192
 0
VERTEX
 8
CA_ON
 10
-1.0904
 20
-0.0203
 30
2.1599
 70
192
 0
VERTEX
 8
CA_ON
 10
-1.0904
 20
-0.0362
 30
2.1571
 70
192
 0
VERTEX
 8
CA_ON
 10
-1.0904
 20
-0.0362
 30
2.1571
 70
192
 0
VERTEX
 8
CA_ON
 10
-0.9873
 20
-0.0362
 30
2.1571
 70
192
 0
VERTEX
 8
CA_ON
 10
-0.9873
 20
-0.0362
 30
2.1571
 70
192
 0
VERTEX
 8
CA_ON
 10
-0.9873
 20
-0.0203
 30
2.1599
 70
192
 0
VERTEX
 8
CA_ON
 10
-0.9873
 20
-0.0203
 30
2.1599
 70
192
 0
VERTEX
 8
CA_ON
 10
-1.0904
 20
-0.0203
 30
2.1599
 70
192
 0
VERTEX
 8
CA_ON
 10
-1.0904
 20
-0.0194
 30
2.1564
 70
192
 0
VERTEX
 8
CA_ON
 10
-1.0904
 20
-0.0345
 30
2.1509
 70
192
 0
VERTEX
 8
CA_ON
 10
-1.0904
 20
-0.0345
 30
2.1509
 70
192
 0
VERTEX
 8
CA_ON
 10
-0.9873
 20
-0.0345
 30
2.1509
 70
192
 0
VERTEX
 8
CA_ON
 10
-0.9873
 20
-0.0345
 30
2.1509
 70
192
 0
VERTEX
 8
CA_ON
 10
-0.9873
 20
-0.0194
 30
2.1564
 70
192
 0
VERTEX
 8
CA_ON
 10
-0.9873
 20
-0.0194
 30
2.1564
 70
192
 0
VERTEX
 8
CA_ON
 10
-1.0904
 20
-0.0194
 30
2.1564
 70
192
 0
VERTEX
 8
CA_ON
 10
-1.0904
 20
-0.0178
 30
2.1532
 70
192
 0
VERTEX
 8
CA_ON
 10
-1.0904
 20
-0.0318
 30
2.1451
 70
192
 0
VERTEX
 8
CA_ON
 10
-1.0904
 20
-0.0318
 30
2.1451
 70
192
 0
VERTEX
 8
CA_ON
 10
-0.9873
 20
-0.0318
 30
2.1451
 70
192
 0
VERTEX
 8
CA_ON
 10
-0.9873
 20
-0.0318
 30
2.1451
 70
192
 0
VERTEX
 8
CA_ON
 10
-0.9873
 20
-0.0178
 30
2.1532
 70
192
 0
VERTEX
 8
CA_ON
 10
-0.9873
 20
-0.0178
 30
2.1532
 70
192
 0
VERTEX
 8
CA_ON
 10
-1.0904
 20
-0.0178
 30
2.1532
 70
192
 0
VERTEX
 8
CA_ON
 10
-1.0904
 20
-0.0158
 30
2.1502
 70
192
 0
VERTEX
 8
CA_ON
 10
-1.0904
 20
-0.0282
 30
2.1398
 70
192
 0
VERTEX
 8
CA_ON
 10
-1.0904
 20
-0.0282
 30
2.1398
 70
192
 0
VERTEX
 8
CA_ON
 10
-0.9873
 20
-0.0282
 30
2.1398
 70
192
 0
VERTEX
 8
CA_ON
 10
-0.9873
 20
-0.0282
 30
2.1398
 70
192
 0
VERTEX
 8
CA_ON
 10
-0.9873
 20
-0.0158
 30
2.1502
 70
192
 0
VERTEX
 8
CA_ON
 10
-0.9873
 20
-0.0158
 30
2.1502
 70
192
 0
VERTEX
 8
CA_ON
 10
-1.0904
 20
-0.0158
 30
2.1502
 70
192
 0
VERTEX
 8
CA_ON
 10
-1.0904
 20
-0.0132
 30
2.1477
 70
192
 0
VERTEX
 8
CA_ON
 10
-1.0904
 20
-0.0236
 30
2.1353
 70
192
 0
VERTEX
 8
CA_ON
 10
-1.0904
 20
-0.0236
 30
2.1353
 70
192
 0
VERTEX
 8
CA_ON
 10
-0.9873
 20
-0.0236
 30
2.1353
 70
192
 0
VERTEX
 8
CA_ON
 10
-0.9873
 20
-0.0236
 30
2.1353
 70
192
 0
VERTEX
 8
CA_ON
 10
-0.9873
 20
-0.0132
 30
2.1477
 70
192
 0
VERTEX
 8
CA_ON
 10
-0.9873
 20
-0.0132
 30
2.1477
 70
192
 0
VERTEX
 8
CA_ON
 10
-1.0904
 20
-0.0132
 30
2.1477
 70
192
 0
VERTEX
 8
CA_ON
 10
-1.0904
 20
-0.0103
 30
2.1456
 70
192
 0
VERTEX
 8
CA_ON
 10
-1.0904
 20
-0.0184
 30
2.1316
 70
192
 0
VERTEX
 8
CA_ON
 10
-1.0904
 20
-0.0184
 30
2.1316
 70
192
 0
VERTEX
 8
CA_ON
 10
-0.9873
 20
-0.0184
 30
2.1316
 70
192
 0
VERTEX
 8
CA_ON
 10
-0.9873
 20
-0.0184
 30
2.1316
 70
192
 0
VERTEX
 8
CA_ON
 10
-0.9873
 20
-0.0103
 30
2.1456
 70
192
 0
VERTEX
 8
CA_ON
 10
-0.9873
 20
-0.0103
 30
2.1456
 70
192
 0
VERTEX
 8
CA_ON
 10
-1.0904
 20
-0.0103
 30
2.1456
 70
192
 0
VERTEX
 8
CA_ON
 10
-1.0904
 20
-0.007
 30
2.1441
 70
192
 0
VERTEX
 8
CA_ON
 10
-1.0904
 20
-0.0126
 30
2.1289
 70
192
 0
VERTEX
 8
CA_ON
 10
-1.0904
 20
-0.0126
 30
2.1289
 70
192
 0
VERTEX
 8
CA_ON
 10
-0.9873
 20
-0.0126
 30
2.1289
 70
192
 0
VERTEX
 8
CA_ON
 10
-0.9873
 20
-0.0126
 30
2.1289
 70
192
 0
VERTEX
 8
CA_ON
 10
-0.9873
 20
-0.007
 30
2.1441
 70
192
 0
VERTEX
 8
CA_ON
 10
-0.9873
 20
-0.007
 30
2.1441
 70
192
 0
VERTEX
 8
CA_ON
 10
-1.0904
 20
-0.007
 30
2.1441
 70
192
 0
VERTEX
 8
CA_ON
 10
-1.0904
 20
-0.0036
 30
2.1432
 70
192
 0
VERTEX
 8
CA_ON
 10
-1.0904
 20
-0.0064
 30
2.1273
 70
192
 0
VERTEX
 8
CA_ON
 10
-1.0904
 20
-0.0064
 30
2.1273
 70
192
 0
VERTEX
 8
CA_ON
 10
-0.9873
 20
-0.0064
 30
2.1273
 70
192
 0
VERTEX
 8
CA_ON
 10
-0.9873
 20
-0.0064
 30
2.1273
 70
192
 0
VERTEX
 8
CA_ON
 10
-0.9873
 20
-0.0036
 30
2.1432
 70
192
 0
VERTEX
 8
CA_ON
 10
-0.9873
 20
-0.0036
 30
2.1432
 70
192
 0
VERTEX
 8
CA_ON
 10
-1.0904
 20
-0.0036
 30
2.1432
 70
192
 0
VERTEX
 8
CA_ON
 10
-0.9561
 20
-0.0136
 30
2.1791
 70
192
 0
VERTEX
 8
CA_ON
 10
-0.871
 20
-0.0136
 30
2.1791
 70
192
 0
VERTEX
 8
CA_ON
 10
-0.871
 20
0.0136
 30
2.1791
 70
192
 0
VERTEX
 8
CA_ON
 10
-0.9561
 20
0.0136
 30
2.1791
 70
192
 0
VERTEX
 8
CA_ON
 10
-0.9136
 20
0
 30
2.3101
 70
192
 0
VERTEX
 8
CA_ON
 10
-0.9918
 20
-0.0006
 30
2.1639
 70
192
 0
VERTEX
 8
CA_ON
 10
-0.2704
 20
-0.0006
 30
2.1639
 70
192
 0
VERTEX
 8
CA_ON
 10
-0.9918
 20
-0.0006
 30
2.1368
 70
192
 0
VERTEX
 8
CA_ON
 10
-0.9918
 20
-0.0006
 30
2.1368
 70
192
 0
VERTEX
 8
CA_ON
 10
-0.2704
 20
-0.0006
 30
2.1368
 70
192
 0
VERTEX
 8
CA_ON
 10
-0.2704
 20
-0.0006
 30
2.1368
 70
192
 0
VERTEX
 8
CA_ON
 10
-0.9918
 20
0.0041
 30
2.1372
 70
192
 0
VERTEX
 8
CA_ON
 10
-0.9918
 20
0.0041
 30
2.1372
 70
192
 0
VERTEX
 8
CA_ON
 10
-0.2704
 20
0.0041
 30
2.1372
 70
192
 0
VERTEX
 8
CA_ON
 10
-0.2704
 20
0.0041
 30
2.1372
 70
192
 0
VERTEX
 8
CA_ON
 10
-0.9918
 20
0.0087
 30
2.1384
 70
192
 0
VERTEX
 8
CA_ON
 10
-0.9918
 20
0.0087
 30
2.1384
 70
192
 0
VERTEX
 8
CA_ON
 10
-0.2704
 20
0.0087
 30
2.1384
 70
192
 0
VERTEX
 8
CA_ON
 10
-0.2704
 20
0.0087
 30
2.1384
 70
192
 0
VERTEX
 8
CA_ON
 10
-0.9918
 20
0.013
 30
2.1404
 70
192
 0
VERTEX
 8
CA_ON
 10
-0.9918
 20
0.013
 30
2.1404
 70
192
 0
VERTEX
 8
CA_ON
 10
-0.2704
 20
0.013
 30
2.1404
 70
192
 0
VERTEX
 8
CA_ON
 10
-0.2704
 20
0.013
 30
2.1404
 70
192
 0
VERTEX
 8
CA_ON
 10
-0.9918
 20
0.0168
 30
2.1431
 70
192
 0
VERTEX
 8
CA_ON
 10
-0.9918
 20
0.0168
 30
2.1431
 70
192
 0
VERTEX
 8
CA_ON
 10
-0.2704
 20
0.0168
 30
2.1431
 70
192
 0
VERTEX
 8
CA_ON
 10
-0.2704
 20
0.0168
 30
2.1431
 70
192
 0
VERTEX
 8
CA_ON
 10
-0.9918
 20
0.0202
 30
2.1465
 70
192
 0
VERTEX
 8
CA_ON
 10
-0.9918
 20
0.0202
 30
2.1465
 70
192
 0
VERTEX
 8
CA_ON
 10
-0.2704
 20
0.0202
 30
2.1465
 70
192
 0
VERTEX
 8
CA_ON
 10
-0.2704
 20
0.0202
 30
2.1465
 70
192
 0
VERTEX
 8
CA_ON
 10
-0.9918
 20
0.0229
 30
2.1503
 70
192
 0
VERTEX
 8
CA_ON
 10
-0.9918
 20
0.0229
 30
2.1503
 70
192
 0
VERTEX
 8
CA_ON
 10
-0.2704
 20
0.0229
 30
2.1503
 70
192
 0
VERTEX
 8
CA_ON
 10
-0.2704
 20
0.0229
 30
2.1503
 70
192
 0
VERTEX
 8
CA_ON
 10
-0.9918
 20
0.0249
 30
2.1546
 70
192
 0
VERTEX
 8
CA_ON
 10
-0.9918
 20
0.0249
 30
2.1546
 70
192
 0
VERTEX
 8
CA_ON
 10
-0.2704
 20
0.0249
 30
2.1546
 70
192
 0
VERTEX
 8
CA_ON
 10
-0.2704
 20
0.0249
 30
2.1546
 70
192
 0
VERTEX
 8
CA_ON
 10
-0.9918
 20
0.0261
 30
2.1592
 70
192
 0
VERTEX
 8
CA_ON
 10
-0.9918
 20
0.0261
 30
2.1592
 70
192
 0
VERTEX
 8
CA_ON
 10
-0.2704
 20
0.0261
 30
2.1592
 70
192
 0
VERTEX
 8
CA_ON
 10
-0.2704
 20
0.0261
 30
2.1592
 70
192
 0
VERTEX
 8
CA_ON
 10
-0.9918
 20
0.0265
 30
2.1639
 70
192
 0
VERTEX
 8
CA_ON
 10
-0.9918
 20
0.0265
 30
2.1639
 70
192
 0
VERTEX
 8
CA_ON
 10
-0.2704
 20
0.0265
 30
2.1639
 70
192
 0
VERTEX
 8
CA_ON
 10
-0.2704
 20
0.0265
 30
2.1639
 70
192
 0
VERTEX
 8
CA_ON
 10
-0.9918
 20
0.0261
 30
2.1686
 70
192
 0
VERTEX
 8
CA_ON
 10
-0.9918
 20
0.0261
 30
2.1686
 70
192
 0
VERTEX
 8
CA_ON
 10
-0.2704
 20
0.0261
 30
2.1686
 70
192
 0
VERTEX
 8
CA_ON
 10
-0.2704
 20
0.0261
 30
2.1686
 70
192
 0
VERTEX
 8
CA_ON
 10
-0.9918
 20
0.0249
 30
2.1732
 70
192
 0
VERTEX
 8
CA_ON
 10
-0.9918
 20
0.0249
 30
2.1732
 70
192
 0
VERTEX
 8
CA_ON
 10
-0.2704
 20
0.0249
 30
2.1732
 70
192
 0
VERTEX
 8
CA_ON
 10
-0.2704
 20
0.0249
 30
2.1732
 70
192
 0
VERTEX
 8
CA_ON
 10
-0.9918
 20
0.0229
 30
2.1775
 70
192
 0
VERTEX
 8
CA_ON
 10
-0.9918
 20
0.0229
 30
2.1775
 70
192
 0
VERTEX
 8
CA_ON
 10
-0.2704
 20
0.0229
 30
2.1775
 70
192
 0
VERTEX
 8
CA_ON
 10
-0.2704
 20
0.0229
 30
2.1775
 70
192
 0
VERTEX
 8
CA_ON
 10
-0.9918
 20
0.0202
 30
2.1814
 70
192
 0
VERTEX
 8
CA_ON
 10
-0.9918
 20
0.0202
 30
2.1814
 70
192
 0
VERTEX
 8
CA_ON
 10
-0.2704
 20
0.0202
 30
2.1814
 70
192
 0
VERTEX
 8
CA_ON
 10
-0.2704
 20
0.0202
 30
2.1814
 70
192
 0
VERTEX
 8
CA_ON
 10
-0.9918
 20
0.0168
 30
2.1847
 70
192
 0
VERTEX
 8
CA_ON
 10
-0.9918
 20
0.0168
 30
2.1847
 70
192
 0
VERTEX
 8
CA_ON
 10
-0.2704
 20
0.0168
 30
2.1847
 70
192
 0
VERTEX
 8
CA_ON
 10
-0.2704
 20
0.0168
 30
2.1847
 70
192
 0
VERTEX
 8
CA_ON
 10
-0.9918
 20
0.013
 30
2.1874
 70
192
 0
VERTEX
 8
CA_ON
 10
-0.9918
 20
0.013
 30
2.1874
 70
192
 0
VERTEX
 8
CA_ON
 10
-0.2704
 20
0.013
 30
2.1874
 70
192
 0
VERTEX
 8
CA_ON
 10
-0.2704
 20
0.013
 30
2.1874
 70
192
 0
VERTEX
 8
CA_ON
 10
-0.9918
 20
0.0087
 30
2.1894
 70
192
 0
VERTEX
 8
CA_ON
 10
-0.9918
 20
0.0087
 30
2.1894
 70
192
 0
VERTEX
 8
CA_ON
 10
-0.2704
 20
0.0087
 30
2.1894
 70
192
 0
VERTEX
 8
CA_ON
 10
-0.2704
 20
0.0087
 30
2.1894
 70
192
 0
VERTEX
 8
CA_ON
 10
-0.9918
 20
0.0041
 30
2.1906
 70
192
 0
VERTEX
 8
CA_ON
 10
-0.9918
 20
0.0041
 30
2.1906
 70
192
 0
VERTEX
 8
CA_ON
 10
-0.2704
 20
0.0041
 30
2.1906
 70
192
 0
VERTEX
 8
CA_ON
 10
-0.2704
 20
0.0041
 30
2.1906
 70
192
 0
VERTEX
 8
CA_ON
 10
-0.9918
 20
-0.0006
 30
2.191
 70
192
 0
VERTEX
 8
CA_ON
 10
-0.9918
 20
-0.0006
 30
2.191
 70
192
 0
VERTEX
 8
CA_ON
 10
-0.2704
 20
-0.0006
 30
2.191
 70
192
 0
VERTEX
 8
CA_ON
 10
-0.2704
 20
-0.0006
 30
2.191
 70
192
 0
VERTEX
 8
CA_ON
 10
-0.9918
 20
-0.0053
 30
2.1906
 70
192
 0
VERTEX
 8
CA_ON
 10
-0.9918
 20
-0.0053
 30
2.1906
 70
192
 0
VERTEX
 8
CA_ON
 10
-0.2704
 20
-0.0053
 30
2.1906
 70
192
 0
VERTEX
 8
CA_ON
 10
-0.2704
 20
-0.0053
 30
2.1906
 70
192
 0
VERTEX
 8
CA_ON
 10
-0.9918
 20
-0.0099
 30
2.1894
 70
192
 0
VERTEX
 8
CA_ON
 10
-0.9918
 20
-0.0099
 30
2.1894
 70
192
 0
VERTEX
 8
CA_ON
 10
-0.2704
 20
-0.0099
 30
2.1894
 70
192
 0
VERTEX
 8
CA_ON
 10
-0.2704
 20
-0.0099
 30
2.1894
 70
192
 0
VERTEX
 8
CA_ON
 10
-0.9918
 20
-0.0142
 30
2.1874
 70
192
 0
VERTEX
 8
CA_ON
 10
-0.9918
 20
-0.0142
 30
2.1874
 70
192
 0
VERTEX
 8
CA_ON
 10
-0.2704
 20
-0.0142
 30
2.1874
 70
192
 0
VERTEX
 8
CA_ON
 10
-0.2704
 20
-0.0142
 30
2.1874
 70
192
 0
VERTEX
 8
CA_ON
 10
-0.9918
 20
-0.018
 30
2.1847
 70
192
 0
VERTEX
 8
CA_ON
 10
-0.9918
 20
-0.018
 30
2.1847
 70
192
 0
VERTEX
 8
CA_ON
 10
-0.2704
 20
-0.018
 30
2.1847
 70
192
 0
VERTEX
 8
CA_ON
 10
-0.2704
 20
-0.018
 30
2.1847
 70
192
 0
VERTEX
 8
CA_ON
 10
-0.9918
 20
-0.0214
 30
2.1814
 70
192
 0
VERTEX
 8
CA_ON
 10
-0.9918
 20
-0.0214
 30
2.1814
 70
192
 0
VERTEX
 8
CA_ON
 10
-0.2704
 20
-0.0214
 30
2.1814
 70
192
 0
VERTEX
 8
CA_ON
 10
-0.2704
 20
-0.0214
 30
2.1814
 70
192
 0
VERTEX
 8
CA_ON
 10
-0.9918
 20
-0.0241
 30
2.1775
 70
192
 0
VERTEX
 8
CA_ON
 10
-0.9918
 20
-0.0241
 30
2.1775
 70
192
 0
VERTEX
 8
CA_ON
 10
-0.2704
 20
-0.0241
 30
2.1775
 70
192
 0
VERTEX
 8
CA_ON
 10
-0.2704
 20
-0.0241
 30
2.1775
 70
192
 0
VERTEX
 8
CA_ON
 10
-0.9918
 20
-0.0261
 30
2.1732
 70
192
 0
VERTEX
 8
CA_ON
 10
-0.9918
 20
-0.0261
 30
2.1732
 70
192
 0
VERTEX
 8
CA_ON
 10
-0.2704
 20
-0.0261
 30
2.1732
 70
192
 0
VERTEX
 8
CA_ON
 10
-0.2704
 20
-0.0261
 30
2.1732
 70
192
 0
VERTEX
 8
CA_ON
 10
-0.9918
 20
-0.0273
 30
2.1686
 70
192
 0
VERTEX
 8
CA_ON
 10
-0.9918
 20
-0.0273
 30
2.1686
 70
192
 0
VERTEX
 8
CA_ON
 10
-0.2704
 20
-0.0273
 30
2.1686
 70
192
 0
VERTEX
 8
CA_ON
 10
-0.2704
 20
-0.0273
 30
2.1686
 70
192
 0
VERTEX
 8
CA_ON
 10
-0.9918
 20
-0.0277
 30
2.1639
 70
192
 0
VERTEX
 8
CA_ON
 10
-0.9918
 20
-0.0277
 30
2.1639
 70
192
 0
VERTEX
 8
CA_ON
 10
-0.2704
 20
-0.0277
 30
2.1639
 70
192
 0
VERTEX
 8
CA_ON
 10
-0.2704
 20
-0.0277
 30
2.1639
 70
192
 0
VERTEX
 8
CA_ON
 10
-0.9918
 20
-0.0273
 30
2.1592
 70
192
 0
VERTEX
 8
CA_ON
 10
-0.9918
 20
-0.0273
 30
2.1592
 70
192
 0
VERTEX
 8
CA_ON
 10
-0.2704
 20
-0.0273
 30
2.1592
 70
192
 0
VERTEX
 8
CA_ON
 10
-0.2704
 20
-0.0273
 30
2.1592
 70
192
 0
VERTEX
 8
CA_ON
 10
-0.9918
 20
-0.0261
 30
2.1546
 70
192
 0
VERTEX
 8
CA_ON
 10
-0.9918
 20
-0.0261
 30
2.1546
 70
192
 0
VERTEX
 8
CA_ON
 10
-0.2704
 20
-0.0261
 30
2.1546
 70
192
 0
VERTEX
 8
CA_ON
 10
-0.2704
 20
-0.0261
 30
2.1546
 70
192
 0
VERTEX
 8
CA_ON
 10
-0.9918
 20
-0.0241
 30
2.1503
 70
192
 0
VERTEX
 8
CA_ON
 10
-0.9918
 20
-0.0241
 30
2.1503
 70
192
 0
VERTEX
 8
CA_ON
 10
-0.2704
 20
-0.0241
 30
2.1503
 70
192
 0
VERTEX
 8
CA_ON
 10
-0.2704
 20
-0.0241
 30
2.1503
 70
192
 0
VERTEX
 8
CA_ON
 10
-0.9918
 20
-0.0214
 30
2.1465
 70
192
 0
VERTEX
 8
CA_ON
 10
-0.9918
 20
-0.0214
 30
2.1465
 70
192
 0
VERTEX
 8
CA_ON
 10
-0.2704
 20
-0.0214
 30
2.1465
 70
192
 0
VERTEX
 8
CA_ON
 10
-0.2704
 20
-0.0214
 30
2.1465
 70
192
 0
VERTEX
 8
CA_ON
 10
-0.9918
 20
-0.018
 30
2.1431
 70
192
 0
VERTEX
 8
CA_ON
 10
-0.9918
 20
-0.018
 30
2.1431
 70
192
 0
VERTEX
 8
CA_ON
 10
-0.2704
 20
-0.018
 30
2.1431
 70
192
 0
VERTEX
 8
CA_ON
 10
-0.2704
 20
-0.018
 30
2.1431
 70
192
 0
VERTEX
 8
CA_ON
 10
-0.9918
 20
-0.0142
 30
2.1404
 70
192
 0
VERTEX
 8
CA_ON
 10
-0.9918
 20
-0.0142
 30
2.1404
 70
192
 0
VERTEX
 8
CA_ON
 10
-0.2704
 20
-0.0142
 30
2.1404
 70
192
 0
VERTEX
 8
CA_ON
 10
-0.2704
 20
-0.0142
 30
2.1404
 70
192
 0
VERTEX
 8
CA_ON
 10
-0.9918
 20
-0.0099
 30
2.1384
 70
192
 0
VERTEX
 8
CA_ON
 10
-0.9918
 20
-0.0099
 30
2.1384
 70
192
 0
VERTEX
 8
CA_ON
 10
-0.2704
 20
-0.0099
 30
2.1384
 70
192
 0
VERTEX
 8
CA_ON
 10
-0.2704
 20
-0.0099
 30
2.1384
 70
192
 0
VERTEX
 8
CA_ON
 10
-0.9918
 20
-0.0053
 30
2.1372
 70
192
 0
VERTEX
 8
CA_ON
 10
-0.9918
 20
-0.0053
 30
2.1372
 70
192
 0
VERTEX
 8
CA_ON
 10
-0.2704
 20
-0.0053
 30
2.1372
 70
192
 0
VERTEX
 8
CA_ON
 10
-0.2704
 20
-0.0053
 30
2.1372
 70
192
 0
VERTEX
 8
CA_ON
 10
0
 20
0
 30
0
 70
128
 71
1
 72
2
 73
10
 74
9
 0
VERTEX
 8
CA_ON
 10
0
 20
0
 30
0
 70
128
 71
3
 72
4
 73
12
 74
11
 0
VERTEX
 8
CA_ON
 10
0
 20
0
 30
0
 70
128
 71
5
 72
6
 73
14
 74
13
 0
VERTEX
 8
CA_ON
 10
0
 20
0
 30
0
 70
128
 71
7
 72
8
 73
16
 74
15
 0
VERTEX
 8
CA_ON
 10
0
 20
0
 30
0
 70
128
 71
9
 72
10
 73
18
 74
17
 0
VERTEX
 8
CA_ON
 10
0
 20
0
 30
0
 70
128
 71
11
 72
12
 73
20
 74
19
 0
VERTEX
 8
CA_ON
 10
0
 20
0
 30
0
 70
128
 71
13
 72
14
 73
22
 74
21
 0
VERTEX
 8
CA_ON
 10
0
 20
0
 30
0
 70
128
 71
15
 72
16
 73
24
 74
23
 0
VERTEX
 8
CA_ON
 10
0
 20
0
 30
0
 70
128
 71
17
 72
18
 73
26
 74
25
 0
VERTEX
 8
CA_ON
 10
0
 20
0
 30
0
 70
128
 71
19
 72
20
 73
28
 74
27
 0
VERTEX
 8
CA_ON
 10
0
 20
0
 30
0
 70
128
 71
21
 72
22
 73
30
 74
29
 0
VERTEX
 8
CA_ON
 10
0
 20
0
 30
0
 70
128
 71
23
 72
24
 73
32
 74
31
 0
VERTEX
 8
CA_ON
 10
0
 20
0
 30
0
 70
128
 71
25
 72
26
 73
34
 74
33
 0
VERTEX
 8
CA_ON
 10
0
 20
0
 30
0
 70
128
 71
27
 72
28
 73
36
 74
35
 0
VERTEX
 8
CA_ON
 10
0
 20
0
 30
0
 70
128
 71
29
 72
30
 73
38
 74
37
 0
VERTEX
 8
CA_ON
 10
0
 20
0
 30
0
 70
128
 71
31
 72
32
 73
40
 74
39
 0
VERTEX
 8
CA_ON
 10
0
 20
0
 30
0
 70
128
 71
33
 72
34
 73
42
 74
41
 0
VERTEX
 8
CA_ON
 10
0
 20
0
 30
0
 70
128
 71
35
 72
36
 73
44
 74
43
 0
VERTEX
 8
CA_ON
 10
0
 20
0
 30
0
 70
128
 71
37
 72
38
 73
46
 74
45
 0
VERTEX
 8
CA_ON
 10
0
 20
0
 30
0
 70
128
 71
39
 72
40
 73
48
 74
47
 0
VERTEX
 8
CA_ON
 10
0
 20
0
 30
0
 70
128
 71
41
 72
42
 73
50
 74
49
 0
VERTEX
 8
CA_ON
 10
0
 20
0
 30
0
 70
128
 71
43
 72
44
 73
52
 74
51
 0
VERTEX
 8
CA_ON
 10
0
 20
0
 30
0
 70
128
 71
45
 72
46
 73
54
 74
53
 0
VERTEX
 8
CA_ON
 10
0
 20
0
 30
0
 70
128
 71
47
 72
48
 73
56
 74
55
 0
VERTEX
 8
CA_ON
 10
0
 20
0
 30
0
 70
128
 71
49
 72
50
 73
58
 74
57
 0
VERTEX
 8
CA_ON
 10
0
 20
0
 30
0
 70
128
 71
51
 72
52
 73
60
 74
59
 0
VERTEX
 8
CA_ON
 10
0
 20
0
 30
0
 70
128
 71
53
 72
54
 73
62
 74
61
 0
VERTEX
 8
CA_ON
 10
0
 20
0
 30
0
 70
128
 71
55
 72
56
 73
64
 74
63
 0
VERTEX
 8
CA_ON
 10
0
 20
0
 30
0
 70
128
 71
57
 72
58
 73
66
 74
65
 0
VERTEX
 8
CA_ON
 10
0
 20
0
 30
0
 70
128
 71
59
 72
60
 73
68
 74
67
 0
VERTEX
 8
CA_ON
 10
0
 20
0
 30
0
 70
128
 71
61
 72
62
 73
70
 74
69
 0
VERTEX
 8
CA_ON
 10
0
 20
0
 30
0
 70
128
 71
63
 72
64
 73
72
 74
71
 0
VERTEX
 8
CA_ON
 10
0
 20
0
 30
0
 70
128
 71
65
 72
66
 73
74
 74
73
 0
VERTEX
 8
CA_ON
 10
0
 20
0
 30
0
 70
128
 71
67
 72
68
 73
76
 74
75
 0
VERTEX
 8
CA_ON
 10
0
 20
0
 30
0
 70
128
 71
69
 72
70
 73
78
 74
77
 0
VERTEX
 8
CA_ON
 10
0
 20
0
 30
0
 70
128
 71
71
 72
72
 73
80
 74
79
 0
VERTEX
 8
CA_ON
 10
0
 20
0
 30
0
 70
128
 71
73
 72
74
 73
82
 74
81
 0
VERTEX
 8
CA_ON
 10
0
 20
0
 30
0
 70
128
 71
75
 72
76
 73
84
 74
83
 0
VERTEX
 8
CA_ON
 10
0
 20
0
 30
0
 70
128
 71
77
 72
78
 73
86
 74
85
 0
VERTEX
 8
CA_ON
 10
0
 20
0
 30
0
 70
128
 71
79
 72
80
 73
88
 74
87
 0
VERTEX
 8
CA_ON
 10
0
 20
0
 30
0
 70
128
 71
81
 72
82
 73
90
 74
89
 0
VERTEX
 8
CA_ON
 10
0
 20
0
 30
0
 70
128
 71
83
 72
84
 73
92
 74
91
 0
VERTEX
 8
CA_ON
 10
0
 20
0
 30
0
 70
128
 71
85
 72
86
 73
94
 74
93
 0
VERTEX
 8
CA_ON
 10
0
 20
0
 30
0
 70
128
 71
87
 72
88
 73
96
 74
95
 0
VERTEX
 8
CA_ON
 10
0
 20
0
 30
0
 70
128
 71
89
 72
90
 73
98
 74
97
 0
VERTEX
 8
CA_ON
 10
0
 20
0
 30
0
 70
128
 71
91
 72
92
 73
100
 74
99
 0
VERTEX
 8
CA_ON
 10
0
 20
0
 30
0
 70
128
 71
93
 72
94
 73
102
 74
101
 0
VERTEX
 8
CA_ON
 10
0
 20
0
 30
0
 70
128
 71
95
 72
96
 73
104
 74
103
 0
VERTEX
 8
CA_ON
 10
0
 20
0
 30
0
 70
128
 71
97
 72
98
 73
106
 74
105
 0
VERTEX
 8
CA_ON
 10
0
 20
0
 30
0
 70
128
 71
99
 72
100
 73
108
 74
107
 0
VERTEX
 8
CA_ON
 10
0
 20
0
 30
0
 70
128
 71
101
 72
102
 73
110
 74
109
 0
VERTEX
 8
CA_ON
 10
0
 20
0
 30
0
 70
128
 71
103
 72
104
 73
112
 74
111
 0
VERTEX
 8
CA_ON
 10
0
 20
0
 30
0
 70
128
 71
105
 72
106
 73
114
 74
113
 0
VERTEX
 8
CA_ON
 10
0
 20
0
 30
0
 70
128
 71
107
 72
108
 73
116
 74
115
 0
VERTEX
 8
CA_ON
 10
0
 20
0
 30
0
 70
128
 71
109
 72
110
 73
118
 74
117
 0
VERTEX
 8
CA_ON
 10
0
 20
0
 30
0
 70
128
 71
111
 72
112
 73
120
 74
119
 0
VERTEX
 8
CA_ON
 10
0
 20
0
 30
0
 70
128
 71
113
 72
114
 73
122
 74
121
 0
VERTEX
 8
CA_ON
 10
0
 20
0
 30
0
 70
128
 71
115
 72
116
 73
124
 74
123
 0
VERTEX
 8
CA_ON
 10
0
 20
0
 30
0
 70
128
 71
117
 72
118
 73
126
 74
125
 0
VERTEX
 8
CA_ON
 10
0
 20
0
 30
0
 70
128
 71
119
 72
120
 73
128
 74
127
 0
VERTEX
 8
CA_ON
 10
0
 20
0
 30
0
 70
128
 71
121
 72
122
 73
130
 74
129
 0
VERTEX
 8
CA_ON
 10
0
 20
0
 30
0
 70
128
 71
123
 72
124
 73
132
 74
131
 0
VERTEX
 8
CA_ON
 10
0
 20
0
 30
0
 70
128
 71
125
 72
126
 73
134
 74
133
 0
VERTEX
 8
CA_ON
 10
0
 20
0
 30
0
 70
128
 71
127
 72
128
 73
136
 74
135
 0
VERTEX
 8
CA_ON
 10
0
 20
0
 30
0
 70
128
 71
129
 72
130
 73
138
 74
137
 0
VERTEX
 8
CA_ON
 10
0
 20
0
 30
0
 70
128
 71
131
 72
132
 73
140
 74
139
 0
VERTEX
 8
CA_ON
 10
0
 20
0
 30
0
 70
128
 71
133
 72
134
 73
142
 74
141
 0
VERTEX
 8
CA_ON
 10
0
 20
0
 30
0
 70
128
 71
135
 72
136
 73
144
 74
143
 0
VERTEX
 8
CA_ON
 10
0
 20
0
 30
0
 70
128
 71
137
 72
138
 73
146
 74
145
 0
VERTEX
 8
CA_ON
 10
0
 20
0
 30
0
 70
128
 71
139
 72
140
 73
148
 74
147
 0
VERTEX
 8
CA_ON
 10
0
 20
0
 30
0
 70
128
 71
141
 72
142
 73
150
 74
149
 0
VERTEX
 8
CA_ON
 10
0
 20
0
 30
0
 70
128
 71
143
 72
144
 73
152
 74
151
 0
VERTEX
 8
CA_ON
 10
0
 20
0
 30
0
 70
128
 71
145
 72
146
 73
154
 74
153
 0
VERTEX
 8
CA_ON
 10
0
 20
0
 30
0
 70
128
 71
147
 72
148
 73
156
 74
155
 0
VERTEX
 8
CA_ON
 10
0
 20
0
 30
0
 70
128
 71
149
 72
150
 73
158
 74
157
 0
VERTEX
 8
CA_ON
 10
0
 20
0
 30
0
 70
128
 71
151
 72
152
 73
160
 74
159
 0
VERTEX
 8
CA_ON
 10
0
 20
0
 30
0
 70
128
 71
153
 72
154
 73
162
 74
161
 0
VERTEX
 8
CA_ON
 10
0
 20
0
 30
0
 70
128
 71
155
 72
156
 73
164
 74
163
 0
VERTEX
 8
CA_ON
 10
0
 20
0
 30
0
 70
128
 71
157
 72
158
 73
166
 74
165
 0
VERTEX
 8
CA_ON
 10
0
 20
0
 30
0
 70
128
 71
159
 72
160
 73
168
 74
167
 0
VERTEX
 8
CA_ON
 10
0
 20
0
 30
0
 70
128
 71
161
 72
162
 73
170
 74
169
 0
VERTEX
 8
CA_ON
 10
0
 20
0
 30
0
 70
128
 71
163
 72
164
 73
172
 74
171
 0
VERTEX
 8
CA_ON
 10
0
 20
0
 30
0
 70
128
 71
165
 72
166
 73
174
 74
173
 0
VERTEX
 8
CA_ON
 10
0
 20
0
 30
0
 70
128
 71
167
 72
168
 73
176
 74
175
 0
VERTEX
 8
CA_ON
 10
0
 20
0
 30
0
 70
128
 71
169
 72
170
 73
178
 74
177
 0
VERTEX
 8
CA_ON
 10
0
 20
0
 30
0
 70
128
 71
171
 72
172
 73
180
 74
179
 0
VERTEX
 8
CA_ON
 10
0
 20
0
 30
0
 70
128
 71
173
 72
174
 73
182
 74
181
 0
VERTEX
 8
CA_ON
 10
0
 20
0
 30
0
 70
128
 71
175
 72
176
 73
184
 74
183
 0
VERTEX
 8
CA_ON
 10
0
 20
0
 30
0
 70
128
 71
177
 72
178
 73
186
 74
185
 0
VERTEX
 8
CA_ON
 10
0
 20
0
 30
0
 70
128
 71
179
 72
180
 73
188
 74
187
 0
VERTEX
 8
CA_ON
 10
0
 20
0
 30
0
 70
128
 71
181
 72
182
 73
190
 74
189
 0
VERTEX
 8
CA_ON
 10
0
 20
0
 30
0
 70
128
 71
183
 72
184
 73
192
 74
191
 0
VERTEX
 8
CA_ON
 10
0
 20
0
 30
0
 70
128
 71
185
 72
186
 73
194
 74
193
 0
VERTEX
 8
CA_ON
 10
0
 20
0
 30
0
 70
128
 71
187
 72
188
 73
196
 74
195
 0
VERTEX
 8
CA_ON
 10
0
 20
0
 30
0
 70
128
 71
189
 72
190
 73
198
 74
197
 0
VERTEX
 8
CA_ON
 10
0
 20
0
 30
0
 70
128
 71
191
 72
192
 73
200
 74
199
 0
VERTEX
 8
CA_ON
 10
0
 20
0
 30
0
 70
128
 71
193
 72
194
 73
202
 74
201
 0
VERTEX
 8
CA_ON
 10
0
 20
0
 30
0
 70
128
 71
195
 72
196
 73
204
 74
203
 0
VERTEX
 8
CA_ON
 10
0
 20
0
 30
0
 70
128
 71
197
 72
198
 73
206
 74
205
 0
VERTEX
 8
CA_ON
 10
0
 20
0
 30
0
 70
128
 71
199
 72
200
 73
208
 74
207
 0
VERTEX
 8
CA_ON
 10
0
 20
0
 30
0
 70
128
 71
201
 72
202
 73
210
 74
209
 0
VERTEX
 8
CA_ON
 10
0
 20
0
 30
0
 70
128
 71
203
 72
204
 73
212
 74
211
 0
VERTEX
 8
CA_ON
 10
0
 20
0
 30
0
 70
128
 71
205
 72
206
 73
214
 74
213
 0
VERTEX
 8
CA_ON
 10
0
 20
0
 30
0
 70
128
 71
207
 72
208
 73
216
 74
215
 0
VERTEX
 8
CA_ON
 10
0
 20
0
 30
0
 70
128
 71
209
 72
210
 73
218
 74
217
 0
VERTEX
 8
CA_ON
 10
0
 20
0
 30
0
 70
128
 71
211
 72
212
 73
220
 74
219
 0
VERTEX
 8
CA_ON
 10
0
 20
0
 30
0
 70
128
 71
213
 72
214
 73
222
 74
221
 0
VERTEX
 8
CA_ON
 10
0
 20
0
 30
0
 70
128
 71
215
 72
216
 73
224
 74
223
 0
VERTEX
 8
CA_ON
 10
0
 20
0
 30
0
 70
128
 71
217
 72
218
 73
226
 74
225
 0
VERTEX
 8
CA_ON
 10
0
 20
0
 30
0
 70
128
 71
219
 72
220
 73
228
 74
227
 0
VERTEX
 8
CA_ON
 10
0
 20
0
 30
0
 70
128
 71
221
 72
222
 73
230
 74
229
 0
VERTEX
 8
CA_ON
 10
0
 20
0
 30
0
 70
128
 71
223
 72
224
 73
232
 74
231
 0
VERTEX
 8
CA_ON
 10
0
 20
0
 30
0
 70
128
 71
225
 72
226
 73
234
 74
233
 0
VERTEX
 8
CA_ON
 10
0
 20
0
 30
0
 70
128
 71
227
 72
228
 73
236
 74
235
 0
VERTEX
 8
CA_ON
 10
0
 20
0
 30
0
 70
128
 71
229
 72
230
 73
238
 74
237
 0
VERTEX
 8
CA_ON
 10
0
 20
0
 30
0
 70
128
 71
231
 72
232
 73
240
 74
239
 0
VERTEX
 8
CA_ON
 10
0
 20
0
 30
0
 70
128
 71
233
 72
234
 73
242
 74
241
 0
VERTEX
 8
CA_ON
 10
0
 20
0
 30
0
 70
128
 71
235
 72
236
 73
244
 74
243
 0
VERTEX
 8
CA_ON
 10
0
 20
0
 30
0
 70
128
 71
237
 72
238
 73
246
 74
245
 0
VERTEX
 8
CA_ON
 10
0
 20
0
 30
0
 70
128
 71
239
 72
240
 73
248
 74
247
 0
VERTEX
 8
CA_ON
 10
0
 20
0
 30
0
 70
128
 71
241
 72
242
 73
250
 74
249
 0
VERTEX
 8
CA_ON
 10
0
 20
0
 30
0
 70
128
 71
243
 72
244
 73
252
 74
251
 0
VERTEX
 8
CA_ON
 10
0
 20
0
 30
0
 70
128
 71
245
 72
246
 73
254
 74
253
 0
VERTEX
 8
CA_ON
 10
0
 20
0
 30
0
 70
128
 71
247
 72
248
 73
256
 74
255
 0
VERTEX
 8
CA_ON
 10
0
 20
0
 30
0
 70
128
 71
249
 72
250
 73
258
 74
257
 0
VERTEX
 8
CA_ON
 10
0
 20
0
 30
0
 70
128
 71
251
 72
252
 73
260
 74
259
 0
VERTEX
 8
CA_ON
 10
0
 20
0
 30
0
 70
128
 71
253
 72
254
 73
262
 74
261
 0
VERTEX
 8
CA_ON
 10
0
 20
0
 30
0
 70
128
 71
255
 72
256
 73
264
 74
263
 0
VERTEX
 8
CA_ON
 10
0
 20
0
 30
0
 70
128
 71
257
 72
258
 73
266
 74
265
 0
VERTEX
 8
CA_ON
 10
0
 20
0
 30
0
 70
128
 71
259
 72
260
 73
268
 74
267
 0
VERTEX
 8
CA_ON
 10
0
 20
0
 30
0
 70
128
 71
261
 72
262
 73
270
 74
269
 0
VERTEX
 8
CA_ON
 10
0
 20
0
 30
0
 70
128
 71
263
 72
264
 73
272
 74
271
 0
VERTEX
 8
CA_ON
 10
0
 20
0
 30
0
 70
128
 71
265
 72
266
 73
274
 74
273
 0
VERTEX
 8
CA_ON
 10
0
 20
0
 30
0
 70
128
 71
267
 72
268
 73
276
 74
275
 0
VERTEX
 8
CA_ON
 10
0
 20
0
 30
0
 70
128
 71
269
 72
270
 73
278
 74
277
 0
VERTEX
 8
CA_ON
 10
0
 20
0
 30
0
 70
128
 71
271
 72
272
 73
280
 74
279
 0
VERTEX
 8
CA_ON
 10
0
 20
0
 30
0
 70
128
 71
273
 72
274
 73
282
 74
281
 0
VERTEX
 8
CA_ON
 10
0
 20
0
 30
0
 70
128
 71
275
 72
276
 73
284
 74
283
 0
VERTEX
 8
CA_ON
 10
0
 20
0
 30
0
 70
128
 71
277
 72
278
 73
286
 74
285
 0
VERTEX
 8
CA_ON
 10
0
 20
0
 30
0
 70
128
 71
279
 72
280
 73
288
 74
287
 0
VERTEX
 8
CA_ON
 10
0
 20
0
 30
0
 70
128
 71
281
 72
282
 73
2
 74
1
 0
VERTEX
 8
CA_ON
 10
0
 20
0
 30
0
 70
128
 71
283
 72
284
 73
4
 74
3
 0
VERTEX
 8
CA_ON
 10
0
 20
0
 30
0
 70
128
 71
285
 72
286
 73
6
 74
5
 0
VERTEX
 8
CA_ON
 10
0
 20
0
 30
0
 70
128
 71
287
 72
288
 73
8
 74
7
 0
VERTEX
 8
CA_ON
 10
0
 20
0
 30
0
 70
128
 71
289
 72
290
 73
291
 74
292
 0
VERTEX
 8
CA_ON
 10
0
 20
0
 30
0
 70
128
 71
293
 72
291
 73
290
 74
290
 0
VERTEX
 8
CA_ON
 10
0
 20
0
 30
0
 70
128
 71
293
 72
292
 73
291
 74
291
 0
VERTEX
 8
CA_ON
 10
0
 20
0
 30
0
 70
128
 71
293
 72
289
 73
292
 74
292
 0
VERTEX
 8
CA_ON
 10
0
 20
0
 30
0
 70
128
 71
293
 72
290
 73
289
 74
289
 0
VERTEX
 8
CA_ON
 10
0
 20
0
 30
0
 70
128
 71
294
 72
296
 73
300
 74
300
 0
VERTEX
 8
CA_ON
 10
0
 20
0
 30
0
 70
128
 71
297
 72
298
 73
302
 74
301
 0
VERTEX
 8
CA_ON
 10
0
 20
0
 30
0
 70
128
 71
299
 72
295
 73
303
 74
303
 0
VERTEX
 8
CA_ON
 10
0
 20
0
 30
0
 70
128
 71
294
 72
300
 73
304
 74
304
 0
VERTEX
 8
CA_ON
 10
0
 20
0
 30
0
 70
128
 71
301
 72
302
 73
306
 74
305
 0
VERTEX
 8
CA_ON
 10
0
 20
0
 30
0
 70
128
 71
303
 72
295
 73
307
 74
307
 0
VERTEX
 8
CA_ON
 10
0
 20
0
 30
0
 70
128
 71
294
 72
304
 73
308
 74
308
 0
VERTEX
 8
CA_ON
 10
0
 20
0
 30
0
 70
128
 71
305
 72
306
 73
310
 74
309
 0
VERTEX
 8
CA_ON
 10
0
 20
0
 30
0
 70
128
 71
307
 72
295
 73
311
 74
311
 0
VERTEX
 8
CA_ON
 10
0
 20
0
 30
0
 70
128
 71
294
 72
308
 73
312
 74
312
 0
VERTEX
 8
CA_ON
 10
0
 20
0
 30
0
 70
128
 71
309
 72
310
 73
314
 74
313
 0
VERTEX
 8
CA_ON
 10
0
 20
0
 30
0
 70
128
 71
311
 72
295
 73
315
 74
315
 0
VERTEX
 8
CA_ON
 10
0
 20
0
 30
0
 70
128
 71
294
 72
312
 73
316
 74
316
 0
VERTEX
 8
CA_ON
 10
0
 20
0
 30
0
 70
128
 71
313
 72
314
 73
318
 74
317
 0
VERTEX
 8
CA_ON
 10
0
 20
0
 30
0
 70
128
 71
315
 72
295
 73
319
 74
319
 0
VERTEX
 8
CA_ON
 10
0
 20
0
 30
0
 70
128
 71
294
 72
316
 73
320
 74
320
 0
VERTEX
 8
CA_ON
 10
0
 20
0
 30
0
 70
128
 71
317
 72
318
 73
322
 74
321
 0
VERTEX
 8
CA_ON
 10
0
 20
0
 30
0
 70
128
 71
319
 72
295
 73
323
 74
323
 0
VERTEX
 8
CA_ON
 10
0
 20
0
 30
0
 70
128
 71
294
 72
320
 73
324
 74
324
 0
VERTEX
 8
CA_ON
 10
0
 20
0
 30
0
 70
128
 71
321
 72
322
 73
326
 74
325
 0
VERTEX
 8
CA_ON
 10
0
 20
0
 30
0
 70
128
 71
323
 72
295
 73
327
 74
327
 0
VERTEX
 8
CA_ON
 10
0
 20
0
 30
0
 70
128
 71
294
 72
324
 73
328
 74
328
 0
VERTEX
 8
CA_ON
 10
0
 20
0
 30
0
 70
128
 71
325
 72
326
 73
330
 74
329
 0
VERTEX
 8
CA_ON
 10
0
 20
0
 30
0
 70
128
 71
327
 72
295
 73
331
 74
331
 0
VERTEX
 8
CA_ON
 10
0
 20
0
 30
0
 70
128
 71
294
 72
328
 73
332
 74
332
 0
VERTEX
 8
CA_ON
 10
0
 20
0
 30
0
 70
128
 71
329
 72
330
 73
334
 74
333
 0
VERTEX
 8
CA_ON
 10
0
 20
0
 30
0
 70
128
 71
331
 72
295
 73
335
 74
335
 0
VERTEX
 8
CA_ON
 10
0
 20
0
 30
0
 70
128
 71
294
 72
332
 73
336
 74
336
 0
VERTEX
 8
CA_ON
 10
0
 20
0
 30
0
 70
128
 71
333
 72
334
 73
338
 74
337
 0
VERTEX
 8
CA_ON
 10
0
 20
0
 30
0
 70
128
 71
335
 72
295
 73
339
 74
339
 0
VERTEX
 8
CA_ON
 10
0
 20
0
 30
0
 70
128
 71
294
 72
336
 73
340
 74
340
 0
VERTEX
 8
CA_ON
 10
0
 20
0
 30
0
 70
128
 71
337
 72
338
 73
342
 74
341
 0
VERTEX
 8
CA_ON
 10
0
 20
0
 30
0
 70
128
 71
339
 72
295
 73
343
 74
343
 0
VERTEX
 8
CA_ON
 10
0
 20
0
 30
0
 70
128
 71
294
 72
340
 73
344
 74
344
 0
VERTEX
 8
CA_ON
 10
0
 20
0
 30
0
 70
128
 71
341
 72
342
 73
346
 74
345
 0
VERTEX
 8
CA_ON
 10
0
 20
0
 30
0
 70
128
 71
343
 72
295
 73
347
 74
347
 0
VERTEX
 8
CA_ON
 10
0
 20
0
 30
0
 70
128
 71
294
 72
344
 73
348
 74
348
 0
VERTEX
 8
CA_ON
 10
0
 20
0
 30
0
 70
128
 71
345
 72
346
 73
350
 74
349
 0
VERTEX
 8
CA_ON
 10
0
 20
0
 30
0
 70
128
 71
347
 72
295
 73
351
 74
351
 0
VERTEX
 8
CA_ON
 10
0
 20
0
 30
0
 70
128
 71
294
 72
348
 73
352
 74
352
 0
VERTEX
 8
CA_ON
 10
0
 20
0
 30
0
 70
128
 71
349
 72
350
 73
354
 74
353
 0
VERTEX
 8
CA_ON
 10
0
 20
0
 30
0
 70
128
 71
351
 72
295
 73
355
 74
355
 0
VERTEX
 8
CA_ON
 10
0
 20
0
 30
0
 70
128
 71
294
 72
352
 73
356
 74
356
 0
VERTEX
 8
CA_ON
 10
0
 20
0
 30
0
 70
128
 71
353
 72
354
 73
358
 74
357
 0
VERTEX
 8
CA_ON
 10
0
 20
0
 30
0
 70
128
 71
355
 72
295
 73
359
 74
359
 0
VERTEX
 8
CA_ON
 10
0
 20
0
 30
0
 70
128
 71
294
 72
356
 73
360
 74
360
 0
VERTEX
 8
CA_ON
 10
0
 20
0
 30
0
 70
128
 71
357
 72
358
 73
362
 74
361
 0
VERTEX
 8
CA_ON
 10
0
 20
0
 30
0
 70
128
 71
359
 72
295
 73
363
 74
363
 0
VERTEX
 8
CA_ON
 10
0
 20
0
 30
0
 70
128
 71
294
 72
360
 73
364
 74
364
 0
VERTEX
 8
CA_ON
 10
0
 20
0
 30
0
 70
128
 71
361
 72
362
 73
366
 74
365
 0
VERTEX
 8
CA_ON
 10
0
 20
0
 30
0
 70
128
 71
363
 72
295
 73
367
 74
367
 0
VERTEX
 8
CA_ON
 10
0
 20
0
 30
0
 70
128
 71
294
 72
364
 73
368
 74
368
 0
VERTEX
 8
CA_ON
 10
0
 20
0
 30
0
 70
128
 71
365
 72
366
 73
370
 74
369
 0
VERTEX
 8
CA_ON
 10
0
 20
0
 30
0
 70
128
 71
367
 72
295
 73
371
 74
371
 0
VERTEX
 8
CA_ON
 10
0
 20
0
 30
0
 70
128
 71
294
 72
368
 73
372
 74
372
 0
VERTEX
 8
CA_ON
 10
0
 20
0
 30
0
 70
128
 71
369
 72
370
 73
374
 74
373
 0
VERTEX
 8
CA_ON
 10
0
 20
0
 30
0
 70
128
 71
371
 72
295
 73
375
 74
375
 0
VERTEX
 8
CA_ON
 10
0
 20
0
 30
0
 70
128
 71
294
 72
372
 73
376
 74
376
 0
VERTEX
 8
CA_ON
 10
0
 20
0
 30
0
 70
128
 71
373
 72
374
 73
378
 74
377
 0
VERTEX
 8
CA_ON
 10
0
 20
0
 30
0
 70
128
 71
375
 72
295
 73
379
 74
379
 0
VERTEX
 8
CA_ON
 10
0
 20
0
 30
0
 70
128
 71
294
 72
376
 73
380
 74
380
 0
VERTEX
 8
CA_ON
 10
0
 20
0
 30
0
 70
128
 71
377
 72
378
 73
382
 74
381
 0
VERTEX
 8
CA_ON
 10
0
 20
0
 30
0
 70
128
 71
379
 72
295
 73
383
 74
383
 0
VERTEX
 8
CA_ON
 10
0
 20
0
 30
0
 70
128
 71
294
 72
380
 73
384
 74
384
 0
VERTEX
 8
CA_ON
 10
0
 20
0
 30
0
 70
128
 71
381
 72
382
 73
386
 74
385
 0
VERTEX
 8
CA_ON
 10
0
 20
0
 30
0
 70
128
 71
383
 72
295
 73
387
 74
387
 0
VERTEX
 8
CA_ON
 10
0
 20
0
 30
0
 70
128
 71
294
 72
384
 73
388
 74
388
 0
VERTEX
 8
CA_ON
 10
0
 20
0
 30
0
 70
128
 71
385
 72
386
 73
390
 74
389
 0
VERTEX
 8
CA_ON
 10
0
 20
0
 30
0
 70
128
 71
387
 72
295
 73
391
 74
391
 0
VERTEX
 8
CA_ON
 10
0
 20
0
 30
0
 70
128
 71
294
 72
388
 73
392
 74
392
 0
VERTEX
 8
CA_ON
 10
0
 20
0
 30
0
 70
128
 71
389
 72
390
 73
394
 74
393
 0
VERTEX
 8
CA_ON
 10
0
 20
0
 30
0
 70
128
 71
391
 72
295
 73
395
 74
395
 0
VERTEX
 8
CA_ON
 10
0
 20
0
 30
0
 70
128
 71
294
 72
392
 73
396
 74
396
 0
VERTEX
 8
CA_ON
 10
0
 20
0
 30
0
 70
128
 71
393
 72
394
 73
398
 74
397
 0
VERTEX
 8
CA_ON
 10
0
 20
0
 30
0
 70
128
 71
395
 72
295
 73
399
 74
399
 0
VERTEX
 8
CA_ON
 10
0
 20
0
 30
0
 70
128
 71
294
 72
396
 73
400
 74
400
 0
VERTEX
 8
CA_ON
 10
0
 20
0
 30
0
 70
128
 71
397
 72
398
 73
402
 74
401
 0
VERTEX
 8
CA_ON
 10
0
 20
0
 30
0
 70
128
 71
399
 72
295
 73
403
 74
403
 0
VERTEX
 8
CA_ON
 10
0
 20
0
 30
0
 70
128
 71
294
 72
400
 73
404
 74
404
 0
VERTEX
 8
CA_ON
 10
0
 20
0
 30
0
 70
128
 71
401
 72
402
 73
406
 74
405
 0
VERTEX
 8
CA_ON
 10
0
 20
0
 30
0
 70
128
 71
403
 72
295
 73
407
 74
407
 0
VERTEX
 8
CA_ON
 10
0
 20
0
 30
0
 70
128
 71
294
 72
404
 73
408
 74
408
 0
VERTEX
 8
CA_ON
 10
0
 20
0
 30
0
 70
128
 71
405
 72
406
 73
410
 74
409
 0
VERTEX
 8
CA_ON
 10
0
 20
0
 30
0
 70
128
 71
407
 72
295
 73
411
 74
411
 0
VERTEX
 8
CA_ON
 10
0
 20
0
 30
0
 70
128
 71
294
 72
408
 73
412
 74
412
 0
VERTEX
 8
CA_ON
 10
0
 20
0
 30
0
 70
128
 71
409
 72
410
 73
414
 74
413
 0
VERTEX
 8
CA_ON
 10
0
 20
0
 30
0
 70
128
 71
411
 72
295
 73
415
 74
415
 0
VERTEX
 8
CA_ON
 10
0
 20
0
 30
0
 70
128
 71
294
 72
412
 73
416
 74
416
 0
VERTEX
 8
CA_ON
 10
0
 20
0
 30
0
 70
128
 71
413
 72
414
 73
418
 74
417
 0
VERTEX
 8
CA_ON
 10
0
 20
0
 30
0
 70
128
 71
415
 72
295
 73
419
 74
419
 0
VERTEX
 8
CA_ON
 10
0
 20
0
 30
0
 70
128
 71
294
 72
416
 73
420
 74
420
 0
VERTEX
 8
CA_ON
 10
0
 20
0
 30
0
 70
128
 71
417
 72
418
 73
422
 74
421
 0
VERTEX
 8
CA_ON
 10
0
 20
0
 30
0
 70
128
 71
419
 72
295
 73
423
 74
423
 0
VERTEX
 8
CA_ON
 10
0
 20
0
 30
0
 70
128
 71
294
 72
420
 73
424
 74
424
 0
VERTEX
 8
CA_ON
 10
0
 20
0
 30
0
 70
128
 71
421
 72
422
 73
426
 74
425
 0
VERTEX
 8
CA_ON
 10
0
 20
0
 30
0
 70
128
 71
423
 72
295
 73
427
 74
427
 0
VERTEX
 8
CA_ON
 10
0
 20
0
 30
0
 70
128
 71
294
 72
424
 73
428
 74
428
 0
VERTEX
 8
CA_ON
 10
0
 20
0
 30
0
 70
128
 71
425
 72
426
 73
430
 74
429
 0
VERTEX
 8
CA_ON
 10
0
 20
0
 30
0
 70
128
 71
427
 72
295
 73
431
 74
431
 0
VERTEX
 8
CA_ON
 10
0
 20
0
 30
0
 70
128
 71
294
 72
428
 73
432
 74
432
 0
VERTEX
 8
CA_ON
 10
0
 20
0
 30
0
 70
128
 71
429
 72
430
 73
434
 74
433
 0
VERTEX
 8
CA_ON
 10
0
 20
0
 30
0
 70
128
 71
431
 72
295
 73
435
 74
435
 0
VERTEX
 8
CA_ON
 10
0
 20
0
 30
0
 70
128
 71
294
 72
432
 73
436
 74
436
 0
VERTEX
 8
CA_ON
 10
0
 20
0
 30
0
 70
128
 71
433
 72
434
 73
438
 74
437
 0
VERTEX
 8
CA_ON
 10
0
 20
0
 30
0
 70
128
 71
435
 72
295
 73
439
 74
439
 0
VERTEX
 8
CA_ON
 10
0
 20
0
 30
0
 70
128
 71
294
 72
436
 73
296
 74
296
 0
VERTEX
 8
CA_ON
 10
0
 20
0
 30
0
 70
128
 71
437
 72
438
 73
298
 74
297
 0
VERTEX
 8
CA_ON
 10
0
 20
0
 30
0
 70
128
 71
439
 72
295
 73
299
 74
299
 0
SEQEND
 0
ENDSEC
 0
EOF
