 0
SECTION
 2
HEADER
 9
$ACADVER
 1
AC1009
 0
ENDSEC
 0
SECTION
 2
TABLES
 0
TABLE
 2
LTYPE
 70
1
 0
LTYPE
 2
CONTINUOUS
 70
64
 3
solid line
 72
65
 73
0
 40
0.0
 0
ENDTAB
 0
TABLE
 2
LAYER
 70
6
 0
LAYER
 2
0
 70
0
 62
7
 6
CONTINUOUS
 0
LAYER
 2
SMG_3
 70
64
 62
7
 6
CONTINUOUS
 0
LAYER
 2
CUERPO
 70
64
 62
88
 6
CONTINUOUS
 0
LAYER
 2
GATILLO
 70
64
 62
88
 6
CONTINUOUS
 0
LAYER
 2
CARGADOR
 70
64
 62
88
 6
CONTINUOUS
 0
LAYER
 2
CUBO_5
 70
64
 62
88
 6
CONTINUOUS
 0
LAYER
 2
SILENCIADOOR_1
 70
64
 62
88
 6
CONTINUOUS
 0
ENDTAB
 0
ENDSEC
 0
SECTION
 2
BLOCKS
 0
ENDSEC
 0
SECTION
 2
ENTITIES
 0
POLYLINE
 8
CUERPO
 66
1
 10
0.0
 20
0.0
 30
0.0
 70
64
 71
922
 72
576
 0
VERTEX
 8
CUERPO
 10
-0.0953
 20
-0.0752
 30
2.3186
 70
192
 0
VERTEX
 8
CUERPO
 10
0.8438
 20
-0.0752
 30
2.3186
 70
192
 0
VERTEX
 8
CUERPO
 10
-0.0953
 20
-0.0752
 30
2.0822
 70
192
 0
VERTEX
 8
CUERPO
 10
0.8438
 20
-0.0752
 30
2.0822
 70
192
 0
VERTEX
 8
CUERPO
 10
-0.0953
 20
0.0752
 30
2.0822
 70
192
 0
VERTEX
 8
CUERPO
 10
0.8438
 20
0.0752
 30
2.0822
 70
192
 0
VERTEX
 8
CUERPO
 10
-0.0953
 20
0.0752
 30
2.3186
 70
192
 0
VERTEX
 8
CUERPO
 10
0.8438
 20
0.0752
 30
2.3186
 70
192
 0
VERTEX
 8
CUERPO
 10
0.6028
 20
0.0752
 30
2.2545
 70
192
 0
VERTEX
 8
CUERPO
 10
0.6028
 20
0.0752
 30
2.1869
 70
192
 0
VERTEX
 8
CUERPO
 10
0.4711
 20
0.0752
 30
2.1869
 70
192
 0
VERTEX
 8
CUERPO
 10
0.4711
 20
0.0752
 30
2.2545
 70
192
 0
VERTEX
 8
CUERPO
 10
0.4711
 20
0.0112
 30
2.1869
 70
192
 0
VERTEX
 8
CUERPO
 10
0.4711
 20
0.0112
 30
2.2545
 70
192
 0
VERTEX
 8
CUERPO
 10
0.6028
 20
0.0112
 30
2.1869
 70
192
 0
VERTEX
 8
CUERPO
 10
0.6028
 20
0.0112
 30
2.2545
 70
192
 0
VERTEX
 8
CUERPO
 10
0.6028
 20
0.0752
 30
2.2545
 70
192
 0
VERTEX
 8
CUERPO
 10
0.6028
 20
0.0752
 30
2.1869
 70
192
 0
VERTEX
 8
CUERPO
 10
0.4711
 20
0.0752
 30
2.1869
 70
192
 0
VERTEX
 8
CUERPO
 10
0.4711
 20
0.0752
 30
2.2545
 70
192
 0
VERTEX
 8
CUERPO
 10
0.8296
 20
-0.0712
 30
2.3166
 70
192
 0
VERTEX
 8
CUERPO
 10
0.8296
 20
-0.0557
 30
2.3309
 70
192
 0
VERTEX
 8
CUERPO
 10
0.8296
 20
-0.0402
 30
2.3451
 70
192
 0
VERTEX
 8
CUERPO
 10
0.8296
 20
-0.0248
 30
2.3593
 70
192
 0
VERTEX
 8
CUERPO
 10
0.8296
 20
-0.0093
 30
2.3735
 70
192
 0
VERTEX
 8
CUERPO
 10
0.8296
 20
0.005
 30
2.3776
 70
192
 0
VERTEX
 8
CUERPO
 10
0.8408
 20
-0.0712
 30
2.3166
 70
192
 0
VERTEX
 8
CUERPO
 10
0.8408
 20
-0.0557
 30
2.3309
 70
192
 0
VERTEX
 8
CUERPO
 10
0.8408
 20
-0.0402
 30
2.3451
 70
192
 0
VERTEX
 8
CUERPO
 10
0.8408
 20
-0.0248
 30
2.3593
 70
192
 0
VERTEX
 8
CUERPO
 10
0.8408
 20
-0.0093
 30
2.3735
 70
192
 0
VERTEX
 8
CUERPO
 10
0.8408
 20
0.005
 30
2.3776
 70
192
 0
VERTEX
 8
CUERPO
 10
0.8408
 20
-0.0583
 30
2.3026
 70
192
 0
VERTEX
 8
CUERPO
 10
0.8408
 20
-0.0428
 30
2.3168
 70
192
 0
VERTEX
 8
CUERPO
 10
0.8408
 20
-0.0273
 30
2.331
 70
192
 0
VERTEX
 8
CUERPO
 10
0.8408
 20
-0.0119
 30
2.3452
 70
192
 0
VERTEX
 8
CUERPO
 10
0.8408
 20
0.0191
 30
2.3736
 70
192
 0
VERTEX
 8
CUERPO
 10
0.8408
 20
-0.0454
 30
2.2885
 70
192
 0
VERTEX
 8
CUERPO
 10
0.8408
 20
-0.0299
 30
2.3027
 70
192
 0
VERTEX
 8
CUERPO
 10
0.8408
 20
-0.0144
 30
2.3169
 70
192
 0
VERTEX
 8
CUERPO
 10
0.8408
 20
0.001
 30
2.3311
 70
192
 0
VERTEX
 8
CUERPO
 10
0.8408
 20
0.0165
 30
2.3453
 70
192
 0
VERTEX
 8
CUERPO
 10
0.8408
 20
0.032
 30
2.3595
 70
192
 0
VERTEX
 8
CUERPO
 10
0.8408
 20
-0.0325
 30
2.2745
 70
192
 0
VERTEX
 8
CUERPO
 10
0.8408
 20
-0.017
 30
2.2887
 70
192
 0
VERTEX
 8
CUERPO
 10
0.8408
 20
-0.0015
 30
2.3029
 70
192
 0
VERTEX
 8
CUERPO
 10
0.8408
 20
0.014
 30
2.3171
 70
192
 0
VERTEX
 8
CUERPO
 10
0.8408
 20
0.0294
 30
2.3313
 70
192
 0
VERTEX
 8
CUERPO
 10
0.8408
 20
0.0449
 30
2.3455
 70
192
 0
VERTEX
 8
CUERPO
 10
0.8408
 20
-0.0196
 30
2.2604
 70
192
 0
VERTEX
 8
CUERPO
 10
0.8408
 20
-0.0041
 30
2.2746
 70
192
 0
VERTEX
 8
CUERPO
 10
0.8408
 20
0.0114
 30
2.2888
 70
192
 0
VERTEX
 8
CUERPO
 10
0.8408
 20
0.0269
 30
2.303
 70
192
 0
VERTEX
 8
CUERPO
 10
0.8408
 20
0.0423
 30
2.3172
 70
192
 0
VERTEX
 8
CUERPO
 10
0.8408
 20
0.0578
 30
2.3314
 70
192
 0
VERTEX
 8
CUERPO
 10
0.8408
 20
-0.0066
 30
2.2463
 70
192
 0
VERTEX
 8
CUERPO
 10
0.8408
 20
0.0088
 30
2.2605
 70
192
 0
VERTEX
 8
CUERPO
 10
0.8408
 20
0.0243
 30
2.2747
 70
192
 0
VERTEX
 8
CUERPO
 10
0.8408
 20
0.0398
 30
2.2889
 70
192
 0
VERTEX
 8
CUERPO
 10
0.8408
 20
0.0552
 30
2.3032
 70
192
 0
VERTEX
 8
CUERPO
 10
0.8408
 20
0.0707
 30
2.3174
 70
192
 0
VERTEX
 8
CUERPO
 10
0.8296
 20
-0.0066
 30
2.2463
 70
192
 0
VERTEX
 8
CUERPO
 10
0.8296
 20
0.0088
 30
2.2605
 70
192
 0
VERTEX
 8
CUERPO
 10
0.8296
 20
0.0243
 30
2.2747
 70
192
 0
VERTEX
 8
CUERPO
 10
0.8296
 20
0.0398
 30
2.2889
 70
192
 0
VERTEX
 8
CUERPO
 10
0.8296
 20
0.0552
 30
2.3032
 70
192
 0
VERTEX
 8
CUERPO
 10
0.8296
 20
0.0707
 30
2.3174
 70
192
 0
VERTEX
 8
CUERPO
 10
0.8296
 20
-0.0196
 30
2.2604
 70
192
 0
VERTEX
 8
CUERPO
 10
0.8296
 20
-0.0041
 30
2.2746
 70
192
 0
VERTEX
 8
CUERPO
 10
0.8296
 20
0.0114
 30
2.2888
 70
192
 0
VERTEX
 8
CUERPO
 10
0.8296
 20
0.0269
 30
2.303
 70
192
 0
VERTEX
 8
CUERPO
 10
0.8296
 20
0.0423
 30
2.3172
 70
192
 0
VERTEX
 8
CUERPO
 10
0.8296
 20
0.0578
 30
2.3314
 70
192
 0
VERTEX
 8
CUERPO
 10
0.8296
 20
-0.0325
 30
2.2745
 70
192
 0
VERTEX
 8
CUERPO
 10
0.8296
 20
-0.017
 30
2.2887
 70
192
 0
VERTEX
 8
CUERPO
 10
0.8296
 20
-0.0015
 30
2.3029
 70
192
 0
VERTEX
 8
CUERPO
 10
0.8296
 20
0.014
 30
2.3171
 70
192
 0
VERTEX
 8
CUERPO
 10
0.8296
 20
0.0294
 30
2.3313
 70
192
 0
VERTEX
 8
CUERPO
 10
0.8296
 20
0.0449
 30
2.3455
 70
192
 0
VERTEX
 8
CUERPO
 10
0.8296
 20
-0.0454
 30
2.2885
 70
192
 0
VERTEX
 8
CUERPO
 10
0.8296
 20
-0.0299
 30
2.3027
 70
192
 0
VERTEX
 8
CUERPO
 10
0.8296
 20
-0.0144
 30
2.3169
 70
192
 0
VERTEX
 8
CUERPO
 10
0.8296
 20
0.001
 30
2.3311
 70
192
 0
VERTEX
 8
CUERPO
 10
0.8296
 20
0.0165
 30
2.3453
 70
192
 0
VERTEX
 8
CUERPO
 10
0.8296
 20
0.032
 30
2.3595
 70
192
 0
VERTEX
 8
CUERPO
 10
0.8296
 20
-0.0583
 30
2.3026
 70
192
 0
VERTEX
 8
CUERPO
 10
0.8296
 20
-0.0428
 30
2.3168
 70
192
 0
VERTEX
 8
CUERPO
 10
0.8296
 20
-0.0273
 30
2.331
 70
192
 0
VERTEX
 8
CUERPO
 10
0.8296
 20
-0.0119
 30
2.3452
 70
192
 0
VERTEX
 8
CUERPO
 10
0.8296
 20
0.0191
 30
2.3736
 70
192
 0
VERTEX
 8
CUERPO
 10
0.8408
 20
-0.002
 30
2.3655
 70
192
 0
VERTEX
 8
CUERPO
 10
0.8296
 20
-0.002
 30
2.3655
 70
192
 0
VERTEX
 8
CUERPO
 10
0.8296
 20
0.0144
 30
2.3477
 70
192
 0
VERTEX
 8
CUERPO
 10
0.8296
 20
-0.0063
 30
2.3503
 70
192
 0
VERTEX
 8
CUERPO
 10
0.8408
 20
0.0109
 30
2.3661
 70
192
 0
VERTEX
 8
CUERPO
 10
0.8408
 20
0.0144
 30
2.3477
 70
192
 0
VERTEX
 8
CUERPO
 10
0.8296
 20
0.0109
 30
2.3661
 70
192
 0
VERTEX
 8
CUERPO
 10
0.8408
 20
-0.0063
 30
2.3503
 70
192
 0
VERTEX
 8
CUERPO
 10
0.8408
 20
-0.003
 30
2.3648
 70
192
 0
VERTEX
 8
CUERPO
 10
0.8408
 20
-0.0066
 30
2.3596
 70
192
 0
VERTEX
 8
CUERPO
 10
0.8408
 20
-0.0057
 30
2.3615
 70
192
 0
VERTEX
 8
CUERPO
 10
0.8408
 20
-0.0066
 30
2.3512
 70
192
 0
VERTEX
 8
CUERPO
 10
0.8408
 20
-0.0072
 30
2.3575
 70
192
 0
VERTEX
 8
CUERPO
 10
0.8408
 20
0.007
 30
2.3433
 70
192
 0
VERTEX
 8
CUERPO
 10
0.8408
 20
0.0091
 30
2.3439
 70
192
 0
VERTEX
 8
CUERPO
 10
0.8408
 20
0.011
 30
2.3448
 70
192
 0
VERTEX
 8
CUERPO
 10
0.8408
 20
0.0143
 30
2.3475
 70
192
 0
VERTEX
 8
CUERPO
 10
0.8408
 20
-0.0074
 30
2.3554
 70
192
 0
VERTEX
 8
CUERPO
 10
0.8408
 20
-0.0072
 30
2.3532
 70
192
 0
VERTEX
 8
CUERPO
 10
0.8408
 20
-0.0057
 30
2.3492
 70
192
 0
VERTEX
 8
CUERPO
 10
0.8408
 20
-0.0045
 30
2.3475
 70
192
 0
VERTEX
 8
CUERPO
 10
0.8408
 20
-0.003
 30
2.346
 70
192
 0
VERTEX
 8
CUERPO
 10
0.8408
 20
-0.0013
 30
2.3448
 70
192
 0
VERTEX
 8
CUERPO
 10
0.8408
 20
0.0007
 30
2.3439
 70
192
 0
VERTEX
 8
CUERPO
 10
0.8408
 20
0.0028
 30
2.3433
 70
192
 0
VERTEX
 8
CUERPO
 10
0.8408
 20
0.0091
 30
2.3669
 70
192
 0
VERTEX
 8
CUERPO
 10
0.8408
 20
0.007
 30
2.3674
 70
192
 0
VERTEX
 8
CUERPO
 10
0.8408
 20
0.0049
 30
2.3676
 70
192
 0
VERTEX
 8
CUERPO
 10
0.8408
 20
0.0028
 30
2.3674
 70
192
 0
VERTEX
 8
CUERPO
 10
0.8408
 20
0.0007
 30
2.3669
 70
192
 0
VERTEX
 8
CUERPO
 10
0.8408
 20
-0.0013
 30
2.366
 70
192
 0
VERTEX
 8
CUERPO
 10
0.8408
 20
-0.0045
 30
2.3633
 70
192
 0
VERTEX
 8
CUERPO
 10
0.8408
 20
0.0049
 30
2.3431
 70
192
 0
VERTEX
 8
CUERPO
 10
0.8408
 20
0.0155
 30
2.3492
 70
192
 0
VERTEX
 8
CUERPO
 10
0.8408
 20
0.0164
 30
2.3512
 70
192
 0
VERTEX
 8
CUERPO
 10
0.8408
 20
0.017
 30
2.3532
 70
192
 0
VERTEX
 8
CUERPO
 10
0.8408
 20
0.0128
 30
2.346
 70
192
 0
VERTEX
 8
CUERPO
 10
0.8408
 20
0.0171
 30
2.3554
 70
192
 0
VERTEX
 8
CUERPO
 10
0.8408
 20
0.0164
 30
2.3596
 70
192
 0
VERTEX
 8
CUERPO
 10
0.8408
 20
0.017
 30
2.3575
 70
192
 0
VERTEX
 8
CUERPO
 10
0.8408
 20
0.0155
 30
2.3615
 70
192
 0
VERTEX
 8
CUERPO
 10
0.8408
 20
0.0143
 30
2.3633
 70
192
 0
VERTEX
 8
CUERPO
 10
0.8408
 20
0.0128
 30
2.3648
 70
192
 0
VERTEX
 8
CUERPO
 10
0.8408
 20
0.011
 30
2.366
 70
192
 0
VERTEX
 8
CUERPO
 10
0.8296
 20
0.0049
 30
2.3431
 70
192
 0
VERTEX
 8
CUERPO
 10
0.8296
 20
0.007
 30
2.3433
 70
192
 0
VERTEX
 8
CUERPO
 10
0.8296
 20
0.011
 30
2.3448
 70
192
 0
VERTEX
 8
CUERPO
 10
0.8296
 20
0.0128
 30
2.346
 70
192
 0
VERTEX
 8
CUERPO
 10
0.8296
 20
0.0143
 30
2.3475
 70
192
 0
VERTEX
 8
CUERPO
 10
0.8296
 20
-0.0057
 30
2.3492
 70
192
 0
VERTEX
 8
CUERPO
 10
0.8296
 20
-0.0045
 30
2.3475
 70
192
 0
VERTEX
 8
CUERPO
 10
0.8296
 20
-0.003
 30
2.346
 70
192
 0
VERTEX
 8
CUERPO
 10
0.8296
 20
-0.0013
 30
2.3448
 70
192
 0
VERTEX
 8
CUERPO
 10
0.8296
 20
0.0007
 30
2.3439
 70
192
 0
VERTEX
 8
CUERPO
 10
0.8296
 20
0.0028
 30
2.3433
 70
192
 0
VERTEX
 8
CUERPO
 10
0.8296
 20
-0.003
 30
2.3648
 70
192
 0
VERTEX
 8
CUERPO
 10
0.8296
 20
-0.0045
 30
2.3633
 70
192
 0
VERTEX
 8
CUERPO
 10
0.8296
 20
-0.0057
 30
2.3615
 70
192
 0
VERTEX
 8
CUERPO
 10
0.8296
 20
-0.0066
 30
2.3596
 70
192
 0
VERTEX
 8
CUERPO
 10
0.8296
 20
-0.0072
 30
2.3575
 70
192
 0
VERTEX
 8
CUERPO
 10
0.8296
 20
-0.0074
 30
2.3554
 70
192
 0
VERTEX
 8
CUERPO
 10
0.8296
 20
-0.0072
 30
2.3532
 70
192
 0
VERTEX
 8
CUERPO
 10
0.8296
 20
-0.0066
 30
2.3512
 70
192
 0
VERTEX
 8
CUERPO
 10
0.8296
 20
0.0091
 30
2.3439
 70
192
 0
VERTEX
 8
CUERPO
 10
0.8296
 20
0.0155
 30
2.3492
 70
192
 0
VERTEX
 8
CUERPO
 10
0.8296
 20
0.0164
 30
2.3512
 70
192
 0
VERTEX
 8
CUERPO
 10
0.8296
 20
0.017
 30
2.3532
 70
192
 0
VERTEX
 8
CUERPO
 10
0.8296
 20
0.0171
 30
2.3554
 70
192
 0
VERTEX
 8
CUERPO
 10
0.8296
 20
0.017
 30
2.3575
 70
192
 0
VERTEX
 8
CUERPO
 10
0.8296
 20
0.0164
 30
2.3596
 70
192
 0
VERTEX
 8
CUERPO
 10
0.8296
 20
0.0155
 30
2.3615
 70
192
 0
VERTEX
 8
CUERPO
 10
0.8296
 20
0.0143
 30
2.3633
 70
192
 0
VERTEX
 8
CUERPO
 10
0.8296
 20
0.0128
 30
2.3648
 70
192
 0
VERTEX
 8
CUERPO
 10
0.8296
 20
0.011
 30
2.366
 70
192
 0
VERTEX
 8
CUERPO
 10
0.8296
 20
0.0091
 30
2.3669
 70
192
 0
VERTEX
 8
CUERPO
 10
0.8296
 20
0.007
 30
2.3674
 70
192
 0
VERTEX
 8
CUERPO
 10
0.8296
 20
0.0049
 30
2.3676
 70
192
 0
VERTEX
 8
CUERPO
 10
0.8296
 20
0.0028
 30
2.3674
 70
192
 0
VERTEX
 8
CUERPO
 10
0.8296
 20
0.0007
 30
2.3669
 70
192
 0
VERTEX
 8
CUERPO
 10
0.8296
 20
-0.0013
 30
2.366
 70
192
 0
VERTEX
 8
CUERPO
 10
0.8408
 20
0.0007
 30
2.3439
 70
192
 0
VERTEX
 8
CUERPO
 10
0.8408
 20
-0.003
 30
2.3648
 70
192
 0
VERTEX
 8
CUERPO
 10
0.8408
 20
-0.0045
 30
2.3633
 70
192
 0
VERTEX
 8
CUERPO
 10
0.8408
 20
-0.0057
 30
2.3615
 70
192
 0
VERTEX
 8
CUERPO
 10
0.8408
 20
-0.0066
 30
2.3596
 70
192
 0
VERTEX
 8
CUERPO
 10
0.8408
 20
-0.0072
 30
2.3575
 70
192
 0
VERTEX
 8
CUERPO
 10
0.8408
 20
-0.0074
 30
2.3554
 70
192
 0
VERTEX
 8
CUERPO
 10
0.8408
 20
-0.0072
 30
2.3532
 70
192
 0
VERTEX
 8
CUERPO
 10
0.8408
 20
-0.0066
 30
2.3512
 70
192
 0
VERTEX
 8
CUERPO
 10
0.8296
 20
-0.0045
 30
2.3475
 70
192
 0
VERTEX
 8
CUERPO
 10
0.8408
 20
0.0049
 30
2.3431
 70
192
 0
VERTEX
 8
CUERPO
 10
0.8408
 20
0.007
 30
2.3433
 70
192
 0
VERTEX
 8
CUERPO
 10
0.8408
 20
0.0091
 30
2.3439
 70
192
 0
VERTEX
 8
CUERPO
 10
0.8408
 20
0.011
 30
2.3448
 70
192
 0
VERTEX
 8
CUERPO
 10
0.8408
 20
0.0128
 30
2.346
 70
192
 0
VERTEX
 8
CUERPO
 10
0.8408
 20
0.0143
 30
2.3475
 70
192
 0
VERTEX
 8
CUERPO
 10
0.8408
 20
0.017
 30
2.3575
 70
192
 0
VERTEX
 8
CUERPO
 10
0.8408
 20
0.0164
 30
2.3596
 70
192
 0
VERTEX
 8
CUERPO
 10
0.8408
 20
-0.0057
 30
2.3492
 70
192
 0
VERTEX
 8
CUERPO
 10
0.8408
 20
-0.0045
 30
2.3475
 70
192
 0
VERTEX
 8
CUERPO
 10
0.8408
 20
-0.003
 30
2.346
 70
192
 0
VERTEX
 8
CUERPO
 10
0.8408
 20
-0.0013
 30
2.3448
 70
192
 0
VERTEX
 8
CUERPO
 10
0.8296
 20
0.0049
 30
2.3431
 70
192
 0
VERTEX
 8
CUERPO
 10
0.8408
 20
0.0028
 30
2.3433
 70
192
 0
VERTEX
 8
CUERPO
 10
0.8296
 20
0.0091
 30
2.3439
 70
192
 0
VERTEX
 8
CUERPO
 10
0.8408
 20
0.0091
 30
2.3669
 70
192
 0
VERTEX
 8
CUERPO
 10
0.8408
 20
0.007
 30
2.3674
 70
192
 0
VERTEX
 8
CUERPO
 10
0.8408
 20
0.0049
 30
2.3676
 70
192
 0
VERTEX
 8
CUERPO
 10
0.8408
 20
0.0028
 30
2.3674
 70
192
 0
VERTEX
 8
CUERPO
 10
0.8408
 20
0.0007
 30
2.3669
 70
192
 0
VERTEX
 8
CUERPO
 10
0.8408
 20
-0.0013
 30
2.366
 70
192
 0
VERTEX
 8
CUERPO
 10
0.8296
 20
0.0164
 30
2.3596
 70
192
 0
VERTEX
 8
CUERPO
 10
0.8296
 20
-0.003
 30
2.346
 70
192
 0
VERTEX
 8
CUERPO
 10
0.8408
 20
0.0155
 30
2.3492
 70
192
 0
VERTEX
 8
CUERPO
 10
0.8408
 20
0.0164
 30
2.3512
 70
192
 0
VERTEX
 8
CUERPO
 10
0.8408
 20
0.017
 30
2.3532
 70
192
 0
VERTEX
 8
CUERPO
 10
0.8408
 20
0.0171
 30
2.3554
 70
192
 0
VERTEX
 8
CUERPO
 10
0.8296
 20
-0.0045
 30
2.3633
 70
192
 0
VERTEX
 8
CUERPO
 10
0.8408
 20
0.0155
 30
2.3615
 70
192
 0
VERTEX
 8
CUERPO
 10
0.8408
 20
0.0143
 30
2.3633
 70
192
 0
VERTEX
 8
CUERPO
 10
0.8408
 20
0.0128
 30
2.3648
 70
192
 0
VERTEX
 8
CUERPO
 10
0.8408
 20
0.011
 30
2.366
 70
192
 0
VERTEX
 8
CUERPO
 10
0.8296
 20
-0.0074
 30
2.3554
 70
192
 0
VERTEX
 8
CUERPO
 10
0.8296
 20
-0.0072
 30
2.3532
 70
192
 0
VERTEX
 8
CUERPO
 10
0.8296
 20
0.007
 30
2.3433
 70
192
 0
VERTEX
 8
CUERPO
 10
0.8296
 20
0.011
 30
2.3448
 70
192
 0
VERTEX
 8
CUERPO
 10
0.8296
 20
0.0128
 30
2.346
 70
192
 0
VERTEX
 8
CUERPO
 10
0.8296
 20
0.0143
 30
2.3475
 70
192
 0
VERTEX
 8
CUERPO
 10
0.8296
 20
0.0171
 30
2.3554
 70
192
 0
VERTEX
 8
CUERPO
 10
0.8296
 20
-0.0057
 30
2.3492
 70
192
 0
VERTEX
 8
CUERPO
 10
0.8296
 20
0.017
 30
2.3575
 70
192
 0
VERTEX
 8
CUERPO
 10
0.8296
 20
0.007
 30
2.3674
 70
192
 0
VERTEX
 8
CUERPO
 10
0.8296
 20
0.0155
 30
2.3615
 70
192
 0
VERTEX
 8
CUERPO
 10
0.8296
 20
-0.0013
 30
2.3448
 70
192
 0
VERTEX
 8
CUERPO
 10
0.8296
 20
0.0007
 30
2.3439
 70
192
 0
VERTEX
 8
CUERPO
 10
0.8296
 20
0.0028
 30
2.3433
 70
192
 0
VERTEX
 8
CUERPO
 10
0.8296
 20
-0.003
 30
2.3648
 70
192
 0
VERTEX
 8
CUERPO
 10
0.8296
 20
0.0091
 30
2.3669
 70
192
 0
VERTEX
 8
CUERPO
 10
0.8296
 20
-0.0066
 30
2.3512
 70
192
 0
VERTEX
 8
CUERPO
 10
0.8296
 20
-0.0066
 30
2.3596
 70
192
 0
VERTEX
 8
CUERPO
 10
0.8296
 20
-0.0057
 30
2.3615
 70
192
 0
VERTEX
 8
CUERPO
 10
0.8296
 20
-0.0013
 30
2.366
 70
192
 0
VERTEX
 8
CUERPO
 10
0.8296
 20
-0.0072
 30
2.3575
 70
192
 0
VERTEX
 8
CUERPO
 10
0.8296
 20
0.0155
 30
2.3492
 70
192
 0
VERTEX
 8
CUERPO
 10
0.8296
 20
0.0164
 30
2.3512
 70
192
 0
VERTEX
 8
CUERPO
 10
0.8296
 20
0.017
 30
2.3532
 70
192
 0
VERTEX
 8
CUERPO
 10
0.8296
 20
0.0143
 30
2.3633
 70
192
 0
VERTEX
 8
CUERPO
 10
0.8296
 20
0.0128
 30
2.3648
 70
192
 0
VERTEX
 8
CUERPO
 10
0.8296
 20
0.0049
 30
2.3676
 70
192
 0
VERTEX
 8
CUERPO
 10
0.8296
 20
0.011
 30
2.366
 70
192
 0
VERTEX
 8
CUERPO
 10
0.8296
 20
0.0007
 30
2.3669
 70
192
 0
VERTEX
 8
CUERPO
 10
0.8296
 20
0.0028
 30
2.3674
 70
192
 0
VERTEX
 8
CUERPO
 10
0.8408
 20
-0.002
 30
2.3655
 70
192
 0
VERTEX
 8
CUERPO
 10
0.8296
 20
-0.0063
 30
2.3503
 70
192
 0
VERTEX
 8
CUERPO
 10
0.8408
 20
0.0109
 30
2.3661
 70
192
 0
VERTEX
 8
CUERPO
 10
0.8296
 20
0.0144
 30
2.3477
 70
192
 0
VERTEX
 8
CUERPO
 10
0.8296
 20
0.0109
 30
2.3661
 70
192
 0
VERTEX
 8
CUERPO
 10
0.8296
 20
-0.002
 30
2.3655
 70
192
 0
VERTEX
 8
CUERPO
 10
0.8408
 20
0.0144
 30
2.3477
 70
192
 0
VERTEX
 8
CUERPO
 10
0.8408
 20
-0.0063
 30
2.3503
 70
192
 0
VERTEX
 8
CUERPO
 10
-0.0861
 20
0.0413
 30
2.3515
 70
192
 0
VERTEX
 8
CUERPO
 10
-0.0695
 20
0.0413
 30
2.3524
 70
192
 0
VERTEX
 8
CUERPO
 10
-0.0469
 20
0.0413
 30
2.3444
 70
192
 0
VERTEX
 8
CUERPO
 10
-0.0321
 20
0.0413
 30
2.3389
 70
192
 0
VERTEX
 8
CUERPO
 10
-0.0898
 20
0.0413
 30
2.3396
 70
192
 0
VERTEX
 8
CUERPO
 10
-0.0769
 20
0.0413
 30
2.3316
 70
192
 0
VERTEX
 8
CUERPO
 10
-0.0543
 20
0.0413
 30
2.3236
 70
192
 0
VERTEX
 8
CUERPO
 10
-0.0115
 20
0.0413
 30
2.3156
 70
192
 0
VERTEX
 8
CUERPO
 10
-0.0881
 20
0.0413
 30
2.3188
 70
192
 0
VERTEX
 8
CUERPO
 10
-0.0842
 20
0.0413
 30
2.3108
 70
192
 0
VERTEX
 8
CUERPO
 10
-0.0616
 20
0.0413
 30
2.3028
 70
192
 0
VERTEX
 8
CUERPO
 10
-0.039
 20
0.0413
 30
2.2949
 70
192
 0
VERTEX
 8
CUERPO
 10
-0.087
 20
0.0413
 30
2.298
 70
192
 0
VERTEX
 8
CUERPO
 10
-0.0915
 20
0.0413
 30
2.29
 70
192
 0
VERTEX
 8
CUERPO
 10
-0.0689
 20
0.0413
 30
2.2821
 70
192
 0
VERTEX
 8
CUERPO
 10
-0.0463
 20
0.0413
 30
2.2741
 70
192
 0
VERTEX
 8
CUERPO
 10
-0.087
 20
0.0605
 30
2.298
 70
192
 0
VERTEX
 8
CUERPO
 10
-0.0915
 20
0.0605
 30
2.29
 70
192
 0
VERTEX
 8
CUERPO
 10
-0.0689
 20
0.0605
 30
2.2821
 70
192
 0
VERTEX
 8
CUERPO
 10
-0.0463
 20
0.0605
 30
2.2741
 70
192
 0
VERTEX
 8
CUERPO
 10
-0.0881
 20
0.0605
 30
2.3188
 70
192
 0
VERTEX
 8
CUERPO
 10
-0.0842
 20
0.0605
 30
2.3108
 70
192
 0
VERTEX
 8
CUERPO
 10
-0.0616
 20
0.0605
 30
2.3028
 70
192
 0
VERTEX
 8
CUERPO
 10
-0.039
 20
0.0605
 30
2.2949
 70
192
 0
VERTEX
 8
CUERPO
 10
-0.0898
 20
0.0605
 30
2.3396
 70
192
 0
VERTEX
 8
CUERPO
 10
-0.0769
 20
0.0605
 30
2.3316
 70
192
 0
VERTEX
 8
CUERPO
 10
-0.0543
 20
0.0605
 30
2.3236
 70
192
 0
VERTEX
 8
CUERPO
 10
-0.0115
 20
0.0605
 30
2.3156
 70
192
 0
VERTEX
 8
CUERPO
 10
-0.0861
 20
0.0605
 30
2.3515
 70
192
 0
VERTEX
 8
CUERPO
 10
-0.0695
 20
0.0605
 30
2.3524
 70
192
 0
VERTEX
 8
CUERPO
 10
-0.0469
 20
0.0605
 30
2.3444
 70
192
 0
VERTEX
 8
CUERPO
 10
-0.0321
 20
0.0605
 30
2.3389
 70
192
 0
VERTEX
 8
CUERPO
 10
-0.0861
 20
-0.0592
 30
2.3515
 70
192
 0
VERTEX
 8
CUERPO
 10
-0.0695
 20
-0.0592
 30
2.3524
 70
192
 0
VERTEX
 8
CUERPO
 10
-0.0469
 20
-0.0592
 30
2.3444
 70
192
 0
VERTEX
 8
CUERPO
 10
-0.0321
 20
-0.0592
 30
2.3389
 70
192
 0
VERTEX
 8
CUERPO
 10
-0.0898
 20
-0.0592
 30
2.3396
 70
192
 0
VERTEX
 8
CUERPO
 10
-0.0769
 20
-0.0592
 30
2.3316
 70
192
 0
VERTEX
 8
CUERPO
 10
-0.0543
 20
-0.0592
 30
2.3236
 70
192
 0
VERTEX
 8
CUERPO
 10
-0.0115
 20
-0.0592
 30
2.3156
 70
192
 0
VERTEX
 8
CUERPO
 10
-0.0881
 20
-0.0592
 30
2.3188
 70
192
 0
VERTEX
 8
CUERPO
 10
-0.0842
 20
-0.0592
 30
2.3108
 70
192
 0
VERTEX
 8
CUERPO
 10
-0.0616
 20
-0.0592
 30
2.3028
 70
192
 0
VERTEX
 8
CUERPO
 10
-0.039
 20
-0.0592
 30
2.2949
 70
192
 0
VERTEX
 8
CUERPO
 10
-0.087
 20
-0.0592
 30
2.298
 70
192
 0
VERTEX
 8
CUERPO
 10
-0.0915
 20
-0.0592
 30
2.29
 70
192
 0
VERTEX
 8
CUERPO
 10
-0.0689
 20
-0.0592
 30
2.2821
 70
192
 0
VERTEX
 8
CUERPO
 10
-0.0463
 20
-0.0592
 30
2.2741
 70
192
 0
VERTEX
 8
CUERPO
 10
-0.087
 20
-0.04
 30
2.298
 70
192
 0
VERTEX
 8
CUERPO
 10
-0.0915
 20
-0.04
 30
2.29
 70
192
 0
VERTEX
 8
CUERPO
 10
-0.0689
 20
-0.04
 30
2.2821
 70
192
 0
VERTEX
 8
CUERPO
 10
-0.0463
 20
-0.04
 30
2.2741
 70
192
 0
VERTEX
 8
CUERPO
 10
-0.0881
 20
-0.04
 30
2.3188
 70
192
 0
VERTEX
 8
CUERPO
 10
-0.0842
 20
-0.04
 30
2.3108
 70
192
 0
VERTEX
 8
CUERPO
 10
-0.0616
 20
-0.04
 30
2.3028
 70
192
 0
VERTEX
 8
CUERPO
 10
-0.039
 20
-0.04
 30
2.2949
 70
192
 0
VERTEX
 8
CUERPO
 10
-0.0898
 20
-0.04
 30
2.3396
 70
192
 0
VERTEX
 8
CUERPO
 10
-0.0769
 20
-0.04
 30
2.3316
 70
192
 0
VERTEX
 8
CUERPO
 10
-0.0543
 20
-0.04
 30
2.3236
 70
192
 0
VERTEX
 8
CUERPO
 10
-0.0115
 20
-0.04
 30
2.3156
 70
192
 0
VERTEX
 8
CUERPO
 10
-0.0861
 20
-0.04
 30
2.3515
 70
192
 0
VERTEX
 8
CUERPO
 10
-0.0695
 20
-0.04
 30
2.3524
 70
192
 0
VERTEX
 8
CUERPO
 10
-0.0469
 20
-0.04
 30
2.3444
 70
192
 0
VERTEX
 8
CUERPO
 10
-0.0321
 20
-0.04
 30
2.3389
 70
192
 0
VERTEX
 8
CUERPO
 10
-0.1665
 20
-0.0005
 30
2.1784
 70
192
 0
VERTEX
 8
CUERPO
 10
-0.1665
 20
-0.0005
 30
2.1547
 70
192
 0
VERTEX
 8
CUERPO
 10
-0.1665
 20
-0.0005
 30
2.1547
 70
192
 0
VERTEX
 8
CUERPO
 10
-0.063
 20
-0.0005
 30
2.1547
 70
192
 0
VERTEX
 8
CUERPO
 10
-0.063
 20
-0.0005
 30
2.1547
 70
192
 0
VERTEX
 8
CUERPO
 10
-0.063
 20
-0.0005
 30
2.1784
 70
192
 0
VERTEX
 8
CUERPO
 10
-0.063
 20
-0.0005
 30
2.1784
 70
192
 0
VERTEX
 8
CUERPO
 10
-0.1665
 20
-0.0005
 30
2.1784
 70
192
 0
VERTEX
 8
CUERPO
 10
-0.1665
 20
0.003
 30
2.1787
 70
192
 0
VERTEX
 8
CUERPO
 10
-0.1665
 20
0.0071
 30
2.1554
 70
192
 0
VERTEX
 8
CUERPO
 10
-0.1665
 20
0.0071
 30
2.1554
 70
192
 0
VERTEX
 8
CUERPO
 10
-0.063
 20
0.0071
 30
2.1554
 70
192
 0
VERTEX
 8
CUERPO
 10
-0.063
 20
0.0071
 30
2.1554
 70
192
 0
VERTEX
 8
CUERPO
 10
-0.063
 20
0.003
 30
2.1787
 70
192
 0
VERTEX
 8
CUERPO
 10
-0.063
 20
0.003
 30
2.1787
 70
192
 0
VERTEX
 8
CUERPO
 10
-0.1665
 20
0.003
 30
2.1787
 70
192
 0
VERTEX
 8
CUERPO
 10
-0.1665
 20
0.0064
 30
2.1796
 70
192
 0
VERTEX
 8
CUERPO
 10
-0.1665
 20
0.0145
 30
2.1574
 70
192
 0
VERTEX
 8
CUERPO
 10
-0.1665
 20
0.0145
 30
2.1574
 70
192
 0
VERTEX
 8
CUERPO
 10
-0.063
 20
0.0145
 30
2.1574
 70
192
 0
VERTEX
 8
CUERPO
 10
-0.063
 20
0.0145
 30
2.1574
 70
192
 0
VERTEX
 8
CUERPO
 10
-0.063
 20
0.0064
 30
2.1796
 70
192
 0
VERTEX
 8
CUERPO
 10
-0.063
 20
0.0064
 30
2.1796
 70
192
 0
VERTEX
 8
CUERPO
 10
-0.1665
 20
0.0064
 30
2.1796
 70
192
 0
VERTEX
 8
CUERPO
 10
-0.1665
 20
0.0096
 30
2.1811
 70
192
 0
VERTEX
 8
CUERPO
 10
-0.1665
 20
0.0214
 30
2.1606
 70
192
 0
VERTEX
 8
CUERPO
 10
-0.1665
 20
0.0214
 30
2.1606
 70
192
 0
VERTEX
 8
CUERPO
 10
-0.063
 20
0.0214
 30
2.1606
 70
192
 0
VERTEX
 8
CUERPO
 10
-0.063
 20
0.0214
 30
2.1606
 70
192
 0
VERTEX
 8
CUERPO
 10
-0.063
 20
0.0096
 30
2.1811
 70
192
 0
VERTEX
 8
CUERPO
 10
-0.063
 20
0.0096
 30
2.1811
 70
192
 0
VERTEX
 8
CUERPO
 10
-0.1665
 20
0.0096
 30
2.1811
 70
192
 0
VERTEX
 8
CUERPO
 10
-0.1665
 20
0.0124
 30
2.1831
 70
192
 0
VERTEX
 8
CUERPO
 10
-0.1665
 20
0.0277
 30
2.165
 70
192
 0
VERTEX
 8
CUERPO
 10
-0.1665
 20
0.0277
 30
2.165
 70
192
 0
VERTEX
 8
CUERPO
 10
-0.063
 20
0.0277
 30
2.165
 70
192
 0
VERTEX
 8
CUERPO
 10
-0.063
 20
0.0277
 30
2.165
 70
192
 0
VERTEX
 8
CUERPO
 10
-0.063
 20
0.0124
 30
2.1831
 70
192
 0
VERTEX
 8
CUERPO
 10
-0.063
 20
0.0124
 30
2.1831
 70
192
 0
VERTEX
 8
CUERPO
 10
-0.1665
 20
0.0124
 30
2.1831
 70
192
 0
VERTEX
 8
CUERPO
 10
-0.1665
 20
0.0149
 30
2.1856
 70
192
 0
VERTEX
 8
CUERPO
 10
-0.1665
 20
0.033
 30
2.1704
 70
192
 0
VERTEX
 8
CUERPO
 10
-0.1665
 20
0.033
 30
2.1704
 70
192
 0
VERTEX
 8
CUERPO
 10
-0.063
 20
0.033
 30
2.1704
 70
192
 0
VERTEX
 8
CUERPO
 10
-0.063
 20
0.033
 30
2.1704
 70
192
 0
VERTEX
 8
CUERPO
 10
-0.063
 20
0.0149
 30
2.1856
 70
192
 0
VERTEX
 8
CUERPO
 10
-0.063
 20
0.0149
 30
2.1856
 70
192
 0
VERTEX
 8
CUERPO
 10
-0.1665
 20
0.0149
 30
2.1856
 70
192
 0
VERTEX
 8
CUERPO
 10
-0.1665
 20
0.0169
 30
2.1885
 70
192
 0
VERTEX
 8
CUERPO
 10
-0.1665
 20
0.0374
 30
2.1766
 70
192
 0
VERTEX
 8
CUERPO
 10
-0.1665
 20
0.0374
 30
2.1766
 70
192
 0
VERTEX
 8
CUERPO
 10
-0.063
 20
0.0374
 30
2.1766
 70
192
 0
VERTEX
 8
CUERPO
 10
-0.063
 20
0.0374
 30
2.1766
 70
192
 0
VERTEX
 8
CUERPO
 10
-0.063
 20
0.0169
 30
2.1885
 70
192
 0
VERTEX
 8
CUERPO
 10
-0.063
 20
0.0169
 30
2.1885
 70
192
 0
VERTEX
 8
CUERPO
 10
-0.1665
 20
0.0169
 30
2.1885
 70
192
 0
VERTEX
 8
CUERPO
 10
-0.1665
 20
0.0184
 30
2.1917
 70
192
 0
VERTEX
 8
CUERPO
 10
-0.1665
 20
0.0407
 30
2.1836
 70
192
 0
VERTEX
 8
CUERPO
 10
-0.1665
 20
0.0407
 30
2.1836
 70
192
 0
VERTEX
 8
CUERPO
 10
-0.063
 20
0.0407
 30
2.1836
 70
192
 0
VERTEX
 8
CUERPO
 10
-0.063
 20
0.0407
 30
2.1836
 70
192
 0
VERTEX
 8
CUERPO
 10
-0.063
 20
0.0184
 30
2.1917
 70
192
 0
VERTEX
 8
CUERPO
 10
-0.063
 20
0.0184
 30
2.1917
 70
192
 0
VERTEX
 8
CUERPO
 10
-0.1665
 20
0.0184
 30
2.1917
 70
192
 0
VERTEX
 8
CUERPO
 10
-0.1665
 20
0.0193
 30
2.195
 70
192
 0
VERTEX
 8
CUERPO
 10
-0.1665
 20
0.0426
 30
2.1909
 70
192
 0
VERTEX
 8
CUERPO
 10
-0.1665
 20
0.0426
 30
2.1909
 70
192
 0
VERTEX
 8
CUERPO
 10
-0.063
 20
0.0426
 30
2.1909
 70
192
 0
VERTEX
 8
CUERPO
 10
-0.063
 20
0.0426
 30
2.1909
 70
192
 0
VERTEX
 8
CUERPO
 10
-0.063
 20
0.0193
 30
2.195
 70
192
 0
VERTEX
 8
CUERPO
 10
-0.063
 20
0.0193
 30
2.195
 70
192
 0
VERTEX
 8
CUERPO
 10
-0.1665
 20
0.0193
 30
2.195
 70
192
 0
VERTEX
 8
CUERPO
 10
-0.1665
 20
0.0196
 30
2.1985
 70
192
 0
VERTEX
 8
CUERPO
 10
-0.1665
 20
0.0433
 30
2.1985
 70
192
 0
VERTEX
 8
CUERPO
 10
-0.1665
 20
0.0433
 30
2.1985
 70
192
 0
VERTEX
 8
CUERPO
 10
-0.063
 20
0.0433
 30
2.1985
 70
192
 0
VERTEX
 8
CUERPO
 10
-0.063
 20
0.0433
 30
2.1985
 70
192
 0
VERTEX
 8
CUERPO
 10
-0.063
 20
0.0196
 30
2.1985
 70
192
 0
VERTEX
 8
CUERPO
 10
-0.063
 20
0.0196
 30
2.1985
 70
192
 0
VERTEX
 8
CUERPO
 10
-0.1665
 20
0.0196
 30
2.1985
 70
192
 0
VERTEX
 8
CUERPO
 10
-0.1665
 20
0.0193
 30
2.202
 70
192
 0
VERTEX
 8
CUERPO
 10
-0.1665
 20
0.0426
 30
2.2061
 70
192
 0
VERTEX
 8
CUERPO
 10
-0.1665
 20
0.0426
 30
2.2061
 70
192
 0
VERTEX
 8
CUERPO
 10
-0.063
 20
0.0426
 30
2.2061
 70
192
 0
VERTEX
 8
CUERPO
 10
-0.063
 20
0.0426
 30
2.2061
 70
192
 0
VERTEX
 8
CUERPO
 10
-0.063
 20
0.0193
 30
2.202
 70
192
 0
VERTEX
 8
CUERPO
 10
-0.063
 20
0.0193
 30
2.202
 70
192
 0
VERTEX
 8
CUERPO
 10
-0.1665
 20
0.0193
 30
2.202
 70
192
 0
VERTEX
 8
CUERPO
 10
-0.1665
 20
0.0184
 30
2.2054
 70
192
 0
VERTEX
 8
CUERPO
 10
-0.1665
 20
0.0407
 30
2.2135
 70
192
 0
VERTEX
 8
CUERPO
 10
-0.1665
 20
0.0407
 30
2.2135
 70
192
 0
VERTEX
 8
CUERPO
 10
-0.063
 20
0.0407
 30
2.2135
 70
192
 0
VERTEX
 8
CUERPO
 10
-0.063
 20
0.0407
 30
2.2135
 70
192
 0
VERTEX
 8
CUERPO
 10
-0.063
 20
0.0184
 30
2.2054
 70
192
 0
VERTEX
 8
CUERPO
 10
-0.063
 20
0.0184
 30
2.2054
 70
192
 0
VERTEX
 8
CUERPO
 10
-0.1665
 20
0.0184
 30
2.2054
 70
192
 0
VERTEX
 8
CUERPO
 10
-0.1665
 20
0.0169
 30
2.2086
 70
192
 0
VERTEX
 8
CUERPO
 10
-0.1665
 20
0.0374
 30
2.2204
 70
192
 0
VERTEX
 8
CUERPO
 10
-0.1665
 20
0.0374
 30
2.2204
 70
192
 0
VERTEX
 8
CUERPO
 10
-0.063
 20
0.0374
 30
2.2204
 70
192
 0
VERTEX
 8
CUERPO
 10
-0.063
 20
0.0374
 30
2.2204
 70
192
 0
VERTEX
 8
CUERPO
 10
-0.063
 20
0.0169
 30
2.2086
 70
192
 0
VERTEX
 8
CUERPO
 10
-0.063
 20
0.0169
 30
2.2086
 70
192
 0
VERTEX
 8
CUERPO
 10
-0.1665
 20
0.0169
 30
2.2086
 70
192
 0
VERTEX
 8
CUERPO
 10
-0.1665
 20
0.0149
 30
2.2114
 70
192
 0
VERTEX
 8
CUERPO
 10
-0.1665
 20
0.033
 30
2.2267
 70
192
 0
VERTEX
 8
CUERPO
 10
-0.1665
 20
0.033
 30
2.2267
 70
192
 0
VERTEX
 8
CUERPO
 10
-0.063
 20
0.033
 30
2.2267
 70
192
 0
VERTEX
 8
CUERPO
 10
-0.063
 20
0.033
 30
2.2267
 70
192
 0
VERTEX
 8
CUERPO
 10
-0.063
 20
0.0149
 30
2.2114
 70
192
 0
VERTEX
 8
CUERPO
 10
-0.063
 20
0.0149
 30
2.2114
 70
192
 0
VERTEX
 8
CUERPO
 10
-0.1665
 20
0.0149
 30
2.2114
 70
192
 0
VERTEX
 8
CUERPO
 10
-0.1665
 20
0.0124
 30
2.2139
 70
192
 0
VERTEX
 8
CUERPO
 10
-0.1665
 20
0.0277
 30
2.2321
 70
192
 0
VERTEX
 8
CUERPO
 10
-0.1665
 20
0.0277
 30
2.2321
 70
192
 0
VERTEX
 8
CUERPO
 10
-0.063
 20
0.0277
 30
2.2321
 70
192
 0
VERTEX
 8
CUERPO
 10
-0.063
 20
0.0277
 30
2.2321
 70
192
 0
VERTEX
 8
CUERPO
 10
-0.063
 20
0.0124
 30
2.2139
 70
192
 0
VERTEX
 8
CUERPO
 10
-0.063
 20
0.0124
 30
2.2139
 70
192
 0
VERTEX
 8
CUERPO
 10
-0.1665
 20
0.0124
 30
2.2139
 70
192
 0
VERTEX
 8
CUERPO
 10
-0.1665
 20
0.0096
 30
2.2159
 70
192
 0
VERTEX
 8
CUERPO
 10
-0.1665
 20
0.0214
 30
2.2364
 70
192
 0
VERTEX
 8
CUERPO
 10
-0.1665
 20
0.0214
 30
2.2364
 70
192
 0
VERTEX
 8
CUERPO
 10
-0.063
 20
0.0214
 30
2.2364
 70
192
 0
VERTEX
 8
CUERPO
 10
-0.063
 20
0.0214
 30
2.2364
 70
192
 0
VERTEX
 8
CUERPO
 10
-0.063
 20
0.0096
 30
2.2159
 70
192
 0
VERTEX
 8
CUERPO
 10
-0.063
 20
0.0096
 30
2.2159
 70
192
 0
VERTEX
 8
CUERPO
 10
-0.1665
 20
0.0096
 30
2.2159
 70
192
 0
VERTEX
 8
CUERPO
 10
-0.1665
 20
0.0064
 30
2.2174
 70
192
 0
VERTEX
 8
CUERPO
 10
-0.1665
 20
0.0145
 30
2.2397
 70
192
 0
VERTEX
 8
CUERPO
 10
-0.1665
 20
0.0145
 30
2.2397
 70
192
 0
VERTEX
 8
CUERPO
 10
-0.063
 20
0.0145
 30
2.2397
 70
192
 0
VERTEX
 8
CUERPO
 10
-0.063
 20
0.0145
 30
2.2397
 70
192
 0
VERTEX
 8
CUERPO
 10
-0.063
 20
0.0064
 30
2.2174
 70
192
 0
VERTEX
 8
CUERPO
 10
-0.063
 20
0.0064
 30
2.2174
 70
192
 0
VERTEX
 8
CUERPO
 10
-0.1665
 20
0.0064
 30
2.2174
 70
192
 0
VERTEX
 8
CUERPO
 10
-0.1665
 20
0.003
 30
2.2183
 70
192
 0
VERTEX
 8
CUERPO
 10
-0.1665
 20
0.0071
 30
2.2416
 70
192
 0
VERTEX
 8
CUERPO
 10
-0.1665
 20
0.0071
 30
2.2416
 70
192
 0
VERTEX
 8
CUERPO
 10
-0.063
 20
0.0071
 30
2.2416
 70
192
 0
VERTEX
 8
CUERPO
 10
-0.063
 20
0.0071
 30
2.2416
 70
192
 0
VERTEX
 8
CUERPO
 10
-0.063
 20
0.003
 30
2.2183
 70
192
 0
VERTEX
 8
CUERPO
 10
-0.063
 20
0.003
 30
2.2183
 70
192
 0
VERTEX
 8
CUERPO
 10
-0.1665
 20
0.003
 30
2.2183
 70
192
 0
VERTEX
 8
CUERPO
 10
-0.1665
 20
-0.0005
 30
2.2186
 70
192
 0
VERTEX
 8
CUERPO
 10
-0.1665
 20
-0.0005
 30
2.2423
 70
192
 0
VERTEX
 8
CUERPO
 10
-0.1665
 20
-0.0005
 30
2.2423
 70
192
 0
VERTEX
 8
CUERPO
 10
-0.063
 20
-0.0005
 30
2.2423
 70
192
 0
VERTEX
 8
CUERPO
 10
-0.063
 20
-0.0005
 30
2.2423
 70
192
 0
VERTEX
 8
CUERPO
 10
-0.063
 20
-0.0005
 30
2.2186
 70
192
 0
VERTEX
 8
CUERPO
 10
-0.063
 20
-0.0005
 30
2.2186
 70
192
 0
VERTEX
 8
CUERPO
 10
-0.1665
 20
-0.0005
 30
2.2186
 70
192
 0
VERTEX
 8
CUERPO
 10
-0.1665
 20
-0.004
 30
2.2183
 70
192
 0
VERTEX
 8
CUERPO
 10
-0.1665
 20
-0.0081
 30
2.2416
 70
192
 0
VERTEX
 8
CUERPO
 10
-0.1665
 20
-0.0081
 30
2.2416
 70
192
 0
VERTEX
 8
CUERPO
 10
-0.063
 20
-0.0081
 30
2.2416
 70
192
 0
VERTEX
 8
CUERPO
 10
-0.063
 20
-0.0081
 30
2.2416
 70
192
 0
VERTEX
 8
CUERPO
 10
-0.063
 20
-0.004
 30
2.2183
 70
192
 0
VERTEX
 8
CUERPO
 10
-0.063
 20
-0.004
 30
2.2183
 70
192
 0
VERTEX
 8
CUERPO
 10
-0.1665
 20
-0.004
 30
2.2183
 70
192
 0
VERTEX
 8
CUERPO
 10
-0.1665
 20
-0.0074
 30
2.2174
 70
192
 0
VERTEX
 8
CUERPO
 10
-0.1665
 20
-0.0155
 30
2.2397
 70
192
 0
VERTEX
 8
CUERPO
 10
-0.1665
 20
-0.0155
 30
2.2397
 70
192
 0
VERTEX
 8
CUERPO
 10
-0.063
 20
-0.0155
 30
2.2397
 70
192
 0
VERTEX
 8
CUERPO
 10
-0.063
 20
-0.0155
 30
2.2397
 70
192
 0
VERTEX
 8
CUERPO
 10
-0.063
 20
-0.0074
 30
2.2174
 70
192
 0
VERTEX
 8
CUERPO
 10
-0.063
 20
-0.0074
 30
2.2174
 70
192
 0
VERTEX
 8
CUERPO
 10
-0.1665
 20
-0.0074
 30
2.2174
 70
192
 0
VERTEX
 8
CUERPO
 10
-0.1665
 20
-0.0105
 30
2.2159
 70
192
 0
VERTEX
 8
CUERPO
 10
-0.1665
 20
-0.0224
 30
2.2364
 70
192
 0
VERTEX
 8
CUERPO
 10
-0.1665
 20
-0.0224
 30
2.2364
 70
192
 0
VERTEX
 8
CUERPO
 10
-0.063
 20
-0.0224
 30
2.2364
 70
192
 0
VERTEX
 8
CUERPO
 10
-0.063
 20
-0.0224
 30
2.2364
 70
192
 0
VERTEX
 8
CUERPO
 10
-0.063
 20
-0.0105
 30
2.2159
 70
192
 0
VERTEX
 8
CUERPO
 10
-0.063
 20
-0.0105
 30
2.2159
 70
192
 0
VERTEX
 8
CUERPO
 10
-0.1665
 20
-0.0105
 30
2.2159
 70
192
 0
VERTEX
 8
CUERPO
 10
-0.1665
 20
-0.0134
 30
2.2139
 70
192
 0
VERTEX
 8
CUERPO
 10
-0.1665
 20
-0.0286
 30
2.2321
 70
192
 0
VERTEX
 8
CUERPO
 10
-0.1665
 20
-0.0286
 30
2.2321
 70
192
 0
VERTEX
 8
CUERPO
 10
-0.063
 20
-0.0286
 30
2.2321
 70
192
 0
VERTEX
 8
CUERPO
 10
-0.063
 20
-0.0286
 30
2.2321
 70
192
 0
VERTEX
 8
CUERPO
 10
-0.063
 20
-0.0134
 30
2.2139
 70
192
 0
VERTEX
 8
CUERPO
 10
-0.063
 20
-0.0134
 30
2.2139
 70
192
 0
VERTEX
 8
CUERPO
 10
-0.1665
 20
-0.0134
 30
2.2139
 70
192
 0
VERTEX
 8
CUERPO
 10
-0.1665
 20
-0.0159
 30
2.2114
 70
192
 0
VERTEX
 8
CUERPO
 10
-0.1665
 20
-0.034
 30
2.2267
 70
192
 0
VERTEX
 8
CUERPO
 10
-0.1665
 20
-0.034
 30
2.2267
 70
192
 0
VERTEX
 8
CUERPO
 10
-0.063
 20
-0.034
 30
2.2267
 70
192
 0
VERTEX
 8
CUERPO
 10
-0.063
 20
-0.034
 30
2.2267
 70
192
 0
VERTEX
 8
CUERPO
 10
-0.063
 20
-0.0159
 30
2.2114
 70
192
 0
VERTEX
 8
CUERPO
 10
-0.063
 20
-0.0159
 30
2.2114
 70
192
 0
VERTEX
 8
CUERPO
 10
-0.1665
 20
-0.0159
 30
2.2114
 70
192
 0
VERTEX
 8
CUERPO
 10
-0.1665
 20
-0.0179
 30
2.2086
 70
192
 0
VERTEX
 8
CUERPO
 10
-0.1665
 20
-0.0384
 30
2.2204
 70
192
 0
VERTEX
 8
CUERPO
 10
-0.1665
 20
-0.0384
 30
2.2204
 70
192
 0
VERTEX
 8
CUERPO
 10
-0.063
 20
-0.0384
 30
2.2204
 70
192
 0
VERTEX
 8
CUERPO
 10
-0.063
 20
-0.0384
 30
2.2204
 70
192
 0
VERTEX
 8
CUERPO
 10
-0.063
 20
-0.0179
 30
2.2086
 70
192
 0
VERTEX
 8
CUERPO
 10
-0.063
 20
-0.0179
 30
2.2086
 70
192
 0
VERTEX
 8
CUERPO
 10
-0.1665
 20
-0.0179
 30
2.2086
 70
192
 0
VERTEX
 8
CUERPO
 10
-0.1665
 20
-0.0194
 30
2.2054
 70
192
 0
VERTEX
 8
CUERPO
 10
-0.1665
 20
-0.0416
 30
2.2135
 70
192
 0
VERTEX
 8
CUERPO
 10
-0.1665
 20
-0.0416
 30
2.2135
 70
192
 0
VERTEX
 8
CUERPO
 10
-0.063
 20
-0.0416
 30
2.2135
 70
192
 0
VERTEX
 8
CUERPO
 10
-0.063
 20
-0.0416
 30
2.2135
 70
192
 0
VERTEX
 8
CUERPO
 10
-0.063
 20
-0.0194
 30
2.2054
 70
192
 0
VERTEX
 8
CUERPO
 10
-0.063
 20
-0.0194
 30
2.2054
 70
192
 0
VERTEX
 8
CUERPO
 10
-0.1665
 20
-0.0194
 30
2.2054
 70
192
 0
VERTEX
 8
CUERPO
 10
-0.1665
 20
-0.0203
 30
2.202
 70
192
 0
VERTEX
 8
CUERPO
 10
-0.1665
 20
-0.0436
 30
2.2061
 70
192
 0
VERTEX
 8
CUERPO
 10
-0.1665
 20
-0.0436
 30
2.2061
 70
192
 0
VERTEX
 8
CUERPO
 10
-0.063
 20
-0.0436
 30
2.2061
 70
192
 0
VERTEX
 8
CUERPO
 10
-0.063
 20
-0.0436
 30
2.2061
 70
192
 0
VERTEX
 8
CUERPO
 10
-0.063
 20
-0.0203
 30
2.202
 70
192
 0
VERTEX
 8
CUERPO
 10
-0.063
 20
-0.0203
 30
2.202
 70
192
 0
VERTEX
 8
CUERPO
 10
-0.1665
 20
-0.0203
 30
2.202
 70
192
 0
VERTEX
 8
CUERPO
 10
-0.1665
 20
-0.0206
 30
2.1985
 70
192
 0
VERTEX
 8
CUERPO
 10
-0.1665
 20
-0.0443
 30
2.1985
 70
192
 0
VERTEX
 8
CUERPO
 10
-0.1665
 20
-0.0443
 30
2.1985
 70
192
 0
VERTEX
 8
CUERPO
 10
-0.063
 20
-0.0443
 30
2.1985
 70
192
 0
VERTEX
 8
CUERPO
 10
-0.063
 20
-0.0443
 30
2.1985
 70
192
 0
VERTEX
 8
CUERPO
 10
-0.063
 20
-0.0206
 30
2.1985
 70
192
 0
VERTEX
 8
CUERPO
 10
-0.063
 20
-0.0206
 30
2.1985
 70
192
 0
VERTEX
 8
CUERPO
 10
-0.1665
 20
-0.0206
 30
2.1985
 70
192
 0
VERTEX
 8
CUERPO
 10
-0.1665
 20
-0.0203
 30
2.195
 70
192
 0
VERTEX
 8
CUERPO
 10
-0.1665
 20
-0.0436
 30
2.1909
 70
192
 0
VERTEX
 8
CUERPO
 10
-0.1665
 20
-0.0436
 30
2.1909
 70
192
 0
VERTEX
 8
CUERPO
 10
-0.063
 20
-0.0436
 30
2.1909
 70
192
 0
VERTEX
 8
CUERPO
 10
-0.063
 20
-0.0436
 30
2.1909
 70
192
 0
VERTEX
 8
CUERPO
 10
-0.063
 20
-0.0203
 30
2.195
 70
192
 0
VERTEX
 8
CUERPO
 10
-0.063
 20
-0.0203
 30
2.195
 70
192
 0
VERTEX
 8
CUERPO
 10
-0.1665
 20
-0.0203
 30
2.195
 70
192
 0
VERTEX
 8
CUERPO
 10
-0.1665
 20
-0.0194
 30
2.1917
 70
192
 0
VERTEX
 8
CUERPO
 10
-0.1665
 20
-0.0416
 30
2.1836
 70
192
 0
VERTEX
 8
CUERPO
 10
-0.1665
 20
-0.0416
 30
2.1836
 70
192
 0
VERTEX
 8
CUERPO
 10
-0.063
 20
-0.0416
 30
2.1836
 70
192
 0
VERTEX
 8
CUERPO
 10
-0.063
 20
-0.0416
 30
2.1836
 70
192
 0
VERTEX
 8
CUERPO
 10
-0.063
 20
-0.0194
 30
2.1917
 70
192
 0
VERTEX
 8
CUERPO
 10
-0.063
 20
-0.0194
 30
2.1917
 70
192
 0
VERTEX
 8
CUERPO
 10
-0.1665
 20
-0.0194
 30
2.1917
 70
192
 0
VERTEX
 8
CUERPO
 10
-0.1665
 20
-0.0179
 30
2.1885
 70
192
 0
VERTEX
 8
CUERPO
 10
-0.1665
 20
-0.0384
 30
2.1766
 70
192
 0
VERTEX
 8
CUERPO
 10
-0.1665
 20
-0.0384
 30
2.1766
 70
192
 0
VERTEX
 8
CUERPO
 10
-0.063
 20
-0.0384
 30
2.1766
 70
192
 0
VERTEX
 8
CUERPO
 10
-0.063
 20
-0.0384
 30
2.1766
 70
192
 0
VERTEX
 8
CUERPO
 10
-0.063
 20
-0.0179
 30
2.1885
 70
192
 0
VERTEX
 8
CUERPO
 10
-0.063
 20
-0.0179
 30
2.1885
 70
192
 0
VERTEX
 8
CUERPO
 10
-0.1665
 20
-0.0179
 30
2.1885
 70
192
 0
VERTEX
 8
CUERPO
 10
-0.1665
 20
-0.0159
 30
2.1856
 70
192
 0
VERTEX
 8
CUERPO
 10
-0.1665
 20
-0.034
 30
2.1704
 70
192
 0
VERTEX
 8
CUERPO
 10
-0.1665
 20
-0.034
 30
2.1704
 70
192
 0
VERTEX
 8
CUERPO
 10
-0.063
 20
-0.034
 30
2.1704
 70
192
 0
VERTEX
 8
CUERPO
 10
-0.063
 20
-0.034
 30
2.1704
 70
192
 0
VERTEX
 8
CUERPO
 10
-0.063
 20
-0.0159
 30
2.1856
 70
192
 0
VERTEX
 8
CUERPO
 10
-0.063
 20
-0.0159
 30
2.1856
 70
192
 0
VERTEX
 8
CUERPO
 10
-0.1665
 20
-0.0159
 30
2.1856
 70
192
 0
VERTEX
 8
CUERPO
 10
-0.1665
 20
-0.0134
 30
2.1831
 70
192
 0
VERTEX
 8
CUERPO
 10
-0.1665
 20
-0.0286
 30
2.165
 70
192
 0
VERTEX
 8
CUERPO
 10
-0.1665
 20
-0.0286
 30
2.165
 70
192
 0
VERTEX
 8
CUERPO
 10
-0.063
 20
-0.0286
 30
2.165
 70
192
 0
VERTEX
 8
CUERPO
 10
-0.063
 20
-0.0286
 30
2.165
 70
192
 0
VERTEX
 8
CUERPO
 10
-0.063
 20
-0.0134
 30
2.1831
 70
192
 0
VERTEX
 8
CUERPO
 10
-0.063
 20
-0.0134
 30
2.1831
 70
192
 0
VERTEX
 8
CUERPO
 10
-0.1665
 20
-0.0134
 30
2.1831
 70
192
 0
VERTEX
 8
CUERPO
 10
-0.1665
 20
-0.0105
 30
2.1811
 70
192
 0
VERTEX
 8
CUERPO
 10
-0.1665
 20
-0.0224
 30
2.1606
 70
192
 0
VERTEX
 8
CUERPO
 10
-0.1665
 20
-0.0224
 30
2.1606
 70
192
 0
VERTEX
 8
CUERPO
 10
-0.063
 20
-0.0224
 30
2.1606
 70
192
 0
VERTEX
 8
CUERPO
 10
-0.063
 20
-0.0224
 30
2.1606
 70
192
 0
VERTEX
 8
CUERPO
 10
-0.063
 20
-0.0105
 30
2.1811
 70
192
 0
VERTEX
 8
CUERPO
 10
-0.063
 20
-0.0105
 30
2.1811
 70
192
 0
VERTEX
 8
CUERPO
 10
-0.1665
 20
-0.0105
 30
2.1811
 70
192
 0
VERTEX
 8
CUERPO
 10
-0.1665
 20
-0.0074
 30
2.1796
 70
192
 0
VERTEX
 8
CUERPO
 10
-0.1665
 20
-0.0155
 30
2.1574
 70
192
 0
VERTEX
 8
CUERPO
 10
-0.1665
 20
-0.0155
 30
2.1574
 70
192
 0
VERTEX
 8
CUERPO
 10
-0.063
 20
-0.0155
 30
2.1574
 70
192
 0
VERTEX
 8
CUERPO
 10
-0.063
 20
-0.0155
 30
2.1574
 70
192
 0
VERTEX
 8
CUERPO
 10
-0.063
 20
-0.0074
 30
2.1796
 70
192
 0
VERTEX
 8
CUERPO
 10
-0.063
 20
-0.0074
 30
2.1796
 70
192
 0
VERTEX
 8
CUERPO
 10
-0.1665
 20
-0.0074
 30
2.1796
 70
192
 0
VERTEX
 8
CUERPO
 10
-0.1665
 20
-0.004
 30
2.1787
 70
192
 0
VERTEX
 8
CUERPO
 10
-0.1665
 20
-0.0081
 30
2.1554
 70
192
 0
VERTEX
 8
CUERPO
 10
-0.1665
 20
-0.0081
 30
2.1554
 70
192
 0
VERTEX
 8
CUERPO
 10
-0.063
 20
-0.0081
 30
2.1554
 70
192
 0
VERTEX
 8
CUERPO
 10
-0.063
 20
-0.0081
 30
2.1554
 70
192
 0
VERTEX
 8
CUERPO
 10
-0.063
 20
-0.004
 30
2.1787
 70
192
 0
VERTEX
 8
CUERPO
 10
-0.063
 20
-0.004
 30
2.1787
 70
192
 0
VERTEX
 8
CUERPO
 10
-0.1665
 20
-0.004
 30
2.1787
 70
192
 0
VERTEX
 8
CUERPO
 10
-0.2417
 20
-0.0005
 30
2.1784
 70
192
 0
VERTEX
 8
CUERPO
 10
-0.2417
 20
-0.0005
 30
2.1709
 70
192
 0
VERTEX
 8
CUERPO
 10
-0.2417
 20
-0.0005
 30
2.1709
 70
192
 0
VERTEX
 8
CUERPO
 10
-0.0473
 20
-0.0005
 30
2.1709
 70
192
 0
VERTEX
 8
CUERPO
 10
-0.0473
 20
-0.0005
 30
2.1709
 70
192
 0
VERTEX
 8
CUERPO
 10
-0.0473
 20
-0.0005
 30
2.1784
 70
192
 0
VERTEX
 8
CUERPO
 10
-0.0473
 20
-0.0005
 30
2.1784
 70
192
 0
VERTEX
 8
CUERPO
 10
-0.2417
 20
-0.0005
 30
2.1784
 70
192
 0
VERTEX
 8
CUERPO
 10
-0.2417
 20
0.003
 30
2.1787
 70
192
 0
VERTEX
 8
CUERPO
 10
-0.2417
 20
0.0043
 30
2.1713
 70
192
 0
VERTEX
 8
CUERPO
 10
-0.2417
 20
0.0043
 30
2.1713
 70
192
 0
VERTEX
 8
CUERPO
 10
-0.0473
 20
0.0043
 30
2.1713
 70
192
 0
VERTEX
 8
CUERPO
 10
-0.0473
 20
0.0043
 30
2.1713
 70
192
 0
VERTEX
 8
CUERPO
 10
-0.0473
 20
0.003
 30
2.1787
 70
192
 0
VERTEX
 8
CUERPO
 10
-0.0473
 20
0.003
 30
2.1787
 70
192
 0
VERTEX
 8
CUERPO
 10
-0.2417
 20
0.003
 30
2.1787
 70
192
 0
VERTEX
 8
CUERPO
 10
-0.2417
 20
0.0064
 30
2.1796
 70
192
 0
VERTEX
 8
CUERPO
 10
-0.2417
 20
0.009
 30
2.1726
 70
192
 0
VERTEX
 8
CUERPO
 10
-0.2417
 20
0.009
 30
2.1726
 70
192
 0
VERTEX
 8
CUERPO
 10
-0.0473
 20
0.009
 30
2.1726
 70
192
 0
VERTEX
 8
CUERPO
 10
-0.0473
 20
0.009
 30
2.1726
 70
192
 0
VERTEX
 8
CUERPO
 10
-0.0473
 20
0.0064
 30
2.1796
 70
192
 0
VERTEX
 8
CUERPO
 10
-0.0473
 20
0.0064
 30
2.1796
 70
192
 0
VERTEX
 8
CUERPO
 10
-0.2417
 20
0.0064
 30
2.1796
 70
192
 0
VERTEX
 8
CUERPO
 10
-0.2417
 20
0.0096
 30
2.1811
 70
192
 0
VERTEX
 8
CUERPO
 10
-0.2417
 20
0.0133
 30
2.1746
 70
192
 0
VERTEX
 8
CUERPO
 10
-0.2417
 20
0.0133
 30
2.1746
 70
192
 0
VERTEX
 8
CUERPO
 10
-0.0473
 20
0.0133
 30
2.1746
 70
192
 0
VERTEX
 8
CUERPO
 10
-0.0473
 20
0.0133
 30
2.1746
 70
192
 0
VERTEX
 8
CUERPO
 10
-0.0473
 20
0.0096
 30
2.1811
 70
192
 0
VERTEX
 8
CUERPO
 10
-0.0473
 20
0.0096
 30
2.1811
 70
192
 0
VERTEX
 8
CUERPO
 10
-0.2417
 20
0.0096
 30
2.1811
 70
192
 0
VERTEX
 8
CUERPO
 10
-0.2417
 20
0.0124
 30
2.1831
 70
192
 0
VERTEX
 8
CUERPO
 10
-0.2417
 20
0.0173
 30
2.1774
 70
192
 0
VERTEX
 8
CUERPO
 10
-0.2417
 20
0.0173
 30
2.1774
 70
192
 0
VERTEX
 8
CUERPO
 10
-0.0473
 20
0.0173
 30
2.1774
 70
192
 0
VERTEX
 8
CUERPO
 10
-0.0473
 20
0.0173
 30
2.1774
 70
192
 0
VERTEX
 8
CUERPO
 10
-0.0473
 20
0.0124
 30
2.1831
 70
192
 0
VERTEX
 8
CUERPO
 10
-0.0473
 20
0.0124
 30
2.1831
 70
192
 0
VERTEX
 8
CUERPO
 10
-0.2417
 20
0.0124
 30
2.1831
 70
192
 0
VERTEX
 8
CUERPO
 10
-0.2417
 20
0.0149
 30
2.1856
 70
192
 0
VERTEX
 8
CUERPO
 10
-0.2417
 20
0.0207
 30
2.1808
 70
192
 0
VERTEX
 8
CUERPO
 10
-0.2417
 20
0.0207
 30
2.1808
 70
192
 0
VERTEX
 8
CUERPO
 10
-0.0473
 20
0.0207
 30
2.1808
 70
192
 0
VERTEX
 8
CUERPO
 10
-0.0473
 20
0.0207
 30
2.1808
 70
192
 0
VERTEX
 8
CUERPO
 10
-0.0473
 20
0.0149
 30
2.1856
 70
192
 0
VERTEX
 8
CUERPO
 10
-0.0473
 20
0.0149
 30
2.1856
 70
192
 0
VERTEX
 8
CUERPO
 10
-0.2417
 20
0.0149
 30
2.1856
 70
192
 0
VERTEX
 8
CUERPO
 10
-0.2417
 20
0.0169
 30
2.1885
 70
192
 0
VERTEX
 8
CUERPO
 10
-0.2417
 20
0.0234
 30
2.1847
 70
192
 0
VERTEX
 8
CUERPO
 10
-0.2417
 20
0.0234
 30
2.1847
 70
192
 0
VERTEX
 8
CUERPO
 10
-0.0473
 20
0.0234
 30
2.1847
 70
192
 0
VERTEX
 8
CUERPO
 10
-0.0473
 20
0.0234
 30
2.1847
 70
192
 0
VERTEX
 8
CUERPO
 10
-0.0473
 20
0.0169
 30
2.1885
 70
192
 0
VERTEX
 8
CUERPO
 10
-0.0473
 20
0.0169
 30
2.1885
 70
192
 0
VERTEX
 8
CUERPO
 10
-0.2417
 20
0.0169
 30
2.1885
 70
192
 0
VERTEX
 8
CUERPO
 10
-0.2417
 20
0.0184
 30
2.1917
 70
192
 0
VERTEX
 8
CUERPO
 10
-0.2417
 20
0.0255
 30
2.1891
 70
192
 0
VERTEX
 8
CUERPO
 10
-0.2417
 20
0.0255
 30
2.1891
 70
192
 0
VERTEX
 8
CUERPO
 10
-0.0473
 20
0.0255
 30
2.1891
 70
192
 0
VERTEX
 8
CUERPO
 10
-0.0473
 20
0.0255
 30
2.1891
 70
192
 0
VERTEX
 8
CUERPO
 10
-0.0473
 20
0.0184
 30
2.1917
 70
192
 0
VERTEX
 8
CUERPO
 10
-0.0473
 20
0.0184
 30
2.1917
 70
192
 0
VERTEX
 8
CUERPO
 10
-0.2417
 20
0.0184
 30
2.1917
 70
192
 0
VERTEX
 8
CUERPO
 10
-0.2417
 20
0.0193
 30
2.195
 70
192
 0
VERTEX
 8
CUERPO
 10
-0.2417
 20
0.0267
 30
2.1937
 70
192
 0
VERTEX
 8
CUERPO
 10
-0.2417
 20
0.0267
 30
2.1937
 70
192
 0
VERTEX
 8
CUERPO
 10
-0.0473
 20
0.0267
 30
2.1937
 70
192
 0
VERTEX
 8
CUERPO
 10
-0.0473
 20
0.0267
 30
2.1937
 70
192
 0
VERTEX
 8
CUERPO
 10
-0.0473
 20
0.0193
 30
2.195
 70
192
 0
VERTEX
 8
CUERPO
 10
-0.0473
 20
0.0193
 30
2.195
 70
192
 0
VERTEX
 8
CUERPO
 10
-0.2417
 20
0.0193
 30
2.195
 70
192
 0
VERTEX
 8
CUERPO
 10
-0.2417
 20
0.0196
 30
2.1985
 70
192
 0
VERTEX
 8
CUERPO
 10
-0.2417
 20
0.0272
 30
2.1985
 70
192
 0
VERTEX
 8
CUERPO
 10
-0.2417
 20
0.0272
 30
2.1985
 70
192
 0
VERTEX
 8
CUERPO
 10
-0.0473
 20
0.0272
 30
2.1985
 70
192
 0
VERTEX
 8
CUERPO
 10
-0.0473
 20
0.0272
 30
2.1985
 70
192
 0
VERTEX
 8
CUERPO
 10
-0.0473
 20
0.0196
 30
2.1985
 70
192
 0
VERTEX
 8
CUERPO
 10
-0.0473
 20
0.0196
 30
2.1985
 70
192
 0
VERTEX
 8
CUERPO
 10
-0.2417
 20
0.0196
 30
2.1985
 70
192
 0
VERTEX
 8
CUERPO
 10
-0.2417
 20
0.0193
 30
2.202
 70
192
 0
VERTEX
 8
CUERPO
 10
-0.2417
 20
0.0267
 30
2.2033
 70
192
 0
VERTEX
 8
CUERPO
 10
-0.2417
 20
0.0267
 30
2.2033
 70
192
 0
VERTEX
 8
CUERPO
 10
-0.0473
 20
0.0267
 30
2.2033
 70
192
 0
VERTEX
 8
CUERPO
 10
-0.0473
 20
0.0267
 30
2.2033
 70
192
 0
VERTEX
 8
CUERPO
 10
-0.0473
 20
0.0193
 30
2.202
 70
192
 0
VERTEX
 8
CUERPO
 10
-0.0473
 20
0.0193
 30
2.202
 70
192
 0
VERTEX
 8
CUERPO
 10
-0.2417
 20
0.0193
 30
2.202
 70
192
 0
VERTEX
 8
CUERPO
 10
-0.2417
 20
0.0184
 30
2.2054
 70
192
 0
VERTEX
 8
CUERPO
 10
-0.2417
 20
0.0255
 30
2.208
 70
192
 0
VERTEX
 8
CUERPO
 10
-0.2417
 20
0.0255
 30
2.208
 70
192
 0
VERTEX
 8
CUERPO
 10
-0.0473
 20
0.0255
 30
2.208
 70
192
 0
VERTEX
 8
CUERPO
 10
-0.0473
 20
0.0255
 30
2.208
 70
192
 0
VERTEX
 8
CUERPO
 10
-0.0473
 20
0.0184
 30
2.2054
 70
192
 0
VERTEX
 8
CUERPO
 10
-0.0473
 20
0.0184
 30
2.2054
 70
192
 0
VERTEX
 8
CUERPO
 10
-0.2417
 20
0.0184
 30
2.2054
 70
192
 0
VERTEX
 8
CUERPO
 10
-0.2417
 20
0.0169
 30
2.2086
 70
192
 0
VERTEX
 8
CUERPO
 10
-0.2417
 20
0.0234
 30
2.2123
 70
192
 0
VERTEX
 8
CUERPO
 10
-0.2417
 20
0.0234
 30
2.2123
 70
192
 0
VERTEX
 8
CUERPO
 10
-0.0473
 20
0.0234
 30
2.2123
 70
192
 0
VERTEX
 8
CUERPO
 10
-0.0473
 20
0.0234
 30
2.2123
 70
192
 0
VERTEX
 8
CUERPO
 10
-0.0473
 20
0.0169
 30
2.2086
 70
192
 0
VERTEX
 8
CUERPO
 10
-0.0473
 20
0.0169
 30
2.2086
 70
192
 0
VERTEX
 8
CUERPO
 10
-0.2417
 20
0.0169
 30
2.2086
 70
192
 0
VERTEX
 8
CUERPO
 10
-0.2417
 20
0.0149
 30
2.2114
 70
192
 0
VERTEX
 8
CUERPO
 10
-0.2417
 20
0.0207
 30
2.2163
 70
192
 0
VERTEX
 8
CUERPO
 10
-0.2417
 20
0.0207
 30
2.2163
 70
192
 0
VERTEX
 8
CUERPO
 10
-0.0473
 20
0.0207
 30
2.2163
 70
192
 0
VERTEX
 8
CUERPO
 10
-0.0473
 20
0.0207
 30
2.2163
 70
192
 0
VERTEX
 8
CUERPO
 10
-0.0473
 20
0.0149
 30
2.2114
 70
192
 0
VERTEX
 8
CUERPO
 10
-0.0473
 20
0.0149
 30
2.2114
 70
192
 0
VERTEX
 8
CUERPO
 10
-0.2417
 20
0.0149
 30
2.2114
 70
192
 0
VERTEX
 8
CUERPO
 10
-0.2417
 20
0.0124
 30
2.2139
 70
192
 0
VERTEX
 8
CUERPO
 10
-0.2417
 20
0.0173
 30
2.2197
 70
192
 0
VERTEX
 8
CUERPO
 10
-0.2417
 20
0.0173
 30
2.2197
 70
192
 0
VERTEX
 8
CUERPO
 10
-0.0473
 20
0.0173
 30
2.2197
 70
192
 0
VERTEX
 8
CUERPO
 10
-0.0473
 20
0.0173
 30
2.2197
 70
192
 0
VERTEX
 8
CUERPO
 10
-0.0473
 20
0.0124
 30
2.2139
 70
192
 0
VERTEX
 8
CUERPO
 10
-0.0473
 20
0.0124
 30
2.2139
 70
192
 0
VERTEX
 8
CUERPO
 10
-0.2417
 20
0.0124
 30
2.2139
 70
192
 0
VERTEX
 8
CUERPO
 10
-0.2417
 20
0.0096
 30
2.2159
 70
192
 0
VERTEX
 8
CUERPO
 10
-0.2417
 20
0.0133
 30
2.2225
 70
192
 0
VERTEX
 8
CUERPO
 10
-0.2417
 20
0.0133
 30
2.2225
 70
192
 0
VERTEX
 8
CUERPO
 10
-0.0473
 20
0.0133
 30
2.2225
 70
192
 0
VERTEX
 8
CUERPO
 10
-0.0473
 20
0.0133
 30
2.2225
 70
192
 0
VERTEX
 8
CUERPO
 10
-0.0473
 20
0.0096
 30
2.2159
 70
192
 0
VERTEX
 8
CUERPO
 10
-0.0473
 20
0.0096
 30
2.2159
 70
192
 0
VERTEX
 8
CUERPO
 10
-0.2417
 20
0.0096
 30
2.2159
 70
192
 0
VERTEX
 8
CUERPO
 10
-0.2417
 20
0.0064
 30
2.2174
 70
192
 0
VERTEX
 8
CUERPO
 10
-0.2417
 20
0.009
 30
2.2245
 70
192
 0
VERTEX
 8
CUERPO
 10
-0.2417
 20
0.009
 30
2.2245
 70
192
 0
VERTEX
 8
CUERPO
 10
-0.0473
 20
0.009
 30
2.2245
 70
192
 0
VERTEX
 8
CUERPO
 10
-0.0473
 20
0.009
 30
2.2245
 70
192
 0
VERTEX
 8
CUERPO
 10
-0.0473
 20
0.0064
 30
2.2174
 70
192
 0
VERTEX
 8
CUERPO
 10
-0.0473
 20
0.0064
 30
2.2174
 70
192
 0
VERTEX
 8
CUERPO
 10
-0.2417
 20
0.0064
 30
2.2174
 70
192
 0
VERTEX
 8
CUERPO
 10
-0.2417
 20
0.003
 30
2.2183
 70
192
 0
VERTEX
 8
CUERPO
 10
-0.2417
 20
0.0043
 30
2.2257
 70
192
 0
VERTEX
 8
CUERPO
 10
-0.2417
 20
0.0043
 30
2.2257
 70
192
 0
VERTEX
 8
CUERPO
 10
-0.0473
 20
0.0043
 30
2.2257
 70
192
 0
VERTEX
 8
CUERPO
 10
-0.0473
 20
0.0043
 30
2.2257
 70
192
 0
VERTEX
 8
CUERPO
 10
-0.0473
 20
0.003
 30
2.2183
 70
192
 0
VERTEX
 8
CUERPO
 10
-0.0473
 20
0.003
 30
2.2183
 70
192
 0
VERTEX
 8
CUERPO
 10
-0.2417
 20
0.003
 30
2.2183
 70
192
 0
VERTEX
 8
CUERPO
 10
-0.2417
 20
-0.0005
 30
2.2186
 70
192
 0
VERTEX
 8
CUERPO
 10
-0.2417
 20
-0.0005
 30
2.2262
 70
192
 0
VERTEX
 8
CUERPO
 10
-0.2417
 20
-0.0005
 30
2.2262
 70
192
 0
VERTEX
 8
CUERPO
 10
-0.0473
 20
-0.0005
 30
2.2262
 70
192
 0
VERTEX
 8
CUERPO
 10
-0.0473
 20
-0.0005
 30
2.2262
 70
192
 0
VERTEX
 8
CUERPO
 10
-0.0473
 20
-0.0005
 30
2.2186
 70
192
 0
VERTEX
 8
CUERPO
 10
-0.0473
 20
-0.0005
 30
2.2186
 70
192
 0
VERTEX
 8
CUERPO
 10
-0.2417
 20
-0.0005
 30
2.2186
 70
192
 0
VERTEX
 8
CUERPO
 10
-0.2417
 20
-0.004
 30
2.2183
 70
192
 0
VERTEX
 8
CUERPO
 10
-0.2417
 20
-0.0053
 30
2.2257
 70
192
 0
VERTEX
 8
CUERPO
 10
-0.2417
 20
-0.0053
 30
2.2257
 70
192
 0
VERTEX
 8
CUERPO
 10
-0.0473
 20
-0.0053
 30
2.2257
 70
192
 0
VERTEX
 8
CUERPO
 10
-0.0473
 20
-0.0053
 30
2.2257
 70
192
 0
VERTEX
 8
CUERPO
 10
-0.0473
 20
-0.004
 30
2.2183
 70
192
 0
VERTEX
 8
CUERPO
 10
-0.0473
 20
-0.004
 30
2.2183
 70
192
 0
VERTEX
 8
CUERPO
 10
-0.2417
 20
-0.004
 30
2.2183
 70
192
 0
VERTEX
 8
CUERPO
 10
-0.2417
 20
-0.0074
 30
2.2174
 70
192
 0
VERTEX
 8
CUERPO
 10
-0.2417
 20
-0.0099
 30
2.2245
 70
192
 0
VERTEX
 8
CUERPO
 10
-0.2417
 20
-0.0099
 30
2.2245
 70
192
 0
VERTEX
 8
CUERPO
 10
-0.0473
 20
-0.0099
 30
2.2245
 70
192
 0
VERTEX
 8
CUERPO
 10
-0.0473
 20
-0.0099
 30
2.2245
 70
192
 0
VERTEX
 8
CUERPO
 10
-0.0473
 20
-0.0074
 30
2.2174
 70
192
 0
VERTEX
 8
CUERPO
 10
-0.0473
 20
-0.0074
 30
2.2174
 70
192
 0
VERTEX
 8
CUERPO
 10
-0.2417
 20
-0.0074
 30
2.2174
 70
192
 0
VERTEX
 8
CUERPO
 10
-0.2417
 20
-0.0105
 30
2.2159
 70
192
 0
VERTEX
 8
CUERPO
 10
-0.2417
 20
-0.0143
 30
2.2225
 70
192
 0
VERTEX
 8
CUERPO
 10
-0.2417
 20
-0.0143
 30
2.2225
 70
192
 0
VERTEX
 8
CUERPO
 10
-0.0473
 20
-0.0143
 30
2.2225
 70
192
 0
VERTEX
 8
CUERPO
 10
-0.0473
 20
-0.0143
 30
2.2225
 70
192
 0
VERTEX
 8
CUERPO
 10
-0.0473
 20
-0.0105
 30
2.2159
 70
192
 0
VERTEX
 8
CUERPO
 10
-0.0473
 20
-0.0105
 30
2.2159
 70
192
 0
VERTEX
 8
CUERPO
 10
-0.2417
 20
-0.0105
 30
2.2159
 70
192
 0
VERTEX
 8
CUERPO
 10
-0.2417
 20
-0.0134
 30
2.2139
 70
192
 0
VERTEX
 8
CUERPO
 10
-0.2417
 20
-0.0183
 30
2.2197
 70
192
 0
VERTEX
 8
CUERPO
 10
-0.2417
 20
-0.0183
 30
2.2197
 70
192
 0
VERTEX
 8
CUERPO
 10
-0.0473
 20
-0.0183
 30
2.2197
 70
192
 0
VERTEX
 8
CUERPO
 10
-0.0473
 20
-0.0183
 30
2.2197
 70
192
 0
VERTEX
 8
CUERPO
 10
-0.0473
 20
-0.0134
 30
2.2139
 70
192
 0
VERTEX
 8
CUERPO
 10
-0.0473
 20
-0.0134
 30
2.2139
 70
192
 0
VERTEX
 8
CUERPO
 10
-0.2417
 20
-0.0134
 30
2.2139
 70
192
 0
VERTEX
 8
CUERPO
 10
-0.2417
 20
-0.0159
 30
2.2114
 70
192
 0
VERTEX
 8
CUERPO
 10
-0.2417
 20
-0.0217
 30
2.2163
 70
192
 0
VERTEX
 8
CUERPO
 10
-0.2417
 20
-0.0217
 30
2.2163
 70
192
 0
VERTEX
 8
CUERPO
 10
-0.0473
 20
-0.0217
 30
2.2163
 70
192
 0
VERTEX
 8
CUERPO
 10
-0.0473
 20
-0.0217
 30
2.2163
 70
192
 0
VERTEX
 8
CUERPO
 10
-0.0473
 20
-0.0159
 30
2.2114
 70
192
 0
VERTEX
 8
CUERPO
 10
-0.0473
 20
-0.0159
 30
2.2114
 70
192
 0
VERTEX
 8
CUERPO
 10
-0.2417
 20
-0.0159
 30
2.2114
 70
192
 0
VERTEX
 8
CUERPO
 10
-0.2417
 20
-0.0179
 30
2.2086
 70
192
 0
VERTEX
 8
CUERPO
 10
-0.2417
 20
-0.0244
 30
2.2123
 70
192
 0
VERTEX
 8
CUERPO
 10
-0.2417
 20
-0.0244
 30
2.2123
 70
192
 0
VERTEX
 8
CUERPO
 10
-0.0473
 20
-0.0244
 30
2.2123
 70
192
 0
VERTEX
 8
CUERPO
 10
-0.0473
 20
-0.0244
 30
2.2123
 70
192
 0
VERTEX
 8
CUERPO
 10
-0.0473
 20
-0.0179
 30
2.2086
 70
192
 0
VERTEX
 8
CUERPO
 10
-0.0473
 20
-0.0179
 30
2.2086
 70
192
 0
VERTEX
 8
CUERPO
 10
-0.2417
 20
-0.0179
 30
2.2086
 70
192
 0
VERTEX
 8
CUERPO
 10
-0.2417
 20
-0.0194
 30
2.2054
 70
192
 0
VERTEX
 8
CUERPO
 10
-0.2417
 20
-0.0265
 30
2.208
 70
192
 0
VERTEX
 8
CUERPO
 10
-0.2417
 20
-0.0265
 30
2.208
 70
192
 0
VERTEX
 8
CUERPO
 10
-0.0473
 20
-0.0265
 30
2.208
 70
192
 0
VERTEX
 8
CUERPO
 10
-0.0473
 20
-0.0265
 30
2.208
 70
192
 0
VERTEX
 8
CUERPO
 10
-0.0473
 20
-0.0194
 30
2.2054
 70
192
 0
VERTEX
 8
CUERPO
 10
-0.0473
 20
-0.0194
 30
2.2054
 70
192
 0
VERTEX
 8
CUERPO
 10
-0.2417
 20
-0.0194
 30
2.2054
 70
192
 0
VERTEX
 8
CUERPO
 10
-0.2417
 20
-0.0203
 30
2.202
 70
192
 0
VERTEX
 8
CUERPO
 10
-0.2417
 20
-0.0277
 30
2.2033
 70
192
 0
VERTEX
 8
CUERPO
 10
-0.2417
 20
-0.0277
 30
2.2033
 70
192
 0
VERTEX
 8
CUERPO
 10
-0.0473
 20
-0.0277
 30
2.2033
 70
192
 0
VERTEX
 8
CUERPO
 10
-0.0473
 20
-0.0277
 30
2.2033
 70
192
 0
VERTEX
 8
CUERPO
 10
-0.0473
 20
-0.0203
 30
2.202
 70
192
 0
VERTEX
 8
CUERPO
 10
-0.0473
 20
-0.0203
 30
2.202
 70
192
 0
VERTEX
 8
CUERPO
 10
-0.2417
 20
-0.0203
 30
2.202
 70
192
 0
VERTEX
 8
CUERPO
 10
-0.2417
 20
-0.0206
 30
2.1985
 70
192
 0
VERTEX
 8
CUERPO
 10
-0.2417
 20
-0.0281
 30
2.1985
 70
192
 0
VERTEX
 8
CUERPO
 10
-0.2417
 20
-0.0281
 30
2.1985
 70
192
 0
VERTEX
 8
CUERPO
 10
-0.0473
 20
-0.0281
 30
2.1985
 70
192
 0
VERTEX
 8
CUERPO
 10
-0.0473
 20
-0.0281
 30
2.1985
 70
192
 0
VERTEX
 8
CUERPO
 10
-0.0473
 20
-0.0206
 30
2.1985
 70
192
 0
VERTEX
 8
CUERPO
 10
-0.0473
 20
-0.0206
 30
2.1985
 70
192
 0
VERTEX
 8
CUERPO
 10
-0.2417
 20
-0.0206
 30
2.1985
 70
192
 0
VERTEX
 8
CUERPO
 10
-0.2417
 20
-0.0203
 30
2.195
 70
192
 0
VERTEX
 8
CUERPO
 10
-0.2417
 20
-0.0277
 30
2.1937
 70
192
 0
VERTEX
 8
CUERPO
 10
-0.2417
 20
-0.0277
 30
2.1937
 70
192
 0
VERTEX
 8
CUERPO
 10
-0.0473
 20
-0.0277
 30
2.1937
 70
192
 0
VERTEX
 8
CUERPO
 10
-0.0473
 20
-0.0277
 30
2.1937
 70
192
 0
VERTEX
 8
CUERPO
 10
-0.0473
 20
-0.0203
 30
2.195
 70
192
 0
VERTEX
 8
CUERPO
 10
-0.0473
 20
-0.0203
 30
2.195
 70
192
 0
VERTEX
 8
CUERPO
 10
-0.2417
 20
-0.0203
 30
2.195
 70
192
 0
VERTEX
 8
CUERPO
 10
-0.2417
 20
-0.0194
 30
2.1917
 70
192
 0
VERTEX
 8
CUERPO
 10
-0.2417
 20
-0.0265
 30
2.1891
 70
192
 0
VERTEX
 8
CUERPO
 10
-0.2417
 20
-0.0265
 30
2.1891
 70
192
 0
VERTEX
 8
CUERPO
 10
-0.0473
 20
-0.0265
 30
2.1891
 70
192
 0
VERTEX
 8
CUERPO
 10
-0.0473
 20
-0.0265
 30
2.1891
 70
192
 0
VERTEX
 8
CUERPO
 10
-0.0473
 20
-0.0194
 30
2.1917
 70
192
 0
VERTEX
 8
CUERPO
 10
-0.0473
 20
-0.0194
 30
2.1917
 70
192
 0
VERTEX
 8
CUERPO
 10
-0.2417
 20
-0.0194
 30
2.1917
 70
192
 0
VERTEX
 8
CUERPO
 10
-0.2417
 20
-0.0179
 30
2.1885
 70
192
 0
VERTEX
 8
CUERPO
 10
-0.2417
 20
-0.0244
 30
2.1847
 70
192
 0
VERTEX
 8
CUERPO
 10
-0.2417
 20
-0.0244
 30
2.1847
 70
192
 0
VERTEX
 8
CUERPO
 10
-0.0473
 20
-0.0244
 30
2.1847
 70
192
 0
VERTEX
 8
CUERPO
 10
-0.0473
 20
-0.0244
 30
2.1847
 70
192
 0
VERTEX
 8
CUERPO
 10
-0.0473
 20
-0.0179
 30
2.1885
 70
192
 0
VERTEX
 8
CUERPO
 10
-0.0473
 20
-0.0179
 30
2.1885
 70
192
 0
VERTEX
 8
CUERPO
 10
-0.2417
 20
-0.0179
 30
2.1885
 70
192
 0
VERTEX
 8
CUERPO
 10
-0.2417
 20
-0.0159
 30
2.1856
 70
192
 0
VERTEX
 8
CUERPO
 10
-0.2417
 20
-0.0217
 30
2.1808
 70
192
 0
VERTEX
 8
CUERPO
 10
-0.2417
 20
-0.0217
 30
2.1808
 70
192
 0
VERTEX
 8
CUERPO
 10
-0.0473
 20
-0.0217
 30
2.1808
 70
192
 0
VERTEX
 8
CUERPO
 10
-0.0473
 20
-0.0217
 30
2.1808
 70
192
 0
VERTEX
 8
CUERPO
 10
-0.0473
 20
-0.0159
 30
2.1856
 70
192
 0
VERTEX
 8
CUERPO
 10
-0.0473
 20
-0.0159
 30
2.1856
 70
192
 0
VERTEX
 8
CUERPO
 10
-0.2417
 20
-0.0159
 30
2.1856
 70
192
 0
VERTEX
 8
CUERPO
 10
-0.2417
 20
-0.0134
 30
2.1831
 70
192
 0
VERTEX
 8
CUERPO
 10
-0.2417
 20
-0.0183
 30
2.1774
 70
192
 0
VERTEX
 8
CUERPO
 10
-0.2417
 20
-0.0183
 30
2.1774
 70
192
 0
VERTEX
 8
CUERPO
 10
-0.0473
 20
-0.0183
 30
2.1774
 70
192
 0
VERTEX
 8
CUERPO
 10
-0.0473
 20
-0.0183
 30
2.1774
 70
192
 0
VERTEX
 8
CUERPO
 10
-0.0473
 20
-0.0134
 30
2.1831
 70
192
 0
VERTEX
 8
CUERPO
 10
-0.0473
 20
-0.0134
 30
2.1831
 70
192
 0
VERTEX
 8
CUERPO
 10
-0.2417
 20
-0.0134
 30
2.1831
 70
192
 0
VERTEX
 8
CUERPO
 10
-0.2417
 20
-0.0105
 30
2.1811
 70
192
 0
VERTEX
 8
CUERPO
 10
-0.2417
 20
-0.0143
 30
2.1746
 70
192
 0
VERTEX
 8
CUERPO
 10
-0.2417
 20
-0.0143
 30
2.1746
 70
192
 0
VERTEX
 8
CUERPO
 10
-0.0473
 20
-0.0143
 30
2.1746
 70
192
 0
VERTEX
 8
CUERPO
 10
-0.0473
 20
-0.0143
 30
2.1746
 70
192
 0
VERTEX
 8
CUERPO
 10
-0.0473
 20
-0.0105
 30
2.1811
 70
192
 0
VERTEX
 8
CUERPO
 10
-0.0473
 20
-0.0105
 30
2.1811
 70
192
 0
VERTEX
 8
CUERPO
 10
-0.2417
 20
-0.0105
 30
2.1811
 70
192
 0
VERTEX
 8
CUERPO
 10
-0.2417
 20
-0.0074
 30
2.1796
 70
192
 0
VERTEX
 8
CUERPO
 10
-0.2417
 20
-0.0099
 30
2.1726
 70
192
 0
VERTEX
 8
CUERPO
 10
-0.2417
 20
-0.0099
 30
2.1726
 70
192
 0
VERTEX
 8
CUERPO
 10
-0.0473
 20
-0.0099
 30
2.1726
 70
192
 0
VERTEX
 8
CUERPO
 10
-0.0473
 20
-0.0099
 30
2.1726
 70
192
 0
VERTEX
 8
CUERPO
 10
-0.0473
 20
-0.0074
 30
2.1796
 70
192
 0
VERTEX
 8
CUERPO
 10
-0.0473
 20
-0.0074
 30
2.1796
 70
192
 0
VERTEX
 8
CUERPO
 10
-0.2417
 20
-0.0074
 30
2.1796
 70
192
 0
VERTEX
 8
CUERPO
 10
-0.2417
 20
-0.004
 30
2.1787
 70
192
 0
VERTEX
 8
CUERPO
 10
-0.2417
 20
-0.0053
 30
2.1713
 70
192
 0
VERTEX
 8
CUERPO
 10
-0.2417
 20
-0.0053
 30
2.1713
 70
192
 0
VERTEX
 8
CUERPO
 10
-0.0473
 20
-0.0053
 30
2.1713
 70
192
 0
VERTEX
 8
CUERPO
 10
-0.0473
 20
-0.0053
 30
2.1713
 70
192
 0
VERTEX
 8
CUERPO
 10
-0.0473
 20
-0.004
 30
2.1787
 70
192
 0
VERTEX
 8
CUERPO
 10
-0.0473
 20
-0.004
 30
2.1787
 70
192
 0
VERTEX
 8
CUERPO
 10
-0.2417
 20
-0.004
 30
2.1787
 70
192
 0
VERTEX
 8
CUERPO
 10
0.2208
 20
-0.0413
 30
2.1042
 70
192
 0
VERTEX
 8
CUERPO
 10
0.2369
 20
-0.0413
 30
2.1131
 70
192
 0
VERTEX
 8
CUERPO
 10
0.2965
 20
-0.0413
 30
1.9688
 70
192
 0
VERTEX
 8
CUERPO
 10
0.3076
 20
-0.0413
 30
1.9835
 70
192
 0
VERTEX
 8
CUERPO
 10
0.4925
 20
-0.0413
 30
1.9616
 70
192
 0
VERTEX
 8
CUERPO
 10
0.4925
 20
-0.0413
 30
1.98
 70
192
 0
VERTEX
 8
CUERPO
 10
0.4925
 20
0.0413
 30
1.9616
 70
192
 0
VERTEX
 8
CUERPO
 10
0.4925
 20
0.0413
 30
1.98
 70
192
 0
VERTEX
 8
CUERPO
 10
0.2965
 20
0.0413
 30
1.9688
 70
192
 0
VERTEX
 8
CUERPO
 10
0.3076
 20
0.0413
 30
1.9835
 70
192
 0
VERTEX
 8
CUERPO
 10
0.2208
 20
0.0413
 30
2.1042
 70
192
 0
VERTEX
 8
CUERPO
 10
0.2369
 20
0.0413
 30
2.1131
 70
192
 0
VERTEX
 8
CUERPO
 10
0.4327
 20
-0.0626
 30
2.1599
 70
192
 0
VERTEX
 8
CUERPO
 10
0.6623
 20
-0.0626
 30
2.1566
 70
192
 0
VERTEX
 8
CUERPO
 10
0.4327
 20
-0.0626
 30
2.0688
 70
192
 0
VERTEX
 8
CUERPO
 10
0.6623
 20
-0.0626
 30
2.0822
 70
192
 0
VERTEX
 8
CUERPO
 10
0.4327
 20
-0.0626
 30
1.9777
 70
192
 0
VERTEX
 8
CUERPO
 10
0.626
 20
-0.0626
 30
1.9777
 70
192
 0
VERTEX
 8
CUERPO
 10
0.4327
 20
-0.0626
 30
1.8865
 70
192
 0
VERTEX
 8
CUERPO
 10
0.6671
 20
-0.0626
 30
1.8865
 70
192
 0
VERTEX
 8
CUERPO
 10
0.4327
 20
-0.0626
 30
1.7525
 70
192
 0
VERTEX
 8
CUERPO
 10
0.6671
 20
-0.0626
 30
1.7525
 70
192
 0
VERTEX
 8
CUERPO
 10
0.4327
 20
0.0626
 30
1.7525
 70
192
 0
VERTEX
 8
CUERPO
 10
0.6671
 20
0.0626
 30
1.7525
 70
192
 0
VERTEX
 8
CUERPO
 10
0.4327
 20
0.0626
 30
1.8865
 70
192
 0
VERTEX
 8
CUERPO
 10
0.6671
 20
0.0626
 30
1.8865
 70
192
 0
VERTEX
 8
CUERPO
 10
0.4327
 20
0.0626
 30
1.9777
 70
192
 0
VERTEX
 8
CUERPO
 10
0.626
 20
0.0626
 30
1.9777
 70
192
 0
VERTEX
 8
CUERPO
 10
0.4327
 20
0.0626
 30
2.0688
 70
192
 0
VERTEX
 8
CUERPO
 10
0.6623
 20
0.0626
 30
2.0822
 70
192
 0
VERTEX
 8
CUERPO
 10
0.4327
 20
0.0626
 30
2.1599
 70
192
 0
VERTEX
 8
CUERPO
 10
0.6623
 20
0.0626
 30
2.1566
 70
192
 0
VERTEX
 8
CUERPO
 10
0
 20
0
 30
0
 70
128
 71
1
 72
2
 73
4
 74
3
 0
VERTEX
 8
CUERPO
 10
0
 20
0
 30
0
 70
128
 71
3
 72
4
 73
6
 74
5
 0
VERTEX
 8
CUERPO
 10
0
 20
0
 30
0
 70
128
 71
8
 72
7
 73
9
 74
9
 0
VERTEX
 8
CUERPO
 10
0
 20
0
 30
0
 70
128
 71
12
 72
9
 73
7
 74
7
 0
VERTEX
 8
CUERPO
 10
0
 20
0
 30
0
 70
128
 71
11
 72
12
 73
7
 74
5
 0
VERTEX
 8
CUERPO
 10
0
 20
0
 30
0
 70
128
 71
6
 72
8
 73
9
 74
10
 0
VERTEX
 8
CUERPO
 10
0
 20
0
 30
0
 70
128
 71
11
 72
5
 73
6
 74
10
 0
VERTEX
 8
CUERPO
 10
0
 20
0
 30
0
 70
128
 71
7
 72
8
 73
2
 74
1
 0
VERTEX
 8
CUERPO
 10
0
 20
0
 30
0
 70
128
 71
2
 72
8
 73
6
 74
4
 0
VERTEX
 8
CUERPO
 10
0
 20
0
 30
0
 70
128
 71
7
 72
1
 73
3
 74
5
 0
VERTEX
 8
CUERPO
 10
0
 20
0
 30
0
 70
128
 71
14
 72
13
 73
15
 74
16
 0
VERTEX
 8
CUERPO
 10
0
 20
0
 30
0
 70
128
 71
15
 72
18
 73
17
 74
16
 0
VERTEX
 8
CUERPO
 10
0
 20
0
 30
0
 70
128
 71
14
 72
20
 73
19
 74
13
 0
VERTEX
 8
CUERPO
 10
0
 20
0
 30
0
 70
128
 71
16
 72
17
 73
20
 74
14
 0
VERTEX
 8
CUERPO
 10
0
 20
0
 30
0
 70
128
 71
13
 72
19
 73
18
 74
15
 0
VERTEX
 8
CUERPO
 10
0
 20
0
 30
0
 70
128
 71
21
 72
22
 73
28
 74
27
 0
VERTEX
 8
CUERPO
 10
0
 20
0
 30
0
 70
128
 71
22
 72
23
 73
29
 74
28
 0
VERTEX
 8
CUERPO
 10
0
 20
0
 30
0
 70
128
 71
23
 72
24
 73
30
 74
29
 0
VERTEX
 8
CUERPO
 10
0
 20
0
 30
0
 70
128
 71
24
 72
25
 73
31
 74
30
 0
VERTEX
 8
CUERPO
 10
0
 20
0
 30
0
 70
128
 71
25
 72
26
 73
32
 74
31
 0
VERTEX
 8
CUERPO
 10
0
 20
0
 30
0
 70
128
 71
27
 72
28
 73
34
 74
33
 0
VERTEX
 8
CUERPO
 10
0
 20
0
 30
0
 70
128
 71
33
 72
34
 73
39
 74
38
 0
VERTEX
 8
CUERPO
 10
0
 20
0
 30
0
 70
128
 71
38
 72
39
 73
45
 74
44
 0
VERTEX
 8
CUERPO
 10
0
 20
0
 30
0
 70
128
 71
44
 72
45
 73
51
 74
50
 0
VERTEX
 8
CUERPO
 10
0
 20
0
 30
0
 70
128
 71
50
 72
51
 73
57
 74
56
 0
VERTEX
 8
CUERPO
 10
0
 20
0
 30
0
 70
128
 71
28
 72
29
 73
35
 74
34
 0
VERTEX
 8
CUERPO
 10
0
 20
0
 30
0
 70
128
 71
34
 72
35
 73
40
 74
39
 0
VERTEX
 8
CUERPO
 10
0
 20
0
 30
0
 70
128
 71
39
 72
40
 73
46
 74
45
 0
VERTEX
 8
CUERPO
 10
0
 20
0
 30
0
 70
128
 71
45
 72
46
 73
52
 74
51
 0
VERTEX
 8
CUERPO
 10
0
 20
0
 30
0
 70
128
 71
51
 72
52
 73
58
 74
57
 0
VERTEX
 8
CUERPO
 10
0
 20
0
 30
0
 70
128
 71
29
 72
30
 73
36
 74
35
 0
VERTEX
 8
CUERPO
 10
0
 20
0
 30
0
 70
128
 71
35
 72
36
 73
41
 74
40
 0
VERTEX
 8
CUERPO
 10
0
 20
0
 30
0
 70
128
 71
40
 72
41
 73
47
 74
46
 0
VERTEX
 8
CUERPO
 10
0
 20
0
 30
0
 70
128
 71
46
 72
47
 73
53
 74
52
 0
VERTEX
 8
CUERPO
 10
0
 20
0
 30
0
 70
128
 71
52
 72
53
 73
59
 74
58
 0
VERTEX
 8
CUERPO
 10
0
 20
0
 30
0
 70
128
 71
98
 72
36
 73
30
 74
102
 0
VERTEX
 8
CUERPO
 10
0
 20
0
 30
0
 70
128
 71
30
 72
31
 73
91
 74
99
 0
VERTEX
 8
CUERPO
 10
0
 20
0
 30
0
 70
128
 71
109
 72
102
 73
30
 74
30
 0
VERTEX
 8
CUERPO
 10
0
 20
0
 30
0
 70
128
 71
30
 72
99
 73
122
 74
122
 0
VERTEX
 8
CUERPO
 10
0
 20
0
 30
0
 70
128
 71
108
 72
109
 73
30
 74
30
 0
VERTEX
 8
CUERPO
 10
0
 20
0
 30
0
 70
128
 71
30
 72
122
 73
101
 74
101
 0
VERTEX
 8
CUERPO
 10
0
 20
0
 30
0
 70
128
 71
103
 72
108
 73
30
 74
30
 0
VERTEX
 8
CUERPO
 10
0
 20
0
 30
0
 70
128
 71
30
 72
101
 73
100
 74
100
 0
VERTEX
 8
CUERPO
 10
0
 20
0
 30
0
 70
128
 71
30
 72
100
 73
103
 74
103
 0
VERTEX
 8
CUERPO
 10
0
 20
0
 30
0
 70
128
 71
41
 72
36
 73
110
 74
111
 0
VERTEX
 8
CUERPO
 10
0
 20
0
 30
0
 70
128
 71
107
 72
96
 73
42
 74
42
 0
VERTEX
 8
CUERPO
 10
0
 20
0
 30
0
 70
128
 71
36
 72
98
 73
110
 74
110
 0
VERTEX
 8
CUERPO
 10
0
 20
0
 30
0
 70
128
 71
127
 72
107
 73
42
 74
41
 0
VERTEX
 8
CUERPO
 10
0
 20
0
 30
0
 70
128
 71
41
 72
111
 73
112
 74
112
 0
VERTEX
 8
CUERPO
 10
0
 20
0
 30
0
 70
128
 71
106
 72
127
 73
41
 74
41
 0
VERTEX
 8
CUERPO
 10
0
 20
0
 30
0
 70
128
 71
41
 72
112
 73
113
 74
113
 0
VERTEX
 8
CUERPO
 10
0
 20
0
 30
0
 70
128
 71
105
 72
106
 73
41
 74
41
 0
VERTEX
 8
CUERPO
 10
0
 20
0
 30
0
 70
128
 71
41
 72
113
 73
114
 74
114
 0
VERTEX
 8
CUERPO
 10
0
 20
0
 30
0
 70
128
 71
104
 72
105
 73
41
 74
41
 0
VERTEX
 8
CUERPO
 10
0
 20
0
 30
0
 70
128
 71
41
 72
114
 73
115
 74
115
 0
VERTEX
 8
CUERPO
 10
0
 20
0
 30
0
 70
128
 71
123
 72
104
 73
41
 74
41
 0
VERTEX
 8
CUERPO
 10
0
 20
0
 30
0
 70
128
 71
115
 72
123
 73
41
 74
41
 0
VERTEX
 8
CUERPO
 10
0
 20
0
 30
0
 70
128
 71
41
 72
42
 73
48
 74
47
 0
VERTEX
 8
CUERPO
 10
0
 20
0
 30
0
 70
128
 71
47
 72
48
 73
54
 74
53
 0
VERTEX
 8
CUERPO
 10
0
 20
0
 30
0
 70
128
 71
53
 72
54
 73
60
 74
59
 0
VERTEX
 8
CUERPO
 10
0
 20
0
 30
0
 70
128
 71
121
 72
91
 73
31
 74
31
 0
VERTEX
 8
CUERPO
 10
0
 20
0
 30
0
 70
128
 71
37
 72
95
 73
116
 74
116
 0
VERTEX
 8
CUERPO
 10
0
 20
0
 30
0
 70
128
 71
120
 72
121
 73
31
 74
31
 0
VERTEX
 8
CUERPO
 10
0
 20
0
 30
0
 70
128
 71
37
 72
116
 73
117
 74
117
 0
VERTEX
 8
CUERPO
 10
0
 20
0
 30
0
 70
128
 71
119
 72
120
 73
31
 74
31
 0
VERTEX
 8
CUERPO
 10
0
 20
0
 30
0
 70
128
 71
37
 72
117
 73
118
 74
32
 0
VERTEX
 8
CUERPO
 10
0
 20
0
 30
0
 70
128
 71
118
 72
119
 73
31
 74
32
 0
VERTEX
 8
CUERPO
 10
0
 20
0
 30
0
 70
128
 71
95
 72
37
 73
134
 74
134
 0
VERTEX
 8
CUERPO
 10
0
 20
0
 30
0
 70
128
 71
43
 72
42
 73
96
 74
124
 0
VERTEX
 8
CUERPO
 10
0
 20
0
 30
0
 70
128
 71
134
 72
37
 73
133
 74
133
 0
VERTEX
 8
CUERPO
 10
0
 20
0
 30
0
 70
128
 71
43
 72
124
 73
125
 74
125
 0
VERTEX
 8
CUERPO
 10
0
 20
0
 30
0
 70
128
 71
43
 72
125
 73
126
 74
126
 0
VERTEX
 8
CUERPO
 10
0
 20
0
 30
0
 70
128
 71
132
 72
133
 73
37
 74
43
 0
VERTEX
 8
CUERPO
 10
0
 20
0
 30
0
 70
128
 71
43
 72
126
 73
128
 74
128
 0
VERTEX
 8
CUERPO
 10
0
 20
0
 30
0
 70
128
 71
131
 72
132
 73
43
 74
43
 0
VERTEX
 8
CUERPO
 10
0
 20
0
 30
0
 70
128
 71
43
 72
128
 73
130
 74
130
 0
VERTEX
 8
CUERPO
 10
0
 20
0
 30
0
 70
128
 71
129
 72
131
 73
43
 74
43
 0
VERTEX
 8
CUERPO
 10
0
 20
0
 30
0
 70
128
 71
130
 72
129
 73
43
 74
43
 0
VERTEX
 8
CUERPO
 10
0
 20
0
 30
0
 70
128
 71
42
 72
43
 73
49
 74
48
 0
VERTEX
 8
CUERPO
 10
0
 20
0
 30
0
 70
128
 71
48
 72
49
 73
55
 74
54
 0
VERTEX
 8
CUERPO
 10
0
 20
0
 30
0
 70
128
 71
54
 72
55
 73
61
 74
60
 0
VERTEX
 8
CUERPO
 10
0
 20
0
 30
0
 70
128
 71
56
 72
57
 73
63
 74
62
 0
VERTEX
 8
CUERPO
 10
0
 20
0
 30
0
 70
128
 71
57
 72
58
 73
64
 74
63
 0
VERTEX
 8
CUERPO
 10
0
 20
0
 30
0
 70
128
 71
58
 72
59
 73
65
 74
64
 0
VERTEX
 8
CUERPO
 10
0
 20
0
 30
0
 70
128
 71
59
 72
60
 73
66
 74
65
 0
VERTEX
 8
CUERPO
 10
0
 20
0
 30
0
 70
128
 71
60
 72
61
 73
67
 74
66
 0
VERTEX
 8
CUERPO
 10
0
 20
0
 30
0
 70
128
 71
62
 72
63
 73
69
 74
68
 0
VERTEX
 8
CUERPO
 10
0
 20
0
 30
0
 70
128
 71
68
 72
69
 73
75
 74
74
 0
VERTEX
 8
CUERPO
 10
0
 20
0
 30
0
 70
128
 71
74
 72
75
 73
81
 74
80
 0
VERTEX
 8
CUERPO
 10
0
 20
0
 30
0
 70
128
 71
80
 72
81
 73
87
 74
86
 0
VERTEX
 8
CUERPO
 10
0
 20
0
 30
0
 70
128
 71
86
 72
87
 73
22
 74
21
 0
VERTEX
 8
CUERPO
 10
0
 20
0
 30
0
 70
128
 71
63
 72
64
 73
70
 74
69
 0
VERTEX
 8
CUERPO
 10
0
 20
0
 30
0
 70
128
 71
69
 72
70
 73
76
 74
75
 0
VERTEX
 8
CUERPO
 10
0
 20
0
 30
0
 70
128
 71
75
 72
76
 73
82
 74
81
 0
VERTEX
 8
CUERPO
 10
0
 20
0
 30
0
 70
128
 71
81
 72
82
 73
88
 74
87
 0
VERTEX
 8
CUERPO
 10
0
 20
0
 30
0
 70
128
 71
87
 72
88
 73
23
 74
22
 0
VERTEX
 8
CUERPO
 10
0
 20
0
 30
0
 70
128
 71
64
 72
65
 73
71
 74
70
 0
VERTEX
 8
CUERPO
 10
0
 20
0
 30
0
 70
128
 71
70
 72
71
 73
77
 74
76
 0
VERTEX
 8
CUERPO
 10
0
 20
0
 30
0
 70
128
 71
76
 72
77
 73
83
 74
82
 0
VERTEX
 8
CUERPO
 10
0
 20
0
 30
0
 70
128
 71
82
 72
83
 73
89
 74
88
 0
VERTEX
 8
CUERPO
 10
0
 20
0
 30
0
 70
128
 71
88
 72
89
 73
24
 74
23
 0
VERTEX
 8
CUERPO
 10
0
 20
0
 30
0
 70
128
 71
65
 72
66
 73
72
 74
71
 0
VERTEX
 8
CUERPO
 10
0
 20
0
 30
0
 70
128
 71
71
 72
72
 73
78
 74
77
 0
VERTEX
 8
CUERPO
 10
0
 20
0
 30
0
 70
128
 71
77
 72
78
 73
84
 74
83
 0
VERTEX
 8
CUERPO
 10
0
 20
0
 30
0
 70
128
 71
94
 72
89
 73
140
 74
140
 0
VERTEX
 8
CUERPO
 10
0
 20
0
 30
0
 70
128
 71
84
 72
93
 73
139
 74
139
 0
VERTEX
 8
CUERPO
 10
0
 20
0
 30
0
 70
128
 71
84
 72
139
 73
138
 74
83
 0
VERTEX
 8
CUERPO
 10
0
 20
0
 30
0
 70
128
 71
140
 72
89
 73
83
 74
141
 0
VERTEX
 8
CUERPO
 10
0
 20
0
 30
0
 70
128
 71
142
 72
141
 73
83
 74
83
 0
VERTEX
 8
CUERPO
 10
0
 20
0
 30
0
 70
128
 71
83
 72
138
 73
137
 74
137
 0
VERTEX
 8
CUERPO
 10
0
 20
0
 30
0
 70
128
 71
143
 72
142
 73
83
 74
83
 0
VERTEX
 8
CUERPO
 10
0
 20
0
 30
0
 70
128
 71
83
 72
137
 73
154
 74
154
 0
VERTEX
 8
CUERPO
 10
0
 20
0
 30
0
 70
128
 71
144
 72
143
 73
83
 74
83
 0
VERTEX
 8
CUERPO
 10
0
 20
0
 30
0
 70
128
 71
83
 72
154
 73
136
 74
136
 0
VERTEX
 8
CUERPO
 10
0
 20
0
 30
0
 70
128
 71
145
 72
144
 73
83
 74
83
 0
VERTEX
 8
CUERPO
 10
0
 20
0
 30
0
 70
128
 71
83
 72
136
 73
135
 74
135
 0
VERTEX
 8
CUERPO
 10
0
 20
0
 30
0
 70
128
 71
83
 72
135
 73
145
 74
145
 0
VERTEX
 8
CUERPO
 10
0
 20
0
 30
0
 70
128
 71
92
 72
25
 73
24
 74
146
 0
VERTEX
 8
CUERPO
 10
0
 20
0
 30
0
 70
128
 71
24
 72
89
 73
94
 74
153
 0
VERTEX
 8
CUERPO
 10
0
 20
0
 30
0
 70
128
 71
24
 72
153
 73
152
 74
152
 0
VERTEX
 8
CUERPO
 10
0
 20
0
 30
0
 70
128
 71
147
 72
146
 73
24
 74
24
 0
VERTEX
 8
CUERPO
 10
0
 20
0
 30
0
 70
128
 71
24
 72
152
 73
151
 74
151
 0
VERTEX
 8
CUERPO
 10
0
 20
0
 30
0
 70
128
 71
148
 72
147
 73
24
 74
24
 0
VERTEX
 8
CUERPO
 10
0
 20
0
 30
0
 70
128
 71
24
 72
151
 73
150
 74
150
 0
VERTEX
 8
CUERPO
 10
0
 20
0
 30
0
 70
128
 71
149
 72
148
 73
24
 74
24
 0
VERTEX
 8
CUERPO
 10
0
 20
0
 30
0
 70
128
 71
150
 72
149
 73
24
 74
24
 0
VERTEX
 8
CUERPO
 10
0
 20
0
 30
0
 70
128
 71
66
 72
67
 73
73
 74
72
 0
VERTEX
 8
CUERPO
 10
0
 20
0
 30
0
 70
128
 71
72
 72
73
 73
79
 74
78
 0
VERTEX
 8
CUERPO
 10
0
 20
0
 30
0
 70
128
 71
78
 72
79
 73
85
 74
84
 0
VERTEX
 8
CUERPO
 10
0
 20
0
 30
0
 70
128
 71
155
 72
93
 73
84
 74
85
 0
VERTEX
 8
CUERPO
 10
0
 20
0
 30
0
 70
128
 71
90
 72
97
 73
164
 74
164
 0
VERTEX
 8
CUERPO
 10
0
 20
0
 30
0
 70
128
 71
156
 72
155
 73
85
 74
85
 0
VERTEX
 8
CUERPO
 10
0
 20
0
 30
0
 70
128
 71
85
 72
90
 73
164
 74
163
 0
VERTEX
 8
CUERPO
 10
0
 20
0
 30
0
 70
128
 71
157
 72
156
 73
85
 74
85
 0
VERTEX
 8
CUERPO
 10
0
 20
0
 30
0
 70
128
 71
85
 72
163
 73
162
 74
162
 0
VERTEX
 8
CUERPO
 10
0
 20
0
 30
0
 70
128
 71
158
 72
157
 73
85
 74
85
 0
VERTEX
 8
CUERPO
 10
0
 20
0
 30
0
 70
128
 71
85
 72
162
 73
161
 74
161
 0
VERTEX
 8
CUERPO
 10
0
 20
0
 30
0
 70
128
 71
159
 72
158
 73
85
 74
85
 0
VERTEX
 8
CUERPO
 10
0
 20
0
 30
0
 70
128
 71
85
 72
161
 73
160
 74
160
 0
VERTEX
 8
CUERPO
 10
0
 20
0
 30
0
 70
128
 71
85
 72
160
 73
159
 74
159
 0
VERTEX
 8
CUERPO
 10
0
 20
0
 30
0
 70
128
 71
25
 72
92
 73
170
 74
170
 0
VERTEX
 8
CUERPO
 10
0
 20
0
 30
0
 70
128
 71
165
 72
97
 73
90
 74
90
 0
VERTEX
 8
CUERPO
 10
0
 20
0
 30
0
 70
128
 71
90
 72
26
 73
167
 74
166
 0
VERTEX
 8
CUERPO
 10
0
 20
0
 30
0
 70
128
 71
25
 72
170
 73
169
 74
169
 0
VERTEX
 8
CUERPO
 10
0
 20
0
 30
0
 70
128
 71
166
 72
165
 73
90
 74
90
 0
VERTEX
 8
CUERPO
 10
0
 20
0
 30
0
 70
128
 71
25
 72
169
 73
168
 74
168
 0
VERTEX
 8
CUERPO
 10
0
 20
0
 30
0
 70
128
 71
167
 72
26
 73
25
 74
168
 0
VERTEX
 8
CUERPO
 10
0
 20
0
 30
0
 70
128
 71
26
 72
90
 73
37
 74
32
 0
VERTEX
 8
CUERPO
 10
0
 20
0
 30
0
 70
128
 71
90
 72
85
 73
43
 74
37
 0
VERTEX
 8
CUERPO
 10
0
 20
0
 30
0
 70
128
 71
85
 72
79
 73
49
 74
43
 0
VERTEX
 8
CUERPO
 10
0
 20
0
 30
0
 70
128
 71
79
 72
73
 73
55
 74
49
 0
VERTEX
 8
CUERPO
 10
0
 20
0
 30
0
 70
128
 71
73
 72
67
 73
61
 74
55
 0
VERTEX
 8
CUERPO
 10
0
 20
0
 30
0
 70
128
 71
62
 72
68
 73
50
 74
56
 0
VERTEX
 8
CUERPO
 10
0
 20
0
 30
0
 70
128
 71
68
 72
74
 73
44
 74
50
 0
VERTEX
 8
CUERPO
 10
0
 20
0
 30
0
 70
128
 71
74
 72
80
 73
38
 74
44
 0
VERTEX
 8
CUERPO
 10
0
 20
0
 30
0
 70
128
 71
80
 72
86
 73
33
 74
38
 0
VERTEX
 8
CUERPO
 10
0
 20
0
 30
0
 70
128
 71
86
 72
21
 73
27
 74
33
 0
VERTEX
 8
CUERPO
 10
0
 20
0
 30
0
 70
128
 71
215
 72
182
 73
181
 74
193
 0
VERTEX
 8
CUERPO
 10
0
 20
0
 30
0
 70
128
 71
195
 72
183
 73
182
 74
215
 0
VERTEX
 8
CUERPO
 10
0
 20
0
 30
0
 70
128
 71
216
 72
184
 73
183
 74
195
 0
VERTEX
 8
CUERPO
 10
0
 20
0
 30
0
 70
128
 71
217
 72
185
 73
184
 74
216
 0
VERTEX
 8
CUERPO
 10
0
 20
0
 30
0
 70
128
 71
218
 72
186
 73
185
 74
217
 0
VERTEX
 8
CUERPO
 10
0
 20
0
 30
0
 70
128
 71
218
 72
246
 73
204
 74
249
 0
VERTEX
 8
CUERPO
 10
0
 20
0
 30
0
 70
128
 71
246
 72
234
 73
204
 74
204
 0
VERTEX
 8
CUERPO
 10
0
 20
0
 30
0
 70
128
 71
218
 72
249
 73
186
 74
186
 0
VERTEX
 8
CUERPO
 10
0
 20
0
 30
0
 70
128
 71
235
 72
205
 73
204
 74
234
 0
VERTEX
 8
CUERPO
 10
0
 20
0
 30
0
 70
128
 71
236
 72
206
 73
205
 74
235
 0
VERTEX
 8
CUERPO
 10
0
 20
0
 30
0
 70
128
 71
219
 72
207
 73
206
 74
236
 0
VERTEX
 8
CUERPO
 10
0
 20
0
 30
0
 70
128
 71
221
 72
187
 73
207
 74
219
 0
VERTEX
 8
CUERPO
 10
0
 20
0
 30
0
 70
128
 71
202
 72
188
 73
187
 74
221
 0
VERTEX
 8
CUERPO
 10
0
 20
0
 30
0
 70
128
 71
223
 72
209
 73
188
 74
202
 0
VERTEX
 8
CUERPO
 10
0
 20
0
 30
0
 70
128
 71
237
 72
210
 73
209
 74
223
 0
VERTEX
 8
CUERPO
 10
0
 20
0
 30
0
 70
128
 71
238
 72
211
 73
210
 74
237
 0
VERTEX
 8
CUERPO
 10
0
 20
0
 30
0
 70
128
 71
240
 72
212
 73
211
 74
238
 0
VERTEX
 8
CUERPO
 10
0
 20
0
 30
0
 70
128
 71
228
 72
196
 73
245
 74
247
 0
VERTEX
 8
CUERPO
 10
0
 20
0
 30
0
 70
128
 71
240
 72
247
 73
245
 74
212
 0
VERTEX
 8
CUERPO
 10
0
 20
0
 30
0
 70
128
 71
222
 72
197
 73
196
 74
228
 0
VERTEX
 8
CUERPO
 10
0
 20
0
 30
0
 70
128
 71
239
 72
198
 73
197
 74
222
 0
VERTEX
 8
CUERPO
 10
0
 20
0
 30
0
 70
128
 71
242
 72
199
 73
198
 74
239
 0
VERTEX
 8
CUERPO
 10
0
 20
0
 30
0
 70
128
 71
241
 72
200
 73
199
 74
242
 0
VERTEX
 8
CUERPO
 10
0
 20
0
 30
0
 70
128
 71
232
 72
201
 73
200
 74
241
 0
VERTEX
 8
CUERPO
 10
0
 20
0
 30
0
 70
128
 71
232
 72
248
 73
201
 74
201
 0
VERTEX
 8
CUERPO
 10
0
 20
0
 30
0
 70
128
 71
243
 72
201
 73
172
 74
172
 0
VERTEX
 8
CUERPO
 10
0
 20
0
 30
0
 70
128
 71
248
 72
227
 73
172
 74
201
 0
VERTEX
 8
CUERPO
 10
0
 20
0
 30
0
 70
128
 71
208
 72
173
 73
172
 74
227
 0
VERTEX
 8
CUERPO
 10
0
 20
0
 30
0
 70
128
 71
231
 72
174
 73
173
 74
208
 0
VERTEX
 8
CUERPO
 10
0
 20
0
 30
0
 70
128
 71
230
 72
175
 73
174
 74
231
 0
VERTEX
 8
CUERPO
 10
0
 20
0
 30
0
 70
128
 71
233
 72
176
 73
175
 74
230
 0
VERTEX
 8
CUERPO
 10
0
 20
0
 30
0
 70
128
 71
213
 72
177
 73
176
 74
233
 0
VERTEX
 8
CUERPO
 10
0
 20
0
 30
0
 70
128
 71
214
 72
178
 73
177
 74
213
 0
VERTEX
 8
CUERPO
 10
0
 20
0
 30
0
 70
128
 71
229
 72
179
 73
178
 74
214
 0
VERTEX
 8
CUERPO
 10
0
 20
0
 30
0
 70
128
 71
229
 72
244
 73
189
 74
250
 0
VERTEX
 8
CUERPO
 10
0
 20
0
 30
0
 70
128
 71
244
 72
220
 73
189
 74
189
 0
VERTEX
 8
CUERPO
 10
0
 20
0
 30
0
 70
128
 71
229
 72
250
 73
179
 74
179
 0
VERTEX
 8
CUERPO
 10
0
 20
0
 30
0
 70
128
 71
189
 72
220
 73
180
 74
190
 0
VERTEX
 8
CUERPO
 10
0
 20
0
 30
0
 70
128
 71
190
 72
180
 73
203
 74
191
 0
VERTEX
 8
CUERPO
 10
0
 20
0
 30
0
 70
128
 71
224
 72
192
 73
191
 74
203
 0
VERTEX
 8
CUERPO
 10
0
 20
0
 30
0
 70
128
 71
225
 72
171
 73
192
 74
224
 0
VERTEX
 8
CUERPO
 10
0
 20
0
 30
0
 70
128
 71
226
 72
194
 73
171
 74
225
 0
VERTEX
 8
CUERPO
 10
0
 20
0
 30
0
 70
128
 71
193
 72
181
 73
194
 74
226
 0
VERTEX
 8
CUERPO
 10
0
 20
0
 30
0
 70
128
 71
251
 72
252
 73
256
 74
255
 0
VERTEX
 8
CUERPO
 10
0
 20
0
 30
0
 70
128
 71
255
 72
256
 73
260
 74
259
 0
VERTEX
 8
CUERPO
 10
0
 20
0
 30
0
 70
128
 71
259
 72
260
 73
264
 74
263
 0
VERTEX
 8
CUERPO
 10
0
 20
0
 30
0
 70
128
 71
252
 72
253
 73
257
 74
256
 0
VERTEX
 8
CUERPO
 10
0
 20
0
 30
0
 70
128
 71
256
 72
257
 73
261
 74
260
 0
VERTEX
 8
CUERPO
 10
0
 20
0
 30
0
 70
128
 71
260
 72
261
 73
265
 74
264
 0
VERTEX
 8
CUERPO
 10
0
 20
0
 30
0
 70
128
 71
253
 72
254
 73
258
 74
257
 0
VERTEX
 8
CUERPO
 10
0
 20
0
 30
0
 70
128
 71
257
 72
258
 73
262
 74
261
 0
VERTEX
 8
CUERPO
 10
0
 20
0
 30
0
 70
128
 71
261
 72
262
 73
266
 74
265
 0
VERTEX
 8
CUERPO
 10
0
 20
0
 30
0
 70
128
 71
263
 72
264
 73
268
 74
267
 0
VERTEX
 8
CUERPO
 10
0
 20
0
 30
0
 70
128
 71
264
 72
265
 73
269
 74
268
 0
VERTEX
 8
CUERPO
 10
0
 20
0
 30
0
 70
128
 71
265
 72
266
 73
270
 74
269
 0
VERTEX
 8
CUERPO
 10
0
 20
0
 30
0
 70
128
 71
267
 72
268
 73
272
 74
271
 0
VERTEX
 8
CUERPO
 10
0
 20
0
 30
0
 70
128
 71
271
 72
272
 73
276
 74
275
 0
VERTEX
 8
CUERPO
 10
0
 20
0
 30
0
 70
128
 71
275
 72
276
 73
280
 74
279
 0
VERTEX
 8
CUERPO
 10
0
 20
0
 30
0
 70
128
 71
268
 72
269
 73
273
 74
272
 0
VERTEX
 8
CUERPO
 10
0
 20
0
 30
0
 70
128
 71
272
 72
273
 73
277
 74
276
 0
VERTEX
 8
CUERPO
 10
0
 20
0
 30
0
 70
128
 71
276
 72
277
 73
281
 74
280
 0
VERTEX
 8
CUERPO
 10
0
 20
0
 30
0
 70
128
 71
269
 72
270
 73
274
 74
273
 0
VERTEX
 8
CUERPO
 10
0
 20
0
 30
0
 70
128
 71
273
 72
274
 73
278
 74
277
 0
VERTEX
 8
CUERPO
 10
0
 20
0
 30
0
 70
128
 71
277
 72
278
 73
282
 74
281
 0
VERTEX
 8
CUERPO
 10
0
 20
0
 30
0
 70
128
 71
279
 72
280
 73
252
 74
251
 0
VERTEX
 8
CUERPO
 10
0
 20
0
 30
0
 70
128
 71
280
 72
281
 73
253
 74
252
 0
VERTEX
 8
CUERPO
 10
0
 20
0
 30
0
 70
128
 71
281
 72
282
 73
254
 74
253
 0
VERTEX
 8
CUERPO
 10
0
 20
0
 30
0
 70
128
 71
254
 72
282
 73
278
 74
258
 0
VERTEX
 8
CUERPO
 10
0
 20
0
 30
0
 70
128
 71
258
 72
278
 73
274
 74
262
 0
VERTEX
 8
CUERPO
 10
0
 20
0
 30
0
 70
128
 71
262
 72
274
 73
270
 74
266
 0
VERTEX
 8
CUERPO
 10
0
 20
0
 30
0
 70
128
 71
279
 72
251
 73
255
 74
275
 0
VERTEX
 8
CUERPO
 10
0
 20
0
 30
0
 70
128
 71
275
 72
255
 73
259
 74
271
 0
VERTEX
 8
CUERPO
 10
0
 20
0
 30
0
 70
128
 71
271
 72
259
 73
263
 74
267
 0
VERTEX
 8
CUERPO
 10
0
 20
0
 30
0
 70
128
 71
283
 72
284
 73
288
 74
287
 0
VERTEX
 8
CUERPO
 10
0
 20
0
 30
0
 70
128
 71
287
 72
288
 73
292
 74
291
 0
VERTEX
 8
CUERPO
 10
0
 20
0
 30
0
 70
128
 71
291
 72
292
 73
296
 74
295
 0
VERTEX
 8
CUERPO
 10
0
 20
0
 30
0
 70
128
 71
284
 72
285
 73
289
 74
288
 0
VERTEX
 8
CUERPO
 10
0
 20
0
 30
0
 70
128
 71
288
 72
289
 73
293
 74
292
 0
VERTEX
 8
CUERPO
 10
0
 20
0
 30
0
 70
128
 71
292
 72
293
 73
297
 74
296
 0
VERTEX
 8
CUERPO
 10
0
 20
0
 30
0
 70
128
 71
285
 72
286
 73
290
 74
289
 0
VERTEX
 8
CUERPO
 10
0
 20
0
 30
0
 70
128
 71
289
 72
290
 73
294
 74
293
 0
VERTEX
 8
CUERPO
 10
0
 20
0
 30
0
 70
128
 71
293
 72
294
 73
298
 74
297
 0
VERTEX
 8
CUERPO
 10
0
 20
0
 30
0
 70
128
 71
295
 72
296
 73
300
 74
299
 0
VERTEX
 8
CUERPO
 10
0
 20
0
 30
0
 70
128
 71
296
 72
297
 73
301
 74
300
 0
VERTEX
 8
CUERPO
 10
0
 20
0
 30
0
 70
128
 71
297
 72
298
 73
302
 74
301
 0
VERTEX
 8
CUERPO
 10
0
 20
0
 30
0
 70
128
 71
299
 72
300
 73
304
 74
303
 0
VERTEX
 8
CUERPO
 10
0
 20
0
 30
0
 70
128
 71
303
 72
304
 73
308
 74
307
 0
VERTEX
 8
CUERPO
 10
0
 20
0
 30
0
 70
128
 71
307
 72
308
 73
312
 74
311
 0
VERTEX
 8
CUERPO
 10
0
 20
0
 30
0
 70
128
 71
300
 72
301
 73
305
 74
304
 0
VERTEX
 8
CUERPO
 10
0
 20
0
 30
0
 70
128
 71
304
 72
305
 73
309
 74
308
 0
VERTEX
 8
CUERPO
 10
0
 20
0
 30
0
 70
128
 71
308
 72
309
 73
313
 74
312
 0
VERTEX
 8
CUERPO
 10
0
 20
0
 30
0
 70
128
 71
301
 72
302
 73
306
 74
305
 0
VERTEX
 8
CUERPO
 10
0
 20
0
 30
0
 70
128
 71
305
 72
306
 73
310
 74
309
 0
VERTEX
 8
CUERPO
 10
0
 20
0
 30
0
 70
128
 71
309
 72
310
 73
314
 74
313
 0
VERTEX
 8
CUERPO
 10
0
 20
0
 30
0
 70
128
 71
311
 72
312
 73
284
 74
283
 0
VERTEX
 8
CUERPO
 10
0
 20
0
 30
0
 70
128
 71
312
 72
313
 73
285
 74
284
 0
VERTEX
 8
CUERPO
 10
0
 20
0
 30
0
 70
128
 71
313
 72
314
 73
286
 74
285
 0
VERTEX
 8
CUERPO
 10
0
 20
0
 30
0
 70
128
 71
286
 72
314
 73
310
 74
290
 0
VERTEX
 8
CUERPO
 10
0
 20
0
 30
0
 70
128
 71
290
 72
310
 73
306
 74
294
 0
VERTEX
 8
CUERPO
 10
0
 20
0
 30
0
 70
128
 71
294
 72
306
 73
302
 74
298
 0
VERTEX
 8
CUERPO
 10
0
 20
0
 30
0
 70
128
 71
311
 72
283
 73
287
 74
307
 0
VERTEX
 8
CUERPO
 10
0
 20
0
 30
0
 70
128
 71
307
 72
287
 73
291
 74
303
 0
VERTEX
 8
CUERPO
 10
0
 20
0
 30
0
 70
128
 71
303
 72
291
 73
295
 74
299
 0
VERTEX
 8
CUERPO
 10
0
 20
0
 30
0
 70
128
 71
315
 72
316
 73
324
 74
323
 0
VERTEX
 8
CUERPO
 10
0
 20
0
 30
0
 70
128
 71
317
 72
318
 73
326
 74
325
 0
VERTEX
 8
CUERPO
 10
0
 20
0
 30
0
 70
128
 71
319
 72
320
 73
328
 74
327
 0
VERTEX
 8
CUERPO
 10
0
 20
0
 30
0
 70
128
 71
321
 72
322
 73
330
 74
329
 0
VERTEX
 8
CUERPO
 10
0
 20
0
 30
0
 70
128
 71
323
 72
324
 73
332
 74
331
 0
VERTEX
 8
CUERPO
 10
0
 20
0
 30
0
 70
128
 71
325
 72
326
 73
334
 74
333
 0
VERTEX
 8
CUERPO
 10
0
 20
0
 30
0
 70
128
 71
327
 72
328
 73
336
 74
335
 0
VERTEX
 8
CUERPO
 10
0
 20
0
 30
0
 70
128
 71
329
 72
330
 73
338
 74
337
 0
VERTEX
 8
CUERPO
 10
0
 20
0
 30
0
 70
128
 71
331
 72
332
 73
340
 74
339
 0
VERTEX
 8
CUERPO
 10
0
 20
0
 30
0
 70
128
 71
333
 72
334
 73
342
 74
341
 0
VERTEX
 8
CUERPO
 10
0
 20
0
 30
0
 70
128
 71
335
 72
336
 73
344
 74
343
 0
VERTEX
 8
CUERPO
 10
0
 20
0
 30
0
 70
128
 71
337
 72
338
 73
346
 74
345
 0
VERTEX
 8
CUERPO
 10
0
 20
0
 30
0
 70
128
 71
339
 72
340
 73
348
 74
347
 0
VERTEX
 8
CUERPO
 10
0
 20
0
 30
0
 70
128
 71
341
 72
342
 73
350
 74
349
 0
VERTEX
 8
CUERPO
 10
0
 20
0
 30
0
 70
128
 71
343
 72
344
 73
352
 74
351
 0
VERTEX
 8
CUERPO
 10
0
 20
0
 30
0
 70
128
 71
345
 72
346
 73
354
 74
353
 0
VERTEX
 8
CUERPO
 10
0
 20
0
 30
0
 70
128
 71
347
 72
348
 73
356
 74
355
 0
VERTEX
 8
CUERPO
 10
0
 20
0
 30
0
 70
128
 71
349
 72
350
 73
358
 74
357
 0
VERTEX
 8
CUERPO
 10
0
 20
0
 30
0
 70
128
 71
351
 72
352
 73
360
 74
359
 0
VERTEX
 8
CUERPO
 10
0
 20
0
 30
0
 70
128
 71
353
 72
354
 73
362
 74
361
 0
VERTEX
 8
CUERPO
 10
0
 20
0
 30
0
 70
128
 71
355
 72
356
 73
364
 74
363
 0
VERTEX
 8
CUERPO
 10
0
 20
0
 30
0
 70
128
 71
357
 72
358
 73
366
 74
365
 0
VERTEX
 8
CUERPO
 10
0
 20
0
 30
0
 70
128
 71
359
 72
360
 73
368
 74
367
 0
VERTEX
 8
CUERPO
 10
0
 20
0
 30
0
 70
128
 71
361
 72
362
 73
370
 74
369
 0
VERTEX
 8
CUERPO
 10
0
 20
0
 30
0
 70
128
 71
363
 72
364
 73
372
 74
371
 0
VERTEX
 8
CUERPO
 10
0
 20
0
 30
0
 70
128
 71
365
 72
366
 73
374
 74
373
 0
VERTEX
 8
CUERPO
 10
0
 20
0
 30
0
 70
128
 71
367
 72
368
 73
376
 74
375
 0
VERTEX
 8
CUERPO
 10
0
 20
0
 30
0
 70
128
 71
369
 72
370
 73
378
 74
377
 0
VERTEX
 8
CUERPO
 10
0
 20
0
 30
0
 70
128
 71
371
 72
372
 73
380
 74
379
 0
VERTEX
 8
CUERPO
 10
0
 20
0
 30
0
 70
128
 71
373
 72
374
 73
382
 74
381
 0
VERTEX
 8
CUERPO
 10
0
 20
0
 30
0
 70
128
 71
375
 72
376
 73
384
 74
383
 0
VERTEX
 8
CUERPO
 10
0
 20
0
 30
0
 70
128
 71
377
 72
378
 73
386
 74
385
 0
VERTEX
 8
CUERPO
 10
0
 20
0
 30
0
 70
128
 71
379
 72
380
 73
388
 74
387
 0
VERTEX
 8
CUERPO
 10
0
 20
0
 30
0
 70
128
 71
381
 72
382
 73
390
 74
389
 0
VERTEX
 8
CUERPO
 10
0
 20
0
 30
0
 70
128
 71
383
 72
384
 73
392
 74
391
 0
VERTEX
 8
CUERPO
 10
0
 20
0
 30
0
 70
128
 71
385
 72
386
 73
394
 74
393
 0
VERTEX
 8
CUERPO
 10
0
 20
0
 30
0
 70
128
 71
387
 72
388
 73
396
 74
395
 0
VERTEX
 8
CUERPO
 10
0
 20
0
 30
0
 70
128
 71
389
 72
390
 73
398
 74
397
 0
VERTEX
 8
CUERPO
 10
0
 20
0
 30
0
 70
128
 71
391
 72
392
 73
400
 74
399
 0
VERTEX
 8
CUERPO
 10
0
 20
0
 30
0
 70
128
 71
393
 72
394
 73
402
 74
401
 0
VERTEX
 8
CUERPO
 10
0
 20
0
 30
0
 70
128
 71
395
 72
396
 73
404
 74
403
 0
VERTEX
 8
CUERPO
 10
0
 20
0
 30
0
 70
128
 71
397
 72
398
 73
406
 74
405
 0
VERTEX
 8
CUERPO
 10
0
 20
0
 30
0
 70
128
 71
399
 72
400
 73
408
 74
407
 0
VERTEX
 8
CUERPO
 10
0
 20
0
 30
0
 70
128
 71
401
 72
402
 73
410
 74
409
 0
VERTEX
 8
CUERPO
 10
0
 20
0
 30
0
 70
128
 71
403
 72
404
 73
412
 74
411
 0
VERTEX
 8
CUERPO
 10
0
 20
0
 30
0
 70
128
 71
405
 72
406
 73
414
 74
413
 0
VERTEX
 8
CUERPO
 10
0
 20
0
 30
0
 70
128
 71
407
 72
408
 73
416
 74
415
 0
VERTEX
 8
CUERPO
 10
0
 20
0
 30
0
 70
128
 71
409
 72
410
 73
418
 74
417
 0
VERTEX
 8
CUERPO
 10
0
 20
0
 30
0
 70
128
 71
411
 72
412
 73
420
 74
419
 0
VERTEX
 8
CUERPO
 10
0
 20
0
 30
0
 70
128
 71
413
 72
414
 73
422
 74
421
 0
VERTEX
 8
CUERPO
 10
0
 20
0
 30
0
 70
128
 71
415
 72
416
 73
424
 74
423
 0
VERTEX
 8
CUERPO
 10
0
 20
0
 30
0
 70
128
 71
417
 72
418
 73
426
 74
425
 0
VERTEX
 8
CUERPO
 10
0
 20
0
 30
0
 70
128
 71
419
 72
420
 73
428
 74
427
 0
VERTEX
 8
CUERPO
 10
0
 20
0
 30
0
 70
128
 71
421
 72
422
 73
430
 74
429
 0
VERTEX
 8
CUERPO
 10
0
 20
0
 30
0
 70
128
 71
423
 72
424
 73
432
 74
431
 0
VERTEX
 8
CUERPO
 10
0
 20
0
 30
0
 70
128
 71
425
 72
426
 73
434
 74
433
 0
VERTEX
 8
CUERPO
 10
0
 20
0
 30
0
 70
128
 71
427
 72
428
 73
436
 74
435
 0
VERTEX
 8
CUERPO
 10
0
 20
0
 30
0
 70
128
 71
429
 72
430
 73
438
 74
437
 0
VERTEX
 8
CUERPO
 10
0
 20
0
 30
0
 70
128
 71
431
 72
432
 73
440
 74
439
 0
VERTEX
 8
CUERPO
 10
0
 20
0
 30
0
 70
128
 71
433
 72
434
 73
442
 74
441
 0
VERTEX
 8
CUERPO
 10
0
 20
0
 30
0
 70
128
 71
435
 72
436
 73
444
 74
443
 0
VERTEX
 8
CUERPO
 10
0
 20
0
 30
0
 70
128
 71
437
 72
438
 73
446
 74
445
 0
VERTEX
 8
CUERPO
 10
0
 20
0
 30
0
 70
128
 71
439
 72
440
 73
448
 74
447
 0
VERTEX
 8
CUERPO
 10
0
 20
0
 30
0
 70
128
 71
441
 72
442
 73
450
 74
449
 0
VERTEX
 8
CUERPO
 10
0
 20
0
 30
0
 70
128
 71
443
 72
444
 73
452
 74
451
 0
VERTEX
 8
CUERPO
 10
0
 20
0
 30
0
 70
128
 71
445
 72
446
 73
454
 74
453
 0
VERTEX
 8
CUERPO
 10
0
 20
0
 30
0
 70
128
 71
447
 72
448
 73
456
 74
455
 0
VERTEX
 8
CUERPO
 10
0
 20
0
 30
0
 70
128
 71
449
 72
450
 73
458
 74
457
 0
VERTEX
 8
CUERPO
 10
0
 20
0
 30
0
 70
128
 71
451
 72
452
 73
460
 74
459
 0
VERTEX
 8
CUERPO
 10
0
 20
0
 30
0
 70
128
 71
453
 72
454
 73
462
 74
461
 0
VERTEX
 8
CUERPO
 10
0
 20
0
 30
0
 70
128
 71
455
 72
456
 73
464
 74
463
 0
VERTEX
 8
CUERPO
 10
0
 20
0
 30
0
 70
128
 71
457
 72
458
 73
466
 74
465
 0
VERTEX
 8
CUERPO
 10
0
 20
0
 30
0
 70
128
 71
459
 72
460
 73
468
 74
467
 0
VERTEX
 8
CUERPO
 10
0
 20
0
 30
0
 70
128
 71
461
 72
462
 73
470
 74
469
 0
VERTEX
 8
CUERPO
 10
0
 20
0
 30
0
 70
128
 71
463
 72
464
 73
472
 74
471
 0
VERTEX
 8
CUERPO
 10
0
 20
0
 30
0
 70
128
 71
465
 72
466
 73
474
 74
473
 0
VERTEX
 8
CUERPO
 10
0
 20
0
 30
0
 70
128
 71
467
 72
468
 73
476
 74
475
 0
VERTEX
 8
CUERPO
 10
0
 20
0
 30
0
 70
128
 71
469
 72
470
 73
478
 74
477
 0
VERTEX
 8
CUERPO
 10
0
 20
0
 30
0
 70
128
 71
471
 72
472
 73
480
 74
479
 0
VERTEX
 8
CUERPO
 10
0
 20
0
 30
0
 70
128
 71
473
 72
474
 73
482
 74
481
 0
VERTEX
 8
CUERPO
 10
0
 20
0
 30
0
 70
128
 71
475
 72
476
 73
484
 74
483
 0
VERTEX
 8
CUERPO
 10
0
 20
0
 30
0
 70
128
 71
477
 72
478
 73
486
 74
485
 0
VERTEX
 8
CUERPO
 10
0
 20
0
 30
0
 70
128
 71
479
 72
480
 73
488
 74
487
 0
VERTEX
 8
CUERPO
 10
0
 20
0
 30
0
 70
128
 71
481
 72
482
 73
490
 74
489
 0
VERTEX
 8
CUERPO
 10
0
 20
0
 30
0
 70
128
 71
483
 72
484
 73
492
 74
491
 0
VERTEX
 8
CUERPO
 10
0
 20
0
 30
0
 70
128
 71
485
 72
486
 73
494
 74
493
 0
VERTEX
 8
CUERPO
 10
0
 20
0
 30
0
 70
128
 71
487
 72
488
 73
496
 74
495
 0
VERTEX
 8
CUERPO
 10
0
 20
0
 30
0
 70
128
 71
489
 72
490
 73
498
 74
497
 0
VERTEX
 8
CUERPO
 10
0
 20
0
 30
0
 70
128
 71
491
 72
492
 73
500
 74
499
 0
VERTEX
 8
CUERPO
 10
0
 20
0
 30
0
 70
128
 71
493
 72
494
 73
502
 74
501
 0
VERTEX
 8
CUERPO
 10
0
 20
0
 30
0
 70
128
 71
495
 72
496
 73
504
 74
503
 0
VERTEX
 8
CUERPO
 10
0
 20
0
 30
0
 70
128
 71
497
 72
498
 73
506
 74
505
 0
VERTEX
 8
CUERPO
 10
0
 20
0
 30
0
 70
128
 71
499
 72
500
 73
508
 74
507
 0
VERTEX
 8
CUERPO
 10
0
 20
0
 30
0
 70
128
 71
501
 72
502
 73
510
 74
509
 0
VERTEX
 8
CUERPO
 10
0
 20
0
 30
0
 70
128
 71
503
 72
504
 73
512
 74
511
 0
VERTEX
 8
CUERPO
 10
0
 20
0
 30
0
 70
128
 71
505
 72
506
 73
514
 74
513
 0
VERTEX
 8
CUERPO
 10
0
 20
0
 30
0
 70
128
 71
507
 72
508
 73
516
 74
515
 0
VERTEX
 8
CUERPO
 10
0
 20
0
 30
0
 70
128
 71
509
 72
510
 73
518
 74
517
 0
VERTEX
 8
CUERPO
 10
0
 20
0
 30
0
 70
128
 71
511
 72
512
 73
520
 74
519
 0
VERTEX
 8
CUERPO
 10
0
 20
0
 30
0
 70
128
 71
513
 72
514
 73
522
 74
521
 0
VERTEX
 8
CUERPO
 10
0
 20
0
 30
0
 70
128
 71
515
 72
516
 73
524
 74
523
 0
VERTEX
 8
CUERPO
 10
0
 20
0
 30
0
 70
128
 71
517
 72
518
 73
526
 74
525
 0
VERTEX
 8
CUERPO
 10
0
 20
0
 30
0
 70
128
 71
519
 72
520
 73
528
 74
527
 0
VERTEX
 8
CUERPO
 10
0
 20
0
 30
0
 70
128
 71
521
 72
522
 73
530
 74
529
 0
VERTEX
 8
CUERPO
 10
0
 20
0
 30
0
 70
128
 71
523
 72
524
 73
532
 74
531
 0
VERTEX
 8
CUERPO
 10
0
 20
0
 30
0
 70
128
 71
525
 72
526
 73
534
 74
533
 0
VERTEX
 8
CUERPO
 10
0
 20
0
 30
0
 70
128
 71
527
 72
528
 73
536
 74
535
 0
VERTEX
 8
CUERPO
 10
0
 20
0
 30
0
 70
128
 71
529
 72
530
 73
538
 74
537
 0
VERTEX
 8
CUERPO
 10
0
 20
0
 30
0
 70
128
 71
531
 72
532
 73
540
 74
539
 0
VERTEX
 8
CUERPO
 10
0
 20
0
 30
0
 70
128
 71
533
 72
534
 73
542
 74
541
 0
VERTEX
 8
CUERPO
 10
0
 20
0
 30
0
 70
128
 71
535
 72
536
 73
544
 74
543
 0
VERTEX
 8
CUERPO
 10
0
 20
0
 30
0
 70
128
 71
537
 72
538
 73
546
 74
545
 0
VERTEX
 8
CUERPO
 10
0
 20
0
 30
0
 70
128
 71
539
 72
540
 73
548
 74
547
 0
VERTEX
 8
CUERPO
 10
0
 20
0
 30
0
 70
128
 71
541
 72
542
 73
550
 74
549
 0
VERTEX
 8
CUERPO
 10
0
 20
0
 30
0
 70
128
 71
543
 72
544
 73
552
 74
551
 0
VERTEX
 8
CUERPO
 10
0
 20
0
 30
0
 70
128
 71
545
 72
546
 73
554
 74
553
 0
VERTEX
 8
CUERPO
 10
0
 20
0
 30
0
 70
128
 71
547
 72
548
 73
556
 74
555
 0
VERTEX
 8
CUERPO
 10
0
 20
0
 30
0
 70
128
 71
549
 72
550
 73
558
 74
557
 0
VERTEX
 8
CUERPO
 10
0
 20
0
 30
0
 70
128
 71
551
 72
552
 73
560
 74
559
 0
VERTEX
 8
CUERPO
 10
0
 20
0
 30
0
 70
128
 71
553
 72
554
 73
562
 74
561
 0
VERTEX
 8
CUERPO
 10
0
 20
0
 30
0
 70
128
 71
555
 72
556
 73
564
 74
563
 0
VERTEX
 8
CUERPO
 10
0
 20
0
 30
0
 70
128
 71
557
 72
558
 73
566
 74
565
 0
VERTEX
 8
CUERPO
 10
0
 20
0
 30
0
 70
128
 71
559
 72
560
 73
568
 74
567
 0
VERTEX
 8
CUERPO
 10
0
 20
0
 30
0
 70
128
 71
561
 72
562
 73
570
 74
569
 0
VERTEX
 8
CUERPO
 10
0
 20
0
 30
0
 70
128
 71
563
 72
564
 73
572
 74
571
 0
VERTEX
 8
CUERPO
 10
0
 20
0
 30
0
 70
128
 71
565
 72
566
 73
574
 74
573
 0
VERTEX
 8
CUERPO
 10
0
 20
0
 30
0
 70
128
 71
567
 72
568
 73
576
 74
575
 0
VERTEX
 8
CUERPO
 10
0
 20
0
 30
0
 70
128
 71
569
 72
570
 73
578
 74
577
 0
VERTEX
 8
CUERPO
 10
0
 20
0
 30
0
 70
128
 71
571
 72
572
 73
580
 74
579
 0
VERTEX
 8
CUERPO
 10
0
 20
0
 30
0
 70
128
 71
573
 72
574
 73
582
 74
581
 0
VERTEX
 8
CUERPO
 10
0
 20
0
 30
0
 70
128
 71
575
 72
576
 73
584
 74
583
 0
VERTEX
 8
CUERPO
 10
0
 20
0
 30
0
 70
128
 71
577
 72
578
 73
586
 74
585
 0
VERTEX
 8
CUERPO
 10
0
 20
0
 30
0
 70
128
 71
579
 72
580
 73
588
 74
587
 0
VERTEX
 8
CUERPO
 10
0
 20
0
 30
0
 70
128
 71
581
 72
582
 73
590
 74
589
 0
VERTEX
 8
CUERPO
 10
0
 20
0
 30
0
 70
128
 71
583
 72
584
 73
592
 74
591
 0
VERTEX
 8
CUERPO
 10
0
 20
0
 30
0
 70
128
 71
585
 72
586
 73
594
 74
593
 0
VERTEX
 8
CUERPO
 10
0
 20
0
 30
0
 70
128
 71
587
 72
588
 73
596
 74
595
 0
VERTEX
 8
CUERPO
 10
0
 20
0
 30
0
 70
128
 71
589
 72
590
 73
598
 74
597
 0
VERTEX
 8
CUERPO
 10
0
 20
0
 30
0
 70
128
 71
591
 72
592
 73
600
 74
599
 0
VERTEX
 8
CUERPO
 10
0
 20
0
 30
0
 70
128
 71
593
 72
594
 73
602
 74
601
 0
VERTEX
 8
CUERPO
 10
0
 20
0
 30
0
 70
128
 71
595
 72
596
 73
316
 74
315
 0
VERTEX
 8
CUERPO
 10
0
 20
0
 30
0
 70
128
 71
597
 72
598
 73
318
 74
317
 0
VERTEX
 8
CUERPO
 10
0
 20
0
 30
0
 70
128
 71
599
 72
600
 73
320
 74
319
 0
VERTEX
 8
CUERPO
 10
0
 20
0
 30
0
 70
128
 71
601
 72
602
 73
322
 74
321
 0
VERTEX
 8
CUERPO
 10
0
 20
0
 30
0
 70
128
 71
603
 72
604
 73
612
 74
611
 0
VERTEX
 8
CUERPO
 10
0
 20
0
 30
0
 70
128
 71
605
 72
606
 73
614
 74
613
 0
VERTEX
 8
CUERPO
 10
0
 20
0
 30
0
 70
128
 71
607
 72
608
 73
616
 74
615
 0
VERTEX
 8
CUERPO
 10
0
 20
0
 30
0
 70
128
 71
609
 72
610
 73
618
 74
617
 0
VERTEX
 8
CUERPO
 10
0
 20
0
 30
0
 70
128
 71
611
 72
612
 73
620
 74
619
 0
VERTEX
 8
CUERPO
 10
0
 20
0
 30
0
 70
128
 71
613
 72
614
 73
622
 74
621
 0
VERTEX
 8
CUERPO
 10
0
 20
0
 30
0
 70
128
 71
615
 72
616
 73
624
 74
623
 0
VERTEX
 8
CUERPO
 10
0
 20
0
 30
0
 70
128
 71
617
 72
618
 73
626
 74
625
 0
VERTEX
 8
CUERPO
 10
0
 20
0
 30
0
 70
128
 71
619
 72
620
 73
628
 74
627
 0
VERTEX
 8
CUERPO
 10
0
 20
0
 30
0
 70
128
 71
621
 72
622
 73
630
 74
629
 0
VERTEX
 8
CUERPO
 10
0
 20
0
 30
0
 70
128
 71
623
 72
624
 73
632
 74
631
 0
VERTEX
 8
CUERPO
 10
0
 20
0
 30
0
 70
128
 71
625
 72
626
 73
634
 74
633
 0
VERTEX
 8
CUERPO
 10
0
 20
0
 30
0
 70
128
 71
627
 72
628
 73
636
 74
635
 0
VERTEX
 8
CUERPO
 10
0
 20
0
 30
0
 70
128
 71
629
 72
630
 73
638
 74
637
 0
VERTEX
 8
CUERPO
 10
0
 20
0
 30
0
 70
128
 71
631
 72
632
 73
640
 74
639
 0
VERTEX
 8
CUERPO
 10
0
 20
0
 30
0
 70
128
 71
633
 72
634
 73
642
 74
641
 0
VERTEX
 8
CUERPO
 10
0
 20
0
 30
0
 70
128
 71
635
 72
636
 73
644
 74
643
 0
VERTEX
 8
CUERPO
 10
0
 20
0
 30
0
 70
128
 71
637
 72
638
 73
646
 74
645
 0
VERTEX
 8
CUERPO
 10
0
 20
0
 30
0
 70
128
 71
639
 72
640
 73
648
 74
647
 0
VERTEX
 8
CUERPO
 10
0
 20
0
 30
0
 70
128
 71
641
 72
642
 73
650
 74
649
 0
VERTEX
 8
CUERPO
 10
0
 20
0
 30
0
 70
128
 71
643
 72
644
 73
652
 74
651
 0
VERTEX
 8
CUERPO
 10
0
 20
0
 30
0
 70
128
 71
645
 72
646
 73
654
 74
653
 0
VERTEX
 8
CUERPO
 10
0
 20
0
 30
0
 70
128
 71
647
 72
648
 73
656
 74
655
 0
VERTEX
 8
CUERPO
 10
0
 20
0
 30
0
 70
128
 71
649
 72
650
 73
658
 74
657
 0
VERTEX
 8
CUERPO
 10
0
 20
0
 30
0
 70
128
 71
651
 72
652
 73
660
 74
659
 0
VERTEX
 8
CUERPO
 10
0
 20
0
 30
0
 70
128
 71
653
 72
654
 73
662
 74
661
 0
VERTEX
 8
CUERPO
 10
0
 20
0
 30
0
 70
128
 71
655
 72
656
 73
664
 74
663
 0
VERTEX
 8
CUERPO
 10
0
 20
0
 30
0
 70
128
 71
657
 72
658
 73
666
 74
665
 0
VERTEX
 8
CUERPO
 10
0
 20
0
 30
0
 70
128
 71
659
 72
660
 73
668
 74
667
 0
VERTEX
 8
CUERPO
 10
0
 20
0
 30
0
 70
128
 71
661
 72
662
 73
670
 74
669
 0
VERTEX
 8
CUERPO
 10
0
 20
0
 30
0
 70
128
 71
663
 72
664
 73
672
 74
671
 0
VERTEX
 8
CUERPO
 10
0
 20
0
 30
0
 70
128
 71
665
 72
666
 73
674
 74
673
 0
VERTEX
 8
CUERPO
 10
0
 20
0
 30
0
 70
128
 71
667
 72
668
 73
676
 74
675
 0
VERTEX
 8
CUERPO
 10
0
 20
0
 30
0
 70
128
 71
669
 72
670
 73
678
 74
677
 0
VERTEX
 8
CUERPO
 10
0
 20
0
 30
0
 70
128
 71
671
 72
672
 73
680
 74
679
 0
VERTEX
 8
CUERPO
 10
0
 20
0
 30
0
 70
128
 71
673
 72
674
 73
682
 74
681
 0
VERTEX
 8
CUERPO
 10
0
 20
0
 30
0
 70
128
 71
675
 72
676
 73
684
 74
683
 0
VERTEX
 8
CUERPO
 10
0
 20
0
 30
0
 70
128
 71
677
 72
678
 73
686
 74
685
 0
VERTEX
 8
CUERPO
 10
0
 20
0
 30
0
 70
128
 71
679
 72
680
 73
688
 74
687
 0
VERTEX
 8
CUERPO
 10
0
 20
0
 30
0
 70
128
 71
681
 72
682
 73
690
 74
689
 0
VERTEX
 8
CUERPO
 10
0
 20
0
 30
0
 70
128
 71
683
 72
684
 73
692
 74
691
 0
VERTEX
 8
CUERPO
 10
0
 20
0
 30
0
 70
128
 71
685
 72
686
 73
694
 74
693
 0
VERTEX
 8
CUERPO
 10
0
 20
0
 30
0
 70
128
 71
687
 72
688
 73
696
 74
695
 0
VERTEX
 8
CUERPO
 10
0
 20
0
 30
0
 70
128
 71
689
 72
690
 73
698
 74
697
 0
VERTEX
 8
CUERPO
 10
0
 20
0
 30
0
 70
128
 71
691
 72
692
 73
700
 74
699
 0
VERTEX
 8
CUERPO
 10
0
 20
0
 30
0
 70
128
 71
693
 72
694
 73
702
 74
701
 0
VERTEX
 8
CUERPO
 10
0
 20
0
 30
0
 70
128
 71
695
 72
696
 73
704
 74
703
 0
VERTEX
 8
CUERPO
 10
0
 20
0
 30
0
 70
128
 71
697
 72
698
 73
706
 74
705
 0
VERTEX
 8
CUERPO
 10
0
 20
0
 30
0
 70
128
 71
699
 72
700
 73
708
 74
707
 0
VERTEX
 8
CUERPO
 10
0
 20
0
 30
0
 70
128
 71
701
 72
702
 73
710
 74
709
 0
VERTEX
 8
CUERPO
 10
0
 20
0
 30
0
 70
128
 71
703
 72
704
 73
712
 74
711
 0
VERTEX
 8
CUERPO
 10
0
 20
0
 30
0
 70
128
 71
705
 72
706
 73
714
 74
713
 0
VERTEX
 8
CUERPO
 10
0
 20
0
 30
0
 70
128
 71
707
 72
708
 73
716
 74
715
 0
VERTEX
 8
CUERPO
 10
0
 20
0
 30
0
 70
128
 71
709
 72
710
 73
718
 74
717
 0
VERTEX
 8
CUERPO
 10
0
 20
0
 30
0
 70
128
 71
711
 72
712
 73
720
 74
719
 0
VERTEX
 8
CUERPO
 10
0
 20
0
 30
0
 70
128
 71
713
 72
714
 73
722
 74
721
 0
VERTEX
 8
CUERPO
 10
0
 20
0
 30
0
 70
128
 71
715
 72
716
 73
724
 74
723
 0
VERTEX
 8
CUERPO
 10
0
 20
0
 30
0
 70
128
 71
717
 72
718
 73
726
 74
725
 0
VERTEX
 8
CUERPO
 10
0
 20
0
 30
0
 70
128
 71
719
 72
720
 73
728
 74
727
 0
VERTEX
 8
CUERPO
 10
0
 20
0
 30
0
 70
128
 71
721
 72
722
 73
730
 74
729
 0
VERTEX
 8
CUERPO
 10
0
 20
0
 30
0
 70
128
 71
723
 72
724
 73
732
 74
731
 0
VERTEX
 8
CUERPO
 10
0
 20
0
 30
0
 70
128
 71
725
 72
726
 73
734
 74
733
 0
VERTEX
 8
CUERPO
 10
0
 20
0
 30
0
 70
128
 71
727
 72
728
 73
736
 74
735
 0
VERTEX
 8
CUERPO
 10
0
 20
0
 30
0
 70
128
 71
729
 72
730
 73
738
 74
737
 0
VERTEX
 8
CUERPO
 10
0
 20
0
 30
0
 70
128
 71
731
 72
732
 73
740
 74
739
 0
VERTEX
 8
CUERPO
 10
0
 20
0
 30
0
 70
128
 71
733
 72
734
 73
742
 74
741
 0
VERTEX
 8
CUERPO
 10
0
 20
0
 30
0
 70
128
 71
735
 72
736
 73
744
 74
743
 0
VERTEX
 8
CUERPO
 10
0
 20
0
 30
0
 70
128
 71
737
 72
738
 73
746
 74
745
 0
VERTEX
 8
CUERPO
 10
0
 20
0
 30
0
 70
128
 71
739
 72
740
 73
748
 74
747
 0
VERTEX
 8
CUERPO
 10
0
 20
0
 30
0
 70
128
 71
741
 72
742
 73
750
 74
749
 0
VERTEX
 8
CUERPO
 10
0
 20
0
 30
0
 70
128
 71
743
 72
744
 73
752
 74
751
 0
VERTEX
 8
CUERPO
 10
0
 20
0
 30
0
 70
128
 71
745
 72
746
 73
754
 74
753
 0
VERTEX
 8
CUERPO
 10
0
 20
0
 30
0
 70
128
 71
747
 72
748
 73
756
 74
755
 0
VERTEX
 8
CUERPO
 10
0
 20
0
 30
0
 70
128
 71
749
 72
750
 73
758
 74
757
 0
VERTEX
 8
CUERPO
 10
0
 20
0
 30
0
 70
128
 71
751
 72
752
 73
760
 74
759
 0
VERTEX
 8
CUERPO
 10
0
 20
0
 30
0
 70
128
 71
753
 72
754
 73
762
 74
761
 0
VERTEX
 8
CUERPO
 10
0
 20
0
 30
0
 70
128
 71
755
 72
756
 73
764
 74
763
 0
VERTEX
 8
CUERPO
 10
0
 20
0
 30
0
 70
128
 71
757
 72
758
 73
766
 74
765
 0
VERTEX
 8
CUERPO
 10
0
 20
0
 30
0
 70
128
 71
759
 72
760
 73
768
 74
767
 0
VERTEX
 8
CUERPO
 10
0
 20
0
 30
0
 70
128
 71
761
 72
762
 73
770
 74
769
 0
VERTEX
 8
CUERPO
 10
0
 20
0
 30
0
 70
128
 71
763
 72
764
 73
772
 74
771
 0
VERTEX
 8
CUERPO
 10
0
 20
0
 30
0
 70
128
 71
765
 72
766
 73
774
 74
773
 0
VERTEX
 8
CUERPO
 10
0
 20
0
 30
0
 70
128
 71
767
 72
768
 73
776
 74
775
 0
VERTEX
 8
CUERPO
 10
0
 20
0
 30
0
 70
128
 71
769
 72
770
 73
778
 74
777
 0
VERTEX
 8
CUERPO
 10
0
 20
0
 30
0
 70
128
 71
771
 72
772
 73
780
 74
779
 0
VERTEX
 8
CUERPO
 10
0
 20
0
 30
0
 70
128
 71
773
 72
774
 73
782
 74
781
 0
VERTEX
 8
CUERPO
 10
0
 20
0
 30
0
 70
128
 71
775
 72
776
 73
784
 74
783
 0
VERTEX
 8
CUERPO
 10
0
 20
0
 30
0
 70
128
 71
777
 72
778
 73
786
 74
785
 0
VERTEX
 8
CUERPO
 10
0
 20
0
 30
0
 70
128
 71
779
 72
780
 73
788
 74
787
 0
VERTEX
 8
CUERPO
 10
0
 20
0
 30
0
 70
128
 71
781
 72
782
 73
790
 74
789
 0
VERTEX
 8
CUERPO
 10
0
 20
0
 30
0
 70
128
 71
783
 72
784
 73
792
 74
791
 0
VERTEX
 8
CUERPO
 10
0
 20
0
 30
0
 70
128
 71
785
 72
786
 73
794
 74
793
 0
VERTEX
 8
CUERPO
 10
0
 20
0
 30
0
 70
128
 71
787
 72
788
 73
796
 74
795
 0
VERTEX
 8
CUERPO
 10
0
 20
0
 30
0
 70
128
 71
789
 72
790
 73
798
 74
797
 0
VERTEX
 8
CUERPO
 10
0
 20
0
 30
0
 70
128
 71
791
 72
792
 73
800
 74
799
 0
VERTEX
 8
CUERPO
 10
0
 20
0
 30
0
 70
128
 71
793
 72
794
 73
802
 74
801
 0
VERTEX
 8
CUERPO
 10
0
 20
0
 30
0
 70
128
 71
795
 72
796
 73
804
 74
803
 0
VERTEX
 8
CUERPO
 10
0
 20
0
 30
0
 70
128
 71
797
 72
798
 73
806
 74
805
 0
VERTEX
 8
CUERPO
 10
0
 20
0
 30
0
 70
128
 71
799
 72
800
 73
808
 74
807
 0
VERTEX
 8
CUERPO
 10
0
 20
0
 30
0
 70
128
 71
801
 72
802
 73
810
 74
809
 0
VERTEX
 8
CUERPO
 10
0
 20
0
 30
0
 70
128
 71
803
 72
804
 73
812
 74
811
 0
VERTEX
 8
CUERPO
 10
0
 20
0
 30
0
 70
128
 71
805
 72
806
 73
814
 74
813
 0
VERTEX
 8
CUERPO
 10
0
 20
0
 30
0
 70
128
 71
807
 72
808
 73
816
 74
815
 0
VERTEX
 8
CUERPO
 10
0
 20
0
 30
0
 70
128
 71
809
 72
810
 73
818
 74
817
 0
VERTEX
 8
CUERPO
 10
0
 20
0
 30
0
 70
128
 71
811
 72
812
 73
820
 74
819
 0
VERTEX
 8
CUERPO
 10
0
 20
0
 30
0
 70
128
 71
813
 72
814
 73
822
 74
821
 0
VERTEX
 8
CUERPO
 10
0
 20
0
 30
0
 70
128
 71
815
 72
816
 73
824
 74
823
 0
VERTEX
 8
CUERPO
 10
0
 20
0
 30
0
 70
128
 71
817
 72
818
 73
826
 74
825
 0
VERTEX
 8
CUERPO
 10
0
 20
0
 30
0
 70
128
 71
819
 72
820
 73
828
 74
827
 0
VERTEX
 8
CUERPO
 10
0
 20
0
 30
0
 70
128
 71
821
 72
822
 73
830
 74
829
 0
VERTEX
 8
CUERPO
 10
0
 20
0
 30
0
 70
128
 71
823
 72
824
 73
832
 74
831
 0
VERTEX
 8
CUERPO
 10
0
 20
0
 30
0
 70
128
 71
825
 72
826
 73
834
 74
833
 0
VERTEX
 8
CUERPO
 10
0
 20
0
 30
0
 70
128
 71
827
 72
828
 73
836
 74
835
 0
VERTEX
 8
CUERPO
 10
0
 20
0
 30
0
 70
128
 71
829
 72
830
 73
838
 74
837
 0
VERTEX
 8
CUERPO
 10
0
 20
0
 30
0
 70
128
 71
831
 72
832
 73
840
 74
839
 0
VERTEX
 8
CUERPO
 10
0
 20
0
 30
0
 70
128
 71
833
 72
834
 73
842
 74
841
 0
VERTEX
 8
CUERPO
 10
0
 20
0
 30
0
 70
128
 71
835
 72
836
 73
844
 74
843
 0
VERTEX
 8
CUERPO
 10
0
 20
0
 30
0
 70
128
 71
837
 72
838
 73
846
 74
845
 0
VERTEX
 8
CUERPO
 10
0
 20
0
 30
0
 70
128
 71
839
 72
840
 73
848
 74
847
 0
VERTEX
 8
CUERPO
 10
0
 20
0
 30
0
 70
128
 71
841
 72
842
 73
850
 74
849
 0
VERTEX
 8
CUERPO
 10
0
 20
0
 30
0
 70
128
 71
843
 72
844
 73
852
 74
851
 0
VERTEX
 8
CUERPO
 10
0
 20
0
 30
0
 70
128
 71
845
 72
846
 73
854
 74
853
 0
VERTEX
 8
CUERPO
 10
0
 20
0
 30
0
 70
128
 71
847
 72
848
 73
856
 74
855
 0
VERTEX
 8
CUERPO
 10
0
 20
0
 30
0
 70
128
 71
849
 72
850
 73
858
 74
857
 0
VERTEX
 8
CUERPO
 10
0
 20
0
 30
0
 70
128
 71
851
 72
852
 73
860
 74
859
 0
VERTEX
 8
CUERPO
 10
0
 20
0
 30
0
 70
128
 71
853
 72
854
 73
862
 74
861
 0
VERTEX
 8
CUERPO
 10
0
 20
0
 30
0
 70
128
 71
855
 72
856
 73
864
 74
863
 0
VERTEX
 8
CUERPO
 10
0
 20
0
 30
0
 70
128
 71
857
 72
858
 73
866
 74
865
 0
VERTEX
 8
CUERPO
 10
0
 20
0
 30
0
 70
128
 71
859
 72
860
 73
868
 74
867
 0
VERTEX
 8
CUERPO
 10
0
 20
0
 30
0
 70
128
 71
861
 72
862
 73
870
 74
869
 0
VERTEX
 8
CUERPO
 10
0
 20
0
 30
0
 70
128
 71
863
 72
864
 73
872
 74
871
 0
VERTEX
 8
CUERPO
 10
0
 20
0
 30
0
 70
128
 71
865
 72
866
 73
874
 74
873
 0
VERTEX
 8
CUERPO
 10
0
 20
0
 30
0
 70
128
 71
867
 72
868
 73
876
 74
875
 0
VERTEX
 8
CUERPO
 10
0
 20
0
 30
0
 70
128
 71
869
 72
870
 73
878
 74
877
 0
VERTEX
 8
CUERPO
 10
0
 20
0
 30
0
 70
128
 71
871
 72
872
 73
880
 74
879
 0
VERTEX
 8
CUERPO
 10
0
 20
0
 30
0
 70
128
 71
873
 72
874
 73
882
 74
881
 0
VERTEX
 8
CUERPO
 10
0
 20
0
 30
0
 70
128
 71
875
 72
876
 73
884
 74
883
 0
VERTEX
 8
CUERPO
 10
0
 20
0
 30
0
 70
128
 71
877
 72
878
 73
886
 74
885
 0
VERTEX
 8
CUERPO
 10
0
 20
0
 30
0
 70
128
 71
879
 72
880
 73
888
 74
887
 0
VERTEX
 8
CUERPO
 10
0
 20
0
 30
0
 70
128
 71
881
 72
882
 73
890
 74
889
 0
VERTEX
 8
CUERPO
 10
0
 20
0
 30
0
 70
128
 71
883
 72
884
 73
604
 74
603
 0
VERTEX
 8
CUERPO
 10
0
 20
0
 30
0
 70
128
 71
885
 72
886
 73
606
 74
605
 0
VERTEX
 8
CUERPO
 10
0
 20
0
 30
0
 70
128
 71
887
 72
888
 73
608
 74
607
 0
VERTEX
 8
CUERPO
 10
0
 20
0
 30
0
 70
128
 71
889
 72
890
 73
610
 74
609
 0
VERTEX
 8
CUERPO
 10
0
 20
0
 30
0
 70
128
 71
891
 72
892
 73
894
 74
893
 0
VERTEX
 8
CUERPO
 10
0
 20
0
 30
0
 70
128
 71
893
 72
894
 73
896
 74
895
 0
VERTEX
 8
CUERPO
 10
0
 20
0
 30
0
 70
128
 71
895
 72
896
 73
898
 74
897
 0
VERTEX
 8
CUERPO
 10
0
 20
0
 30
0
 70
128
 71
897
 72
898
 73
900
 74
899
 0
VERTEX
 8
CUERPO
 10
0
 20
0
 30
0
 70
128
 71
899
 72
900
 73
902
 74
901
 0
VERTEX
 8
CUERPO
 10
0
 20
0
 30
0
 70
128
 71
901
 72
902
 73
892
 74
891
 0
VERTEX
 8
CUERPO
 10
0
 20
0
 30
0
 70
128
 71
892
 72
902
 73
900
 74
894
 0
VERTEX
 8
CUERPO
 10
0
 20
0
 30
0
 70
128
 71
894
 72
900
 73
898
 74
896
 0
VERTEX
 8
CUERPO
 10
0
 20
0
 30
0
 70
128
 71
901
 72
891
 73
893
 74
899
 0
VERTEX
 8
CUERPO
 10
0
 20
0
 30
0
 70
128
 71
899
 72
893
 73
895
 74
897
 0
VERTEX
 8
CUERPO
 10
0
 20
0
 30
0
 70
128
 71
903
 72
904
 73
906
 74
905
 0
VERTEX
 8
CUERPO
 10
0
 20
0
 30
0
 70
128
 71
905
 72
906
 73
908
 74
907
 0
VERTEX
 8
CUERPO
 10
0
 20
0
 30
0
 70
128
 71
907
 72
908
 73
910
 74
909
 0
VERTEX
 8
CUERPO
 10
0
 20
0
 30
0
 70
128
 71
909
 72
910
 73
912
 74
911
 0
VERTEX
 8
CUERPO
 10
0
 20
0
 30
0
 70
128
 71
911
 72
912
 73
914
 74
913
 0
VERTEX
 8
CUERPO
 10
0
 20
0
 30
0
 70
128
 71
913
 72
914
 73
916
 74
915
 0
VERTEX
 8
CUERPO
 10
0
 20
0
 30
0
 70
128
 71
915
 72
916
 73
918
 74
917
 0
VERTEX
 8
CUERPO
 10
0
 20
0
 30
0
 70
128
 71
917
 72
918
 73
920
 74
919
 0
VERTEX
 8
CUERPO
 10
0
 20
0
 30
0
 70
128
 71
919
 72
920
 73
922
 74
921
 0
VERTEX
 8
CUERPO
 10
0
 20
0
 30
0
 70
128
 71
921
 72
922
 73
904
 74
903
 0
VERTEX
 8
CUERPO
 10
0
 20
0
 30
0
 70
128
 71
904
 72
922
 73
920
 74
906
 0
VERTEX
 8
CUERPO
 10
0
 20
0
 30
0
 70
128
 71
906
 72
920
 73
918
 74
908
 0
VERTEX
 8
CUERPO
 10
0
 20
0
 30
0
 70
128
 71
908
 72
918
 73
916
 74
910
 0
VERTEX
 8
CUERPO
 10
0
 20
0
 30
0
 70
128
 71
910
 72
916
 73
914
 74
912
 0
VERTEX
 8
CUERPO
 10
0
 20
0
 30
0
 70
128
 71
921
 72
903
 73
905
 74
919
 0
VERTEX
 8
CUERPO
 10
0
 20
0
 30
0
 70
128
 71
919
 72
905
 73
907
 74
917
 0
VERTEX
 8
CUERPO
 10
0
 20
0
 30
0
 70
128
 71
917
 72
907
 73
909
 74
915
 0
VERTEX
 8
CUERPO
 10
0
 20
0
 30
0
 70
128
 71
915
 72
909
 73
911
 74
913
 0
SEQEND
 0
POLYLINE
 8
GATILLO
 66
1
 10
0.0
 20
0.0
 30
0.0
 70
64
 71
8
 72
6
 0
VERTEX
 8
GATILLO
 10
0.3563
 20
-0.0128
 30
2.017
 70
192
 0
VERTEX
 8
GATILLO
 10
0.364
 20
-0.0128
 30
2.0859
 70
192
 0
VERTEX
 8
GATILLO
 10
0.3665
 20
-0.0128
 30
2.0158
 70
192
 0
VERTEX
 8
GATILLO
 10
0.3742
 20
-0.0128
 30
2.0848
 70
192
 0
VERTEX
 8
GATILLO
 10
0.3665
 20
0.0128
 30
2.0158
 70
192
 0
VERTEX
 8
GATILLO
 10
0.3742
 20
0.0128
 30
2.0848
 70
192
 0
VERTEX
 8
GATILLO
 10
0.3563
 20
0.0128
 30
2.017
 70
192
 0
VERTEX
 8
GATILLO
 10
0.364
 20
0.0128
 30
2.0859
 70
192
 0
VERTEX
 8
GATILLO
 10
0
 20
0
 30
0
 70
128
 71
1
 72
2
 73
4
 74
3
 0
VERTEX
 8
GATILLO
 10
0
 20
0
 30
0
 70
128
 71
3
 72
4
 73
6
 74
5
 0
VERTEX
 8
GATILLO
 10
0
 20
0
 30
0
 70
128
 71
5
 72
6
 73
8
 74
7
 0
VERTEX
 8
GATILLO
 10
0
 20
0
 30
0
 70
128
 71
7
 72
8
 73
2
 74
1
 0
VERTEX
 8
GATILLO
 10
0
 20
0
 30
0
 70
128
 71
2
 72
8
 73
6
 74
4
 0
VERTEX
 8
GATILLO
 10
0
 20
0
 30
0
 70
128
 71
7
 72
1
 73
3
 74
5
 0
SEQEND
 0
POLYLINE
 8
CARGADOR
 66
1
 10
0.0
 20
0.0
 30
0.0
 70
64
 71
8
 72
6
 0
VERTEX
 8
CARGADOR
 10
0.4515
 20
-0.0427
 30
1.2706
 70
192
 0
VERTEX
 8
CARGADOR
 10
0.4515
 20
-0.0427
 30
2.0123
 70
192
 0
VERTEX
 8
CARGADOR
 10
0.6052
 20
-0.0427
 30
1.2706
 70
192
 0
VERTEX
 8
CARGADOR
 10
0.6052
 20
-0.0427
 30
2.0123
 70
192
 0
VERTEX
 8
CARGADOR
 10
0.6052
 20
0.0427
 30
1.2706
 70
192
 0
VERTEX
 8
CARGADOR
 10
0.6052
 20
0.0427
 30
2.0123
 70
192
 0
VERTEX
 8
CARGADOR
 10
0.4515
 20
0.0427
 30
1.2706
 70
192
 0
VERTEX
 8
CARGADOR
 10
0.4515
 20
0.0427
 30
2.0123
 70
192
 0
VERTEX
 8
CARGADOR
 10
0
 20
0
 30
0
 70
128
 71
1
 72
2
 73
4
 74
3
 0
VERTEX
 8
CARGADOR
 10
0
 20
0
 30
0
 70
128
 71
3
 72
4
 73
6
 74
5
 0
VERTEX
 8
CARGADOR
 10
0
 20
0
 30
0
 70
128
 71
5
 72
6
 73
8
 74
7
 0
VERTEX
 8
CARGADOR
 10
0
 20
0
 30
0
 70
128
 71
7
 72
8
 73
2
 74
1
 0
VERTEX
 8
CARGADOR
 10
0
 20
0
 30
0
 70
128
 71
2
 72
8
 73
6
 74
4
 0
VERTEX
 8
CARGADOR
 10
0
 20
0
 30
0
 70
128
 71
7
 72
1
 73
3
 74
5
 0
SEQEND
 0
POLYLINE
 8
CUBO_5
 66
1
 10
0.0
 20
0.0
 30
0.0
 70
64
 71
8
 72
6
 0
VERTEX
 8
CUBO_5
 10
0.4489
 20
0.0509
 30
2.184
 70
192
 0
VERTEX
 8
CUBO_5
 10
0.4489
 20
0.0509
 30
2.2542
 70
192
 0
VERTEX
 8
CUBO_5
 10
0.6512
 20
0.0509
 30
2.184
 70
192
 0
VERTEX
 8
CUBO_5
 10
0.6512
 20
0.0509
 30
2.2542
 70
192
 0
VERTEX
 8
CUBO_5
 10
0.6512
 20
0.0708
 30
2.184
 70
192
 0
VERTEX
 8
CUBO_5
 10
0.6512
 20
0.0708
 30
2.2542
 70
192
 0
VERTEX
 8
CUBO_5
 10
0.4489
 20
0.0708
 30
2.184
 70
192
 0
VERTEX
 8
CUBO_5
 10
0.4489
 20
0.0708
 30
2.2542
 70
192
 0
VERTEX
 8
CUBO_5
 10
0
 20
0
 30
0
 70
128
 71
1
 72
2
 73
4
 74
3
 0
VERTEX
 8
CUBO_5
 10
0
 20
0
 30
0
 70
128
 71
3
 72
4
 73
6
 74
5
 0
VERTEX
 8
CUBO_5
 10
0
 20
0
 30
0
 70
128
 71
5
 72
6
 73
8
 74
7
 0
VERTEX
 8
CUBO_5
 10
0
 20
0
 30
0
 70
128
 71
7
 72
8
 73
2
 74
1
 0
VERTEX
 8
CUBO_5
 10
0
 20
0
 30
0
 70
128
 71
2
 72
8
 73
6
 74
4
 0
VERTEX
 8
CUBO_5
 10
0
 20
0
 30
0
 70
128
 71
7
 72
1
 73
3
 74
5
 0
SEQEND
 0
POLYLINE
 8
SILENCIADOOR_1
 66
1
 10
0.0
 20
0.0
 30
0.0
 70
64
 71
576
 72
288
 0
VERTEX
 8
SILENCIADOOR_1
 10
-0.4968
 20
-0.0005
 30
2.1784
 70
192
 0
VERTEX
 8
SILENCIADOOR_1
 10
-0.4968
 20
-0.0005
 30
2.0923
 70
192
 0
VERTEX
 8
SILENCIADOOR_1
 10
-0.4968
 20
-0.0005
 30
2.0923
 70
192
 0
VERTEX
 8
SILENCIADOOR_1
 10
-0.1803
 20
-0.0005
 30
2.0923
 70
192
 0
VERTEX
 8
SILENCIADOOR_1
 10
-0.1803
 20
-0.0005
 30
2.0923
 70
192
 0
VERTEX
 8
SILENCIADOOR_1
 10
-0.1803
 20
-0.0005
 30
2.1784
 70
192
 0
VERTEX
 8
SILENCIADOOR_1
 10
-0.1803
 20
-0.0005
 30
2.1784
 70
192
 0
VERTEX
 8
SILENCIADOOR_1
 10
-0.4968
 20
-0.0005
 30
2.1784
 70
192
 0
VERTEX
 8
SILENCIADOOR_1
 10
-0.4968
 20
0.003
 30
2.1787
 70
192
 0
VERTEX
 8
SILENCIADOOR_1
 10
-0.4968
 20
0.018
 30
2.0939
 70
192
 0
VERTEX
 8
SILENCIADOOR_1
 10
-0.4968
 20
0.018
 30
2.0939
 70
192
 0
VERTEX
 8
SILENCIADOOR_1
 10
-0.1803
 20
0.018
 30
2.0939
 70
192
 0
VERTEX
 8
SILENCIADOOR_1
 10
-0.1803
 20
0.018
 30
2.0939
 70
192
 0
VERTEX
 8
SILENCIADOOR_1
 10
-0.1803
 20
0.003
 30
2.1787
 70
192
 0
VERTEX
 8
SILENCIADOOR_1
 10
-0.1803
 20
0.003
 30
2.1787
 70
192
 0
VERTEX
 8
SILENCIADOOR_1
 10
-0.4968
 20
0.003
 30
2.1787
 70
192
 0
VERTEX
 8
SILENCIADOOR_1
 10
-0.4968
 20
0.0064
 30
2.1796
 70
192
 0
VERTEX
 8
SILENCIADOOR_1
 10
-0.4968
 20
0.0359
 30
2.0987
 70
192
 0
VERTEX
 8
SILENCIADOOR_1
 10
-0.4968
 20
0.0359
 30
2.0987
 70
192
 0
VERTEX
 8
SILENCIADOOR_1
 10
-0.1803
 20
0.0359
 30
2.0987
 70
192
 0
VERTEX
 8
SILENCIADOOR_1
 10
-0.1803
 20
0.0359
 30
2.0987
 70
192
 0
VERTEX
 8
SILENCIADOOR_1
 10
-0.1803
 20
0.0064
 30
2.1796
 70
192
 0
VERTEX
 8
SILENCIADOOR_1
 10
-0.1803
 20
0.0064
 30
2.1796
 70
192
 0
VERTEX
 8
SILENCIADOOR_1
 10
-0.4968
 20
0.0064
 30
2.1796
 70
192
 0
VERTEX
 8
SILENCIADOOR_1
 10
-0.4968
 20
0.0096
 30
2.1811
 70
192
 0
VERTEX
 8
SILENCIADOOR_1
 10
-0.4968
 20
0.0526
 30
2.1065
 70
192
 0
VERTEX
 8
SILENCIADOOR_1
 10
-0.4968
 20
0.0526
 30
2.1065
 70
192
 0
VERTEX
 8
SILENCIADOOR_1
 10
-0.1803
 20
0.0526
 30
2.1065
 70
192
 0
VERTEX
 8
SILENCIADOOR_1
 10
-0.1803
 20
0.0526
 30
2.1065
 70
192
 0
VERTEX
 8
SILENCIADOOR_1
 10
-0.1803
 20
0.0096
 30
2.1811
 70
192
 0
VERTEX
 8
SILENCIADOOR_1
 10
-0.1803
 20
0.0096
 30
2.1811
 70
192
 0
VERTEX
 8
SILENCIADOOR_1
 10
-0.4968
 20
0.0096
 30
2.1811
 70
192
 0
VERTEX
 8
SILENCIADOOR_1
 10
-0.4968
 20
0.0124
 30
2.1831
 70
192
 0
VERTEX
 8
SILENCIADOOR_1
 10
-0.4968
 20
0.0678
 30
2.1171
 70
192
 0
VERTEX
 8
SILENCIADOOR_1
 10
-0.4968
 20
0.0678
 30
2.1171
 70
192
 0
VERTEX
 8
SILENCIADOOR_1
 10
-0.1803
 20
0.0678
 30
2.1171
 70
192
 0
VERTEX
 8
SILENCIADOOR_1
 10
-0.1803
 20
0.0678
 30
2.1171
 70
192
 0
VERTEX
 8
SILENCIADOOR_1
 10
-0.1803
 20
0.0124
 30
2.1831
 70
192
 0
VERTEX
 8
SILENCIADOOR_1
 10
-0.1803
 20
0.0124
 30
2.1831
 70
192
 0
VERTEX
 8
SILENCIADOOR_1
 10
-0.4968
 20
0.0124
 30
2.1831
 70
192
 0
VERTEX
 8
SILENCIADOOR_1
 10
-0.4968
 20
0.0149
 30
2.1856
 70
192
 0
VERTEX
 8
SILENCIADOOR_1
 10
-0.4968
 20
0.0809
 30
2.1302
 70
192
 0
VERTEX
 8
SILENCIADOOR_1
 10
-0.4968
 20
0.0809
 30
2.1302
 70
192
 0
VERTEX
 8
SILENCIADOOR_1
 10
-0.1803
 20
0.0809
 30
2.1302
 70
192
 0
VERTEX
 8
SILENCIADOOR_1
 10
-0.1803
 20
0.0809
 30
2.1302
 70
192
 0
VERTEX
 8
SILENCIADOOR_1
 10
-0.1803
 20
0.0149
 30
2.1856
 70
192
 0
VERTEX
 8
SILENCIADOOR_1
 10
-0.1803
 20
0.0149
 30
2.1856
 70
192
 0
VERTEX
 8
SILENCIADOOR_1
 10
-0.4968
 20
0.0149
 30
2.1856
 70
192
 0
VERTEX
 8
SILENCIADOOR_1
 10
-0.4968
 20
0.0169
 30
2.1885
 70
192
 0
VERTEX
 8
SILENCIADOOR_1
 10
-0.4968
 20
0.0915
 30
2.1454
 70
192
 0
VERTEX
 8
SILENCIADOOR_1
 10
-0.4968
 20
0.0915
 30
2.1454
 70
192
 0
VERTEX
 8
SILENCIADOOR_1
 10
-0.1803
 20
0.0915
 30
2.1454
 70
192
 0
VERTEX
 8
SILENCIADOOR_1
 10
-0.1803
 20
0.0915
 30
2.1454
 70
192
 0
VERTEX
 8
SILENCIADOOR_1
 10
-0.1803
 20
0.0169
 30
2.1885
 70
192
 0
VERTEX
 8
SILENCIADOOR_1
 10
-0.1803
 20
0.0169
 30
2.1885
 70
192
 0
VERTEX
 8
SILENCIADOOR_1
 10
-0.4968
 20
0.0169
 30
2.1885
 70
192
 0
VERTEX
 8
SILENCIADOOR_1
 10
-0.4968
 20
0.0184
 30
2.1917
 70
192
 0
VERTEX
 8
SILENCIADOOR_1
 10
-0.4968
 20
0.0994
 30
2.1622
 70
192
 0
VERTEX
 8
SILENCIADOOR_1
 10
-0.4968
 20
0.0994
 30
2.1622
 70
192
 0
VERTEX
 8
SILENCIADOOR_1
 10
-0.1803
 20
0.0994
 30
2.1622
 70
192
 0
VERTEX
 8
SILENCIADOOR_1
 10
-0.1803
 20
0.0994
 30
2.1622
 70
192
 0
VERTEX
 8
SILENCIADOOR_1
 10
-0.1803
 20
0.0184
 30
2.1917
 70
192
 0
VERTEX
 8
SILENCIADOOR_1
 10
-0.1803
 20
0.0184
 30
2.1917
 70
192
 0
VERTEX
 8
SILENCIADOOR_1
 10
-0.4968
 20
0.0184
 30
2.1917
 70
192
 0
VERTEX
 8
SILENCIADOOR_1
 10
-0.4968
 20
0.0193
 30
2.195
 70
192
 0
VERTEX
 8
SILENCIADOOR_1
 10
-0.4968
 20
0.1041
 30
2.1801
 70
192
 0
VERTEX
 8
SILENCIADOOR_1
 10
-0.4968
 20
0.1041
 30
2.1801
 70
192
 0
VERTEX
 8
SILENCIADOOR_1
 10
-0.1803
 20
0.1041
 30
2.1801
 70
192
 0
VERTEX
 8
SILENCIADOOR_1
 10
-0.1803
 20
0.1041
 30
2.1801
 70
192
 0
VERTEX
 8
SILENCIADOOR_1
 10
-0.1803
 20
0.0193
 30
2.195
 70
192
 0
VERTEX
 8
SILENCIADOOR_1
 10
-0.1803
 20
0.0193
 30
2.195
 70
192
 0
VERTEX
 8
SILENCIADOOR_1
 10
-0.4968
 20
0.0193
 30
2.195
 70
192
 0
VERTEX
 8
SILENCIADOOR_1
 10
-0.4968
 20
0.0196
 30
2.1985
 70
192
 0
VERTEX
 8
SILENCIADOOR_1
 10
-0.4968
 20
0.1058
 30
2.1985
 70
192
 0
VERTEX
 8
SILENCIADOOR_1
 10
-0.4968
 20
0.1058
 30
2.1985
 70
192
 0
VERTEX
 8
SILENCIADOOR_1
 10
-0.1803
 20
0.1058
 30
2.1985
 70
192
 0
VERTEX
 8
SILENCIADOOR_1
 10
-0.1803
 20
0.1058
 30
2.1985
 70
192
 0
VERTEX
 8
SILENCIADOOR_1
 10
-0.1803
 20
0.0196
 30
2.1985
 70
192
 0
VERTEX
 8
SILENCIADOOR_1
 10
-0.1803
 20
0.0196
 30
2.1985
 70
192
 0
VERTEX
 8
SILENCIADOOR_1
 10
-0.4968
 20
0.0196
 30
2.1985
 70
192
 0
VERTEX
 8
SILENCIADOOR_1
 10
-0.4968
 20
0.0193
 30
2.202
 70
192
 0
VERTEX
 8
SILENCIADOOR_1
 10
-0.4968
 20
0.1041
 30
2.217
 70
192
 0
VERTEX
 8
SILENCIADOOR_1
 10
-0.4968
 20
0.1041
 30
2.217
 70
192
 0
VERTEX
 8
SILENCIADOOR_1
 10
-0.1803
 20
0.1041
 30
2.217
 70
192
 0
VERTEX
 8
SILENCIADOOR_1
 10
-0.1803
 20
0.1041
 30
2.217
 70
192
 0
VERTEX
 8
SILENCIADOOR_1
 10
-0.1803
 20
0.0193
 30
2.202
 70
192
 0
VERTEX
 8
SILENCIADOOR_1
 10
-0.1803
 20
0.0193
 30
2.202
 70
192
 0
VERTEX
 8
SILENCIADOOR_1
 10
-0.4968
 20
0.0193
 30
2.202
 70
192
 0
VERTEX
 8
SILENCIADOOR_1
 10
-0.4968
 20
0.0184
 30
2.2054
 70
192
 0
VERTEX
 8
SILENCIADOOR_1
 10
-0.4968
 20
0.0994
 30
2.2349
 70
192
 0
VERTEX
 8
SILENCIADOOR_1
 10
-0.4968
 20
0.0994
 30
2.2349
 70
192
 0
VERTEX
 8
SILENCIADOOR_1
 10
-0.1803
 20
0.0994
 30
2.2349
 70
192
 0
VERTEX
 8
SILENCIADOOR_1
 10
-0.1803
 20
0.0994
 30
2.2349
 70
192
 0
VERTEX
 8
SILENCIADOOR_1
 10
-0.1803
 20
0.0184
 30
2.2054
 70
192
 0
VERTEX
 8
SILENCIADOOR_1
 10
-0.1803
 20
0.0184
 30
2.2054
 70
192
 0
VERTEX
 8
SILENCIADOOR_1
 10
-0.4968
 20
0.0184
 30
2.2054
 70
192
 0
VERTEX
 8
SILENCIADOOR_1
 10
-0.4968
 20
0.0169
 30
2.2086
 70
192
 0
VERTEX
 8
SILENCIADOOR_1
 10
-0.4968
 20
0.0915
 30
2.2517
 70
192
 0
VERTEX
 8
SILENCIADOOR_1
 10
-0.4968
 20
0.0915
 30
2.2517
 70
192
 0
VERTEX
 8
SILENCIADOOR_1
 10
-0.1803
 20
0.0915
 30
2.2517
 70
192
 0
VERTEX
 8
SILENCIADOOR_1
 10
-0.1803
 20
0.0915
 30
2.2517
 70
192
 0
VERTEX
 8
SILENCIADOOR_1
 10
-0.1803
 20
0.0169
 30
2.2086
 70
192
 0
VERTEX
 8
SILENCIADOOR_1
 10
-0.1803
 20
0.0169
 30
2.2086
 70
192
 0
VERTEX
 8
SILENCIADOOR_1
 10
-0.4968
 20
0.0169
 30
2.2086
 70
192
 0
VERTEX
 8
SILENCIADOOR_1
 10
-0.4968
 20
0.0149
 30
2.2114
 70
192
 0
VERTEX
 8
SILENCIADOOR_1
 10
-0.4968
 20
0.0809
 30
2.2668
 70
192
 0
VERTEX
 8
SILENCIADOOR_1
 10
-0.4968
 20
0.0809
 30
2.2668
 70
192
 0
VERTEX
 8
SILENCIADOOR_1
 10
-0.1803
 20
0.0809
 30
2.2668
 70
192
 0
VERTEX
 8
SILENCIADOOR_1
 10
-0.1803
 20
0.0809
 30
2.2668
 70
192
 0
VERTEX
 8
SILENCIADOOR_1
 10
-0.1803
 20
0.0149
 30
2.2114
 70
192
 0
VERTEX
 8
SILENCIADOOR_1
 10
-0.1803
 20
0.0149
 30
2.2114
 70
192
 0
VERTEX
 8
SILENCIADOOR_1
 10
-0.4968
 20
0.0149
 30
2.2114
 70
192
 0
VERTEX
 8
SILENCIADOOR_1
 10
-0.4968
 20
0.0124
 30
2.2139
 70
192
 0
VERTEX
 8
SILENCIADOOR_1
 10
-0.4968
 20
0.0678
 30
2.2799
 70
192
 0
VERTEX
 8
SILENCIADOOR_1
 10
-0.4968
 20
0.0678
 30
2.2799
 70
192
 0
VERTEX
 8
SILENCIADOOR_1
 10
-0.1803
 20
0.0678
 30
2.2799
 70
192
 0
VERTEX
 8
SILENCIADOOR_1
 10
-0.1803
 20
0.0678
 30
2.2799
 70
192
 0
VERTEX
 8
SILENCIADOOR_1
 10
-0.1803
 20
0.0124
 30
2.2139
 70
192
 0
VERTEX
 8
SILENCIADOOR_1
 10
-0.1803
 20
0.0124
 30
2.2139
 70
192
 0
VERTEX
 8
SILENCIADOOR_1
 10
-0.4968
 20
0.0124
 30
2.2139
 70
192
 0
VERTEX
 8
SILENCIADOOR_1
 10
-0.4968
 20
0.0096
 30
2.2159
 70
192
 0
VERTEX
 8
SILENCIADOOR_1
 10
-0.4968
 20
0.0526
 30
2.2905
 70
192
 0
VERTEX
 8
SILENCIADOOR_1
 10
-0.4968
 20
0.0526
 30
2.2905
 70
192
 0
VERTEX
 8
SILENCIADOOR_1
 10
-0.1803
 20
0.0526
 30
2.2905
 70
192
 0
VERTEX
 8
SILENCIADOOR_1
 10
-0.1803
 20
0.0526
 30
2.2905
 70
192
 0
VERTEX
 8
SILENCIADOOR_1
 10
-0.1803
 20
0.0096
 30
2.2159
 70
192
 0
VERTEX
 8
SILENCIADOOR_1
 10
-0.1803
 20
0.0096
 30
2.2159
 70
192
 0
VERTEX
 8
SILENCIADOOR_1
 10
-0.4968
 20
0.0096
 30
2.2159
 70
192
 0
VERTEX
 8
SILENCIADOOR_1
 10
-0.4968
 20
0.0064
 30
2.2174
 70
192
 0
VERTEX
 8
SILENCIADOOR_1
 10
-0.4968
 20
0.0359
 30
2.2984
 70
192
 0
VERTEX
 8
SILENCIADOOR_1
 10
-0.4968
 20
0.0359
 30
2.2984
 70
192
 0
VERTEX
 8
SILENCIADOOR_1
 10
-0.1803
 20
0.0359
 30
2.2984
 70
192
 0
VERTEX
 8
SILENCIADOOR_1
 10
-0.1803
 20
0.0359
 30
2.2984
 70
192
 0
VERTEX
 8
SILENCIADOOR_1
 10
-0.1803
 20
0.0064
 30
2.2174
 70
192
 0
VERTEX
 8
SILENCIADOOR_1
 10
-0.1803
 20
0.0064
 30
2.2174
 70
192
 0
VERTEX
 8
SILENCIADOOR_1
 10
-0.4968
 20
0.0064
 30
2.2174
 70
192
 0
VERTEX
 8
SILENCIADOOR_1
 10
-0.4968
 20
0.003
 30
2.2183
 70
192
 0
VERTEX
 8
SILENCIADOOR_1
 10
-0.4968
 20
0.018
 30
2.3032
 70
192
 0
VERTEX
 8
SILENCIADOOR_1
 10
-0.4968
 20
0.018
 30
2.3032
 70
192
 0
VERTEX
 8
SILENCIADOOR_1
 10
-0.1803
 20
0.018
 30
2.3032
 70
192
 0
VERTEX
 8
SILENCIADOOR_1
 10
-0.1803
 20
0.018
 30
2.3032
 70
192
 0
VERTEX
 8
SILENCIADOOR_1
 10
-0.1803
 20
0.003
 30
2.2183
 70
192
 0
VERTEX
 8
SILENCIADOOR_1
 10
-0.1803
 20
0.003
 30
2.2183
 70
192
 0
VERTEX
 8
SILENCIADOOR_1
 10
-0.4968
 20
0.003
 30
2.2183
 70
192
 0
VERTEX
 8
SILENCIADOOR_1
 10
-0.4968
 20
-0.0005
 30
2.2186
 70
192
 0
VERTEX
 8
SILENCIADOOR_1
 10
-0.4968
 20
-0.0005
 30
2.3048
 70
192
 0
VERTEX
 8
SILENCIADOOR_1
 10
-0.4968
 20
-0.0005
 30
2.3048
 70
192
 0
VERTEX
 8
SILENCIADOOR_1
 10
-0.1803
 20
-0.0005
 30
2.3048
 70
192
 0
VERTEX
 8
SILENCIADOOR_1
 10
-0.1803
 20
-0.0005
 30
2.3048
 70
192
 0
VERTEX
 8
SILENCIADOOR_1
 10
-0.1803
 20
-0.0005
 30
2.2186
 70
192
 0
VERTEX
 8
SILENCIADOOR_1
 10
-0.1803
 20
-0.0005
 30
2.2186
 70
192
 0
VERTEX
 8
SILENCIADOOR_1
 10
-0.4968
 20
-0.0005
 30
2.2186
 70
192
 0
VERTEX
 8
SILENCIADOOR_1
 10
-0.4968
 20
-0.004
 30
2.2183
 70
192
 0
VERTEX
 8
SILENCIADOOR_1
 10
-0.4968
 20
-0.0189
 30
2.3032
 70
192
 0
VERTEX
 8
SILENCIADOOR_1
 10
-0.4968
 20
-0.0189
 30
2.3032
 70
192
 0
VERTEX
 8
SILENCIADOOR_1
 10
-0.1803
 20
-0.0189
 30
2.3032
 70
192
 0
VERTEX
 8
SILENCIADOOR_1
 10
-0.1803
 20
-0.0189
 30
2.3032
 70
192
 0
VERTEX
 8
SILENCIADOOR_1
 10
-0.1803
 20
-0.004
 30
2.2183
 70
192
 0
VERTEX
 8
SILENCIADOOR_1
 10
-0.1803
 20
-0.004
 30
2.2183
 70
192
 0
VERTEX
 8
SILENCIADOOR_1
 10
-0.4968
 20
-0.004
 30
2.2183
 70
192
 0
VERTEX
 8
SILENCIADOOR_1
 10
-0.4968
 20
-0.0074
 30
2.2174
 70
192
 0
VERTEX
 8
SILENCIADOOR_1
 10
-0.4968
 20
-0.0368
 30
2.2984
 70
192
 0
VERTEX
 8
SILENCIADOOR_1
 10
-0.4968
 20
-0.0368
 30
2.2984
 70
192
 0
VERTEX
 8
SILENCIADOOR_1
 10
-0.1803
 20
-0.0368
 30
2.2984
 70
192
 0
VERTEX
 8
SILENCIADOOR_1
 10
-0.1803
 20
-0.0368
 30
2.2984
 70
192
 0
VERTEX
 8
SILENCIADOOR_1
 10
-0.1803
 20
-0.0074
 30
2.2174
 70
192
 0
VERTEX
 8
SILENCIADOOR_1
 10
-0.1803
 20
-0.0074
 30
2.2174
 70
192
 0
VERTEX
 8
SILENCIADOOR_1
 10
-0.4968
 20
-0.0074
 30
2.2174
 70
192
 0
VERTEX
 8
SILENCIADOOR_1
 10
-0.4968
 20
-0.0105
 30
2.2159
 70
192
 0
VERTEX
 8
SILENCIADOOR_1
 10
-0.4968
 20
-0.0536
 30
2.2905
 70
192
 0
VERTEX
 8
SILENCIADOOR_1
 10
-0.4968
 20
-0.0536
 30
2.2905
 70
192
 0
VERTEX
 8
SILENCIADOOR_1
 10
-0.1803
 20
-0.0536
 30
2.2905
 70
192
 0
VERTEX
 8
SILENCIADOOR_1
 10
-0.1803
 20
-0.0536
 30
2.2905
 70
192
 0
VERTEX
 8
SILENCIADOOR_1
 10
-0.1803
 20
-0.0105
 30
2.2159
 70
192
 0
VERTEX
 8
SILENCIADOOR_1
 10
-0.1803
 20
-0.0105
 30
2.2159
 70
192
 0
VERTEX
 8
SILENCIADOOR_1
 10
-0.4968
 20
-0.0105
 30
2.2159
 70
192
 0
VERTEX
 8
SILENCIADOOR_1
 10
-0.4968
 20
-0.0134
 30
2.2139
 70
192
 0
VERTEX
 8
SILENCIADOOR_1
 10
-0.4968
 20
-0.0688
 30
2.2799
 70
192
 0
VERTEX
 8
SILENCIADOOR_1
 10
-0.4968
 20
-0.0688
 30
2.2799
 70
192
 0
VERTEX
 8
SILENCIADOOR_1
 10
-0.1803
 20
-0.0688
 30
2.2799
 70
192
 0
VERTEX
 8
SILENCIADOOR_1
 10
-0.1803
 20
-0.0688
 30
2.2799
 70
192
 0
VERTEX
 8
SILENCIADOOR_1
 10
-0.1803
 20
-0.0134
 30
2.2139
 70
192
 0
VERTEX
 8
SILENCIADOOR_1
 10
-0.1803
 20
-0.0134
 30
2.2139
 70
192
 0
VERTEX
 8
SILENCIADOOR_1
 10
-0.4968
 20
-0.0134
 30
2.2139
 70
192
 0
VERTEX
 8
SILENCIADOOR_1
 10
-0.4968
 20
-0.0159
 30
2.2114
 70
192
 0
VERTEX
 8
SILENCIADOOR_1
 10
-0.4968
 20
-0.0819
 30
2.2668
 70
192
 0
VERTEX
 8
SILENCIADOOR_1
 10
-0.4968
 20
-0.0819
 30
2.2668
 70
192
 0
VERTEX
 8
SILENCIADOOR_1
 10
-0.1803
 20
-0.0819
 30
2.2668
 70
192
 0
VERTEX
 8
SILENCIADOOR_1
 10
-0.1803
 20
-0.0819
 30
2.2668
 70
192
 0
VERTEX
 8
SILENCIADOOR_1
 10
-0.1803
 20
-0.0159
 30
2.2114
 70
192
 0
VERTEX
 8
SILENCIADOOR_1
 10
-0.1803
 20
-0.0159
 30
2.2114
 70
192
 0
VERTEX
 8
SILENCIADOOR_1
 10
-0.4968
 20
-0.0159
 30
2.2114
 70
192
 0
VERTEX
 8
SILENCIADOOR_1
 10
-0.4968
 20
-0.0179
 30
2.2086
 70
192
 0
VERTEX
 8
SILENCIADOOR_1
 10
-0.4968
 20
-0.0925
 30
2.2517
 70
192
 0
VERTEX
 8
SILENCIADOOR_1
 10
-0.4968
 20
-0.0925
 30
2.2517
 70
192
 0
VERTEX
 8
SILENCIADOOR_1
 10
-0.1803
 20
-0.0925
 30
2.2517
 70
192
 0
VERTEX
 8
SILENCIADOOR_1
 10
-0.1803
 20
-0.0925
 30
2.2517
 70
192
 0
VERTEX
 8
SILENCIADOOR_1
 10
-0.1803
 20
-0.0179
 30
2.2086
 70
192
 0
VERTEX
 8
SILENCIADOOR_1
 10
-0.1803
 20
-0.0179
 30
2.2086
 70
192
 0
VERTEX
 8
SILENCIADOOR_1
 10
-0.4968
 20
-0.0179
 30
2.2086
 70
192
 0
VERTEX
 8
SILENCIADOOR_1
 10
-0.4968
 20
-0.0194
 30
2.2054
 70
192
 0
VERTEX
 8
SILENCIADOOR_1
 10
-0.4968
 20
-0.1003
 30
2.2349
 70
192
 0
VERTEX
 8
SILENCIADOOR_1
 10
-0.4968
 20
-0.1003
 30
2.2349
 70
192
 0
VERTEX
 8
SILENCIADOOR_1
 10
-0.1803
 20
-0.1003
 30
2.2349
 70
192
 0
VERTEX
 8
SILENCIADOOR_1
 10
-0.1803
 20
-0.1003
 30
2.2349
 70
192
 0
VERTEX
 8
SILENCIADOOR_1
 10
-0.1803
 20
-0.0194
 30
2.2054
 70
192
 0
VERTEX
 8
SILENCIADOOR_1
 10
-0.1803
 20
-0.0194
 30
2.2054
 70
192
 0
VERTEX
 8
SILENCIADOOR_1
 10
-0.4968
 20
-0.0194
 30
2.2054
 70
192
 0
VERTEX
 8
SILENCIADOOR_1
 10
-0.4968
 20
-0.0203
 30
2.202
 70
192
 0
VERTEX
 8
SILENCIADOOR_1
 10
-0.4968
 20
-0.1051
 30
2.217
 70
192
 0
VERTEX
 8
SILENCIADOOR_1
 10
-0.4968
 20
-0.1051
 30
2.217
 70
192
 0
VERTEX
 8
SILENCIADOOR_1
 10
-0.1803
 20
-0.1051
 30
2.217
 70
192
 0
VERTEX
 8
SILENCIADOOR_1
 10
-0.1803
 20
-0.1051
 30
2.217
 70
192
 0
VERTEX
 8
SILENCIADOOR_1
 10
-0.1803
 20
-0.0203
 30
2.202
 70
192
 0
VERTEX
 8
SILENCIADOOR_1
 10
-0.1803
 20
-0.0203
 30
2.202
 70
192
 0
VERTEX
 8
SILENCIADOOR_1
 10
-0.4968
 20
-0.0203
 30
2.202
 70
192
 0
VERTEX
 8
SILENCIADOOR_1
 10
-0.4968
 20
-0.0206
 30
2.1985
 70
192
 0
VERTEX
 8
SILENCIADOOR_1
 10
-0.4968
 20
-0.1067
 30
2.1985
 70
192
 0
VERTEX
 8
SILENCIADOOR_1
 10
-0.4968
 20
-0.1067
 30
2.1985
 70
192
 0
VERTEX
 8
SILENCIADOOR_1
 10
-0.1803
 20
-0.1067
 30
2.1985
 70
192
 0
VERTEX
 8
SILENCIADOOR_1
 10
-0.1803
 20
-0.1067
 30
2.1985
 70
192
 0
VERTEX
 8
SILENCIADOOR_1
 10
-0.1803
 20
-0.0206
 30
2.1985
 70
192
 0
VERTEX
 8
SILENCIADOOR_1
 10
-0.1803
 20
-0.0206
 30
2.1985
 70
192
 0
VERTEX
 8
SILENCIADOOR_1
 10
-0.4968
 20
-0.0206
 30
2.1985
 70
192
 0
VERTEX
 8
SILENCIADOOR_1
 10
-0.4968
 20
-0.0203
 30
2.195
 70
192
 0
VERTEX
 8
SILENCIADOOR_1
 10
-0.4968
 20
-0.1051
 30
2.1801
 70
192
 0
VERTEX
 8
SILENCIADOOR_1
 10
-0.4968
 20
-0.1051
 30
2.1801
 70
192
 0
VERTEX
 8
SILENCIADOOR_1
 10
-0.1803
 20
-0.1051
 30
2.1801
 70
192
 0
VERTEX
 8
SILENCIADOOR_1
 10
-0.1803
 20
-0.1051
 30
2.1801
 70
192
 0
VERTEX
 8
SILENCIADOOR_1
 10
-0.1803
 20
-0.0203
 30
2.195
 70
192
 0
VERTEX
 8
SILENCIADOOR_1
 10
-0.1803
 20
-0.0203
 30
2.195
 70
192
 0
VERTEX
 8
SILENCIADOOR_1
 10
-0.4968
 20
-0.0203
 30
2.195
 70
192
 0
VERTEX
 8
SILENCIADOOR_1
 10
-0.4968
 20
-0.0194
 30
2.1917
 70
192
 0
VERTEX
 8
SILENCIADOOR_1
 10
-0.4968
 20
-0.1003
 30
2.1622
 70
192
 0
VERTEX
 8
SILENCIADOOR_1
 10
-0.4968
 20
-0.1003
 30
2.1622
 70
192
 0
VERTEX
 8
SILENCIADOOR_1
 10
-0.1803
 20
-0.1003
 30
2.1622
 70
192
 0
VERTEX
 8
SILENCIADOOR_1
 10
-0.1803
 20
-0.1003
 30
2.1622
 70
192
 0
VERTEX
 8
SILENCIADOOR_1
 10
-0.1803
 20
-0.0194
 30
2.1917
 70
192
 0
VERTEX
 8
SILENCIADOOR_1
 10
-0.1803
 20
-0.0194
 30
2.1917
 70
192
 0
VERTEX
 8
SILENCIADOOR_1
 10
-0.4968
 20
-0.0194
 30
2.1917
 70
192
 0
VERTEX
 8
SILENCIADOOR_1
 10
-0.4968
 20
-0.0179
 30
2.1885
 70
192
 0
VERTEX
 8
SILENCIADOOR_1
 10
-0.4968
 20
-0.0925
 30
2.1454
 70
192
 0
VERTEX
 8
SILENCIADOOR_1
 10
-0.4968
 20
-0.0925
 30
2.1454
 70
192
 0
VERTEX
 8
SILENCIADOOR_1
 10
-0.1803
 20
-0.0925
 30
2.1454
 70
192
 0
VERTEX
 8
SILENCIADOOR_1
 10
-0.1803
 20
-0.0925
 30
2.1454
 70
192
 0
VERTEX
 8
SILENCIADOOR_1
 10
-0.1803
 20
-0.0179
 30
2.1885
 70
192
 0
VERTEX
 8
SILENCIADOOR_1
 10
-0.1803
 20
-0.0179
 30
2.1885
 70
192
 0
VERTEX
 8
SILENCIADOOR_1
 10
-0.4968
 20
-0.0179
 30
2.1885
 70
192
 0
VERTEX
 8
SILENCIADOOR_1
 10
-0.4968
 20
-0.0159
 30
2.1856
 70
192
 0
VERTEX
 8
SILENCIADOOR_1
 10
-0.4968
 20
-0.0819
 30
2.1302
 70
192
 0
VERTEX
 8
SILENCIADOOR_1
 10
-0.4968
 20
-0.0819
 30
2.1302
 70
192
 0
VERTEX
 8
SILENCIADOOR_1
 10
-0.1803
 20
-0.0819
 30
2.1302
 70
192
 0
VERTEX
 8
SILENCIADOOR_1
 10
-0.1803
 20
-0.0819
 30
2.1302
 70
192
 0
VERTEX
 8
SILENCIADOOR_1
 10
-0.1803
 20
-0.0159
 30
2.1856
 70
192
 0
VERTEX
 8
SILENCIADOOR_1
 10
-0.1803
 20
-0.0159
 30
2.1856
 70
192
 0
VERTEX
 8
SILENCIADOOR_1
 10
-0.4968
 20
-0.0159
 30
2.1856
 70
192
 0
VERTEX
 8
SILENCIADOOR_1
 10
-0.4968
 20
-0.0134
 30
2.1831
 70
192
 0
VERTEX
 8
SILENCIADOOR_1
 10
-0.4968
 20
-0.0688
 30
2.1171
 70
192
 0
VERTEX
 8
SILENCIADOOR_1
 10
-0.4968
 20
-0.0688
 30
2.1171
 70
192
 0
VERTEX
 8
SILENCIADOOR_1
 10
-0.1803
 20
-0.0688
 30
2.1171
 70
192
 0
VERTEX
 8
SILENCIADOOR_1
 10
-0.1803
 20
-0.0688
 30
2.1171
 70
192
 0
VERTEX
 8
SILENCIADOOR_1
 10
-0.1803
 20
-0.0134
 30
2.1831
 70
192
 0
VERTEX
 8
SILENCIADOOR_1
 10
-0.1803
 20
-0.0134
 30
2.1831
 70
192
 0
VERTEX
 8
SILENCIADOOR_1
 10
-0.4968
 20
-0.0134
 30
2.1831
 70
192
 0
VERTEX
 8
SILENCIADOOR_1
 10
-0.4968
 20
-0.0105
 30
2.1811
 70
192
 0
VERTEX
 8
SILENCIADOOR_1
 10
-0.4968
 20
-0.0536
 30
2.1065
 70
192
 0
VERTEX
 8
SILENCIADOOR_1
 10
-0.4968
 20
-0.0536
 30
2.1065
 70
192
 0
VERTEX
 8
SILENCIADOOR_1
 10
-0.1803
 20
-0.0536
 30
2.1065
 70
192
 0
VERTEX
 8
SILENCIADOOR_1
 10
-0.1803
 20
-0.0536
 30
2.1065
 70
192
 0
VERTEX
 8
SILENCIADOOR_1
 10
-0.1803
 20
-0.0105
 30
2.1811
 70
192
 0
VERTEX
 8
SILENCIADOOR_1
 10
-0.1803
 20
-0.0105
 30
2.1811
 70
192
 0
VERTEX
 8
SILENCIADOOR_1
 10
-0.4968
 20
-0.0105
 30
2.1811
 70
192
 0
VERTEX
 8
SILENCIADOOR_1
 10
-0.4968
 20
-0.0074
 30
2.1796
 70
192
 0
VERTEX
 8
SILENCIADOOR_1
 10
-0.4968
 20
-0.0368
 30
2.0987
 70
192
 0
VERTEX
 8
SILENCIADOOR_1
 10
-0.4968
 20
-0.0368
 30
2.0987
 70
192
 0
VERTEX
 8
SILENCIADOOR_1
 10
-0.1803
 20
-0.0368
 30
2.0987
 70
192
 0
VERTEX
 8
SILENCIADOOR_1
 10
-0.1803
 20
-0.0368
 30
2.0987
 70
192
 0
VERTEX
 8
SILENCIADOOR_1
 10
-0.1803
 20
-0.0074
 30
2.1796
 70
192
 0
VERTEX
 8
SILENCIADOOR_1
 10
-0.1803
 20
-0.0074
 30
2.1796
 70
192
 0
VERTEX
 8
SILENCIADOOR_1
 10
-0.4968
 20
-0.0074
 30
2.1796
 70
192
 0
VERTEX
 8
SILENCIADOOR_1
 10
-0.4968
 20
-0.004
 30
2.1787
 70
192
 0
VERTEX
 8
SILENCIADOOR_1
 10
-0.4968
 20
-0.0189
 30
2.0939
 70
192
 0
VERTEX
 8
SILENCIADOOR_1
 10
-0.4968
 20
-0.0189
 30
2.0939
 70
192
 0
VERTEX
 8
SILENCIADOOR_1
 10
-0.1803
 20
-0.0189
 30
2.0939
 70
192
 0
VERTEX
 8
SILENCIADOOR_1
 10
-0.1803
 20
-0.0189
 30
2.0939
 70
192
 0
VERTEX
 8
SILENCIADOOR_1
 10
-0.1803
 20
-0.004
 30
2.1787
 70
192
 0
VERTEX
 8
SILENCIADOOR_1
 10
-0.1803
 20
-0.004
 30
2.1787
 70
192
 0
VERTEX
 8
SILENCIADOOR_1
 10
-0.4968
 20
-0.004
 30
2.1787
 70
192
 0
VERTEX
 8
SILENCIADOOR_1
 10
-1.0279
 20
-0.0005
 30
2.1784
 70
192
 0
VERTEX
 8
SILENCIADOOR_1
 10
-1.0279
 20
-0.0005
 30
2.1017
 70
192
 0
VERTEX
 8
SILENCIADOOR_1
 10
-1.0279
 20
-0.0005
 30
2.1017
 70
192
 0
VERTEX
 8
SILENCIADOOR_1
 10
-0.1669
 20
-0.0005
 30
2.1017
 70
192
 0
VERTEX
 8
SILENCIADOOR_1
 10
-0.1669
 20
-0.0005
 30
2.1017
 70
192
 0
VERTEX
 8
SILENCIADOOR_1
 10
-0.1669
 20
-0.0005
 30
2.1784
 70
192
 0
VERTEX
 8
SILENCIADOOR_1
 10
-0.1669
 20
-0.0005
 30
2.1784
 70
192
 0
VERTEX
 8
SILENCIADOOR_1
 10
-1.0279
 20
-0.0005
 30
2.1784
 70
192
 0
VERTEX
 8
SILENCIADOOR_1
 10
-1.0279
 20
0.003
 30
2.1787
 70
192
 0
VERTEX
 8
SILENCIADOOR_1
 10
-1.0279
 20
0.0163
 30
2.1032
 70
192
 0
VERTEX
 8
SILENCIADOOR_1
 10
-1.0279
 20
0.0163
 30
2.1032
 70
192
 0
VERTEX
 8
SILENCIADOOR_1
 10
-0.1669
 20
0.0163
 30
2.1032
 70
192
 0
VERTEX
 8
SILENCIADOOR_1
 10
-0.1669
 20
0.0163
 30
2.1032
 70
192
 0
VERTEX
 8
SILENCIADOOR_1
 10
-0.1669
 20
0.003
 30
2.1787
 70
192
 0
VERTEX
 8
SILENCIADOOR_1
 10
-0.1669
 20
0.003
 30
2.1787
 70
192
 0
VERTEX
 8
SILENCIADOOR_1
 10
-1.0279
 20
0.003
 30
2.1787
 70
192
 0
VERTEX
 8
SILENCIADOOR_1
 10
-1.0279
 20
0.0064
 30
2.1796
 70
192
 0
VERTEX
 8
SILENCIADOOR_1
 10
-1.0279
 20
0.0326
 30
2.1075
 70
192
 0
VERTEX
 8
SILENCIADOOR_1
 10
-1.0279
 20
0.0326
 30
2.1075
 70
192
 0
VERTEX
 8
SILENCIADOOR_1
 10
-0.1669
 20
0.0326
 30
2.1075
 70
192
 0
VERTEX
 8
SILENCIADOOR_1
 10
-0.1669
 20
0.0326
 30
2.1075
 70
192
 0
VERTEX
 8
SILENCIADOOR_1
 10
-0.1669
 20
0.0064
 30
2.1796
 70
192
 0
VERTEX
 8
SILENCIADOOR_1
 10
-0.1669
 20
0.0064
 30
2.1796
 70
192
 0
VERTEX
 8
SILENCIADOOR_1
 10
-1.0279
 20
0.0064
 30
2.1796
 70
192
 0
VERTEX
 8
SILENCIADOOR_1
 10
-1.0279
 20
0.0096
 30
2.1811
 70
192
 0
VERTEX
 8
SILENCIADOOR_1
 10
-1.0279
 20
0.0479
 30
2.1147
 70
192
 0
VERTEX
 8
SILENCIADOOR_1
 10
-1.0279
 20
0.0479
 30
2.1147
 70
192
 0
VERTEX
 8
SILENCIADOOR_1
 10
-0.1669
 20
0.0479
 30
2.1147
 70
192
 0
VERTEX
 8
SILENCIADOOR_1
 10
-0.1669
 20
0.0479
 30
2.1147
 70
192
 0
VERTEX
 8
SILENCIADOOR_1
 10
-0.1669
 20
0.0096
 30
2.1811
 70
192
 0
VERTEX
 8
SILENCIADOOR_1
 10
-0.1669
 20
0.0096
 30
2.1811
 70
192
 0
VERTEX
 8
SILENCIADOOR_1
 10
-1.0279
 20
0.0096
 30
2.1811
 70
192
 0
VERTEX
 8
SILENCIADOOR_1
 10
-1.0279
 20
0.0124
 30
2.1831
 70
192
 0
VERTEX
 8
SILENCIADOOR_1
 10
-1.0279
 20
0.0618
 30
2.1243
 70
192
 0
VERTEX
 8
SILENCIADOOR_1
 10
-1.0279
 20
0.0618
 30
2.1243
 70
192
 0
VERTEX
 8
SILENCIADOOR_1
 10
-0.1669
 20
0.0618
 30
2.1243
 70
192
 0
VERTEX
 8
SILENCIADOOR_1
 10
-0.1669
 20
0.0618
 30
2.1243
 70
192
 0
VERTEX
 8
SILENCIADOOR_1
 10
-0.1669
 20
0.0124
 30
2.1831
 70
192
 0
VERTEX
 8
SILENCIADOOR_1
 10
-0.1669
 20
0.0124
 30
2.1831
 70
192
 0
VERTEX
 8
SILENCIADOOR_1
 10
-1.0279
 20
0.0124
 30
2.1831
 70
192
 0
VERTEX
 8
SILENCIADOOR_1
 10
-1.0279
 20
0.0149
 30
2.1856
 70
192
 0
VERTEX
 8
SILENCIADOOR_1
 10
-1.0279
 20
0.0737
 30
2.1363
 70
192
 0
VERTEX
 8
SILENCIADOOR_1
 10
-1.0279
 20
0.0737
 30
2.1363
 70
192
 0
VERTEX
 8
SILENCIADOOR_1
 10
-0.1669
 20
0.0737
 30
2.1363
 70
192
 0
VERTEX
 8
SILENCIADOOR_1
 10
-0.1669
 20
0.0737
 30
2.1363
 70
192
 0
VERTEX
 8
SILENCIADOOR_1
 10
-0.1669
 20
0.0149
 30
2.1856
 70
192
 0
VERTEX
 8
SILENCIADOOR_1
 10
-0.1669
 20
0.0149
 30
2.1856
 70
192
 0
VERTEX
 8
SILENCIADOOR_1
 10
-1.0279
 20
0.0149
 30
2.1856
 70
192
 0
VERTEX
 8
SILENCIADOOR_1
 10
-1.0279
 20
0.0169
 30
2.1885
 70
192
 0
VERTEX
 8
SILENCIADOOR_1
 10
-1.0279
 20
0.0834
 30
2.1501
 70
192
 0
VERTEX
 8
SILENCIADOOR_1
 10
-1.0279
 20
0.0834
 30
2.1501
 70
192
 0
VERTEX
 8
SILENCIADOOR_1
 10
-0.1669
 20
0.0834
 30
2.1501
 70
192
 0
VERTEX
 8
SILENCIADOOR_1
 10
-0.1669
 20
0.0834
 30
2.1501
 70
192
 0
VERTEX
 8
SILENCIADOOR_1
 10
-0.1669
 20
0.0169
 30
2.1885
 70
192
 0
VERTEX
 8
SILENCIADOOR_1
 10
-0.1669
 20
0.0169
 30
2.1885
 70
192
 0
VERTEX
 8
SILENCIADOOR_1
 10
-1.0279
 20
0.0169
 30
2.1885
 70
192
 0
VERTEX
 8
SILENCIADOOR_1
 10
-1.0279
 20
0.0184
 30
2.1917
 70
192
 0
VERTEX
 8
SILENCIADOOR_1
 10
-1.0279
 20
0.0905
 30
2.1654
 70
192
 0
VERTEX
 8
SILENCIADOOR_1
 10
-1.0279
 20
0.0905
 30
2.1654
 70
192
 0
VERTEX
 8
SILENCIADOOR_1
 10
-0.1669
 20
0.0905
 30
2.1654
 70
192
 0
VERTEX
 8
SILENCIADOOR_1
 10
-0.1669
 20
0.0905
 30
2.1654
 70
192
 0
VERTEX
 8
SILENCIADOOR_1
 10
-0.1669
 20
0.0184
 30
2.1917
 70
192
 0
VERTEX
 8
SILENCIADOOR_1
 10
-0.1669
 20
0.0184
 30
2.1917
 70
192
 0
VERTEX
 8
SILENCIADOOR_1
 10
-1.0279
 20
0.0184
 30
2.1917
 70
192
 0
VERTEX
 8
SILENCIADOOR_1
 10
-1.0279
 20
0.0193
 30
2.195
 70
192
 0
VERTEX
 8
SILENCIADOOR_1
 10
-1.0279
 20
0.0949
 30
2.1817
 70
192
 0
VERTEX
 8
SILENCIADOOR_1
 10
-1.0279
 20
0.0949
 30
2.1817
 70
192
 0
VERTEX
 8
SILENCIADOOR_1
 10
-0.1669
 20
0.0949
 30
2.1817
 70
192
 0
VERTEX
 8
SILENCIADOOR_1
 10
-0.1669
 20
0.0949
 30
2.1817
 70
192
 0
VERTEX
 8
SILENCIADOOR_1
 10
-0.1669
 20
0.0193
 30
2.195
 70
192
 0
VERTEX
 8
SILENCIADOOR_1
 10
-0.1669
 20
0.0193
 30
2.195
 70
192
 0
VERTEX
 8
SILENCIADOOR_1
 10
-1.0279
 20
0.0193
 30
2.195
 70
192
 0
VERTEX
 8
SILENCIADOOR_1
 10
-1.0279
 20
0.0196
 30
2.1985
 70
192
 0
VERTEX
 8
SILENCIADOOR_1
 10
-1.0279
 20
0.0964
 30
2.1985
 70
192
 0
VERTEX
 8
SILENCIADOOR_1
 10
-1.0279
 20
0.0964
 30
2.1985
 70
192
 0
VERTEX
 8
SILENCIADOOR_1
 10
-0.1669
 20
0.0964
 30
2.1985
 70
192
 0
VERTEX
 8
SILENCIADOOR_1
 10
-0.1669
 20
0.0964
 30
2.1985
 70
192
 0
VERTEX
 8
SILENCIADOOR_1
 10
-0.1669
 20
0.0196
 30
2.1985
 70
192
 0
VERTEX
 8
SILENCIADOOR_1
 10
-0.1669
 20
0.0196
 30
2.1985
 70
192
 0
VERTEX
 8
SILENCIADOOR_1
 10
-1.0279
 20
0.0196
 30
2.1985
 70
192
 0
VERTEX
 8
SILENCIADOOR_1
 10
-1.0279
 20
0.0193
 30
2.202
 70
192
 0
VERTEX
 8
SILENCIADOOR_1
 10
-1.0279
 20
0.0949
 30
2.2153
 70
192
 0
VERTEX
 8
SILENCIADOOR_1
 10
-1.0279
 20
0.0949
 30
2.2153
 70
192
 0
VERTEX
 8
SILENCIADOOR_1
 10
-0.1669
 20
0.0949
 30
2.2153
 70
192
 0
VERTEX
 8
SILENCIADOOR_1
 10
-0.1669
 20
0.0949
 30
2.2153
 70
192
 0
VERTEX
 8
SILENCIADOOR_1
 10
-0.1669
 20
0.0193
 30
2.202
 70
192
 0
VERTEX
 8
SILENCIADOOR_1
 10
-0.1669
 20
0.0193
 30
2.202
 70
192
 0
VERTEX
 8
SILENCIADOOR_1
 10
-1.0279
 20
0.0193
 30
2.202
 70
192
 0
VERTEX
 8
SILENCIADOOR_1
 10
-1.0279
 20
0.0184
 30
2.2054
 70
192
 0
VERTEX
 8
SILENCIADOOR_1
 10
-1.0279
 20
0.0905
 30
2.2317
 70
192
 0
VERTEX
 8
SILENCIADOOR_1
 10
-1.0279
 20
0.0905
 30
2.2317
 70
192
 0
VERTEX
 8
SILENCIADOOR_1
 10
-0.1669
 20
0.0905
 30
2.2317
 70
192
 0
VERTEX
 8
SILENCIADOOR_1
 10
-0.1669
 20
0.0905
 30
2.2317
 70
192
 0
VERTEX
 8
SILENCIADOOR_1
 10
-0.1669
 20
0.0184
 30
2.2054
 70
192
 0
VERTEX
 8
SILENCIADOOR_1
 10
-0.1669
 20
0.0184
 30
2.2054
 70
192
 0
VERTEX
 8
SILENCIADOOR_1
 10
-1.0279
 20
0.0184
 30
2.2054
 70
192
 0
VERTEX
 8
SILENCIADOOR_1
 10
-1.0279
 20
0.0169
 30
2.2086
 70
192
 0
VERTEX
 8
SILENCIADOOR_1
 10
-1.0279
 20
0.0834
 30
2.247
 70
192
 0
VERTEX
 8
SILENCIADOOR_1
 10
-1.0279
 20
0.0834
 30
2.247
 70
192
 0
VERTEX
 8
SILENCIADOOR_1
 10
-0.1669
 20
0.0834
 30
2.247
 70
192
 0
VERTEX
 8
SILENCIADOOR_1
 10
-0.1669
 20
0.0834
 30
2.247
 70
192
 0
VERTEX
 8
SILENCIADOOR_1
 10
-0.1669
 20
0.0169
 30
2.2086
 70
192
 0
VERTEX
 8
SILENCIADOOR_1
 10
-0.1669
 20
0.0169
 30
2.2086
 70
192
 0
VERTEX
 8
SILENCIADOOR_1
 10
-1.0279
 20
0.0169
 30
2.2086
 70
192
 0
VERTEX
 8
SILENCIADOOR_1
 10
-1.0279
 20
0.0149
 30
2.2114
 70
192
 0
VERTEX
 8
SILENCIADOOR_1
 10
-1.0279
 20
0.0737
 30
2.2608
 70
192
 0
VERTEX
 8
SILENCIADOOR_1
 10
-1.0279
 20
0.0737
 30
2.2608
 70
192
 0
VERTEX
 8
SILENCIADOOR_1
 10
-0.1669
 20
0.0737
 30
2.2608
 70
192
 0
VERTEX
 8
SILENCIADOOR_1
 10
-0.1669
 20
0.0737
 30
2.2608
 70
192
 0
VERTEX
 8
SILENCIADOOR_1
 10
-0.1669
 20
0.0149
 30
2.2114
 70
192
 0
VERTEX
 8
SILENCIADOOR_1
 10
-0.1669
 20
0.0149
 30
2.2114
 70
192
 0
VERTEX
 8
SILENCIADOOR_1
 10
-1.0279
 20
0.0149
 30
2.2114
 70
192
 0
VERTEX
 8
SILENCIADOOR_1
 10
-1.0279
 20
0.0124
 30
2.2139
 70
192
 0
VERTEX
 8
SILENCIADOOR_1
 10
-1.0279
 20
0.0618
 30
2.2727
 70
192
 0
VERTEX
 8
SILENCIADOOR_1
 10
-1.0279
 20
0.0618
 30
2.2727
 70
192
 0
VERTEX
 8
SILENCIADOOR_1
 10
-0.1669
 20
0.0618
 30
2.2727
 70
192
 0
VERTEX
 8
SILENCIADOOR_1
 10
-0.1669
 20
0.0618
 30
2.2727
 70
192
 0
VERTEX
 8
SILENCIADOOR_1
 10
-0.1669
 20
0.0124
 30
2.2139
 70
192
 0
VERTEX
 8
SILENCIADOOR_1
 10
-0.1669
 20
0.0124
 30
2.2139
 70
192
 0
VERTEX
 8
SILENCIADOOR_1
 10
-1.0279
 20
0.0124
 30
2.2139
 70
192
 0
VERTEX
 8
SILENCIADOOR_1
 10
-1.0279
 20
0.0096
 30
2.2159
 70
192
 0
VERTEX
 8
SILENCIADOOR_1
 10
-1.0279
 20
0.0479
 30
2.2824
 70
192
 0
VERTEX
 8
SILENCIADOOR_1
 10
-1.0279
 20
0.0479
 30
2.2824
 70
192
 0
VERTEX
 8
SILENCIADOOR_1
 10
-0.1669
 20
0.0479
 30
2.2824
 70
192
 0
VERTEX
 8
SILENCIADOOR_1
 10
-0.1669
 20
0.0479
 30
2.2824
 70
192
 0
VERTEX
 8
SILENCIADOOR_1
 10
-0.1669
 20
0.0096
 30
2.2159
 70
192
 0
VERTEX
 8
SILENCIADOOR_1
 10
-0.1669
 20
0.0096
 30
2.2159
 70
192
 0
VERTEX
 8
SILENCIADOOR_1
 10
-1.0279
 20
0.0096
 30
2.2159
 70
192
 0
VERTEX
 8
SILENCIADOOR_1
 10
-1.0279
 20
0.0064
 30
2.2174
 70
192
 0
VERTEX
 8
SILENCIADOOR_1
 10
-1.0279
 20
0.0326
 30
2.2895
 70
192
 0
VERTEX
 8
SILENCIADOOR_1
 10
-1.0279
 20
0.0326
 30
2.2895
 70
192
 0
VERTEX
 8
SILENCIADOOR_1
 10
-0.1669
 20
0.0326
 30
2.2895
 70
192
 0
VERTEX
 8
SILENCIADOOR_1
 10
-0.1669
 20
0.0326
 30
2.2895
 70
192
 0
VERTEX
 8
SILENCIADOOR_1
 10
-0.1669
 20
0.0064
 30
2.2174
 70
192
 0
VERTEX
 8
SILENCIADOOR_1
 10
-0.1669
 20
0.0064
 30
2.2174
 70
192
 0
VERTEX
 8
SILENCIADOOR_1
 10
-1.0279
 20
0.0064
 30
2.2174
 70
192
 0
VERTEX
 8
SILENCIADOOR_1
 10
-1.0279
 20
0.003
 30
2.2183
 70
192
 0
VERTEX
 8
SILENCIADOOR_1
 10
-1.0279
 20
0.0163
 30
2.2939
 70
192
 0
VERTEX
 8
SILENCIADOOR_1
 10
-1.0279
 20
0.0163
 30
2.2939
 70
192
 0
VERTEX
 8
SILENCIADOOR_1
 10
-0.1669
 20
0.0163
 30
2.2939
 70
192
 0
VERTEX
 8
SILENCIADOOR_1
 10
-0.1669
 20
0.0163
 30
2.2939
 70
192
 0
VERTEX
 8
SILENCIADOOR_1
 10
-0.1669
 20
0.003
 30
2.2183
 70
192
 0
VERTEX
 8
SILENCIADOOR_1
 10
-0.1669
 20
0.003
 30
2.2183
 70
192
 0
VERTEX
 8
SILENCIADOOR_1
 10
-1.0279
 20
0.003
 30
2.2183
 70
192
 0
VERTEX
 8
SILENCIADOOR_1
 10
-1.0279
 20
-0.0005
 30
2.2186
 70
192
 0
VERTEX
 8
SILENCIADOOR_1
 10
-1.0279
 20
-0.0005
 30
2.2954
 70
192
 0
VERTEX
 8
SILENCIADOOR_1
 10
-1.0279
 20
-0.0005
 30
2.2954
 70
192
 0
VERTEX
 8
SILENCIADOOR_1
 10
-0.1669
 20
-0.0005
 30
2.2954
 70
192
 0
VERTEX
 8
SILENCIADOOR_1
 10
-0.1669
 20
-0.0005
 30
2.2954
 70
192
 0
VERTEX
 8
SILENCIADOOR_1
 10
-0.1669
 20
-0.0005
 30
2.2186
 70
192
 0
VERTEX
 8
SILENCIADOOR_1
 10
-0.1669
 20
-0.0005
 30
2.2186
 70
192
 0
VERTEX
 8
SILENCIADOOR_1
 10
-1.0279
 20
-0.0005
 30
2.2186
 70
192
 0
VERTEX
 8
SILENCIADOOR_1
 10
-1.0279
 20
-0.004
 30
2.2183
 70
192
 0
VERTEX
 8
SILENCIADOOR_1
 10
-1.0279
 20
-0.0173
 30
2.2939
 70
192
 0
VERTEX
 8
SILENCIADOOR_1
 10
-1.0279
 20
-0.0173
 30
2.2939
 70
192
 0
VERTEX
 8
SILENCIADOOR_1
 10
-0.1669
 20
-0.0173
 30
2.2939
 70
192
 0
VERTEX
 8
SILENCIADOOR_1
 10
-0.1669
 20
-0.0173
 30
2.2939
 70
192
 0
VERTEX
 8
SILENCIADOOR_1
 10
-0.1669
 20
-0.004
 30
2.2183
 70
192
 0
VERTEX
 8
SILENCIADOOR_1
 10
-0.1669
 20
-0.004
 30
2.2183
 70
192
 0
VERTEX
 8
SILENCIADOOR_1
 10
-1.0279
 20
-0.004
 30
2.2183
 70
192
 0
VERTEX
 8
SILENCIADOOR_1
 10
-1.0279
 20
-0.0074
 30
2.2174
 70
192
 0
VERTEX
 8
SILENCIADOOR_1
 10
-1.0279
 20
-0.0336
 30
2.2895
 70
192
 0
VERTEX
 8
SILENCIADOOR_1
 10
-1.0279
 20
-0.0336
 30
2.2895
 70
192
 0
VERTEX
 8
SILENCIADOOR_1
 10
-0.1669
 20
-0.0336
 30
2.2895
 70
192
 0
VERTEX
 8
SILENCIADOOR_1
 10
-0.1669
 20
-0.0336
 30
2.2895
 70
192
 0
VERTEX
 8
SILENCIADOOR_1
 10
-0.1669
 20
-0.0074
 30
2.2174
 70
192
 0
VERTEX
 8
SILENCIADOOR_1
 10
-0.1669
 20
-0.0074
 30
2.2174
 70
192
 0
VERTEX
 8
SILENCIADOOR_1
 10
-1.0279
 20
-0.0074
 30
2.2174
 70
192
 0
VERTEX
 8
SILENCIADOOR_1
 10
-1.0279
 20
-0.0105
 30
2.2159
 70
192
 0
VERTEX
 8
SILENCIADOOR_1
 10
-1.0279
 20
-0.0489
 30
2.2824
 70
192
 0
VERTEX
 8
SILENCIADOOR_1
 10
-1.0279
 20
-0.0489
 30
2.2824
 70
192
 0
VERTEX
 8
SILENCIADOOR_1
 10
-0.1669
 20
-0.0489
 30
2.2824
 70
192
 0
VERTEX
 8
SILENCIADOOR_1
 10
-0.1669
 20
-0.0489
 30
2.2824
 70
192
 0
VERTEX
 8
SILENCIADOOR_1
 10
-0.1669
 20
-0.0105
 30
2.2159
 70
192
 0
VERTEX
 8
SILENCIADOOR_1
 10
-0.1669
 20
-0.0105
 30
2.2159
 70
192
 0
VERTEX
 8
SILENCIADOOR_1
 10
-1.0279
 20
-0.0105
 30
2.2159
 70
192
 0
VERTEX
 8
SILENCIADOOR_1
 10
-1.0279
 20
-0.0134
 30
2.2139
 70
192
 0
VERTEX
 8
SILENCIADOOR_1
 10
-1.0279
 20
-0.0627
 30
2.2727
 70
192
 0
VERTEX
 8
SILENCIADOOR_1
 10
-1.0279
 20
-0.0627
 30
2.2727
 70
192
 0
VERTEX
 8
SILENCIADOOR_1
 10
-0.1669
 20
-0.0627
 30
2.2727
 70
192
 0
VERTEX
 8
SILENCIADOOR_1
 10
-0.1669
 20
-0.0627
 30
2.2727
 70
192
 0
VERTEX
 8
SILENCIADOOR_1
 10
-0.1669
 20
-0.0134
 30
2.2139
 70
192
 0
VERTEX
 8
SILENCIADOOR_1
 10
-0.1669
 20
-0.0134
 30
2.2139
 70
192
 0
VERTEX
 8
SILENCIADOOR_1
 10
-1.0279
 20
-0.0134
 30
2.2139
 70
192
 0
VERTEX
 8
SILENCIADOOR_1
 10
-1.0279
 20
-0.0159
 30
2.2114
 70
192
 0
VERTEX
 8
SILENCIADOOR_1
 10
-1.0279
 20
-0.0747
 30
2.2608
 70
192
 0
VERTEX
 8
SILENCIADOOR_1
 10
-1.0279
 20
-0.0747
 30
2.2608
 70
192
 0
VERTEX
 8
SILENCIADOOR_1
 10
-0.1669
 20
-0.0747
 30
2.2608
 70
192
 0
VERTEX
 8
SILENCIADOOR_1
 10
-0.1669
 20
-0.0747
 30
2.2608
 70
192
 0
VERTEX
 8
SILENCIADOOR_1
 10
-0.1669
 20
-0.0159
 30
2.2114
 70
192
 0
VERTEX
 8
SILENCIADOOR_1
 10
-0.1669
 20
-0.0159
 30
2.2114
 70
192
 0
VERTEX
 8
SILENCIADOOR_1
 10
-1.0279
 20
-0.0159
 30
2.2114
 70
192
 0
VERTEX
 8
SILENCIADOOR_1
 10
-1.0279
 20
-0.0179
 30
2.2086
 70
192
 0
VERTEX
 8
SILENCIADOOR_1
 10
-1.0279
 20
-0.0844
 30
2.247
 70
192
 0
VERTEX
 8
SILENCIADOOR_1
 10
-1.0279
 20
-0.0844
 30
2.247
 70
192
 0
VERTEX
 8
SILENCIADOOR_1
 10
-0.1669
 20
-0.0844
 30
2.247
 70
192
 0
VERTEX
 8
SILENCIADOOR_1
 10
-0.1669
 20
-0.0844
 30
2.247
 70
192
 0
VERTEX
 8
SILENCIADOOR_1
 10
-0.1669
 20
-0.0179
 30
2.2086
 70
192
 0
VERTEX
 8
SILENCIADOOR_1
 10
-0.1669
 20
-0.0179
 30
2.2086
 70
192
 0
VERTEX
 8
SILENCIADOOR_1
 10
-1.0279
 20
-0.0179
 30
2.2086
 70
192
 0
VERTEX
 8
SILENCIADOOR_1
 10
-1.0279
 20
-0.0194
 30
2.2054
 70
192
 0
VERTEX
 8
SILENCIADOOR_1
 10
-1.0279
 20
-0.0915
 30
2.2317
 70
192
 0
VERTEX
 8
SILENCIADOOR_1
 10
-1.0279
 20
-0.0915
 30
2.2317
 70
192
 0
VERTEX
 8
SILENCIADOOR_1
 10
-0.1669
 20
-0.0915
 30
2.2317
 70
192
 0
VERTEX
 8
SILENCIADOOR_1
 10
-0.1669
 20
-0.0915
 30
2.2317
 70
192
 0
VERTEX
 8
SILENCIADOOR_1
 10
-0.1669
 20
-0.0194
 30
2.2054
 70
192
 0
VERTEX
 8
SILENCIADOOR_1
 10
-0.1669
 20
-0.0194
 30
2.2054
 70
192
 0
VERTEX
 8
SILENCIADOOR_1
 10
-1.0279
 20
-0.0194
 30
2.2054
 70
192
 0
VERTEX
 8
SILENCIADOOR_1
 10
-1.0279
 20
-0.0203
 30
2.202
 70
192
 0
VERTEX
 8
SILENCIADOOR_1
 10
-1.0279
 20
-0.0959
 30
2.2153
 70
192
 0
VERTEX
 8
SILENCIADOOR_1
 10
-1.0279
 20
-0.0959
 30
2.2153
 70
192
 0
VERTEX
 8
SILENCIADOOR_1
 10
-0.1669
 20
-0.0959
 30
2.2153
 70
192
 0
VERTEX
 8
SILENCIADOOR_1
 10
-0.1669
 20
-0.0959
 30
2.2153
 70
192
 0
VERTEX
 8
SILENCIADOOR_1
 10
-0.1669
 20
-0.0203
 30
2.202
 70
192
 0
VERTEX
 8
SILENCIADOOR_1
 10
-0.1669
 20
-0.0203
 30
2.202
 70
192
 0
VERTEX
 8
SILENCIADOOR_1
 10
-1.0279
 20
-0.0203
 30
2.202
 70
192
 0
VERTEX
 8
SILENCIADOOR_1
 10
-1.0279
 20
-0.0206
 30
2.1985
 70
192
 0
VERTEX
 8
SILENCIADOOR_1
 10
-1.0279
 20
-0.0973
 30
2.1985
 70
192
 0
VERTEX
 8
SILENCIADOOR_1
 10
-1.0279
 20
-0.0973
 30
2.1985
 70
192
 0
VERTEX
 8
SILENCIADOOR_1
 10
-0.1669
 20
-0.0973
 30
2.1985
 70
192
 0
VERTEX
 8
SILENCIADOOR_1
 10
-0.1669
 20
-0.0973
 30
2.1985
 70
192
 0
VERTEX
 8
SILENCIADOOR_1
 10
-0.1669
 20
-0.0206
 30
2.1985
 70
192
 0
VERTEX
 8
SILENCIADOOR_1
 10
-0.1669
 20
-0.0206
 30
2.1985
 70
192
 0
VERTEX
 8
SILENCIADOOR_1
 10
-1.0279
 20
-0.0206
 30
2.1985
 70
192
 0
VERTEX
 8
SILENCIADOOR_1
 10
-1.0279
 20
-0.0203
 30
2.195
 70
192
 0
VERTEX
 8
SILENCIADOOR_1
 10
-1.0279
 20
-0.0959
 30
2.1817
 70
192
 0
VERTEX
 8
SILENCIADOOR_1
 10
-1.0279
 20
-0.0959
 30
2.1817
 70
192
 0
VERTEX
 8
SILENCIADOOR_1
 10
-0.1669
 20
-0.0959
 30
2.1817
 70
192
 0
VERTEX
 8
SILENCIADOOR_1
 10
-0.1669
 20
-0.0959
 30
2.1817
 70
192
 0
VERTEX
 8
SILENCIADOOR_1
 10
-0.1669
 20
-0.0203
 30
2.195
 70
192
 0
VERTEX
 8
SILENCIADOOR_1
 10
-0.1669
 20
-0.0203
 30
2.195
 70
192
 0
VERTEX
 8
SILENCIADOOR_1
 10
-1.0279
 20
-0.0203
 30
2.195
 70
192
 0
VERTEX
 8
SILENCIADOOR_1
 10
-1.0279
 20
-0.0194
 30
2.1917
 70
192
 0
VERTEX
 8
SILENCIADOOR_1
 10
-1.0279
 20
-0.0915
 30
2.1654
 70
192
 0
VERTEX
 8
SILENCIADOOR_1
 10
-1.0279
 20
-0.0915
 30
2.1654
 70
192
 0
VERTEX
 8
SILENCIADOOR_1
 10
-0.1669
 20
-0.0915
 30
2.1654
 70
192
 0
VERTEX
 8
SILENCIADOOR_1
 10
-0.1669
 20
-0.0915
 30
2.1654
 70
192
 0
VERTEX
 8
SILENCIADOOR_1
 10
-0.1669
 20
-0.0194
 30
2.1917
 70
192
 0
VERTEX
 8
SILENCIADOOR_1
 10
-0.1669
 20
-0.0194
 30
2.1917
 70
192
 0
VERTEX
 8
SILENCIADOOR_1
 10
-1.0279
 20
-0.0194
 30
2.1917
 70
192
 0
VERTEX
 8
SILENCIADOOR_1
 10
-1.0279
 20
-0.0179
 30
2.1885
 70
192
 0
VERTEX
 8
SILENCIADOOR_1
 10
-1.0279
 20
-0.0844
 30
2.1501
 70
192
 0
VERTEX
 8
SILENCIADOOR_1
 10
-1.0279
 20
-0.0844
 30
2.1501
 70
192
 0
VERTEX
 8
SILENCIADOOR_1
 10
-0.1669
 20
-0.0844
 30
2.1501
 70
192
 0
VERTEX
 8
SILENCIADOOR_1
 10
-0.1669
 20
-0.0844
 30
2.1501
 70
192
 0
VERTEX
 8
SILENCIADOOR_1
 10
-0.1669
 20
-0.0179
 30
2.1885
 70
192
 0
VERTEX
 8
SILENCIADOOR_1
 10
-0.1669
 20
-0.0179
 30
2.1885
 70
192
 0
VERTEX
 8
SILENCIADOOR_1
 10
-1.0279
 20
-0.0179
 30
2.1885
 70
192
 0
VERTEX
 8
SILENCIADOOR_1
 10
-1.0279
 20
-0.0159
 30
2.1856
 70
192
 0
VERTEX
 8
SILENCIADOOR_1
 10
-1.0279
 20
-0.0747
 30
2.1363
 70
192
 0
VERTEX
 8
SILENCIADOOR_1
 10
-1.0279
 20
-0.0747
 30
2.1363
 70
192
 0
VERTEX
 8
SILENCIADOOR_1
 10
-0.1669
 20
-0.0747
 30
2.1363
 70
192
 0
VERTEX
 8
SILENCIADOOR_1
 10
-0.1669
 20
-0.0747
 30
2.1363
 70
192
 0
VERTEX
 8
SILENCIADOOR_1
 10
-0.1669
 20
-0.0159
 30
2.1856
 70
192
 0
VERTEX
 8
SILENCIADOOR_1
 10
-0.1669
 20
-0.0159
 30
2.1856
 70
192
 0
VERTEX
 8
SILENCIADOOR_1
 10
-1.0279
 20
-0.0159
 30
2.1856
 70
192
 0
VERTEX
 8
SILENCIADOOR_1
 10
-1.0279
 20
-0.0134
 30
2.1831
 70
192
 0
VERTEX
 8
SILENCIADOOR_1
 10
-1.0279
 20
-0.0627
 30
2.1243
 70
192
 0
VERTEX
 8
SILENCIADOOR_1
 10
-1.0279
 20
-0.0627
 30
2.1243
 70
192
 0
VERTEX
 8
SILENCIADOOR_1
 10
-0.1669
 20
-0.0627
 30
2.1243
 70
192
 0
VERTEX
 8
SILENCIADOOR_1
 10
-0.1669
 20
-0.0627
 30
2.1243
 70
192
 0
VERTEX
 8
SILENCIADOOR_1
 10
-0.1669
 20
-0.0134
 30
2.1831
 70
192
 0
VERTEX
 8
SILENCIADOOR_1
 10
-0.1669
 20
-0.0134
 30
2.1831
 70
192
 0
VERTEX
 8
SILENCIADOOR_1
 10
-1.0279
 20
-0.0134
 30
2.1831
 70
192
 0
VERTEX
 8
SILENCIADOOR_1
 10
-1.0279
 20
-0.0105
 30
2.1811
 70
192
 0
VERTEX
 8
SILENCIADOOR_1
 10
-1.0279
 20
-0.0489
 30
2.1147
 70
192
 0
VERTEX
 8
SILENCIADOOR_1
 10
-1.0279
 20
-0.0489
 30
2.1147
 70
192
 0
VERTEX
 8
SILENCIADOOR_1
 10
-0.1669
 20
-0.0489
 30
2.1147
 70
192
 0
VERTEX
 8
SILENCIADOOR_1
 10
-0.1669
 20
-0.0489
 30
2.1147
 70
192
 0
VERTEX
 8
SILENCIADOOR_1
 10
-0.1669
 20
-0.0105
 30
2.1811
 70
192
 0
VERTEX
 8
SILENCIADOOR_1
 10
-0.1669
 20
-0.0105
 30
2.1811
 70
192
 0
VERTEX
 8
SILENCIADOOR_1
 10
-1.0279
 20
-0.0105
 30
2.1811
 70
192
 0
VERTEX
 8
SILENCIADOOR_1
 10
-1.0279
 20
-0.0074
 30
2.1796
 70
192
 0
VERTEX
 8
SILENCIADOOR_1
 10
-1.0279
 20
-0.0336
 30
2.1075
 70
192
 0
VERTEX
 8
SILENCIADOOR_1
 10
-1.0279
 20
-0.0336
 30
2.1075
 70
192
 0
VERTEX
 8
SILENCIADOOR_1
 10
-0.1669
 20
-0.0336
 30
2.1075
 70
192
 0
VERTEX
 8
SILENCIADOOR_1
 10
-0.1669
 20
-0.0336
 30
2.1075
 70
192
 0
VERTEX
 8
SILENCIADOOR_1
 10
-0.1669
 20
-0.0074
 30
2.1796
 70
192
 0
VERTEX
 8
SILENCIADOOR_1
 10
-0.1669
 20
-0.0074
 30
2.1796
 70
192
 0
VERTEX
 8
SILENCIADOOR_1
 10
-1.0279
 20
-0.0074
 30
2.1796
 70
192
 0
VERTEX
 8
SILENCIADOOR_1
 10
-1.0279
 20
-0.004
 30
2.1787
 70
192
 0
VERTEX
 8
SILENCIADOOR_1
 10
-1.0279
 20
-0.0173
 30
2.1032
 70
192
 0
VERTEX
 8
SILENCIADOOR_1
 10
-1.0279
 20
-0.0173
 30
2.1032
 70
192
 0
VERTEX
 8
SILENCIADOOR_1
 10
-0.1669
 20
-0.0173
 30
2.1032
 70
192
 0
VERTEX
 8
SILENCIADOOR_1
 10
-0.1669
 20
-0.0173
 30
2.1032
 70
192
 0
VERTEX
 8
SILENCIADOOR_1
 10
-0.1669
 20
-0.004
 30
2.1787
 70
192
 0
VERTEX
 8
SILENCIADOOR_1
 10
-0.1669
 20
-0.004
 30
2.1787
 70
192
 0
VERTEX
 8
SILENCIADOOR_1
 10
-1.0279
 20
-0.004
 30
2.1787
 70
192
 0
VERTEX
 8
SILENCIADOOR_1
 10
0
 20
0
 30
0
 70
128
 71
1
 72
2
 73
10
 74
9
 0
VERTEX
 8
SILENCIADOOR_1
 10
0
 20
0
 30
0
 70
128
 71
3
 72
4
 73
12
 74
11
 0
VERTEX
 8
SILENCIADOOR_1
 10
0
 20
0
 30
0
 70
128
 71
5
 72
6
 73
14
 74
13
 0
VERTEX
 8
SILENCIADOOR_1
 10
0
 20
0
 30
0
 70
128
 71
7
 72
8
 73
16
 74
15
 0
VERTEX
 8
SILENCIADOOR_1
 10
0
 20
0
 30
0
 70
128
 71
9
 72
10
 73
18
 74
17
 0
VERTEX
 8
SILENCIADOOR_1
 10
0
 20
0
 30
0
 70
128
 71
11
 72
12
 73
20
 74
19
 0
VERTEX
 8
SILENCIADOOR_1
 10
0
 20
0
 30
0
 70
128
 71
13
 72
14
 73
22
 74
21
 0
VERTEX
 8
SILENCIADOOR_1
 10
0
 20
0
 30
0
 70
128
 71
15
 72
16
 73
24
 74
23
 0
VERTEX
 8
SILENCIADOOR_1
 10
0
 20
0
 30
0
 70
128
 71
17
 72
18
 73
26
 74
25
 0
VERTEX
 8
SILENCIADOOR_1
 10
0
 20
0
 30
0
 70
128
 71
19
 72
20
 73
28
 74
27
 0
VERTEX
 8
SILENCIADOOR_1
 10
0
 20
0
 30
0
 70
128
 71
21
 72
22
 73
30
 74
29
 0
VERTEX
 8
SILENCIADOOR_1
 10
0
 20
0
 30
0
 70
128
 71
23
 72
24
 73
32
 74
31
 0
VERTEX
 8
SILENCIADOOR_1
 10
0
 20
0
 30
0
 70
128
 71
25
 72
26
 73
34
 74
33
 0
VERTEX
 8
SILENCIADOOR_1
 10
0
 20
0
 30
0
 70
128
 71
27
 72
28
 73
36
 74
35
 0
VERTEX
 8
SILENCIADOOR_1
 10
0
 20
0
 30
0
 70
128
 71
29
 72
30
 73
38
 74
37
 0
VERTEX
 8
SILENCIADOOR_1
 10
0
 20
0
 30
0
 70
128
 71
31
 72
32
 73
40
 74
39
 0
VERTEX
 8
SILENCIADOOR_1
 10
0
 20
0
 30
0
 70
128
 71
33
 72
34
 73
42
 74
41
 0
VERTEX
 8
SILENCIADOOR_1
 10
0
 20
0
 30
0
 70
128
 71
35
 72
36
 73
44
 74
43
 0
VERTEX
 8
SILENCIADOOR_1
 10
0
 20
0
 30
0
 70
128
 71
37
 72
38
 73
46
 74
45
 0
VERTEX
 8
SILENCIADOOR_1
 10
0
 20
0
 30
0
 70
128
 71
39
 72
40
 73
48
 74
47
 0
VERTEX
 8
SILENCIADOOR_1
 10
0
 20
0
 30
0
 70
128
 71
41
 72
42
 73
50
 74
49
 0
VERTEX
 8
SILENCIADOOR_1
 10
0
 20
0
 30
0
 70
128
 71
43
 72
44
 73
52
 74
51
 0
VERTEX
 8
SILENCIADOOR_1
 10
0
 20
0
 30
0
 70
128
 71
45
 72
46
 73
54
 74
53
 0
VERTEX
 8
SILENCIADOOR_1
 10
0
 20
0
 30
0
 70
128
 71
47
 72
48
 73
56
 74
55
 0
VERTEX
 8
SILENCIADOOR_1
 10
0
 20
0
 30
0
 70
128
 71
49
 72
50
 73
58
 74
57
 0
VERTEX
 8
SILENCIADOOR_1
 10
0
 20
0
 30
0
 70
128
 71
51
 72
52
 73
60
 74
59
 0
VERTEX
 8
SILENCIADOOR_1
 10
0
 20
0
 30
0
 70
128
 71
53
 72
54
 73
62
 74
61
 0
VERTEX
 8
SILENCIADOOR_1
 10
0
 20
0
 30
0
 70
128
 71
55
 72
56
 73
64
 74
63
 0
VERTEX
 8
SILENCIADOOR_1
 10
0
 20
0
 30
0
 70
128
 71
57
 72
58
 73
66
 74
65
 0
VERTEX
 8
SILENCIADOOR_1
 10
0
 20
0
 30
0
 70
128
 71
59
 72
60
 73
68
 74
67
 0
VERTEX
 8
SILENCIADOOR_1
 10
0
 20
0
 30
0
 70
128
 71
61
 72
62
 73
70
 74
69
 0
VERTEX
 8
SILENCIADOOR_1
 10
0
 20
0
 30
0
 70
128
 71
63
 72
64
 73
72
 74
71
 0
VERTEX
 8
SILENCIADOOR_1
 10
0
 20
0
 30
0
 70
128
 71
65
 72
66
 73
74
 74
73
 0
VERTEX
 8
SILENCIADOOR_1
 10
0
 20
0
 30
0
 70
128
 71
67
 72
68
 73
76
 74
75
 0
VERTEX
 8
SILENCIADOOR_1
 10
0
 20
0
 30
0
 70
128
 71
69
 72
70
 73
78
 74
77
 0
VERTEX
 8
SILENCIADOOR_1
 10
0
 20
0
 30
0
 70
128
 71
71
 72
72
 73
80
 74
79
 0
VERTEX
 8
SILENCIADOOR_1
 10
0
 20
0
 30
0
 70
128
 71
73
 72
74
 73
82
 74
81
 0
VERTEX
 8
SILENCIADOOR_1
 10
0
 20
0
 30
0
 70
128
 71
75
 72
76
 73
84
 74
83
 0
VERTEX
 8
SILENCIADOOR_1
 10
0
 20
0
 30
0
 70
128
 71
77
 72
78
 73
86
 74
85
 0
VERTEX
 8
SILENCIADOOR_1
 10
0
 20
0
 30
0
 70
128
 71
79
 72
80
 73
88
 74
87
 0
VERTEX
 8
SILENCIADOOR_1
 10
0
 20
0
 30
0
 70
128
 71
81
 72
82
 73
90
 74
89
 0
VERTEX
 8
SILENCIADOOR_1
 10
0
 20
0
 30
0
 70
128
 71
83
 72
84
 73
92
 74
91
 0
VERTEX
 8
SILENCIADOOR_1
 10
0
 20
0
 30
0
 70
128
 71
85
 72
86
 73
94
 74
93
 0
VERTEX
 8
SILENCIADOOR_1
 10
0
 20
0
 30
0
 70
128
 71
87
 72
88
 73
96
 74
95
 0
VERTEX
 8
SILENCIADOOR_1
 10
0
 20
0
 30
0
 70
128
 71
89
 72
90
 73
98
 74
97
 0
VERTEX
 8
SILENCIADOOR_1
 10
0
 20
0
 30
0
 70
128
 71
91
 72
92
 73
100
 74
99
 0
VERTEX
 8
SILENCIADOOR_1
 10
0
 20
0
 30
0
 70
128
 71
93
 72
94
 73
102
 74
101
 0
VERTEX
 8
SILENCIADOOR_1
 10
0
 20
0
 30
0
 70
128
 71
95
 72
96
 73
104
 74
103
 0
VERTEX
 8
SILENCIADOOR_1
 10
0
 20
0
 30
0
 70
128
 71
97
 72
98
 73
106
 74
105
 0
VERTEX
 8
SILENCIADOOR_1
 10
0
 20
0
 30
0
 70
128
 71
99
 72
100
 73
108
 74
107
 0
VERTEX
 8
SILENCIADOOR_1
 10
0
 20
0
 30
0
 70
128
 71
101
 72
102
 73
110
 74
109
 0
VERTEX
 8
SILENCIADOOR_1
 10
0
 20
0
 30
0
 70
128
 71
103
 72
104
 73
112
 74
111
 0
VERTEX
 8
SILENCIADOOR_1
 10
0
 20
0
 30
0
 70
128
 71
105
 72
106
 73
114
 74
113
 0
VERTEX
 8
SILENCIADOOR_1
 10
0
 20
0
 30
0
 70
128
 71
107
 72
108
 73
116
 74
115
 0
VERTEX
 8
SILENCIADOOR_1
 10
0
 20
0
 30
0
 70
128
 71
109
 72
110
 73
118
 74
117
 0
VERTEX
 8
SILENCIADOOR_1
 10
0
 20
0
 30
0
 70
128
 71
111
 72
112
 73
120
 74
119
 0
VERTEX
 8
SILENCIADOOR_1
 10
0
 20
0
 30
0
 70
128
 71
113
 72
114
 73
122
 74
121
 0
VERTEX
 8
SILENCIADOOR_1
 10
0
 20
0
 30
0
 70
128
 71
115
 72
116
 73
124
 74
123
 0
VERTEX
 8
SILENCIADOOR_1
 10
0
 20
0
 30
0
 70
128
 71
117
 72
118
 73
126
 74
125
 0
VERTEX
 8
SILENCIADOOR_1
 10
0
 20
0
 30
0
 70
128
 71
119
 72
120
 73
128
 74
127
 0
VERTEX
 8
SILENCIADOOR_1
 10
0
 20
0
 30
0
 70
128
 71
121
 72
122
 73
130
 74
129
 0
VERTEX
 8
SILENCIADOOR_1
 10
0
 20
0
 30
0
 70
128
 71
123
 72
124
 73
132
 74
131
 0
VERTEX
 8
SILENCIADOOR_1
 10
0
 20
0
 30
0
 70
128
 71
125
 72
126
 73
134
 74
133
 0
VERTEX
 8
SILENCIADOOR_1
 10
0
 20
0
 30
0
 70
128
 71
127
 72
128
 73
136
 74
135
 0
VERTEX
 8
SILENCIADOOR_1
 10
0
 20
0
 30
0
 70
128
 71
129
 72
130
 73
138
 74
137
 0
VERTEX
 8
SILENCIADOOR_1
 10
0
 20
0
 30
0
 70
128
 71
131
 72
132
 73
140
 74
139
 0
VERTEX
 8
SILENCIADOOR_1
 10
0
 20
0
 30
0
 70
128
 71
133
 72
134
 73
142
 74
141
 0
VERTEX
 8
SILENCIADOOR_1
 10
0
 20
0
 30
0
 70
128
 71
135
 72
136
 73
144
 74
143
 0
VERTEX
 8
SILENCIADOOR_1
 10
0
 20
0
 30
0
 70
128
 71
137
 72
138
 73
146
 74
145
 0
VERTEX
 8
SILENCIADOOR_1
 10
0
 20
0
 30
0
 70
128
 71
139
 72
140
 73
148
 74
147
 0
VERTEX
 8
SILENCIADOOR_1
 10
0
 20
0
 30
0
 70
128
 71
141
 72
142
 73
150
 74
149
 0
VERTEX
 8
SILENCIADOOR_1
 10
0
 20
0
 30
0
 70
128
 71
143
 72
144
 73
152
 74
151
 0
VERTEX
 8
SILENCIADOOR_1
 10
0
 20
0
 30
0
 70
128
 71
145
 72
146
 73
154
 74
153
 0
VERTEX
 8
SILENCIADOOR_1
 10
0
 20
0
 30
0
 70
128
 71
147
 72
148
 73
156
 74
155
 0
VERTEX
 8
SILENCIADOOR_1
 10
0
 20
0
 30
0
 70
128
 71
149
 72
150
 73
158
 74
157
 0
VERTEX
 8
SILENCIADOOR_1
 10
0
 20
0
 30
0
 70
128
 71
151
 72
152
 73
160
 74
159
 0
VERTEX
 8
SILENCIADOOR_1
 10
0
 20
0
 30
0
 70
128
 71
153
 72
154
 73
162
 74
161
 0
VERTEX
 8
SILENCIADOOR_1
 10
0
 20
0
 30
0
 70
128
 71
155
 72
156
 73
164
 74
163
 0
VERTEX
 8
SILENCIADOOR_1
 10
0
 20
0
 30
0
 70
128
 71
157
 72
158
 73
166
 74
165
 0
VERTEX
 8
SILENCIADOOR_1
 10
0
 20
0
 30
0
 70
128
 71
159
 72
160
 73
168
 74
167
 0
VERTEX
 8
SILENCIADOOR_1
 10
0
 20
0
 30
0
 70
128
 71
161
 72
162
 73
170
 74
169
 0
VERTEX
 8
SILENCIADOOR_1
 10
0
 20
0
 30
0
 70
128
 71
163
 72
164
 73
172
 74
171
 0
VERTEX
 8
SILENCIADOOR_1
 10
0
 20
0
 30
0
 70
128
 71
165
 72
166
 73
174
 74
173
 0
VERTEX
 8
SILENCIADOOR_1
 10
0
 20
0
 30
0
 70
128
 71
167
 72
168
 73
176
 74
175
 0
VERTEX
 8
SILENCIADOOR_1
 10
0
 20
0
 30
0
 70
128
 71
169
 72
170
 73
178
 74
177
 0
VERTEX
 8
SILENCIADOOR_1
 10
0
 20
0
 30
0
 70
128
 71
171
 72
172
 73
180
 74
179
 0
VERTEX
 8
SILENCIADOOR_1
 10
0
 20
0
 30
0
 70
128
 71
173
 72
174
 73
182
 74
181
 0
VERTEX
 8
SILENCIADOOR_1
 10
0
 20
0
 30
0
 70
128
 71
175
 72
176
 73
184
 74
183
 0
VERTEX
 8
SILENCIADOOR_1
 10
0
 20
0
 30
0
 70
128
 71
177
 72
178
 73
186
 74
185
 0
VERTEX
 8
SILENCIADOOR_1
 10
0
 20
0
 30
0
 70
128
 71
179
 72
180
 73
188
 74
187
 0
VERTEX
 8
SILENCIADOOR_1
 10
0
 20
0
 30
0
 70
128
 71
181
 72
182
 73
190
 74
189
 0
VERTEX
 8
SILENCIADOOR_1
 10
0
 20
0
 30
0
 70
128
 71
183
 72
184
 73
192
 74
191
 0
VERTEX
 8
SILENCIADOOR_1
 10
0
 20
0
 30
0
 70
128
 71
185
 72
186
 73
194
 74
193
 0
VERTEX
 8
SILENCIADOOR_1
 10
0
 20
0
 30
0
 70
128
 71
187
 72
188
 73
196
 74
195
 0
VERTEX
 8
SILENCIADOOR_1
 10
0
 20
0
 30
0
 70
128
 71
189
 72
190
 73
198
 74
197
 0
VERTEX
 8
SILENCIADOOR_1
 10
0
 20
0
 30
0
 70
128
 71
191
 72
192
 73
200
 74
199
 0
VERTEX
 8
SILENCIADOOR_1
 10
0
 20
0
 30
0
 70
128
 71
193
 72
194
 73
202
 74
201
 0
VERTEX
 8
SILENCIADOOR_1
 10
0
 20
0
 30
0
 70
128
 71
195
 72
196
 73
204
 74
203
 0
VERTEX
 8
SILENCIADOOR_1
 10
0
 20
0
 30
0
 70
128
 71
197
 72
198
 73
206
 74
205
 0
VERTEX
 8
SILENCIADOOR_1
 10
0
 20
0
 30
0
 70
128
 71
199
 72
200
 73
208
 74
207
 0
VERTEX
 8
SILENCIADOOR_1
 10
0
 20
0
 30
0
 70
128
 71
201
 72
202
 73
210
 74
209
 0
VERTEX
 8
SILENCIADOOR_1
 10
0
 20
0
 30
0
 70
128
 71
203
 72
204
 73
212
 74
211
 0
VERTEX
 8
SILENCIADOOR_1
 10
0
 20
0
 30
0
 70
128
 71
205
 72
206
 73
214
 74
213
 0
VERTEX
 8
SILENCIADOOR_1
 10
0
 20
0
 30
0
 70
128
 71
207
 72
208
 73
216
 74
215
 0
VERTEX
 8
SILENCIADOOR_1
 10
0
 20
0
 30
0
 70
128
 71
209
 72
210
 73
218
 74
217
 0
VERTEX
 8
SILENCIADOOR_1
 10
0
 20
0
 30
0
 70
128
 71
211
 72
212
 73
220
 74
219
 0
VERTEX
 8
SILENCIADOOR_1
 10
0
 20
0
 30
0
 70
128
 71
213
 72
214
 73
222
 74
221
 0
VERTEX
 8
SILENCIADOOR_1
 10
0
 20
0
 30
0
 70
128
 71
215
 72
216
 73
224
 74
223
 0
VERTEX
 8
SILENCIADOOR_1
 10
0
 20
0
 30
0
 70
128
 71
217
 72
218
 73
226
 74
225
 0
VERTEX
 8
SILENCIADOOR_1
 10
0
 20
0
 30
0
 70
128
 71
219
 72
220
 73
228
 74
227
 0
VERTEX
 8
SILENCIADOOR_1
 10
0
 20
0
 30
0
 70
128
 71
221
 72
222
 73
230
 74
229
 0
VERTEX
 8
SILENCIADOOR_1
 10
0
 20
0
 30
0
 70
128
 71
223
 72
224
 73
232
 74
231
 0
VERTEX
 8
SILENCIADOOR_1
 10
0
 20
0
 30
0
 70
128
 71
225
 72
226
 73
234
 74
233
 0
VERTEX
 8
SILENCIADOOR_1
 10
0
 20
0
 30
0
 70
128
 71
227
 72
228
 73
236
 74
235
 0
VERTEX
 8
SILENCIADOOR_1
 10
0
 20
0
 30
0
 70
128
 71
229
 72
230
 73
238
 74
237
 0
VERTEX
 8
SILENCIADOOR_1
 10
0
 20
0
 30
0
 70
128
 71
231
 72
232
 73
240
 74
239
 0
VERTEX
 8
SILENCIADOOR_1
 10
0
 20
0
 30
0
 70
128
 71
233
 72
234
 73
242
 74
241
 0
VERTEX
 8
SILENCIADOOR_1
 10
0
 20
0
 30
0
 70
128
 71
235
 72
236
 73
244
 74
243
 0
VERTEX
 8
SILENCIADOOR_1
 10
0
 20
0
 30
0
 70
128
 71
237
 72
238
 73
246
 74
245
 0
VERTEX
 8
SILENCIADOOR_1
 10
0
 20
0
 30
0
 70
128
 71
239
 72
240
 73
248
 74
247
 0
VERTEX
 8
SILENCIADOOR_1
 10
0
 20
0
 30
0
 70
128
 71
241
 72
242
 73
250
 74
249
 0
VERTEX
 8
SILENCIADOOR_1
 10
0
 20
0
 30
0
 70
128
 71
243
 72
244
 73
252
 74
251
 0
VERTEX
 8
SILENCIADOOR_1
 10
0
 20
0
 30
0
 70
128
 71
245
 72
246
 73
254
 74
253
 0
VERTEX
 8
SILENCIADOOR_1
 10
0
 20
0
 30
0
 70
128
 71
247
 72
248
 73
256
 74
255
 0
VERTEX
 8
SILENCIADOOR_1
 10
0
 20
0
 30
0
 70
128
 71
249
 72
250
 73
258
 74
257
 0
VERTEX
 8
SILENCIADOOR_1
 10
0
 20
0
 30
0
 70
128
 71
251
 72
252
 73
260
 74
259
 0
VERTEX
 8
SILENCIADOOR_1
 10
0
 20
0
 30
0
 70
128
 71
253
 72
254
 73
262
 74
261
 0
VERTEX
 8
SILENCIADOOR_1
 10
0
 20
0
 30
0
 70
128
 71
255
 72
256
 73
264
 74
263
 0
VERTEX
 8
SILENCIADOOR_1
 10
0
 20
0
 30
0
 70
128
 71
257
 72
258
 73
266
 74
265
 0
VERTEX
 8
SILENCIADOOR_1
 10
0
 20
0
 30
0
 70
128
 71
259
 72
260
 73
268
 74
267
 0
VERTEX
 8
SILENCIADOOR_1
 10
0
 20
0
 30
0
 70
128
 71
261
 72
262
 73
270
 74
269
 0
VERTEX
 8
SILENCIADOOR_1
 10
0
 20
0
 30
0
 70
128
 71
263
 72
264
 73
272
 74
271
 0
VERTEX
 8
SILENCIADOOR_1
 10
0
 20
0
 30
0
 70
128
 71
265
 72
266
 73
274
 74
273
 0
VERTEX
 8
SILENCIADOOR_1
 10
0
 20
0
 30
0
 70
128
 71
267
 72
268
 73
276
 74
275
 0
VERTEX
 8
SILENCIADOOR_1
 10
0
 20
0
 30
0
 70
128
 71
269
 72
270
 73
278
 74
277
 0
VERTEX
 8
SILENCIADOOR_1
 10
0
 20
0
 30
0
 70
128
 71
271
 72
272
 73
280
 74
279
 0
VERTEX
 8
SILENCIADOOR_1
 10
0
 20
0
 30
0
 70
128
 71
273
 72
274
 73
282
 74
281
 0
VERTEX
 8
SILENCIADOOR_1
 10
0
 20
0
 30
0
 70
128
 71
275
 72
276
 73
284
 74
283
 0
VERTEX
 8
SILENCIADOOR_1
 10
0
 20
0
 30
0
 70
128
 71
277
 72
278
 73
286
 74
285
 0
VERTEX
 8
SILENCIADOOR_1
 10
0
 20
0
 30
0
 70
128
 71
279
 72
280
 73
288
 74
287
 0
VERTEX
 8
SILENCIADOOR_1
 10
0
 20
0
 30
0
 70
128
 71
281
 72
282
 73
2
 74
1
 0
VERTEX
 8
SILENCIADOOR_1
 10
0
 20
0
 30
0
 70
128
 71
283
 72
284
 73
4
 74
3
 0
VERTEX
 8
SILENCIADOOR_1
 10
0
 20
0
 30
0
 70
128
 71
285
 72
286
 73
6
 74
5
 0
VERTEX
 8
SILENCIADOOR_1
 10
0
 20
0
 30
0
 70
128
 71
287
 72
288
 73
8
 74
7
 0
VERTEX
 8
SILENCIADOOR_1
 10
0
 20
0
 30
0
 70
128
 71
289
 72
290
 73
298
 74
297
 0
VERTEX
 8
SILENCIADOOR_1
 10
0
 20
0
 30
0
 70
128
 71
291
 72
292
 73
300
 74
299
 0
VERTEX
 8
SILENCIADOOR_1
 10
0
 20
0
 30
0
 70
128
 71
293
 72
294
 73
302
 74
301
 0
VERTEX
 8
SILENCIADOOR_1
 10
0
 20
0
 30
0
 70
128
 71
295
 72
296
 73
304
 74
303
 0
VERTEX
 8
SILENCIADOOR_1
 10
0
 20
0
 30
0
 70
128
 71
297
 72
298
 73
306
 74
305
 0
VERTEX
 8
SILENCIADOOR_1
 10
0
 20
0
 30
0
 70
128
 71
299
 72
300
 73
308
 74
307
 0
VERTEX
 8
SILENCIADOOR_1
 10
0
 20
0
 30
0
 70
128
 71
301
 72
302
 73
310
 74
309
 0
VERTEX
 8
SILENCIADOOR_1
 10
0
 20
0
 30
0
 70
128
 71
303
 72
304
 73
312
 74
311
 0
VERTEX
 8
SILENCIADOOR_1
 10
0
 20
0
 30
0
 70
128
 71
305
 72
306
 73
314
 74
313
 0
VERTEX
 8
SILENCIADOOR_1
 10
0
 20
0
 30
0
 70
128
 71
307
 72
308
 73
316
 74
315
 0
VERTEX
 8
SILENCIADOOR_1
 10
0
 20
0
 30
0
 70
128
 71
309
 72
310
 73
318
 74
317
 0
VERTEX
 8
SILENCIADOOR_1
 10
0
 20
0
 30
0
 70
128
 71
311
 72
312
 73
320
 74
319
 0
VERTEX
 8
SILENCIADOOR_1
 10
0
 20
0
 30
0
 70
128
 71
313
 72
314
 73
322
 74
321
 0
VERTEX
 8
SILENCIADOOR_1
 10
0
 20
0
 30
0
 70
128
 71
315
 72
316
 73
324
 74
323
 0
VERTEX
 8
SILENCIADOOR_1
 10
0
 20
0
 30
0
 70
128
 71
317
 72
318
 73
326
 74
325
 0
VERTEX
 8
SILENCIADOOR_1
 10
0
 20
0
 30
0
 70
128
 71
319
 72
320
 73
328
 74
327
 0
VERTEX
 8
SILENCIADOOR_1
 10
0
 20
0
 30
0
 70
128
 71
321
 72
322
 73
330
 74
329
 0
VERTEX
 8
SILENCIADOOR_1
 10
0
 20
0
 30
0
 70
128
 71
323
 72
324
 73
332
 74
331
 0
VERTEX
 8
SILENCIADOOR_1
 10
0
 20
0
 30
0
 70
128
 71
325
 72
326
 73
334
 74
333
 0
VERTEX
 8
SILENCIADOOR_1
 10
0
 20
0
 30
0
 70
128
 71
327
 72
328
 73
336
 74
335
 0
VERTEX
 8
SILENCIADOOR_1
 10
0
 20
0
 30
0
 70
128
 71
329
 72
330
 73
338
 74
337
 0
VERTEX
 8
SILENCIADOOR_1
 10
0
 20
0
 30
0
 70
128
 71
331
 72
332
 73
340
 74
339
 0
VERTEX
 8
SILENCIADOOR_1
 10
0
 20
0
 30
0
 70
128
 71
333
 72
334
 73
342
 74
341
 0
VERTEX
 8
SILENCIADOOR_1
 10
0
 20
0
 30
0
 70
128
 71
335
 72
336
 73
344
 74
343
 0
VERTEX
 8
SILENCIADOOR_1
 10
0
 20
0
 30
0
 70
128
 71
337
 72
338
 73
346
 74
345
 0
VERTEX
 8
SILENCIADOOR_1
 10
0
 20
0
 30
0
 70
128
 71
339
 72
340
 73
348
 74
347
 0
VERTEX
 8
SILENCIADOOR_1
 10
0
 20
0
 30
0
 70
128
 71
341
 72
342
 73
350
 74
349
 0
VERTEX
 8
SILENCIADOOR_1
 10
0
 20
0
 30
0
 70
128
 71
343
 72
344
 73
352
 74
351
 0
VERTEX
 8
SILENCIADOOR_1
 10
0
 20
0
 30
0
 70
128
 71
345
 72
346
 73
354
 74
353
 0
VERTEX
 8
SILENCIADOOR_1
 10
0
 20
0
 30
0
 70
128
 71
347
 72
348
 73
356
 74
355
 0
VERTEX
 8
SILENCIADOOR_1
 10
0
 20
0
 30
0
 70
128
 71
349
 72
350
 73
358
 74
357
 0
VERTEX
 8
SILENCIADOOR_1
 10
0
 20
0
 30
0
 70
128
 71
351
 72
352
 73
360
 74
359
 0
VERTEX
 8
SILENCIADOOR_1
 10
0
 20
0
 30
0
 70
128
 71
353
 72
354
 73
362
 74
361
 0
VERTEX
 8
SILENCIADOOR_1
 10
0
 20
0
 30
0
 70
128
 71
355
 72
356
 73
364
 74
363
 0
VERTEX
 8
SILENCIADOOR_1
 10
0
 20
0
 30
0
 70
128
 71
357
 72
358
 73
366
 74
365
 0
VERTEX
 8
SILENCIADOOR_1
 10
0
 20
0
 30
0
 70
128
 71
359
 72
360
 73
368
 74
367
 0
VERTEX
 8
SILENCIADOOR_1
 10
0
 20
0
 30
0
 70
128
 71
361
 72
362
 73
370
 74
369
 0
VERTEX
 8
SILENCIADOOR_1
 10
0
 20
0
 30
0
 70
128
 71
363
 72
364
 73
372
 74
371
 0
VERTEX
 8
SILENCIADOOR_1
 10
0
 20
0
 30
0
 70
128
 71
365
 72
366
 73
374
 74
373
 0
VERTEX
 8
SILENCIADOOR_1
 10
0
 20
0
 30
0
 70
128
 71
367
 72
368
 73
376
 74
375
 0
VERTEX
 8
SILENCIADOOR_1
 10
0
 20
0
 30
0
 70
128
 71
369
 72
370
 73
378
 74
377
 0
VERTEX
 8
SILENCIADOOR_1
 10
0
 20
0
 30
0
 70
128
 71
371
 72
372
 73
380
 74
379
 0
VERTEX
 8
SILENCIADOOR_1
 10
0
 20
0
 30
0
 70
128
 71
373
 72
374
 73
382
 74
381
 0
VERTEX
 8
SILENCIADOOR_1
 10
0
 20
0
 30
0
 70
128
 71
375
 72
376
 73
384
 74
383
 0
VERTEX
 8
SILENCIADOOR_1
 10
0
 20
0
 30
0
 70
128
 71
377
 72
378
 73
386
 74
385
 0
VERTEX
 8
SILENCIADOOR_1
 10
0
 20
0
 30
0
 70
128
 71
379
 72
380
 73
388
 74
387
 0
VERTEX
 8
SILENCIADOOR_1
 10
0
 20
0
 30
0
 70
128
 71
381
 72
382
 73
390
 74
389
 0
VERTEX
 8
SILENCIADOOR_1
 10
0
 20
0
 30
0
 70
128
 71
383
 72
384
 73
392
 74
391
 0
VERTEX
 8
SILENCIADOOR_1
 10
0
 20
0
 30
0
 70
128
 71
385
 72
386
 73
394
 74
393
 0
VERTEX
 8
SILENCIADOOR_1
 10
0
 20
0
 30
0
 70
128
 71
387
 72
388
 73
396
 74
395
 0
VERTEX
 8
SILENCIADOOR_1
 10
0
 20
0
 30
0
 70
128
 71
389
 72
390
 73
398
 74
397
 0
VERTEX
 8
SILENCIADOOR_1
 10
0
 20
0
 30
0
 70
128
 71
391
 72
392
 73
400
 74
399
 0
VERTEX
 8
SILENCIADOOR_1
 10
0
 20
0
 30
0
 70
128
 71
393
 72
394
 73
402
 74
401
 0
VERTEX
 8
SILENCIADOOR_1
 10
0
 20
0
 30
0
 70
128
 71
395
 72
396
 73
404
 74
403
 0
VERTEX
 8
SILENCIADOOR_1
 10
0
 20
0
 30
0
 70
128
 71
397
 72
398
 73
406
 74
405
 0
VERTEX
 8
SILENCIADOOR_1
 10
0
 20
0
 30
0
 70
128
 71
399
 72
400
 73
408
 74
407
 0
VERTEX
 8
SILENCIADOOR_1
 10
0
 20
0
 30
0
 70
128
 71
401
 72
402
 73
410
 74
409
 0
VERTEX
 8
SILENCIADOOR_1
 10
0
 20
0
 30
0
 70
128
 71
403
 72
404
 73
412
 74
411
 0
VERTEX
 8
SILENCIADOOR_1
 10
0
 20
0
 30
0
 70
128
 71
405
 72
406
 73
414
 74
413
 0
VERTEX
 8
SILENCIADOOR_1
 10
0
 20
0
 30
0
 70
128
 71
407
 72
408
 73
416
 74
415
 0
VERTEX
 8
SILENCIADOOR_1
 10
0
 20
0
 30
0
 70
128
 71
409
 72
410
 73
418
 74
417
 0
VERTEX
 8
SILENCIADOOR_1
 10
0
 20
0
 30
0
 70
128
 71
411
 72
412
 73
420
 74
419
 0
VERTEX
 8
SILENCIADOOR_1
 10
0
 20
0
 30
0
 70
128
 71
413
 72
414
 73
422
 74
421
 0
VERTEX
 8
SILENCIADOOR_1
 10
0
 20
0
 30
0
 70
128
 71
415
 72
416
 73
424
 74
423
 0
VERTEX
 8
SILENCIADOOR_1
 10
0
 20
0
 30
0
 70
128
 71
417
 72
418
 73
426
 74
425
 0
VERTEX
 8
SILENCIADOOR_1
 10
0
 20
0
 30
0
 70
128
 71
419
 72
420
 73
428
 74
427
 0
VERTEX
 8
SILENCIADOOR_1
 10
0
 20
0
 30
0
 70
128
 71
421
 72
422
 73
430
 74
429
 0
VERTEX
 8
SILENCIADOOR_1
 10
0
 20
0
 30
0
 70
128
 71
423
 72
424
 73
432
 74
431
 0
VERTEX
 8
SILENCIADOOR_1
 10
0
 20
0
 30
0
 70
128
 71
425
 72
426
 73
434
 74
433
 0
VERTEX
 8
SILENCIADOOR_1
 10
0
 20
0
 30
0
 70
128
 71
427
 72
428
 73
436
 74
435
 0
VERTEX
 8
SILENCIADOOR_1
 10
0
 20
0
 30
0
 70
128
 71
429
 72
430
 73
438
 74
437
 0
VERTEX
 8
SILENCIADOOR_1
 10
0
 20
0
 30
0
 70
128
 71
431
 72
432
 73
440
 74
439
 0
VERTEX
 8
SILENCIADOOR_1
 10
0
 20
0
 30
0
 70
128
 71
433
 72
434
 73
442
 74
441
 0
VERTEX
 8
SILENCIADOOR_1
 10
0
 20
0
 30
0
 70
128
 71
435
 72
436
 73
444
 74
443
 0
VERTEX
 8
SILENCIADOOR_1
 10
0
 20
0
 30
0
 70
128
 71
437
 72
438
 73
446
 74
445
 0
VERTEX
 8
SILENCIADOOR_1
 10
0
 20
0
 30
0
 70
128
 71
439
 72
440
 73
448
 74
447
 0
VERTEX
 8
SILENCIADOOR_1
 10
0
 20
0
 30
0
 70
128
 71
441
 72
442
 73
450
 74
449
 0
VERTEX
 8
SILENCIADOOR_1
 10
0
 20
0
 30
0
 70
128
 71
443
 72
444
 73
452
 74
451
 0
VERTEX
 8
SILENCIADOOR_1
 10
0
 20
0
 30
0
 70
128
 71
445
 72
446
 73
454
 74
453
 0
VERTEX
 8
SILENCIADOOR_1
 10
0
 20
0
 30
0
 70
128
 71
447
 72
448
 73
456
 74
455
 0
VERTEX
 8
SILENCIADOOR_1
 10
0
 20
0
 30
0
 70
128
 71
449
 72
450
 73
458
 74
457
 0
VERTEX
 8
SILENCIADOOR_1
 10
0
 20
0
 30
0
 70
128
 71
451
 72
452
 73
460
 74
459
 0
VERTEX
 8
SILENCIADOOR_1
 10
0
 20
0
 30
0
 70
128
 71
453
 72
454
 73
462
 74
461
 0
VERTEX
 8
SILENCIADOOR_1
 10
0
 20
0
 30
0
 70
128
 71
455
 72
456
 73
464
 74
463
 0
VERTEX
 8
SILENCIADOOR_1
 10
0
 20
0
 30
0
 70
128
 71
457
 72
458
 73
466
 74
465
 0
VERTEX
 8
SILENCIADOOR_1
 10
0
 20
0
 30
0
 70
128
 71
459
 72
460
 73
468
 74
467
 0
VERTEX
 8
SILENCIADOOR_1
 10
0
 20
0
 30
0
 70
128
 71
461
 72
462
 73
470
 74
469
 0
VERTEX
 8
SILENCIADOOR_1
 10
0
 20
0
 30
0
 70
128
 71
463
 72
464
 73
472
 74
471
 0
VERTEX
 8
SILENCIADOOR_1
 10
0
 20
0
 30
0
 70
128
 71
465
 72
466
 73
474
 74
473
 0
VERTEX
 8
SILENCIADOOR_1
 10
0
 20
0
 30
0
 70
128
 71
467
 72
468
 73
476
 74
475
 0
VERTEX
 8
SILENCIADOOR_1
 10
0
 20
0
 30
0
 70
128
 71
469
 72
470
 73
478
 74
477
 0
VERTEX
 8
SILENCIADOOR_1
 10
0
 20
0
 30
0
 70
128
 71
471
 72
472
 73
480
 74
479
 0
VERTEX
 8
SILENCIADOOR_1
 10
0
 20
0
 30
0
 70
128
 71
473
 72
474
 73
482
 74
481
 0
VERTEX
 8
SILENCIADOOR_1
 10
0
 20
0
 30
0
 70
128
 71
475
 72
476
 73
484
 74
483
 0
VERTEX
 8
SILENCIADOOR_1
 10
0
 20
0
 30
0
 70
128
 71
477
 72
478
 73
486
 74
485
 0
VERTEX
 8
SILENCIADOOR_1
 10
0
 20
0
 30
0
 70
128
 71
479
 72
480
 73
488
 74
487
 0
VERTEX
 8
SILENCIADOOR_1
 10
0
 20
0
 30
0
 70
128
 71
481
 72
482
 73
490
 74
489
 0
VERTEX
 8
SILENCIADOOR_1
 10
0
 20
0
 30
0
 70
128
 71
483
 72
484
 73
492
 74
491
 0
VERTEX
 8
SILENCIADOOR_1
 10
0
 20
0
 30
0
 70
128
 71
485
 72
486
 73
494
 74
493
 0
VERTEX
 8
SILENCIADOOR_1
 10
0
 20
0
 30
0
 70
128
 71
487
 72
488
 73
496
 74
495
 0
VERTEX
 8
SILENCIADOOR_1
 10
0
 20
0
 30
0
 70
128
 71
489
 72
490
 73
498
 74
497
 0
VERTEX
 8
SILENCIADOOR_1
 10
0
 20
0
 30
0
 70
128
 71
491
 72
492
 73
500
 74
499
 0
VERTEX
 8
SILENCIADOOR_1
 10
0
 20
0
 30
0
 70
128
 71
493
 72
494
 73
502
 74
501
 0
VERTEX
 8
SILENCIADOOR_1
 10
0
 20
0
 30
0
 70
128
 71
495
 72
496
 73
504
 74
503
 0
VERTEX
 8
SILENCIADOOR_1
 10
0
 20
0
 30
0
 70
128
 71
497
 72
498
 73
506
 74
505
 0
VERTEX
 8
SILENCIADOOR_1
 10
0
 20
0
 30
0
 70
128
 71
499
 72
500
 73
508
 74
507
 0
VERTEX
 8
SILENCIADOOR_1
 10
0
 20
0
 30
0
 70
128
 71
501
 72
502
 73
510
 74
509
 0
VERTEX
 8
SILENCIADOOR_1
 10
0
 20
0
 30
0
 70
128
 71
503
 72
504
 73
512
 74
511
 0
VERTEX
 8
SILENCIADOOR_1
 10
0
 20
0
 30
0
 70
128
 71
505
 72
506
 73
514
 74
513
 0
VERTEX
 8
SILENCIADOOR_1
 10
0
 20
0
 30
0
 70
128
 71
507
 72
508
 73
516
 74
515
 0
VERTEX
 8
SILENCIADOOR_1
 10
0
 20
0
 30
0
 70
128
 71
509
 72
510
 73
518
 74
517
 0
VERTEX
 8
SILENCIADOOR_1
 10
0
 20
0
 30
0
 70
128
 71
511
 72
512
 73
520
 74
519
 0
VERTEX
 8
SILENCIADOOR_1
 10
0
 20
0
 30
0
 70
128
 71
513
 72
514
 73
522
 74
521
 0
VERTEX
 8
SILENCIADOOR_1
 10
0
 20
0
 30
0
 70
128
 71
515
 72
516
 73
524
 74
523
 0
VERTEX
 8
SILENCIADOOR_1
 10
0
 20
0
 30
0
 70
128
 71
517
 72
518
 73
526
 74
525
 0
VERTEX
 8
SILENCIADOOR_1
 10
0
 20
0
 30
0
 70
128
 71
519
 72
520
 73
528
 74
527
 0
VERTEX
 8
SILENCIADOOR_1
 10
0
 20
0
 30
0
 70
128
 71
521
 72
522
 73
530
 74
529
 0
VERTEX
 8
SILENCIADOOR_1
 10
0
 20
0
 30
0
 70
128
 71
523
 72
524
 73
532
 74
531
 0
VERTEX
 8
SILENCIADOOR_1
 10
0
 20
0
 30
0
 70
128
 71
525
 72
526
 73
534
 74
533
 0
VERTEX
 8
SILENCIADOOR_1
 10
0
 20
0
 30
0
 70
128
 71
527
 72
528
 73
536
 74
535
 0
VERTEX
 8
SILENCIADOOR_1
 10
0
 20
0
 30
0
 70
128
 71
529
 72
530
 73
538
 74
537
 0
VERTEX
 8
SILENCIADOOR_1
 10
0
 20
0
 30
0
 70
128
 71
531
 72
532
 73
540
 74
539
 0
VERTEX
 8
SILENCIADOOR_1
 10
0
 20
0
 30
0
 70
128
 71
533
 72
534
 73
542
 74
541
 0
VERTEX
 8
SILENCIADOOR_1
 10
0
 20
0
 30
0
 70
128
 71
535
 72
536
 73
544
 74
543
 0
VERTEX
 8
SILENCIADOOR_1
 10
0
 20
0
 30
0
 70
128
 71
537
 72
538
 73
546
 74
545
 0
VERTEX
 8
SILENCIADOOR_1
 10
0
 20
0
 30
0
 70
128
 71
539
 72
540
 73
548
 74
547
 0
VERTEX
 8
SILENCIADOOR_1
 10
0
 20
0
 30
0
 70
128
 71
541
 72
542
 73
550
 74
549
 0
VERTEX
 8
SILENCIADOOR_1
 10
0
 20
0
 30
0
 70
128
 71
543
 72
544
 73
552
 74
551
 0
VERTEX
 8
SILENCIADOOR_1
 10
0
 20
0
 30
0
 70
128
 71
545
 72
546
 73
554
 74
553
 0
VERTEX
 8
SILENCIADOOR_1
 10
0
 20
0
 30
0
 70
128
 71
547
 72
548
 73
556
 74
555
 0
VERTEX
 8
SILENCIADOOR_1
 10
0
 20
0
 30
0
 70
128
 71
549
 72
550
 73
558
 74
557
 0
VERTEX
 8
SILENCIADOOR_1
 10
0
 20
0
 30
0
 70
128
 71
551
 72
552
 73
560
 74
559
 0
VERTEX
 8
SILENCIADOOR_1
 10
0
 20
0
 30
0
 70
128
 71
553
 72
554
 73
562
 74
561
 0
VERTEX
 8
SILENCIADOOR_1
 10
0
 20
0
 30
0
 70
128
 71
555
 72
556
 73
564
 74
563
 0
VERTEX
 8
SILENCIADOOR_1
 10
0
 20
0
 30
0
 70
128
 71
557
 72
558
 73
566
 74
565
 0
VERTEX
 8
SILENCIADOOR_1
 10
0
 20
0
 30
0
 70
128
 71
559
 72
560
 73
568
 74
567
 0
VERTEX
 8
SILENCIADOOR_1
 10
0
 20
0
 30
0
 70
128
 71
561
 72
562
 73
570
 74
569
 0
VERTEX
 8
SILENCIADOOR_1
 10
0
 20
0
 30
0
 70
128
 71
563
 72
564
 73
572
 74
571
 0
VERTEX
 8
SILENCIADOOR_1
 10
0
 20
0
 30
0
 70
128
 71
565
 72
566
 73
574
 74
573
 0
VERTEX
 8
SILENCIADOOR_1
 10
0
 20
0
 30
0
 70
128
 71
567
 72
568
 73
576
 74
575
 0
VERTEX
 8
SILENCIADOOR_1
 10
0
 20
0
 30
0
 70
128
 71
569
 72
570
 73
290
 74
289
 0
VERTEX
 8
SILENCIADOOR_1
 10
0
 20
0
 30
0
 70
128
 71
571
 72
572
 73
292
 74
291
 0
VERTEX
 8
SILENCIADOOR_1
 10
0
 20
0
 30
0
 70
128
 71
573
 72
574
 73
294
 74
293
 0
VERTEX
 8
SILENCIADOOR_1
 10
0
 20
0
 30
0
 70
128
 71
575
 72
576
 73
296
 74
295
 0
SEQEND
 0
ENDSEC
 0
EOF
