 0
SECTION
 2
HEADER
 9
$ACADVER
 1
AC1009
 0
ENDSEC
 0
SECTION
 2
TABLES
 0
TABLE
 2
LTYPE
 70
1
 0
LTYPE
 2
CONTINUOUS
 70
64
 3
solid line
 72
65
 73
0
 40
0.0
 0
ENDTAB
 0
TABLE
 2
LAYER
 70
6
 0
LAYER
 2
0
 70
0
 62
7
 6
CONTINUOUS
 0
LAYER
 2
P_3
 70
64
 62
7
 6
CONTINUOUS
 0
LAYER
 2
GATILLO
 70
64
 62
251
 6
CONTINUOUS
 0
LAYER
 2
CUERPO
 70
64
 62
7
 6
CONTINUOUS
 0
LAYER
 2
CUERPO_1
 70
64
 62
251
 6
CONTINUOUS
 0
LAYER
 2
MANGO
 70
64
 62
19
 6
CONTINUOUS
 0
LAYER
 2
CARGADOR
 70
64
 62
251
 6
CONTINUOUS
 0
ENDTAB
 0
ENDSEC
 0
SECTION
 2
BLOCKS
 0
ENDSEC
 0
SECTION
 2
ENTITIES
 0
POLYLINE
 8
GATILLO
 66
1
 10
0.0
 20
0.0
 30
0.0
 70
64
 71
24
 72
22
 0
VERTEX
 8
GATILLO
 10
-0.0219
 20
0.1354
 30
0.0288
 70
192
 0
VERTEX
 8
GATILLO
 10
-0.0219
 20
0.1339
 30
0.0672
 70
192
 0
VERTEX
 8
GATILLO
 10
0.0219
 20
0.1354
 30
0.0288
 70
192
 0
VERTEX
 8
GATILLO
 10
0.0219
 20
0.1339
 30
0.0672
 70
192
 0
VERTEX
 8
GATILLO
 10
0.0223
 20
0.1658
 30
-0.0192
 70
192
 0
VERTEX
 8
GATILLO
 10
0.0219
 20
0.1757
 30
0.0672
 70
192
 0
VERTEX
 8
GATILLO
 10
0.0223
 20
0.2092
 30
-0.0011
 70
192
 0
VERTEX
 8
GATILLO
 10
0.0219
 20
0.2175
 30
0.0672
 70
192
 0
VERTEX
 8
GATILLO
 10
0.0219
 20
0.2593
 30
0.0261
 70
192
 0
VERTEX
 8
GATILLO
 10
0.0219
 20
0.2839
 30
0.0567
 70
192
 0
VERTEX
 8
GATILLO
 10
-0.0219
 20
0.2593
 30
0.0261
 70
192
 0
VERTEX
 8
GATILLO
 10
-0.0219
 20
0.2839
 30
0.0567
 70
192
 0
VERTEX
 8
GATILLO
 10
-0.0214
 20
0.2092
 30
-0.0011
 70
192
 0
VERTEX
 8
GATILLO
 10
-0.0219
 20
0.2175
 30
0.0672
 70
192
 0
VERTEX
 8
GATILLO
 10
-0.0214
 20
0.1658
 30
-0.0192
 70
192
 0
VERTEX
 8
GATILLO
 10
-0.0219
 20
0.1757
 30
0.0672
 70
192
 0
VERTEX
 8
GATILLO
 10
0.0223
 20
0.1601
 30
-0.0658
 70
192
 0
VERTEX
 8
GATILLO
 10
0.0223
 20
0.1942
 30
-0.084
 70
192
 0
VERTEX
 8
GATILLO
 10
-0.0214
 20
0.1942
 30
-0.084
 70
192
 0
VERTEX
 8
GATILLO
 10
-0.0214
 20
0.1601
 30
-0.0658
 70
192
 0
VERTEX
 8
GATILLO
 10
0.0223
 20
0.1384
 30
-0.1296
 70
192
 0
VERTEX
 8
GATILLO
 10
0.0223
 20
0.1641
 30
-0.1433
 70
192
 0
VERTEX
 8
GATILLO
 10
-0.0214
 20
0.1641
 30
-0.1433
 70
192
 0
VERTEX
 8
GATILLO
 10
-0.0214
 20
0.1384
 30
-0.1296
 70
192
 0
VERTEX
 8
GATILLO
 10
0
 20
0
 30
0
 70
128
 71
1
 72
2
 73
4
 74
3
 0
VERTEX
 8
GATILLO
 10
0
 20
0
 30
0
 70
128
 71
3
 72
4
 73
6
 74
5
 0
VERTEX
 8
GATILLO
 10
0
 20
0
 30
0
 70
128
 71
5
 72
6
 73
8
 74
7
 0
VERTEX
 8
GATILLO
 10
0
 20
0
 30
0
 70
128
 71
7
 72
8
 73
10
 74
9
 0
VERTEX
 8
GATILLO
 10
0
 20
0
 30
0
 70
128
 71
9
 72
10
 73
12
 74
11
 0
VERTEX
 8
GATILLO
 10
0
 20
0
 30
0
 70
128
 71
11
 72
12
 73
14
 74
13
 0
VERTEX
 8
GATILLO
 10
0
 20
0
 30
0
 70
128
 71
13
 72
14
 73
16
 74
15
 0
VERTEX
 8
GATILLO
 10
0
 20
0
 30
0
 70
128
 71
15
 72
16
 73
2
 74
1
 0
VERTEX
 8
GATILLO
 10
0
 20
0
 30
0
 70
128
 71
2
 72
16
 73
6
 74
4
 0
VERTEX
 8
GATILLO
 10
0
 20
0
 30
0
 70
128
 71
16
 72
14
 73
8
 74
6
 0
VERTEX
 8
GATILLO
 10
0
 20
0
 30
0
 70
128
 71
14
 72
12
 73
10
 74
8
 0
VERTEX
 8
GATILLO
 10
0
 20
0
 30
0
 70
128
 71
11
 72
13
 73
7
 74
9
 0
VERTEX
 8
GATILLO
 10
0
 20
0
 30
0
 70
128
 71
23
 72
24
 73
21
 74
22
 0
VERTEX
 8
GATILLO
 10
0
 20
0
 30
0
 70
128
 71
15
 72
1
 73
3
 74
5
 0
VERTEX
 8
GATILLO
 10
0
 20
0
 30
0
 70
128
 71
13
 72
19
 73
18
 74
7
 0
VERTEX
 8
GATILLO
 10
0
 20
0
 30
0
 70
128
 71
7
 72
18
 73
17
 74
5
 0
VERTEX
 8
GATILLO
 10
0
 20
0
 30
0
 70
128
 71
5
 72
17
 73
20
 74
15
 0
VERTEX
 8
GATILLO
 10
0
 20
0
 30
0
 70
128
 71
15
 72
20
 73
19
 74
13
 0
VERTEX
 8
GATILLO
 10
0
 20
0
 30
0
 70
128
 71
19
 72
23
 73
22
 74
18
 0
VERTEX
 8
GATILLO
 10
0
 20
0
 30
0
 70
128
 71
18
 72
22
 73
21
 74
17
 0
VERTEX
 8
GATILLO
 10
0
 20
0
 30
0
 70
128
 71
17
 72
21
 73
24
 74
20
 0
VERTEX
 8
GATILLO
 10
0
 20
0
 30
0
 70
128
 71
20
 72
24
 73
23
 74
19
 0
SEQEND
 0
POLYLINE
 8
CUERPO_1
 66
1
 10
0.0
 20
0.0
 30
0.0
 70
64
 71
1450
 72
889
 0
VERTEX
 8
CUERPO_1
 10
0
 20
0.1136
 30
0.3186
 70
192
 0
VERTEX
 8
CUERPO_1
 10
0.0596
 20
0.1136
 30
0.3186
 70
192
 0
VERTEX
 8
CUERPO_1
 10
0.0596
 20
0.1136
 30
0.3186
 70
192
 0
VERTEX
 8
CUERPO_1
 10
0.0596
 20
-0.1889
 30
0.3186
 70
192
 0
VERTEX
 8
CUERPO_1
 10
0.0596
 20
-0.1889
 30
0.3186
 70
192
 0
VERTEX
 8
CUERPO_1
 10
0
 20
-0.1889
 30
0.3186
 70
192
 0
VERTEX
 8
CUERPO_1
 10
0
 20
-0.1889
 30
0.3186
 70
192
 0
VERTEX
 8
CUERPO_1
 10
0
 20
0.1136
 30
0.3186
 70
192
 0
VERTEX
 8
CUERPO_1
 10
0
 20
0.1136
 30
0.3186
 70
192
 0
VERTEX
 8
CUERPO_1
 10
0.0587
 20
0.1136
 30
0.329
 70
192
 0
VERTEX
 8
CUERPO_1
 10
0.0587
 20
0.1136
 30
0.329
 70
192
 0
VERTEX
 8
CUERPO_1
 10
0.0587
 20
-0.1889
 30
0.329
 70
192
 0
VERTEX
 8
CUERPO_1
 10
0.0587
 20
-0.1889
 30
0.329
 70
192
 0
VERTEX
 8
CUERPO_1
 10
0
 20
-0.1889
 30
0.3186
 70
192
 0
VERTEX
 8
CUERPO_1
 10
0
 20
-0.1889
 30
0.3186
 70
192
 0
VERTEX
 8
CUERPO_1
 10
0
 20
0.1136
 30
0.3186
 70
192
 0
VERTEX
 8
CUERPO_1
 10
0
 20
0.1136
 30
0.3186
 70
192
 0
VERTEX
 8
CUERPO_1
 10
0.056
 20
0.1136
 30
0.339
 70
192
 0
VERTEX
 8
CUERPO_1
 10
0.056
 20
0.1136
 30
0.339
 70
192
 0
VERTEX
 8
CUERPO_1
 10
0.056
 20
-0.1889
 30
0.339
 70
192
 0
VERTEX
 8
CUERPO_1
 10
0.056
 20
-0.1889
 30
0.339
 70
192
 0
VERTEX
 8
CUERPO_1
 10
0
 20
-0.1889
 30
0.3186
 70
192
 0
VERTEX
 8
CUERPO_1
 10
0
 20
-0.1889
 30
0.3186
 70
192
 0
VERTEX
 8
CUERPO_1
 10
0
 20
0.1136
 30
0.3186
 70
192
 0
VERTEX
 8
CUERPO_1
 10
0
 20
0.1136
 30
0.3186
 70
192
 0
VERTEX
 8
CUERPO_1
 10
0.0516
 20
0.1136
 30
0.3485
 70
192
 0
VERTEX
 8
CUERPO_1
 10
0.0516
 20
0.1136
 30
0.3485
 70
192
 0
VERTEX
 8
CUERPO_1
 10
0.0516
 20
-0.1889
 30
0.3485
 70
192
 0
VERTEX
 8
CUERPO_1
 10
0.0516
 20
-0.1889
 30
0.3485
 70
192
 0
VERTEX
 8
CUERPO_1
 10
0
 20
-0.1889
 30
0.3186
 70
192
 0
VERTEX
 8
CUERPO_1
 10
0
 20
-0.1889
 30
0.3186
 70
192
 0
VERTEX
 8
CUERPO_1
 10
0
 20
0.1136
 30
0.3186
 70
192
 0
VERTEX
 8
CUERPO_1
 10
0
 20
0.1136
 30
0.3186
 70
192
 0
VERTEX
 8
CUERPO_1
 10
0.0457
 20
0.1136
 30
0.357
 70
192
 0
VERTEX
 8
CUERPO_1
 10
0.0457
 20
0.1136
 30
0.357
 70
192
 0
VERTEX
 8
CUERPO_1
 10
0.0457
 20
-0.1889
 30
0.357
 70
192
 0
VERTEX
 8
CUERPO_1
 10
0.0457
 20
-0.1889
 30
0.357
 70
192
 0
VERTEX
 8
CUERPO_1
 10
0
 20
-0.1889
 30
0.3186
 70
192
 0
VERTEX
 8
CUERPO_1
 10
0
 20
-0.1889
 30
0.3186
 70
192
 0
VERTEX
 8
CUERPO_1
 10
0
 20
0.1136
 30
0.3186
 70
192
 0
VERTEX
 8
CUERPO_1
 10
0
 20
0.1136
 30
0.3186
 70
192
 0
VERTEX
 8
CUERPO_1
 10
0.0383
 20
0.1136
 30
0.3643
 70
192
 0
VERTEX
 8
CUERPO_1
 10
0.0383
 20
0.1136
 30
0.3643
 70
192
 0
VERTEX
 8
CUERPO_1
 10
0.0383
 20
-0.1889
 30
0.3643
 70
192
 0
VERTEX
 8
CUERPO_1
 10
0.0383
 20
-0.1889
 30
0.3643
 70
192
 0
VERTEX
 8
CUERPO_1
 10
0
 20
-0.1889
 30
0.3186
 70
192
 0
VERTEX
 8
CUERPO_1
 10
0
 20
-0.1889
 30
0.3186
 70
192
 0
VERTEX
 8
CUERPO_1
 10
0
 20
0.1136
 30
0.3186
 70
192
 0
VERTEX
 8
CUERPO_1
 10
0
 20
0.1136
 30
0.3186
 70
192
 0
VERTEX
 8
CUERPO_1
 10
0.0298
 20
0.1136
 30
0.3703
 70
192
 0
VERTEX
 8
CUERPO_1
 10
0.0298
 20
0.1136
 30
0.3703
 70
192
 0
VERTEX
 8
CUERPO_1
 10
0.0298
 20
-0.1889
 30
0.3703
 70
192
 0
VERTEX
 8
CUERPO_1
 10
0.0298
 20
-0.1889
 30
0.3703
 70
192
 0
VERTEX
 8
CUERPO_1
 10
0
 20
-0.1889
 30
0.3186
 70
192
 0
VERTEX
 8
CUERPO_1
 10
0
 20
-0.1889
 30
0.3186
 70
192
 0
VERTEX
 8
CUERPO_1
 10
0
 20
0.1136
 30
0.3186
 70
192
 0
VERTEX
 8
CUERPO_1
 10
0
 20
0.1136
 30
0.3186
 70
192
 0
VERTEX
 8
CUERPO_1
 10
0.0204
 20
0.1136
 30
0.3747
 70
192
 0
VERTEX
 8
CUERPO_1
 10
0.0204
 20
0.1136
 30
0.3747
 70
192
 0
VERTEX
 8
CUERPO_1
 10
0.0204
 20
-0.1889
 30
0.3747
 70
192
 0
VERTEX
 8
CUERPO_1
 10
0.0204
 20
-0.1889
 30
0.3747
 70
192
 0
VERTEX
 8
CUERPO_1
 10
0
 20
-0.1889
 30
0.3186
 70
192
 0
VERTEX
 8
CUERPO_1
 10
0
 20
-0.1889
 30
0.3186
 70
192
 0
VERTEX
 8
CUERPO_1
 10
0
 20
0.1136
 30
0.3186
 70
192
 0
VERTEX
 8
CUERPO_1
 10
0
 20
0.1136
 30
0.3186
 70
192
 0
VERTEX
 8
CUERPO_1
 10
0.0104
 20
0.1136
 30
0.3774
 70
192
 0
VERTEX
 8
CUERPO_1
 10
0.0104
 20
0.1136
 30
0.3774
 70
192
 0
VERTEX
 8
CUERPO_1
 10
0.0104
 20
-0.1889
 30
0.3774
 70
192
 0
VERTEX
 8
CUERPO_1
 10
0.0104
 20
-0.1889
 30
0.3774
 70
192
 0
VERTEX
 8
CUERPO_1
 10
0
 20
-0.1889
 30
0.3186
 70
192
 0
VERTEX
 8
CUERPO_1
 10
0
 20
-0.1889
 30
0.3186
 70
192
 0
VERTEX
 8
CUERPO_1
 10
0
 20
0.1136
 30
0.3186
 70
192
 0
VERTEX
 8
CUERPO_1
 10
0
 20
0.1136
 30
0.3186
 70
192
 0
VERTEX
 8
CUERPO_1
 10
0
 20
0.1136
 30
0.3783
 70
192
 0
VERTEX
 8
CUERPO_1
 10
0
 20
0.1136
 30
0.3783
 70
192
 0
VERTEX
 8
CUERPO_1
 10
0
 20
-0.1889
 30
0.3783
 70
192
 0
VERTEX
 8
CUERPO_1
 10
0
 20
-0.1889
 30
0.3783
 70
192
 0
VERTEX
 8
CUERPO_1
 10
0
 20
-0.1889
 30
0.3186
 70
192
 0
VERTEX
 8
CUERPO_1
 10
0
 20
-0.1889
 30
0.3186
 70
192
 0
VERTEX
 8
CUERPO_1
 10
0
 20
0.1136
 30
0.3186
 70
192
 0
VERTEX
 8
CUERPO_1
 10
0
 20
0.1136
 30
0.3186
 70
192
 0
VERTEX
 8
CUERPO_1
 10
-0.0104
 20
0.1136
 30
0.3774
 70
192
 0
VERTEX
 8
CUERPO_1
 10
-0.0104
 20
0.1136
 30
0.3774
 70
192
 0
VERTEX
 8
CUERPO_1
 10
-0.0104
 20
-0.1889
 30
0.3774
 70
192
 0
VERTEX
 8
CUERPO_1
 10
-0.0104
 20
-0.1889
 30
0.3774
 70
192
 0
VERTEX
 8
CUERPO_1
 10
0
 20
-0.1889
 30
0.3186
 70
192
 0
VERTEX
 8
CUERPO_1
 10
0
 20
-0.1889
 30
0.3186
 70
192
 0
VERTEX
 8
CUERPO_1
 10
0
 20
0.1136
 30
0.3186
 70
192
 0
VERTEX
 8
CUERPO_1
 10
0
 20
0.1136
 30
0.3186
 70
192
 0
VERTEX
 8
CUERPO_1
 10
-0.0204
 20
0.1136
 30
0.3747
 70
192
 0
VERTEX
 8
CUERPO_1
 10
-0.0204
 20
0.1136
 30
0.3747
 70
192
 0
VERTEX
 8
CUERPO_1
 10
-0.0204
 20
-0.1889
 30
0.3747
 70
192
 0
VERTEX
 8
CUERPO_1
 10
-0.0204
 20
-0.1889
 30
0.3747
 70
192
 0
VERTEX
 8
CUERPO_1
 10
0
 20
-0.1889
 30
0.3186
 70
192
 0
VERTEX
 8
CUERPO_1
 10
0
 20
-0.1889
 30
0.3186
 70
192
 0
VERTEX
 8
CUERPO_1
 10
0
 20
0.1136
 30
0.3186
 70
192
 0
VERTEX
 8
CUERPO_1
 10
0
 20
0.1136
 30
0.3186
 70
192
 0
VERTEX
 8
CUERPO_1
 10
-0.0298
 20
0.1136
 30
0.3703
 70
192
 0
VERTEX
 8
CUERPO_1
 10
-0.0298
 20
0.1136
 30
0.3703
 70
192
 0
VERTEX
 8
CUERPO_1
 10
-0.0298
 20
-0.1889
 30
0.3703
 70
192
 0
VERTEX
 8
CUERPO_1
 10
-0.0298
 20
-0.1889
 30
0.3703
 70
192
 0
VERTEX
 8
CUERPO_1
 10
0
 20
-0.1889
 30
0.3186
 70
192
 0
VERTEX
 8
CUERPO_1
 10
0
 20
-0.1889
 30
0.3186
 70
192
 0
VERTEX
 8
CUERPO_1
 10
0
 20
0.1136
 30
0.3186
 70
192
 0
VERTEX
 8
CUERPO_1
 10
0
 20
0.1136
 30
0.3186
 70
192
 0
VERTEX
 8
CUERPO_1
 10
-0.0383
 20
0.1136
 30
0.3643
 70
192
 0
VERTEX
 8
CUERPO_1
 10
-0.0383
 20
0.1136
 30
0.3643
 70
192
 0
VERTEX
 8
CUERPO_1
 10
-0.0383
 20
-0.1889
 30
0.3643
 70
192
 0
VERTEX
 8
CUERPO_1
 10
-0.0383
 20
-0.1889
 30
0.3643
 70
192
 0
VERTEX
 8
CUERPO_1
 10
0
 20
-0.1889
 30
0.3186
 70
192
 0
VERTEX
 8
CUERPO_1
 10
0
 20
-0.1889
 30
0.3186
 70
192
 0
VERTEX
 8
CUERPO_1
 10
0
 20
0.1136
 30
0.3186
 70
192
 0
VERTEX
 8
CUERPO_1
 10
0
 20
0.1136
 30
0.3186
 70
192
 0
VERTEX
 8
CUERPO_1
 10
-0.0457
 20
0.1136
 30
0.357
 70
192
 0
VERTEX
 8
CUERPO_1
 10
-0.0457
 20
0.1136
 30
0.357
 70
192
 0
VERTEX
 8
CUERPO_1
 10
-0.0457
 20
-0.1889
 30
0.357
 70
192
 0
VERTEX
 8
CUERPO_1
 10
-0.0457
 20
-0.1889
 30
0.357
 70
192
 0
VERTEX
 8
CUERPO_1
 10
0
 20
-0.1889
 30
0.3186
 70
192
 0
VERTEX
 8
CUERPO_1
 10
0
 20
-0.1889
 30
0.3186
 70
192
 0
VERTEX
 8
CUERPO_1
 10
0
 20
0.1136
 30
0.3186
 70
192
 0
VERTEX
 8
CUERPO_1
 10
0
 20
0.1136
 30
0.3186
 70
192
 0
VERTEX
 8
CUERPO_1
 10
-0.0516
 20
0.1136
 30
0.3485
 70
192
 0
VERTEX
 8
CUERPO_1
 10
-0.0516
 20
0.1136
 30
0.3485
 70
192
 0
VERTEX
 8
CUERPO_1
 10
-0.0516
 20
-0.1889
 30
0.3485
 70
192
 0
VERTEX
 8
CUERPO_1
 10
-0.0516
 20
-0.1889
 30
0.3485
 70
192
 0
VERTEX
 8
CUERPO_1
 10
0
 20
-0.1889
 30
0.3186
 70
192
 0
VERTEX
 8
CUERPO_1
 10
0
 20
-0.1889
 30
0.3186
 70
192
 0
VERTEX
 8
CUERPO_1
 10
0
 20
0.1136
 30
0.3186
 70
192
 0
VERTEX
 8
CUERPO_1
 10
0
 20
0.1136
 30
0.3186
 70
192
 0
VERTEX
 8
CUERPO_1
 10
-0.056
 20
0.1136
 30
0.339
 70
192
 0
VERTEX
 8
CUERPO_1
 10
-0.056
 20
0.1136
 30
0.339
 70
192
 0
VERTEX
 8
CUERPO_1
 10
-0.056
 20
-0.1889
 30
0.339
 70
192
 0
VERTEX
 8
CUERPO_1
 10
-0.056
 20
-0.1889
 30
0.339
 70
192
 0
VERTEX
 8
CUERPO_1
 10
0
 20
-0.1889
 30
0.3186
 70
192
 0
VERTEX
 8
CUERPO_1
 10
0
 20
-0.1889
 30
0.3186
 70
192
 0
VERTEX
 8
CUERPO_1
 10
0
 20
0.1136
 30
0.3186
 70
192
 0
VERTEX
 8
CUERPO_1
 10
0
 20
0.1136
 30
0.3186
 70
192
 0
VERTEX
 8
CUERPO_1
 10
-0.0587
 20
0.1136
 30
0.329
 70
192
 0
VERTEX
 8
CUERPO_1
 10
-0.0587
 20
0.1136
 30
0.329
 70
192
 0
VERTEX
 8
CUERPO_1
 10
-0.0587
 20
-0.1889
 30
0.329
 70
192
 0
VERTEX
 8
CUERPO_1
 10
-0.0587
 20
-0.1889
 30
0.329
 70
192
 0
VERTEX
 8
CUERPO_1
 10
0
 20
-0.1889
 30
0.3186
 70
192
 0
VERTEX
 8
CUERPO_1
 10
0
 20
-0.1889
 30
0.3186
 70
192
 0
VERTEX
 8
CUERPO_1
 10
0
 20
0.1136
 30
0.3186
 70
192
 0
VERTEX
 8
CUERPO_1
 10
0
 20
0.1136
 30
0.3186
 70
192
 0
VERTEX
 8
CUERPO_1
 10
-0.0596
 20
0.1136
 30
0.3186
 70
192
 0
VERTEX
 8
CUERPO_1
 10
-0.0596
 20
0.1136
 30
0.3186
 70
192
 0
VERTEX
 8
CUERPO_1
 10
-0.0596
 20
-0.1889
 30
0.3186
 70
192
 0
VERTEX
 8
CUERPO_1
 10
-0.0596
 20
-0.1889
 30
0.3186
 70
192
 0
VERTEX
 8
CUERPO_1
 10
0
 20
-0.1889
 30
0.3186
 70
192
 0
VERTEX
 8
CUERPO_1
 10
0
 20
-0.1889
 30
0.3186
 70
192
 0
VERTEX
 8
CUERPO_1
 10
0
 20
0.1136
 30
0.3186
 70
192
 0
VERTEX
 8
CUERPO_1
 10
0
 20
0.1136
 30
0.3186
 70
192
 0
VERTEX
 8
CUERPO_1
 10
-0.0587
 20
0.1136
 30
0.3083
 70
192
 0
VERTEX
 8
CUERPO_1
 10
-0.0587
 20
0.1136
 30
0.3083
 70
192
 0
VERTEX
 8
CUERPO_1
 10
-0.0587
 20
-0.1889
 30
0.3083
 70
192
 0
VERTEX
 8
CUERPO_1
 10
-0.0587
 20
-0.1889
 30
0.3083
 70
192
 0
VERTEX
 8
CUERPO_1
 10
0
 20
-0.1889
 30
0.3186
 70
192
 0
VERTEX
 8
CUERPO_1
 10
0
 20
-0.1889
 30
0.3186
 70
192
 0
VERTEX
 8
CUERPO_1
 10
0
 20
0.1136
 30
0.3186
 70
192
 0
VERTEX
 8
CUERPO_1
 10
0
 20
0.1136
 30
0.3186
 70
192
 0
VERTEX
 8
CUERPO_1
 10
-0.056
 20
0.1136
 30
0.2982
 70
192
 0
VERTEX
 8
CUERPO_1
 10
-0.056
 20
0.1136
 30
0.2982
 70
192
 0
VERTEX
 8
CUERPO_1
 10
-0.056
 20
-0.1889
 30
0.2982
 70
192
 0
VERTEX
 8
CUERPO_1
 10
-0.056
 20
-0.1889
 30
0.2982
 70
192
 0
VERTEX
 8
CUERPO_1
 10
0
 20
-0.1889
 30
0.3186
 70
192
 0
VERTEX
 8
CUERPO_1
 10
0
 20
-0.1889
 30
0.3186
 70
192
 0
VERTEX
 8
CUERPO_1
 10
0
 20
0.1136
 30
0.3186
 70
192
 0
VERTEX
 8
CUERPO_1
 10
0
 20
0.1136
 30
0.3186
 70
192
 0
VERTEX
 8
CUERPO_1
 10
-0.0516
 20
0.1136
 30
0.2888
 70
192
 0
VERTEX
 8
CUERPO_1
 10
-0.0516
 20
0.1136
 30
0.2888
 70
192
 0
VERTEX
 8
CUERPO_1
 10
-0.0516
 20
-0.1889
 30
0.2888
 70
192
 0
VERTEX
 8
CUERPO_1
 10
-0.0516
 20
-0.1889
 30
0.2888
 70
192
 0
VERTEX
 8
CUERPO_1
 10
0
 20
-0.1889
 30
0.3186
 70
192
 0
VERTEX
 8
CUERPO_1
 10
0
 20
-0.1889
 30
0.3186
 70
192
 0
VERTEX
 8
CUERPO_1
 10
0
 20
0.1136
 30
0.3186
 70
192
 0
VERTEX
 8
CUERPO_1
 10
0
 20
0.1136
 30
0.3186
 70
192
 0
VERTEX
 8
CUERPO_1
 10
-0.0457
 20
0.1136
 30
0.2803
 70
192
 0
VERTEX
 8
CUERPO_1
 10
-0.0457
 20
0.1136
 30
0.2803
 70
192
 0
VERTEX
 8
CUERPO_1
 10
-0.0457
 20
-0.1889
 30
0.2803
 70
192
 0
VERTEX
 8
CUERPO_1
 10
-0.0457
 20
-0.1889
 30
0.2803
 70
192
 0
VERTEX
 8
CUERPO_1
 10
0
 20
-0.1889
 30
0.3186
 70
192
 0
VERTEX
 8
CUERPO_1
 10
0
 20
-0.1889
 30
0.3186
 70
192
 0
VERTEX
 8
CUERPO_1
 10
0
 20
0.1136
 30
0.3186
 70
192
 0
VERTEX
 8
CUERPO_1
 10
0
 20
0.1136
 30
0.3186
 70
192
 0
VERTEX
 8
CUERPO_1
 10
-0.0383
 20
0.1136
 30
0.273
 70
192
 0
VERTEX
 8
CUERPO_1
 10
-0.0383
 20
0.1136
 30
0.273
 70
192
 0
VERTEX
 8
CUERPO_1
 10
-0.0383
 20
-0.1889
 30
0.273
 70
192
 0
VERTEX
 8
CUERPO_1
 10
-0.0383
 20
-0.1889
 30
0.273
 70
192
 0
VERTEX
 8
CUERPO_1
 10
0
 20
-0.1889
 30
0.3186
 70
192
 0
VERTEX
 8
CUERPO_1
 10
0
 20
-0.1889
 30
0.3186
 70
192
 0
VERTEX
 8
CUERPO_1
 10
0
 20
0.1136
 30
0.3186
 70
192
 0
VERTEX
 8
CUERPO_1
 10
0
 20
0.1136
 30
0.3186
 70
192
 0
VERTEX
 8
CUERPO_1
 10
-0.0298
 20
0.1136
 30
0.267
 70
192
 0
VERTEX
 8
CUERPO_1
 10
-0.0298
 20
0.1136
 30
0.267
 70
192
 0
VERTEX
 8
CUERPO_1
 10
-0.0298
 20
-0.1889
 30
0.267
 70
192
 0
VERTEX
 8
CUERPO_1
 10
-0.0298
 20
-0.1889
 30
0.267
 70
192
 0
VERTEX
 8
CUERPO_1
 10
0
 20
-0.1889
 30
0.3186
 70
192
 0
VERTEX
 8
CUERPO_1
 10
0
 20
-0.1889
 30
0.3186
 70
192
 0
VERTEX
 8
CUERPO_1
 10
0
 20
0.1136
 30
0.3186
 70
192
 0
VERTEX
 8
CUERPO_1
 10
0
 20
0.1136
 30
0.3186
 70
192
 0
VERTEX
 8
CUERPO_1
 10
-0.0204
 20
0.1136
 30
0.2626
 70
192
 0
VERTEX
 8
CUERPO_1
 10
-0.0204
 20
0.1136
 30
0.2626
 70
192
 0
VERTEX
 8
CUERPO_1
 10
-0.0204
 20
-0.1889
 30
0.2626
 70
192
 0
VERTEX
 8
CUERPO_1
 10
-0.0204
 20
-0.1889
 30
0.2626
 70
192
 0
VERTEX
 8
CUERPO_1
 10
0
 20
-0.1889
 30
0.3186
 70
192
 0
VERTEX
 8
CUERPO_1
 10
0
 20
-0.1889
 30
0.3186
 70
192
 0
VERTEX
 8
CUERPO_1
 10
0
 20
0.1136
 30
0.3186
 70
192
 0
VERTEX
 8
CUERPO_1
 10
0
 20
0.1136
 30
0.3186
 70
192
 0
VERTEX
 8
CUERPO_1
 10
-0.0104
 20
0.1136
 30
0.2599
 70
192
 0
VERTEX
 8
CUERPO_1
 10
-0.0104
 20
0.1136
 30
0.2599
 70
192
 0
VERTEX
 8
CUERPO_1
 10
-0.0104
 20
-0.1889
 30
0.2599
 70
192
 0
VERTEX
 8
CUERPO_1
 10
-0.0104
 20
-0.1889
 30
0.2599
 70
192
 0
VERTEX
 8
CUERPO_1
 10
0
 20
-0.1889
 30
0.3186
 70
192
 0
VERTEX
 8
CUERPO_1
 10
0
 20
-0.1889
 30
0.3186
 70
192
 0
VERTEX
 8
CUERPO_1
 10
0
 20
0.1136
 30
0.3186
 70
192
 0
VERTEX
 8
CUERPO_1
 10
0
 20
0.1136
 30
0.3186
 70
192
 0
VERTEX
 8
CUERPO_1
 10
0
 20
0.1136
 30
0.259
 70
192
 0
VERTEX
 8
CUERPO_1
 10
0
 20
0.1136
 30
0.259
 70
192
 0
VERTEX
 8
CUERPO_1
 10
0
 20
-0.1889
 30
0.259
 70
192
 0
VERTEX
 8
CUERPO_1
 10
0
 20
-0.1889
 30
0.259
 70
192
 0
VERTEX
 8
CUERPO_1
 10
0
 20
-0.1889
 30
0.3186
 70
192
 0
VERTEX
 8
CUERPO_1
 10
0
 20
-0.1889
 30
0.3186
 70
192
 0
VERTEX
 8
CUERPO_1
 10
0
 20
0.1136
 30
0.3186
 70
192
 0
VERTEX
 8
CUERPO_1
 10
0
 20
0.1136
 30
0.3186
 70
192
 0
VERTEX
 8
CUERPO_1
 10
0.0104
 20
0.1136
 30
0.2599
 70
192
 0
VERTEX
 8
CUERPO_1
 10
0.0104
 20
0.1136
 30
0.2599
 70
192
 0
VERTEX
 8
CUERPO_1
 10
0.0104
 20
-0.1889
 30
0.2599
 70
192
 0
VERTEX
 8
CUERPO_1
 10
0.0104
 20
-0.1889
 30
0.2599
 70
192
 0
VERTEX
 8
CUERPO_1
 10
0
 20
-0.1889
 30
0.3186
 70
192
 0
VERTEX
 8
CUERPO_1
 10
0
 20
-0.1889
 30
0.3186
 70
192
 0
VERTEX
 8
CUERPO_1
 10
0
 20
0.1136
 30
0.3186
 70
192
 0
VERTEX
 8
CUERPO_1
 10
0
 20
0.1136
 30
0.3186
 70
192
 0
VERTEX
 8
CUERPO_1
 10
0.0204
 20
0.1136
 30
0.2626
 70
192
 0
VERTEX
 8
CUERPO_1
 10
0.0204
 20
0.1136
 30
0.2626
 70
192
 0
VERTEX
 8
CUERPO_1
 10
0.0204
 20
-0.1889
 30
0.2626
 70
192
 0
VERTEX
 8
CUERPO_1
 10
0.0204
 20
-0.1889
 30
0.2626
 70
192
 0
VERTEX
 8
CUERPO_1
 10
0
 20
-0.1889
 30
0.3186
 70
192
 0
VERTEX
 8
CUERPO_1
 10
0
 20
-0.1889
 30
0.3186
 70
192
 0
VERTEX
 8
CUERPO_1
 10
0
 20
0.1136
 30
0.3186
 70
192
 0
VERTEX
 8
CUERPO_1
 10
0
 20
0.1136
 30
0.3186
 70
192
 0
VERTEX
 8
CUERPO_1
 10
0.0298
 20
0.1136
 30
0.267
 70
192
 0
VERTEX
 8
CUERPO_1
 10
0.0298
 20
0.1136
 30
0.267
 70
192
 0
VERTEX
 8
CUERPO_1
 10
0.0298
 20
-0.1889
 30
0.267
 70
192
 0
VERTEX
 8
CUERPO_1
 10
0.0298
 20
-0.1889
 30
0.267
 70
192
 0
VERTEX
 8
CUERPO_1
 10
0
 20
-0.1889
 30
0.3186
 70
192
 0
VERTEX
 8
CUERPO_1
 10
0
 20
-0.1889
 30
0.3186
 70
192
 0
VERTEX
 8
CUERPO_1
 10
0
 20
0.1136
 30
0.3186
 70
192
 0
VERTEX
 8
CUERPO_1
 10
0
 20
0.1136
 30
0.3186
 70
192
 0
VERTEX
 8
CUERPO_1
 10
0.0383
 20
0.1136
 30
0.273
 70
192
 0
VERTEX
 8
CUERPO_1
 10
0.0383
 20
0.1136
 30
0.273
 70
192
 0
VERTEX
 8
CUERPO_1
 10
0.0383
 20
-0.1889
 30
0.273
 70
192
 0
VERTEX
 8
CUERPO_1
 10
0.0383
 20
-0.1889
 30
0.273
 70
192
 0
VERTEX
 8
CUERPO_1
 10
0
 20
-0.1889
 30
0.3186
 70
192
 0
VERTEX
 8
CUERPO_1
 10
0
 20
-0.1889
 30
0.3186
 70
192
 0
VERTEX
 8
CUERPO_1
 10
0
 20
0.1136
 30
0.3186
 70
192
 0
VERTEX
 8
CUERPO_1
 10
0
 20
0.1136
 30
0.3186
 70
192
 0
VERTEX
 8
CUERPO_1
 10
0.0457
 20
0.1136
 30
0.2803
 70
192
 0
VERTEX
 8
CUERPO_1
 10
0.0457
 20
0.1136
 30
0.2803
 70
192
 0
VERTEX
 8
CUERPO_1
 10
0.0457
 20
-0.1889
 30
0.2803
 70
192
 0
VERTEX
 8
CUERPO_1
 10
0.0457
 20
-0.1889
 30
0.2803
 70
192
 0
VERTEX
 8
CUERPO_1
 10
0
 20
-0.1889
 30
0.3186
 70
192
 0
VERTEX
 8
CUERPO_1
 10
0
 20
-0.1889
 30
0.3186
 70
192
 0
VERTEX
 8
CUERPO_1
 10
0
 20
0.1136
 30
0.3186
 70
192
 0
VERTEX
 8
CUERPO_1
 10
0
 20
0.1136
 30
0.3186
 70
192
 0
VERTEX
 8
CUERPO_1
 10
0.0516
 20
0.1136
 30
0.2888
 70
192
 0
VERTEX
 8
CUERPO_1
 10
0.0516
 20
0.1136
 30
0.2888
 70
192
 0
VERTEX
 8
CUERPO_1
 10
0.0516
 20
-0.1889
 30
0.2888
 70
192
 0
VERTEX
 8
CUERPO_1
 10
0.0516
 20
-0.1889
 30
0.2888
 70
192
 0
VERTEX
 8
CUERPO_1
 10
0
 20
-0.1889
 30
0.3186
 70
192
 0
VERTEX
 8
CUERPO_1
 10
0
 20
-0.1889
 30
0.3186
 70
192
 0
VERTEX
 8
CUERPO_1
 10
0
 20
0.1136
 30
0.3186
 70
192
 0
VERTEX
 8
CUERPO_1
 10
0
 20
0.1136
 30
0.3186
 70
192
 0
VERTEX
 8
CUERPO_1
 10
0.056
 20
0.1136
 30
0.2982
 70
192
 0
VERTEX
 8
CUERPO_1
 10
0.056
 20
0.1136
 30
0.2982
 70
192
 0
VERTEX
 8
CUERPO_1
 10
0.056
 20
-0.1889
 30
0.2982
 70
192
 0
VERTEX
 8
CUERPO_1
 10
0.056
 20
-0.1889
 30
0.2982
 70
192
 0
VERTEX
 8
CUERPO_1
 10
0
 20
-0.1889
 30
0.3186
 70
192
 0
VERTEX
 8
CUERPO_1
 10
0
 20
-0.1889
 30
0.3186
 70
192
 0
VERTEX
 8
CUERPO_1
 10
0
 20
0.1136
 30
0.3186
 70
192
 0
VERTEX
 8
CUERPO_1
 10
0
 20
0.1136
 30
0.3186
 70
192
 0
VERTEX
 8
CUERPO_1
 10
0.0587
 20
0.1136
 30
0.3083
 70
192
 0
VERTEX
 8
CUERPO_1
 10
0.0587
 20
0.1136
 30
0.3083
 70
192
 0
VERTEX
 8
CUERPO_1
 10
0.0587
 20
-0.1889
 30
0.3083
 70
192
 0
VERTEX
 8
CUERPO_1
 10
0.0587
 20
-0.1889
 30
0.3083
 70
192
 0
VERTEX
 8
CUERPO_1
 10
0
 20
-0.1889
 30
0.3186
 70
192
 0
VERTEX
 8
CUERPO_1
 10
0
 20
-0.1889
 30
0.3186
 70
192
 0
VERTEX
 8
CUERPO_1
 10
0
 20
0.1136
 30
0.3186
 70
192
 0
VERTEX
 8
CUERPO_1
 10
-0.052
 20
-0.2194
 30
0.0447
 70
192
 0
VERTEX
 8
CUERPO_1
 10
-0.052
 20
-0.2191
 30
0.1609
 70
192
 0
VERTEX
 8
CUERPO_1
 10
-0.052
 20
-0.2509
 30
0.239
 70
192
 0
VERTEX
 8
CUERPO_1
 10
-0.1019
 20
-0.2509
 30
0.4298
 70
192
 0
VERTEX
 8
CUERPO_1
 10
-0.0664
 20
-0.2509
 30
0.5097
 70
192
 0
VERTEX
 8
CUERPO_1
 10
0.052
 20
-0.2194
 30
0.0447
 70
192
 0
VERTEX
 8
CUERPO_1
 10
0.052
 20
-0.2191
 30
0.1609
 70
192
 0
VERTEX
 8
CUERPO_1
 10
0.052
 20
-0.2509
 30
0.239
 70
192
 0
VERTEX
 8
CUERPO_1
 10
0.0987
 20
-0.2509
 30
0.4297
 70
192
 0
VERTEX
 8
CUERPO_1
 10
0.0664
 20
-0.2509
 30
0.5097
 70
192
 0
VERTEX
 8
CUERPO_1
 10
0.052
 20
-0.1076
 30
0.0447
 70
192
 0
VERTEX
 8
CUERPO_1
 10
0.0664
 20
0.0405
 30
0.5097
 70
192
 0
VERTEX
 8
CUERPO_1
 10
0.052
 20
0.3847
 30
0.011
 70
192
 0
VERTEX
 8
CUERPO_1
 10
0.052
 20
0.3319
 30
0.1609
 70
192
 0
VERTEX
 8
CUERPO_1
 10
0.052
 20
0.3319
 30
0.2772
 70
192
 0
VERTEX
 8
CUERPO_1
 10
0.0538
 20
0.3207
 30
0.421
 70
192
 0
VERTEX
 8
CUERPO_1
 10
0.074
 20
0.3319
 30
0.4967
 70
192
 0
VERTEX
 8
CUERPO_1
 10
0.058
 20
0.6234
 30
0.0447
 70
192
 0
VERTEX
 8
CUERPO_1
 10
0.0612
 20
0.6665
 30
0.1609
 70
192
 0
VERTEX
 8
CUERPO_1
 10
0.0673
 20
0.6647
 30
0.2443
 70
192
 0
VERTEX
 8
CUERPO_1
 10
0.074
 20
0.5025
 30
0.3293
 70
192
 0
VERTEX
 8
CUERPO_1
 10
0.074
 20
0.408
 30
0.4216
 70
192
 0
VERTEX
 8
CUERPO_1
 10
-0.0679
 20
0.6234
 30
0.0447
 70
192
 0
VERTEX
 8
CUERPO_1
 10
-0.0679
 20
0.6665
 30
0.1609
 70
192
 0
VERTEX
 8
CUERPO_1
 10
-0.0692
 20
0.6647
 30
0.2443
 70
192
 0
VERTEX
 8
CUERPO_1
 10
-0.074
 20
0.5025
 30
0.3293
 70
192
 0
VERTEX
 8
CUERPO_1
 10
-0.074
 20
0.4133
 30
0.4216
 70
192
 0
VERTEX
 8
CUERPO_1
 10
-0.052
 20
0.3847
 30
0.011
 70
192
 0
VERTEX
 8
CUERPO_1
 10
-0.052
 20
0.3319
 30
0.1609
 70
192
 0
VERTEX
 8
CUERPO_1
 10
-0.052
 20
0.3319
 30
0.2772
 70
192
 0
VERTEX
 8
CUERPO_1
 10
-0.0795
 20
0.3472
 30
0.3867
 70
192
 0
VERTEX
 8
CUERPO_1
 10
-0.074
 20
0.3319
 30
0.4967
 70
192
 0
VERTEX
 8
CUERPO_1
 10
-0.052
 20
-0.1076
 30
0.0447
 70
192
 0
VERTEX
 8
CUERPO_1
 10
-0.0664
 20
0.0405
 30
0.5097
 70
192
 0
VERTEX
 8
CUERPO_1
 10
0.052
 20
-0.0628
 30
-0.1006
 70
192
 0
VERTEX
 8
CUERPO_1
 10
0.052
 20
0.3228
 30
-0.1516
 70
192
 0
VERTEX
 8
CUERPO_1
 10
-0.052
 20
0.3228
 30
-0.1516
 70
192
 0
VERTEX
 8
CUERPO_1
 10
-0.052
 20
-0.0628
 30
-0.1006
 70
192
 0
VERTEX
 8
CUERPO_1
 10
0.052
 20
-0.0472
 30
-0.0184
 70
192
 0
VERTEX
 8
CUERPO_1
 10
-0.052
 20
-0.0472
 30
-0.0253
 70
192
 0
VERTEX
 8
CUERPO_1
 10
0.052
 20
0.0633
 30
-0.2132
 70
192
 0
VERTEX
 8
CUERPO_1
 10
-0.052
 20
0.0612
 30
-0.2126
 70
192
 0
VERTEX
 8
CUERPO_1
 10
0.052
 20
0.1855
 30
-0.23
 70
192
 0
VERTEX
 8
CUERPO_1
 10
-0.052
 20
0.1917
 30
-0.2319
 70
192
 0
VERTEX
 8
CUERPO_1
 10
-0.052
 20
-0.0262
 30
-0.0616
 70
192
 0
VERTEX
 8
CUERPO_1
 10
0.052
 20
-0.1325
 30
0.1609
 70
192
 0
VERTEX
 8
CUERPO_1
 10
-0.052
 20
0.2323
 30
0.1609
 70
192
 0
VERTEX
 8
CUERPO_1
 10
0.052
 20
0.0374
 30
0.1586
 70
192
 0
VERTEX
 8
CUERPO_1
 10
0.052
 20
0.2683
 30
0.0189
 70
192
 0
VERTEX
 8
CUERPO_1
 10
-0.052
 20
0.3095
 30
-0.0836
 70
192
 0
VERTEX
 8
CUERPO_1
 10
-0.052
 20
0.2337
 30
-0.1792
 70
192
 0
VERTEX
 8
CUERPO_1
 10
0.052
 20
0.0356
 30
0.0349
 70
192
 0
VERTEX
 8
CUERPO_1
 10
0.052
 20
0.0279
 30
-0.1508
 70
192
 0
VERTEX
 8
CUERPO_1
 10
-0.052
 20
0.0374
 30
0.1586
 70
192
 0
VERTEX
 8
CUERPO_1
 10
-0.052
 20
-0.1325
 30
0.1609
 70
192
 0
VERTEX
 8
CUERPO_1
 10
0.068
 20
0.2323
 30
0.4238
 70
192
 0
VERTEX
 8
CUERPO_1
 10
0.052
 20
0.2323
 30
0.1609
 70
192
 0
VERTEX
 8
CUERPO_1
 10
-0.0708
 20
0.1433
 30
0.4685
 70
192
 0
VERTEX
 8
CUERPO_1
 10
0.052
 20
-0.1325
 30
0.2545
 70
192
 0
VERTEX
 8
CUERPO_1
 10
0.052
 20
0.2323
 30
0.2772
 70
192
 0
VERTEX
 8
CUERPO_1
 10
0.0709
 20
-0.1325
 30
0.3165
 70
192
 0
VERTEX
 8
CUERPO_1
 10
0.0987
 20
-0.1325
 30
0.4297
 70
192
 0
VERTEX
 8
CUERPO_1
 10
0.0532
 20
0.2323
 30
0.3756
 70
192
 0
VERTEX
 8
CUERPO_1
 10
0.052
 20
-0.0255
 30
-0.0566
 70
192
 0
VERTEX
 8
CUERPO_1
 10
-0.052
 20
0.0356
 30
0.0349
 70
192
 0
VERTEX
 8
CUERPO_1
 10
-0.0746
 20
0.2323
 30
0.4328
 70
192
 0
VERTEX
 8
CUERPO_1
 10
0.083
 20
0.0405
 30
0.4685
 70
192
 0
VERTEX
 8
CUERPO_1
 10
0.0844
 20
0.2089
 30
0.4685
 70
192
 0
VERTEX
 8
CUERPO_1
 10
-0.052
 20
0.0226
 30
-0.146
 70
192
 0
VERTEX
 8
CUERPO_1
 10
-0.1019
 20
-0.1325
 30
0.4298
 70
192
 0
VERTEX
 8
CUERPO_1
 10
-0.0816
 20
-0.1325
 30
0.3678
 70
192
 0
VERTEX
 8
CUERPO_1
 10
-0.052
 20
0.2683
 30
0.0189
 70
192
 0
VERTEX
 8
CUERPO_1
 10
-0.052
 20
0.2323
 30
0.2772
 70
192
 0
VERTEX
 8
CUERPO_1
 10
-0.052
 20
0.2828
 30
0.0024
 70
192
 0
VERTEX
 8
CUERPO_1
 10
0.052
 20
-0.0157
 30
-0.0162
 70
192
 0
VERTEX
 8
CUERPO_1
 10
0.052
 20
0.2814
 30
0.0039
 70
192
 0
VERTEX
 8
CUERPO_1
 10
-0.0879
 20
0.2323
 30
0.4028
 70
192
 0
VERTEX
 8
CUERPO_1
 10
-0.069
 20
0.2323
 30
0.3294
 70
192
 0
VERTEX
 8
CUERPO_1
 10
-0.0847
 20
0.0405
 30
0.4685
 70
192
 0
VERTEX
 8
CUERPO_1
 10
0.052
 20
0.2215
 30
-0.1864
 70
192
 0
VERTEX
 8
CUERPO_1
 10
-0.052
 20
-0.1325
 30
0.2545
 70
192
 0
VERTEX
 8
CUERPO_1
 10
0.052
 20
0.3093
 30
-0.0803
 70
192
 0
VERTEX
 8
CUERPO_1
 10
-0.052
 20
-0.0212
 30
-0.0231
 70
192
 0
VERTEX
 8
CUERPO_1
 10
0.0809
 20
0.2323
 30
0.4685
 70
192
 0
VERTEX
 8
CUERPO_1
 10
0.052
 20
0.0931
 30
0.0589
 70
192
 0
VERTEX
 8
CUERPO_1
 10
0.052
 20
0.2323
 30
0.1586
 70
192
 0
VERTEX
 8
CUERPO_1
 10
0.052
 20
-0.1325
 30
0.1586
 70
192
 0
VERTEX
 8
CUERPO_1
 10
0.052
 20
0.2429
 30
0.0482
 70
192
 0
VERTEX
 8
CUERPO_1
 10
-0.052
 20
0.2429
 30
0.0482
 70
192
 0
VERTEX
 8
CUERPO_1
 10
0.083
 20
-0.1325
 30
0.4685
 70
192
 0
VERTEX
 8
CUERPO_1
 10
-0.0847
 20
-0.1325
 30
0.4685
 70
192
 0
VERTEX
 8
CUERPO_1
 10
0.052
 20
0.0441
 30
-0.1657
 70
192
 0
VERTEX
 8
CUERPO_1
 10
-0.052
 20
0.3132
 30
-0.1287
 70
192
 0
VERTEX
 8
CUERPO_1
 10
-0.052
 20
-0.1325
 30
0.1586
 70
192
 0
VERTEX
 8
CUERPO_1
 10
0.052
 20
-0.0211
 30
-0.0226
 70
192
 0
VERTEX
 8
CUERPO_1
 10
-0.0729
 20
0.2323
 30
0.4685
 70
192
 0
VERTEX
 8
CUERPO_1
 10
-0.052
 20
0.0931
 30
0.0589
 70
192
 0
VERTEX
 8
CUERPO_1
 10
-0.052
 20
0.2323
 30
0.1586
 70
192
 0
VERTEX
 8
CUERPO_1
 10
0.052
 20
0.0931
 30
-0.1953
 70
192
 0
VERTEX
 8
CUERPO_1
 10
0.052
 20
0.2031
 30
0.0589
 70
192
 0
VERTEX
 8
CUERPO_1
 10
0.052
 20
-0.0308
 30
-0.097
 70
192
 0
VERTEX
 8
CUERPO_1
 10
-0.052
 20
-0.0211
 30
-0.0226
 70
192
 0
VERTEX
 8
CUERPO_1
 10
-0.052
 20
0.2031
 30
0.0589
 70
192
 0
VERTEX
 8
CUERPO_1
 10
-0.052
 20
0.0226
 30
0.0295
 70
192
 0
VERTEX
 8
CUERPO_1
 10
0.052
 20
0.1881
 30
-0.2063
 70
192
 0
VERTEX
 8
CUERPO_1
 10
0.052
 20
0.3132
 30
-0.1287
 70
192
 0
VERTEX
 8
CUERPO_1
 10
0.052
 20
0.2378
 30
-0.1767
 70
192
 0
VERTEX
 8
CUERPO_1
 10
-0.052
 20
-0.0308
 30
-0.097
 70
192
 0
VERTEX
 8
CUERPO_1
 10
0.052
 20
0.0226
 30
0.0295
 70
192
 0
VERTEX
 8
CUERPO_1
 10
-0.052
 20
0.2378
 30
-0.1767
 70
192
 0
VERTEX
 8
CUERPO_1
 10
-0.052
 20
0.0441
 30
-0.1657
 70
192
 0
VERTEX
 8
CUERPO_1
 10
-0.052
 20
0.3046
 30
-0.0226
 70
192
 0
VERTEX
 8
CUERPO_1
 10
0.052
 20
0.3046
 30
-0.0226
 70
192
 0
VERTEX
 8
CUERPO_1
 10
-0.052
 20
0.1881
 30
-0.2063
 70
192
 0
VERTEX
 8
CUERPO_1
 10
-0.052
 20
0.0931
 30
-0.1953
 70
192
 0
VERTEX
 8
CUERPO_1
 10
0.052
 20
-0.1325
 30
0.1586
 70
192
 0
VERTEX
 8
CUERPO_1
 10
-0.052
 20
-0.0308
 30
-0.097
 70
192
 0
VERTEX
 8
CUERPO_1
 10
-0.052
 20
0.0931
 30
0.0589
 70
192
 0
VERTEX
 8
CUERPO_1
 10
-0.052
 20
0.2429
 30
0.0482
 70
192
 0
VERTEX
 8
CUERPO_1
 10
0.052
 20
0.2429
 30
0.0482
 70
192
 0
VERTEX
 8
CUERPO_1
 10
0.052
 20
0.0931
 30
0.0589
 70
192
 0
VERTEX
 8
CUERPO_1
 10
-0.052
 20
0.2378
 30
-0.1767
 70
192
 0
VERTEX
 8
CUERPO_1
 10
0.052
 20
0.2031
 30
0.0589
 70
192
 0
VERTEX
 8
CUERPO_1
 10
0.052
 20
0.2323
 30
0.1586
 70
192
 0
VERTEX
 8
CUERPO_1
 10
-0.052
 20
0.0226
 30
0.0295
 70
192
 0
VERTEX
 8
CUERPO_1
 10
-0.052
 20
0.3046
 30
-0.0226
 70
192
 0
VERTEX
 8
CUERPO_1
 10
-0.052
 20
0.1881
 30
-0.2063
 70
192
 0
VERTEX
 8
CUERPO_1
 10
0.052
 20
0.3046
 30
-0.0226
 70
192
 0
VERTEX
 8
CUERPO_1
 10
0.052
 20
0.1881
 30
-0.2063
 70
192
 0
VERTEX
 8
CUERPO_1
 10
0.052
 20
0.0931
 30
-0.1953
 70
192
 0
VERTEX
 8
CUERPO_1
 10
0.052
 20
0.0441
 30
-0.1657
 70
192
 0
VERTEX
 8
CUERPO_1
 10
0.0809
 20
0.2323
 30
0.4685
 70
192
 0
VERTEX
 8
CUERPO_1
 10
-0.052
 20
-0.0211
 30
-0.0226
 70
192
 0
VERTEX
 8
CUERPO_1
 10
-0.052
 20
-0.1325
 30
0.1586
 70
192
 0
VERTEX
 8
CUERPO_1
 10
-0.0729
 20
0.2323
 30
0.4685
 70
192
 0
VERTEX
 8
CUERPO_1
 10
0.083
 20
-0.1325
 30
0.4685
 70
192
 0
VERTEX
 8
CUERPO_1
 10
-0.052
 20
0.3132
 30
-0.1287
 70
192
 0
VERTEX
 8
CUERPO_1
 10
0.052
 20
0.3132
 30
-0.1287
 70
192
 0
VERTEX
 8
CUERPO_1
 10
0.052
 20
0.2378
 30
-0.1767
 70
192
 0
VERTEX
 8
CUERPO_1
 10
-0.052
 20
0.0441
 30
-0.1657
 70
192
 0
VERTEX
 8
CUERPO_1
 10
0.052
 20
-0.0308
 30
-0.097
 70
192
 0
VERTEX
 8
CUERPO_1
 10
-0.052
 20
0.2031
 30
0.0589
 70
192
 0
VERTEX
 8
CUERPO_1
 10
-0.052
 20
0.2323
 30
0.1586
 70
192
 0
VERTEX
 8
CUERPO_1
 10
0.052
 20
0.0226
 30
0.0295
 70
192
 0
VERTEX
 8
CUERPO_1
 10
-0.0847
 20
-0.1325
 30
0.4685
 70
192
 0
VERTEX
 8
CUERPO_1
 10
0.052
 20
-0.0211
 30
-0.0226
 70
192
 0
VERTEX
 8
CUERPO_1
 10
-0.052
 20
0.0931
 30
-0.1953
 70
192
 0
VERTEX
 8
CUERPO_1
 10
0.068
 20
0.2323
 30
0.4238
 70
192
 0
VERTEX
 8
CUERPO_1
 10
0.052
 20
0.2323
 30
0.1609
 70
192
 0
VERTEX
 8
CUERPO_1
 10
0.0844
 20
0.2089
 30
0.4685
 70
192
 0
VERTEX
 8
CUERPO_1
 10
-0.0708
 20
0.1433
 30
0.4685
 70
192
 0
VERTEX
 8
CUERPO_1
 10
0.052
 20
-0.1325
 30
0.2545
 70
192
 0
VERTEX
 8
CUERPO_1
 10
0.083
 20
0.0405
 30
0.4685
 70
192
 0
VERTEX
 8
CUERPO_1
 10
-0.0879
 20
0.2323
 30
0.4028
 70
192
 0
VERTEX
 8
CUERPO_1
 10
0.052
 20
0.0356
 30
0.0349
 70
192
 0
VERTEX
 8
CUERPO_1
 10
-0.1019
 20
-0.1325
 30
0.4298
 70
192
 0
VERTEX
 8
CUERPO_1
 10
0.0532
 20
0.2323
 30
0.3756
 70
192
 0
VERTEX
 8
CUERPO_1
 10
-0.052
 20
-0.1325
 30
0.1609
 70
192
 0
VERTEX
 8
CUERPO_1
 10
-0.052
 20
0.2683
 30
0.0189
 70
192
 0
VERTEX
 8
CUERPO_1
 10
-0.052
 20
0.0374
 30
0.1586
 70
192
 0
VERTEX
 8
CUERPO_1
 10
0.052
 20
-0.1325
 30
0.1609
 70
192
 0
VERTEX
 8
CUERPO_1
 10
-0.052
 20
0.0356
 30
0.0349
 70
192
 0
VERTEX
 8
CUERPO_1
 10
0.0987
 20
-0.1325
 30
0.4297
 70
192
 0
VERTEX
 8
CUERPO_1
 10
0.052
 20
0.2683
 30
0.0189
 70
192
 0
VERTEX
 8
CUERPO_1
 10
-0.052
 20
0.3095
 30
-0.0836
 70
192
 0
VERTEX
 8
CUERPO_1
 10
-0.052
 20
0.2323
 30
0.1609
 70
192
 0
VERTEX
 8
CUERPO_1
 10
0.052
 20
0.0279
 30
-0.1508
 70
192
 0
VERTEX
 8
CUERPO_1
 10
0.0709
 20
-0.1325
 30
0.3165
 70
192
 0
VERTEX
 8
CUERPO_1
 10
-0.0816
 20
-0.1325
 30
0.3678
 70
192
 0
VERTEX
 8
CUERPO_1
 10
0.052
 20
0.2323
 30
0.2772
 70
192
 0
VERTEX
 8
CUERPO_1
 10
0.052
 20
0.0374
 30
0.1586
 70
192
 0
VERTEX
 8
CUERPO_1
 10
-0.052
 20
0.2323
 30
0.2772
 70
192
 0
VERTEX
 8
CUERPO_1
 10
-0.0847
 20
0.0405
 30
0.4685
 70
192
 0
VERTEX
 8
CUERPO_1
 10
0.052
 20
-0.0255
 30
-0.0566
 70
192
 0
VERTEX
 8
CUERPO_1
 10
0.052
 20
-0.0157
 30
-0.0162
 70
192
 0
VERTEX
 8
CUERPO_1
 10
-0.052
 20
0.2828
 30
0.0024
 70
192
 0
VERTEX
 8
CUERPO_1
 10
-0.052
 20
-0.1325
 30
0.2545
 70
192
 0
VERTEX
 8
CUERPO_1
 10
-0.0746
 20
0.2323
 30
0.4328
 70
192
 0
VERTEX
 8
CUERPO_1
 10
0.052
 20
0.3093
 30
-0.0803
 70
192
 0
VERTEX
 8
CUERPO_1
 10
0.052
 20
0.2215
 30
-0.1864
 70
192
 0
VERTEX
 8
CUERPO_1
 10
-0.052
 20
-0.0212
 30
-0.0231
 70
192
 0
VERTEX
 8
CUERPO_1
 10
-0.052
 20
-0.0262
 30
-0.0616
 70
192
 0
VERTEX
 8
CUERPO_1
 10
0.052
 20
0.2814
 30
0.0039
 70
192
 0
VERTEX
 8
CUERPO_1
 10
-0.052
 20
0.2337
 30
-0.1792
 70
192
 0
VERTEX
 8
CUERPO_1
 10
-0.052
 20
0.0226
 30
-0.146
 70
192
 0
VERTEX
 8
CUERPO_1
 10
-0.069
 20
0.2323
 30
0.3294
 70
192
 0
VERTEX
 8
CUERPO_1
 10
0.0392
 20
0.3087
 30
0.521
 70
192
 0
VERTEX
 8
CUERPO_1
 10
0.0392
 20
0.3087
 30
0.5525
 70
192
 0
VERTEX
 8
CUERPO_1
 10
0.0496
 20
0.3087
 30
0.521
 70
192
 0
VERTEX
 8
CUERPO_1
 10
0.0496
 20
0.3087
 30
0.5525
 70
192
 0
VERTEX
 8
CUERPO_1
 10
0.0496
 20
0.3137
 30
0.521
 70
192
 0
VERTEX
 8
CUERPO_1
 10
0.0496
 20
0.3137
 30
0.5525
 70
192
 0
VERTEX
 8
CUERPO_1
 10
0.0392
 20
0.3137
 30
0.521
 70
192
 0
VERTEX
 8
CUERPO_1
 10
0.0392
 20
0.3137
 30
0.5525
 70
192
 0
VERTEX
 8
CUERPO_1
 10
-0.0497
 20
0.3087
 30
0.521
 70
192
 0
VERTEX
 8
CUERPO_1
 10
-0.0497
 20
0.3087
 30
0.5525
 70
192
 0
VERTEX
 8
CUERPO_1
 10
-0.0393
 20
0.3087
 30
0.521
 70
192
 0
VERTEX
 8
CUERPO_1
 10
-0.0393
 20
0.3087
 30
0.5525
 70
192
 0
VERTEX
 8
CUERPO_1
 10
-0.0393
 20
0.3137
 30
0.521
 70
192
 0
VERTEX
 8
CUERPO_1
 10
-0.0393
 20
0.3137
 30
0.5525
 70
192
 0
VERTEX
 8
CUERPO_1
 10
-0.0497
 20
0.3137
 30
0.521
 70
192
 0
VERTEX
 8
CUERPO_1
 10
-0.0497
 20
0.3137
 30
0.5525
 70
192
 0
VERTEX
 8
CUERPO_1
 10
-0.0661
 20
0.3089
 30
0.5158
 70
192
 0
VERTEX
 8
CUERPO_1
 10
-0.0224
 20
0.3089
 30
0.5158
 70
192
 0
VERTEX
 8
CUERPO_1
 10
-0.0661
 20
0.3089
 30
0.497
 70
192
 0
VERTEX
 8
CUERPO_1
 10
-0.0661
 20
0.3089
 30
0.497
 70
192
 0
VERTEX
 8
CUERPO_1
 10
-0.0224
 20
0.3089
 30
0.497
 70
192
 0
VERTEX
 8
CUERPO_1
 10
-0.0224
 20
0.3089
 30
0.497
 70
192
 0
VERTEX
 8
CUERPO_1
 10
-0.0661
 20
0.3122
 30
0.4973
 70
192
 0
VERTEX
 8
CUERPO_1
 10
-0.0661
 20
0.3122
 30
0.4973
 70
192
 0
VERTEX
 8
CUERPO_1
 10
-0.0224
 20
0.3122
 30
0.4973
 70
192
 0
VERTEX
 8
CUERPO_1
 10
-0.0224
 20
0.3122
 30
0.4973
 70
192
 0
VERTEX
 8
CUERPO_1
 10
-0.0661
 20
0.3153
 30
0.4981
 70
192
 0
VERTEX
 8
CUERPO_1
 10
-0.0661
 20
0.3153
 30
0.4981
 70
192
 0
VERTEX
 8
CUERPO_1
 10
-0.0224
 20
0.3153
 30
0.4981
 70
192
 0
VERTEX
 8
CUERPO_1
 10
-0.0224
 20
0.3153
 30
0.4981
 70
192
 0
VERTEX
 8
CUERPO_1
 10
-0.0661
 20
0.3183
 30
0.4995
 70
192
 0
VERTEX
 8
CUERPO_1
 10
-0.0661
 20
0.3183
 30
0.4995
 70
192
 0
VERTEX
 8
CUERPO_1
 10
-0.0224
 20
0.3183
 30
0.4995
 70
192
 0
VERTEX
 8
CUERPO_1
 10
-0.0224
 20
0.3183
 30
0.4995
 70
192
 0
VERTEX
 8
CUERPO_1
 10
-0.0661
 20
0.321
 30
0.5014
 70
192
 0
VERTEX
 8
CUERPO_1
 10
-0.0661
 20
0.321
 30
0.5014
 70
192
 0
VERTEX
 8
CUERPO_1
 10
-0.0224
 20
0.321
 30
0.5014
 70
192
 0
VERTEX
 8
CUERPO_1
 10
-0.0224
 20
0.321
 30
0.5014
 70
192
 0
VERTEX
 8
CUERPO_1
 10
-0.0661
 20
0.3233
 30
0.5037
 70
192
 0
VERTEX
 8
CUERPO_1
 10
-0.0661
 20
0.3233
 30
0.5037
 70
192
 0
VERTEX
 8
CUERPO_1
 10
-0.0224
 20
0.3233
 30
0.5037
 70
192
 0
VERTEX
 8
CUERPO_1
 10
-0.0224
 20
0.3233
 30
0.5037
 70
192
 0
VERTEX
 8
CUERPO_1
 10
-0.0661
 20
0.3252
 30
0.5064
 70
192
 0
VERTEX
 8
CUERPO_1
 10
-0.0661
 20
0.3252
 30
0.5064
 70
192
 0
VERTEX
 8
CUERPO_1
 10
-0.0224
 20
0.3252
 30
0.5064
 70
192
 0
VERTEX
 8
CUERPO_1
 10
-0.0224
 20
0.3252
 30
0.5064
 70
192
 0
VERTEX
 8
CUERPO_1
 10
-0.0661
 20
0.3266
 30
0.5094
 70
192
 0
VERTEX
 8
CUERPO_1
 10
-0.0661
 20
0.3266
 30
0.5094
 70
192
 0
VERTEX
 8
CUERPO_1
 10
-0.0224
 20
0.3266
 30
0.5094
 70
192
 0
VERTEX
 8
CUERPO_1
 10
-0.0224
 20
0.3266
 30
0.5094
 70
192
 0
VERTEX
 8
CUERPO_1
 10
-0.0661
 20
0.3274
 30
0.5125
 70
192
 0
VERTEX
 8
CUERPO_1
 10
-0.0661
 20
0.3274
 30
0.5125
 70
192
 0
VERTEX
 8
CUERPO_1
 10
-0.0224
 20
0.3274
 30
0.5125
 70
192
 0
VERTEX
 8
CUERPO_1
 10
-0.0224
 20
0.3274
 30
0.5125
 70
192
 0
VERTEX
 8
CUERPO_1
 10
-0.0661
 20
0.3277
 30
0.5158
 70
192
 0
VERTEX
 8
CUERPO_1
 10
-0.0661
 20
0.3277
 30
0.5158
 70
192
 0
VERTEX
 8
CUERPO_1
 10
-0.0224
 20
0.3277
 30
0.5158
 70
192
 0
VERTEX
 8
CUERPO_1
 10
-0.0224
 20
0.3277
 30
0.5158
 70
192
 0
VERTEX
 8
CUERPO_1
 10
-0.0661
 20
0.3274
 30
0.5191
 70
192
 0
VERTEX
 8
CUERPO_1
 10
-0.0661
 20
0.3274
 30
0.5191
 70
192
 0
VERTEX
 8
CUERPO_1
 10
-0.0224
 20
0.3274
 30
0.5191
 70
192
 0
VERTEX
 8
CUERPO_1
 10
-0.0224
 20
0.3274
 30
0.5191
 70
192
 0
VERTEX
 8
CUERPO_1
 10
-0.0661
 20
0.3266
 30
0.5222
 70
192
 0
VERTEX
 8
CUERPO_1
 10
-0.0661
 20
0.3266
 30
0.5222
 70
192
 0
VERTEX
 8
CUERPO_1
 10
-0.0224
 20
0.3266
 30
0.5222
 70
192
 0
VERTEX
 8
CUERPO_1
 10
-0.0224
 20
0.3266
 30
0.5222
 70
192
 0
VERTEX
 8
CUERPO_1
 10
-0.0661
 20
0.3252
 30
0.5252
 70
192
 0
VERTEX
 8
CUERPO_1
 10
-0.0661
 20
0.3252
 30
0.5252
 70
192
 0
VERTEX
 8
CUERPO_1
 10
-0.0224
 20
0.3252
 30
0.5252
 70
192
 0
VERTEX
 8
CUERPO_1
 10
-0.0224
 20
0.3252
 30
0.5252
 70
192
 0
VERTEX
 8
CUERPO_1
 10
-0.0661
 20
0.3233
 30
0.5279
 70
192
 0
VERTEX
 8
CUERPO_1
 10
-0.0661
 20
0.3233
 30
0.5279
 70
192
 0
VERTEX
 8
CUERPO_1
 10
-0.0224
 20
0.3233
 30
0.5279
 70
192
 0
VERTEX
 8
CUERPO_1
 10
-0.0224
 20
0.3233
 30
0.5279
 70
192
 0
VERTEX
 8
CUERPO_1
 10
-0.0661
 20
0.321
 30
0.5302
 70
192
 0
VERTEX
 8
CUERPO_1
 10
-0.0661
 20
0.321
 30
0.5302
 70
192
 0
VERTEX
 8
CUERPO_1
 10
-0.0224
 20
0.321
 30
0.5302
 70
192
 0
VERTEX
 8
CUERPO_1
 10
-0.0224
 20
0.321
 30
0.5302
 70
192
 0
VERTEX
 8
CUERPO_1
 10
-0.0661
 20
0.3183
 30
0.5321
 70
192
 0
VERTEX
 8
CUERPO_1
 10
-0.0661
 20
0.3183
 30
0.5321
 70
192
 0
VERTEX
 8
CUERPO_1
 10
-0.0224
 20
0.3183
 30
0.5321
 70
192
 0
VERTEX
 8
CUERPO_1
 10
-0.0224
 20
0.3183
 30
0.5321
 70
192
 0
VERTEX
 8
CUERPO_1
 10
-0.0661
 20
0.3153
 30
0.5334
 70
192
 0
VERTEX
 8
CUERPO_1
 10
-0.0661
 20
0.3153
 30
0.5334
 70
192
 0
VERTEX
 8
CUERPO_1
 10
-0.0224
 20
0.3153
 30
0.5334
 70
192
 0
VERTEX
 8
CUERPO_1
 10
-0.0224
 20
0.3153
 30
0.5334
 70
192
 0
VERTEX
 8
CUERPO_1
 10
-0.0661
 20
0.3122
 30
0.5343
 70
192
 0
VERTEX
 8
CUERPO_1
 10
-0.0661
 20
0.3122
 30
0.5343
 70
192
 0
VERTEX
 8
CUERPO_1
 10
-0.0224
 20
0.3122
 30
0.5343
 70
192
 0
VERTEX
 8
CUERPO_1
 10
-0.0224
 20
0.3122
 30
0.5343
 70
192
 0
VERTEX
 8
CUERPO_1
 10
-0.0661
 20
0.3089
 30
0.5346
 70
192
 0
VERTEX
 8
CUERPO_1
 10
-0.0661
 20
0.3089
 30
0.5346
 70
192
 0
VERTEX
 8
CUERPO_1
 10
-0.0224
 20
0.3089
 30
0.5346
 70
192
 0
VERTEX
 8
CUERPO_1
 10
-0.0224
 20
0.3089
 30
0.5346
 70
192
 0
VERTEX
 8
CUERPO_1
 10
-0.0661
 20
0.3056
 30
0.5343
 70
192
 0
VERTEX
 8
CUERPO_1
 10
-0.0661
 20
0.3056
 30
0.5343
 70
192
 0
VERTEX
 8
CUERPO_1
 10
-0.0224
 20
0.3056
 30
0.5343
 70
192
 0
VERTEX
 8
CUERPO_1
 10
-0.0224
 20
0.3056
 30
0.5343
 70
192
 0
VERTEX
 8
CUERPO_1
 10
-0.0661
 20
0.3025
 30
0.5334
 70
192
 0
VERTEX
 8
CUERPO_1
 10
-0.0661
 20
0.3025
 30
0.5334
 70
192
 0
VERTEX
 8
CUERPO_1
 10
-0.0224
 20
0.3025
 30
0.5334
 70
192
 0
VERTEX
 8
CUERPO_1
 10
-0.0224
 20
0.3025
 30
0.5334
 70
192
 0
VERTEX
 8
CUERPO_1
 10
-0.0661
 20
0.2995
 30
0.5321
 70
192
 0
VERTEX
 8
CUERPO_1
 10
-0.0661
 20
0.2995
 30
0.5321
 70
192
 0
VERTEX
 8
CUERPO_1
 10
-0.0224
 20
0.2995
 30
0.5321
 70
192
 0
VERTEX
 8
CUERPO_1
 10
-0.0224
 20
0.2995
 30
0.5321
 70
192
 0
VERTEX
 8
CUERPO_1
 10
-0.0661
 20
0.2968
 30
0.5302
 70
192
 0
VERTEX
 8
CUERPO_1
 10
-0.0661
 20
0.2968
 30
0.5302
 70
192
 0
VERTEX
 8
CUERPO_1
 10
-0.0224
 20
0.2968
 30
0.5302
 70
192
 0
VERTEX
 8
CUERPO_1
 10
-0.0224
 20
0.2968
 30
0.5302
 70
192
 0
VERTEX
 8
CUERPO_1
 10
-0.0661
 20
0.2945
 30
0.5279
 70
192
 0
VERTEX
 8
CUERPO_1
 10
-0.0661
 20
0.2945
 30
0.5279
 70
192
 0
VERTEX
 8
CUERPO_1
 10
-0.0224
 20
0.2945
 30
0.5279
 70
192
 0
VERTEX
 8
CUERPO_1
 10
-0.0224
 20
0.2945
 30
0.5279
 70
192
 0
VERTEX
 8
CUERPO_1
 10
-0.0661
 20
0.2926
 30
0.5252
 70
192
 0
VERTEX
 8
CUERPO_1
 10
-0.0661
 20
0.2926
 30
0.5252
 70
192
 0
VERTEX
 8
CUERPO_1
 10
-0.0224
 20
0.2926
 30
0.5252
 70
192
 0
VERTEX
 8
CUERPO_1
 10
-0.0224
 20
0.2926
 30
0.5252
 70
192
 0
VERTEX
 8
CUERPO_1
 10
-0.0661
 20
0.2912
 30
0.5222
 70
192
 0
VERTEX
 8
CUERPO_1
 10
-0.0661
 20
0.2912
 30
0.5222
 70
192
 0
VERTEX
 8
CUERPO_1
 10
-0.0224
 20
0.2912
 30
0.5222
 70
192
 0
VERTEX
 8
CUERPO_1
 10
-0.0224
 20
0.2912
 30
0.5222
 70
192
 0
VERTEX
 8
CUERPO_1
 10
-0.0661
 20
0.2904
 30
0.5191
 70
192
 0
VERTEX
 8
CUERPO_1
 10
-0.0661
 20
0.2904
 30
0.5191
 70
192
 0
VERTEX
 8
CUERPO_1
 10
-0.0224
 20
0.2904
 30
0.5191
 70
192
 0
VERTEX
 8
CUERPO_1
 10
-0.0224
 20
0.2904
 30
0.5191
 70
192
 0
VERTEX
 8
CUERPO_1
 10
-0.0661
 20
0.2901
 30
0.5158
 70
192
 0
VERTEX
 8
CUERPO_1
 10
-0.0661
 20
0.2901
 30
0.5158
 70
192
 0
VERTEX
 8
CUERPO_1
 10
-0.0224
 20
0.2901
 30
0.5158
 70
192
 0
VERTEX
 8
CUERPO_1
 10
-0.0224
 20
0.2901
 30
0.5158
 70
192
 0
VERTEX
 8
CUERPO_1
 10
-0.0661
 20
0.2904
 30
0.5125
 70
192
 0
VERTEX
 8
CUERPO_1
 10
-0.0661
 20
0.2904
 30
0.5125
 70
192
 0
VERTEX
 8
CUERPO_1
 10
-0.0224
 20
0.2904
 30
0.5125
 70
192
 0
VERTEX
 8
CUERPO_1
 10
-0.0224
 20
0.2904
 30
0.5125
 70
192
 0
VERTEX
 8
CUERPO_1
 10
-0.0661
 20
0.2912
 30
0.5094
 70
192
 0
VERTEX
 8
CUERPO_1
 10
-0.0661
 20
0.2912
 30
0.5094
 70
192
 0
VERTEX
 8
CUERPO_1
 10
-0.0224
 20
0.2912
 30
0.5094
 70
192
 0
VERTEX
 8
CUERPO_1
 10
-0.0224
 20
0.2912
 30
0.5094
 70
192
 0
VERTEX
 8
CUERPO_1
 10
-0.0661
 20
0.2926
 30
0.5064
 70
192
 0
VERTEX
 8
CUERPO_1
 10
-0.0661
 20
0.2926
 30
0.5064
 70
192
 0
VERTEX
 8
CUERPO_1
 10
-0.0224
 20
0.2926
 30
0.5064
 70
192
 0
VERTEX
 8
CUERPO_1
 10
-0.0224
 20
0.2926
 30
0.5064
 70
192
 0
VERTEX
 8
CUERPO_1
 10
-0.0661
 20
0.2945
 30
0.5037
 70
192
 0
VERTEX
 8
CUERPO_1
 10
-0.0661
 20
0.2945
 30
0.5037
 70
192
 0
VERTEX
 8
CUERPO_1
 10
-0.0224
 20
0.2945
 30
0.5037
 70
192
 0
VERTEX
 8
CUERPO_1
 10
-0.0224
 20
0.2945
 30
0.5037
 70
192
 0
VERTEX
 8
CUERPO_1
 10
-0.0661
 20
0.2968
 30
0.5014
 70
192
 0
VERTEX
 8
CUERPO_1
 10
-0.0661
 20
0.2968
 30
0.5014
 70
192
 0
VERTEX
 8
CUERPO_1
 10
-0.0224
 20
0.2968
 30
0.5014
 70
192
 0
VERTEX
 8
CUERPO_1
 10
-0.0224
 20
0.2968
 30
0.5014
 70
192
 0
VERTEX
 8
CUERPO_1
 10
-0.0661
 20
0.2995
 30
0.4995
 70
192
 0
VERTEX
 8
CUERPO_1
 10
-0.0661
 20
0.2995
 30
0.4995
 70
192
 0
VERTEX
 8
CUERPO_1
 10
-0.0224
 20
0.2995
 30
0.4995
 70
192
 0
VERTEX
 8
CUERPO_1
 10
-0.0224
 20
0.2995
 30
0.4995
 70
192
 0
VERTEX
 8
CUERPO_1
 10
-0.0661
 20
0.3025
 30
0.4981
 70
192
 0
VERTEX
 8
CUERPO_1
 10
-0.0661
 20
0.3025
 30
0.4981
 70
192
 0
VERTEX
 8
CUERPO_1
 10
-0.0224
 20
0.3025
 30
0.4981
 70
192
 0
VERTEX
 8
CUERPO_1
 10
-0.0224
 20
0.3025
 30
0.4981
 70
192
 0
VERTEX
 8
CUERPO_1
 10
-0.0661
 20
0.3056
 30
0.4973
 70
192
 0
VERTEX
 8
CUERPO_1
 10
-0.0661
 20
0.3056
 30
0.4973
 70
192
 0
VERTEX
 8
CUERPO_1
 10
-0.0224
 20
0.3056
 30
0.4973
 70
192
 0
VERTEX
 8
CUERPO_1
 10
-0.0224
 20
0.3056
 30
0.4973
 70
192
 0
VERTEX
 8
CUERPO_1
 10
-0.0552
 20
0.2322
 30
0.4897
 70
192
 0
VERTEX
 8
CUERPO_1
 10
-0.0552
 20
0.2322
 30
0.5122
 70
192
 0
VERTEX
 8
CUERPO_1
 10
0.0552
 20
0.2322
 30
0.4897
 70
192
 0
VERTEX
 8
CUERPO_1
 10
0.0552
 20
0.2322
 30
0.5122
 70
192
 0
VERTEX
 8
CUERPO_1
 10
0.0675
 20
0.3246
 30
0.4897
 70
192
 0
VERTEX
 8
CUERPO_1
 10
0.0675
 20
0.3246
 30
0.5122
 70
192
 0
VERTEX
 8
CUERPO_1
 10
-0.0675
 20
0.3246
 30
0.4897
 70
192
 0
VERTEX
 8
CUERPO_1
 10
-0.0675
 20
0.3246
 30
0.5122
 70
192
 0
VERTEX
 8
CUERPO_1
 10
-0.0552
 20
0.092
 30
0.4805
 70
192
 0
VERTEX
 8
CUERPO_1
 10
-0.0552
 20
0.092
 30
0.5031
 70
192
 0
VERTEX
 8
CUERPO_1
 10
0.0552
 20
0.092
 30
0.4805
 70
192
 0
VERTEX
 8
CUERPO_1
 10
0.0552
 20
0.092
 30
0.5031
 70
192
 0
VERTEX
 8
CUERPO_1
 10
0.0232
 20
0.3092
 30
0.5158
 70
192
 0
VERTEX
 8
CUERPO_1
 10
0.0669
 20
0.3092
 30
0.5158
 70
192
 0
VERTEX
 8
CUERPO_1
 10
0.0232
 20
0.3092
 30
0.497
 70
192
 0
VERTEX
 8
CUERPO_1
 10
0.0232
 20
0.3092
 30
0.497
 70
192
 0
VERTEX
 8
CUERPO_1
 10
0.0669
 20
0.3092
 30
0.497
 70
192
 0
VERTEX
 8
CUERPO_1
 10
0.0669
 20
0.3092
 30
0.497
 70
192
 0
VERTEX
 8
CUERPO_1
 10
0.0232
 20
0.3125
 30
0.4973
 70
192
 0
VERTEX
 8
CUERPO_1
 10
0.0232
 20
0.3125
 30
0.4973
 70
192
 0
VERTEX
 8
CUERPO_1
 10
0.0669
 20
0.3125
 30
0.4973
 70
192
 0
VERTEX
 8
CUERPO_1
 10
0.0669
 20
0.3125
 30
0.4973
 70
192
 0
VERTEX
 8
CUERPO_1
 10
0.0232
 20
0.3157
 30
0.4981
 70
192
 0
VERTEX
 8
CUERPO_1
 10
0.0232
 20
0.3157
 30
0.4981
 70
192
 0
VERTEX
 8
CUERPO_1
 10
0.0669
 20
0.3157
 30
0.4981
 70
192
 0
VERTEX
 8
CUERPO_1
 10
0.0669
 20
0.3157
 30
0.4981
 70
192
 0
VERTEX
 8
CUERPO_1
 10
0.0232
 20
0.3186
 30
0.4995
 70
192
 0
VERTEX
 8
CUERPO_1
 10
0.0232
 20
0.3186
 30
0.4995
 70
192
 0
VERTEX
 8
CUERPO_1
 10
0.0669
 20
0.3186
 30
0.4995
 70
192
 0
VERTEX
 8
CUERPO_1
 10
0.0669
 20
0.3186
 30
0.4995
 70
192
 0
VERTEX
 8
CUERPO_1
 10
0.0232
 20
0.3213
 30
0.5014
 70
192
 0
VERTEX
 8
CUERPO_1
 10
0.0232
 20
0.3213
 30
0.5014
 70
192
 0
VERTEX
 8
CUERPO_1
 10
0.0669
 20
0.3213
 30
0.5014
 70
192
 0
VERTEX
 8
CUERPO_1
 10
0.0669
 20
0.3213
 30
0.5014
 70
192
 0
VERTEX
 8
CUERPO_1
 10
0.0232
 20
0.3236
 30
0.5037
 70
192
 0
VERTEX
 8
CUERPO_1
 10
0.0232
 20
0.3236
 30
0.5037
 70
192
 0
VERTEX
 8
CUERPO_1
 10
0.0669
 20
0.3236
 30
0.5037
 70
192
 0
VERTEX
 8
CUERPO_1
 10
0.0669
 20
0.3236
 30
0.5037
 70
192
 0
VERTEX
 8
CUERPO_1
 10
0.0232
 20
0.3255
 30
0.5064
 70
192
 0
VERTEX
 8
CUERPO_1
 10
0.0232
 20
0.3255
 30
0.5064
 70
192
 0
VERTEX
 8
CUERPO_1
 10
0.0669
 20
0.3255
 30
0.5064
 70
192
 0
VERTEX
 8
CUERPO_1
 10
0.0669
 20
0.3255
 30
0.5064
 70
192
 0
VERTEX
 8
CUERPO_1
 10
0.0232
 20
0.3269
 30
0.5094
 70
192
 0
VERTEX
 8
CUERPO_1
 10
0.0232
 20
0.3269
 30
0.5094
 70
192
 0
VERTEX
 8
CUERPO_1
 10
0.0669
 20
0.3269
 30
0.5094
 70
192
 0
VERTEX
 8
CUERPO_1
 10
0.0669
 20
0.3269
 30
0.5094
 70
192
 0
VERTEX
 8
CUERPO_1
 10
0.0232
 20
0.3277
 30
0.5125
 70
192
 0
VERTEX
 8
CUERPO_1
 10
0.0232
 20
0.3277
 30
0.5125
 70
192
 0
VERTEX
 8
CUERPO_1
 10
0.0669
 20
0.3277
 30
0.5125
 70
192
 0
VERTEX
 8
CUERPO_1
 10
0.0669
 20
0.3277
 30
0.5125
 70
192
 0
VERTEX
 8
CUERPO_1
 10
0.0232
 20
0.328
 30
0.5158
 70
192
 0
VERTEX
 8
CUERPO_1
 10
0.0232
 20
0.328
 30
0.5158
 70
192
 0
VERTEX
 8
CUERPO_1
 10
0.0669
 20
0.328
 30
0.5158
 70
192
 0
VERTEX
 8
CUERPO_1
 10
0.0669
 20
0.328
 30
0.5158
 70
192
 0
VERTEX
 8
CUERPO_1
 10
0.0232
 20
0.3277
 30
0.5191
 70
192
 0
VERTEX
 8
CUERPO_1
 10
0.0232
 20
0.3277
 30
0.5191
 70
192
 0
VERTEX
 8
CUERPO_1
 10
0.0669
 20
0.3277
 30
0.5191
 70
192
 0
VERTEX
 8
CUERPO_1
 10
0.0669
 20
0.3277
 30
0.5191
 70
192
 0
VERTEX
 8
CUERPO_1
 10
0.0232
 20
0.3269
 30
0.5222
 70
192
 0
VERTEX
 8
CUERPO_1
 10
0.0232
 20
0.3269
 30
0.5222
 70
192
 0
VERTEX
 8
CUERPO_1
 10
0.0669
 20
0.3269
 30
0.5222
 70
192
 0
VERTEX
 8
CUERPO_1
 10
0.0669
 20
0.3269
 30
0.5222
 70
192
 0
VERTEX
 8
CUERPO_1
 10
0.0232
 20
0.3255
 30
0.5252
 70
192
 0
VERTEX
 8
CUERPO_1
 10
0.0232
 20
0.3255
 30
0.5252
 70
192
 0
VERTEX
 8
CUERPO_1
 10
0.0669
 20
0.3255
 30
0.5252
 70
192
 0
VERTEX
 8
CUERPO_1
 10
0.0669
 20
0.3255
 30
0.5252
 70
192
 0
VERTEX
 8
CUERPO_1
 10
0.0232
 20
0.3236
 30
0.5279
 70
192
 0
VERTEX
 8
CUERPO_1
 10
0.0232
 20
0.3236
 30
0.5279
 70
192
 0
VERTEX
 8
CUERPO_1
 10
0.0669
 20
0.3236
 30
0.5279
 70
192
 0
VERTEX
 8
CUERPO_1
 10
0.0669
 20
0.3236
 30
0.5279
 70
192
 0
VERTEX
 8
CUERPO_1
 10
0.0232
 20
0.3213
 30
0.5302
 70
192
 0
VERTEX
 8
CUERPO_1
 10
0.0232
 20
0.3213
 30
0.5302
 70
192
 0
VERTEX
 8
CUERPO_1
 10
0.0669
 20
0.3213
 30
0.5302
 70
192
 0
VERTEX
 8
CUERPO_1
 10
0.0669
 20
0.3213
 30
0.5302
 70
192
 0
VERTEX
 8
CUERPO_1
 10
0.0232
 20
0.3186
 30
0.5321
 70
192
 0
VERTEX
 8
CUERPO_1
 10
0.0232
 20
0.3186
 30
0.5321
 70
192
 0
VERTEX
 8
CUERPO_1
 10
0.0669
 20
0.3186
 30
0.5321
 70
192
 0
VERTEX
 8
CUERPO_1
 10
0.0669
 20
0.3186
 30
0.5321
 70
192
 0
VERTEX
 8
CUERPO_1
 10
0.0232
 20
0.3157
 30
0.5334
 70
192
 0
VERTEX
 8
CUERPO_1
 10
0.0232
 20
0.3157
 30
0.5334
 70
192
 0
VERTEX
 8
CUERPO_1
 10
0.0669
 20
0.3157
 30
0.5334
 70
192
 0
VERTEX
 8
CUERPO_1
 10
0.0669
 20
0.3157
 30
0.5334
 70
192
 0
VERTEX
 8
CUERPO_1
 10
0.0232
 20
0.3125
 30
0.5343
 70
192
 0
VERTEX
 8
CUERPO_1
 10
0.0232
 20
0.3125
 30
0.5343
 70
192
 0
VERTEX
 8
CUERPO_1
 10
0.0669
 20
0.3125
 30
0.5343
 70
192
 0
VERTEX
 8
CUERPO_1
 10
0.0669
 20
0.3125
 30
0.5343
 70
192
 0
VERTEX
 8
CUERPO_1
 10
0.0232
 20
0.3092
 30
0.5346
 70
192
 0
VERTEX
 8
CUERPO_1
 10
0.0232
 20
0.3092
 30
0.5346
 70
192
 0
VERTEX
 8
CUERPO_1
 10
0.0669
 20
0.3092
 30
0.5346
 70
192
 0
VERTEX
 8
CUERPO_1
 10
0.0669
 20
0.3092
 30
0.5346
 70
192
 0
VERTEX
 8
CUERPO_1
 10
0.0232
 20
0.306
 30
0.5343
 70
192
 0
VERTEX
 8
CUERPO_1
 10
0.0232
 20
0.306
 30
0.5343
 70
192
 0
VERTEX
 8
CUERPO_1
 10
0.0669
 20
0.306
 30
0.5343
 70
192
 0
VERTEX
 8
CUERPO_1
 10
0.0669
 20
0.306
 30
0.5343
 70
192
 0
VERTEX
 8
CUERPO_1
 10
0.0232
 20
0.3028
 30
0.5334
 70
192
 0
VERTEX
 8
CUERPO_1
 10
0.0232
 20
0.3028
 30
0.5334
 70
192
 0
VERTEX
 8
CUERPO_1
 10
0.0669
 20
0.3028
 30
0.5334
 70
192
 0
VERTEX
 8
CUERPO_1
 10
0.0669
 20
0.3028
 30
0.5334
 70
192
 0
VERTEX
 8
CUERPO_1
 10
0.0232
 20
0.2998
 30
0.5321
 70
192
 0
VERTEX
 8
CUERPO_1
 10
0.0232
 20
0.2998
 30
0.5321
 70
192
 0
VERTEX
 8
CUERPO_1
 10
0.0669
 20
0.2998
 30
0.5321
 70
192
 0
VERTEX
 8
CUERPO_1
 10
0.0669
 20
0.2998
 30
0.5321
 70
192
 0
VERTEX
 8
CUERPO_1
 10
0.0232
 20
0.2971
 30
0.5302
 70
192
 0
VERTEX
 8
CUERPO_1
 10
0.0232
 20
0.2971
 30
0.5302
 70
192
 0
VERTEX
 8
CUERPO_1
 10
0.0669
 20
0.2971
 30
0.5302
 70
192
 0
VERTEX
 8
CUERPO_1
 10
0.0669
 20
0.2971
 30
0.5302
 70
192
 0
VERTEX
 8
CUERPO_1
 10
0.0232
 20
0.2948
 30
0.5279
 70
192
 0
VERTEX
 8
CUERPO_1
 10
0.0232
 20
0.2948
 30
0.5279
 70
192
 0
VERTEX
 8
CUERPO_1
 10
0.0669
 20
0.2948
 30
0.5279
 70
192
 0
VERTEX
 8
CUERPO_1
 10
0.0669
 20
0.2948
 30
0.5279
 70
192
 0
VERTEX
 8
CUERPO_1
 10
0.0232
 20
0.293
 30
0.5252
 70
192
 0
VERTEX
 8
CUERPO_1
 10
0.0232
 20
0.293
 30
0.5252
 70
192
 0
VERTEX
 8
CUERPO_1
 10
0.0669
 20
0.293
 30
0.5252
 70
192
 0
VERTEX
 8
CUERPO_1
 10
0.0669
 20
0.293
 30
0.5252
 70
192
 0
VERTEX
 8
CUERPO_1
 10
0.0232
 20
0.2916
 30
0.5222
 70
192
 0
VERTEX
 8
CUERPO_1
 10
0.0232
 20
0.2916
 30
0.5222
 70
192
 0
VERTEX
 8
CUERPO_1
 10
0.0669
 20
0.2916
 30
0.5222
 70
192
 0
VERTEX
 8
CUERPO_1
 10
0.0669
 20
0.2916
 30
0.5222
 70
192
 0
VERTEX
 8
CUERPO_1
 10
0.0232
 20
0.2907
 30
0.5191
 70
192
 0
VERTEX
 8
CUERPO_1
 10
0.0232
 20
0.2907
 30
0.5191
 70
192
 0
VERTEX
 8
CUERPO_1
 10
0.0669
 20
0.2907
 30
0.5191
 70
192
 0
VERTEX
 8
CUERPO_1
 10
0.0669
 20
0.2907
 30
0.5191
 70
192
 0
VERTEX
 8
CUERPO_1
 10
0.0232
 20
0.2904
 30
0.5158
 70
192
 0
VERTEX
 8
CUERPO_1
 10
0.0232
 20
0.2904
 30
0.5158
 70
192
 0
VERTEX
 8
CUERPO_1
 10
0.0669
 20
0.2904
 30
0.5158
 70
192
 0
VERTEX
 8
CUERPO_1
 10
0.0669
 20
0.2904
 30
0.5158
 70
192
 0
VERTEX
 8
CUERPO_1
 10
0.0232
 20
0.2907
 30
0.5125
 70
192
 0
VERTEX
 8
CUERPO_1
 10
0.0232
 20
0.2907
 30
0.5125
 70
192
 0
VERTEX
 8
CUERPO_1
 10
0.0669
 20
0.2907
 30
0.5125
 70
192
 0
VERTEX
 8
CUERPO_1
 10
0.0669
 20
0.2907
 30
0.5125
 70
192
 0
VERTEX
 8
CUERPO_1
 10
0.0232
 20
0.2916
 30
0.5094
 70
192
 0
VERTEX
 8
CUERPO_1
 10
0.0232
 20
0.2916
 30
0.5094
 70
192
 0
VERTEX
 8
CUERPO_1
 10
0.0669
 20
0.2916
 30
0.5094
 70
192
 0
VERTEX
 8
CUERPO_1
 10
0.0669
 20
0.2916
 30
0.5094
 70
192
 0
VERTEX
 8
CUERPO_1
 10
0.0232
 20
0.293
 30
0.5064
 70
192
 0
VERTEX
 8
CUERPO_1
 10
0.0232
 20
0.293
 30
0.5064
 70
192
 0
VERTEX
 8
CUERPO_1
 10
0.0669
 20
0.293
 30
0.5064
 70
192
 0
VERTEX
 8
CUERPO_1
 10
0.0669
 20
0.293
 30
0.5064
 70
192
 0
VERTEX
 8
CUERPO_1
 10
0.0232
 20
0.2948
 30
0.5037
 70
192
 0
VERTEX
 8
CUERPO_1
 10
0.0232
 20
0.2948
 30
0.5037
 70
192
 0
VERTEX
 8
CUERPO_1
 10
0.0669
 20
0.2948
 30
0.5037
 70
192
 0
VERTEX
 8
CUERPO_1
 10
0.0669
 20
0.2948
 30
0.5037
 70
192
 0
VERTEX
 8
CUERPO_1
 10
0.0232
 20
0.2971
 30
0.5014
 70
192
 0
VERTEX
 8
CUERPO_1
 10
0.0232
 20
0.2971
 30
0.5014
 70
192
 0
VERTEX
 8
CUERPO_1
 10
0.0669
 20
0.2971
 30
0.5014
 70
192
 0
VERTEX
 8
CUERPO_1
 10
0.0669
 20
0.2971
 30
0.5014
 70
192
 0
VERTEX
 8
CUERPO_1
 10
0.0232
 20
0.2998
 30
0.4995
 70
192
 0
VERTEX
 8
CUERPO_1
 10
0.0232
 20
0.2998
 30
0.4995
 70
192
 0
VERTEX
 8
CUERPO_1
 10
0.0669
 20
0.2998
 30
0.4995
 70
192
 0
VERTEX
 8
CUERPO_1
 10
0.0669
 20
0.2998
 30
0.4995
 70
192
 0
VERTEX
 8
CUERPO_1
 10
0.0232
 20
0.3028
 30
0.4981
 70
192
 0
VERTEX
 8
CUERPO_1
 10
0.0232
 20
0.3028
 30
0.4981
 70
192
 0
VERTEX
 8
CUERPO_1
 10
0.0669
 20
0.3028
 30
0.4981
 70
192
 0
VERTEX
 8
CUERPO_1
 10
0.0669
 20
0.3028
 30
0.4981
 70
192
 0
VERTEX
 8
CUERPO_1
 10
0.0232
 20
0.306
 30
0.4973
 70
192
 0
VERTEX
 8
CUERPO_1
 10
0.0232
 20
0.306
 30
0.4973
 70
192
 0
VERTEX
 8
CUERPO_1
 10
0.0669
 20
0.306
 30
0.4973
 70
192
 0
VERTEX
 8
CUERPO_1
 10
0.0669
 20
0.306
 30
0.4973
 70
192
 0
VERTEX
 8
CUERPO_1
 10
-0.0189
 20
-0.9564
 30
0.4977
 70
192
 0
VERTEX
 8
CUERPO_1
 10
-0.0189
 20
-0.9564
 30
0.5137
 70
192
 0
VERTEX
 8
CUERPO_1
 10
-0.0093
 20
-0.9564
 30
0.5297
 70
192
 0
VERTEX
 8
CUERPO_1
 10
-0.0093
 20
-0.9564
 30
0.5457
 70
192
 0
VERTEX
 8
CUERPO_1
 10
-0.0093
 20
-0.9564
 30
0.5669
 70
192
 0
VERTEX
 8
CUERPO_1
 10
0.0189
 20
-0.9564
 30
0.4977
 70
192
 0
VERTEX
 8
CUERPO_1
 10
0.0189
 20
-0.9564
 30
0.5137
 70
192
 0
VERTEX
 8
CUERPO_1
 10
0.0093
 20
-0.9564
 30
0.5297
 70
192
 0
VERTEX
 8
CUERPO_1
 10
0.0093
 20
-0.9564
 30
0.5457
 70
192
 0
VERTEX
 8
CUERPO_1
 10
0.0093
 20
-0.9564
 30
0.5669
 70
192
 0
VERTEX
 8
CUERPO_1
 10
0.0189
 20
-0.9064
 30
0.4977
 70
192
 0
VERTEX
 8
CUERPO_1
 10
0.0189
 20
-0.9064
 30
0.5137
 70
192
 0
VERTEX
 8
CUERPO_1
 10
0.0093
 20
-0.9064
 30
0.5297
 70
192
 0
VERTEX
 8
CUERPO_1
 10
0.0093
 20
-0.9064
 30
0.5457
 70
192
 0
VERTEX
 8
CUERPO_1
 10
0.0093
 20
-0.9289
 30
0.5669
 70
192
 0
VERTEX
 8
CUERPO_1
 10
0.0189
 20
-0.8563
 30
0.4977
 70
192
 0
VERTEX
 8
CUERPO_1
 10
0.0189
 20
-0.8563
 30
0.5137
 70
192
 0
VERTEX
 8
CUERPO_1
 10
0.0093
 20
-0.8563
 30
0.5297
 70
192
 0
VERTEX
 8
CUERPO_1
 10
0.0093
 20
-0.8932
 30
0.5457
 70
192
 0
VERTEX
 8
CUERPO_1
 10
0.0093
 20
-0.9125
 30
0.5616
 70
192
 0
VERTEX
 8
CUERPO_1
 10
0.0189
 20
-0.7879
 30
0.4977
 70
192
 0
VERTEX
 8
CUERPO_1
 10
0.0189
 20
-0.8172
 30
0.5137
 70
192
 0
VERTEX
 8
CUERPO_1
 10
0.0093
 20
-0.85
 30
0.5297
 70
192
 0
VERTEX
 8
CUERPO_1
 10
0.0093
 20
-0.8786
 30
0.5457
 70
192
 0
VERTEX
 8
CUERPO_1
 10
0.0093
 20
-0.8892
 30
0.5508
 70
192
 0
VERTEX
 8
CUERPO_1
 10
-0.0189
 20
-0.7879
 30
0.4977
 70
192
 0
VERTEX
 8
CUERPO_1
 10
-0.0189
 20
-0.8172
 30
0.5137
 70
192
 0
VERTEX
 8
CUERPO_1
 10
-0.0093
 20
-0.85
 30
0.5297
 70
192
 0
VERTEX
 8
CUERPO_1
 10
-0.0093
 20
-0.8786
 30
0.5457
 70
192
 0
VERTEX
 8
CUERPO_1
 10
-0.0093
 20
-0.8892
 30
0.5508
 70
192
 0
VERTEX
 8
CUERPO_1
 10
-0.0189
 20
-0.8563
 30
0.4977
 70
192
 0
VERTEX
 8
CUERPO_1
 10
-0.0189
 20
-0.8563
 30
0.5137
 70
192
 0
VERTEX
 8
CUERPO_1
 10
-0.0093
 20
-0.8563
 30
0.5297
 70
192
 0
VERTEX
 8
CUERPO_1
 10
-0.0093
 20
-0.8932
 30
0.5457
 70
192
 0
VERTEX
 8
CUERPO_1
 10
-0.0093
 20
-0.9125
 30
0.5616
 70
192
 0
VERTEX
 8
CUERPO_1
 10
-0.0189
 20
-0.9064
 30
0.4977
 70
192
 0
VERTEX
 8
CUERPO_1
 10
-0.0189
 20
-0.9064
 30
0.5137
 70
192
 0
VERTEX
 8
CUERPO_1
 10
-0.0093
 20
-0.9064
 30
0.5297
 70
192
 0
VERTEX
 8
CUERPO_1
 10
-0.0093
 20
-0.9064
 30
0.5457
 70
192
 0
VERTEX
 8
CUERPO_1
 10
-0.0093
 20
-0.9289
 30
0.5669
 70
192
 0
VERTEX
 8
CUERPO_1
 10
-0.0352
 20
-0.6398
 30
0.2528
 70
192
 0
VERTEX
 8
CUERPO_1
 10
-0.0352
 20
-0.6632
 30
0.298
 70
192
 0
VERTEX
 8
CUERPO_1
 10
-0.0352
 20
-0.7173
 30
0.3431
 70
192
 0
VERTEX
 8
CUERPO_1
 10
0.0352
 20
-0.6398
 30
0.2528
 70
192
 0
VERTEX
 8
CUERPO_1
 10
0.0352
 20
-0.6632
 30
0.298
 70
192
 0
VERTEX
 8
CUERPO_1
 10
0.0352
 20
-0.7173
 30
0.3431
 70
192
 0
VERTEX
 8
CUERPO_1
 10
0.0352
 20
-0.1475
 30
0.2528
 70
192
 0
VERTEX
 8
CUERPO_1
 10
0.0352
 20
-0.1475
 30
0.298
 70
192
 0
VERTEX
 8
CUERPO_1
 10
0.0352
 20
-0.1475
 30
0.3431
 70
192
 0
VERTEX
 8
CUERPO_1
 10
-0.0352
 20
-0.1475
 30
0.2528
 70
192
 0
VERTEX
 8
CUERPO_1
 10
-0.0352
 20
-0.1475
 30
0.298
 70
192
 0
VERTEX
 8
CUERPO_1
 10
-0.0352
 20
-0.1475
 30
0.3431
 70
192
 0
VERTEX
 8
CUERPO_1
 10
0.0655
 20
-0.1553
 30
0.4168
 70
192
 0
VERTEX
 8
CUERPO_1
 10
0.0853
 20
-0.1553
 30
0.4168
 70
192
 0
VERTEX
 8
CUERPO_1
 10
0.0853
 20
-0.1553
 30
0.4168
 70
192
 0
VERTEX
 8
CUERPO_1
 10
0.0853
 20
-0.9743
 30
0.4168
 70
192
 0
VERTEX
 8
CUERPO_1
 10
0.0853
 20
-0.9743
 30
0.4168
 70
192
 0
VERTEX
 8
CUERPO_1
 10
0.0655
 20
-0.9743
 30
0.4168
 70
192
 0
VERTEX
 8
CUERPO_1
 10
0.0655
 20
-0.9743
 30
0.4168
 70
192
 0
VERTEX
 8
CUERPO_1
 10
0.0655
 20
-0.1553
 30
0.4168
 70
192
 0
VERTEX
 8
CUERPO_1
 10
0.0645
 20
-0.1553
 30
0.4282
 70
192
 0
VERTEX
 8
CUERPO_1
 10
0.084
 20
-0.1553
 30
0.4316
 70
192
 0
VERTEX
 8
CUERPO_1
 10
0.084
 20
-0.1553
 30
0.4316
 70
192
 0
VERTEX
 8
CUERPO_1
 10
0.084
 20
-0.9743
 30
0.4316
 70
192
 0
VERTEX
 8
CUERPO_1
 10
0.084
 20
-0.9743
 30
0.4316
 70
192
 0
VERTEX
 8
CUERPO_1
 10
0.0645
 20
-0.9743
 30
0.4282
 70
192
 0
VERTEX
 8
CUERPO_1
 10
0.0645
 20
-0.9743
 30
0.4282
 70
192
 0
VERTEX
 8
CUERPO_1
 10
0.0645
 20
-0.1553
 30
0.4282
 70
192
 0
VERTEX
 8
CUERPO_1
 10
0.0615
 20
-0.1553
 30
0.4392
 70
192
 0
VERTEX
 8
CUERPO_1
 10
0.0801
 20
-0.1553
 30
0.446
 70
192
 0
VERTEX
 8
CUERPO_1
 10
0.0801
 20
-0.1553
 30
0.446
 70
192
 0
VERTEX
 8
CUERPO_1
 10
0.0801
 20
-0.9743
 30
0.446
 70
192
 0
VERTEX
 8
CUERPO_1
 10
0.0801
 20
-0.9743
 30
0.446
 70
192
 0
VERTEX
 8
CUERPO_1
 10
0.0615
 20
-0.9743
 30
0.4392
 70
192
 0
VERTEX
 8
CUERPO_1
 10
0.0615
 20
-0.9743
 30
0.4392
 70
192
 0
VERTEX
 8
CUERPO_1
 10
0.0615
 20
-0.1553
 30
0.4392
 70
192
 0
VERTEX
 8
CUERPO_1
 10
0.0567
 20
-0.1553
 30
0.4496
 70
192
 0
VERTEX
 8
CUERPO_1
 10
0.0739
 20
-0.1553
 30
0.4595
 70
192
 0
VERTEX
 8
CUERPO_1
 10
0.0739
 20
-0.1553
 30
0.4595
 70
192
 0
VERTEX
 8
CUERPO_1
 10
0.0739
 20
-0.9743
 30
0.4595
 70
192
 0
VERTEX
 8
CUERPO_1
 10
0.0739
 20
-0.9743
 30
0.4595
 70
192
 0
VERTEX
 8
CUERPO_1
 10
0.0567
 20
-0.9743
 30
0.4496
 70
192
 0
VERTEX
 8
CUERPO_1
 10
0.0567
 20
-0.9743
 30
0.4496
 70
192
 0
VERTEX
 8
CUERPO_1
 10
0.0567
 20
-0.1553
 30
0.4496
 70
192
 0
VERTEX
 8
CUERPO_1
 10
0.0502
 20
-0.1553
 30
0.4589
 70
192
 0
VERTEX
 8
CUERPO_1
 10
0.0653
 20
-0.1553
 30
0.4716
 70
192
 0
VERTEX
 8
CUERPO_1
 10
0.0653
 20
-0.1553
 30
0.4716
 70
192
 0
VERTEX
 8
CUERPO_1
 10
0.0653
 20
-0.9743
 30
0.4716
 70
192
 0
VERTEX
 8
CUERPO_1
 10
0.0653
 20
-0.9743
 30
0.4716
 70
192
 0
VERTEX
 8
CUERPO_1
 10
0.0502
 20
-0.9743
 30
0.4589
 70
192
 0
VERTEX
 8
CUERPO_1
 10
0.0502
 20
-0.9743
 30
0.4589
 70
192
 0
VERTEX
 8
CUERPO_1
 10
0.0502
 20
-0.1553
 30
0.4589
 70
192
 0
VERTEX
 8
CUERPO_1
 10
0.0421
 20
-0.1553
 30
0.467
 70
192
 0
VERTEX
 8
CUERPO_1
 10
0.0548
 20
-0.1553
 30
0.4822
 70
192
 0
VERTEX
 8
CUERPO_1
 10
0.0548
 20
-0.1553
 30
0.4822
 70
192
 0
VERTEX
 8
CUERPO_1
 10
0.0548
 20
-0.9743
 30
0.4822
 70
192
 0
VERTEX
 8
CUERPO_1
 10
0.0548
 20
-0.9743
 30
0.4822
 70
192
 0
VERTEX
 8
CUERPO_1
 10
0.0421
 20
-0.9743
 30
0.467
 70
192
 0
VERTEX
 8
CUERPO_1
 10
0.0421
 20
-0.9743
 30
0.467
 70
192
 0
VERTEX
 8
CUERPO_1
 10
0.0421
 20
-0.1553
 30
0.467
 70
192
 0
VERTEX
 8
CUERPO_1
 10
0.0327
 20
-0.1553
 30
0.4735
 70
192
 0
VERTEX
 8
CUERPO_1
 10
0.0426
 20
-0.1553
 30
0.4907
 70
192
 0
VERTEX
 8
CUERPO_1
 10
0.0426
 20
-0.1553
 30
0.4907
 70
192
 0
VERTEX
 8
CUERPO_1
 10
0.0426
 20
-0.9743
 30
0.4907
 70
192
 0
VERTEX
 8
CUERPO_1
 10
0.0426
 20
-0.9743
 30
0.4907
 70
192
 0
VERTEX
 8
CUERPO_1
 10
0.0327
 20
-0.9743
 30
0.4735
 70
192
 0
VERTEX
 8
CUERPO_1
 10
0.0327
 20
-0.9743
 30
0.4735
 70
192
 0
VERTEX
 8
CUERPO_1
 10
0.0327
 20
-0.1553
 30
0.4735
 70
192
 0
VERTEX
 8
CUERPO_1
 10
0.0224
 20
-0.1553
 30
0.4784
 70
192
 0
VERTEX
 8
CUERPO_1
 10
0.0292
 20
-0.1553
 30
0.497
 70
192
 0
VERTEX
 8
CUERPO_1
 10
0.0292
 20
-0.1553
 30
0.497
 70
192
 0
VERTEX
 8
CUERPO_1
 10
0.0292
 20
-0.9743
 30
0.497
 70
192
 0
VERTEX
 8
CUERPO_1
 10
0.0292
 20
-0.9743
 30
0.497
 70
192
 0
VERTEX
 8
CUERPO_1
 10
0.0224
 20
-0.9743
 30
0.4784
 70
192
 0
VERTEX
 8
CUERPO_1
 10
0.0224
 20
-0.9743
 30
0.4784
 70
192
 0
VERTEX
 8
CUERPO_1
 10
0.0224
 20
-0.1553
 30
0.4784
 70
192
 0
VERTEX
 8
CUERPO_1
 10
0.0114
 20
-0.1553
 30
0.4813
 70
192
 0
VERTEX
 8
CUERPO_1
 10
0.0148
 20
-0.1553
 30
0.5008
 70
192
 0
VERTEX
 8
CUERPO_1
 10
0.0148
 20
-0.1553
 30
0.5008
 70
192
 0
VERTEX
 8
CUERPO_1
 10
0.0148
 20
-0.9743
 30
0.5008
 70
192
 0
VERTEX
 8
CUERPO_1
 10
0.0148
 20
-0.9743
 30
0.5008
 70
192
 0
VERTEX
 8
CUERPO_1
 10
0.0114
 20
-0.9743
 30
0.4813
 70
192
 0
VERTEX
 8
CUERPO_1
 10
0.0114
 20
-0.9743
 30
0.4813
 70
192
 0
VERTEX
 8
CUERPO_1
 10
0.0114
 20
-0.1553
 30
0.4813
 70
192
 0
VERTEX
 8
CUERPO_1
 10
0
 20
-0.1553
 30
0.4823
 70
192
 0
VERTEX
 8
CUERPO_1
 10
0
 20
-0.1553
 30
0.5021
 70
192
 0
VERTEX
 8
CUERPO_1
 10
0
 20
-0.1553
 30
0.5021
 70
192
 0
VERTEX
 8
CUERPO_1
 10
0
 20
-0.9743
 30
0.5021
 70
192
 0
VERTEX
 8
CUERPO_1
 10
0
 20
-0.9743
 30
0.5021
 70
192
 0
VERTEX
 8
CUERPO_1
 10
0
 20
-0.9743
 30
0.4823
 70
192
 0
VERTEX
 8
CUERPO_1
 10
0
 20
-0.9743
 30
0.4823
 70
192
 0
VERTEX
 8
CUERPO_1
 10
0
 20
-0.1553
 30
0.4823
 70
192
 0
VERTEX
 8
CUERPO_1
 10
-0.0114
 20
-0.1553
 30
0.4813
 70
192
 0
VERTEX
 8
CUERPO_1
 10
-0.0148
 20
-0.1553
 30
0.5008
 70
192
 0
VERTEX
 8
CUERPO_1
 10
-0.0148
 20
-0.1553
 30
0.5008
 70
192
 0
VERTEX
 8
CUERPO_1
 10
-0.0148
 20
-0.9743
 30
0.5008
 70
192
 0
VERTEX
 8
CUERPO_1
 10
-0.0148
 20
-0.9743
 30
0.5008
 70
192
 0
VERTEX
 8
CUERPO_1
 10
-0.0114
 20
-0.9743
 30
0.4813
 70
192
 0
VERTEX
 8
CUERPO_1
 10
-0.0114
 20
-0.9743
 30
0.4813
 70
192
 0
VERTEX
 8
CUERPO_1
 10
-0.0114
 20
-0.1553
 30
0.4813
 70
192
 0
VERTEX
 8
CUERPO_1
 10
-0.0224
 20
-0.1553
 30
0.4784
 70
192
 0
VERTEX
 8
CUERPO_1
 10
-0.0292
 20
-0.1553
 30
0.497
 70
192
 0
VERTEX
 8
CUERPO_1
 10
-0.0292
 20
-0.1553
 30
0.497
 70
192
 0
VERTEX
 8
CUERPO_1
 10
-0.0292
 20
-0.9743
 30
0.497
 70
192
 0
VERTEX
 8
CUERPO_1
 10
-0.0292
 20
-0.9743
 30
0.497
 70
192
 0
VERTEX
 8
CUERPO_1
 10
-0.0224
 20
-0.9743
 30
0.4784
 70
192
 0
VERTEX
 8
CUERPO_1
 10
-0.0224
 20
-0.9743
 30
0.4784
 70
192
 0
VERTEX
 8
CUERPO_1
 10
-0.0224
 20
-0.1553
 30
0.4784
 70
192
 0
VERTEX
 8
CUERPO_1
 10
-0.0327
 20
-0.1553
 30
0.4735
 70
192
 0
VERTEX
 8
CUERPO_1
 10
-0.0426
 20
-0.1553
 30
0.4907
 70
192
 0
VERTEX
 8
CUERPO_1
 10
-0.0426
 20
-0.1553
 30
0.4907
 70
192
 0
VERTEX
 8
CUERPO_1
 10
-0.0426
 20
-0.9743
 30
0.4907
 70
192
 0
VERTEX
 8
CUERPO_1
 10
-0.0426
 20
-0.9743
 30
0.4907
 70
192
 0
VERTEX
 8
CUERPO_1
 10
-0.0327
 20
-0.9743
 30
0.4735
 70
192
 0
VERTEX
 8
CUERPO_1
 10
-0.0327
 20
-0.9743
 30
0.4735
 70
192
 0
VERTEX
 8
CUERPO_1
 10
-0.0327
 20
-0.1553
 30
0.4735
 70
192
 0
VERTEX
 8
CUERPO_1
 10
-0.0421
 20
-0.1553
 30
0.467
 70
192
 0
VERTEX
 8
CUERPO_1
 10
-0.0548
 20
-0.1553
 30
0.4822
 70
192
 0
VERTEX
 8
CUERPO_1
 10
-0.0548
 20
-0.1553
 30
0.4822
 70
192
 0
VERTEX
 8
CUERPO_1
 10
-0.0548
 20
-0.9743
 30
0.4822
 70
192
 0
VERTEX
 8
CUERPO_1
 10
-0.0548
 20
-0.9743
 30
0.4822
 70
192
 0
VERTEX
 8
CUERPO_1
 10
-0.0421
 20
-0.9743
 30
0.467
 70
192
 0
VERTEX
 8
CUERPO_1
 10
-0.0421
 20
-0.9743
 30
0.467
 70
192
 0
VERTEX
 8
CUERPO_1
 10
-0.0421
 20
-0.1553
 30
0.467
 70
192
 0
VERTEX
 8
CUERPO_1
 10
-0.0502
 20
-0.1553
 30
0.4589
 70
192
 0
VERTEX
 8
CUERPO_1
 10
-0.0653
 20
-0.1553
 30
0.4716
 70
192
 0
VERTEX
 8
CUERPO_1
 10
-0.0653
 20
-0.1553
 30
0.4716
 70
192
 0
VERTEX
 8
CUERPO_1
 10
-0.0653
 20
-0.9743
 30
0.4716
 70
192
 0
VERTEX
 8
CUERPO_1
 10
-0.0653
 20
-0.9743
 30
0.4716
 70
192
 0
VERTEX
 8
CUERPO_1
 10
-0.0502
 20
-0.9743
 30
0.4589
 70
192
 0
VERTEX
 8
CUERPO_1
 10
-0.0502
 20
-0.9743
 30
0.4589
 70
192
 0
VERTEX
 8
CUERPO_1
 10
-0.0502
 20
-0.1553
 30
0.4589
 70
192
 0
VERTEX
 8
CUERPO_1
 10
-0.0567
 20
-0.1553
 30
0.4496
 70
192
 0
VERTEX
 8
CUERPO_1
 10
-0.0739
 20
-0.1553
 30
0.4595
 70
192
 0
VERTEX
 8
CUERPO_1
 10
-0.0739
 20
-0.1553
 30
0.4595
 70
192
 0
VERTEX
 8
CUERPO_1
 10
-0.0739
 20
-0.9743
 30
0.4595
 70
192
 0
VERTEX
 8
CUERPO_1
 10
-0.0739
 20
-0.9743
 30
0.4595
 70
192
 0
VERTEX
 8
CUERPO_1
 10
-0.0567
 20
-0.9743
 30
0.4496
 70
192
 0
VERTEX
 8
CUERPO_1
 10
-0.0567
 20
-0.9743
 30
0.4496
 70
192
 0
VERTEX
 8
CUERPO_1
 10
-0.0567
 20
-0.1553
 30
0.4496
 70
192
 0
VERTEX
 8
CUERPO_1
 10
-0.0615
 20
-0.1553
 30
0.4392
 70
192
 0
VERTEX
 8
CUERPO_1
 10
-0.0801
 20
-0.1553
 30
0.446
 70
192
 0
VERTEX
 8
CUERPO_1
 10
-0.0801
 20
-0.1553
 30
0.446
 70
192
 0
VERTEX
 8
CUERPO_1
 10
-0.0801
 20
-0.9743
 30
0.446
 70
192
 0
VERTEX
 8
CUERPO_1
 10
-0.0801
 20
-0.9743
 30
0.446
 70
192
 0
VERTEX
 8
CUERPO_1
 10
-0.0615
 20
-0.9743
 30
0.4392
 70
192
 0
VERTEX
 8
CUERPO_1
 10
-0.0615
 20
-0.9743
 30
0.4392
 70
192
 0
VERTEX
 8
CUERPO_1
 10
-0.0615
 20
-0.1553
 30
0.4392
 70
192
 0
VERTEX
 8
CUERPO_1
 10
-0.0645
 20
-0.1553
 30
0.4282
 70
192
 0
VERTEX
 8
CUERPO_1
 10
-0.084
 20
-0.1553
 30
0.4316
 70
192
 0
VERTEX
 8
CUERPO_1
 10
-0.084
 20
-0.1553
 30
0.4316
 70
192
 0
VERTEX
 8
CUERPO_1
 10
-0.084
 20
-0.9743
 30
0.4316
 70
192
 0
VERTEX
 8
CUERPO_1
 10
-0.084
 20
-0.9743
 30
0.4316
 70
192
 0
VERTEX
 8
CUERPO_1
 10
-0.0645
 20
-0.9743
 30
0.4282
 70
192
 0
VERTEX
 8
CUERPO_1
 10
-0.0645
 20
-0.9743
 30
0.4282
 70
192
 0
VERTEX
 8
CUERPO_1
 10
-0.0645
 20
-0.1553
 30
0.4282
 70
192
 0
VERTEX
 8
CUERPO_1
 10
-0.0655
 20
-0.1553
 30
0.4168
 70
192
 0
VERTEX
 8
CUERPO_1
 10
-0.0853
 20
-0.1553
 30
0.4168
 70
192
 0
VERTEX
 8
CUERPO_1
 10
-0.0853
 20
-0.1553
 30
0.4168
 70
192
 0
VERTEX
 8
CUERPO_1
 10
-0.0853
 20
-0.9743
 30
0.4168
 70
192
 0
VERTEX
 8
CUERPO_1
 10
-0.0853
 20
-0.9743
 30
0.4168
 70
192
 0
VERTEX
 8
CUERPO_1
 10
-0.0655
 20
-0.9743
 30
0.4168
 70
192
 0
VERTEX
 8
CUERPO_1
 10
-0.0655
 20
-0.9743
 30
0.4168
 70
192
 0
VERTEX
 8
CUERPO_1
 10
-0.0655
 20
-0.1553
 30
0.4168
 70
192
 0
VERTEX
 8
CUERPO_1
 10
-0.0645
 20
-0.1553
 30
0.4055
 70
192
 0
VERTEX
 8
CUERPO_1
 10
-0.084
 20
-0.1553
 30
0.402
 70
192
 0
VERTEX
 8
CUERPO_1
 10
-0.084
 20
-0.1553
 30
0.402
 70
192
 0
VERTEX
 8
CUERPO_1
 10
-0.084
 20
-0.9743
 30
0.402
 70
192
 0
VERTEX
 8
CUERPO_1
 10
-0.084
 20
-0.9743
 30
0.402
 70
192
 0
VERTEX
 8
CUERPO_1
 10
-0.0645
 20
-0.9743
 30
0.4055
 70
192
 0
VERTEX
 8
CUERPO_1
 10
-0.0645
 20
-0.9743
 30
0.4055
 70
192
 0
VERTEX
 8
CUERPO_1
 10
-0.0645
 20
-0.1553
 30
0.4055
 70
192
 0
VERTEX
 8
CUERPO_1
 10
-0.0615
 20
-0.1553
 30
0.3944
 70
192
 0
VERTEX
 8
CUERPO_1
 10
-0.0801
 20
-0.1553
 30
0.3877
 70
192
 0
VERTEX
 8
CUERPO_1
 10
-0.0801
 20
-0.1553
 30
0.3877
 70
192
 0
VERTEX
 8
CUERPO_1
 10
-0.0801
 20
-0.9743
 30
0.3877
 70
192
 0
VERTEX
 8
CUERPO_1
 10
-0.0801
 20
-0.9743
 30
0.3877
 70
192
 0
VERTEX
 8
CUERPO_1
 10
-0.0615
 20
-0.9743
 30
0.3944
 70
192
 0
VERTEX
 8
CUERPO_1
 10
-0.0615
 20
-0.9743
 30
0.3944
 70
192
 0
VERTEX
 8
CUERPO_1
 10
-0.0615
 20
-0.1553
 30
0.3944
 70
192
 0
VERTEX
 8
CUERPO_1
 10
-0.0567
 20
-0.1553
 30
0.3841
 70
192
 0
VERTEX
 8
CUERPO_1
 10
-0.0739
 20
-0.1553
 30
0.3742
 70
192
 0
VERTEX
 8
CUERPO_1
 10
-0.0739
 20
-0.1553
 30
0.3742
 70
192
 0
VERTEX
 8
CUERPO_1
 10
-0.0739
 20
-0.9743
 30
0.3742
 70
192
 0
VERTEX
 8
CUERPO_1
 10
-0.0739
 20
-0.9743
 30
0.3742
 70
192
 0
VERTEX
 8
CUERPO_1
 10
-0.0567
 20
-0.9743
 30
0.3841
 70
192
 0
VERTEX
 8
CUERPO_1
 10
-0.0567
 20
-0.9743
 30
0.3841
 70
192
 0
VERTEX
 8
CUERPO_1
 10
-0.0567
 20
-0.1553
 30
0.3841
 70
192
 0
VERTEX
 8
CUERPO_1
 10
-0.0502
 20
-0.1553
 30
0.3747
 70
192
 0
VERTEX
 8
CUERPO_1
 10
-0.0653
 20
-0.1553
 30
0.362
 70
192
 0
VERTEX
 8
CUERPO_1
 10
-0.0653
 20
-0.1553
 30
0.362
 70
192
 0
VERTEX
 8
CUERPO_1
 10
-0.0653
 20
-0.9743
 30
0.362
 70
192
 0
VERTEX
 8
CUERPO_1
 10
-0.0653
 20
-0.9743
 30
0.362
 70
192
 0
VERTEX
 8
CUERPO_1
 10
-0.0502
 20
-0.9743
 30
0.3747
 70
192
 0
VERTEX
 8
CUERPO_1
 10
-0.0502
 20
-0.9743
 30
0.3747
 70
192
 0
VERTEX
 8
CUERPO_1
 10
-0.0502
 20
-0.1553
 30
0.3747
 70
192
 0
VERTEX
 8
CUERPO_1
 10
-0.0421
 20
-0.1553
 30
0.3667
 70
192
 0
VERTEX
 8
CUERPO_1
 10
-0.0548
 20
-0.1553
 30
0.3515
 70
192
 0
VERTEX
 8
CUERPO_1
 10
-0.0548
 20
-0.1553
 30
0.3515
 70
192
 0
VERTEX
 8
CUERPO_1
 10
-0.0548
 20
-0.9743
 30
0.3515
 70
192
 0
VERTEX
 8
CUERPO_1
 10
-0.0548
 20
-0.9743
 30
0.3515
 70
192
 0
VERTEX
 8
CUERPO_1
 10
-0.0421
 20
-0.9743
 30
0.3667
 70
192
 0
VERTEX
 8
CUERPO_1
 10
-0.0421
 20
-0.9743
 30
0.3667
 70
192
 0
VERTEX
 8
CUERPO_1
 10
-0.0421
 20
-0.1553
 30
0.3667
 70
192
 0
VERTEX
 8
CUERPO_1
 10
-0.0327
 20
-0.1553
 30
0.3601
 70
192
 0
VERTEX
 8
CUERPO_1
 10
-0.0426
 20
-0.1553
 30
0.343
 70
192
 0
VERTEX
 8
CUERPO_1
 10
-0.0426
 20
-0.1553
 30
0.343
 70
192
 0
VERTEX
 8
CUERPO_1
 10
-0.0426
 20
-0.9743
 30
0.343
 70
192
 0
VERTEX
 8
CUERPO_1
 10
-0.0426
 20
-0.9743
 30
0.343
 70
192
 0
VERTEX
 8
CUERPO_1
 10
-0.0327
 20
-0.9743
 30
0.3601
 70
192
 0
VERTEX
 8
CUERPO_1
 10
-0.0327
 20
-0.9743
 30
0.3601
 70
192
 0
VERTEX
 8
CUERPO_1
 10
-0.0327
 20
-0.1553
 30
0.3601
 70
192
 0
VERTEX
 8
CUERPO_1
 10
-0.0224
 20
-0.1553
 30
0.3553
 70
192
 0
VERTEX
 8
CUERPO_1
 10
-0.0292
 20
-0.1553
 30
0.3367
 70
192
 0
VERTEX
 8
CUERPO_1
 10
-0.0292
 20
-0.1553
 30
0.3367
 70
192
 0
VERTEX
 8
CUERPO_1
 10
-0.0292
 20
-0.9743
 30
0.3367
 70
192
 0
VERTEX
 8
CUERPO_1
 10
-0.0292
 20
-0.9743
 30
0.3367
 70
192
 0
VERTEX
 8
CUERPO_1
 10
-0.0224
 20
-0.9743
 30
0.3553
 70
192
 0
VERTEX
 8
CUERPO_1
 10
-0.0224
 20
-0.9743
 30
0.3553
 70
192
 0
VERTEX
 8
CUERPO_1
 10
-0.0224
 20
-0.1553
 30
0.3553
 70
192
 0
VERTEX
 8
CUERPO_1
 10
-0.0114
 20
-0.1553
 30
0.3523
 70
192
 0
VERTEX
 8
CUERPO_1
 10
-0.0148
 20
-0.1553
 30
0.3328
 70
192
 0
VERTEX
 8
CUERPO_1
 10
-0.0148
 20
-0.1553
 30
0.3328
 70
192
 0
VERTEX
 8
CUERPO_1
 10
-0.0148
 20
-0.9743
 30
0.3328
 70
192
 0
VERTEX
 8
CUERPO_1
 10
-0.0148
 20
-0.9743
 30
0.3328
 70
192
 0
VERTEX
 8
CUERPO_1
 10
-0.0114
 20
-0.9743
 30
0.3523
 70
192
 0
VERTEX
 8
CUERPO_1
 10
-0.0114
 20
-0.9743
 30
0.3523
 70
192
 0
VERTEX
 8
CUERPO_1
 10
-0.0114
 20
-0.1553
 30
0.3523
 70
192
 0
VERTEX
 8
CUERPO_1
 10
0
 20
-0.1553
 30
0.3513
 70
192
 0
VERTEX
 8
CUERPO_1
 10
0
 20
-0.1553
 30
0.3315
 70
192
 0
VERTEX
 8
CUERPO_1
 10
0
 20
-0.1553
 30
0.3315
 70
192
 0
VERTEX
 8
CUERPO_1
 10
0
 20
-0.9743
 30
0.3315
 70
192
 0
VERTEX
 8
CUERPO_1
 10
0
 20
-0.9743
 30
0.3315
 70
192
 0
VERTEX
 8
CUERPO_1
 10
0
 20
-0.9743
 30
0.3513
 70
192
 0
VERTEX
 8
CUERPO_1
 10
0
 20
-0.9743
 30
0.3513
 70
192
 0
VERTEX
 8
CUERPO_1
 10
0
 20
-0.1553
 30
0.3513
 70
192
 0
VERTEX
 8
CUERPO_1
 10
0.0114
 20
-0.1553
 30
0.3523
 70
192
 0
VERTEX
 8
CUERPO_1
 10
0.0148
 20
-0.1553
 30
0.3328
 70
192
 0
VERTEX
 8
CUERPO_1
 10
0.0148
 20
-0.1553
 30
0.3328
 70
192
 0
VERTEX
 8
CUERPO_1
 10
0.0148
 20
-0.9743
 30
0.3328
 70
192
 0
VERTEX
 8
CUERPO_1
 10
0.0148
 20
-0.9743
 30
0.3328
 70
192
 0
VERTEX
 8
CUERPO_1
 10
0.0114
 20
-0.9743
 30
0.3523
 70
192
 0
VERTEX
 8
CUERPO_1
 10
0.0114
 20
-0.9743
 30
0.3523
 70
192
 0
VERTEX
 8
CUERPO_1
 10
0.0114
 20
-0.1553
 30
0.3523
 70
192
 0
VERTEX
 8
CUERPO_1
 10
0.0224
 20
-0.1553
 30
0.3553
 70
192
 0
VERTEX
 8
CUERPO_1
 10
0.0292
 20
-0.1553
 30
0.3367
 70
192
 0
VERTEX
 8
CUERPO_1
 10
0.0292
 20
-0.1553
 30
0.3367
 70
192
 0
VERTEX
 8
CUERPO_1
 10
0.0292
 20
-0.9743
 30
0.3367
 70
192
 0
VERTEX
 8
CUERPO_1
 10
0.0292
 20
-0.9743
 30
0.3367
 70
192
 0
VERTEX
 8
CUERPO_1
 10
0.0224
 20
-0.9743
 30
0.3553
 70
192
 0
VERTEX
 8
CUERPO_1
 10
0.0224
 20
-0.9743
 30
0.3553
 70
192
 0
VERTEX
 8
CUERPO_1
 10
0.0224
 20
-0.1553
 30
0.3553
 70
192
 0
VERTEX
 8
CUERPO_1
 10
0.0327
 20
-0.1553
 30
0.3601
 70
192
 0
VERTEX
 8
CUERPO_1
 10
0.0426
 20
-0.1553
 30
0.343
 70
192
 0
VERTEX
 8
CUERPO_1
 10
0.0426
 20
-0.1553
 30
0.343
 70
192
 0
VERTEX
 8
CUERPO_1
 10
0.0426
 20
-0.9743
 30
0.343
 70
192
 0
VERTEX
 8
CUERPO_1
 10
0.0426
 20
-0.9743
 30
0.343
 70
192
 0
VERTEX
 8
CUERPO_1
 10
0.0327
 20
-0.9743
 30
0.3601
 70
192
 0
VERTEX
 8
CUERPO_1
 10
0.0327
 20
-0.9743
 30
0.3601
 70
192
 0
VERTEX
 8
CUERPO_1
 10
0.0327
 20
-0.1553
 30
0.3601
 70
192
 0
VERTEX
 8
CUERPO_1
 10
0.0421
 20
-0.1553
 30
0.3667
 70
192
 0
VERTEX
 8
CUERPO_1
 10
0.0548
 20
-0.1553
 30
0.3515
 70
192
 0
VERTEX
 8
CUERPO_1
 10
0.0548
 20
-0.1553
 30
0.3515
 70
192
 0
VERTEX
 8
CUERPO_1
 10
0.0548
 20
-0.9743
 30
0.3515
 70
192
 0
VERTEX
 8
CUERPO_1
 10
0.0548
 20
-0.9743
 30
0.3515
 70
192
 0
VERTEX
 8
CUERPO_1
 10
0.0421
 20
-0.9743
 30
0.3667
 70
192
 0
VERTEX
 8
CUERPO_1
 10
0.0421
 20
-0.9743
 30
0.3667
 70
192
 0
VERTEX
 8
CUERPO_1
 10
0.0421
 20
-0.1553
 30
0.3667
 70
192
 0
VERTEX
 8
CUERPO_1
 10
0.0502
 20
-0.1553
 30
0.3747
 70
192
 0
VERTEX
 8
CUERPO_1
 10
0.0653
 20
-0.1553
 30
0.362
 70
192
 0
VERTEX
 8
CUERPO_1
 10
0.0653
 20
-0.1553
 30
0.362
 70
192
 0
VERTEX
 8
CUERPO_1
 10
0.0653
 20
-0.9743
 30
0.362
 70
192
 0
VERTEX
 8
CUERPO_1
 10
0.0653
 20
-0.9743
 30
0.362
 70
192
 0
VERTEX
 8
CUERPO_1
 10
0.0502
 20
-0.9743
 30
0.3747
 70
192
 0
VERTEX
 8
CUERPO_1
 10
0.0502
 20
-0.9743
 30
0.3747
 70
192
 0
VERTEX
 8
CUERPO_1
 10
0.0502
 20
-0.1553
 30
0.3747
 70
192
 0
VERTEX
 8
CUERPO_1
 10
0.0567
 20
-0.1553
 30
0.3841
 70
192
 0
VERTEX
 8
CUERPO_1
 10
0.0739
 20
-0.1553
 30
0.3742
 70
192
 0
VERTEX
 8
CUERPO_1
 10
0.0739
 20
-0.1553
 30
0.3742
 70
192
 0
VERTEX
 8
CUERPO_1
 10
0.0739
 20
-0.9743
 30
0.3742
 70
192
 0
VERTEX
 8
CUERPO_1
 10
0.0739
 20
-0.9743
 30
0.3742
 70
192
 0
VERTEX
 8
CUERPO_1
 10
0.0567
 20
-0.9743
 30
0.3841
 70
192
 0
VERTEX
 8
CUERPO_1
 10
0.0567
 20
-0.9743
 30
0.3841
 70
192
 0
VERTEX
 8
CUERPO_1
 10
0.0567
 20
-0.1553
 30
0.3841
 70
192
 0
VERTEX
 8
CUERPO_1
 10
0.0615
 20
-0.1553
 30
0.3944
 70
192
 0
VERTEX
 8
CUERPO_1
 10
0.0801
 20
-0.1553
 30
0.3877
 70
192
 0
VERTEX
 8
CUERPO_1
 10
0.0801
 20
-0.1553
 30
0.3877
 70
192
 0
VERTEX
 8
CUERPO_1
 10
0.0801
 20
-0.9743
 30
0.3877
 70
192
 0
VERTEX
 8
CUERPO_1
 10
0.0801
 20
-0.9743
 30
0.3877
 70
192
 0
VERTEX
 8
CUERPO_1
 10
0.0615
 20
-0.9743
 30
0.3944
 70
192
 0
VERTEX
 8
CUERPO_1
 10
0.0615
 20
-0.9743
 30
0.3944
 70
192
 0
VERTEX
 8
CUERPO_1
 10
0.0615
 20
-0.1553
 30
0.3944
 70
192
 0
VERTEX
 8
CUERPO_1
 10
0.0645
 20
-0.1553
 30
0.4055
 70
192
 0
VERTEX
 8
CUERPO_1
 10
0.084
 20
-0.1553
 30
0.402
 70
192
 0
VERTEX
 8
CUERPO_1
 10
0.084
 20
-0.1553
 30
0.402
 70
192
 0
VERTEX
 8
CUERPO_1
 10
0.084
 20
-0.9743
 30
0.402
 70
192
 0
VERTEX
 8
CUERPO_1
 10
0.084
 20
-0.9743
 30
0.402
 70
192
 0
VERTEX
 8
CUERPO_1
 10
0.0645
 20
-0.9743
 30
0.4055
 70
192
 0
VERTEX
 8
CUERPO_1
 10
0.0645
 20
-0.9743
 30
0.4055
 70
192
 0
VERTEX
 8
CUERPO_1
 10
0.0645
 20
-0.1553
 30
0.4055
 70
192
 0
VERTEX
 8
CUERPO_1
 10
0
 20
0.2813
 30
0.3186
 70
192
 0
VERTEX
 8
CUERPO_1
 10
0.0423
 20
0.2813
 30
0.3186
 70
192
 0
VERTEX
 8
CUERPO_1
 10
0.0423
 20
0.2813
 30
0.3186
 70
192
 0
VERTEX
 8
CUERPO_1
 10
0.0423
 20
0.18
 30
0.3186
 70
192
 0
VERTEX
 8
CUERPO_1
 10
0.0423
 20
0.18
 30
0.3186
 70
192
 0
VERTEX
 8
CUERPO_1
 10
0
 20
0.18
 30
0.3186
 70
192
 0
VERTEX
 8
CUERPO_1
 10
0
 20
0.18
 30
0.3186
 70
192
 0
VERTEX
 8
CUERPO_1
 10
0
 20
0.2813
 30
0.3186
 70
192
 0
VERTEX
 8
CUERPO_1
 10
0
 20
0.2813
 30
0.3186
 70
192
 0
VERTEX
 8
CUERPO_1
 10
0.0417
 20
0.2813
 30
0.326
 70
192
 0
VERTEX
 8
CUERPO_1
 10
0.0417
 20
0.2813
 30
0.326
 70
192
 0
VERTEX
 8
CUERPO_1
 10
0.0417
 20
0.18
 30
0.326
 70
192
 0
VERTEX
 8
CUERPO_1
 10
0.0417
 20
0.18
 30
0.326
 70
192
 0
VERTEX
 8
CUERPO_1
 10
0
 20
0.18
 30
0.3186
 70
192
 0
VERTEX
 8
CUERPO_1
 10
0
 20
0.18
 30
0.3186
 70
192
 0
VERTEX
 8
CUERPO_1
 10
0
 20
0.2813
 30
0.3186
 70
192
 0
VERTEX
 8
CUERPO_1
 10
0
 20
0.2813
 30
0.3186
 70
192
 0
VERTEX
 8
CUERPO_1
 10
0.0398
 20
0.2813
 30
0.3331
 70
192
 0
VERTEX
 8
CUERPO_1
 10
0.0398
 20
0.2813
 30
0.3331
 70
192
 0
VERTEX
 8
CUERPO_1
 10
0.0398
 20
0.18
 30
0.3331
 70
192
 0
VERTEX
 8
CUERPO_1
 10
0.0398
 20
0.18
 30
0.3331
 70
192
 0
VERTEX
 8
CUERPO_1
 10
0
 20
0.18
 30
0.3186
 70
192
 0
VERTEX
 8
CUERPO_1
 10
0
 20
0.18
 30
0.3186
 70
192
 0
VERTEX
 8
CUERPO_1
 10
0
 20
0.2813
 30
0.3186
 70
192
 0
VERTEX
 8
CUERPO_1
 10
0
 20
0.2813
 30
0.3186
 70
192
 0
VERTEX
 8
CUERPO_1
 10
0.0367
 20
0.2813
 30
0.3398
 70
192
 0
VERTEX
 8
CUERPO_1
 10
0.0367
 20
0.2813
 30
0.3398
 70
192
 0
VERTEX
 8
CUERPO_1
 10
0.0367
 20
0.18
 30
0.3398
 70
192
 0
VERTEX
 8
CUERPO_1
 10
0.0367
 20
0.18
 30
0.3398
 70
192
 0
VERTEX
 8
CUERPO_1
 10
0
 20
0.18
 30
0.3186
 70
192
 0
VERTEX
 8
CUERPO_1
 10
0
 20
0.18
 30
0.3186
 70
192
 0
VERTEX
 8
CUERPO_1
 10
0
 20
0.2813
 30
0.3186
 70
192
 0
VERTEX
 8
CUERPO_1
 10
0
 20
0.2813
 30
0.3186
 70
192
 0
VERTEX
 8
CUERPO_1
 10
0.0324
 20
0.2813
 30
0.3458
 70
192
 0
VERTEX
 8
CUERPO_1
 10
0.0324
 20
0.2813
 30
0.3458
 70
192
 0
VERTEX
 8
CUERPO_1
 10
0.0324
 20
0.18
 30
0.3458
 70
192
 0
VERTEX
 8
CUERPO_1
 10
0.0324
 20
0.18
 30
0.3458
 70
192
 0
VERTEX
 8
CUERPO_1
 10
0
 20
0.18
 30
0.3186
 70
192
 0
VERTEX
 8
CUERPO_1
 10
0
 20
0.18
 30
0.3186
 70
192
 0
VERTEX
 8
CUERPO_1
 10
0
 20
0.2813
 30
0.3186
 70
192
 0
VERTEX
 8
CUERPO_1
 10
0
 20
0.2813
 30
0.3186
 70
192
 0
VERTEX
 8
CUERPO_1
 10
0.0272
 20
0.2813
 30
0.3511
 70
192
 0
VERTEX
 8
CUERPO_1
 10
0.0272
 20
0.2813
 30
0.3511
 70
192
 0
VERTEX
 8
CUERPO_1
 10
0.0272
 20
0.18
 30
0.3511
 70
192
 0
VERTEX
 8
CUERPO_1
 10
0.0272
 20
0.18
 30
0.3511
 70
192
 0
VERTEX
 8
CUERPO_1
 10
0
 20
0.18
 30
0.3186
 70
192
 0
VERTEX
 8
CUERPO_1
 10
0
 20
0.18
 30
0.3186
 70
192
 0
VERTEX
 8
CUERPO_1
 10
0
 20
0.2813
 30
0.3186
 70
192
 0
VERTEX
 8
CUERPO_1
 10
0
 20
0.2813
 30
0.3186
 70
192
 0
VERTEX
 8
CUERPO_1
 10
0.0212
 20
0.2813
 30
0.3553
 70
192
 0
VERTEX
 8
CUERPO_1
 10
0.0212
 20
0.2813
 30
0.3553
 70
192
 0
VERTEX
 8
CUERPO_1
 10
0.0212
 20
0.18
 30
0.3553
 70
192
 0
VERTEX
 8
CUERPO_1
 10
0.0212
 20
0.18
 30
0.3553
 70
192
 0
VERTEX
 8
CUERPO_1
 10
0
 20
0.18
 30
0.3186
 70
192
 0
VERTEX
 8
CUERPO_1
 10
0
 20
0.18
 30
0.3186
 70
192
 0
VERTEX
 8
CUERPO_1
 10
0
 20
0.2813
 30
0.3186
 70
192
 0
VERTEX
 8
CUERPO_1
 10
0
 20
0.2813
 30
0.3186
 70
192
 0
VERTEX
 8
CUERPO_1
 10
0.0145
 20
0.2813
 30
0.3584
 70
192
 0
VERTEX
 8
CUERPO_1
 10
0.0145
 20
0.2813
 30
0.3584
 70
192
 0
VERTEX
 8
CUERPO_1
 10
0.0145
 20
0.18
 30
0.3584
 70
192
 0
VERTEX
 8
CUERPO_1
 10
0.0145
 20
0.18
 30
0.3584
 70
192
 0
VERTEX
 8
CUERPO_1
 10
0
 20
0.18
 30
0.3186
 70
192
 0
VERTEX
 8
CUERPO_1
 10
0
 20
0.18
 30
0.3186
 70
192
 0
VERTEX
 8
CUERPO_1
 10
0
 20
0.2813
 30
0.3186
 70
192
 0
VERTEX
 8
CUERPO_1
 10
0
 20
0.2813
 30
0.3186
 70
192
 0
VERTEX
 8
CUERPO_1
 10
0.0074
 20
0.2813
 30
0.3603
 70
192
 0
VERTEX
 8
CUERPO_1
 10
0.0074
 20
0.2813
 30
0.3603
 70
192
 0
VERTEX
 8
CUERPO_1
 10
0.0074
 20
0.18
 30
0.3603
 70
192
 0
VERTEX
 8
CUERPO_1
 10
0.0074
 20
0.18
 30
0.3603
 70
192
 0
VERTEX
 8
CUERPO_1
 10
0
 20
0.18
 30
0.3186
 70
192
 0
VERTEX
 8
CUERPO_1
 10
0
 20
0.18
 30
0.3186
 70
192
 0
VERTEX
 8
CUERPO_1
 10
0
 20
0.2813
 30
0.3186
 70
192
 0
VERTEX
 8
CUERPO_1
 10
0
 20
0.2813
 30
0.3186
 70
192
 0
VERTEX
 8
CUERPO_1
 10
0
 20
0.2813
 30
0.361
 70
192
 0
VERTEX
 8
CUERPO_1
 10
0
 20
0.2813
 30
0.361
 70
192
 0
VERTEX
 8
CUERPO_1
 10
0
 20
0.18
 30
0.361
 70
192
 0
VERTEX
 8
CUERPO_1
 10
0
 20
0.18
 30
0.361
 70
192
 0
VERTEX
 8
CUERPO_1
 10
0
 20
0.18
 30
0.3186
 70
192
 0
VERTEX
 8
CUERPO_1
 10
0
 20
0.18
 30
0.3186
 70
192
 0
VERTEX
 8
CUERPO_1
 10
0
 20
0.2813
 30
0.3186
 70
192
 0
VERTEX
 8
CUERPO_1
 10
0
 20
0.2813
 30
0.3186
 70
192
 0
VERTEX
 8
CUERPO_1
 10
-0.0074
 20
0.2813
 30
0.3603
 70
192
 0
VERTEX
 8
CUERPO_1
 10
-0.0074
 20
0.2813
 30
0.3603
 70
192
 0
VERTEX
 8
CUERPO_1
 10
-0.0074
 20
0.18
 30
0.3603
 70
192
 0
VERTEX
 8
CUERPO_1
 10
-0.0074
 20
0.18
 30
0.3603
 70
192
 0
VERTEX
 8
CUERPO_1
 10
0
 20
0.18
 30
0.3186
 70
192
 0
VERTEX
 8
CUERPO_1
 10
0
 20
0.18
 30
0.3186
 70
192
 0
VERTEX
 8
CUERPO_1
 10
0
 20
0.2813
 30
0.3186
 70
192
 0
VERTEX
 8
CUERPO_1
 10
0
 20
0.2813
 30
0.3186
 70
192
 0
VERTEX
 8
CUERPO_1
 10
-0.0145
 20
0.2813
 30
0.3584
 70
192
 0
VERTEX
 8
CUERPO_1
 10
-0.0145
 20
0.2813
 30
0.3584
 70
192
 0
VERTEX
 8
CUERPO_1
 10
-0.0145
 20
0.18
 30
0.3584
 70
192
 0
VERTEX
 8
CUERPO_1
 10
-0.0145
 20
0.18
 30
0.3584
 70
192
 0
VERTEX
 8
CUERPO_1
 10
0
 20
0.18
 30
0.3186
 70
192
 0
VERTEX
 8
CUERPO_1
 10
0
 20
0.18
 30
0.3186
 70
192
 0
VERTEX
 8
CUERPO_1
 10
0
 20
0.2813
 30
0.3186
 70
192
 0
VERTEX
 8
CUERPO_1
 10
0
 20
0.2813
 30
0.3186
 70
192
 0
VERTEX
 8
CUERPO_1
 10
-0.0212
 20
0.2813
 30
0.3553
 70
192
 0
VERTEX
 8
CUERPO_1
 10
-0.0212
 20
0.2813
 30
0.3553
 70
192
 0
VERTEX
 8
CUERPO_1
 10
-0.0212
 20
0.18
 30
0.3553
 70
192
 0
VERTEX
 8
CUERPO_1
 10
-0.0212
 20
0.18
 30
0.3553
 70
192
 0
VERTEX
 8
CUERPO_1
 10
0
 20
0.18
 30
0.3186
 70
192
 0
VERTEX
 8
CUERPO_1
 10
0
 20
0.18
 30
0.3186
 70
192
 0
VERTEX
 8
CUERPO_1
 10
0
 20
0.2813
 30
0.3186
 70
192
 0
VERTEX
 8
CUERPO_1
 10
0
 20
0.2813
 30
0.3186
 70
192
 0
VERTEX
 8
CUERPO_1
 10
-0.0272
 20
0.2813
 30
0.3511
 70
192
 0
VERTEX
 8
CUERPO_1
 10
-0.0272
 20
0.2813
 30
0.3511
 70
192
 0
VERTEX
 8
CUERPO_1
 10
-0.0272
 20
0.18
 30
0.3511
 70
192
 0
VERTEX
 8
CUERPO_1
 10
-0.0272
 20
0.18
 30
0.3511
 70
192
 0
VERTEX
 8
CUERPO_1
 10
0
 20
0.18
 30
0.3186
 70
192
 0
VERTEX
 8
CUERPO_1
 10
0
 20
0.18
 30
0.3186
 70
192
 0
VERTEX
 8
CUERPO_1
 10
0
 20
0.2813
 30
0.3186
 70
192
 0
VERTEX
 8
CUERPO_1
 10
0
 20
0.2813
 30
0.3186
 70
192
 0
VERTEX
 8
CUERPO_1
 10
-0.0324
 20
0.2813
 30
0.3458
 70
192
 0
VERTEX
 8
CUERPO_1
 10
-0.0324
 20
0.2813
 30
0.3458
 70
192
 0
VERTEX
 8
CUERPO_1
 10
-0.0324
 20
0.18
 30
0.3458
 70
192
 0
VERTEX
 8
CUERPO_1
 10
-0.0324
 20
0.18
 30
0.3458
 70
192
 0
VERTEX
 8
CUERPO_1
 10
0
 20
0.18
 30
0.3186
 70
192
 0
VERTEX
 8
CUERPO_1
 10
0
 20
0.18
 30
0.3186
 70
192
 0
VERTEX
 8
CUERPO_1
 10
0
 20
0.2813
 30
0.3186
 70
192
 0
VERTEX
 8
CUERPO_1
 10
0
 20
0.2813
 30
0.3186
 70
192
 0
VERTEX
 8
CUERPO_1
 10
-0.0367
 20
0.2813
 30
0.3398
 70
192
 0
VERTEX
 8
CUERPO_1
 10
-0.0367
 20
0.2813
 30
0.3398
 70
192
 0
VERTEX
 8
CUERPO_1
 10
-0.0367
 20
0.18
 30
0.3398
 70
192
 0
VERTEX
 8
CUERPO_1
 10
-0.0367
 20
0.18
 30
0.3398
 70
192
 0
VERTEX
 8
CUERPO_1
 10
0
 20
0.18
 30
0.3186
 70
192
 0
VERTEX
 8
CUERPO_1
 10
0
 20
0.18
 30
0.3186
 70
192
 0
VERTEX
 8
CUERPO_1
 10
0
 20
0.2813
 30
0.3186
 70
192
 0
VERTEX
 8
CUERPO_1
 10
0
 20
0.2813
 30
0.3186
 70
192
 0
VERTEX
 8
CUERPO_1
 10
-0.0398
 20
0.2813
 30
0.3331
 70
192
 0
VERTEX
 8
CUERPO_1
 10
-0.0398
 20
0.2813
 30
0.3331
 70
192
 0
VERTEX
 8
CUERPO_1
 10
-0.0398
 20
0.18
 30
0.3331
 70
192
 0
VERTEX
 8
CUERPO_1
 10
-0.0398
 20
0.18
 30
0.3331
 70
192
 0
VERTEX
 8
CUERPO_1
 10
0
 20
0.18
 30
0.3186
 70
192
 0
VERTEX
 8
CUERPO_1
 10
0
 20
0.18
 30
0.3186
 70
192
 0
VERTEX
 8
CUERPO_1
 10
0
 20
0.2813
 30
0.3186
 70
192
 0
VERTEX
 8
CUERPO_1
 10
0
 20
0.2813
 30
0.3186
 70
192
 0
VERTEX
 8
CUERPO_1
 10
-0.0417
 20
0.2813
 30
0.326
 70
192
 0
VERTEX
 8
CUERPO_1
 10
-0.0417
 20
0.2813
 30
0.326
 70
192
 0
VERTEX
 8
CUERPO_1
 10
-0.0417
 20
0.18
 30
0.326
 70
192
 0
VERTEX
 8
CUERPO_1
 10
-0.0417
 20
0.18
 30
0.326
 70
192
 0
VERTEX
 8
CUERPO_1
 10
0
 20
0.18
 30
0.3186
 70
192
 0
VERTEX
 8
CUERPO_1
 10
0
 20
0.18
 30
0.3186
 70
192
 0
VERTEX
 8
CUERPO_1
 10
0
 20
0.2813
 30
0.3186
 70
192
 0
VERTEX
 8
CUERPO_1
 10
0
 20
0.2813
 30
0.3186
 70
192
 0
VERTEX
 8
CUERPO_1
 10
-0.0423
 20
0.2813
 30
0.3186
 70
192
 0
VERTEX
 8
CUERPO_1
 10
-0.0423
 20
0.2813
 30
0.3186
 70
192
 0
VERTEX
 8
CUERPO_1
 10
-0.0423
 20
0.18
 30
0.3186
 70
192
 0
VERTEX
 8
CUERPO_1
 10
-0.0423
 20
0.18
 30
0.3186
 70
192
 0
VERTEX
 8
CUERPO_1
 10
0
 20
0.18
 30
0.3186
 70
192
 0
VERTEX
 8
CUERPO_1
 10
0
 20
0.18
 30
0.3186
 70
192
 0
VERTEX
 8
CUERPO_1
 10
0
 20
0.2813
 30
0.3186
 70
192
 0
VERTEX
 8
CUERPO_1
 10
0
 20
0.2813
 30
0.3186
 70
192
 0
VERTEX
 8
CUERPO_1
 10
-0.0417
 20
0.2813
 30
0.3113
 70
192
 0
VERTEX
 8
CUERPO_1
 10
-0.0417
 20
0.2813
 30
0.3113
 70
192
 0
VERTEX
 8
CUERPO_1
 10
-0.0417
 20
0.18
 30
0.3113
 70
192
 0
VERTEX
 8
CUERPO_1
 10
-0.0417
 20
0.18
 30
0.3113
 70
192
 0
VERTEX
 8
CUERPO_1
 10
0
 20
0.18
 30
0.3186
 70
192
 0
VERTEX
 8
CUERPO_1
 10
0
 20
0.18
 30
0.3186
 70
192
 0
VERTEX
 8
CUERPO_1
 10
0
 20
0.2813
 30
0.3186
 70
192
 0
VERTEX
 8
CUERPO_1
 10
0
 20
0.2813
 30
0.3186
 70
192
 0
VERTEX
 8
CUERPO_1
 10
-0.0398
 20
0.2813
 30
0.3042
 70
192
 0
VERTEX
 8
CUERPO_1
 10
-0.0398
 20
0.2813
 30
0.3042
 70
192
 0
VERTEX
 8
CUERPO_1
 10
-0.0398
 20
0.18
 30
0.3042
 70
192
 0
VERTEX
 8
CUERPO_1
 10
-0.0398
 20
0.18
 30
0.3042
 70
192
 0
VERTEX
 8
CUERPO_1
 10
0
 20
0.18
 30
0.3186
 70
192
 0
VERTEX
 8
CUERPO_1
 10
0
 20
0.18
 30
0.3186
 70
192
 0
VERTEX
 8
CUERPO_1
 10
0
 20
0.2813
 30
0.3186
 70
192
 0
VERTEX
 8
CUERPO_1
 10
0
 20
0.2813
 30
0.3186
 70
192
 0
VERTEX
 8
CUERPO_1
 10
-0.0367
 20
0.2813
 30
0.2975
 70
192
 0
VERTEX
 8
CUERPO_1
 10
-0.0367
 20
0.2813
 30
0.2975
 70
192
 0
VERTEX
 8
CUERPO_1
 10
-0.0367
 20
0.18
 30
0.2975
 70
192
 0
VERTEX
 8
CUERPO_1
 10
-0.0367
 20
0.18
 30
0.2975
 70
192
 0
VERTEX
 8
CUERPO_1
 10
0
 20
0.18
 30
0.3186
 70
192
 0
VERTEX
 8
CUERPO_1
 10
0
 20
0.18
 30
0.3186
 70
192
 0
VERTEX
 8
CUERPO_1
 10
0
 20
0.2813
 30
0.3186
 70
192
 0
VERTEX
 8
CUERPO_1
 10
0
 20
0.2813
 30
0.3186
 70
192
 0
VERTEX
 8
CUERPO_1
 10
-0.0324
 20
0.2813
 30
0.2914
 70
192
 0
VERTEX
 8
CUERPO_1
 10
-0.0324
 20
0.2813
 30
0.2914
 70
192
 0
VERTEX
 8
CUERPO_1
 10
-0.0324
 20
0.18
 30
0.2914
 70
192
 0
VERTEX
 8
CUERPO_1
 10
-0.0324
 20
0.18
 30
0.2914
 70
192
 0
VERTEX
 8
CUERPO_1
 10
0
 20
0.18
 30
0.3186
 70
192
 0
VERTEX
 8
CUERPO_1
 10
0
 20
0.18
 30
0.3186
 70
192
 0
VERTEX
 8
CUERPO_1
 10
0
 20
0.2813
 30
0.3186
 70
192
 0
VERTEX
 8
CUERPO_1
 10
0
 20
0.2813
 30
0.3186
 70
192
 0
VERTEX
 8
CUERPO_1
 10
-0.0272
 20
0.2813
 30
0.2862
 70
192
 0
VERTEX
 8
CUERPO_1
 10
-0.0272
 20
0.2813
 30
0.2862
 70
192
 0
VERTEX
 8
CUERPO_1
 10
-0.0272
 20
0.18
 30
0.2862
 70
192
 0
VERTEX
 8
CUERPO_1
 10
-0.0272
 20
0.18
 30
0.2862
 70
192
 0
VERTEX
 8
CUERPO_1
 10
0
 20
0.18
 30
0.3186
 70
192
 0
VERTEX
 8
CUERPO_1
 10
0
 20
0.18
 30
0.3186
 70
192
 0
VERTEX
 8
CUERPO_1
 10
0
 20
0.2813
 30
0.3186
 70
192
 0
VERTEX
 8
CUERPO_1
 10
0
 20
0.2813
 30
0.3186
 70
192
 0
VERTEX
 8
CUERPO_1
 10
-0.0212
 20
0.2813
 30
0.282
 70
192
 0
VERTEX
 8
CUERPO_1
 10
-0.0212
 20
0.2813
 30
0.282
 70
192
 0
VERTEX
 8
CUERPO_1
 10
-0.0212
 20
0.18
 30
0.282
 70
192
 0
VERTEX
 8
CUERPO_1
 10
-0.0212
 20
0.18
 30
0.282
 70
192
 0
VERTEX
 8
CUERPO_1
 10
0
 20
0.18
 30
0.3186
 70
192
 0
VERTEX
 8
CUERPO_1
 10
0
 20
0.18
 30
0.3186
 70
192
 0
VERTEX
 8
CUERPO_1
 10
0
 20
0.2813
 30
0.3186
 70
192
 0
VERTEX
 8
CUERPO_1
 10
0
 20
0.2813
 30
0.3186
 70
192
 0
VERTEX
 8
CUERPO_1
 10
-0.0145
 20
0.2813
 30
0.2789
 70
192
 0
VERTEX
 8
CUERPO_1
 10
-0.0145
 20
0.2813
 30
0.2789
 70
192
 0
VERTEX
 8
CUERPO_1
 10
-0.0145
 20
0.18
 30
0.2789
 70
192
 0
VERTEX
 8
CUERPO_1
 10
-0.0145
 20
0.18
 30
0.2789
 70
192
 0
VERTEX
 8
CUERPO_1
 10
0
 20
0.18
 30
0.3186
 70
192
 0
VERTEX
 8
CUERPO_1
 10
0
 20
0.18
 30
0.3186
 70
192
 0
VERTEX
 8
CUERPO_1
 10
0
 20
0.2813
 30
0.3186
 70
192
 0
VERTEX
 8
CUERPO_1
 10
0
 20
0.2813
 30
0.3186
 70
192
 0
VERTEX
 8
CUERPO_1
 10
-0.0074
 20
0.2813
 30
0.277
 70
192
 0
VERTEX
 8
CUERPO_1
 10
-0.0074
 20
0.2813
 30
0.277
 70
192
 0
VERTEX
 8
CUERPO_1
 10
-0.0074
 20
0.18
 30
0.277
 70
192
 0
VERTEX
 8
CUERPO_1
 10
-0.0074
 20
0.18
 30
0.277
 70
192
 0
VERTEX
 8
CUERPO_1
 10
0
 20
0.18
 30
0.3186
 70
192
 0
VERTEX
 8
CUERPO_1
 10
0
 20
0.18
 30
0.3186
 70
192
 0
VERTEX
 8
CUERPO_1
 10
0
 20
0.2813
 30
0.3186
 70
192
 0
VERTEX
 8
CUERPO_1
 10
0
 20
0.2813
 30
0.3186
 70
192
 0
VERTEX
 8
CUERPO_1
 10
0
 20
0.2813
 30
0.2763
 70
192
 0
VERTEX
 8
CUERPO_1
 10
0
 20
0.2813
 30
0.2763
 70
192
 0
VERTEX
 8
CUERPO_1
 10
0
 20
0.18
 30
0.2763
 70
192
 0
VERTEX
 8
CUERPO_1
 10
0
 20
0.18
 30
0.2763
 70
192
 0
VERTEX
 8
CUERPO_1
 10
0
 20
0.18
 30
0.3186
 70
192
 0
VERTEX
 8
CUERPO_1
 10
0
 20
0.18
 30
0.3186
 70
192
 0
VERTEX
 8
CUERPO_1
 10
0
 20
0.2813
 30
0.3186
 70
192
 0
VERTEX
 8
CUERPO_1
 10
0
 20
0.2813
 30
0.3186
 70
192
 0
VERTEX
 8
CUERPO_1
 10
0.0074
 20
0.2813
 30
0.277
 70
192
 0
VERTEX
 8
CUERPO_1
 10
0.0074
 20
0.2813
 30
0.277
 70
192
 0
VERTEX
 8
CUERPO_1
 10
0.0074
 20
0.18
 30
0.277
 70
192
 0
VERTEX
 8
CUERPO_1
 10
0.0074
 20
0.18
 30
0.277
 70
192
 0
VERTEX
 8
CUERPO_1
 10
0
 20
0.18
 30
0.3186
 70
192
 0
VERTEX
 8
CUERPO_1
 10
0
 20
0.18
 30
0.3186
 70
192
 0
VERTEX
 8
CUERPO_1
 10
0
 20
0.2813
 30
0.3186
 70
192
 0
VERTEX
 8
CUERPO_1
 10
0
 20
0.2813
 30
0.3186
 70
192
 0
VERTEX
 8
CUERPO_1
 10
0.0145
 20
0.2813
 30
0.2789
 70
192
 0
VERTEX
 8
CUERPO_1
 10
0.0145
 20
0.2813
 30
0.2789
 70
192
 0
VERTEX
 8
CUERPO_1
 10
0.0145
 20
0.18
 30
0.2789
 70
192
 0
VERTEX
 8
CUERPO_1
 10
0.0145
 20
0.18
 30
0.2789
 70
192
 0
VERTEX
 8
CUERPO_1
 10
0
 20
0.18
 30
0.3186
 70
192
 0
VERTEX
 8
CUERPO_1
 10
0
 20
0.18
 30
0.3186
 70
192
 0
VERTEX
 8
CUERPO_1
 10
0
 20
0.2813
 30
0.3186
 70
192
 0
VERTEX
 8
CUERPO_1
 10
0
 20
0.2813
 30
0.3186
 70
192
 0
VERTEX
 8
CUERPO_1
 10
0.0212
 20
0.2813
 30
0.282
 70
192
 0
VERTEX
 8
CUERPO_1
 10
0.0212
 20
0.2813
 30
0.282
 70
192
 0
VERTEX
 8
CUERPO_1
 10
0.0212
 20
0.18
 30
0.282
 70
192
 0
VERTEX
 8
CUERPO_1
 10
0.0212
 20
0.18
 30
0.282
 70
192
 0
VERTEX
 8
CUERPO_1
 10
0
 20
0.18
 30
0.3186
 70
192
 0
VERTEX
 8
CUERPO_1
 10
0
 20
0.18
 30
0.3186
 70
192
 0
VERTEX
 8
CUERPO_1
 10
0
 20
0.2813
 30
0.3186
 70
192
 0
VERTEX
 8
CUERPO_1
 10
0
 20
0.2813
 30
0.3186
 70
192
 0
VERTEX
 8
CUERPO_1
 10
0.0272
 20
0.2813
 30
0.2862
 70
192
 0
VERTEX
 8
CUERPO_1
 10
0.0272
 20
0.2813
 30
0.2862
 70
192
 0
VERTEX
 8
CUERPO_1
 10
0.0272
 20
0.18
 30
0.2862
 70
192
 0
VERTEX
 8
CUERPO_1
 10
0.0272
 20
0.18
 30
0.2862
 70
192
 0
VERTEX
 8
CUERPO_1
 10
0
 20
0.18
 30
0.3186
 70
192
 0
VERTEX
 8
CUERPO_1
 10
0
 20
0.18
 30
0.3186
 70
192
 0
VERTEX
 8
CUERPO_1
 10
0
 20
0.2813
 30
0.3186
 70
192
 0
VERTEX
 8
CUERPO_1
 10
0
 20
0.2813
 30
0.3186
 70
192
 0
VERTEX
 8
CUERPO_1
 10
0.0324
 20
0.2813
 30
0.2914
 70
192
 0
VERTEX
 8
CUERPO_1
 10
0.0324
 20
0.2813
 30
0.2914
 70
192
 0
VERTEX
 8
CUERPO_1
 10
0.0324
 20
0.18
 30
0.2914
 70
192
 0
VERTEX
 8
CUERPO_1
 10
0.0324
 20
0.18
 30
0.2914
 70
192
 0
VERTEX
 8
CUERPO_1
 10
0
 20
0.18
 30
0.3186
 70
192
 0
VERTEX
 8
CUERPO_1
 10
0
 20
0.18
 30
0.3186
 70
192
 0
VERTEX
 8
CUERPO_1
 10
0
 20
0.2813
 30
0.3186
 70
192
 0
VERTEX
 8
CUERPO_1
 10
0
 20
0.2813
 30
0.3186
 70
192
 0
VERTEX
 8
CUERPO_1
 10
0.0367
 20
0.2813
 30
0.2975
 70
192
 0
VERTEX
 8
CUERPO_1
 10
0.0367
 20
0.2813
 30
0.2975
 70
192
 0
VERTEX
 8
CUERPO_1
 10
0.0367
 20
0.18
 30
0.2975
 70
192
 0
VERTEX
 8
CUERPO_1
 10
0.0367
 20
0.18
 30
0.2975
 70
192
 0
VERTEX
 8
CUERPO_1
 10
0
 20
0.18
 30
0.3186
 70
192
 0
VERTEX
 8
CUERPO_1
 10
0
 20
0.18
 30
0.3186
 70
192
 0
VERTEX
 8
CUERPO_1
 10
0
 20
0.2813
 30
0.3186
 70
192
 0
VERTEX
 8
CUERPO_1
 10
0
 20
0.2813
 30
0.3186
 70
192
 0
VERTEX
 8
CUERPO_1
 10
0.0398
 20
0.2813
 30
0.3042
 70
192
 0
VERTEX
 8
CUERPO_1
 10
0.0398
 20
0.2813
 30
0.3042
 70
192
 0
VERTEX
 8
CUERPO_1
 10
0.0398
 20
0.18
 30
0.3042
 70
192
 0
VERTEX
 8
CUERPO_1
 10
0.0398
 20
0.18
 30
0.3042
 70
192
 0
VERTEX
 8
CUERPO_1
 10
0
 20
0.18
 30
0.3186
 70
192
 0
VERTEX
 8
CUERPO_1
 10
0
 20
0.18
 30
0.3186
 70
192
 0
VERTEX
 8
CUERPO_1
 10
0
 20
0.2813
 30
0.3186
 70
192
 0
VERTEX
 8
CUERPO_1
 10
0
 20
0.2813
 30
0.3186
 70
192
 0
VERTEX
 8
CUERPO_1
 10
0.0417
 20
0.2813
 30
0.3113
 70
192
 0
VERTEX
 8
CUERPO_1
 10
0.0417
 20
0.2813
 30
0.3113
 70
192
 0
VERTEX
 8
CUERPO_1
 10
0.0417
 20
0.18
 30
0.3113
 70
192
 0
VERTEX
 8
CUERPO_1
 10
0.0417
 20
0.18
 30
0.3113
 70
192
 0
VERTEX
 8
CUERPO_1
 10
0
 20
0.18
 30
0.3186
 70
192
 0
VERTEX
 8
CUERPO_1
 10
0
 20
0.18
 30
0.3186
 70
192
 0
VERTEX
 8
CUERPO_1
 10
0
 20
0.2813
 30
0.3186
 70
192
 0
VERTEX
 8
CUERPO_1
 10
-0.0244
 20
0.373
 30
0.4409
 70
192
 0
VERTEX
 8
CUERPO_1
 10
-0.0244
 20
0.3906
 30
0.4507
 70
192
 0
VERTEX
 8
CUERPO_1
 10
0.0244
 20
0.373
 30
0.4409
 70
192
 0
VERTEX
 8
CUERPO_1
 10
0.0244
 20
0.3906
 30
0.4507
 70
192
 0
VERTEX
 8
CUERPO_1
 10
0.0244
 20
0.4011
 30
0.4141
 70
192
 0
VERTEX
 8
CUERPO_1
 10
0.0244
 20
0.424
 30
0.4382
 70
192
 0
VERTEX
 8
CUERPO_1
 10
0.0244
 20
0.4293
 30
0.3874
 70
192
 0
VERTEX
 8
CUERPO_1
 10
0.0244
 20
0.4522
 30
0.4114
 70
192
 0
VERTEX
 8
CUERPO_1
 10
0.0244
 20
0.4575
 30
0.3606
 70
192
 0
VERTEX
 8
CUERPO_1
 10
0.0244
 20
0.4804
 30
0.3846
 70
192
 0
VERTEX
 8
CUERPO_1
 10
-0.0244
 20
0.4575
 30
0.3606
 70
192
 0
VERTEX
 8
CUERPO_1
 10
-0.0244
 20
0.4804
 30
0.3846
 70
192
 0
VERTEX
 8
CUERPO_1
 10
-0.0244
 20
0.4293
 30
0.3874
 70
192
 0
VERTEX
 8
CUERPO_1
 10
-0.0244
 20
0.4522
 30
0.4114
 70
192
 0
VERTEX
 8
CUERPO_1
 10
-0.0244
 20
0.4011
 30
0.4141
 70
192
 0
VERTEX
 8
CUERPO_1
 10
-0.0244
 20
0.424
 30
0.4382
 70
192
 0
VERTEX
 8
CUERPO_1
 10
0.0244
 20
0.5022
 30
0.4311
 70
192
 0
VERTEX
 8
CUERPO_1
 10
0.0244
 20
0.5304
 30
0.4044
 70
192
 0
VERTEX
 8
CUERPO_1
 10
-0.0244
 20
0.5304
 30
0.4044
 70
192
 0
VERTEX
 8
CUERPO_1
 10
-0.0244
 20
0.5022
 30
0.4311
 70
192
 0
VERTEX
 8
CUERPO_1
 10
0.0244
 20
0.503
 30
0.432
 70
192
 0
VERTEX
 8
CUERPO_1
 10
0.0244
 20
0.5312
 30
0.4052
 70
192
 0
VERTEX
 8
CUERPO_1
 10
-0.0244
 20
0.5312
 30
0.4052
 70
192
 0
VERTEX
 8
CUERPO_1
 10
-0.0244
 20
0.503
 30
0.432
 70
192
 0
VERTEX
 8
CUERPO_1
 10
0.0244
 20
0.5583
 30
0.4401
 70
192
 0
VERTEX
 8
CUERPO_1
 10
0.0244
 20
0.5865
 30
0.4133
 70
192
 0
VERTEX
 8
CUERPO_1
 10
-0.0244
 20
0.5865
 30
0.4133
 70
192
 0
VERTEX
 8
CUERPO_1
 10
-0.0244
 20
0.5583
 30
0.4401
 70
192
 0
VERTEX
 8
CUERPO_1
 10
0
 20
0
 30
0
 70
128
 71
1
 72
2
 73
10
 74
9
 0
VERTEX
 8
CUERPO_1
 10
0
 20
0
 30
0
 70
128
 71
3
 72
4
 73
12
 74
11
 0
VERTEX
 8
CUERPO_1
 10
0
 20
0
 30
0
 70
128
 71
5
 72
6
 73
14
 74
13
 0
VERTEX
 8
CUERPO_1
 10
0
 20
0
 30
0
 70
128
 71
7
 72
8
 73
16
 74
15
 0
VERTEX
 8
CUERPO_1
 10
0
 20
0
 30
0
 70
128
 71
9
 72
10
 73
18
 74
17
 0
VERTEX
 8
CUERPO_1
 10
0
 20
0
 30
0
 70
128
 71
11
 72
12
 73
20
 74
19
 0
VERTEX
 8
CUERPO_1
 10
0
 20
0
 30
0
 70
128
 71
13
 72
14
 73
22
 74
21
 0
VERTEX
 8
CUERPO_1
 10
0
 20
0
 30
0
 70
128
 71
15
 72
16
 73
24
 74
23
 0
VERTEX
 8
CUERPO_1
 10
0
 20
0
 30
0
 70
128
 71
17
 72
18
 73
26
 74
25
 0
VERTEX
 8
CUERPO_1
 10
0
 20
0
 30
0
 70
128
 71
19
 72
20
 73
28
 74
27
 0
VERTEX
 8
CUERPO_1
 10
0
 20
0
 30
0
 70
128
 71
21
 72
22
 73
30
 74
29
 0
VERTEX
 8
CUERPO_1
 10
0
 20
0
 30
0
 70
128
 71
23
 72
24
 73
32
 74
31
 0
VERTEX
 8
CUERPO_1
 10
0
 20
0
 30
0
 70
128
 71
25
 72
26
 73
34
 74
33
 0
VERTEX
 8
CUERPO_1
 10
0
 20
0
 30
0
 70
128
 71
27
 72
28
 73
36
 74
35
 0
VERTEX
 8
CUERPO_1
 10
0
 20
0
 30
0
 70
128
 71
29
 72
30
 73
38
 74
37
 0
VERTEX
 8
CUERPO_1
 10
0
 20
0
 30
0
 70
128
 71
31
 72
32
 73
40
 74
39
 0
VERTEX
 8
CUERPO_1
 10
0
 20
0
 30
0
 70
128
 71
33
 72
34
 73
42
 74
41
 0
VERTEX
 8
CUERPO_1
 10
0
 20
0
 30
0
 70
128
 71
35
 72
36
 73
44
 74
43
 0
VERTEX
 8
CUERPO_1
 10
0
 20
0
 30
0
 70
128
 71
37
 72
38
 73
46
 74
45
 0
VERTEX
 8
CUERPO_1
 10
0
 20
0
 30
0
 70
128
 71
39
 72
40
 73
48
 74
47
 0
VERTEX
 8
CUERPO_1
 10
0
 20
0
 30
0
 70
128
 71
41
 72
42
 73
50
 74
49
 0
VERTEX
 8
CUERPO_1
 10
0
 20
0
 30
0
 70
128
 71
43
 72
44
 73
52
 74
51
 0
VERTEX
 8
CUERPO_1
 10
0
 20
0
 30
0
 70
128
 71
45
 72
46
 73
54
 74
53
 0
VERTEX
 8
CUERPO_1
 10
0
 20
0
 30
0
 70
128
 71
47
 72
48
 73
56
 74
55
 0
VERTEX
 8
CUERPO_1
 10
0
 20
0
 30
0
 70
128
 71
49
 72
50
 73
58
 74
57
 0
VERTEX
 8
CUERPO_1
 10
0
 20
0
 30
0
 70
128
 71
51
 72
52
 73
60
 74
59
 0
VERTEX
 8
CUERPO_1
 10
0
 20
0
 30
0
 70
128
 71
53
 72
54
 73
62
 74
61
 0
VERTEX
 8
CUERPO_1
 10
0
 20
0
 30
0
 70
128
 71
55
 72
56
 73
64
 74
63
 0
VERTEX
 8
CUERPO_1
 10
0
 20
0
 30
0
 70
128
 71
57
 72
58
 73
66
 74
65
 0
VERTEX
 8
CUERPO_1
 10
0
 20
0
 30
0
 70
128
 71
59
 72
60
 73
68
 74
67
 0
VERTEX
 8
CUERPO_1
 10
0
 20
0
 30
0
 70
128
 71
61
 72
62
 73
70
 74
69
 0
VERTEX
 8
CUERPO_1
 10
0
 20
0
 30
0
 70
128
 71
63
 72
64
 73
72
 74
71
 0
VERTEX
 8
CUERPO_1
 10
0
 20
0
 30
0
 70
128
 71
65
 72
66
 73
74
 74
73
 0
VERTEX
 8
CUERPO_1
 10
0
 20
0
 30
0
 70
128
 71
67
 72
68
 73
76
 74
75
 0
VERTEX
 8
CUERPO_1
 10
0
 20
0
 30
0
 70
128
 71
69
 72
70
 73
78
 74
77
 0
VERTEX
 8
CUERPO_1
 10
0
 20
0
 30
0
 70
128
 71
71
 72
72
 73
80
 74
79
 0
VERTEX
 8
CUERPO_1
 10
0
 20
0
 30
0
 70
128
 71
73
 72
74
 73
82
 74
81
 0
VERTEX
 8
CUERPO_1
 10
0
 20
0
 30
0
 70
128
 71
75
 72
76
 73
84
 74
83
 0
VERTEX
 8
CUERPO_1
 10
0
 20
0
 30
0
 70
128
 71
77
 72
78
 73
86
 74
85
 0
VERTEX
 8
CUERPO_1
 10
0
 20
0
 30
0
 70
128
 71
79
 72
80
 73
88
 74
87
 0
VERTEX
 8
CUERPO_1
 10
0
 20
0
 30
0
 70
128
 71
81
 72
82
 73
90
 74
89
 0
VERTEX
 8
CUERPO_1
 10
0
 20
0
 30
0
 70
128
 71
83
 72
84
 73
92
 74
91
 0
VERTEX
 8
CUERPO_1
 10
0
 20
0
 30
0
 70
128
 71
85
 72
86
 73
94
 74
93
 0
VERTEX
 8
CUERPO_1
 10
0
 20
0
 30
0
 70
128
 71
87
 72
88
 73
96
 74
95
 0
VERTEX
 8
CUERPO_1
 10
0
 20
0
 30
0
 70
128
 71
89
 72
90
 73
98
 74
97
 0
VERTEX
 8
CUERPO_1
 10
0
 20
0
 30
0
 70
128
 71
91
 72
92
 73
100
 74
99
 0
VERTEX
 8
CUERPO_1
 10
0
 20
0
 30
0
 70
128
 71
93
 72
94
 73
102
 74
101
 0
VERTEX
 8
CUERPO_1
 10
0
 20
0
 30
0
 70
128
 71
95
 72
96
 73
104
 74
103
 0
VERTEX
 8
CUERPO_1
 10
0
 20
0
 30
0
 70
128
 71
97
 72
98
 73
106
 74
105
 0
VERTEX
 8
CUERPO_1
 10
0
 20
0
 30
0
 70
128
 71
99
 72
100
 73
108
 74
107
 0
VERTEX
 8
CUERPO_1
 10
0
 20
0
 30
0
 70
128
 71
101
 72
102
 73
110
 74
109
 0
VERTEX
 8
CUERPO_1
 10
0
 20
0
 30
0
 70
128
 71
103
 72
104
 73
112
 74
111
 0
VERTEX
 8
CUERPO_1
 10
0
 20
0
 30
0
 70
128
 71
105
 72
106
 73
114
 74
113
 0
VERTEX
 8
CUERPO_1
 10
0
 20
0
 30
0
 70
128
 71
107
 72
108
 73
116
 74
115
 0
VERTEX
 8
CUERPO_1
 10
0
 20
0
 30
0
 70
128
 71
109
 72
110
 73
118
 74
117
 0
VERTEX
 8
CUERPO_1
 10
0
 20
0
 30
0
 70
128
 71
111
 72
112
 73
120
 74
119
 0
VERTEX
 8
CUERPO_1
 10
0
 20
0
 30
0
 70
128
 71
113
 72
114
 73
122
 74
121
 0
VERTEX
 8
CUERPO_1
 10
0
 20
0
 30
0
 70
128
 71
115
 72
116
 73
124
 74
123
 0
VERTEX
 8
CUERPO_1
 10
0
 20
0
 30
0
 70
128
 71
117
 72
118
 73
126
 74
125
 0
VERTEX
 8
CUERPO_1
 10
0
 20
0
 30
0
 70
128
 71
119
 72
120
 73
128
 74
127
 0
VERTEX
 8
CUERPO_1
 10
0
 20
0
 30
0
 70
128
 71
121
 72
122
 73
130
 74
129
 0
VERTEX
 8
CUERPO_1
 10
0
 20
0
 30
0
 70
128
 71
123
 72
124
 73
132
 74
131
 0
VERTEX
 8
CUERPO_1
 10
0
 20
0
 30
0
 70
128
 71
125
 72
126
 73
134
 74
133
 0
VERTEX
 8
CUERPO_1
 10
0
 20
0
 30
0
 70
128
 71
127
 72
128
 73
136
 74
135
 0
VERTEX
 8
CUERPO_1
 10
0
 20
0
 30
0
 70
128
 71
129
 72
130
 73
138
 74
137
 0
VERTEX
 8
CUERPO_1
 10
0
 20
0
 30
0
 70
128
 71
131
 72
132
 73
140
 74
139
 0
VERTEX
 8
CUERPO_1
 10
0
 20
0
 30
0
 70
128
 71
133
 72
134
 73
142
 74
141
 0
VERTEX
 8
CUERPO_1
 10
0
 20
0
 30
0
 70
128
 71
135
 72
136
 73
144
 74
143
 0
VERTEX
 8
CUERPO_1
 10
0
 20
0
 30
0
 70
128
 71
137
 72
138
 73
146
 74
145
 0
VERTEX
 8
CUERPO_1
 10
0
 20
0
 30
0
 70
128
 71
139
 72
140
 73
148
 74
147
 0
VERTEX
 8
CUERPO_1
 10
0
 20
0
 30
0
 70
128
 71
141
 72
142
 73
150
 74
149
 0
VERTEX
 8
CUERPO_1
 10
0
 20
0
 30
0
 70
128
 71
143
 72
144
 73
152
 74
151
 0
VERTEX
 8
CUERPO_1
 10
0
 20
0
 30
0
 70
128
 71
145
 72
146
 73
154
 74
153
 0
VERTEX
 8
CUERPO_1
 10
0
 20
0
 30
0
 70
128
 71
147
 72
148
 73
156
 74
155
 0
VERTEX
 8
CUERPO_1
 10
0
 20
0
 30
0
 70
128
 71
149
 72
150
 73
158
 74
157
 0
VERTEX
 8
CUERPO_1
 10
0
 20
0
 30
0
 70
128
 71
151
 72
152
 73
160
 74
159
 0
VERTEX
 8
CUERPO_1
 10
0
 20
0
 30
0
 70
128
 71
153
 72
154
 73
162
 74
161
 0
VERTEX
 8
CUERPO_1
 10
0
 20
0
 30
0
 70
128
 71
155
 72
156
 73
164
 74
163
 0
VERTEX
 8
CUERPO_1
 10
0
 20
0
 30
0
 70
128
 71
157
 72
158
 73
166
 74
165
 0
VERTEX
 8
CUERPO_1
 10
0
 20
0
 30
0
 70
128
 71
159
 72
160
 73
168
 74
167
 0
VERTEX
 8
CUERPO_1
 10
0
 20
0
 30
0
 70
128
 71
161
 72
162
 73
170
 74
169
 0
VERTEX
 8
CUERPO_1
 10
0
 20
0
 30
0
 70
128
 71
163
 72
164
 73
172
 74
171
 0
VERTEX
 8
CUERPO_1
 10
0
 20
0
 30
0
 70
128
 71
165
 72
166
 73
174
 74
173
 0
VERTEX
 8
CUERPO_1
 10
0
 20
0
 30
0
 70
128
 71
167
 72
168
 73
176
 74
175
 0
VERTEX
 8
CUERPO_1
 10
0
 20
0
 30
0
 70
128
 71
169
 72
170
 73
178
 74
177
 0
VERTEX
 8
CUERPO_1
 10
0
 20
0
 30
0
 70
128
 71
171
 72
172
 73
180
 74
179
 0
VERTEX
 8
CUERPO_1
 10
0
 20
0
 30
0
 70
128
 71
173
 72
174
 73
182
 74
181
 0
VERTEX
 8
CUERPO_1
 10
0
 20
0
 30
0
 70
128
 71
175
 72
176
 73
184
 74
183
 0
VERTEX
 8
CUERPO_1
 10
0
 20
0
 30
0
 70
128
 71
177
 72
178
 73
186
 74
185
 0
VERTEX
 8
CUERPO_1
 10
0
 20
0
 30
0
 70
128
 71
179
 72
180
 73
188
 74
187
 0
VERTEX
 8
CUERPO_1
 10
0
 20
0
 30
0
 70
128
 71
181
 72
182
 73
190
 74
189
 0
VERTEX
 8
CUERPO_1
 10
0
 20
0
 30
0
 70
128
 71
183
 72
184
 73
192
 74
191
 0
VERTEX
 8
CUERPO_1
 10
0
 20
0
 30
0
 70
128
 71
185
 72
186
 73
194
 74
193
 0
VERTEX
 8
CUERPO_1
 10
0
 20
0
 30
0
 70
128
 71
187
 72
188
 73
196
 74
195
 0
VERTEX
 8
CUERPO_1
 10
0
 20
0
 30
0
 70
128
 71
189
 72
190
 73
198
 74
197
 0
VERTEX
 8
CUERPO_1
 10
0
 20
0
 30
0
 70
128
 71
191
 72
192
 73
200
 74
199
 0
VERTEX
 8
CUERPO_1
 10
0
 20
0
 30
0
 70
128
 71
193
 72
194
 73
202
 74
201
 0
VERTEX
 8
CUERPO_1
 10
0
 20
0
 30
0
 70
128
 71
195
 72
196
 73
204
 74
203
 0
VERTEX
 8
CUERPO_1
 10
0
 20
0
 30
0
 70
128
 71
197
 72
198
 73
206
 74
205
 0
VERTEX
 8
CUERPO_1
 10
0
 20
0
 30
0
 70
128
 71
199
 72
200
 73
208
 74
207
 0
VERTEX
 8
CUERPO_1
 10
0
 20
0
 30
0
 70
128
 71
201
 72
202
 73
210
 74
209
 0
VERTEX
 8
CUERPO_1
 10
0
 20
0
 30
0
 70
128
 71
203
 72
204
 73
212
 74
211
 0
VERTEX
 8
CUERPO_1
 10
0
 20
0
 30
0
 70
128
 71
205
 72
206
 73
214
 74
213
 0
VERTEX
 8
CUERPO_1
 10
0
 20
0
 30
0
 70
128
 71
207
 72
208
 73
216
 74
215
 0
VERTEX
 8
CUERPO_1
 10
0
 20
0
 30
0
 70
128
 71
209
 72
210
 73
218
 74
217
 0
VERTEX
 8
CUERPO_1
 10
0
 20
0
 30
0
 70
128
 71
211
 72
212
 73
220
 74
219
 0
VERTEX
 8
CUERPO_1
 10
0
 20
0
 30
0
 70
128
 71
213
 72
214
 73
222
 74
221
 0
VERTEX
 8
CUERPO_1
 10
0
 20
0
 30
0
 70
128
 71
215
 72
216
 73
224
 74
223
 0
VERTEX
 8
CUERPO_1
 10
0
 20
0
 30
0
 70
128
 71
217
 72
218
 73
226
 74
225
 0
VERTEX
 8
CUERPO_1
 10
0
 20
0
 30
0
 70
128
 71
219
 72
220
 73
228
 74
227
 0
VERTEX
 8
CUERPO_1
 10
0
 20
0
 30
0
 70
128
 71
221
 72
222
 73
230
 74
229
 0
VERTEX
 8
CUERPO_1
 10
0
 20
0
 30
0
 70
128
 71
223
 72
224
 73
232
 74
231
 0
VERTEX
 8
CUERPO_1
 10
0
 20
0
 30
0
 70
128
 71
225
 72
226
 73
234
 74
233
 0
VERTEX
 8
CUERPO_1
 10
0
 20
0
 30
0
 70
128
 71
227
 72
228
 73
236
 74
235
 0
VERTEX
 8
CUERPO_1
 10
0
 20
0
 30
0
 70
128
 71
229
 72
230
 73
238
 74
237
 0
VERTEX
 8
CUERPO_1
 10
0
 20
0
 30
0
 70
128
 71
231
 72
232
 73
240
 74
239
 0
VERTEX
 8
CUERPO_1
 10
0
 20
0
 30
0
 70
128
 71
233
 72
234
 73
242
 74
241
 0
VERTEX
 8
CUERPO_1
 10
0
 20
0
 30
0
 70
128
 71
235
 72
236
 73
244
 74
243
 0
VERTEX
 8
CUERPO_1
 10
0
 20
0
 30
0
 70
128
 71
237
 72
238
 73
246
 74
245
 0
VERTEX
 8
CUERPO_1
 10
0
 20
0
 30
0
 70
128
 71
239
 72
240
 73
248
 74
247
 0
VERTEX
 8
CUERPO_1
 10
0
 20
0
 30
0
 70
128
 71
241
 72
242
 73
250
 74
249
 0
VERTEX
 8
CUERPO_1
 10
0
 20
0
 30
0
 70
128
 71
243
 72
244
 73
252
 74
251
 0
VERTEX
 8
CUERPO_1
 10
0
 20
0
 30
0
 70
128
 71
245
 72
246
 73
254
 74
253
 0
VERTEX
 8
CUERPO_1
 10
0
 20
0
 30
0
 70
128
 71
247
 72
248
 73
256
 74
255
 0
VERTEX
 8
CUERPO_1
 10
0
 20
0
 30
0
 70
128
 71
249
 72
250
 73
258
 74
257
 0
VERTEX
 8
CUERPO_1
 10
0
 20
0
 30
0
 70
128
 71
251
 72
252
 73
260
 74
259
 0
VERTEX
 8
CUERPO_1
 10
0
 20
0
 30
0
 70
128
 71
253
 72
254
 73
262
 74
261
 0
VERTEX
 8
CUERPO_1
 10
0
 20
0
 30
0
 70
128
 71
255
 72
256
 73
264
 74
263
 0
VERTEX
 8
CUERPO_1
 10
0
 20
0
 30
0
 70
128
 71
257
 72
258
 73
266
 74
265
 0
VERTEX
 8
CUERPO_1
 10
0
 20
0
 30
0
 70
128
 71
259
 72
260
 73
268
 74
267
 0
VERTEX
 8
CUERPO_1
 10
0
 20
0
 30
0
 70
128
 71
261
 72
262
 73
270
 74
269
 0
VERTEX
 8
CUERPO_1
 10
0
 20
0
 30
0
 70
128
 71
263
 72
264
 73
272
 74
271
 0
VERTEX
 8
CUERPO_1
 10
0
 20
0
 30
0
 70
128
 71
265
 72
266
 73
274
 74
273
 0
VERTEX
 8
CUERPO_1
 10
0
 20
0
 30
0
 70
128
 71
267
 72
268
 73
276
 74
275
 0
VERTEX
 8
CUERPO_1
 10
0
 20
0
 30
0
 70
128
 71
269
 72
270
 73
278
 74
277
 0
VERTEX
 8
CUERPO_1
 10
0
 20
0
 30
0
 70
128
 71
271
 72
272
 73
280
 74
279
 0
VERTEX
 8
CUERPO_1
 10
0
 20
0
 30
0
 70
128
 71
273
 72
274
 73
282
 74
281
 0
VERTEX
 8
CUERPO_1
 10
0
 20
0
 30
0
 70
128
 71
275
 72
276
 73
284
 74
283
 0
VERTEX
 8
CUERPO_1
 10
0
 20
0
 30
0
 70
128
 71
277
 72
278
 73
286
 74
285
 0
VERTEX
 8
CUERPO_1
 10
0
 20
0
 30
0
 70
128
 71
279
 72
280
 73
288
 74
287
 0
VERTEX
 8
CUERPO_1
 10
0
 20
0
 30
0
 70
128
 71
281
 72
282
 73
2
 74
1
 0
VERTEX
 8
CUERPO_1
 10
0
 20
0
 30
0
 70
128
 71
283
 72
284
 73
4
 74
3
 0
VERTEX
 8
CUERPO_1
 10
0
 20
0
 30
0
 70
128
 71
285
 72
286
 73
6
 74
5
 0
VERTEX
 8
CUERPO_1
 10
0
 20
0
 30
0
 70
128
 71
287
 72
288
 73
8
 74
7
 0
VERTEX
 8
CUERPO_1
 10
0
 20
0
 30
0
 70
128
 71
289
 72
290
 73
295
 74
294
 0
VERTEX
 8
CUERPO_1
 10
0
 20
0
 30
0
 70
128
 71
290
 72
291
 73
296
 74
295
 0
VERTEX
 8
CUERPO_1
 10
0
 20
0
 30
0
 70
128
 71
291
 72
292
 73
297
 74
296
 0
VERTEX
 8
CUERPO_1
 10
0
 20
0
 30
0
 70
128
 71
292
 72
293
 73
298
 74
297
 0
VERTEX
 8
CUERPO_1
 10
0
 20
0
 30
0
 70
128
 71
295
 72
334
 73
375
 74
294
 0
VERTEX
 8
CUERPO_1
 10
0
 20
0
 30
0
 70
128
 71
375
 72
336
 73
299
 74
294
 0
VERTEX
 8
CUERPO_1
 10
0
 20
0
 30
0
 70
128
 71
374
 72
345
 73
302
 74
302
 0
VERTEX
 8
CUERPO_1
 10
0
 20
0
 30
0
 70
128
 71
302
 72
301
 73
337
 74
376
 0
VERTEX
 8
CUERPO_1
 10
0
 20
0
 30
0
 70
128
 71
340
 72
299
 73
374
 74
373
 0
VERTEX
 8
CUERPO_1
 10
0
 20
0
 30
0
 70
128
 71
299
 72
336
 73
374
 74
374
 0
VERTEX
 8
CUERPO_1
 10
0
 20
0
 30
0
 70
128
 71
302
 72
376
 73
388
 74
388
 0
VERTEX
 8
CUERPO_1
 10
0
 20
0
 30
0
 70
128
 71
302
 72
388
 73
373
 74
374
 0
VERTEX
 8
CUERPO_1
 10
0
 20
0
 30
0
 70
128
 71
301
 72
302
 73
307
 74
306
 0
VERTEX
 8
CUERPO_1
 10
0
 20
0
 30
0
 70
128
 71
347
 72
334
 73
295
 74
296
 0
VERTEX
 8
CUERPO_1
 10
0
 20
0
 30
0
 70
128
 71
348
 72
303
 73
302
 74
345
 0
VERTEX
 8
CUERPO_1
 10
0
 20
0
 30
0
 70
128
 71
302
 72
303
 73
308
 74
307
 0
VERTEX
 8
CUERPO_1
 10
0
 20
0
 30
0
 70
128
 71
296
 72
297
 73
350
 74
349
 0
VERTEX
 8
CUERPO_1
 10
0
 20
0
 30
0
 70
128
 71
347
 72
296
 73
349
 74
349
 0
VERTEX
 8
CUERPO_1
 10
0
 20
0
 30
0
 70
128
 71
344
 72
304
 73
351
 74
351
 0
VERTEX
 8
CUERPO_1
 10
0
 20
0
 30
0
 70
128
 71
303
 72
348
 73
351
 74
304
 0
VERTEX
 8
CUERPO_1
 10
0
 20
0
 30
0
 70
128
 71
303
 72
304
 73
309
 74
308
 0
VERTEX
 8
CUERPO_1
 10
0
 20
0
 30
0
 70
128
 71
350
 72
297
 73
298
 74
378
 0
VERTEX
 8
CUERPO_1
 10
0
 20
0
 30
0
 70
128
 71
298
 72
300
 73
355
 74
378
 0
VERTEX
 8
CUERPO_1
 10
0
 20
0
 30
0
 70
128
 71
356
 72
355
 73
300
 74
305
 0
VERTEX
 8
CUERPO_1
 10
0
 20
0
 30
0
 70
128
 71
305
 72
304
 73
344
 74
372
 0
VERTEX
 8
CUERPO_1
 10
0
 20
0
 30
0
 70
128
 71
372
 72
356
 73
305
 74
305
 0
VERTEX
 8
CUERPO_1
 10
0
 20
0
 30
0
 70
128
 71
304
 72
305
 73
310
 74
309
 0
VERTEX
 8
CUERPO_1
 10
0
 20
0
 30
0
 70
128
 71
306
 72
307
 73
312
 74
311
 0
VERTEX
 8
CUERPO_1
 10
0
 20
0
 30
0
 70
128
 71
307
 72
308
 73
313
 74
312
 0
VERTEX
 8
CUERPO_1
 10
0
 20
0
 30
0
 70
128
 71
308
 72
309
 73
314
 74
313
 0
VERTEX
 8
CUERPO_1
 10
0
 20
0
 30
0
 70
128
 71
309
 72
310
 73
315
 74
314
 0
VERTEX
 8
CUERPO_1
 10
0
 20
0
 30
0
 70
128
 71
311
 72
312
 73
317
 74
316
 0
VERTEX
 8
CUERPO_1
 10
0
 20
0
 30
0
 70
128
 71
317
 72
335
 73
386
 74
386
 0
VERTEX
 8
CUERPO_1
 10
0
 20
0
 30
0
 70
128
 71
360
 72
316
 73
317
 74
377
 0
VERTEX
 8
CUERPO_1
 10
0
 20
0
 30
0
 70
128
 71
342
 72
321
 73
386
 74
386
 0
VERTEX
 8
CUERPO_1
 10
0
 20
0
 30
0
 70
128
 71
386
 72
321
 73
353
 74
385
 0
VERTEX
 8
CUERPO_1
 10
0
 20
0
 30
0
 70
128
 71
391
 72
377
 73
317
 74
317
 0
VERTEX
 8
CUERPO_1
 10
0
 20
0
 30
0
 70
128
 71
317
 72
386
 73
385
 74
391
 0
VERTEX
 8
CUERPO_1
 10
0
 20
0
 30
0
 70
128
 71
382
 72
343
 73
290
 74
289
 0
VERTEX
 8
CUERPO_1
 10
0
 20
0
 30
0
 70
128
 71
321
 72
342
 73
382
 74
289
 0
VERTEX
 8
CUERPO_1
 10
0
 20
0
 30
0
 70
128
 71
312
 72
313
 73
318
 74
317
 0
VERTEX
 8
CUERPO_1
 10
0
 20
0
 30
0
 70
128
 71
335
 72
317
 73
318
 74
361
 0
VERTEX
 8
CUERPO_1
 10
0
 20
0
 30
0
 70
128
 71
290
 72
343
 73
369
 74
291
 0
VERTEX
 8
CUERPO_1
 10
0
 20
0
 30
0
 70
128
 71
313
 72
314
 73
319
 74
318
 0
VERTEX
 8
CUERPO_1
 10
0
 20
0
 30
0
 70
128
 71
318
 72
319
 73
365
 74
366
 0
VERTEX
 8
CUERPO_1
 10
0
 20
0
 30
0
 70
128
 71
361
 72
318
 73
366
 74
366
 0
VERTEX
 8
CUERPO_1
 10
0
 20
0
 30
0
 70
128
 71
358
 72
292
 73
359
 74
359
 0
VERTEX
 8
CUERPO_1
 10
0
 20
0
 30
0
 70
128
 71
292
 72
291
 73
369
 74
359
 0
VERTEX
 8
CUERPO_1
 10
0
 20
0
 30
0
 70
128
 71
314
 72
315
 73
320
 74
319
 0
VERTEX
 8
CUERPO_1
 10
0
 20
0
 30
0
 70
128
 71
384
 72
354
 73
319
 74
320
 0
VERTEX
 8
CUERPO_1
 10
0
 20
0
 30
0
 70
128
 71
322
 72
346
 73
384
 74
320
 0
VERTEX
 8
CUERPO_1
 10
0
 20
0
 30
0
 70
128
 71
365
 72
319
 73
354
 74
354
 0
VERTEX
 8
CUERPO_1
 10
0
 20
0
 30
0
 70
128
 71
346
 72
322
 73
367
 74
367
 0
VERTEX
 8
CUERPO_1
 10
0
 20
0
 30
0
 70
128
 71
379
 72
367
 73
322
 74
293
 0
VERTEX
 8
CUERPO_1
 10
0
 20
0
 30
0
 70
128
 71
293
 72
292
 73
358
 74
379
 0
VERTEX
 8
CUERPO_1
 10
0
 20
0
 30
0
 70
128
 71
293
 72
322
 73
300
 74
298
 0
VERTEX
 8
CUERPO_1
 10
0
 20
0
 30
0
 70
128
 71
322
 72
320
 73
305
 74
300
 0
VERTEX
 8
CUERPO_1
 10
0
 20
0
 30
0
 70
128
 71
320
 72
315
 73
310
 74
305
 0
VERTEX
 8
CUERPO_1
 10
0
 20
0
 30
0
 70
128
 71
311
 72
316
 73
301
 74
306
 0
VERTEX
 8
CUERPO_1
 10
0
 20
0
 30
0
 70
128
 71
330
 72
326
 73
323
 74
329
 0
VERTEX
 8
CUERPO_1
 10
0
 20
0
 30
0
 70
128
 71
321
 72
289
 73
294
 74
299
 0
VERTEX
 8
CUERPO_1
 10
0
 20
0
 30
0
 70
128
 71
316
 72
325
 73
324
 74
301
 0
VERTEX
 8
CUERPO_1
 10
0
 20
0
 30
0
 70
128
 71
323
 72
327
 73
352
 74
389
 0
VERTEX
 8
CUERPO_1
 10
0
 20
0
 30
0
 70
128
 71
341
 72
329
 73
323
 74
389
 0
VERTEX
 8
CUERPO_1
 10
0
 20
0
 30
0
 70
128
 71
299
 72
327
 73
328
 74
321
 0
VERTEX
 8
CUERPO_1
 10
0
 20
0
 30
0
 70
128
 71
316
 72
338
 73
381
 74
325
 0
VERTEX
 8
CUERPO_1
 10
0
 20
0
 30
0
 70
128
 71
398
 72
339
 73
332
 74
325
 0
VERTEX
 8
CUERPO_1
 10
0
 20
0
 30
0
 70
128
 71
398
 72
325
 73
381
 74
381
 0
VERTEX
 8
CUERPO_1
 10
0
 20
0
 30
0
 70
128
 71
393
 72
368
 73
331
 74
331
 0
VERTEX
 8
CUERPO_1
 10
0
 20
0
 30
0
 70
128
 71
329
 72
341
 73
380
 74
380
 0
VERTEX
 8
CUERPO_1
 10
0
 20
0
 30
0
 70
128
 71
387
 72
393
 73
331
 74
329
 0
VERTEX
 8
CUERPO_1
 10
0
 20
0
 30
0
 70
128
 71
329
 72
380
 73
387
 74
387
 0
VERTEX
 8
CUERPO_1
 10
0
 20
0
 30
0
 70
128
 71
401
 72
364
 73
301
 74
301
 0
VERTEX
 8
CUERPO_1
 10
0
 20
0
 30
0
 70
128
 71
401
 72
301
 73
370
 74
370
 0
VERTEX
 8
CUERPO_1
 10
0
 20
0
 30
0
 70
128
 71
327
 72
363
 73
383
 74
383
 0
VERTEX
 8
CUERPO_1
 10
0
 20
0
 30
0
 70
128
 71
352
 72
327
 73
383
 74
383
 0
VERTEX
 8
CUERPO_1
 10
0
 20
0
 30
0
 70
128
 71
328
 72
371
 73
321
 74
321
 0
VERTEX
 8
CUERPO_1
 10
0
 20
0
 30
0
 70
128
 71
392
 72
353
 73
321
 74
321
 0
VERTEX
 8
CUERPO_1
 10
0
 20
0
 30
0
 70
128
 71
390
 72
392
 73
321
 74
321
 0
VERTEX
 8
CUERPO_1
 10
0
 20
0
 30
0
 70
128
 71
321
 72
371
 73
390
 74
390
 0
VERTEX
 8
CUERPO_1
 10
0
 20
0
 30
0
 70
128
 71
362
 72
316
 73
360
 74
360
 0
VERTEX
 8
CUERPO_1
 10
0
 20
0
 30
0
 70
128
 71
327
 72
323
 73
326
 74
328
 0
VERTEX
 8
CUERPO_1
 10
0
 20
0
 30
0
 70
128
 71
394
 72
370
 73
301
 74
324
 0
VERTEX
 8
CUERPO_1
 10
0
 20
0
 30
0
 70
128
 71
324
 72
331
 73
368
 74
395
 0
VERTEX
 8
CUERPO_1
 10
0
 20
0
 30
0
 70
128
 71
395
 72
394
 73
324
 74
324
 0
VERTEX
 8
CUERPO_1
 10
0
 20
0
 30
0
 70
128
 71
333
 72
328
 73
326
 74
396
 0
VERTEX
 8
CUERPO_1
 10
0
 20
0
 30
0
 70
128
 71
326
 72
330
 73
357
 74
396
 0
VERTEX
 8
CUERPO_1
 10
0
 20
0
 30
0
 70
128
 71
329
 72
331
 73
332
 74
330
 0
VERTEX
 8
CUERPO_1
 10
0
 20
0
 30
0
 70
128
 71
363
 72
327
 73
299
 74
397
 0
VERTEX
 8
CUERPO_1
 10
0
 20
0
 30
0
 70
128
 71
299
 72
340
 73
397
 74
397
 0
VERTEX
 8
CUERPO_1
 10
0
 20
0
 30
0
 70
128
 71
337
 72
301
 73
364
 74
364
 0
VERTEX
 8
CUERPO_1
 10
0
 20
0
 30
0
 70
128
 71
332
 72
339
 73
402
 74
402
 0
VERTEX
 8
CUERPO_1
 10
0
 20
0
 30
0
 70
128
 71
399
 72
357
 73
330
 74
330
 0
VERTEX
 8
CUERPO_1
 10
0
 20
0
 30
0
 70
128
 71
332
 72
402
 73
403
 74
330
 0
VERTEX
 8
CUERPO_1
 10
0
 20
0
 30
0
 70
128
 71
403
 72
399
 73
330
 74
330
 0
VERTEX
 8
CUERPO_1
 10
0
 20
0
 30
0
 70
128
 71
316
 72
362
 73
400
 74
400
 0
VERTEX
 8
CUERPO_1
 10
0
 20
0
 30
0
 70
128
 71
338
 72
316
 73
400
 74
400
 0
VERTEX
 8
CUERPO_1
 10
0
 20
0
 30
0
 70
128
 71
371
 72
328
 73
333
 74
333
 0
VERTEX
 8
CUERPO_1
 10
0
 20
0
 30
0
 70
128
 71
331
 72
324
 73
325
 74
332
 0
VERTEX
 8
CUERPO_1
 10
0
 20
0
 30
0
 70
128
 71
419
 72
455
 73
473
 74
428
 0
VERTEX
 8
CUERPO_1
 10
0
 20
0
 30
0
 70
128
 71
405
 72
473
 73
455
 74
429
 0
VERTEX
 8
CUERPO_1
 10
0
 20
0
 30
0
 70
128
 71
429
 72
462
 73
469
 74
470
 0
VERTEX
 8
CUERPO_1
 10
0
 20
0
 30
0
 70
128
 71
421
 72
469
 73
462
 74
434
 0
VERTEX
 8
CUERPO_1
 10
0
 20
0
 30
0
 70
128
 71
405
 72
429
 73
470
 74
470
 0
VERTEX
 8
CUERPO_1
 10
0
 20
0
 30
0
 70
128
 71
432
 72
413
 73
463
 74
463
 0
VERTEX
 8
CUERPO_1
 10
0
 20
0
 30
0
 70
128
 71
463
 72
413
 73
421
 74
434
 0
VERTEX
 8
CUERPO_1
 10
0
 20
0
 30
0
 70
128
 71
425
 72
426
 73
427
 74
410
 0
VERTEX
 8
CUERPO_1
 10
0
 20
0
 30
0
 70
128
 71
426
 72
425
 73
453
 74
453
 0
VERTEX
 8
CUERPO_1
 10
0
 20
0
 30
0
 70
128
 71
416
 72
467
 73
414
 74
414
 0
VERTEX
 8
CUERPO_1
 10
0
 20
0
 30
0
 70
128
 71
426
 72
453
 73
414
 74
467
 0
VERTEX
 8
CUERPO_1
 10
0
 20
0
 30
0
 70
128
 71
408
 72
452
 73
464
 74
447
 0
VERTEX
 8
CUERPO_1
 10
0
 20
0
 30
0
 70
128
 71
447
 72
407
 73
408
 74
408
 0
VERTEX
 8
CUERPO_1
 10
0
 20
0
 30
0
 70
128
 71
471
 72
416
 73
414
 74
464
 0
VERTEX
 8
CUERPO_1
 10
0
 20
0
 30
0
 70
128
 71
452
 72
471
 73
464
 74
464
 0
VERTEX
 8
CUERPO_1
 10
0
 20
0
 30
0
 70
128
 71
406
 72
450
 73
443
 74
409
 0
VERTEX
 8
CUERPO_1
 10
0
 20
0
 30
0
 70
128
 71
432
 72
443
 73
450
 74
413
 0
VERTEX
 8
CUERPO_1
 10
0
 20
0
 30
0
 70
128
 71
411
 72
430
 73
406
 74
409
 0
VERTEX
 8
CUERPO_1
 10
0
 20
0
 30
0
 70
128
 71
408
 72
407
 73
430
 74
411
 0
VERTEX
 8
CUERPO_1
 10
0
 20
0
 30
0
 70
128
 71
427
 72
468
 73
410
 74
410
 0
VERTEX
 8
CUERPO_1
 10
0
 20
0
 30
0
 70
128
 71
415
 72
472
 73
417
 74
417
 0
VERTEX
 8
CUERPO_1
 10
0
 20
0
 30
0
 70
128
 71
410
 72
468
 73
417
 74
472
 0
VERTEX
 8
CUERPO_1
 10
0
 20
0
 30
0
 70
128
 71
415
 72
417
 73
418
 74
435
 0
VERTEX
 8
CUERPO_1
 10
0
 20
0
 30
0
 70
128
 71
435
 72
418
 73
419
 74
428
 0
VERTEX
 8
CUERPO_1
 10
0
 20
0
 30
0
 70
128
 71
404
 72
449
 73
422
 74
422
 0
VERTEX
 8
CUERPO_1
 10
0
 20
0
 30
0
 70
128
 71
424
 72
433
 73
456
 74
451
 0
VERTEX
 8
CUERPO_1
 10
0
 20
0
 30
0
 70
128
 71
444
 72
457
 73
440
 74
433
 0
VERTEX
 8
CUERPO_1
 10
0
 20
0
 30
0
 70
128
 71
449
 72
440
 73
446
 74
422
 0
VERTEX
 8
CUERPO_1
 10
0
 20
0
 30
0
 70
128
 71
456
 72
433
 73
440
 74
440
 0
VERTEX
 8
CUERPO_1
 10
0
 20
0
 30
0
 70
128
 71
457
 72
465
 73
440
 74
440
 0
VERTEX
 8
CUERPO_1
 10
0
 20
0
 30
0
 70
128
 71
446
 72
440
 73
465
 74
465
 0
VERTEX
 8
CUERPO_1
 10
0
 20
0
 30
0
 70
128
 71
431
 72
454
 73
412
 74
412
 0
VERTEX
 8
CUERPO_1
 10
0
 20
0
 30
0
 70
128
 71
423
 72
420
 73
466
 74
466
 0
VERTEX
 8
CUERPO_1
 10
0
 20
0
 30
0
 70
128
 71
442
 72
466
 73
420
 74
474
 0
VERTEX
 8
CUERPO_1
 10
0
 20
0
 30
0
 70
128
 71
436
 72
445
 73
460
 74
460
 0
VERTEX
 8
CUERPO_1
 10
0
 20
0
 30
0
 70
128
 71
437
 72
412
 73
454
 74
460
 0
VERTEX
 8
CUERPO_1
 10
0
 20
0
 30
0
 70
128
 71
437
 72
460
 73
458
 74
458
 0
VERTEX
 8
CUERPO_1
 10
0
 20
0
 30
0
 70
128
 71
458
 72
460
 73
445
 74
445
 0
VERTEX
 8
CUERPO_1
 10
0
 20
0
 30
0
 70
128
 71
436
 72
460
 73
474
 74
420
 0
VERTEX
 8
CUERPO_1
 10
0
 20
0
 30
0
 70
128
 71
424
 72
441
 73
433
 74
433
 0
VERTEX
 8
CUERPO_1
 10
0
 20
0
 30
0
 70
128
 71
423
 72
439
 73
420
 74
420
 0
VERTEX
 8
CUERPO_1
 10
0
 20
0
 30
0
 70
128
 71
438
 72
420
 73
439
 74
441
 0
VERTEX
 8
CUERPO_1
 10
0
 20
0
 30
0
 70
128
 71
461
 72
433
 73
441
 74
439
 0
VERTEX
 8
CUERPO_1
 10
0
 20
0
 30
0
 70
128
 71
412
 72
459
 73
431
 74
431
 0
VERTEX
 8
CUERPO_1
 10
0
 20
0
 30
0
 70
128
 71
422
 72
448
 73
404
 74
404
 0
VERTEX
 8
CUERPO_1
 10
0
 20
0
 30
0
 70
128
 71
431
 72
459
 73
404
 74
448
 0
VERTEX
 8
CUERPO_1
 10
0
 20
0
 30
0
 70
128
 71
475
 72
476
 73
478
 74
477
 0
VERTEX
 8
CUERPO_1
 10
0
 20
0
 30
0
 70
128
 71
477
 72
478
 73
480
 74
479
 0
VERTEX
 8
CUERPO_1
 10
0
 20
0
 30
0
 70
128
 71
479
 72
480
 73
482
 74
481
 0
VERTEX
 8
CUERPO_1
 10
0
 20
0
 30
0
 70
128
 71
481
 72
482
 73
476
 74
475
 0
VERTEX
 8
CUERPO_1
 10
0
 20
0
 30
0
 70
128
 71
476
 72
482
 73
480
 74
478
 0
VERTEX
 8
CUERPO_1
 10
0
 20
0
 30
0
 70
128
 71
481
 72
475
 73
477
 74
479
 0
VERTEX
 8
CUERPO_1
 10
0
 20
0
 30
0
 70
128
 71
483
 72
484
 73
486
 74
485
 0
VERTEX
 8
CUERPO_1
 10
0
 20
0
 30
0
 70
128
 71
485
 72
486
 73
488
 74
487
 0
VERTEX
 8
CUERPO_1
 10
0
 20
0
 30
0
 70
128
 71
487
 72
488
 73
490
 74
489
 0
VERTEX
 8
CUERPO_1
 10
0
 20
0
 30
0
 70
128
 71
489
 72
490
 73
484
 74
483
 0
VERTEX
 8
CUERPO_1
 10
0
 20
0
 30
0
 70
128
 71
484
 72
490
 73
488
 74
486
 0
VERTEX
 8
CUERPO_1
 10
0
 20
0
 30
0
 70
128
 71
489
 72
483
 73
485
 74
487
 0
VERTEX
 8
CUERPO_1
 10
0
 20
0
 30
0
 70
128
 71
491
 72
493
 73
497
 74
497
 0
VERTEX
 8
CUERPO_1
 10
0
 20
0
 30
0
 70
128
 71
494
 72
495
 73
499
 74
498
 0
VERTEX
 8
CUERPO_1
 10
0
 20
0
 30
0
 70
128
 71
496
 72
492
 73
500
 74
500
 0
VERTEX
 8
CUERPO_1
 10
0
 20
0
 30
0
 70
128
 71
491
 72
497
 73
501
 74
501
 0
VERTEX
 8
CUERPO_1
 10
0
 20
0
 30
0
 70
128
 71
498
 72
499
 73
503
 74
502
 0
VERTEX
 8
CUERPO_1
 10
0
 20
0
 30
0
 70
128
 71
500
 72
492
 73
504
 74
504
 0
VERTEX
 8
CUERPO_1
 10
0
 20
0
 30
0
 70
128
 71
491
 72
501
 73
505
 74
505
 0
VERTEX
 8
CUERPO_1
 10
0
 20
0
 30
0
 70
128
 71
502
 72
503
 73
507
 74
506
 0
VERTEX
 8
CUERPO_1
 10
0
 20
0
 30
0
 70
128
 71
504
 72
492
 73
508
 74
508
 0
VERTEX
 8
CUERPO_1
 10
0
 20
0
 30
0
 70
128
 71
491
 72
505
 73
509
 74
509
 0
VERTEX
 8
CUERPO_1
 10
0
 20
0
 30
0
 70
128
 71
506
 72
507
 73
511
 74
510
 0
VERTEX
 8
CUERPO_1
 10
0
 20
0
 30
0
 70
128
 71
508
 72
492
 73
512
 74
512
 0
VERTEX
 8
CUERPO_1
 10
0
 20
0
 30
0
 70
128
 71
491
 72
509
 73
513
 74
513
 0
VERTEX
 8
CUERPO_1
 10
0
 20
0
 30
0
 70
128
 71
510
 72
511
 73
515
 74
514
 0
VERTEX
 8
CUERPO_1
 10
0
 20
0
 30
0
 70
128
 71
512
 72
492
 73
516
 74
516
 0
VERTEX
 8
CUERPO_1
 10
0
 20
0
 30
0
 70
128
 71
491
 72
513
 73
517
 74
517
 0
VERTEX
 8
CUERPO_1
 10
0
 20
0
 30
0
 70
128
 71
514
 72
515
 73
519
 74
518
 0
VERTEX
 8
CUERPO_1
 10
0
 20
0
 30
0
 70
128
 71
516
 72
492
 73
520
 74
520
 0
VERTEX
 8
CUERPO_1
 10
0
 20
0
 30
0
 70
128
 71
491
 72
517
 73
521
 74
521
 0
VERTEX
 8
CUERPO_1
 10
0
 20
0
 30
0
 70
128
 71
518
 72
519
 73
523
 74
522
 0
VERTEX
 8
CUERPO_1
 10
0
 20
0
 30
0
 70
128
 71
520
 72
492
 73
524
 74
524
 0
VERTEX
 8
CUERPO_1
 10
0
 20
0
 30
0
 70
128
 71
491
 72
521
 73
525
 74
525
 0
VERTEX
 8
CUERPO_1
 10
0
 20
0
 30
0
 70
128
 71
522
 72
523
 73
527
 74
526
 0
VERTEX
 8
CUERPO_1
 10
0
 20
0
 30
0
 70
128
 71
524
 72
492
 73
528
 74
528
 0
VERTEX
 8
CUERPO_1
 10
0
 20
0
 30
0
 70
128
 71
491
 72
525
 73
529
 74
529
 0
VERTEX
 8
CUERPO_1
 10
0
 20
0
 30
0
 70
128
 71
526
 72
527
 73
531
 74
530
 0
VERTEX
 8
CUERPO_1
 10
0
 20
0
 30
0
 70
128
 71
528
 72
492
 73
532
 74
532
 0
VERTEX
 8
CUERPO_1
 10
0
 20
0
 30
0
 70
128
 71
491
 72
529
 73
533
 74
533
 0
VERTEX
 8
CUERPO_1
 10
0
 20
0
 30
0
 70
128
 71
530
 72
531
 73
535
 74
534
 0
VERTEX
 8
CUERPO_1
 10
0
 20
0
 30
0
 70
128
 71
532
 72
492
 73
536
 74
536
 0
VERTEX
 8
CUERPO_1
 10
0
 20
0
 30
0
 70
128
 71
491
 72
533
 73
537
 74
537
 0
VERTEX
 8
CUERPO_1
 10
0
 20
0
 30
0
 70
128
 71
534
 72
535
 73
539
 74
538
 0
VERTEX
 8
CUERPO_1
 10
0
 20
0
 30
0
 70
128
 71
536
 72
492
 73
540
 74
540
 0
VERTEX
 8
CUERPO_1
 10
0
 20
0
 30
0
 70
128
 71
491
 72
537
 73
541
 74
541
 0
VERTEX
 8
CUERPO_1
 10
0
 20
0
 30
0
 70
128
 71
538
 72
539
 73
543
 74
542
 0
VERTEX
 8
CUERPO_1
 10
0
 20
0
 30
0
 70
128
 71
540
 72
492
 73
544
 74
544
 0
VERTEX
 8
CUERPO_1
 10
0
 20
0
 30
0
 70
128
 71
491
 72
541
 73
545
 74
545
 0
VERTEX
 8
CUERPO_1
 10
0
 20
0
 30
0
 70
128
 71
542
 72
543
 73
547
 74
546
 0
VERTEX
 8
CUERPO_1
 10
0
 20
0
 30
0
 70
128
 71
544
 72
492
 73
548
 74
548
 0
VERTEX
 8
CUERPO_1
 10
0
 20
0
 30
0
 70
128
 71
491
 72
545
 73
549
 74
549
 0
VERTEX
 8
CUERPO_1
 10
0
 20
0
 30
0
 70
128
 71
546
 72
547
 73
551
 74
550
 0
VERTEX
 8
CUERPO_1
 10
0
 20
0
 30
0
 70
128
 71
548
 72
492
 73
552
 74
552
 0
VERTEX
 8
CUERPO_1
 10
0
 20
0
 30
0
 70
128
 71
491
 72
549
 73
553
 74
553
 0
VERTEX
 8
CUERPO_1
 10
0
 20
0
 30
0
 70
128
 71
550
 72
551
 73
555
 74
554
 0
VERTEX
 8
CUERPO_1
 10
0
 20
0
 30
0
 70
128
 71
552
 72
492
 73
556
 74
556
 0
VERTEX
 8
CUERPO_1
 10
0
 20
0
 30
0
 70
128
 71
491
 72
553
 73
557
 74
557
 0
VERTEX
 8
CUERPO_1
 10
0
 20
0
 30
0
 70
128
 71
554
 72
555
 73
559
 74
558
 0
VERTEX
 8
CUERPO_1
 10
0
 20
0
 30
0
 70
128
 71
556
 72
492
 73
560
 74
560
 0
VERTEX
 8
CUERPO_1
 10
0
 20
0
 30
0
 70
128
 71
491
 72
557
 73
561
 74
561
 0
VERTEX
 8
CUERPO_1
 10
0
 20
0
 30
0
 70
128
 71
558
 72
559
 73
563
 74
562
 0
VERTEX
 8
CUERPO_1
 10
0
 20
0
 30
0
 70
128
 71
560
 72
492
 73
564
 74
564
 0
VERTEX
 8
CUERPO_1
 10
0
 20
0
 30
0
 70
128
 71
491
 72
561
 73
565
 74
565
 0
VERTEX
 8
CUERPO_1
 10
0
 20
0
 30
0
 70
128
 71
562
 72
563
 73
567
 74
566
 0
VERTEX
 8
CUERPO_1
 10
0
 20
0
 30
0
 70
128
 71
564
 72
492
 73
568
 74
568
 0
VERTEX
 8
CUERPO_1
 10
0
 20
0
 30
0
 70
128
 71
491
 72
565
 73
569
 74
569
 0
VERTEX
 8
CUERPO_1
 10
0
 20
0
 30
0
 70
128
 71
566
 72
567
 73
571
 74
570
 0
VERTEX
 8
CUERPO_1
 10
0
 20
0
 30
0
 70
128
 71
568
 72
492
 73
572
 74
572
 0
VERTEX
 8
CUERPO_1
 10
0
 20
0
 30
0
 70
128
 71
491
 72
569
 73
573
 74
573
 0
VERTEX
 8
CUERPO_1
 10
0
 20
0
 30
0
 70
128
 71
570
 72
571
 73
575
 74
574
 0
VERTEX
 8
CUERPO_1
 10
0
 20
0
 30
0
 70
128
 71
572
 72
492
 73
576
 74
576
 0
VERTEX
 8
CUERPO_1
 10
0
 20
0
 30
0
 70
128
 71
491
 72
573
 73
577
 74
577
 0
VERTEX
 8
CUERPO_1
 10
0
 20
0
 30
0
 70
128
 71
574
 72
575
 73
579
 74
578
 0
VERTEX
 8
CUERPO_1
 10
0
 20
0
 30
0
 70
128
 71
576
 72
492
 73
580
 74
580
 0
VERTEX
 8
CUERPO_1
 10
0
 20
0
 30
0
 70
128
 71
491
 72
577
 73
581
 74
581
 0
VERTEX
 8
CUERPO_1
 10
0
 20
0
 30
0
 70
128
 71
578
 72
579
 73
583
 74
582
 0
VERTEX
 8
CUERPO_1
 10
0
 20
0
 30
0
 70
128
 71
580
 72
492
 73
584
 74
584
 0
VERTEX
 8
CUERPO_1
 10
0
 20
0
 30
0
 70
128
 71
491
 72
581
 73
585
 74
585
 0
VERTEX
 8
CUERPO_1
 10
0
 20
0
 30
0
 70
128
 71
582
 72
583
 73
587
 74
586
 0
VERTEX
 8
CUERPO_1
 10
0
 20
0
 30
0
 70
128
 71
584
 72
492
 73
588
 74
588
 0
VERTEX
 8
CUERPO_1
 10
0
 20
0
 30
0
 70
128
 71
491
 72
585
 73
589
 74
589
 0
VERTEX
 8
CUERPO_1
 10
0
 20
0
 30
0
 70
128
 71
586
 72
587
 73
591
 74
590
 0
VERTEX
 8
CUERPO_1
 10
0
 20
0
 30
0
 70
128
 71
588
 72
492
 73
592
 74
592
 0
VERTEX
 8
CUERPO_1
 10
0
 20
0
 30
0
 70
128
 71
491
 72
589
 73
593
 74
593
 0
VERTEX
 8
CUERPO_1
 10
0
 20
0
 30
0
 70
128
 71
590
 72
591
 73
595
 74
594
 0
VERTEX
 8
CUERPO_1
 10
0
 20
0
 30
0
 70
128
 71
592
 72
492
 73
596
 74
596
 0
VERTEX
 8
CUERPO_1
 10
0
 20
0
 30
0
 70
128
 71
491
 72
593
 73
597
 74
597
 0
VERTEX
 8
CUERPO_1
 10
0
 20
0
 30
0
 70
128
 71
594
 72
595
 73
599
 74
598
 0
VERTEX
 8
CUERPO_1
 10
0
 20
0
 30
0
 70
128
 71
596
 72
492
 73
600
 74
600
 0
VERTEX
 8
CUERPO_1
 10
0
 20
0
 30
0
 70
128
 71
491
 72
597
 73
601
 74
601
 0
VERTEX
 8
CUERPO_1
 10
0
 20
0
 30
0
 70
128
 71
598
 72
599
 73
603
 74
602
 0
VERTEX
 8
CUERPO_1
 10
0
 20
0
 30
0
 70
128
 71
600
 72
492
 73
604
 74
604
 0
VERTEX
 8
CUERPO_1
 10
0
 20
0
 30
0
 70
128
 71
491
 72
601
 73
605
 74
605
 0
VERTEX
 8
CUERPO_1
 10
0
 20
0
 30
0
 70
128
 71
602
 72
603
 73
607
 74
606
 0
VERTEX
 8
CUERPO_1
 10
0
 20
0
 30
0
 70
128
 71
604
 72
492
 73
608
 74
608
 0
VERTEX
 8
CUERPO_1
 10
0
 20
0
 30
0
 70
128
 71
491
 72
605
 73
609
 74
609
 0
VERTEX
 8
CUERPO_1
 10
0
 20
0
 30
0
 70
128
 71
606
 72
607
 73
611
 74
610
 0
VERTEX
 8
CUERPO_1
 10
0
 20
0
 30
0
 70
128
 71
608
 72
492
 73
612
 74
612
 0
VERTEX
 8
CUERPO_1
 10
0
 20
0
 30
0
 70
128
 71
491
 72
609
 73
613
 74
613
 0
VERTEX
 8
CUERPO_1
 10
0
 20
0
 30
0
 70
128
 71
610
 72
611
 73
615
 74
614
 0
VERTEX
 8
CUERPO_1
 10
0
 20
0
 30
0
 70
128
 71
612
 72
492
 73
616
 74
616
 0
VERTEX
 8
CUERPO_1
 10
0
 20
0
 30
0
 70
128
 71
491
 72
613
 73
617
 74
617
 0
VERTEX
 8
CUERPO_1
 10
0
 20
0
 30
0
 70
128
 71
614
 72
615
 73
619
 74
618
 0
VERTEX
 8
CUERPO_1
 10
0
 20
0
 30
0
 70
128
 71
616
 72
492
 73
620
 74
620
 0
VERTEX
 8
CUERPO_1
 10
0
 20
0
 30
0
 70
128
 71
491
 72
617
 73
621
 74
621
 0
VERTEX
 8
CUERPO_1
 10
0
 20
0
 30
0
 70
128
 71
618
 72
619
 73
623
 74
622
 0
VERTEX
 8
CUERPO_1
 10
0
 20
0
 30
0
 70
128
 71
620
 72
492
 73
624
 74
624
 0
VERTEX
 8
CUERPO_1
 10
0
 20
0
 30
0
 70
128
 71
491
 72
621
 73
625
 74
625
 0
VERTEX
 8
CUERPO_1
 10
0
 20
0
 30
0
 70
128
 71
622
 72
623
 73
627
 74
626
 0
VERTEX
 8
CUERPO_1
 10
0
 20
0
 30
0
 70
128
 71
624
 72
492
 73
628
 74
628
 0
VERTEX
 8
CUERPO_1
 10
0
 20
0
 30
0
 70
128
 71
491
 72
625
 73
629
 74
629
 0
VERTEX
 8
CUERPO_1
 10
0
 20
0
 30
0
 70
128
 71
626
 72
627
 73
631
 74
630
 0
VERTEX
 8
CUERPO_1
 10
0
 20
0
 30
0
 70
128
 71
628
 72
492
 73
632
 74
632
 0
VERTEX
 8
CUERPO_1
 10
0
 20
0
 30
0
 70
128
 71
491
 72
629
 73
633
 74
633
 0
VERTEX
 8
CUERPO_1
 10
0
 20
0
 30
0
 70
128
 71
630
 72
631
 73
635
 74
634
 0
VERTEX
 8
CUERPO_1
 10
0
 20
0
 30
0
 70
128
 71
632
 72
492
 73
636
 74
636
 0
VERTEX
 8
CUERPO_1
 10
0
 20
0
 30
0
 70
128
 71
491
 72
633
 73
493
 74
493
 0
VERTEX
 8
CUERPO_1
 10
0
 20
0
 30
0
 70
128
 71
634
 72
635
 73
495
 74
494
 0
VERTEX
 8
CUERPO_1
 10
0
 20
0
 30
0
 70
128
 71
636
 72
492
 73
496
 74
496
 0
VERTEX
 8
CUERPO_1
 10
0
 20
0
 30
0
 70
128
 71
645
 72
646
 73
648
 74
647
 0
VERTEX
 8
CUERPO_1
 10
0
 20
0
 30
0
 70
128
 71
639
 72
640
 73
642
 74
641
 0
VERTEX
 8
CUERPO_1
 10
0
 20
0
 30
0
 70
128
 71
641
 72
642
 73
644
 74
643
 0
VERTEX
 8
CUERPO_1
 10
0
 20
0
 30
0
 70
128
 71
643
 72
644
 73
638
 74
637
 0
VERTEX
 8
CUERPO_1
 10
0
 20
0
 30
0
 70
128
 71
638
 72
644
 73
642
 74
640
 0
VERTEX
 8
CUERPO_1
 10
0
 20
0
 30
0
 70
128
 71
643
 72
637
 73
639
 74
641
 0
VERTEX
 8
CUERPO_1
 10
0
 20
0
 30
0
 70
128
 71
637
 72
645
 73
647
 74
639
 0
VERTEX
 8
CUERPO_1
 10
0
 20
0
 30
0
 70
128
 71
639
 72
647
 73
648
 74
640
 0
VERTEX
 8
CUERPO_1
 10
0
 20
0
 30
0
 70
128
 71
640
 72
648
 73
646
 74
638
 0
VERTEX
 8
CUERPO_1
 10
0
 20
0
 30
0
 70
128
 71
638
 72
646
 73
645
 74
637
 0
VERTEX
 8
CUERPO_1
 10
0
 20
0
 30
0
 70
128
 71
649
 72
651
 73
655
 74
655
 0
VERTEX
 8
CUERPO_1
 10
0
 20
0
 30
0
 70
128
 71
652
 72
653
 73
657
 74
656
 0
VERTEX
 8
CUERPO_1
 10
0
 20
0
 30
0
 70
128
 71
654
 72
650
 73
658
 74
658
 0
VERTEX
 8
CUERPO_1
 10
0
 20
0
 30
0
 70
128
 71
649
 72
655
 73
659
 74
659
 0
VERTEX
 8
CUERPO_1
 10
0
 20
0
 30
0
 70
128
 71
656
 72
657
 73
661
 74
660
 0
VERTEX
 8
CUERPO_1
 10
0
 20
0
 30
0
 70
128
 71
658
 72
650
 73
662
 74
662
 0
VERTEX
 8
CUERPO_1
 10
0
 20
0
 30
0
 70
128
 71
649
 72
659
 73
663
 74
663
 0
VERTEX
 8
CUERPO_1
 10
0
 20
0
 30
0
 70
128
 71
660
 72
661
 73
665
 74
664
 0
VERTEX
 8
CUERPO_1
 10
0
 20
0
 30
0
 70
128
 71
662
 72
650
 73
666
 74
666
 0
VERTEX
 8
CUERPO_1
 10
0
 20
0
 30
0
 70
128
 71
649
 72
663
 73
667
 74
667
 0
VERTEX
 8
CUERPO_1
 10
0
 20
0
 30
0
 70
128
 71
664
 72
665
 73
669
 74
668
 0
VERTEX
 8
CUERPO_1
 10
0
 20
0
 30
0
 70
128
 71
666
 72
650
 73
670
 74
670
 0
VERTEX
 8
CUERPO_1
 10
0
 20
0
 30
0
 70
128
 71
649
 72
667
 73
671
 74
671
 0
VERTEX
 8
CUERPO_1
 10
0
 20
0
 30
0
 70
128
 71
668
 72
669
 73
673
 74
672
 0
VERTEX
 8
CUERPO_1
 10
0
 20
0
 30
0
 70
128
 71
670
 72
650
 73
674
 74
674
 0
VERTEX
 8
CUERPO_1
 10
0
 20
0
 30
0
 70
128
 71
649
 72
671
 73
675
 74
675
 0
VERTEX
 8
CUERPO_1
 10
0
 20
0
 30
0
 70
128
 71
672
 72
673
 73
677
 74
676
 0
VERTEX
 8
CUERPO_1
 10
0
 20
0
 30
0
 70
128
 71
674
 72
650
 73
678
 74
678
 0
VERTEX
 8
CUERPO_1
 10
0
 20
0
 30
0
 70
128
 71
649
 72
675
 73
679
 74
679
 0
VERTEX
 8
CUERPO_1
 10
0
 20
0
 30
0
 70
128
 71
676
 72
677
 73
681
 74
680
 0
VERTEX
 8
CUERPO_1
 10
0
 20
0
 30
0
 70
128
 71
678
 72
650
 73
682
 74
682
 0
VERTEX
 8
CUERPO_1
 10
0
 20
0
 30
0
 70
128
 71
649
 72
679
 73
683
 74
683
 0
VERTEX
 8
CUERPO_1
 10
0
 20
0
 30
0
 70
128
 71
680
 72
681
 73
685
 74
684
 0
VERTEX
 8
CUERPO_1
 10
0
 20
0
 30
0
 70
128
 71
682
 72
650
 73
686
 74
686
 0
VERTEX
 8
CUERPO_1
 10
0
 20
0
 30
0
 70
128
 71
649
 72
683
 73
687
 74
687
 0
VERTEX
 8
CUERPO_1
 10
0
 20
0
 30
0
 70
128
 71
684
 72
685
 73
689
 74
688
 0
VERTEX
 8
CUERPO_1
 10
0
 20
0
 30
0
 70
128
 71
686
 72
650
 73
690
 74
690
 0
VERTEX
 8
CUERPO_1
 10
0
 20
0
 30
0
 70
128
 71
649
 72
687
 73
691
 74
691
 0
VERTEX
 8
CUERPO_1
 10
0
 20
0
 30
0
 70
128
 71
688
 72
689
 73
693
 74
692
 0
VERTEX
 8
CUERPO_1
 10
0
 20
0
 30
0
 70
128
 71
690
 72
650
 73
694
 74
694
 0
VERTEX
 8
CUERPO_1
 10
0
 20
0
 30
0
 70
128
 71
649
 72
691
 73
695
 74
695
 0
VERTEX
 8
CUERPO_1
 10
0
 20
0
 30
0
 70
128
 71
692
 72
693
 73
697
 74
696
 0
VERTEX
 8
CUERPO_1
 10
0
 20
0
 30
0
 70
128
 71
694
 72
650
 73
698
 74
698
 0
VERTEX
 8
CUERPO_1
 10
0
 20
0
 30
0
 70
128
 71
649
 72
695
 73
699
 74
699
 0
VERTEX
 8
CUERPO_1
 10
0
 20
0
 30
0
 70
128
 71
696
 72
697
 73
701
 74
700
 0
VERTEX
 8
CUERPO_1
 10
0
 20
0
 30
0
 70
128
 71
698
 72
650
 73
702
 74
702
 0
VERTEX
 8
CUERPO_1
 10
0
 20
0
 30
0
 70
128
 71
649
 72
699
 73
703
 74
703
 0
VERTEX
 8
CUERPO_1
 10
0
 20
0
 30
0
 70
128
 71
700
 72
701
 73
705
 74
704
 0
VERTEX
 8
CUERPO_1
 10
0
 20
0
 30
0
 70
128
 71
702
 72
650
 73
706
 74
706
 0
VERTEX
 8
CUERPO_1
 10
0
 20
0
 30
0
 70
128
 71
649
 72
703
 73
707
 74
707
 0
VERTEX
 8
CUERPO_1
 10
0
 20
0
 30
0
 70
128
 71
704
 72
705
 73
709
 74
708
 0
VERTEX
 8
CUERPO_1
 10
0
 20
0
 30
0
 70
128
 71
706
 72
650
 73
710
 74
710
 0
VERTEX
 8
CUERPO_1
 10
0
 20
0
 30
0
 70
128
 71
649
 72
707
 73
711
 74
711
 0
VERTEX
 8
CUERPO_1
 10
0
 20
0
 30
0
 70
128
 71
708
 72
709
 73
713
 74
712
 0
VERTEX
 8
CUERPO_1
 10
0
 20
0
 30
0
 70
128
 71
710
 72
650
 73
714
 74
714
 0
VERTEX
 8
CUERPO_1
 10
0
 20
0
 30
0
 70
128
 71
649
 72
711
 73
715
 74
715
 0
VERTEX
 8
CUERPO_1
 10
0
 20
0
 30
0
 70
128
 71
712
 72
713
 73
717
 74
716
 0
VERTEX
 8
CUERPO_1
 10
0
 20
0
 30
0
 70
128
 71
714
 72
650
 73
718
 74
718
 0
VERTEX
 8
CUERPO_1
 10
0
 20
0
 30
0
 70
128
 71
649
 72
715
 73
719
 74
719
 0
VERTEX
 8
CUERPO_1
 10
0
 20
0
 30
0
 70
128
 71
716
 72
717
 73
721
 74
720
 0
VERTEX
 8
CUERPO_1
 10
0
 20
0
 30
0
 70
128
 71
718
 72
650
 73
722
 74
722
 0
VERTEX
 8
CUERPO_1
 10
0
 20
0
 30
0
 70
128
 71
649
 72
719
 73
723
 74
723
 0
VERTEX
 8
CUERPO_1
 10
0
 20
0
 30
0
 70
128
 71
720
 72
721
 73
725
 74
724
 0
VERTEX
 8
CUERPO_1
 10
0
 20
0
 30
0
 70
128
 71
722
 72
650
 73
726
 74
726
 0
VERTEX
 8
CUERPO_1
 10
0
 20
0
 30
0
 70
128
 71
649
 72
723
 73
727
 74
727
 0
VERTEX
 8
CUERPO_1
 10
0
 20
0
 30
0
 70
128
 71
724
 72
725
 73
729
 74
728
 0
VERTEX
 8
CUERPO_1
 10
0
 20
0
 30
0
 70
128
 71
726
 72
650
 73
730
 74
730
 0
VERTEX
 8
CUERPO_1
 10
0
 20
0
 30
0
 70
128
 71
649
 72
727
 73
731
 74
731
 0
VERTEX
 8
CUERPO_1
 10
0
 20
0
 30
0
 70
128
 71
728
 72
729
 73
733
 74
732
 0
VERTEX
 8
CUERPO_1
 10
0
 20
0
 30
0
 70
128
 71
730
 72
650
 73
734
 74
734
 0
VERTEX
 8
CUERPO_1
 10
0
 20
0
 30
0
 70
128
 71
649
 72
731
 73
735
 74
735
 0
VERTEX
 8
CUERPO_1
 10
0
 20
0
 30
0
 70
128
 71
732
 72
733
 73
737
 74
736
 0
VERTEX
 8
CUERPO_1
 10
0
 20
0
 30
0
 70
128
 71
734
 72
650
 73
738
 74
738
 0
VERTEX
 8
CUERPO_1
 10
0
 20
0
 30
0
 70
128
 71
649
 72
735
 73
739
 74
739
 0
VERTEX
 8
CUERPO_1
 10
0
 20
0
 30
0
 70
128
 71
736
 72
737
 73
741
 74
740
 0
VERTEX
 8
CUERPO_1
 10
0
 20
0
 30
0
 70
128
 71
738
 72
650
 73
742
 74
742
 0
VERTEX
 8
CUERPO_1
 10
0
 20
0
 30
0
 70
128
 71
649
 72
739
 73
743
 74
743
 0
VERTEX
 8
CUERPO_1
 10
0
 20
0
 30
0
 70
128
 71
740
 72
741
 73
745
 74
744
 0
VERTEX
 8
CUERPO_1
 10
0
 20
0
 30
0
 70
128
 71
742
 72
650
 73
746
 74
746
 0
VERTEX
 8
CUERPO_1
 10
0
 20
0
 30
0
 70
128
 71
649
 72
743
 73
747
 74
747
 0
VERTEX
 8
CUERPO_1
 10
0
 20
0
 30
0
 70
128
 71
744
 72
745
 73
749
 74
748
 0
VERTEX
 8
CUERPO_1
 10
0
 20
0
 30
0
 70
128
 71
746
 72
650
 73
750
 74
750
 0
VERTEX
 8
CUERPO_1
 10
0
 20
0
 30
0
 70
128
 71
649
 72
747
 73
751
 74
751
 0
VERTEX
 8
CUERPO_1
 10
0
 20
0
 30
0
 70
128
 71
748
 72
749
 73
753
 74
752
 0
VERTEX
 8
CUERPO_1
 10
0
 20
0
 30
0
 70
128
 71
750
 72
650
 73
754
 74
754
 0
VERTEX
 8
CUERPO_1
 10
0
 20
0
 30
0
 70
128
 71
649
 72
751
 73
755
 74
755
 0
VERTEX
 8
CUERPO_1
 10
0
 20
0
 30
0
 70
128
 71
752
 72
753
 73
757
 74
756
 0
VERTEX
 8
CUERPO_1
 10
0
 20
0
 30
0
 70
128
 71
754
 72
650
 73
758
 74
758
 0
VERTEX
 8
CUERPO_1
 10
0
 20
0
 30
0
 70
128
 71
649
 72
755
 73
759
 74
759
 0
VERTEX
 8
CUERPO_1
 10
0
 20
0
 30
0
 70
128
 71
756
 72
757
 73
761
 74
760
 0
VERTEX
 8
CUERPO_1
 10
0
 20
0
 30
0
 70
128
 71
758
 72
650
 73
762
 74
762
 0
VERTEX
 8
CUERPO_1
 10
0
 20
0
 30
0
 70
128
 71
649
 72
759
 73
763
 74
763
 0
VERTEX
 8
CUERPO_1
 10
0
 20
0
 30
0
 70
128
 71
760
 72
761
 73
765
 74
764
 0
VERTEX
 8
CUERPO_1
 10
0
 20
0
 30
0
 70
128
 71
762
 72
650
 73
766
 74
766
 0
VERTEX
 8
CUERPO_1
 10
0
 20
0
 30
0
 70
128
 71
649
 72
763
 73
767
 74
767
 0
VERTEX
 8
CUERPO_1
 10
0
 20
0
 30
0
 70
128
 71
764
 72
765
 73
769
 74
768
 0
VERTEX
 8
CUERPO_1
 10
0
 20
0
 30
0
 70
128
 71
766
 72
650
 73
770
 74
770
 0
VERTEX
 8
CUERPO_1
 10
0
 20
0
 30
0
 70
128
 71
649
 72
767
 73
771
 74
771
 0
VERTEX
 8
CUERPO_1
 10
0
 20
0
 30
0
 70
128
 71
768
 72
769
 73
773
 74
772
 0
VERTEX
 8
CUERPO_1
 10
0
 20
0
 30
0
 70
128
 71
770
 72
650
 73
774
 74
774
 0
VERTEX
 8
CUERPO_1
 10
0
 20
0
 30
0
 70
128
 71
649
 72
771
 73
775
 74
775
 0
VERTEX
 8
CUERPO_1
 10
0
 20
0
 30
0
 70
128
 71
772
 72
773
 73
777
 74
776
 0
VERTEX
 8
CUERPO_1
 10
0
 20
0
 30
0
 70
128
 71
774
 72
650
 73
778
 74
778
 0
VERTEX
 8
CUERPO_1
 10
0
 20
0
 30
0
 70
128
 71
649
 72
775
 73
779
 74
779
 0
VERTEX
 8
CUERPO_1
 10
0
 20
0
 30
0
 70
128
 71
776
 72
777
 73
781
 74
780
 0
VERTEX
 8
CUERPO_1
 10
0
 20
0
 30
0
 70
128
 71
778
 72
650
 73
782
 74
782
 0
VERTEX
 8
CUERPO_1
 10
0
 20
0
 30
0
 70
128
 71
649
 72
779
 73
783
 74
783
 0
VERTEX
 8
CUERPO_1
 10
0
 20
0
 30
0
 70
128
 71
780
 72
781
 73
785
 74
784
 0
VERTEX
 8
CUERPO_1
 10
0
 20
0
 30
0
 70
128
 71
782
 72
650
 73
786
 74
786
 0
VERTEX
 8
CUERPO_1
 10
0
 20
0
 30
0
 70
128
 71
649
 72
783
 73
787
 74
787
 0
VERTEX
 8
CUERPO_1
 10
0
 20
0
 30
0
 70
128
 71
784
 72
785
 73
789
 74
788
 0
VERTEX
 8
CUERPO_1
 10
0
 20
0
 30
0
 70
128
 71
786
 72
650
 73
790
 74
790
 0
VERTEX
 8
CUERPO_1
 10
0
 20
0
 30
0
 70
128
 71
649
 72
787
 73
791
 74
791
 0
VERTEX
 8
CUERPO_1
 10
0
 20
0
 30
0
 70
128
 71
788
 72
789
 73
793
 74
792
 0
VERTEX
 8
CUERPO_1
 10
0
 20
0
 30
0
 70
128
 71
790
 72
650
 73
794
 74
794
 0
VERTEX
 8
CUERPO_1
 10
0
 20
0
 30
0
 70
128
 71
649
 72
791
 73
651
 74
651
 0
VERTEX
 8
CUERPO_1
 10
0
 20
0
 30
0
 70
128
 71
792
 72
793
 73
653
 74
652
 0
VERTEX
 8
CUERPO_1
 10
0
 20
0
 30
0
 70
128
 71
794
 72
650
 73
654
 74
654
 0
VERTEX
 8
CUERPO_1
 10
0
 20
0
 30
0
 70
128
 71
795
 72
796
 73
801
 74
800
 0
VERTEX
 8
CUERPO_1
 10
0
 20
0
 30
0
 70
128
 71
796
 72
797
 73
802
 74
801
 0
VERTEX
 8
CUERPO_1
 10
0
 20
0
 30
0
 70
128
 71
797
 72
798
 73
803
 74
802
 0
VERTEX
 8
CUERPO_1
 10
0
 20
0
 30
0
 70
128
 71
798
 72
799
 73
804
 74
803
 0
VERTEX
 8
CUERPO_1
 10
0
 20
0
 30
0
 70
128
 71
800
 72
801
 73
806
 74
805
 0
VERTEX
 8
CUERPO_1
 10
0
 20
0
 30
0
 70
128
 71
805
 72
806
 73
811
 74
810
 0
VERTEX
 8
CUERPO_1
 10
0
 20
0
 30
0
 70
128
 71
810
 72
811
 73
816
 74
815
 0
VERTEX
 8
CUERPO_1
 10
0
 20
0
 30
0
 70
128
 71
801
 72
802
 73
807
 74
806
 0
VERTEX
 8
CUERPO_1
 10
0
 20
0
 30
0
 70
128
 71
806
 72
807
 73
812
 74
811
 0
VERTEX
 8
CUERPO_1
 10
0
 20
0
 30
0
 70
128
 71
811
 72
812
 73
817
 74
816
 0
VERTEX
 8
CUERPO_1
 10
0
 20
0
 30
0
 70
128
 71
802
 72
803
 73
808
 74
807
 0
VERTEX
 8
CUERPO_1
 10
0
 20
0
 30
0
 70
128
 71
807
 72
808
 73
813
 74
812
 0
VERTEX
 8
CUERPO_1
 10
0
 20
0
 30
0
 70
128
 71
812
 72
813
 73
818
 74
817
 0
VERTEX
 8
CUERPO_1
 10
0
 20
0
 30
0
 70
128
 71
803
 72
804
 73
809
 74
808
 0
VERTEX
 8
CUERPO_1
 10
0
 20
0
 30
0
 70
128
 71
808
 72
809
 73
814
 74
813
 0
VERTEX
 8
CUERPO_1
 10
0
 20
0
 30
0
 70
128
 71
813
 72
814
 73
819
 74
818
 0
VERTEX
 8
CUERPO_1
 10
0
 20
0
 30
0
 70
128
 71
815
 72
816
 73
821
 74
820
 0
VERTEX
 8
CUERPO_1
 10
0
 20
0
 30
0
 70
128
 71
816
 72
817
 73
822
 74
821
 0
VERTEX
 8
CUERPO_1
 10
0
 20
0
 30
0
 70
128
 71
817
 72
818
 73
823
 74
822
 0
VERTEX
 8
CUERPO_1
 10
0
 20
0
 30
0
 70
128
 71
818
 72
819
 73
824
 74
823
 0
VERTEX
 8
CUERPO_1
 10
0
 20
0
 30
0
 70
128
 71
820
 72
821
 73
826
 74
825
 0
VERTEX
 8
CUERPO_1
 10
0
 20
0
 30
0
 70
128
 71
825
 72
826
 73
831
 74
830
 0
VERTEX
 8
CUERPO_1
 10
0
 20
0
 30
0
 70
128
 71
830
 72
831
 73
796
 74
795
 0
VERTEX
 8
CUERPO_1
 10
0
 20
0
 30
0
 70
128
 71
821
 72
822
 73
827
 74
826
 0
VERTEX
 8
CUERPO_1
 10
0
 20
0
 30
0
 70
128
 71
826
 72
827
 73
832
 74
831
 0
VERTEX
 8
CUERPO_1
 10
0
 20
0
 30
0
 70
128
 71
831
 72
832
 73
797
 74
796
 0
VERTEX
 8
CUERPO_1
 10
0
 20
0
 30
0
 70
128
 71
822
 72
823
 73
828
 74
827
 0
VERTEX
 8
CUERPO_1
 10
0
 20
0
 30
0
 70
128
 71
827
 72
828
 73
833
 74
832
 0
VERTEX
 8
CUERPO_1
 10
0
 20
0
 30
0
 70
128
 71
832
 72
833
 73
798
 74
797
 0
VERTEX
 8
CUERPO_1
 10
0
 20
0
 30
0
 70
128
 71
823
 72
824
 73
829
 74
828
 0
VERTEX
 8
CUERPO_1
 10
0
 20
0
 30
0
 70
128
 71
828
 72
829
 73
834
 74
833
 0
VERTEX
 8
CUERPO_1
 10
0
 20
0
 30
0
 70
128
 71
833
 72
834
 73
799
 74
798
 0
VERTEX
 8
CUERPO_1
 10
0
 20
0
 30
0
 70
128
 71
799
 72
834
 73
809
 74
804
 0
VERTEX
 8
CUERPO_1
 10
0
 20
0
 30
0
 70
128
 71
834
 72
829
 73
814
 74
809
 0
VERTEX
 8
CUERPO_1
 10
0
 20
0
 30
0
 70
128
 71
829
 72
824
 73
819
 74
814
 0
VERTEX
 8
CUERPO_1
 10
0
 20
0
 30
0
 70
128
 71
820
 72
825
 73
810
 74
815
 0
VERTEX
 8
CUERPO_1
 10
0
 20
0
 30
0
 70
128
 71
825
 72
830
 73
805
 74
810
 0
VERTEX
 8
CUERPO_1
 10
0
 20
0
 30
0
 70
128
 71
830
 72
795
 73
800
 74
805
 0
VERTEX
 8
CUERPO_1
 10
0
 20
0
 30
0
 70
128
 71
835
 72
836
 73
839
 74
838
 0
VERTEX
 8
CUERPO_1
 10
0
 20
0
 30
0
 70
128
 71
836
 72
837
 73
840
 74
839
 0
VERTEX
 8
CUERPO_1
 10
0
 20
0
 30
0
 70
128
 71
838
 72
839
 73
842
 74
841
 0
VERTEX
 8
CUERPO_1
 10
0
 20
0
 30
0
 70
128
 71
839
 72
840
 73
843
 74
842
 0
VERTEX
 8
CUERPO_1
 10
0
 20
0
 30
0
 70
128
 71
841
 72
842
 73
845
 74
844
 0
VERTEX
 8
CUERPO_1
 10
0
 20
0
 30
0
 70
128
 71
842
 72
843
 73
846
 74
845
 0
VERTEX
 8
CUERPO_1
 10
0
 20
0
 30
0
 70
128
 71
844
 72
845
 73
836
 74
835
 0
VERTEX
 8
CUERPO_1
 10
0
 20
0
 30
0
 70
128
 71
845
 72
846
 73
837
 74
836
 0
VERTEX
 8
CUERPO_1
 10
0
 20
0
 30
0
 70
128
 71
837
 72
846
 73
843
 74
840
 0
VERTEX
 8
CUERPO_1
 10
0
 20
0
 30
0
 70
128
 71
844
 72
835
 73
838
 74
841
 0
VERTEX
 8
CUERPO_1
 10
0
 20
0
 30
0
 70
128
 71
847
 72
848
 73
856
 74
855
 0
VERTEX
 8
CUERPO_1
 10
0
 20
0
 30
0
 70
128
 71
849
 72
850
 73
858
 74
857
 0
VERTEX
 8
CUERPO_1
 10
0
 20
0
 30
0
 70
128
 71
851
 72
852
 73
860
 74
859
 0
VERTEX
 8
CUERPO_1
 10
0
 20
0
 30
0
 70
128
 71
853
 72
854
 73
862
 74
861
 0
VERTEX
 8
CUERPO_1
 10
0
 20
0
 30
0
 70
128
 71
855
 72
856
 73
864
 74
863
 0
VERTEX
 8
CUERPO_1
 10
0
 20
0
 30
0
 70
128
 71
857
 72
858
 73
866
 74
865
 0
VERTEX
 8
CUERPO_1
 10
0
 20
0
 30
0
 70
128
 71
859
 72
860
 73
868
 74
867
 0
VERTEX
 8
CUERPO_1
 10
0
 20
0
 30
0
 70
128
 71
861
 72
862
 73
870
 74
869
 0
VERTEX
 8
CUERPO_1
 10
0
 20
0
 30
0
 70
128
 71
863
 72
864
 73
872
 74
871
 0
VERTEX
 8
CUERPO_1
 10
0
 20
0
 30
0
 70
128
 71
865
 72
866
 73
874
 74
873
 0
VERTEX
 8
CUERPO_1
 10
0
 20
0
 30
0
 70
128
 71
867
 72
868
 73
876
 74
875
 0
VERTEX
 8
CUERPO_1
 10
0
 20
0
 30
0
 70
128
 71
869
 72
870
 73
878
 74
877
 0
VERTEX
 8
CUERPO_1
 10
0
 20
0
 30
0
 70
128
 71
871
 72
872
 73
880
 74
879
 0
VERTEX
 8
CUERPO_1
 10
0
 20
0
 30
0
 70
128
 71
873
 72
874
 73
882
 74
881
 0
VERTEX
 8
CUERPO_1
 10
0
 20
0
 30
0
 70
128
 71
875
 72
876
 73
884
 74
883
 0
VERTEX
 8
CUERPO_1
 10
0
 20
0
 30
0
 70
128
 71
877
 72
878
 73
886
 74
885
 0
VERTEX
 8
CUERPO_1
 10
0
 20
0
 30
0
 70
128
 71
879
 72
880
 73
888
 74
887
 0
VERTEX
 8
CUERPO_1
 10
0
 20
0
 30
0
 70
128
 71
881
 72
882
 73
890
 74
889
 0
VERTEX
 8
CUERPO_1
 10
0
 20
0
 30
0
 70
128
 71
883
 72
884
 73
892
 74
891
 0
VERTEX
 8
CUERPO_1
 10
0
 20
0
 30
0
 70
128
 71
885
 72
886
 73
894
 74
893
 0
VERTEX
 8
CUERPO_1
 10
0
 20
0
 30
0
 70
128
 71
887
 72
888
 73
896
 74
895
 0
VERTEX
 8
CUERPO_1
 10
0
 20
0
 30
0
 70
128
 71
889
 72
890
 73
898
 74
897
 0
VERTEX
 8
CUERPO_1
 10
0
 20
0
 30
0
 70
128
 71
891
 72
892
 73
900
 74
899
 0
VERTEX
 8
CUERPO_1
 10
0
 20
0
 30
0
 70
128
 71
893
 72
894
 73
902
 74
901
 0
VERTEX
 8
CUERPO_1
 10
0
 20
0
 30
0
 70
128
 71
895
 72
896
 73
904
 74
903
 0
VERTEX
 8
CUERPO_1
 10
0
 20
0
 30
0
 70
128
 71
897
 72
898
 73
906
 74
905
 0
VERTEX
 8
CUERPO_1
 10
0
 20
0
 30
0
 70
128
 71
899
 72
900
 73
908
 74
907
 0
VERTEX
 8
CUERPO_1
 10
0
 20
0
 30
0
 70
128
 71
901
 72
902
 73
910
 74
909
 0
VERTEX
 8
CUERPO_1
 10
0
 20
0
 30
0
 70
128
 71
903
 72
904
 73
912
 74
911
 0
VERTEX
 8
CUERPO_1
 10
0
 20
0
 30
0
 70
128
 71
905
 72
906
 73
914
 74
913
 0
VERTEX
 8
CUERPO_1
 10
0
 20
0
 30
0
 70
128
 71
907
 72
908
 73
916
 74
915
 0
VERTEX
 8
CUERPO_1
 10
0
 20
0
 30
0
 70
128
 71
909
 72
910
 73
918
 74
917
 0
VERTEX
 8
CUERPO_1
 10
0
 20
0
 30
0
 70
128
 71
911
 72
912
 73
920
 74
919
 0
VERTEX
 8
CUERPO_1
 10
0
 20
0
 30
0
 70
128
 71
913
 72
914
 73
922
 74
921
 0
VERTEX
 8
CUERPO_1
 10
0
 20
0
 30
0
 70
128
 71
915
 72
916
 73
924
 74
923
 0
VERTEX
 8
CUERPO_1
 10
0
 20
0
 30
0
 70
128
 71
917
 72
918
 73
926
 74
925
 0
VERTEX
 8
CUERPO_1
 10
0
 20
0
 30
0
 70
128
 71
919
 72
920
 73
928
 74
927
 0
VERTEX
 8
CUERPO_1
 10
0
 20
0
 30
0
 70
128
 71
921
 72
922
 73
930
 74
929
 0
VERTEX
 8
CUERPO_1
 10
0
 20
0
 30
0
 70
128
 71
923
 72
924
 73
932
 74
931
 0
VERTEX
 8
CUERPO_1
 10
0
 20
0
 30
0
 70
128
 71
925
 72
926
 73
934
 74
933
 0
VERTEX
 8
CUERPO_1
 10
0
 20
0
 30
0
 70
128
 71
927
 72
928
 73
936
 74
935
 0
VERTEX
 8
CUERPO_1
 10
0
 20
0
 30
0
 70
128
 71
929
 72
930
 73
938
 74
937
 0
VERTEX
 8
CUERPO_1
 10
0
 20
0
 30
0
 70
128
 71
931
 72
932
 73
940
 74
939
 0
VERTEX
 8
CUERPO_1
 10
0
 20
0
 30
0
 70
128
 71
933
 72
934
 73
942
 74
941
 0
VERTEX
 8
CUERPO_1
 10
0
 20
0
 30
0
 70
128
 71
935
 72
936
 73
944
 74
943
 0
VERTEX
 8
CUERPO_1
 10
0
 20
0
 30
0
 70
128
 71
937
 72
938
 73
946
 74
945
 0
VERTEX
 8
CUERPO_1
 10
0
 20
0
 30
0
 70
128
 71
939
 72
940
 73
948
 74
947
 0
VERTEX
 8
CUERPO_1
 10
0
 20
0
 30
0
 70
128
 71
941
 72
942
 73
950
 74
949
 0
VERTEX
 8
CUERPO_1
 10
0
 20
0
 30
0
 70
128
 71
943
 72
944
 73
952
 74
951
 0
VERTEX
 8
CUERPO_1
 10
0
 20
0
 30
0
 70
128
 71
945
 72
946
 73
954
 74
953
 0
VERTEX
 8
CUERPO_1
 10
0
 20
0
 30
0
 70
128
 71
947
 72
948
 73
956
 74
955
 0
VERTEX
 8
CUERPO_1
 10
0
 20
0
 30
0
 70
128
 71
949
 72
950
 73
958
 74
957
 0
VERTEX
 8
CUERPO_1
 10
0
 20
0
 30
0
 70
128
 71
951
 72
952
 73
960
 74
959
 0
VERTEX
 8
CUERPO_1
 10
0
 20
0
 30
0
 70
128
 71
953
 72
954
 73
962
 74
961
 0
VERTEX
 8
CUERPO_1
 10
0
 20
0
 30
0
 70
128
 71
955
 72
956
 73
964
 74
963
 0
VERTEX
 8
CUERPO_1
 10
0
 20
0
 30
0
 70
128
 71
957
 72
958
 73
966
 74
965
 0
VERTEX
 8
CUERPO_1
 10
0
 20
0
 30
0
 70
128
 71
959
 72
960
 73
968
 74
967
 0
VERTEX
 8
CUERPO_1
 10
0
 20
0
 30
0
 70
128
 71
961
 72
962
 73
970
 74
969
 0
VERTEX
 8
CUERPO_1
 10
0
 20
0
 30
0
 70
128
 71
963
 72
964
 73
972
 74
971
 0
VERTEX
 8
CUERPO_1
 10
0
 20
0
 30
0
 70
128
 71
965
 72
966
 73
974
 74
973
 0
VERTEX
 8
CUERPO_1
 10
0
 20
0
 30
0
 70
128
 71
967
 72
968
 73
976
 74
975
 0
VERTEX
 8
CUERPO_1
 10
0
 20
0
 30
0
 70
128
 71
969
 72
970
 73
978
 74
977
 0
VERTEX
 8
CUERPO_1
 10
0
 20
0
 30
0
 70
128
 71
971
 72
972
 73
980
 74
979
 0
VERTEX
 8
CUERPO_1
 10
0
 20
0
 30
0
 70
128
 71
973
 72
974
 73
982
 74
981
 0
VERTEX
 8
CUERPO_1
 10
0
 20
0
 30
0
 70
128
 71
975
 72
976
 73
984
 74
983
 0
VERTEX
 8
CUERPO_1
 10
0
 20
0
 30
0
 70
128
 71
977
 72
978
 73
986
 74
985
 0
VERTEX
 8
CUERPO_1
 10
0
 20
0
 30
0
 70
128
 71
979
 72
980
 73
988
 74
987
 0
VERTEX
 8
CUERPO_1
 10
0
 20
0
 30
0
 70
128
 71
981
 72
982
 73
990
 74
989
 0
VERTEX
 8
CUERPO_1
 10
0
 20
0
 30
0
 70
128
 71
983
 72
984
 73
992
 74
991
 0
VERTEX
 8
CUERPO_1
 10
0
 20
0
 30
0
 70
128
 71
985
 72
986
 73
994
 74
993
 0
VERTEX
 8
CUERPO_1
 10
0
 20
0
 30
0
 70
128
 71
987
 72
988
 73
996
 74
995
 0
VERTEX
 8
CUERPO_1
 10
0
 20
0
 30
0
 70
128
 71
989
 72
990
 73
998
 74
997
 0
VERTEX
 8
CUERPO_1
 10
0
 20
0
 30
0
 70
128
 71
991
 72
992
 73
1000
 74
999
 0
VERTEX
 8
CUERPO_1
 10
0
 20
0
 30
0
 70
128
 71
993
 72
994
 73
1002
 74
1001
 0
VERTEX
 8
CUERPO_1
 10
0
 20
0
 30
0
 70
128
 71
995
 72
996
 73
1004
 74
1003
 0
VERTEX
 8
CUERPO_1
 10
0
 20
0
 30
0
 70
128
 71
997
 72
998
 73
1006
 74
1005
 0
VERTEX
 8
CUERPO_1
 10
0
 20
0
 30
0
 70
128
 71
999
 72
1000
 73
1008
 74
1007
 0
VERTEX
 8
CUERPO_1
 10
0
 20
0
 30
0
 70
128
 71
1001
 72
1002
 73
1010
 74
1009
 0
VERTEX
 8
CUERPO_1
 10
0
 20
0
 30
0
 70
128
 71
1003
 72
1004
 73
1012
 74
1011
 0
VERTEX
 8
CUERPO_1
 10
0
 20
0
 30
0
 70
128
 71
1005
 72
1006
 73
1014
 74
1013
 0
VERTEX
 8
CUERPO_1
 10
0
 20
0
 30
0
 70
128
 71
1007
 72
1008
 73
1016
 74
1015
 0
VERTEX
 8
CUERPO_1
 10
0
 20
0
 30
0
 70
128
 71
1009
 72
1010
 73
1018
 74
1017
 0
VERTEX
 8
CUERPO_1
 10
0
 20
0
 30
0
 70
128
 71
1011
 72
1012
 73
1020
 74
1019
 0
VERTEX
 8
CUERPO_1
 10
0
 20
0
 30
0
 70
128
 71
1013
 72
1014
 73
1022
 74
1021
 0
VERTEX
 8
CUERPO_1
 10
0
 20
0
 30
0
 70
128
 71
1015
 72
1016
 73
1024
 74
1023
 0
VERTEX
 8
CUERPO_1
 10
0
 20
0
 30
0
 70
128
 71
1017
 72
1018
 73
1026
 74
1025
 0
VERTEX
 8
CUERPO_1
 10
0
 20
0
 30
0
 70
128
 71
1019
 72
1020
 73
1028
 74
1027
 0
VERTEX
 8
CUERPO_1
 10
0
 20
0
 30
0
 70
128
 71
1021
 72
1022
 73
1030
 74
1029
 0
VERTEX
 8
CUERPO_1
 10
0
 20
0
 30
0
 70
128
 71
1023
 72
1024
 73
1032
 74
1031
 0
VERTEX
 8
CUERPO_1
 10
0
 20
0
 30
0
 70
128
 71
1025
 72
1026
 73
1034
 74
1033
 0
VERTEX
 8
CUERPO_1
 10
0
 20
0
 30
0
 70
128
 71
1027
 72
1028
 73
1036
 74
1035
 0
VERTEX
 8
CUERPO_1
 10
0
 20
0
 30
0
 70
128
 71
1029
 72
1030
 73
1038
 74
1037
 0
VERTEX
 8
CUERPO_1
 10
0
 20
0
 30
0
 70
128
 71
1031
 72
1032
 73
1040
 74
1039
 0
VERTEX
 8
CUERPO_1
 10
0
 20
0
 30
0
 70
128
 71
1033
 72
1034
 73
1042
 74
1041
 0
VERTEX
 8
CUERPO_1
 10
0
 20
0
 30
0
 70
128
 71
1035
 72
1036
 73
1044
 74
1043
 0
VERTEX
 8
CUERPO_1
 10
0
 20
0
 30
0
 70
128
 71
1037
 72
1038
 73
1046
 74
1045
 0
VERTEX
 8
CUERPO_1
 10
0
 20
0
 30
0
 70
128
 71
1039
 72
1040
 73
1048
 74
1047
 0
VERTEX
 8
CUERPO_1
 10
0
 20
0
 30
0
 70
128
 71
1041
 72
1042
 73
1050
 74
1049
 0
VERTEX
 8
CUERPO_1
 10
0
 20
0
 30
0
 70
128
 71
1043
 72
1044
 73
1052
 74
1051
 0
VERTEX
 8
CUERPO_1
 10
0
 20
0
 30
0
 70
128
 71
1045
 72
1046
 73
1054
 74
1053
 0
VERTEX
 8
CUERPO_1
 10
0
 20
0
 30
0
 70
128
 71
1047
 72
1048
 73
1056
 74
1055
 0
VERTEX
 8
CUERPO_1
 10
0
 20
0
 30
0
 70
128
 71
1049
 72
1050
 73
1058
 74
1057
 0
VERTEX
 8
CUERPO_1
 10
0
 20
0
 30
0
 70
128
 71
1051
 72
1052
 73
1060
 74
1059
 0
VERTEX
 8
CUERPO_1
 10
0
 20
0
 30
0
 70
128
 71
1053
 72
1054
 73
1062
 74
1061
 0
VERTEX
 8
CUERPO_1
 10
0
 20
0
 30
0
 70
128
 71
1055
 72
1056
 73
1064
 74
1063
 0
VERTEX
 8
CUERPO_1
 10
0
 20
0
 30
0
 70
128
 71
1057
 72
1058
 73
1066
 74
1065
 0
VERTEX
 8
CUERPO_1
 10
0
 20
0
 30
0
 70
128
 71
1059
 72
1060
 73
1068
 74
1067
 0
VERTEX
 8
CUERPO_1
 10
0
 20
0
 30
0
 70
128
 71
1061
 72
1062
 73
1070
 74
1069
 0
VERTEX
 8
CUERPO_1
 10
0
 20
0
 30
0
 70
128
 71
1063
 72
1064
 73
1072
 74
1071
 0
VERTEX
 8
CUERPO_1
 10
0
 20
0
 30
0
 70
128
 71
1065
 72
1066
 73
1074
 74
1073
 0
VERTEX
 8
CUERPO_1
 10
0
 20
0
 30
0
 70
128
 71
1067
 72
1068
 73
1076
 74
1075
 0
VERTEX
 8
CUERPO_1
 10
0
 20
0
 30
0
 70
128
 71
1069
 72
1070
 73
1078
 74
1077
 0
VERTEX
 8
CUERPO_1
 10
0
 20
0
 30
0
 70
128
 71
1071
 72
1072
 73
1080
 74
1079
 0
VERTEX
 8
CUERPO_1
 10
0
 20
0
 30
0
 70
128
 71
1073
 72
1074
 73
1082
 74
1081
 0
VERTEX
 8
CUERPO_1
 10
0
 20
0
 30
0
 70
128
 71
1075
 72
1076
 73
1084
 74
1083
 0
VERTEX
 8
CUERPO_1
 10
0
 20
0
 30
0
 70
128
 71
1077
 72
1078
 73
1086
 74
1085
 0
VERTEX
 8
CUERPO_1
 10
0
 20
0
 30
0
 70
128
 71
1079
 72
1080
 73
1088
 74
1087
 0
VERTEX
 8
CUERPO_1
 10
0
 20
0
 30
0
 70
128
 71
1081
 72
1082
 73
1090
 74
1089
 0
VERTEX
 8
CUERPO_1
 10
0
 20
0
 30
0
 70
128
 71
1083
 72
1084
 73
1092
 74
1091
 0
VERTEX
 8
CUERPO_1
 10
0
 20
0
 30
0
 70
128
 71
1085
 72
1086
 73
1094
 74
1093
 0
VERTEX
 8
CUERPO_1
 10
0
 20
0
 30
0
 70
128
 71
1087
 72
1088
 73
1096
 74
1095
 0
VERTEX
 8
CUERPO_1
 10
0
 20
0
 30
0
 70
128
 71
1089
 72
1090
 73
1098
 74
1097
 0
VERTEX
 8
CUERPO_1
 10
0
 20
0
 30
0
 70
128
 71
1091
 72
1092
 73
1100
 74
1099
 0
VERTEX
 8
CUERPO_1
 10
0
 20
0
 30
0
 70
128
 71
1093
 72
1094
 73
1102
 74
1101
 0
VERTEX
 8
CUERPO_1
 10
0
 20
0
 30
0
 70
128
 71
1095
 72
1096
 73
1104
 74
1103
 0
VERTEX
 8
CUERPO_1
 10
0
 20
0
 30
0
 70
128
 71
1097
 72
1098
 73
1106
 74
1105
 0
VERTEX
 8
CUERPO_1
 10
0
 20
0
 30
0
 70
128
 71
1099
 72
1100
 73
1108
 74
1107
 0
VERTEX
 8
CUERPO_1
 10
0
 20
0
 30
0
 70
128
 71
1101
 72
1102
 73
1110
 74
1109
 0
VERTEX
 8
CUERPO_1
 10
0
 20
0
 30
0
 70
128
 71
1103
 72
1104
 73
1112
 74
1111
 0
VERTEX
 8
CUERPO_1
 10
0
 20
0
 30
0
 70
128
 71
1105
 72
1106
 73
1114
 74
1113
 0
VERTEX
 8
CUERPO_1
 10
0
 20
0
 30
0
 70
128
 71
1107
 72
1108
 73
1116
 74
1115
 0
VERTEX
 8
CUERPO_1
 10
0
 20
0
 30
0
 70
128
 71
1109
 72
1110
 73
1118
 74
1117
 0
VERTEX
 8
CUERPO_1
 10
0
 20
0
 30
0
 70
128
 71
1111
 72
1112
 73
1120
 74
1119
 0
VERTEX
 8
CUERPO_1
 10
0
 20
0
 30
0
 70
128
 71
1113
 72
1114
 73
1122
 74
1121
 0
VERTEX
 8
CUERPO_1
 10
0
 20
0
 30
0
 70
128
 71
1115
 72
1116
 73
1124
 74
1123
 0
VERTEX
 8
CUERPO_1
 10
0
 20
0
 30
0
 70
128
 71
1117
 72
1118
 73
1126
 74
1125
 0
VERTEX
 8
CUERPO_1
 10
0
 20
0
 30
0
 70
128
 71
1119
 72
1120
 73
1128
 74
1127
 0
VERTEX
 8
CUERPO_1
 10
0
 20
0
 30
0
 70
128
 71
1121
 72
1122
 73
1130
 74
1129
 0
VERTEX
 8
CUERPO_1
 10
0
 20
0
 30
0
 70
128
 71
1123
 72
1124
 73
1132
 74
1131
 0
VERTEX
 8
CUERPO_1
 10
0
 20
0
 30
0
 70
128
 71
1125
 72
1126
 73
1134
 74
1133
 0
VERTEX
 8
CUERPO_1
 10
0
 20
0
 30
0
 70
128
 71
1127
 72
1128
 73
848
 74
847
 0
VERTEX
 8
CUERPO_1
 10
0
 20
0
 30
0
 70
128
 71
1129
 72
1130
 73
850
 74
849
 0
VERTEX
 8
CUERPO_1
 10
0
 20
0
 30
0
 70
128
 71
1131
 72
1132
 73
852
 74
851
 0
VERTEX
 8
CUERPO_1
 10
0
 20
0
 30
0
 70
128
 71
1133
 72
1134
 73
854
 74
853
 0
VERTEX
 8
CUERPO_1
 10
0
 20
0
 30
0
 70
128
 71
1135
 72
1136
 73
1144
 74
1143
 0
VERTEX
 8
CUERPO_1
 10
0
 20
0
 30
0
 70
128
 71
1137
 72
1138
 73
1146
 74
1145
 0
VERTEX
 8
CUERPO_1
 10
0
 20
0
 30
0
 70
128
 71
1139
 72
1140
 73
1148
 74
1147
 0
VERTEX
 8
CUERPO_1
 10
0
 20
0
 30
0
 70
128
 71
1141
 72
1142
 73
1150
 74
1149
 0
VERTEX
 8
CUERPO_1
 10
0
 20
0
 30
0
 70
128
 71
1143
 72
1144
 73
1152
 74
1151
 0
VERTEX
 8
CUERPO_1
 10
0
 20
0
 30
0
 70
128
 71
1145
 72
1146
 73
1154
 74
1153
 0
VERTEX
 8
CUERPO_1
 10
0
 20
0
 30
0
 70
128
 71
1147
 72
1148
 73
1156
 74
1155
 0
VERTEX
 8
CUERPO_1
 10
0
 20
0
 30
0
 70
128
 71
1149
 72
1150
 73
1158
 74
1157
 0
VERTEX
 8
CUERPO_1
 10
0
 20
0
 30
0
 70
128
 71
1151
 72
1152
 73
1160
 74
1159
 0
VERTEX
 8
CUERPO_1
 10
0
 20
0
 30
0
 70
128
 71
1153
 72
1154
 73
1162
 74
1161
 0
VERTEX
 8
CUERPO_1
 10
0
 20
0
 30
0
 70
128
 71
1155
 72
1156
 73
1164
 74
1163
 0
VERTEX
 8
CUERPO_1
 10
0
 20
0
 30
0
 70
128
 71
1157
 72
1158
 73
1166
 74
1165
 0
VERTEX
 8
CUERPO_1
 10
0
 20
0
 30
0
 70
128
 71
1159
 72
1160
 73
1168
 74
1167
 0
VERTEX
 8
CUERPO_1
 10
0
 20
0
 30
0
 70
128
 71
1161
 72
1162
 73
1170
 74
1169
 0
VERTEX
 8
CUERPO_1
 10
0
 20
0
 30
0
 70
128
 71
1163
 72
1164
 73
1172
 74
1171
 0
VERTEX
 8
CUERPO_1
 10
0
 20
0
 30
0
 70
128
 71
1165
 72
1166
 73
1174
 74
1173
 0
VERTEX
 8
CUERPO_1
 10
0
 20
0
 30
0
 70
128
 71
1167
 72
1168
 73
1176
 74
1175
 0
VERTEX
 8
CUERPO_1
 10
0
 20
0
 30
0
 70
128
 71
1169
 72
1170
 73
1178
 74
1177
 0
VERTEX
 8
CUERPO_1
 10
0
 20
0
 30
0
 70
128
 71
1171
 72
1172
 73
1180
 74
1179
 0
VERTEX
 8
CUERPO_1
 10
0
 20
0
 30
0
 70
128
 71
1173
 72
1174
 73
1182
 74
1181
 0
VERTEX
 8
CUERPO_1
 10
0
 20
0
 30
0
 70
128
 71
1175
 72
1176
 73
1184
 74
1183
 0
VERTEX
 8
CUERPO_1
 10
0
 20
0
 30
0
 70
128
 71
1177
 72
1178
 73
1186
 74
1185
 0
VERTEX
 8
CUERPO_1
 10
0
 20
0
 30
0
 70
128
 71
1179
 72
1180
 73
1188
 74
1187
 0
VERTEX
 8
CUERPO_1
 10
0
 20
0
 30
0
 70
128
 71
1181
 72
1182
 73
1190
 74
1189
 0
VERTEX
 8
CUERPO_1
 10
0
 20
0
 30
0
 70
128
 71
1183
 72
1184
 73
1192
 74
1191
 0
VERTEX
 8
CUERPO_1
 10
0
 20
0
 30
0
 70
128
 71
1185
 72
1186
 73
1194
 74
1193
 0
VERTEX
 8
CUERPO_1
 10
0
 20
0
 30
0
 70
128
 71
1187
 72
1188
 73
1196
 74
1195
 0
VERTEX
 8
CUERPO_1
 10
0
 20
0
 30
0
 70
128
 71
1189
 72
1190
 73
1198
 74
1197
 0
VERTEX
 8
CUERPO_1
 10
0
 20
0
 30
0
 70
128
 71
1191
 72
1192
 73
1200
 74
1199
 0
VERTEX
 8
CUERPO_1
 10
0
 20
0
 30
0
 70
128
 71
1193
 72
1194
 73
1202
 74
1201
 0
VERTEX
 8
CUERPO_1
 10
0
 20
0
 30
0
 70
128
 71
1195
 72
1196
 73
1204
 74
1203
 0
VERTEX
 8
CUERPO_1
 10
0
 20
0
 30
0
 70
128
 71
1197
 72
1198
 73
1206
 74
1205
 0
VERTEX
 8
CUERPO_1
 10
0
 20
0
 30
0
 70
128
 71
1199
 72
1200
 73
1208
 74
1207
 0
VERTEX
 8
CUERPO_1
 10
0
 20
0
 30
0
 70
128
 71
1201
 72
1202
 73
1210
 74
1209
 0
VERTEX
 8
CUERPO_1
 10
0
 20
0
 30
0
 70
128
 71
1203
 72
1204
 73
1212
 74
1211
 0
VERTEX
 8
CUERPO_1
 10
0
 20
0
 30
0
 70
128
 71
1205
 72
1206
 73
1214
 74
1213
 0
VERTEX
 8
CUERPO_1
 10
0
 20
0
 30
0
 70
128
 71
1207
 72
1208
 73
1216
 74
1215
 0
VERTEX
 8
CUERPO_1
 10
0
 20
0
 30
0
 70
128
 71
1209
 72
1210
 73
1218
 74
1217
 0
VERTEX
 8
CUERPO_1
 10
0
 20
0
 30
0
 70
128
 71
1211
 72
1212
 73
1220
 74
1219
 0
VERTEX
 8
CUERPO_1
 10
0
 20
0
 30
0
 70
128
 71
1213
 72
1214
 73
1222
 74
1221
 0
VERTEX
 8
CUERPO_1
 10
0
 20
0
 30
0
 70
128
 71
1215
 72
1216
 73
1224
 74
1223
 0
VERTEX
 8
CUERPO_1
 10
0
 20
0
 30
0
 70
128
 71
1217
 72
1218
 73
1226
 74
1225
 0
VERTEX
 8
CUERPO_1
 10
0
 20
0
 30
0
 70
128
 71
1219
 72
1220
 73
1228
 74
1227
 0
VERTEX
 8
CUERPO_1
 10
0
 20
0
 30
0
 70
128
 71
1221
 72
1222
 73
1230
 74
1229
 0
VERTEX
 8
CUERPO_1
 10
0
 20
0
 30
0
 70
128
 71
1223
 72
1224
 73
1232
 74
1231
 0
VERTEX
 8
CUERPO_1
 10
0
 20
0
 30
0
 70
128
 71
1225
 72
1226
 73
1234
 74
1233
 0
VERTEX
 8
CUERPO_1
 10
0
 20
0
 30
0
 70
128
 71
1227
 72
1228
 73
1236
 74
1235
 0
VERTEX
 8
CUERPO_1
 10
0
 20
0
 30
0
 70
128
 71
1229
 72
1230
 73
1238
 74
1237
 0
VERTEX
 8
CUERPO_1
 10
0
 20
0
 30
0
 70
128
 71
1231
 72
1232
 73
1240
 74
1239
 0
VERTEX
 8
CUERPO_1
 10
0
 20
0
 30
0
 70
128
 71
1233
 72
1234
 73
1242
 74
1241
 0
VERTEX
 8
CUERPO_1
 10
0
 20
0
 30
0
 70
128
 71
1235
 72
1236
 73
1244
 74
1243
 0
VERTEX
 8
CUERPO_1
 10
0
 20
0
 30
0
 70
128
 71
1237
 72
1238
 73
1246
 74
1245
 0
VERTEX
 8
CUERPO_1
 10
0
 20
0
 30
0
 70
128
 71
1239
 72
1240
 73
1248
 74
1247
 0
VERTEX
 8
CUERPO_1
 10
0
 20
0
 30
0
 70
128
 71
1241
 72
1242
 73
1250
 74
1249
 0
VERTEX
 8
CUERPO_1
 10
0
 20
0
 30
0
 70
128
 71
1243
 72
1244
 73
1252
 74
1251
 0
VERTEX
 8
CUERPO_1
 10
0
 20
0
 30
0
 70
128
 71
1245
 72
1246
 73
1254
 74
1253
 0
VERTEX
 8
CUERPO_1
 10
0
 20
0
 30
0
 70
128
 71
1247
 72
1248
 73
1256
 74
1255
 0
VERTEX
 8
CUERPO_1
 10
0
 20
0
 30
0
 70
128
 71
1249
 72
1250
 73
1258
 74
1257
 0
VERTEX
 8
CUERPO_1
 10
0
 20
0
 30
0
 70
128
 71
1251
 72
1252
 73
1260
 74
1259
 0
VERTEX
 8
CUERPO_1
 10
0
 20
0
 30
0
 70
128
 71
1253
 72
1254
 73
1262
 74
1261
 0
VERTEX
 8
CUERPO_1
 10
0
 20
0
 30
0
 70
128
 71
1255
 72
1256
 73
1264
 74
1263
 0
VERTEX
 8
CUERPO_1
 10
0
 20
0
 30
0
 70
128
 71
1257
 72
1258
 73
1266
 74
1265
 0
VERTEX
 8
CUERPO_1
 10
0
 20
0
 30
0
 70
128
 71
1259
 72
1260
 73
1268
 74
1267
 0
VERTEX
 8
CUERPO_1
 10
0
 20
0
 30
0
 70
128
 71
1261
 72
1262
 73
1270
 74
1269
 0
VERTEX
 8
CUERPO_1
 10
0
 20
0
 30
0
 70
128
 71
1263
 72
1264
 73
1272
 74
1271
 0
VERTEX
 8
CUERPO_1
 10
0
 20
0
 30
0
 70
128
 71
1265
 72
1266
 73
1274
 74
1273
 0
VERTEX
 8
CUERPO_1
 10
0
 20
0
 30
0
 70
128
 71
1267
 72
1268
 73
1276
 74
1275
 0
VERTEX
 8
CUERPO_1
 10
0
 20
0
 30
0
 70
128
 71
1269
 72
1270
 73
1278
 74
1277
 0
VERTEX
 8
CUERPO_1
 10
0
 20
0
 30
0
 70
128
 71
1271
 72
1272
 73
1280
 74
1279
 0
VERTEX
 8
CUERPO_1
 10
0
 20
0
 30
0
 70
128
 71
1273
 72
1274
 73
1282
 74
1281
 0
VERTEX
 8
CUERPO_1
 10
0
 20
0
 30
0
 70
128
 71
1275
 72
1276
 73
1284
 74
1283
 0
VERTEX
 8
CUERPO_1
 10
0
 20
0
 30
0
 70
128
 71
1277
 72
1278
 73
1286
 74
1285
 0
VERTEX
 8
CUERPO_1
 10
0
 20
0
 30
0
 70
128
 71
1279
 72
1280
 73
1288
 74
1287
 0
VERTEX
 8
CUERPO_1
 10
0
 20
0
 30
0
 70
128
 71
1281
 72
1282
 73
1290
 74
1289
 0
VERTEX
 8
CUERPO_1
 10
0
 20
0
 30
0
 70
128
 71
1283
 72
1284
 73
1292
 74
1291
 0
VERTEX
 8
CUERPO_1
 10
0
 20
0
 30
0
 70
128
 71
1285
 72
1286
 73
1294
 74
1293
 0
VERTEX
 8
CUERPO_1
 10
0
 20
0
 30
0
 70
128
 71
1287
 72
1288
 73
1296
 74
1295
 0
VERTEX
 8
CUERPO_1
 10
0
 20
0
 30
0
 70
128
 71
1289
 72
1290
 73
1298
 74
1297
 0
VERTEX
 8
CUERPO_1
 10
0
 20
0
 30
0
 70
128
 71
1291
 72
1292
 73
1300
 74
1299
 0
VERTEX
 8
CUERPO_1
 10
0
 20
0
 30
0
 70
128
 71
1293
 72
1294
 73
1302
 74
1301
 0
VERTEX
 8
CUERPO_1
 10
0
 20
0
 30
0
 70
128
 71
1295
 72
1296
 73
1304
 74
1303
 0
VERTEX
 8
CUERPO_1
 10
0
 20
0
 30
0
 70
128
 71
1297
 72
1298
 73
1306
 74
1305
 0
VERTEX
 8
CUERPO_1
 10
0
 20
0
 30
0
 70
128
 71
1299
 72
1300
 73
1308
 74
1307
 0
VERTEX
 8
CUERPO_1
 10
0
 20
0
 30
0
 70
128
 71
1301
 72
1302
 73
1310
 74
1309
 0
VERTEX
 8
CUERPO_1
 10
0
 20
0
 30
0
 70
128
 71
1303
 72
1304
 73
1312
 74
1311
 0
VERTEX
 8
CUERPO_1
 10
0
 20
0
 30
0
 70
128
 71
1305
 72
1306
 73
1314
 74
1313
 0
VERTEX
 8
CUERPO_1
 10
0
 20
0
 30
0
 70
128
 71
1307
 72
1308
 73
1316
 74
1315
 0
VERTEX
 8
CUERPO_1
 10
0
 20
0
 30
0
 70
128
 71
1309
 72
1310
 73
1318
 74
1317
 0
VERTEX
 8
CUERPO_1
 10
0
 20
0
 30
0
 70
128
 71
1311
 72
1312
 73
1320
 74
1319
 0
VERTEX
 8
CUERPO_1
 10
0
 20
0
 30
0
 70
128
 71
1313
 72
1314
 73
1322
 74
1321
 0
VERTEX
 8
CUERPO_1
 10
0
 20
0
 30
0
 70
128
 71
1315
 72
1316
 73
1324
 74
1323
 0
VERTEX
 8
CUERPO_1
 10
0
 20
0
 30
0
 70
128
 71
1317
 72
1318
 73
1326
 74
1325
 0
VERTEX
 8
CUERPO_1
 10
0
 20
0
 30
0
 70
128
 71
1319
 72
1320
 73
1328
 74
1327
 0
VERTEX
 8
CUERPO_1
 10
0
 20
0
 30
0
 70
128
 71
1321
 72
1322
 73
1330
 74
1329
 0
VERTEX
 8
CUERPO_1
 10
0
 20
0
 30
0
 70
128
 71
1323
 72
1324
 73
1332
 74
1331
 0
VERTEX
 8
CUERPO_1
 10
0
 20
0
 30
0
 70
128
 71
1325
 72
1326
 73
1334
 74
1333
 0
VERTEX
 8
CUERPO_1
 10
0
 20
0
 30
0
 70
128
 71
1327
 72
1328
 73
1336
 74
1335
 0
VERTEX
 8
CUERPO_1
 10
0
 20
0
 30
0
 70
128
 71
1329
 72
1330
 73
1338
 74
1337
 0
VERTEX
 8
CUERPO_1
 10
0
 20
0
 30
0
 70
128
 71
1331
 72
1332
 73
1340
 74
1339
 0
VERTEX
 8
CUERPO_1
 10
0
 20
0
 30
0
 70
128
 71
1333
 72
1334
 73
1342
 74
1341
 0
VERTEX
 8
CUERPO_1
 10
0
 20
0
 30
0
 70
128
 71
1335
 72
1336
 73
1344
 74
1343
 0
VERTEX
 8
CUERPO_1
 10
0
 20
0
 30
0
 70
128
 71
1337
 72
1338
 73
1346
 74
1345
 0
VERTEX
 8
CUERPO_1
 10
0
 20
0
 30
0
 70
128
 71
1339
 72
1340
 73
1348
 74
1347
 0
VERTEX
 8
CUERPO_1
 10
0
 20
0
 30
0
 70
128
 71
1341
 72
1342
 73
1350
 74
1349
 0
VERTEX
 8
CUERPO_1
 10
0
 20
0
 30
0
 70
128
 71
1343
 72
1344
 73
1352
 74
1351
 0
VERTEX
 8
CUERPO_1
 10
0
 20
0
 30
0
 70
128
 71
1345
 72
1346
 73
1354
 74
1353
 0
VERTEX
 8
CUERPO_1
 10
0
 20
0
 30
0
 70
128
 71
1347
 72
1348
 73
1356
 74
1355
 0
VERTEX
 8
CUERPO_1
 10
0
 20
0
 30
0
 70
128
 71
1349
 72
1350
 73
1358
 74
1357
 0
VERTEX
 8
CUERPO_1
 10
0
 20
0
 30
0
 70
128
 71
1351
 72
1352
 73
1360
 74
1359
 0
VERTEX
 8
CUERPO_1
 10
0
 20
0
 30
0
 70
128
 71
1353
 72
1354
 73
1362
 74
1361
 0
VERTEX
 8
CUERPO_1
 10
0
 20
0
 30
0
 70
128
 71
1355
 72
1356
 73
1364
 74
1363
 0
VERTEX
 8
CUERPO_1
 10
0
 20
0
 30
0
 70
128
 71
1357
 72
1358
 73
1366
 74
1365
 0
VERTEX
 8
CUERPO_1
 10
0
 20
0
 30
0
 70
128
 71
1359
 72
1360
 73
1368
 74
1367
 0
VERTEX
 8
CUERPO_1
 10
0
 20
0
 30
0
 70
128
 71
1361
 72
1362
 73
1370
 74
1369
 0
VERTEX
 8
CUERPO_1
 10
0
 20
0
 30
0
 70
128
 71
1363
 72
1364
 73
1372
 74
1371
 0
VERTEX
 8
CUERPO_1
 10
0
 20
0
 30
0
 70
128
 71
1365
 72
1366
 73
1374
 74
1373
 0
VERTEX
 8
CUERPO_1
 10
0
 20
0
 30
0
 70
128
 71
1367
 72
1368
 73
1376
 74
1375
 0
VERTEX
 8
CUERPO_1
 10
0
 20
0
 30
0
 70
128
 71
1369
 72
1370
 73
1378
 74
1377
 0
VERTEX
 8
CUERPO_1
 10
0
 20
0
 30
0
 70
128
 71
1371
 72
1372
 73
1380
 74
1379
 0
VERTEX
 8
CUERPO_1
 10
0
 20
0
 30
0
 70
128
 71
1373
 72
1374
 73
1382
 74
1381
 0
VERTEX
 8
CUERPO_1
 10
0
 20
0
 30
0
 70
128
 71
1375
 72
1376
 73
1384
 74
1383
 0
VERTEX
 8
CUERPO_1
 10
0
 20
0
 30
0
 70
128
 71
1377
 72
1378
 73
1386
 74
1385
 0
VERTEX
 8
CUERPO_1
 10
0
 20
0
 30
0
 70
128
 71
1379
 72
1380
 73
1388
 74
1387
 0
VERTEX
 8
CUERPO_1
 10
0
 20
0
 30
0
 70
128
 71
1381
 72
1382
 73
1390
 74
1389
 0
VERTEX
 8
CUERPO_1
 10
0
 20
0
 30
0
 70
128
 71
1383
 72
1384
 73
1392
 74
1391
 0
VERTEX
 8
CUERPO_1
 10
0
 20
0
 30
0
 70
128
 71
1385
 72
1386
 73
1394
 74
1393
 0
VERTEX
 8
CUERPO_1
 10
0
 20
0
 30
0
 70
128
 71
1387
 72
1388
 73
1396
 74
1395
 0
VERTEX
 8
CUERPO_1
 10
0
 20
0
 30
0
 70
128
 71
1389
 72
1390
 73
1398
 74
1397
 0
VERTEX
 8
CUERPO_1
 10
0
 20
0
 30
0
 70
128
 71
1391
 72
1392
 73
1400
 74
1399
 0
VERTEX
 8
CUERPO_1
 10
0
 20
0
 30
0
 70
128
 71
1393
 72
1394
 73
1402
 74
1401
 0
VERTEX
 8
CUERPO_1
 10
0
 20
0
 30
0
 70
128
 71
1395
 72
1396
 73
1404
 74
1403
 0
VERTEX
 8
CUERPO_1
 10
0
 20
0
 30
0
 70
128
 71
1397
 72
1398
 73
1406
 74
1405
 0
VERTEX
 8
CUERPO_1
 10
0
 20
0
 30
0
 70
128
 71
1399
 72
1400
 73
1408
 74
1407
 0
VERTEX
 8
CUERPO_1
 10
0
 20
0
 30
0
 70
128
 71
1401
 72
1402
 73
1410
 74
1409
 0
VERTEX
 8
CUERPO_1
 10
0
 20
0
 30
0
 70
128
 71
1403
 72
1404
 73
1412
 74
1411
 0
VERTEX
 8
CUERPO_1
 10
0
 20
0
 30
0
 70
128
 71
1405
 72
1406
 73
1414
 74
1413
 0
VERTEX
 8
CUERPO_1
 10
0
 20
0
 30
0
 70
128
 71
1407
 72
1408
 73
1416
 74
1415
 0
VERTEX
 8
CUERPO_1
 10
0
 20
0
 30
0
 70
128
 71
1409
 72
1410
 73
1418
 74
1417
 0
VERTEX
 8
CUERPO_1
 10
0
 20
0
 30
0
 70
128
 71
1411
 72
1412
 73
1420
 74
1419
 0
VERTEX
 8
CUERPO_1
 10
0
 20
0
 30
0
 70
128
 71
1413
 72
1414
 73
1422
 74
1421
 0
VERTEX
 8
CUERPO_1
 10
0
 20
0
 30
0
 70
128
 71
1415
 72
1416
 73
1136
 74
1135
 0
VERTEX
 8
CUERPO_1
 10
0
 20
0
 30
0
 70
128
 71
1417
 72
1418
 73
1138
 74
1137
 0
VERTEX
 8
CUERPO_1
 10
0
 20
0
 30
0
 70
128
 71
1419
 72
1420
 73
1140
 74
1139
 0
VERTEX
 8
CUERPO_1
 10
0
 20
0
 30
0
 70
128
 71
1421
 72
1422
 73
1142
 74
1141
 0
VERTEX
 8
CUERPO_1
 10
0
 20
0
 30
0
 70
128
 71
1423
 72
1424
 73
1426
 74
1425
 0
VERTEX
 8
CUERPO_1
 10
0
 20
0
 30
0
 70
128
 71
1425
 72
1426
 73
1428
 74
1427
 0
VERTEX
 8
CUERPO_1
 10
0
 20
0
 30
0
 70
128
 71
1427
 72
1428
 73
1430
 74
1429
 0
VERTEX
 8
CUERPO_1
 10
0
 20
0
 30
0
 70
128
 71
1429
 72
1430
 73
1432
 74
1431
 0
VERTEX
 8
CUERPO_1
 10
0
 20
0
 30
0
 70
128
 71
1431
 72
1432
 73
1434
 74
1433
 0
VERTEX
 8
CUERPO_1
 10
0
 20
0
 30
0
 70
128
 71
1433
 72
1434
 73
1436
 74
1435
 0
VERTEX
 8
CUERPO_1
 10
0
 20
0
 30
0
 70
128
 71
1435
 72
1436
 73
1438
 74
1437
 0
VERTEX
 8
CUERPO_1
 10
0
 20
0
 30
0
 70
128
 71
1437
 72
1438
 73
1424
 74
1423
 0
VERTEX
 8
CUERPO_1
 10
0
 20
0
 30
0
 70
128
 71
1424
 72
1438
 73
1428
 74
1426
 0
VERTEX
 8
CUERPO_1
 10
0
 20
0
 30
0
 70
128
 71
1438
 72
1436
 73
1430
 74
1428
 0
VERTEX
 8
CUERPO_1
 10
0
 20
0
 30
0
 70
128
 71
1450
 72
1449
 73
1448
 74
1447
 0
VERTEX
 8
CUERPO_1
 10
0
 20
0
 30
0
 70
128
 71
1433
 72
1435
 73
1429
 74
1431
 0
VERTEX
 8
CUERPO_1
 10
0
 20
0
 30
0
 70
128
 71
1435
 72
1437
 73
1427
 74
1429
 0
VERTEX
 8
CUERPO_1
 10
0
 20
0
 30
0
 70
128
 71
1437
 72
1423
 73
1425
 74
1427
 0
VERTEX
 8
CUERPO_1
 10
0
 20
0
 30
0
 70
128
 71
1436
 72
1442
 73
1439
 74
1430
 0
VERTEX
 8
CUERPO_1
 10
0
 20
0
 30
0
 70
128
 71
1430
 72
1439
 73
1440
 74
1432
 0
VERTEX
 8
CUERPO_1
 10
0
 20
0
 30
0
 70
128
 71
1432
 72
1440
 73
1441
 74
1434
 0
VERTEX
 8
CUERPO_1
 10
0
 20
0
 30
0
 70
128
 71
1434
 72
1441
 73
1442
 74
1436
 0
VERTEX
 8
CUERPO_1
 10
0
 20
0
 30
0
 70
128
 71
1442
 72
1446
 73
1443
 74
1439
 0
VERTEX
 8
CUERPO_1
 10
0
 20
0
 30
0
 70
128
 71
1439
 72
1443
 73
1444
 74
1440
 0
VERTEX
 8
CUERPO_1
 10
0
 20
0
 30
0
 70
128
 71
1440
 72
1444
 73
1445
 74
1441
 0
VERTEX
 8
CUERPO_1
 10
0
 20
0
 30
0
 70
128
 71
1441
 72
1445
 73
1446
 74
1442
 0
VERTEX
 8
CUERPO_1
 10
0
 20
0
 30
0
 70
128
 71
1446
 72
1450
 73
1447
 74
1443
 0
VERTEX
 8
CUERPO_1
 10
0
 20
0
 30
0
 70
128
 71
1443
 72
1447
 73
1448
 74
1444
 0
VERTEX
 8
CUERPO_1
 10
0
 20
0
 30
0
 70
128
 71
1444
 72
1448
 73
1449
 74
1445
 0
VERTEX
 8
CUERPO_1
 10
0
 20
0
 30
0
 70
128
 71
1445
 72
1449
 73
1450
 74
1446
 0
SEQEND
 0
POLYLINE
 8
MANGO
 66
1
 10
0.0
 20
0.0
 30
0.0
 70
64
 71
34
 72
37
 0
VERTEX
 8
MANGO
 10
-0.0747
 20
0.6243
 30
-0.6078
 70
192
 0
VERTEX
 8
MANGO
 10
-0.0747
 20
0.5818
 30
-0.4346
 70
192
 0
VERTEX
 8
MANGO
 10
-0.0747
 20
0.5495
 30
-0.2615
 70
192
 0
VERTEX
 8
MANGO
 10
-0.0946
 20
0.4995
 30
-0.1099
 70
192
 0
VERTEX
 8
MANGO
 10
-0.0747
 20
0.5662
 30
0.2596
 70
192
 0
VERTEX
 8
MANGO
 10
0.0747
 20
0.6243
 30
-0.6078
 70
192
 0
VERTEX
 8
MANGO
 10
0.0747
 20
0.5818
 30
-0.4346
 70
192
 0
VERTEX
 8
MANGO
 10
0.0747
 20
0.5495
 30
-0.2615
 70
192
 0
VERTEX
 8
MANGO
 10
0.0547
 20
0.4995
 30
-0.1099
 70
192
 0
VERTEX
 8
MANGO
 10
0.0747
 20
0.5662
 30
0.2596
 70
192
 0
VERTEX
 8
MANGO
 10
0.0747
 20
0.9797
 30
-0.5698
 70
192
 0
VERTEX
 8
MANGO
 10
0.0747
 20
0.9504
 30
-0.349
 70
192
 0
VERTEX
 8
MANGO
 10
0.0747
 20
0.8983
 30
-0.125
 70
192
 0
VERTEX
 8
MANGO
 10
0.0747
 20
0.7784
 30
0.065
 70
192
 0
VERTEX
 8
MANGO
 10
0.0747
 20
0.6665
 30
0.2555
 70
192
 0
VERTEX
 8
MANGO
 10
-0.0747
 20
0.9797
 30
-0.5698
 70
192
 0
VERTEX
 8
MANGO
 10
-0.0747
 20
0.9504
 30
-0.349
 70
192
 0
VERTEX
 8
MANGO
 10
-0.0747
 20
0.8983
 30
-0.125
 70
192
 0
VERTEX
 8
MANGO
 10
-0.0747
 20
0.7784
 30
0.065
 70
192
 0
VERTEX
 8
MANGO
 10
-0.0747
 20
0.6665
 30
0.2555
 70
192
 0
VERTEX
 8
MANGO
 10
-0.0747
 20
0.5203
 30
0.1205
 70
192
 0
VERTEX
 8
MANGO
 10
0.0747
 20
0.5205
 30
0.1214
 70
192
 0
VERTEX
 8
MANGO
 10
-0.0747
 20
0.3236
 30
-0.1547
 70
192
 0
VERTEX
 8
MANGO
 10
0.0747
 20
0.3236
 30
-0.1547
 70
192
 0
VERTEX
 8
MANGO
 10
-0.0747
 20
0.3578
 30
0.0387
 70
192
 0
VERTEX
 8
MANGO
 10
0.0747
 20
0.358
 30
0.0397
 70
192
 0
VERTEX
 8
MANGO
 10
-0.0747
 20
0.4369
 30
-0.0856
 70
192
 0
VERTEX
 8
MANGO
 10
0.0747
 20
0.4154
 30
-0.0938
 70
192
 0
VERTEX
 8
MANGO
 10
-0.083
 20
0.5466
 30
-0.1981
 70
192
 0
VERTEX
 8
MANGO
 10
0.0663
 20
0.5465
 30
-0.1976
 70
192
 0
VERTEX
 8
MANGO
 10
-0.0747
 20
0.5933
 30
-0.3565
 70
192
 0
VERTEX
 8
MANGO
 10
0.0747
 20
0.5951
 30
-0.3627
 70
192
 0
VERTEX
 8
MANGO
 10
-0.0747
 20
0.6349
 30
-0.5261
 70
192
 0
VERTEX
 8
MANGO
 10
0.0747
 20
0.6382
 30
-0.5374
 70
192
 0
VERTEX
 8
MANGO
 10
0
 20
0
 30
0
 70
128
 71
1
 72
33
 73
34
 74
6
 0
VERTEX
 8
MANGO
 10
0
 20
0
 30
0
 70
128
 71
2
 72
31
 73
32
 74
7
 0
VERTEX
 8
MANGO
 10
0
 20
0
 30
0
 70
128
 71
3
 72
29
 73
30
 74
8
 0
VERTEX
 8
MANGO
 10
0
 20
0
 30
0
 70
128
 71
23
 72
25
 73
26
 74
24
 0
VERTEX
 8
MANGO
 10
0
 20
0
 30
0
 70
128
 71
34
 72
7
 73
12
 74
11
 0
VERTEX
 8
MANGO
 10
0
 20
0
 30
0
 70
128
 71
7
 72
32
 73
12
 74
12
 0
VERTEX
 8
MANGO
 10
0
 20
0
 30
0
 70
128
 71
30
 72
9
 73
14
 74
14
 0
VERTEX
 8
MANGO
 10
0
 20
0
 30
0
 70
128
 71
22
 72
10
 73
15
 74
15
 0
VERTEX
 8
MANGO
 10
0
 20
0
 30
0
 70
128
 71
11
 72
12
 73
17
 74
16
 0
VERTEX
 8
MANGO
 10
0
 20
0
 30
0
 70
128
 71
12
 72
13
 73
18
 74
17
 0
VERTEX
 8
MANGO
 10
0
 20
0
 30
0
 70
128
 71
13
 72
14
 73
19
 74
18
 0
VERTEX
 8
MANGO
 10
0
 20
0
 30
0
 70
128
 71
14
 72
15
 73
20
 74
19
 0
VERTEX
 8
MANGO
 10
0
 20
0
 30
0
 70
128
 71
33
 72
16
 73
17
 74
2
 0
VERTEX
 8
MANGO
 10
0
 20
0
 30
0
 70
128
 71
31
 72
17
 73
18
 74
3
 0
VERTEX
 8
MANGO
 10
0
 20
0
 30
0
 70
128
 71
18
 72
19
 73
29
 74
3
 0
VERTEX
 8
MANGO
 10
0
 20
0
 30
0
 70
128
 71
19
 72
20
 73
21
 74
4
 0
VERTEX
 8
MANGO
 10
0
 20
0
 30
0
 70
128
 71
5
 72
20
 73
15
 74
10
 0
VERTEX
 8
MANGO
 10
0
 20
0
 30
0
 70
128
 71
16
 72
1
 73
6
 74
11
 0
VERTEX
 8
MANGO
 10
0
 20
0
 30
0
 70
128
 71
14
 72
9
 73
22
 74
15
 0
VERTEX
 8
MANGO
 10
0
 20
0
 30
0
 70
128
 71
20
 72
5
 73
21
 74
21
 0
VERTEX
 8
MANGO
 10
0
 20
0
 30
0
 70
128
 71
21
 72
5
 73
10
 74
22
 0
VERTEX
 8
MANGO
 10
0
 20
0
 30
0
 70
128
 71
4
 72
27
 73
28
 74
9
 0
VERTEX
 8
MANGO
 10
0
 20
0
 30
0
 70
128
 71
28
 72
24
 73
26
 74
26
 0
VERTEX
 8
MANGO
 10
0
 20
0
 30
0
 70
128
 71
22
 72
26
 73
25
 74
21
 0
VERTEX
 8
MANGO
 10
0
 20
0
 30
0
 70
128
 71
21
 72
25
 73
27
 74
4
 0
VERTEX
 8
MANGO
 10
0
 20
0
 30
0
 70
128
 71
22
 72
9
 73
28
 74
26
 0
VERTEX
 8
MANGO
 10
0
 20
0
 30
0
 70
128
 71
25
 72
23
 73
27
 74
27
 0
VERTEX
 8
MANGO
 10
0
 20
0
 30
0
 70
128
 71
27
 72
23
 73
24
 74
28
 0
VERTEX
 8
MANGO
 10
0
 20
0
 30
0
 70
128
 71
13
 72
8
 73
30
 74
14
 0
VERTEX
 8
MANGO
 10
0
 20
0
 30
0
 70
128
 71
19
 72
4
 73
29
 74
29
 0
VERTEX
 8
MANGO
 10
0
 20
0
 30
0
 70
128
 71
29
 72
4
 73
9
 74
30
 0
VERTEX
 8
MANGO
 10
0
 20
0
 30
0
 70
128
 71
32
 72
8
 73
13
 74
12
 0
VERTEX
 8
MANGO
 10
0
 20
0
 30
0
 70
128
 71
17
 72
31
 73
2
 74
2
 0
VERTEX
 8
MANGO
 10
0
 20
0
 30
0
 70
128
 71
31
 72
3
 73
8
 74
32
 0
VERTEX
 8
MANGO
 10
0
 20
0
 30
0
 70
128
 71
6
 72
34
 73
11
 74
11
 0
VERTEX
 8
MANGO
 10
0
 20
0
 30
0
 70
128
 71
16
 72
33
 73
1
 74
1
 0
VERTEX
 8
MANGO
 10
0
 20
0
 30
0
 70
128
 71
33
 72
2
 73
7
 74
34
 0
SEQEND
 0
POLYLINE
 8
CARGADOR
 66
1
 10
0.0
 20
0.0
 30
0.0
 70
64
 71
288
 72
144
 0
VERTEX
 8
CARGADOR
 10
0
 20
0.2235
 30
0.3186
 70
192
 0
VERTEX
 8
CARGADOR
 10
0.1598
 20
0.2235
 30
0.3186
 70
192
 0
VERTEX
 8
CARGADOR
 10
0.1598
 20
0.2235
 30
0.3186
 70
192
 0
VERTEX
 8
CARGADOR
 10
0.1598
 20
-0.1205
 30
0.3186
 70
192
 0
VERTEX
 8
CARGADOR
 10
0.1598
 20
-0.1205
 30
0.3186
 70
192
 0
VERTEX
 8
CARGADOR
 10
0
 20
-0.1205
 30
0.3186
 70
192
 0
VERTEX
 8
CARGADOR
 10
0
 20
-0.1205
 30
0.3186
 70
192
 0
VERTEX
 8
CARGADOR
 10
0
 20
0.2235
 30
0.3186
 70
192
 0
VERTEX
 8
CARGADOR
 10
0
 20
0.2235
 30
0.3186
 70
192
 0
VERTEX
 8
CARGADOR
 10
0.1574
 20
0.2235
 30
0.3464
 70
192
 0
VERTEX
 8
CARGADOR
 10
0.1574
 20
0.2235
 30
0.3464
 70
192
 0
VERTEX
 8
CARGADOR
 10
0.1574
 20
-0.1205
 30
0.3464
 70
192
 0
VERTEX
 8
CARGADOR
 10
0.1574
 20
-0.1205
 30
0.3464
 70
192
 0
VERTEX
 8
CARGADOR
 10
0
 20
-0.1205
 30
0.3186
 70
192
 0
VERTEX
 8
CARGADOR
 10
0
 20
-0.1205
 30
0.3186
 70
192
 0
VERTEX
 8
CARGADOR
 10
0
 20
0.2235
 30
0.3186
 70
192
 0
VERTEX
 8
CARGADOR
 10
0
 20
0.2235
 30
0.3186
 70
192
 0
VERTEX
 8
CARGADOR
 10
0.1502
 20
0.2235
 30
0.3733
 70
192
 0
VERTEX
 8
CARGADOR
 10
0.1502
 20
0.2235
 30
0.3733
 70
192
 0
VERTEX
 8
CARGADOR
 10
0.1502
 20
-0.1205
 30
0.3733
 70
192
 0
VERTEX
 8
CARGADOR
 10
0.1502
 20
-0.1205
 30
0.3733
 70
192
 0
VERTEX
 8
CARGADOR
 10
0
 20
-0.1205
 30
0.3186
 70
192
 0
VERTEX
 8
CARGADOR
 10
0
 20
-0.1205
 30
0.3186
 70
192
 0
VERTEX
 8
CARGADOR
 10
0
 20
0.2235
 30
0.3186
 70
192
 0
VERTEX
 8
CARGADOR
 10
0
 20
0.2235
 30
0.3186
 70
192
 0
VERTEX
 8
CARGADOR
 10
0.1384
 20
0.2235
 30
0.3985
 70
192
 0
VERTEX
 8
CARGADOR
 10
0.1384
 20
0.2235
 30
0.3985
 70
192
 0
VERTEX
 8
CARGADOR
 10
0.1384
 20
-0.1205
 30
0.3985
 70
192
 0
VERTEX
 8
CARGADOR
 10
0.1384
 20
-0.1205
 30
0.3985
 70
192
 0
VERTEX
 8
CARGADOR
 10
0
 20
-0.1205
 30
0.3186
 70
192
 0
VERTEX
 8
CARGADOR
 10
0
 20
-0.1205
 30
0.3186
 70
192
 0
VERTEX
 8
CARGADOR
 10
0
 20
0.2235
 30
0.3186
 70
192
 0
VERTEX
 8
CARGADOR
 10
0
 20
0.2235
 30
0.3186
 70
192
 0
VERTEX
 8
CARGADOR
 10
0.1224
 20
0.2235
 30
0.4214
 70
192
 0
VERTEX
 8
CARGADOR
 10
0.1224
 20
0.2235
 30
0.4214
 70
192
 0
VERTEX
 8
CARGADOR
 10
0.1224
 20
-0.1205
 30
0.4214
 70
192
 0
VERTEX
 8
CARGADOR
 10
0.1224
 20
-0.1205
 30
0.4214
 70
192
 0
VERTEX
 8
CARGADOR
 10
0
 20
-0.1205
 30
0.3186
 70
192
 0
VERTEX
 8
CARGADOR
 10
0
 20
-0.1205
 30
0.3186
 70
192
 0
VERTEX
 8
CARGADOR
 10
0
 20
0.2235
 30
0.3186
 70
192
 0
VERTEX
 8
CARGADOR
 10
0
 20
0.2235
 30
0.3186
 70
192
 0
VERTEX
 8
CARGADOR
 10
0.1027
 20
0.2235
 30
0.4411
 70
192
 0
VERTEX
 8
CARGADOR
 10
0.1027
 20
0.2235
 30
0.4411
 70
192
 0
VERTEX
 8
CARGADOR
 10
0.1027
 20
-0.1205
 30
0.4411
 70
192
 0
VERTEX
 8
CARGADOR
 10
0.1027
 20
-0.1205
 30
0.4411
 70
192
 0
VERTEX
 8
CARGADOR
 10
0
 20
-0.1205
 30
0.3186
 70
192
 0
VERTEX
 8
CARGADOR
 10
0
 20
-0.1205
 30
0.3186
 70
192
 0
VERTEX
 8
CARGADOR
 10
0
 20
0.2235
 30
0.3186
 70
192
 0
VERTEX
 8
CARGADOR
 10
0
 20
0.2235
 30
0.3186
 70
192
 0
VERTEX
 8
CARGADOR
 10
0.0799
 20
0.2235
 30
0.457
 70
192
 0
VERTEX
 8
CARGADOR
 10
0.0799
 20
0.2235
 30
0.457
 70
192
 0
VERTEX
 8
CARGADOR
 10
0.0799
 20
-0.1205
 30
0.457
 70
192
 0
VERTEX
 8
CARGADOR
 10
0.0799
 20
-0.1205
 30
0.457
 70
192
 0
VERTEX
 8
CARGADOR
 10
0
 20
-0.1205
 30
0.3186
 70
192
 0
VERTEX
 8
CARGADOR
 10
0
 20
-0.1205
 30
0.3186
 70
192
 0
VERTEX
 8
CARGADOR
 10
0
 20
0.2235
 30
0.3186
 70
192
 0
VERTEX
 8
CARGADOR
 10
0
 20
0.2235
 30
0.3186
 70
192
 0
VERTEX
 8
CARGADOR
 10
0.0547
 20
0.2235
 30
0.4688
 70
192
 0
VERTEX
 8
CARGADOR
 10
0.0547
 20
0.2235
 30
0.4688
 70
192
 0
VERTEX
 8
CARGADOR
 10
0.0547
 20
-0.1205
 30
0.4688
 70
192
 0
VERTEX
 8
CARGADOR
 10
0.0547
 20
-0.1205
 30
0.4688
 70
192
 0
VERTEX
 8
CARGADOR
 10
0
 20
-0.1205
 30
0.3186
 70
192
 0
VERTEX
 8
CARGADOR
 10
0
 20
-0.1205
 30
0.3186
 70
192
 0
VERTEX
 8
CARGADOR
 10
0
 20
0.2235
 30
0.3186
 70
192
 0
VERTEX
 8
CARGADOR
 10
0
 20
0.2235
 30
0.3186
 70
192
 0
VERTEX
 8
CARGADOR
 10
0.0278
 20
0.2235
 30
0.476
 70
192
 0
VERTEX
 8
CARGADOR
 10
0.0278
 20
0.2235
 30
0.476
 70
192
 0
VERTEX
 8
CARGADOR
 10
0.0278
 20
-0.1205
 30
0.476
 70
192
 0
VERTEX
 8
CARGADOR
 10
0.0278
 20
-0.1205
 30
0.476
 70
192
 0
VERTEX
 8
CARGADOR
 10
0
 20
-0.1205
 30
0.3186
 70
192
 0
VERTEX
 8
CARGADOR
 10
0
 20
-0.1205
 30
0.3186
 70
192
 0
VERTEX
 8
CARGADOR
 10
0
 20
0.2235
 30
0.3186
 70
192
 0
VERTEX
 8
CARGADOR
 10
0
 20
0.2235
 30
0.3186
 70
192
 0
VERTEX
 8
CARGADOR
 10
0
 20
0.2235
 30
0.4785
 70
192
 0
VERTEX
 8
CARGADOR
 10
0
 20
0.2235
 30
0.4785
 70
192
 0
VERTEX
 8
CARGADOR
 10
0
 20
-0.1205
 30
0.4785
 70
192
 0
VERTEX
 8
CARGADOR
 10
0
 20
-0.1205
 30
0.4785
 70
192
 0
VERTEX
 8
CARGADOR
 10
0
 20
-0.1205
 30
0.3186
 70
192
 0
VERTEX
 8
CARGADOR
 10
0
 20
-0.1205
 30
0.3186
 70
192
 0
VERTEX
 8
CARGADOR
 10
0
 20
0.2235
 30
0.3186
 70
192
 0
VERTEX
 8
CARGADOR
 10
0
 20
0.2235
 30
0.3186
 70
192
 0
VERTEX
 8
CARGADOR
 10
-0.0278
 20
0.2235
 30
0.476
 70
192
 0
VERTEX
 8
CARGADOR
 10
-0.0278
 20
0.2235
 30
0.476
 70
192
 0
VERTEX
 8
CARGADOR
 10
-0.0278
 20
-0.1205
 30
0.476
 70
192
 0
VERTEX
 8
CARGADOR
 10
-0.0278
 20
-0.1205
 30
0.476
 70
192
 0
VERTEX
 8
CARGADOR
 10
0
 20
-0.1205
 30
0.3186
 70
192
 0
VERTEX
 8
CARGADOR
 10
0
 20
-0.1205
 30
0.3186
 70
192
 0
VERTEX
 8
CARGADOR
 10
0
 20
0.2235
 30
0.3186
 70
192
 0
VERTEX
 8
CARGADOR
 10
0
 20
0.2235
 30
0.3186
 70
192
 0
VERTEX
 8
CARGADOR
 10
-0.0547
 20
0.2235
 30
0.4688
 70
192
 0
VERTEX
 8
CARGADOR
 10
-0.0547
 20
0.2235
 30
0.4688
 70
192
 0
VERTEX
 8
CARGADOR
 10
-0.0547
 20
-0.1205
 30
0.4688
 70
192
 0
VERTEX
 8
CARGADOR
 10
-0.0547
 20
-0.1205
 30
0.4688
 70
192
 0
VERTEX
 8
CARGADOR
 10
0
 20
-0.1205
 30
0.3186
 70
192
 0
VERTEX
 8
CARGADOR
 10
0
 20
-0.1205
 30
0.3186
 70
192
 0
VERTEX
 8
CARGADOR
 10
0
 20
0.2235
 30
0.3186
 70
192
 0
VERTEX
 8
CARGADOR
 10
0
 20
0.2235
 30
0.3186
 70
192
 0
VERTEX
 8
CARGADOR
 10
-0.0799
 20
0.2235
 30
0.457
 70
192
 0
VERTEX
 8
CARGADOR
 10
-0.0799
 20
0.2235
 30
0.457
 70
192
 0
VERTEX
 8
CARGADOR
 10
-0.0799
 20
-0.1205
 30
0.457
 70
192
 0
VERTEX
 8
CARGADOR
 10
-0.0799
 20
-0.1205
 30
0.457
 70
192
 0
VERTEX
 8
CARGADOR
 10
0
 20
-0.1205
 30
0.3186
 70
192
 0
VERTEX
 8
CARGADOR
 10
0
 20
-0.1205
 30
0.3186
 70
192
 0
VERTEX
 8
CARGADOR
 10
0
 20
0.2235
 30
0.3186
 70
192
 0
VERTEX
 8
CARGADOR
 10
0
 20
0.2235
 30
0.3186
 70
192
 0
VERTEX
 8
CARGADOR
 10
-0.1027
 20
0.2235
 30
0.4411
 70
192
 0
VERTEX
 8
CARGADOR
 10
-0.1027
 20
0.2235
 30
0.4411
 70
192
 0
VERTEX
 8
CARGADOR
 10
-0.1027
 20
-0.1205
 30
0.4411
 70
192
 0
VERTEX
 8
CARGADOR
 10
-0.1027
 20
-0.1205
 30
0.4411
 70
192
 0
VERTEX
 8
CARGADOR
 10
0
 20
-0.1205
 30
0.3186
 70
192
 0
VERTEX
 8
CARGADOR
 10
0
 20
-0.1205
 30
0.3186
 70
192
 0
VERTEX
 8
CARGADOR
 10
0
 20
0.2235
 30
0.3186
 70
192
 0
VERTEX
 8
CARGADOR
 10
0
 20
0.2235
 30
0.3186
 70
192
 0
VERTEX
 8
CARGADOR
 10
-0.1224
 20
0.2235
 30
0.4214
 70
192
 0
VERTEX
 8
CARGADOR
 10
-0.1224
 20
0.2235
 30
0.4214
 70
192
 0
VERTEX
 8
CARGADOR
 10
-0.1224
 20
-0.1205
 30
0.4214
 70
192
 0
VERTEX
 8
CARGADOR
 10
-0.1224
 20
-0.1205
 30
0.4214
 70
192
 0
VERTEX
 8
CARGADOR
 10
0
 20
-0.1205
 30
0.3186
 70
192
 0
VERTEX
 8
CARGADOR
 10
0
 20
-0.1205
 30
0.3186
 70
192
 0
VERTEX
 8
CARGADOR
 10
0
 20
0.2235
 30
0.3186
 70
192
 0
VERTEX
 8
CARGADOR
 10
0
 20
0.2235
 30
0.3186
 70
192
 0
VERTEX
 8
CARGADOR
 10
-0.1384
 20
0.2235
 30
0.3985
 70
192
 0
VERTEX
 8
CARGADOR
 10
-0.1384
 20
0.2235
 30
0.3985
 70
192
 0
VERTEX
 8
CARGADOR
 10
-0.1384
 20
-0.1205
 30
0.3985
 70
192
 0
VERTEX
 8
CARGADOR
 10
-0.1384
 20
-0.1205
 30
0.3985
 70
192
 0
VERTEX
 8
CARGADOR
 10
0
 20
-0.1205
 30
0.3186
 70
192
 0
VERTEX
 8
CARGADOR
 10
0
 20
-0.1205
 30
0.3186
 70
192
 0
VERTEX
 8
CARGADOR
 10
0
 20
0.2235
 30
0.3186
 70
192
 0
VERTEX
 8
CARGADOR
 10
0
 20
0.2235
 30
0.3186
 70
192
 0
VERTEX
 8
CARGADOR
 10
-0.1502
 20
0.2235
 30
0.3733
 70
192
 0
VERTEX
 8
CARGADOR
 10
-0.1502
 20
0.2235
 30
0.3733
 70
192
 0
VERTEX
 8
CARGADOR
 10
-0.1502
 20
-0.1205
 30
0.3733
 70
192
 0
VERTEX
 8
CARGADOR
 10
-0.1502
 20
-0.1205
 30
0.3733
 70
192
 0
VERTEX
 8
CARGADOR
 10
0
 20
-0.1205
 30
0.3186
 70
192
 0
VERTEX
 8
CARGADOR
 10
0
 20
-0.1205
 30
0.3186
 70
192
 0
VERTEX
 8
CARGADOR
 10
0
 20
0.2235
 30
0.3186
 70
192
 0
VERTEX
 8
CARGADOR
 10
0
 20
0.2235
 30
0.3186
 70
192
 0
VERTEX
 8
CARGADOR
 10
-0.1574
 20
0.2235
 30
0.3464
 70
192
 0
VERTEX
 8
CARGADOR
 10
-0.1574
 20
0.2235
 30
0.3464
 70
192
 0
VERTEX
 8
CARGADOR
 10
-0.1574
 20
-0.1205
 30
0.3464
 70
192
 0
VERTEX
 8
CARGADOR
 10
-0.1574
 20
-0.1205
 30
0.3464
 70
192
 0
VERTEX
 8
CARGADOR
 10
0
 20
-0.1205
 30
0.3186
 70
192
 0
VERTEX
 8
CARGADOR
 10
0
 20
-0.1205
 30
0.3186
 70
192
 0
VERTEX
 8
CARGADOR
 10
0
 20
0.2235
 30
0.3186
 70
192
 0
VERTEX
 8
CARGADOR
 10
0
 20
0.2235
 30
0.3186
 70
192
 0
VERTEX
 8
CARGADOR
 10
-0.1598
 20
0.2235
 30
0.3186
 70
192
 0
VERTEX
 8
CARGADOR
 10
-0.1598
 20
0.2235
 30
0.3186
 70
192
 0
VERTEX
 8
CARGADOR
 10
-0.1598
 20
-0.1205
 30
0.3186
 70
192
 0
VERTEX
 8
CARGADOR
 10
-0.1598
 20
-0.1205
 30
0.3186
 70
192
 0
VERTEX
 8
CARGADOR
 10
0
 20
-0.1205
 30
0.3186
 70
192
 0
VERTEX
 8
CARGADOR
 10
0
 20
-0.1205
 30
0.3186
 70
192
 0
VERTEX
 8
CARGADOR
 10
0
 20
0.2235
 30
0.3186
 70
192
 0
VERTEX
 8
CARGADOR
 10
0
 20
0.2235
 30
0.3186
 70
192
 0
VERTEX
 8
CARGADOR
 10
-0.1574
 20
0.2235
 30
0.2909
 70
192
 0
VERTEX
 8
CARGADOR
 10
-0.1574
 20
0.2235
 30
0.2909
 70
192
 0
VERTEX
 8
CARGADOR
 10
-0.1574
 20
-0.1205
 30
0.2909
 70
192
 0
VERTEX
 8
CARGADOR
 10
-0.1574
 20
-0.1205
 30
0.2909
 70
192
 0
VERTEX
 8
CARGADOR
 10
0
 20
-0.1205
 30
0.3186
 70
192
 0
VERTEX
 8
CARGADOR
 10
0
 20
-0.1205
 30
0.3186
 70
192
 0
VERTEX
 8
CARGADOR
 10
0
 20
0.2235
 30
0.3186
 70
192
 0
VERTEX
 8
CARGADOR
 10
0
 20
0.2235
 30
0.3186
 70
192
 0
VERTEX
 8
CARGADOR
 10
-0.1502
 20
0.2235
 30
0.264
 70
192
 0
VERTEX
 8
CARGADOR
 10
-0.1502
 20
0.2235
 30
0.264
 70
192
 0
VERTEX
 8
CARGADOR
 10
-0.1502
 20
-0.1205
 30
0.264
 70
192
 0
VERTEX
 8
CARGADOR
 10
-0.1502
 20
-0.1205
 30
0.264
 70
192
 0
VERTEX
 8
CARGADOR
 10
0
 20
-0.1205
 30
0.3186
 70
192
 0
VERTEX
 8
CARGADOR
 10
0
 20
-0.1205
 30
0.3186
 70
192
 0
VERTEX
 8
CARGADOR
 10
0
 20
0.2235
 30
0.3186
 70
192
 0
VERTEX
 8
CARGADOR
 10
0
 20
0.2235
 30
0.3186
 70
192
 0
VERTEX
 8
CARGADOR
 10
-0.1384
 20
0.2235
 30
0.2387
 70
192
 0
VERTEX
 8
CARGADOR
 10
-0.1384
 20
0.2235
 30
0.2387
 70
192
 0
VERTEX
 8
CARGADOR
 10
-0.1384
 20
-0.1205
 30
0.2387
 70
192
 0
VERTEX
 8
CARGADOR
 10
-0.1384
 20
-0.1205
 30
0.2387
 70
192
 0
VERTEX
 8
CARGADOR
 10
0
 20
-0.1205
 30
0.3186
 70
192
 0
VERTEX
 8
CARGADOR
 10
0
 20
-0.1205
 30
0.3186
 70
192
 0
VERTEX
 8
CARGADOR
 10
0
 20
0.2235
 30
0.3186
 70
192
 0
VERTEX
 8
CARGADOR
 10
0
 20
0.2235
 30
0.3186
 70
192
 0
VERTEX
 8
CARGADOR
 10
-0.1224
 20
0.2235
 30
0.2159
 70
192
 0
VERTEX
 8
CARGADOR
 10
-0.1224
 20
0.2235
 30
0.2159
 70
192
 0
VERTEX
 8
CARGADOR
 10
-0.1224
 20
-0.1205
 30
0.2159
 70
192
 0
VERTEX
 8
CARGADOR
 10
-0.1224
 20
-0.1205
 30
0.2159
 70
192
 0
VERTEX
 8
CARGADOR
 10
0
 20
-0.1205
 30
0.3186
 70
192
 0
VERTEX
 8
CARGADOR
 10
0
 20
-0.1205
 30
0.3186
 70
192
 0
VERTEX
 8
CARGADOR
 10
0
 20
0.2235
 30
0.3186
 70
192
 0
VERTEX
 8
CARGADOR
 10
0
 20
0.2235
 30
0.3186
 70
192
 0
VERTEX
 8
CARGADOR
 10
-0.1027
 20
0.2235
 30
0.1962
 70
192
 0
VERTEX
 8
CARGADOR
 10
-0.1027
 20
0.2235
 30
0.1962
 70
192
 0
VERTEX
 8
CARGADOR
 10
-0.1027
 20
-0.1205
 30
0.1962
 70
192
 0
VERTEX
 8
CARGADOR
 10
-0.1027
 20
-0.1205
 30
0.1962
 70
192
 0
VERTEX
 8
CARGADOR
 10
0
 20
-0.1205
 30
0.3186
 70
192
 0
VERTEX
 8
CARGADOR
 10
0
 20
-0.1205
 30
0.3186
 70
192
 0
VERTEX
 8
CARGADOR
 10
0
 20
0.2235
 30
0.3186
 70
192
 0
VERTEX
 8
CARGADOR
 10
0
 20
0.2235
 30
0.3186
 70
192
 0
VERTEX
 8
CARGADOR
 10
-0.0799
 20
0.2235
 30
0.1802
 70
192
 0
VERTEX
 8
CARGADOR
 10
-0.0799
 20
0.2235
 30
0.1802
 70
192
 0
VERTEX
 8
CARGADOR
 10
-0.0799
 20
-0.1205
 30
0.1802
 70
192
 0
VERTEX
 8
CARGADOR
 10
-0.0799
 20
-0.1205
 30
0.1802
 70
192
 0
VERTEX
 8
CARGADOR
 10
0
 20
-0.1205
 30
0.3186
 70
192
 0
VERTEX
 8
CARGADOR
 10
0
 20
-0.1205
 30
0.3186
 70
192
 0
VERTEX
 8
CARGADOR
 10
0
 20
0.2235
 30
0.3186
 70
192
 0
VERTEX
 8
CARGADOR
 10
0
 20
0.2235
 30
0.3186
 70
192
 0
VERTEX
 8
CARGADOR
 10
-0.0547
 20
0.2235
 30
0.1685
 70
192
 0
VERTEX
 8
CARGADOR
 10
-0.0547
 20
0.2235
 30
0.1685
 70
192
 0
VERTEX
 8
CARGADOR
 10
-0.0547
 20
-0.1205
 30
0.1685
 70
192
 0
VERTEX
 8
CARGADOR
 10
-0.0547
 20
-0.1205
 30
0.1685
 70
192
 0
VERTEX
 8
CARGADOR
 10
0
 20
-0.1205
 30
0.3186
 70
192
 0
VERTEX
 8
CARGADOR
 10
0
 20
-0.1205
 30
0.3186
 70
192
 0
VERTEX
 8
CARGADOR
 10
0
 20
0.2235
 30
0.3186
 70
192
 0
VERTEX
 8
CARGADOR
 10
0
 20
0.2235
 30
0.3186
 70
192
 0
VERTEX
 8
CARGADOR
 10
-0.0278
 20
0.2235
 30
0.1612
 70
192
 0
VERTEX
 8
CARGADOR
 10
-0.0278
 20
0.2235
 30
0.1612
 70
192
 0
VERTEX
 8
CARGADOR
 10
-0.0278
 20
-0.1205
 30
0.1612
 70
192
 0
VERTEX
 8
CARGADOR
 10
-0.0278
 20
-0.1205
 30
0.1612
 70
192
 0
VERTEX
 8
CARGADOR
 10
0
 20
-0.1205
 30
0.3186
 70
192
 0
VERTEX
 8
CARGADOR
 10
0
 20
-0.1205
 30
0.3186
 70
192
 0
VERTEX
 8
CARGADOR
 10
0
 20
0.2235
 30
0.3186
 70
192
 0
VERTEX
 8
CARGADOR
 10
0
 20
0.2235
 30
0.3186
 70
192
 0
VERTEX
 8
CARGADOR
 10
0
 20
0.2235
 30
0.1588
 70
192
 0
VERTEX
 8
CARGADOR
 10
0
 20
0.2235
 30
0.1588
 70
192
 0
VERTEX
 8
CARGADOR
 10
0
 20
-0.1205
 30
0.1588
 70
192
 0
VERTEX
 8
CARGADOR
 10
0
 20
-0.1205
 30
0.1588
 70
192
 0
VERTEX
 8
CARGADOR
 10
0
 20
-0.1205
 30
0.3186
 70
192
 0
VERTEX
 8
CARGADOR
 10
0
 20
-0.1205
 30
0.3186
 70
192
 0
VERTEX
 8
CARGADOR
 10
0
 20
0.2235
 30
0.3186
 70
192
 0
VERTEX
 8
CARGADOR
 10
0
 20
0.2235
 30
0.3186
 70
192
 0
VERTEX
 8
CARGADOR
 10
0.0278
 20
0.2235
 30
0.1612
 70
192
 0
VERTEX
 8
CARGADOR
 10
0.0278
 20
0.2235
 30
0.1612
 70
192
 0
VERTEX
 8
CARGADOR
 10
0.0278
 20
-0.1205
 30
0.1612
 70
192
 0
VERTEX
 8
CARGADOR
 10
0.0278
 20
-0.1205
 30
0.1612
 70
192
 0
VERTEX
 8
CARGADOR
 10
0
 20
-0.1205
 30
0.3186
 70
192
 0
VERTEX
 8
CARGADOR
 10
0
 20
-0.1205
 30
0.3186
 70
192
 0
VERTEX
 8
CARGADOR
 10
0
 20
0.2235
 30
0.3186
 70
192
 0
VERTEX
 8
CARGADOR
 10
0
 20
0.2235
 30
0.3186
 70
192
 0
VERTEX
 8
CARGADOR
 10
0.0547
 20
0.2235
 30
0.1685
 70
192
 0
VERTEX
 8
CARGADOR
 10
0.0547
 20
0.2235
 30
0.1685
 70
192
 0
VERTEX
 8
CARGADOR
 10
0.0547
 20
-0.1205
 30
0.1685
 70
192
 0
VERTEX
 8
CARGADOR
 10
0.0547
 20
-0.1205
 30
0.1685
 70
192
 0
VERTEX
 8
CARGADOR
 10
0
 20
-0.1205
 30
0.3186
 70
192
 0
VERTEX
 8
CARGADOR
 10
0
 20
-0.1205
 30
0.3186
 70
192
 0
VERTEX
 8
CARGADOR
 10
0
 20
0.2235
 30
0.3186
 70
192
 0
VERTEX
 8
CARGADOR
 10
0
 20
0.2235
 30
0.3186
 70
192
 0
VERTEX
 8
CARGADOR
 10
0.0799
 20
0.2235
 30
0.1802
 70
192
 0
VERTEX
 8
CARGADOR
 10
0.0799
 20
0.2235
 30
0.1802
 70
192
 0
VERTEX
 8
CARGADOR
 10
0.0799
 20
-0.1205
 30
0.1802
 70
192
 0
VERTEX
 8
CARGADOR
 10
0.0799
 20
-0.1205
 30
0.1802
 70
192
 0
VERTEX
 8
CARGADOR
 10
0
 20
-0.1205
 30
0.3186
 70
192
 0
VERTEX
 8
CARGADOR
 10
0
 20
-0.1205
 30
0.3186
 70
192
 0
VERTEX
 8
CARGADOR
 10
0
 20
0.2235
 30
0.3186
 70
192
 0
VERTEX
 8
CARGADOR
 10
0
 20
0.2235
 30
0.3186
 70
192
 0
VERTEX
 8
CARGADOR
 10
0.1027
 20
0.2235
 30
0.1962
 70
192
 0
VERTEX
 8
CARGADOR
 10
0.1027
 20
0.2235
 30
0.1962
 70
192
 0
VERTEX
 8
CARGADOR
 10
0.1027
 20
-0.1205
 30
0.1962
 70
192
 0
VERTEX
 8
CARGADOR
 10
0.1027
 20
-0.1205
 30
0.1962
 70
192
 0
VERTEX
 8
CARGADOR
 10
0
 20
-0.1205
 30
0.3186
 70
192
 0
VERTEX
 8
CARGADOR
 10
0
 20
-0.1205
 30
0.3186
 70
192
 0
VERTEX
 8
CARGADOR
 10
0
 20
0.2235
 30
0.3186
 70
192
 0
VERTEX
 8
CARGADOR
 10
0
 20
0.2235
 30
0.3186
 70
192
 0
VERTEX
 8
CARGADOR
 10
0.1224
 20
0.2235
 30
0.2159
 70
192
 0
VERTEX
 8
CARGADOR
 10
0.1224
 20
0.2235
 30
0.2159
 70
192
 0
VERTEX
 8
CARGADOR
 10
0.1224
 20
-0.1205
 30
0.2159
 70
192
 0
VERTEX
 8
CARGADOR
 10
0.1224
 20
-0.1205
 30
0.2159
 70
192
 0
VERTEX
 8
CARGADOR
 10
0
 20
-0.1205
 30
0.3186
 70
192
 0
VERTEX
 8
CARGADOR
 10
0
 20
-0.1205
 30
0.3186
 70
192
 0
VERTEX
 8
CARGADOR
 10
0
 20
0.2235
 30
0.3186
 70
192
 0
VERTEX
 8
CARGADOR
 10
0
 20
0.2235
 30
0.3186
 70
192
 0
VERTEX
 8
CARGADOR
 10
0.1384
 20
0.2235
 30
0.2387
 70
192
 0
VERTEX
 8
CARGADOR
 10
0.1384
 20
0.2235
 30
0.2387
 70
192
 0
VERTEX
 8
CARGADOR
 10
0.1384
 20
-0.1205
 30
0.2387
 70
192
 0
VERTEX
 8
CARGADOR
 10
0.1384
 20
-0.1205
 30
0.2387
 70
192
 0
VERTEX
 8
CARGADOR
 10
0
 20
-0.1205
 30
0.3186
 70
192
 0
VERTEX
 8
CARGADOR
 10
0
 20
-0.1205
 30
0.3186
 70
192
 0
VERTEX
 8
CARGADOR
 10
0
 20
0.2235
 30
0.3186
 70
192
 0
VERTEX
 8
CARGADOR
 10
0
 20
0.2235
 30
0.3186
 70
192
 0
VERTEX
 8
CARGADOR
 10
0.1502
 20
0.2235
 30
0.264
 70
192
 0
VERTEX
 8
CARGADOR
 10
0.1502
 20
0.2235
 30
0.264
 70
192
 0
VERTEX
 8
CARGADOR
 10
0.1502
 20
-0.1205
 30
0.264
 70
192
 0
VERTEX
 8
CARGADOR
 10
0.1502
 20
-0.1205
 30
0.264
 70
192
 0
VERTEX
 8
CARGADOR
 10
0
 20
-0.1205
 30
0.3186
 70
192
 0
VERTEX
 8
CARGADOR
 10
0
 20
-0.1205
 30
0.3186
 70
192
 0
VERTEX
 8
CARGADOR
 10
0
 20
0.2235
 30
0.3186
 70
192
 0
VERTEX
 8
CARGADOR
 10
0
 20
0.2235
 30
0.3186
 70
192
 0
VERTEX
 8
CARGADOR
 10
0.1574
 20
0.2235
 30
0.2909
 70
192
 0
VERTEX
 8
CARGADOR
 10
0.1574
 20
0.2235
 30
0.2909
 70
192
 0
VERTEX
 8
CARGADOR
 10
0.1574
 20
-0.1205
 30
0.2909
 70
192
 0
VERTEX
 8
CARGADOR
 10
0.1574
 20
-0.1205
 30
0.2909
 70
192
 0
VERTEX
 8
CARGADOR
 10
0
 20
-0.1205
 30
0.3186
 70
192
 0
VERTEX
 8
CARGADOR
 10
0
 20
-0.1205
 30
0.3186
 70
192
 0
VERTEX
 8
CARGADOR
 10
0
 20
0.2235
 30
0.3186
 70
192
 0
VERTEX
 8
CARGADOR
 10
0
 20
0
 30
0
 70
128
 71
1
 72
2
 73
10
 74
9
 0
VERTEX
 8
CARGADOR
 10
0
 20
0
 30
0
 70
128
 71
3
 72
4
 73
12
 74
11
 0
VERTEX
 8
CARGADOR
 10
0
 20
0
 30
0
 70
128
 71
5
 72
6
 73
14
 74
13
 0
VERTEX
 8
CARGADOR
 10
0
 20
0
 30
0
 70
128
 71
7
 72
8
 73
16
 74
15
 0
VERTEX
 8
CARGADOR
 10
0
 20
0
 30
0
 70
128
 71
9
 72
10
 73
18
 74
17
 0
VERTEX
 8
CARGADOR
 10
0
 20
0
 30
0
 70
128
 71
11
 72
12
 73
20
 74
19
 0
VERTEX
 8
CARGADOR
 10
0
 20
0
 30
0
 70
128
 71
13
 72
14
 73
22
 74
21
 0
VERTEX
 8
CARGADOR
 10
0
 20
0
 30
0
 70
128
 71
15
 72
16
 73
24
 74
23
 0
VERTEX
 8
CARGADOR
 10
0
 20
0
 30
0
 70
128
 71
17
 72
18
 73
26
 74
25
 0
VERTEX
 8
CARGADOR
 10
0
 20
0
 30
0
 70
128
 71
19
 72
20
 73
28
 74
27
 0
VERTEX
 8
CARGADOR
 10
0
 20
0
 30
0
 70
128
 71
21
 72
22
 73
30
 74
29
 0
VERTEX
 8
CARGADOR
 10
0
 20
0
 30
0
 70
128
 71
23
 72
24
 73
32
 74
31
 0
VERTEX
 8
CARGADOR
 10
0
 20
0
 30
0
 70
128
 71
25
 72
26
 73
34
 74
33
 0
VERTEX
 8
CARGADOR
 10
0
 20
0
 30
0
 70
128
 71
27
 72
28
 73
36
 74
35
 0
VERTEX
 8
CARGADOR
 10
0
 20
0
 30
0
 70
128
 71
29
 72
30
 73
38
 74
37
 0
VERTEX
 8
CARGADOR
 10
0
 20
0
 30
0
 70
128
 71
31
 72
32
 73
40
 74
39
 0
VERTEX
 8
CARGADOR
 10
0
 20
0
 30
0
 70
128
 71
33
 72
34
 73
42
 74
41
 0
VERTEX
 8
CARGADOR
 10
0
 20
0
 30
0
 70
128
 71
35
 72
36
 73
44
 74
43
 0
VERTEX
 8
CARGADOR
 10
0
 20
0
 30
0
 70
128
 71
37
 72
38
 73
46
 74
45
 0
VERTEX
 8
CARGADOR
 10
0
 20
0
 30
0
 70
128
 71
39
 72
40
 73
48
 74
47
 0
VERTEX
 8
CARGADOR
 10
0
 20
0
 30
0
 70
128
 71
41
 72
42
 73
50
 74
49
 0
VERTEX
 8
CARGADOR
 10
0
 20
0
 30
0
 70
128
 71
43
 72
44
 73
52
 74
51
 0
VERTEX
 8
CARGADOR
 10
0
 20
0
 30
0
 70
128
 71
45
 72
46
 73
54
 74
53
 0
VERTEX
 8
CARGADOR
 10
0
 20
0
 30
0
 70
128
 71
47
 72
48
 73
56
 74
55
 0
VERTEX
 8
CARGADOR
 10
0
 20
0
 30
0
 70
128
 71
49
 72
50
 73
58
 74
57
 0
VERTEX
 8
CARGADOR
 10
0
 20
0
 30
0
 70
128
 71
51
 72
52
 73
60
 74
59
 0
VERTEX
 8
CARGADOR
 10
0
 20
0
 30
0
 70
128
 71
53
 72
54
 73
62
 74
61
 0
VERTEX
 8
CARGADOR
 10
0
 20
0
 30
0
 70
128
 71
55
 72
56
 73
64
 74
63
 0
VERTEX
 8
CARGADOR
 10
0
 20
0
 30
0
 70
128
 71
57
 72
58
 73
66
 74
65
 0
VERTEX
 8
CARGADOR
 10
0
 20
0
 30
0
 70
128
 71
59
 72
60
 73
68
 74
67
 0
VERTEX
 8
CARGADOR
 10
0
 20
0
 30
0
 70
128
 71
61
 72
62
 73
70
 74
69
 0
VERTEX
 8
CARGADOR
 10
0
 20
0
 30
0
 70
128
 71
63
 72
64
 73
72
 74
71
 0
VERTEX
 8
CARGADOR
 10
0
 20
0
 30
0
 70
128
 71
65
 72
66
 73
74
 74
73
 0
VERTEX
 8
CARGADOR
 10
0
 20
0
 30
0
 70
128
 71
67
 72
68
 73
76
 74
75
 0
VERTEX
 8
CARGADOR
 10
0
 20
0
 30
0
 70
128
 71
69
 72
70
 73
78
 74
77
 0
VERTEX
 8
CARGADOR
 10
0
 20
0
 30
0
 70
128
 71
71
 72
72
 73
80
 74
79
 0
VERTEX
 8
CARGADOR
 10
0
 20
0
 30
0
 70
128
 71
73
 72
74
 73
82
 74
81
 0
VERTEX
 8
CARGADOR
 10
0
 20
0
 30
0
 70
128
 71
75
 72
76
 73
84
 74
83
 0
VERTEX
 8
CARGADOR
 10
0
 20
0
 30
0
 70
128
 71
77
 72
78
 73
86
 74
85
 0
VERTEX
 8
CARGADOR
 10
0
 20
0
 30
0
 70
128
 71
79
 72
80
 73
88
 74
87
 0
VERTEX
 8
CARGADOR
 10
0
 20
0
 30
0
 70
128
 71
81
 72
82
 73
90
 74
89
 0
VERTEX
 8
CARGADOR
 10
0
 20
0
 30
0
 70
128
 71
83
 72
84
 73
92
 74
91
 0
VERTEX
 8
CARGADOR
 10
0
 20
0
 30
0
 70
128
 71
85
 72
86
 73
94
 74
93
 0
VERTEX
 8
CARGADOR
 10
0
 20
0
 30
0
 70
128
 71
87
 72
88
 73
96
 74
95
 0
VERTEX
 8
CARGADOR
 10
0
 20
0
 30
0
 70
128
 71
89
 72
90
 73
98
 74
97
 0
VERTEX
 8
CARGADOR
 10
0
 20
0
 30
0
 70
128
 71
91
 72
92
 73
100
 74
99
 0
VERTEX
 8
CARGADOR
 10
0
 20
0
 30
0
 70
128
 71
93
 72
94
 73
102
 74
101
 0
VERTEX
 8
CARGADOR
 10
0
 20
0
 30
0
 70
128
 71
95
 72
96
 73
104
 74
103
 0
VERTEX
 8
CARGADOR
 10
0
 20
0
 30
0
 70
128
 71
97
 72
98
 73
106
 74
105
 0
VERTEX
 8
CARGADOR
 10
0
 20
0
 30
0
 70
128
 71
99
 72
100
 73
108
 74
107
 0
VERTEX
 8
CARGADOR
 10
0
 20
0
 30
0
 70
128
 71
101
 72
102
 73
110
 74
109
 0
VERTEX
 8
CARGADOR
 10
0
 20
0
 30
0
 70
128
 71
103
 72
104
 73
112
 74
111
 0
VERTEX
 8
CARGADOR
 10
0
 20
0
 30
0
 70
128
 71
105
 72
106
 73
114
 74
113
 0
VERTEX
 8
CARGADOR
 10
0
 20
0
 30
0
 70
128
 71
107
 72
108
 73
116
 74
115
 0
VERTEX
 8
CARGADOR
 10
0
 20
0
 30
0
 70
128
 71
109
 72
110
 73
118
 74
117
 0
VERTEX
 8
CARGADOR
 10
0
 20
0
 30
0
 70
128
 71
111
 72
112
 73
120
 74
119
 0
VERTEX
 8
CARGADOR
 10
0
 20
0
 30
0
 70
128
 71
113
 72
114
 73
122
 74
121
 0
VERTEX
 8
CARGADOR
 10
0
 20
0
 30
0
 70
128
 71
115
 72
116
 73
124
 74
123
 0
VERTEX
 8
CARGADOR
 10
0
 20
0
 30
0
 70
128
 71
117
 72
118
 73
126
 74
125
 0
VERTEX
 8
CARGADOR
 10
0
 20
0
 30
0
 70
128
 71
119
 72
120
 73
128
 74
127
 0
VERTEX
 8
CARGADOR
 10
0
 20
0
 30
0
 70
128
 71
121
 72
122
 73
130
 74
129
 0
VERTEX
 8
CARGADOR
 10
0
 20
0
 30
0
 70
128
 71
123
 72
124
 73
132
 74
131
 0
VERTEX
 8
CARGADOR
 10
0
 20
0
 30
0
 70
128
 71
125
 72
126
 73
134
 74
133
 0
VERTEX
 8
CARGADOR
 10
0
 20
0
 30
0
 70
128
 71
127
 72
128
 73
136
 74
135
 0
VERTEX
 8
CARGADOR
 10
0
 20
0
 30
0
 70
128
 71
129
 72
130
 73
138
 74
137
 0
VERTEX
 8
CARGADOR
 10
0
 20
0
 30
0
 70
128
 71
131
 72
132
 73
140
 74
139
 0
VERTEX
 8
CARGADOR
 10
0
 20
0
 30
0
 70
128
 71
133
 72
134
 73
142
 74
141
 0
VERTEX
 8
CARGADOR
 10
0
 20
0
 30
0
 70
128
 71
135
 72
136
 73
144
 74
143
 0
VERTEX
 8
CARGADOR
 10
0
 20
0
 30
0
 70
128
 71
137
 72
138
 73
146
 74
145
 0
VERTEX
 8
CARGADOR
 10
0
 20
0
 30
0
 70
128
 71
139
 72
140
 73
148
 74
147
 0
VERTEX
 8
CARGADOR
 10
0
 20
0
 30
0
 70
128
 71
141
 72
142
 73
150
 74
149
 0
VERTEX
 8
CARGADOR
 10
0
 20
0
 30
0
 70
128
 71
143
 72
144
 73
152
 74
151
 0
VERTEX
 8
CARGADOR
 10
0
 20
0
 30
0
 70
128
 71
145
 72
146
 73
154
 74
153
 0
VERTEX
 8
CARGADOR
 10
0
 20
0
 30
0
 70
128
 71
147
 72
148
 73
156
 74
155
 0
VERTEX
 8
CARGADOR
 10
0
 20
0
 30
0
 70
128
 71
149
 72
150
 73
158
 74
157
 0
VERTEX
 8
CARGADOR
 10
0
 20
0
 30
0
 70
128
 71
151
 72
152
 73
160
 74
159
 0
VERTEX
 8
CARGADOR
 10
0
 20
0
 30
0
 70
128
 71
153
 72
154
 73
162
 74
161
 0
VERTEX
 8
CARGADOR
 10
0
 20
0
 30
0
 70
128
 71
155
 72
156
 73
164
 74
163
 0
VERTEX
 8
CARGADOR
 10
0
 20
0
 30
0
 70
128
 71
157
 72
158
 73
166
 74
165
 0
VERTEX
 8
CARGADOR
 10
0
 20
0
 30
0
 70
128
 71
159
 72
160
 73
168
 74
167
 0
VERTEX
 8
CARGADOR
 10
0
 20
0
 30
0
 70
128
 71
161
 72
162
 73
170
 74
169
 0
VERTEX
 8
CARGADOR
 10
0
 20
0
 30
0
 70
128
 71
163
 72
164
 73
172
 74
171
 0
VERTEX
 8
CARGADOR
 10
0
 20
0
 30
0
 70
128
 71
165
 72
166
 73
174
 74
173
 0
VERTEX
 8
CARGADOR
 10
0
 20
0
 30
0
 70
128
 71
167
 72
168
 73
176
 74
175
 0
VERTEX
 8
CARGADOR
 10
0
 20
0
 30
0
 70
128
 71
169
 72
170
 73
178
 74
177
 0
VERTEX
 8
CARGADOR
 10
0
 20
0
 30
0
 70
128
 71
171
 72
172
 73
180
 74
179
 0
VERTEX
 8
CARGADOR
 10
0
 20
0
 30
0
 70
128
 71
173
 72
174
 73
182
 74
181
 0
VERTEX
 8
CARGADOR
 10
0
 20
0
 30
0
 70
128
 71
175
 72
176
 73
184
 74
183
 0
VERTEX
 8
CARGADOR
 10
0
 20
0
 30
0
 70
128
 71
177
 72
178
 73
186
 74
185
 0
VERTEX
 8
CARGADOR
 10
0
 20
0
 30
0
 70
128
 71
179
 72
180
 73
188
 74
187
 0
VERTEX
 8
CARGADOR
 10
0
 20
0
 30
0
 70
128
 71
181
 72
182
 73
190
 74
189
 0
VERTEX
 8
CARGADOR
 10
0
 20
0
 30
0
 70
128
 71
183
 72
184
 73
192
 74
191
 0
VERTEX
 8
CARGADOR
 10
0
 20
0
 30
0
 70
128
 71
185
 72
186
 73
194
 74
193
 0
VERTEX
 8
CARGADOR
 10
0
 20
0
 30
0
 70
128
 71
187
 72
188
 73
196
 74
195
 0
VERTEX
 8
CARGADOR
 10
0
 20
0
 30
0
 70
128
 71
189
 72
190
 73
198
 74
197
 0
VERTEX
 8
CARGADOR
 10
0
 20
0
 30
0
 70
128
 71
191
 72
192
 73
200
 74
199
 0
VERTEX
 8
CARGADOR
 10
0
 20
0
 30
0
 70
128
 71
193
 72
194
 73
202
 74
201
 0
VERTEX
 8
CARGADOR
 10
0
 20
0
 30
0
 70
128
 71
195
 72
196
 73
204
 74
203
 0
VERTEX
 8
CARGADOR
 10
0
 20
0
 30
0
 70
128
 71
197
 72
198
 73
206
 74
205
 0
VERTEX
 8
CARGADOR
 10
0
 20
0
 30
0
 70
128
 71
199
 72
200
 73
208
 74
207
 0
VERTEX
 8
CARGADOR
 10
0
 20
0
 30
0
 70
128
 71
201
 72
202
 73
210
 74
209
 0
VERTEX
 8
CARGADOR
 10
0
 20
0
 30
0
 70
128
 71
203
 72
204
 73
212
 74
211
 0
VERTEX
 8
CARGADOR
 10
0
 20
0
 30
0
 70
128
 71
205
 72
206
 73
214
 74
213
 0
VERTEX
 8
CARGADOR
 10
0
 20
0
 30
0
 70
128
 71
207
 72
208
 73
216
 74
215
 0
VERTEX
 8
CARGADOR
 10
0
 20
0
 30
0
 70
128
 71
209
 72
210
 73
218
 74
217
 0
VERTEX
 8
CARGADOR
 10
0
 20
0
 30
0
 70
128
 71
211
 72
212
 73
220
 74
219
 0
VERTEX
 8
CARGADOR
 10
0
 20
0
 30
0
 70
128
 71
213
 72
214
 73
222
 74
221
 0
VERTEX
 8
CARGADOR
 10
0
 20
0
 30
0
 70
128
 71
215
 72
216
 73
224
 74
223
 0
VERTEX
 8
CARGADOR
 10
0
 20
0
 30
0
 70
128
 71
217
 72
218
 73
226
 74
225
 0
VERTEX
 8
CARGADOR
 10
0
 20
0
 30
0
 70
128
 71
219
 72
220
 73
228
 74
227
 0
VERTEX
 8
CARGADOR
 10
0
 20
0
 30
0
 70
128
 71
221
 72
222
 73
230
 74
229
 0
VERTEX
 8
CARGADOR
 10
0
 20
0
 30
0
 70
128
 71
223
 72
224
 73
232
 74
231
 0
VERTEX
 8
CARGADOR
 10
0
 20
0
 30
0
 70
128
 71
225
 72
226
 73
234
 74
233
 0
VERTEX
 8
CARGADOR
 10
0
 20
0
 30
0
 70
128
 71
227
 72
228
 73
236
 74
235
 0
VERTEX
 8
CARGADOR
 10
0
 20
0
 30
0
 70
128
 71
229
 72
230
 73
238
 74
237
 0
VERTEX
 8
CARGADOR
 10
0
 20
0
 30
0
 70
128
 71
231
 72
232
 73
240
 74
239
 0
VERTEX
 8
CARGADOR
 10
0
 20
0
 30
0
 70
128
 71
233
 72
234
 73
242
 74
241
 0
VERTEX
 8
CARGADOR
 10
0
 20
0
 30
0
 70
128
 71
235
 72
236
 73
244
 74
243
 0
VERTEX
 8
CARGADOR
 10
0
 20
0
 30
0
 70
128
 71
237
 72
238
 73
246
 74
245
 0
VERTEX
 8
CARGADOR
 10
0
 20
0
 30
0
 70
128
 71
239
 72
240
 73
248
 74
247
 0
VERTEX
 8
CARGADOR
 10
0
 20
0
 30
0
 70
128
 71
241
 72
242
 73
250
 74
249
 0
VERTEX
 8
CARGADOR
 10
0
 20
0
 30
0
 70
128
 71
243
 72
244
 73
252
 74
251
 0
VERTEX
 8
CARGADOR
 10
0
 20
0
 30
0
 70
128
 71
245
 72
246
 73
254
 74
253
 0
VERTEX
 8
CARGADOR
 10
0
 20
0
 30
0
 70
128
 71
247
 72
248
 73
256
 74
255
 0
VERTEX
 8
CARGADOR
 10
0
 20
0
 30
0
 70
128
 71
249
 72
250
 73
258
 74
257
 0
VERTEX
 8
CARGADOR
 10
0
 20
0
 30
0
 70
128
 71
251
 72
252
 73
260
 74
259
 0
VERTEX
 8
CARGADOR
 10
0
 20
0
 30
0
 70
128
 71
253
 72
254
 73
262
 74
261
 0
VERTEX
 8
CARGADOR
 10
0
 20
0
 30
0
 70
128
 71
255
 72
256
 73
264
 74
263
 0
VERTEX
 8
CARGADOR
 10
0
 20
0
 30
0
 70
128
 71
257
 72
258
 73
266
 74
265
 0
VERTEX
 8
CARGADOR
 10
0
 20
0
 30
0
 70
128
 71
259
 72
260
 73
268
 74
267
 0
VERTEX
 8
CARGADOR
 10
0
 20
0
 30
0
 70
128
 71
261
 72
262
 73
270
 74
269
 0
VERTEX
 8
CARGADOR
 10
0
 20
0
 30
0
 70
128
 71
263
 72
264
 73
272
 74
271
 0
VERTEX
 8
CARGADOR
 10
0
 20
0
 30
0
 70
128
 71
265
 72
266
 73
274
 74
273
 0
VERTEX
 8
CARGADOR
 10
0
 20
0
 30
0
 70
128
 71
267
 72
268
 73
276
 74
275
 0
VERTEX
 8
CARGADOR
 10
0
 20
0
 30
0
 70
128
 71
269
 72
270
 73
278
 74
277
 0
VERTEX
 8
CARGADOR
 10
0
 20
0
 30
0
 70
128
 71
271
 72
272
 73
280
 74
279
 0
VERTEX
 8
CARGADOR
 10
0
 20
0
 30
0
 70
128
 71
273
 72
274
 73
282
 74
281
 0
VERTEX
 8
CARGADOR
 10
0
 20
0
 30
0
 70
128
 71
275
 72
276
 73
284
 74
283
 0
VERTEX
 8
CARGADOR
 10
0
 20
0
 30
0
 70
128
 71
277
 72
278
 73
286
 74
285
 0
VERTEX
 8
CARGADOR
 10
0
 20
0
 30
0
 70
128
 71
279
 72
280
 73
288
 74
287
 0
VERTEX
 8
CARGADOR
 10
0
 20
0
 30
0
 70
128
 71
281
 72
282
 73
2
 74
1
 0
VERTEX
 8
CARGADOR
 10
0
 20
0
 30
0
 70
128
 71
283
 72
284
 73
4
 74
3
 0
VERTEX
 8
CARGADOR
 10
0
 20
0
 30
0
 70
128
 71
285
 72
286
 73
6
 74
5
 0
VERTEX
 8
CARGADOR
 10
0
 20
0
 30
0
 70
128
 71
287
 72
288
 73
8
 74
7
 0
SEQEND
 0
ENDSEC
 0
EOF
