 0
SECTION
 2
HEADER
 9
$ACADVER
 1
AC1009
 0
ENDSEC
 0
SECTION
 2
TABLES
 0
TABLE
 2
LTYPE
 70
1
 0
LTYPE
 2
CONTINUOUS
 70
64
 3
solid line
 72
65
 73
0
 40
0.0
 0
ENDTAB
 0
TABLE
 2
LAYER
 70
6
 0
LAYER
 2
0
 70
0
 62
7
 6
CONTINUOUS
 0
LAYER
 2
AR_2
 70
64
 62
7
 6
CONTINUOUS
 0
LAYER
 2
CA_ON
 70
64
 62
88
 6
CONTINUOUS
 0
LAYER
 2
GATILLO
 70
64
 62
88
 6
CONTINUOUS
 0
LAYER
 2
CUERPO
 70
64
 62
7
 6
CONTINUOUS
 0
LAYER
 2
CUERPO.1
 70
64
 62
7
 6
CONTINUOUS
 0
LAYER
 2
CUBO_1
 70
64
 62
88
 6
CONTINUOUS
 0
LAYER
 2
CUBO_2
 70
64
 62
88
 6
CONTINUOUS
 0
LAYER
 2
MIRA
 70
64
 62
88
 6
CONTINUOUS
 0
LAYER
 2
CUBO_5
 70
64
 62
251
 6
CONTINUOUS
 0
LAYER
 2
CARGADOR
 70
64
 62
88
 6
CONTINUOUS
 0
ENDTAB
 0
ENDSEC
 0
SECTION
 2
BLOCKS
 0
ENDSEC
 0
SECTION
 2
ENTITIES
 0
POLYLINE
 8
CA_ON
 66
1
 10
0.0
 20
0.0
 30
0.0
 70
64
 71
894
 72
1043
 0
VERTEX
 8
CA_ON
 10
-0.7949
 20
-0.0149
 30
2.1416
 70
192
 0
VERTEX
 8
CA_ON
 10
-0.7949
 20
-0.0149
 30
2.1572
 70
192
 0
VERTEX
 8
CA_ON
 10
-0.7949
 20
-0.0149
 30
2.1661
 70
192
 0
VERTEX
 8
CA_ON
 10
-0.7949
 20
-0.0149
 30
2.1681
 70
192
 0
VERTEX
 8
CA_ON
 10
-0.762
 20
-0.0149
 30
2.1811
 70
192
 0
VERTEX
 8
CA_ON
 10
-0.7712
 20
-0.0149
 30
2.1416
 70
192
 0
VERTEX
 8
CA_ON
 10
-0.7712
 20
-0.0149
 30
2.1572
 70
192
 0
VERTEX
 8
CA_ON
 10
-0.7712
 20
-0.0149
 30
2.1729
 70
192
 0
VERTEX
 8
CA_ON
 10
-0.7569
 20
-0.0149
 30
2.1785
 70
192
 0
VERTEX
 8
CA_ON
 10
-0.737
 20
-0.0149
 30
2.1947
 70
192
 0
VERTEX
 8
CA_ON
 10
-0.7475
 20
-0.0149
 30
2.1416
 70
192
 0
VERTEX
 8
CA_ON
 10
-0.7475
 20
-0.0149
 30
2.1572
 70
192
 0
VERTEX
 8
CA_ON
 10
-0.7475
 20
-0.0149
 30
2.1729
 70
192
 0
VERTEX
 8
CA_ON
 10
-0.7475
 20
-0.0149
 30
2.1811
 70
192
 0
VERTEX
 8
CA_ON
 10
-0.7343
 20
-0.0149
 30
2.1964
 70
192
 0
VERTEX
 8
CA_ON
 10
-0.7239
 20
-0.0149
 30
2.1416
 70
192
 0
VERTEX
 8
CA_ON
 10
-0.7239
 20
-0.0149
 30
2.1572
 70
192
 0
VERTEX
 8
CA_ON
 10
-0.7239
 20
-0.0149
 30
2.1729
 70
192
 0
VERTEX
 8
CA_ON
 10
-0.7239
 20
-0.0149
 30
2.1885
 70
192
 0
VERTEX
 8
CA_ON
 10
-0.7239
 20
-0.0149
 30
2.2041
 70
192
 0
VERTEX
 8
CA_ON
 10
-0.7005
 20
-0.0149
 30
2.1416
 70
192
 0
VERTEX
 8
CA_ON
 10
-0.7233
 20
-0.0149
 30
2.1572
 70
192
 0
VERTEX
 8
CA_ON
 10
-0.7071
 20
-0.0149
 30
2.1729
 70
192
 0
VERTEX
 8
CA_ON
 10
-0.6712
 20
-0.0149
 30
2.1987
 70
192
 0
VERTEX
 8
CA_ON
 10
-0.7002
 20
-0.0149
 30
2.2041
 70
192
 0
VERTEX
 8
CA_ON
 10
-0.7002
 20
0.013
 30
2.1416
 70
192
 0
VERTEX
 8
CA_ON
 10
-0.7229
 20
0.013
 30
2.1572
 70
192
 0
VERTEX
 8
CA_ON
 10
-0.7071
 20
0.013
 30
2.1729
 70
192
 0
VERTEX
 8
CA_ON
 10
-0.6712
 20
0.013
 30
2.1987
 70
192
 0
VERTEX
 8
CA_ON
 10
-0.7002
 20
0.013
 30
2.2041
 70
192
 0
VERTEX
 8
CA_ON
 10
-0.7239
 20
0.013
 30
2.1416
 70
192
 0
VERTEX
 8
CA_ON
 10
-0.7239
 20
0.013
 30
2.1572
 70
192
 0
VERTEX
 8
CA_ON
 10
-0.7239
 20
0.013
 30
2.1729
 70
192
 0
VERTEX
 8
CA_ON
 10
-0.7239
 20
0.013
 30
2.1885
 70
192
 0
VERTEX
 8
CA_ON
 10
-0.7239
 20
0.013
 30
2.2041
 70
192
 0
VERTEX
 8
CA_ON
 10
-0.7475
 20
0.013
 30
2.1416
 70
192
 0
VERTEX
 8
CA_ON
 10
-0.7475
 20
0.013
 30
2.1572
 70
192
 0
VERTEX
 8
CA_ON
 10
-0.7475
 20
0.013
 30
2.1729
 70
192
 0
VERTEX
 8
CA_ON
 10
-0.7379
 20
0.013
 30
2.1804
 70
192
 0
VERTEX
 8
CA_ON
 10
-0.7343
 20
0.013
 30
2.1952
 70
192
 0
VERTEX
 8
CA_ON
 10
-0.7712
 20
0.013
 30
2.1416
 70
192
 0
VERTEX
 8
CA_ON
 10
-0.7712
 20
0.013
 30
2.1572
 70
192
 0
VERTEX
 8
CA_ON
 10
-0.7712
 20
0.013
 30
2.1729
 70
192
 0
VERTEX
 8
CA_ON
 10
-0.7558
 20
0.013
 30
2.1801
 70
192
 0
VERTEX
 8
CA_ON
 10
-0.737
 20
0.013
 30
2.1935
 70
192
 0
VERTEX
 8
CA_ON
 10
-0.7949
 20
0.013
 30
2.1416
 70
192
 0
VERTEX
 8
CA_ON
 10
-0.7949
 20
0.013
 30
2.1572
 70
192
 0
VERTEX
 8
CA_ON
 10
-0.7949
 20
0.013
 30
2.1661
 70
192
 0
VERTEX
 8
CA_ON
 10
-0.7949
 20
0.013
 30
2.1681
 70
192
 0
VERTEX
 8
CA_ON
 10
-0.762
 20
0.013
 30
2.1811
 70
192
 0
VERTEX
 8
CA_ON
 10
-0.7379
 20
-0.0004
 30
2.2158
 70
192
 0
VERTEX
 8
CA_ON
 10
-0.6567
 20
-0.0004
 30
2.2158
 70
192
 0
VERTEX
 8
CA_ON
 10
-0.7379
 20
-0.0004
 30
2.1913
 70
192
 0
VERTEX
 8
CA_ON
 10
-0.6567
 20
-0.0004
 30
2.1913
 70
192
 0
VERTEX
 8
CA_ON
 10
-0.7379
 20
0.0039
 30
2.1917
 70
192
 0
VERTEX
 8
CA_ON
 10
-0.6567
 20
0.0039
 30
2.1917
 70
192
 0
VERTEX
 8
CA_ON
 10
-0.7379
 20
0.008
 30
2.1928
 70
192
 0
VERTEX
 8
CA_ON
 10
-0.6567
 20
0.008
 30
2.1928
 70
192
 0
VERTEX
 8
CA_ON
 10
-0.7379
 20
0.0119
 30
2.1946
 70
192
 0
VERTEX
 8
CA_ON
 10
-0.6567
 20
0.0119
 30
2.1946
 70
192
 0
VERTEX
 8
CA_ON
 10
-0.7379
 20
0.0154
 30
2.197
 70
192
 0
VERTEX
 8
CA_ON
 10
-0.6567
 20
0.0154
 30
2.197
 70
192
 0
VERTEX
 8
CA_ON
 10
-0.7379
 20
0.0184
 30
2.2
 70
192
 0
VERTEX
 8
CA_ON
 10
-0.6567
 20
0.0184
 30
2.2
 70
192
 0
VERTEX
 8
CA_ON
 10
-0.7379
 20
0.0208
 30
2.2035
 70
192
 0
VERTEX
 8
CA_ON
 10
-0.6567
 20
0.0208
 30
2.2035
 70
192
 0
VERTEX
 8
CA_ON
 10
-0.7379
 20
0.0226
 30
2.2074
 70
192
 0
VERTEX
 8
CA_ON
 10
-0.6567
 20
0.0226
 30
2.2074
 70
192
 0
VERTEX
 8
CA_ON
 10
-0.7379
 20
0.0237
 30
2.2115
 70
192
 0
VERTEX
 8
CA_ON
 10
-0.6567
 20
0.0237
 30
2.2115
 70
192
 0
VERTEX
 8
CA_ON
 10
-0.7379
 20
0.0241
 30
2.2158
 70
192
 0
VERTEX
 8
CA_ON
 10
-0.6567
 20
0.0241
 30
2.2158
 70
192
 0
VERTEX
 8
CA_ON
 10
-0.7379
 20
0.0237
 30
2.2201
 70
192
 0
VERTEX
 8
CA_ON
 10
-0.6567
 20
0.0237
 30
2.2201
 70
192
 0
VERTEX
 8
CA_ON
 10
-0.7379
 20
0.0226
 30
2.2242
 70
192
 0
VERTEX
 8
CA_ON
 10
-0.6567
 20
0.0226
 30
2.2242
 70
192
 0
VERTEX
 8
CA_ON
 10
-0.7379
 20
0.0208
 30
2.228
 70
192
 0
VERTEX
 8
CA_ON
 10
-0.6567
 20
0.0208
 30
2.228
 70
192
 0
VERTEX
 8
CA_ON
 10
-0.7379
 20
0.0184
 30
2.2315
 70
192
 0
VERTEX
 8
CA_ON
 10
-0.6567
 20
0.0184
 30
2.2315
 70
192
 0
VERTEX
 8
CA_ON
 10
-0.7379
 20
0.0154
 30
2.2346
 70
192
 0
VERTEX
 8
CA_ON
 10
-0.6567
 20
0.0154
 30
2.2346
 70
192
 0
VERTEX
 8
CA_ON
 10
-0.7379
 20
0.0119
 30
2.237
 70
192
 0
VERTEX
 8
CA_ON
 10
-0.6567
 20
0.0119
 30
2.237
 70
192
 0
VERTEX
 8
CA_ON
 10
-0.7379
 20
0.008
 30
2.2388
 70
192
 0
VERTEX
 8
CA_ON
 10
-0.6567
 20
0.008
 30
2.2388
 70
192
 0
VERTEX
 8
CA_ON
 10
-0.7379
 20
0.0039
 30
2.2399
 70
192
 0
VERTEX
 8
CA_ON
 10
-0.6567
 20
0.0039
 30
2.2399
 70
192
 0
VERTEX
 8
CA_ON
 10
-0.7379
 20
-0.0004
 30
2.2403
 70
192
 0
VERTEX
 8
CA_ON
 10
-0.6567
 20
-0.0004
 30
2.2403
 70
192
 0
VERTEX
 8
CA_ON
 10
-0.7379
 20
-0.0047
 30
2.2399
 70
192
 0
VERTEX
 8
CA_ON
 10
-0.6567
 20
-0.0047
 30
2.2399
 70
192
 0
VERTEX
 8
CA_ON
 10
-0.7379
 20
-0.0088
 30
2.2388
 70
192
 0
VERTEX
 8
CA_ON
 10
-0.6567
 20
-0.0088
 30
2.2388
 70
192
 0
VERTEX
 8
CA_ON
 10
-0.7379
 20
-0.0127
 30
2.237
 70
192
 0
VERTEX
 8
CA_ON
 10
-0.6567
 20
-0.0127
 30
2.237
 70
192
 0
VERTEX
 8
CA_ON
 10
-0.7379
 20
-0.0162
 30
2.2346
 70
192
 0
VERTEX
 8
CA_ON
 10
-0.6567
 20
-0.0162
 30
2.2346
 70
192
 0
VERTEX
 8
CA_ON
 10
-0.7379
 20
-0.0192
 30
2.2315
 70
192
 0
VERTEX
 8
CA_ON
 10
-0.6567
 20
-0.0192
 30
2.2315
 70
192
 0
VERTEX
 8
CA_ON
 10
-0.7379
 20
-0.0216
 30
2.228
 70
192
 0
VERTEX
 8
CA_ON
 10
-0.6567
 20
-0.0216
 30
2.228
 70
192
 0
VERTEX
 8
CA_ON
 10
-0.7379
 20
-0.0234
 30
2.2242
 70
192
 0
VERTEX
 8
CA_ON
 10
-0.6567
 20
-0.0234
 30
2.2242
 70
192
 0
VERTEX
 8
CA_ON
 10
-0.7379
 20
-0.0245
 30
2.2201
 70
192
 0
VERTEX
 8
CA_ON
 10
-0.6567
 20
-0.0245
 30
2.2201
 70
192
 0
VERTEX
 8
CA_ON
 10
-0.7379
 20
-0.0249
 30
2.2158
 70
192
 0
VERTEX
 8
CA_ON
 10
-0.6567
 20
-0.0249
 30
2.2158
 70
192
 0
VERTEX
 8
CA_ON
 10
-0.7379
 20
-0.0245
 30
2.2115
 70
192
 0
VERTEX
 8
CA_ON
 10
-0.6567
 20
-0.0245
 30
2.2115
 70
192
 0
VERTEX
 8
CA_ON
 10
-0.7379
 20
-0.0234
 30
2.2074
 70
192
 0
VERTEX
 8
CA_ON
 10
-0.6567
 20
-0.0234
 30
2.2074
 70
192
 0
VERTEX
 8
CA_ON
 10
-0.7379
 20
-0.0216
 30
2.2035
 70
192
 0
VERTEX
 8
CA_ON
 10
-0.6567
 20
-0.0216
 30
2.2035
 70
192
 0
VERTEX
 8
CA_ON
 10
-0.7379
 20
-0.0192
 30
2.2
 70
192
 0
VERTEX
 8
CA_ON
 10
-0.6567
 20
-0.0192
 30
2.2
 70
192
 0
VERTEX
 8
CA_ON
 10
-0.7379
 20
-0.0162
 30
2.197
 70
192
 0
VERTEX
 8
CA_ON
 10
-0.6567
 20
-0.0162
 30
2.197
 70
192
 0
VERTEX
 8
CA_ON
 10
-0.7379
 20
-0.0127
 30
2.1946
 70
192
 0
VERTEX
 8
CA_ON
 10
-0.6567
 20
-0.0127
 30
2.1946
 70
192
 0
VERTEX
 8
CA_ON
 10
-0.7379
 20
-0.0088
 30
2.1928
 70
192
 0
VERTEX
 8
CA_ON
 10
-0.6567
 20
-0.0088
 30
2.1928
 70
192
 0
VERTEX
 8
CA_ON
 10
-0.7379
 20
-0.0047
 30
2.1917
 70
192
 0
VERTEX
 8
CA_ON
 10
-0.6567
 20
-0.0047
 30
2.1917
 70
192
 0
VERTEX
 8
CA_ON
 10
-0.7956
 20
-0.0015
 30
2.1384
 70
192
 0
VERTEX
 8
CA_ON
 10
-0.715
 20
-0.0015
 30
2.1384
 70
192
 0
VERTEX
 8
CA_ON
 10
-0.7956
 20
-0.0015
 30
2.1068
 70
192
 0
VERTEX
 8
CA_ON
 10
-0.715
 20
-0.0015
 30
2.1068
 70
192
 0
VERTEX
 8
CA_ON
 10
-0.7956
 20
0.004
 30
2.1073
 70
192
 0
VERTEX
 8
CA_ON
 10
-0.715
 20
0.004
 30
2.1073
 70
192
 0
VERTEX
 8
CA_ON
 10
-0.7956
 20
0.0093
 30
2.1087
 70
192
 0
VERTEX
 8
CA_ON
 10
-0.715
 20
0.0093
 30
2.1087
 70
192
 0
VERTEX
 8
CA_ON
 10
-0.7956
 20
0.0143
 30
2.111
 70
192
 0
VERTEX
 8
CA_ON
 10
-0.715
 20
0.0143
 30
2.111
 70
192
 0
VERTEX
 8
CA_ON
 10
-0.7956
 20
0.0188
 30
2.1142
 70
192
 0
VERTEX
 8
CA_ON
 10
-0.715
 20
0.0188
 30
2.1142
 70
192
 0
VERTEX
 8
CA_ON
 10
-0.7956
 20
0.0228
 30
2.1181
 70
192
 0
VERTEX
 8
CA_ON
 10
-0.715
 20
0.0228
 30
2.1181
 70
192
 0
VERTEX
 8
CA_ON
 10
-0.7956
 20
0.0259
 30
2.1226
 70
192
 0
VERTEX
 8
CA_ON
 10
-0.715
 20
0.0259
 30
2.1226
 70
192
 0
VERTEX
 8
CA_ON
 10
-0.7956
 20
0.0282
 30
2.1276
 70
192
 0
VERTEX
 8
CA_ON
 10
-0.715
 20
0.0282
 30
2.1276
 70
192
 0
VERTEX
 8
CA_ON
 10
-0.7956
 20
0.0297
 30
2.1329
 70
192
 0
VERTEX
 8
CA_ON
 10
-0.715
 20
0.0297
 30
2.1329
 70
192
 0
VERTEX
 8
CA_ON
 10
-0.7956
 20
0.0302
 30
2.1384
 70
192
 0
VERTEX
 8
CA_ON
 10
-0.715
 20
0.0302
 30
2.1384
 70
192
 0
VERTEX
 8
CA_ON
 10
-0.7956
 20
0.0297
 30
2.1439
 70
192
 0
VERTEX
 8
CA_ON
 10
-0.715
 20
0.0297
 30
2.1439
 70
192
 0
VERTEX
 8
CA_ON
 10
-0.7956
 20
0.0282
 30
2.1493
 70
192
 0
VERTEX
 8
CA_ON
 10
-0.715
 20
0.0282
 30
2.1493
 70
192
 0
VERTEX
 8
CA_ON
 10
-0.7956
 20
0.0259
 30
2.1543
 70
192
 0
VERTEX
 8
CA_ON
 10
-0.715
 20
0.0259
 30
2.1543
 70
192
 0
VERTEX
 8
CA_ON
 10
-0.7956
 20
0.0228
 30
2.1588
 70
192
 0
VERTEX
 8
CA_ON
 10
-0.715
 20
0.0228
 30
2.1588
 70
192
 0
VERTEX
 8
CA_ON
 10
-0.7956
 20
0.0188
 30
2.1627
 70
192
 0
VERTEX
 8
CA_ON
 10
-0.715
 20
0.0188
 30
2.1627
 70
192
 0
VERTEX
 8
CA_ON
 10
-0.7956
 20
0.0143
 30
2.1659
 70
192
 0
VERTEX
 8
CA_ON
 10
-0.715
 20
0.0143
 30
2.1659
 70
192
 0
VERTEX
 8
CA_ON
 10
-0.7956
 20
0.0093
 30
2.1682
 70
192
 0
VERTEX
 8
CA_ON
 10
-0.715
 20
0.0093
 30
2.1682
 70
192
 0
VERTEX
 8
CA_ON
 10
-0.7956
 20
0.004
 30
2.1696
 70
192
 0
VERTEX
 8
CA_ON
 10
-0.715
 20
0.004
 30
2.1696
 70
192
 0
VERTEX
 8
CA_ON
 10
-0.7956
 20
-0.0015
 30
2.1701
 70
192
 0
VERTEX
 8
CA_ON
 10
-0.715
 20
-0.0015
 30
2.1701
 70
192
 0
VERTEX
 8
CA_ON
 10
-0.7956
 20
-0.007
 30
2.1696
 70
192
 0
VERTEX
 8
CA_ON
 10
-0.715
 20
-0.007
 30
2.1696
 70
192
 0
VERTEX
 8
CA_ON
 10
-0.7956
 20
-0.0123
 30
2.1682
 70
192
 0
VERTEX
 8
CA_ON
 10
-0.715
 20
-0.0123
 30
2.1682
 70
192
 0
VERTEX
 8
CA_ON
 10
-0.7956
 20
-0.0173
 30
2.1659
 70
192
 0
VERTEX
 8
CA_ON
 10
-0.715
 20
-0.0173
 30
2.1659
 70
192
 0
VERTEX
 8
CA_ON
 10
-0.7956
 20
-0.0219
 30
2.1627
 70
192
 0
VERTEX
 8
CA_ON
 10
-0.715
 20
-0.0219
 30
2.1627
 70
192
 0
VERTEX
 8
CA_ON
 10
-0.7956
 20
-0.0258
 30
2.1588
 70
192
 0
VERTEX
 8
CA_ON
 10
-0.715
 20
-0.0258
 30
2.1588
 70
192
 0
VERTEX
 8
CA_ON
 10
-0.7956
 20
-0.0289
 30
2.1543
 70
192
 0
VERTEX
 8
CA_ON
 10
-0.715
 20
-0.0289
 30
2.1543
 70
192
 0
VERTEX
 8
CA_ON
 10
-0.7956
 20
-0.0313
 30
2.1493
 70
192
 0
VERTEX
 8
CA_ON
 10
-0.715
 20
-0.0313
 30
2.1493
 70
192
 0
VERTEX
 8
CA_ON
 10
-0.7956
 20
-0.0327
 30
2.1439
 70
192
 0
VERTEX
 8
CA_ON
 10
-0.715
 20
-0.0327
 30
2.1439
 70
192
 0
VERTEX
 8
CA_ON
 10
-0.7956
 20
-0.0332
 30
2.1384
 70
192
 0
VERTEX
 8
CA_ON
 10
-0.715
 20
-0.0332
 30
2.1384
 70
192
 0
VERTEX
 8
CA_ON
 10
-0.7956
 20
-0.0327
 30
2.1329
 70
192
 0
VERTEX
 8
CA_ON
 10
-0.715
 20
-0.0327
 30
2.1329
 70
192
 0
VERTEX
 8
CA_ON
 10
-0.7956
 20
-0.0313
 30
2.1276
 70
192
 0
VERTEX
 8
CA_ON
 10
-0.715
 20
-0.0313
 30
2.1276
 70
192
 0
VERTEX
 8
CA_ON
 10
-0.7956
 20
-0.0289
 30
2.1226
 70
192
 0
VERTEX
 8
CA_ON
 10
-0.715
 20
-0.0289
 30
2.1226
 70
192
 0
VERTEX
 8
CA_ON
 10
-0.7956
 20
-0.0258
 30
2.1181
 70
192
 0
VERTEX
 8
CA_ON
 10
-0.715
 20
-0.0258
 30
2.1181
 70
192
 0
VERTEX
 8
CA_ON
 10
-0.7956
 20
-0.0219
 30
2.1142
 70
192
 0
VERTEX
 8
CA_ON
 10
-0.715
 20
-0.0219
 30
2.1142
 70
192
 0
VERTEX
 8
CA_ON
 10
-0.7956
 20
-0.0173
 30
2.111
 70
192
 0
VERTEX
 8
CA_ON
 10
-0.715
 20
-0.0173
 30
2.111
 70
192
 0
VERTEX
 8
CA_ON
 10
-0.7956
 20
-0.0123
 30
2.1087
 70
192
 0
VERTEX
 8
CA_ON
 10
-0.715
 20
-0.0123
 30
2.1087
 70
192
 0
VERTEX
 8
CA_ON
 10
-0.7956
 20
-0.007
 30
2.1073
 70
192
 0
VERTEX
 8
CA_ON
 10
-0.715
 20
-0.007
 30
2.1073
 70
192
 0
VERTEX
 8
CA_ON
 10
-0.7351
 20
0.0006
 30
2.2158
 70
192
 0
VERTEX
 8
CA_ON
 10
-0.258
 20
0.0006
 30
2.2158
 70
192
 0
VERTEX
 8
CA_ON
 10
-0.7351
 20
0.0006
 30
2.1944
 70
192
 0
VERTEX
 8
CA_ON
 10
-0.667
 20
0.0006
 30
2.1944
 70
192
 0
VERTEX
 8
CA_ON
 10
-0.5988
 20
0.0006
 30
2.1944
 70
192
 0
VERTEX
 8
CA_ON
 10
-0.5307
 20
0.0006
 30
2.1944
 70
192
 0
VERTEX
 8
CA_ON
 10
-0.4625
 20
0.0006
 30
2.1944
 70
192
 0
VERTEX
 8
CA_ON
 10
-0.3943
 20
0.0006
 30
2.1944
 70
192
 0
VERTEX
 8
CA_ON
 10
-0.3262
 20
0.0006
 30
2.1944
 70
192
 0
VERTEX
 8
CA_ON
 10
-0.258
 20
0.0006
 30
2.1944
 70
192
 0
VERTEX
 8
CA_ON
 10
-0.7351
 20
0.0044
 30
2.1948
 70
192
 0
VERTEX
 8
CA_ON
 10
-0.667
 20
0.0044
 30
2.1948
 70
192
 0
VERTEX
 8
CA_ON
 10
-0.5988
 20
0.0044
 30
2.1948
 70
192
 0
VERTEX
 8
CA_ON
 10
-0.5307
 20
0.0044
 30
2.1948
 70
192
 0
VERTEX
 8
CA_ON
 10
-0.4625
 20
0.0044
 30
2.1948
 70
192
 0
VERTEX
 8
CA_ON
 10
-0.3943
 20
0.0044
 30
2.1948
 70
192
 0
VERTEX
 8
CA_ON
 10
-0.3262
 20
0.0044
 30
2.1948
 70
192
 0
VERTEX
 8
CA_ON
 10
-0.258
 20
0.0044
 30
2.1948
 70
192
 0
VERTEX
 8
CA_ON
 10
-0.7351
 20
0.008
 30
2.1957
 70
192
 0
VERTEX
 8
CA_ON
 10
-0.667
 20
0.008
 30
2.1957
 70
192
 0
VERTEX
 8
CA_ON
 10
-0.5988
 20
0.008
 30
2.1957
 70
192
 0
VERTEX
 8
CA_ON
 10
-0.5307
 20
0.008
 30
2.1957
 70
192
 0
VERTEX
 8
CA_ON
 10
-0.4625
 20
0.008
 30
2.1957
 70
192
 0
VERTEX
 8
CA_ON
 10
-0.3943
 20
0.008
 30
2.1957
 70
192
 0
VERTEX
 8
CA_ON
 10
-0.3262
 20
0.008
 30
2.1957
 70
192
 0
VERTEX
 8
CA_ON
 10
-0.258
 20
0.008
 30
2.1957
 70
192
 0
VERTEX
 8
CA_ON
 10
-0.7351
 20
0.0115
 30
2.1973
 70
192
 0
VERTEX
 8
CA_ON
 10
-0.667
 20
0.0115
 30
2.1973
 70
192
 0
VERTEX
 8
CA_ON
 10
-0.5988
 20
0.0115
 30
2.1973
 70
192
 0
VERTEX
 8
CA_ON
 10
-0.5307
 20
0.0115
 30
2.1973
 70
192
 0
VERTEX
 8
CA_ON
 10
-0.4625
 20
0.0115
 30
2.1973
 70
192
 0
VERTEX
 8
CA_ON
 10
-0.3943
 20
0.0115
 30
2.1973
 70
192
 0
VERTEX
 8
CA_ON
 10
-0.3262
 20
0.0115
 30
2.1973
 70
192
 0
VERTEX
 8
CA_ON
 10
-0.258
 20
0.0115
 30
2.1973
 70
192
 0
VERTEX
 8
CA_ON
 10
-0.7351
 20
0.0146
 30
2.1994
 70
192
 0
VERTEX
 8
CA_ON
 10
-0.667
 20
0.0146
 30
2.1994
 70
192
 0
VERTEX
 8
CA_ON
 10
-0.5988
 20
0.0146
 30
2.1994
 70
192
 0
VERTEX
 8
CA_ON
 10
-0.5307
 20
0.0146
 30
2.1994
 70
192
 0
VERTEX
 8
CA_ON
 10
-0.4625
 20
0.0146
 30
2.1994
 70
192
 0
VERTEX
 8
CA_ON
 10
-0.3943
 20
0.0146
 30
2.1994
 70
192
 0
VERTEX
 8
CA_ON
 10
-0.3262
 20
0.0146
 30
2.1994
 70
192
 0
VERTEX
 8
CA_ON
 10
-0.258
 20
0.0146
 30
2.1994
 70
192
 0
VERTEX
 8
CA_ON
 10
-0.7351
 20
0.0173
 30
2.2021
 70
192
 0
VERTEX
 8
CA_ON
 10
-0.667
 20
0.0173
 30
2.2021
 70
192
 0
VERTEX
 8
CA_ON
 10
-0.5988
 20
0.0173
 30
2.2021
 70
192
 0
VERTEX
 8
CA_ON
 10
-0.5307
 20
0.0173
 30
2.2021
 70
192
 0
VERTEX
 8
CA_ON
 10
-0.4625
 20
0.0173
 30
2.2021
 70
192
 0
VERTEX
 8
CA_ON
 10
-0.3943
 20
0.0173
 30
2.2021
 70
192
 0
VERTEX
 8
CA_ON
 10
-0.3262
 20
0.0173
 30
2.2021
 70
192
 0
VERTEX
 8
CA_ON
 10
-0.258
 20
0.0173
 30
2.2021
 70
192
 0
VERTEX
 8
CA_ON
 10
-0.7351
 20
0.0195
 30
2.2051
 70
192
 0
VERTEX
 8
CA_ON
 10
-0.667
 20
0.0195
 30
2.2051
 70
192
 0
VERTEX
 8
CA_ON
 10
-0.5988
 20
0.0195
 30
2.2051
 70
192
 0
VERTEX
 8
CA_ON
 10
-0.5307
 20
0.0195
 30
2.2051
 70
192
 0
VERTEX
 8
CA_ON
 10
-0.4625
 20
0.0195
 30
2.2051
 70
192
 0
VERTEX
 8
CA_ON
 10
-0.3943
 20
0.0195
 30
2.2051
 70
192
 0
VERTEX
 8
CA_ON
 10
-0.3262
 20
0.0195
 30
2.2051
 70
192
 0
VERTEX
 8
CA_ON
 10
-0.258
 20
0.0195
 30
2.2051
 70
192
 0
VERTEX
 8
CA_ON
 10
-0.7351
 20
0.0211
 30
2.2085
 70
192
 0
VERTEX
 8
CA_ON
 10
-0.667
 20
0.0211
 30
2.2085
 70
192
 0
VERTEX
 8
CA_ON
 10
-0.5988
 20
0.0211
 30
2.2085
 70
192
 0
VERTEX
 8
CA_ON
 10
-0.5307
 20
0.0211
 30
2.2085
 70
192
 0
VERTEX
 8
CA_ON
 10
-0.4625
 20
0.0211
 30
2.2085
 70
192
 0
VERTEX
 8
CA_ON
 10
-0.3943
 20
0.0211
 30
2.2085
 70
192
 0
VERTEX
 8
CA_ON
 10
-0.3262
 20
0.0211
 30
2.2085
 70
192
 0
VERTEX
 8
CA_ON
 10
-0.258
 20
0.0211
 30
2.2085
 70
192
 0
VERTEX
 8
CA_ON
 10
-0.7351
 20
0.0221
 30
2.2121
 70
192
 0
VERTEX
 8
CA_ON
 10
-0.667
 20
0.0221
 30
2.2121
 70
192
 0
VERTEX
 8
CA_ON
 10
-0.5988
 20
0.0221
 30
2.2121
 70
192
 0
VERTEX
 8
CA_ON
 10
-0.5307
 20
0.0221
 30
2.2121
 70
192
 0
VERTEX
 8
CA_ON
 10
-0.4625
 20
0.0221
 30
2.2121
 70
192
 0
VERTEX
 8
CA_ON
 10
-0.3943
 20
0.0221
 30
2.2121
 70
192
 0
VERTEX
 8
CA_ON
 10
-0.3262
 20
0.0221
 30
2.2121
 70
192
 0
VERTEX
 8
CA_ON
 10
-0.258
 20
0.0221
 30
2.2121
 70
192
 0
VERTEX
 8
CA_ON
 10
-0.7351
 20
0.0224
 30
2.2158
 70
192
 0
VERTEX
 8
CA_ON
 10
-0.667
 20
0.0224
 30
2.2158
 70
192
 0
VERTEX
 8
CA_ON
 10
-0.5988
 20
0.0224
 30
2.2158
 70
192
 0
VERTEX
 8
CA_ON
 10
-0.5307
 20
0.0224
 30
2.2158
 70
192
 0
VERTEX
 8
CA_ON
 10
-0.4625
 20
0.0224
 30
2.2158
 70
192
 0
VERTEX
 8
CA_ON
 10
-0.3943
 20
0.0224
 30
2.2158
 70
192
 0
VERTEX
 8
CA_ON
 10
-0.3262
 20
0.0224
 30
2.2158
 70
192
 0
VERTEX
 8
CA_ON
 10
-0.258
 20
0.0224
 30
2.2158
 70
192
 0
VERTEX
 8
CA_ON
 10
-0.7351
 20
0.0221
 30
2.2196
 70
192
 0
VERTEX
 8
CA_ON
 10
-0.667
 20
0.0221
 30
2.2196
 70
192
 0
VERTEX
 8
CA_ON
 10
-0.5988
 20
0.0221
 30
2.2196
 70
192
 0
VERTEX
 8
CA_ON
 10
-0.5307
 20
0.0221
 30
2.2196
 70
192
 0
VERTEX
 8
CA_ON
 10
-0.4625
 20
0.0221
 30
2.2196
 70
192
 0
VERTEX
 8
CA_ON
 10
-0.3943
 20
0.0221
 30
2.2196
 70
192
 0
VERTEX
 8
CA_ON
 10
-0.3262
 20
0.0221
 30
2.2196
 70
192
 0
VERTEX
 8
CA_ON
 10
-0.258
 20
0.0221
 30
2.2196
 70
192
 0
VERTEX
 8
CA_ON
 10
-0.7351
 20
0.0211
 30
2.2232
 70
192
 0
VERTEX
 8
CA_ON
 10
-0.667
 20
0.0211
 30
2.2232
 70
192
 0
VERTEX
 8
CA_ON
 10
-0.5988
 20
0.0211
 30
2.2232
 70
192
 0
VERTEX
 8
CA_ON
 10
-0.5307
 20
0.0211
 30
2.2232
 70
192
 0
VERTEX
 8
CA_ON
 10
-0.4625
 20
0.0211
 30
2.2232
 70
192
 0
VERTEX
 8
CA_ON
 10
-0.3943
 20
0.0211
 30
2.2232
 70
192
 0
VERTEX
 8
CA_ON
 10
-0.3262
 20
0.0211
 30
2.2232
 70
192
 0
VERTEX
 8
CA_ON
 10
-0.258
 20
0.0211
 30
2.2232
 70
192
 0
VERTEX
 8
CA_ON
 10
-0.7351
 20
0.0195
 30
2.2265
 70
192
 0
VERTEX
 8
CA_ON
 10
-0.667
 20
0.0195
 30
2.2265
 70
192
 0
VERTEX
 8
CA_ON
 10
-0.5988
 20
0.0195
 30
2.2265
 70
192
 0
VERTEX
 8
CA_ON
 10
-0.5307
 20
0.0195
 30
2.2265
 70
192
 0
VERTEX
 8
CA_ON
 10
-0.4625
 20
0.0195
 30
2.2265
 70
192
 0
VERTEX
 8
CA_ON
 10
-0.3943
 20
0.0195
 30
2.2265
 70
192
 0
VERTEX
 8
CA_ON
 10
-0.3262
 20
0.0195
 30
2.2265
 70
192
 0
VERTEX
 8
CA_ON
 10
-0.258
 20
0.0195
 30
2.2265
 70
192
 0
VERTEX
 8
CA_ON
 10
-0.7351
 20
0.0173
 30
2.2296
 70
192
 0
VERTEX
 8
CA_ON
 10
-0.667
 20
0.0173
 30
2.2296
 70
192
 0
VERTEX
 8
CA_ON
 10
-0.5988
 20
0.0173
 30
2.2296
 70
192
 0
VERTEX
 8
CA_ON
 10
-0.5307
 20
0.0173
 30
2.2296
 70
192
 0
VERTEX
 8
CA_ON
 10
-0.4625
 20
0.0173
 30
2.2296
 70
192
 0
VERTEX
 8
CA_ON
 10
-0.3943
 20
0.0173
 30
2.2296
 70
192
 0
VERTEX
 8
CA_ON
 10
-0.3262
 20
0.0173
 30
2.2296
 70
192
 0
VERTEX
 8
CA_ON
 10
-0.258
 20
0.0173
 30
2.2296
 70
192
 0
VERTEX
 8
CA_ON
 10
-0.7351
 20
0.0146
 30
2.2322
 70
192
 0
VERTEX
 8
CA_ON
 10
-0.667
 20
0.0146
 30
2.2322
 70
192
 0
VERTEX
 8
CA_ON
 10
-0.5988
 20
0.0146
 30
2.2322
 70
192
 0
VERTEX
 8
CA_ON
 10
-0.5307
 20
0.0146
 30
2.2322
 70
192
 0
VERTEX
 8
CA_ON
 10
-0.4625
 20
0.0146
 30
2.2322
 70
192
 0
VERTEX
 8
CA_ON
 10
-0.3943
 20
0.0146
 30
2.2322
 70
192
 0
VERTEX
 8
CA_ON
 10
-0.3262
 20
0.0146
 30
2.2322
 70
192
 0
VERTEX
 8
CA_ON
 10
-0.258
 20
0.0146
 30
2.2322
 70
192
 0
VERTEX
 8
CA_ON
 10
-0.7351
 20
0.0115
 30
2.2344
 70
192
 0
VERTEX
 8
CA_ON
 10
-0.667
 20
0.0115
 30
2.2344
 70
192
 0
VERTEX
 8
CA_ON
 10
-0.5988
 20
0.0115
 30
2.2344
 70
192
 0
VERTEX
 8
CA_ON
 10
-0.5307
 20
0.0115
 30
2.2344
 70
192
 0
VERTEX
 8
CA_ON
 10
-0.4625
 20
0.0115
 30
2.2344
 70
192
 0
VERTEX
 8
CA_ON
 10
-0.3943
 20
0.0115
 30
2.2344
 70
192
 0
VERTEX
 8
CA_ON
 10
-0.3262
 20
0.0115
 30
2.2344
 70
192
 0
VERTEX
 8
CA_ON
 10
-0.258
 20
0.0115
 30
2.2344
 70
192
 0
VERTEX
 8
CA_ON
 10
-0.7351
 20
0.008
 30
2.236
 70
192
 0
VERTEX
 8
CA_ON
 10
-0.667
 20
0.008
 30
2.236
 70
192
 0
VERTEX
 8
CA_ON
 10
-0.5988
 20
0.008
 30
2.236
 70
192
 0
VERTEX
 8
CA_ON
 10
-0.5307
 20
0.008
 30
2.236
 70
192
 0
VERTEX
 8
CA_ON
 10
-0.4625
 20
0.008
 30
2.236
 70
192
 0
VERTEX
 8
CA_ON
 10
-0.3943
 20
0.008
 30
2.236
 70
192
 0
VERTEX
 8
CA_ON
 10
-0.3262
 20
0.008
 30
2.236
 70
192
 0
VERTEX
 8
CA_ON
 10
-0.258
 20
0.008
 30
2.236
 70
192
 0
VERTEX
 8
CA_ON
 10
-0.7351
 20
0.0044
 30
2.2369
 70
192
 0
VERTEX
 8
CA_ON
 10
-0.667
 20
0.0044
 30
2.2369
 70
192
 0
VERTEX
 8
CA_ON
 10
-0.5988
 20
0.0044
 30
2.2369
 70
192
 0
VERTEX
 8
CA_ON
 10
-0.5307
 20
0.0044
 30
2.2369
 70
192
 0
VERTEX
 8
CA_ON
 10
-0.4625
 20
0.0044
 30
2.2369
 70
192
 0
VERTEX
 8
CA_ON
 10
-0.3943
 20
0.0044
 30
2.2369
 70
192
 0
VERTEX
 8
CA_ON
 10
-0.3262
 20
0.0044
 30
2.2369
 70
192
 0
VERTEX
 8
CA_ON
 10
-0.258
 20
0.0044
 30
2.2369
 70
192
 0
VERTEX
 8
CA_ON
 10
-0.7351
 20
0.0006
 30
2.2372
 70
192
 0
VERTEX
 8
CA_ON
 10
-0.667
 20
0.0006
 30
2.2372
 70
192
 0
VERTEX
 8
CA_ON
 10
-0.5988
 20
0.0006
 30
2.2372
 70
192
 0
VERTEX
 8
CA_ON
 10
-0.5307
 20
0.0006
 30
2.2372
 70
192
 0
VERTEX
 8
CA_ON
 10
-0.4625
 20
0.0006
 30
2.2372
 70
192
 0
VERTEX
 8
CA_ON
 10
-0.3943
 20
0.0006
 30
2.2372
 70
192
 0
VERTEX
 8
CA_ON
 10
-0.3262
 20
0.0006
 30
2.2372
 70
192
 0
VERTEX
 8
CA_ON
 10
-0.258
 20
0.0006
 30
2.2372
 70
192
 0
VERTEX
 8
CA_ON
 10
-0.7351
 20
-0.0032
 30
2.2369
 70
192
 0
VERTEX
 8
CA_ON
 10
-0.667
 20
-0.0032
 30
2.2369
 70
192
 0
VERTEX
 8
CA_ON
 10
-0.5988
 20
-0.0032
 30
2.2369
 70
192
 0
VERTEX
 8
CA_ON
 10
-0.5307
 20
-0.0032
 30
2.2369
 70
192
 0
VERTEX
 8
CA_ON
 10
-0.4625
 20
-0.0032
 30
2.2369
 70
192
 0
VERTEX
 8
CA_ON
 10
-0.3943
 20
-0.0032
 30
2.2369
 70
192
 0
VERTEX
 8
CA_ON
 10
-0.3262
 20
-0.0032
 30
2.2369
 70
192
 0
VERTEX
 8
CA_ON
 10
-0.258
 20
-0.0032
 30
2.2369
 70
192
 0
VERTEX
 8
CA_ON
 10
-0.7351
 20
-0.0069
 30
2.236
 70
192
 0
VERTEX
 8
CA_ON
 10
-0.667
 20
-0.0069
 30
2.236
 70
192
 0
VERTEX
 8
CA_ON
 10
-0.5988
 20
-0.0069
 30
2.236
 70
192
 0
VERTEX
 8
CA_ON
 10
-0.5307
 20
-0.0069
 30
2.236
 70
192
 0
VERTEX
 8
CA_ON
 10
-0.4625
 20
-0.0069
 30
2.236
 70
192
 0
VERTEX
 8
CA_ON
 10
-0.3943
 20
-0.0069
 30
2.236
 70
192
 0
VERTEX
 8
CA_ON
 10
-0.3262
 20
-0.0069
 30
2.236
 70
192
 0
VERTEX
 8
CA_ON
 10
-0.258
 20
-0.0069
 30
2.236
 70
192
 0
VERTEX
 8
CA_ON
 10
-0.7351
 20
-0.0103
 30
2.2344
 70
192
 0
VERTEX
 8
CA_ON
 10
-0.667
 20
-0.0103
 30
2.2344
 70
192
 0
VERTEX
 8
CA_ON
 10
-0.5988
 20
-0.0103
 30
2.2344
 70
192
 0
VERTEX
 8
CA_ON
 10
-0.5307
 20
-0.0103
 30
2.2344
 70
192
 0
VERTEX
 8
CA_ON
 10
-0.4625
 20
-0.0103
 30
2.2344
 70
192
 0
VERTEX
 8
CA_ON
 10
-0.3943
 20
-0.0103
 30
2.2344
 70
192
 0
VERTEX
 8
CA_ON
 10
-0.3262
 20
-0.0103
 30
2.2344
 70
192
 0
VERTEX
 8
CA_ON
 10
-0.258
 20
-0.0103
 30
2.2344
 70
192
 0
VERTEX
 8
CA_ON
 10
-0.7351
 20
-0.0134
 30
2.2322
 70
192
 0
VERTEX
 8
CA_ON
 10
-0.667
 20
-0.0134
 30
2.2322
 70
192
 0
VERTEX
 8
CA_ON
 10
-0.5988
 20
-0.0134
 30
2.2322
 70
192
 0
VERTEX
 8
CA_ON
 10
-0.5307
 20
-0.0134
 30
2.2322
 70
192
 0
VERTEX
 8
CA_ON
 10
-0.4625
 20
-0.0134
 30
2.2322
 70
192
 0
VERTEX
 8
CA_ON
 10
-0.3943
 20
-0.0134
 30
2.2322
 70
192
 0
VERTEX
 8
CA_ON
 10
-0.3262
 20
-0.0134
 30
2.2322
 70
192
 0
VERTEX
 8
CA_ON
 10
-0.258
 20
-0.0134
 30
2.2322
 70
192
 0
VERTEX
 8
CA_ON
 10
-0.7351
 20
-0.0161
 30
2.2296
 70
192
 0
VERTEX
 8
CA_ON
 10
-0.667
 20
-0.0161
 30
2.2296
 70
192
 0
VERTEX
 8
CA_ON
 10
-0.5988
 20
-0.0161
 30
2.2296
 70
192
 0
VERTEX
 8
CA_ON
 10
-0.5307
 20
-0.0161
 30
2.2296
 70
192
 0
VERTEX
 8
CA_ON
 10
-0.4625
 20
-0.0161
 30
2.2296
 70
192
 0
VERTEX
 8
CA_ON
 10
-0.3943
 20
-0.0161
 30
2.2296
 70
192
 0
VERTEX
 8
CA_ON
 10
-0.3262
 20
-0.0161
 30
2.2296
 70
192
 0
VERTEX
 8
CA_ON
 10
-0.258
 20
-0.0161
 30
2.2296
 70
192
 0
VERTEX
 8
CA_ON
 10
-0.7351
 20
-0.0183
 30
2.2265
 70
192
 0
VERTEX
 8
CA_ON
 10
-0.667
 20
-0.0183
 30
2.2265
 70
192
 0
VERTEX
 8
CA_ON
 10
-0.5988
 20
-0.0183
 30
2.2265
 70
192
 0
VERTEX
 8
CA_ON
 10
-0.5307
 20
-0.0183
 30
2.2265
 70
192
 0
VERTEX
 8
CA_ON
 10
-0.4625
 20
-0.0183
 30
2.2265
 70
192
 0
VERTEX
 8
CA_ON
 10
-0.3943
 20
-0.0183
 30
2.2265
 70
192
 0
VERTEX
 8
CA_ON
 10
-0.3262
 20
-0.0183
 30
2.2265
 70
192
 0
VERTEX
 8
CA_ON
 10
-0.258
 20
-0.0183
 30
2.2265
 70
192
 0
VERTEX
 8
CA_ON
 10
-0.7351
 20
-0.0199
 30
2.2232
 70
192
 0
VERTEX
 8
CA_ON
 10
-0.667
 20
-0.0199
 30
2.2232
 70
192
 0
VERTEX
 8
CA_ON
 10
-0.5988
 20
-0.0199
 30
2.2232
 70
192
 0
VERTEX
 8
CA_ON
 10
-0.5307
 20
-0.0199
 30
2.2232
 70
192
 0
VERTEX
 8
CA_ON
 10
-0.4625
 20
-0.0199
 30
2.2232
 70
192
 0
VERTEX
 8
CA_ON
 10
-0.3943
 20
-0.0199
 30
2.2232
 70
192
 0
VERTEX
 8
CA_ON
 10
-0.3262
 20
-0.0199
 30
2.2232
 70
192
 0
VERTEX
 8
CA_ON
 10
-0.258
 20
-0.0199
 30
2.2232
 70
192
 0
VERTEX
 8
CA_ON
 10
-0.7351
 20
-0.0209
 30
2.2196
 70
192
 0
VERTEX
 8
CA_ON
 10
-0.667
 20
-0.0209
 30
2.2196
 70
192
 0
VERTEX
 8
CA_ON
 10
-0.5988
 20
-0.0209
 30
2.2196
 70
192
 0
VERTEX
 8
CA_ON
 10
-0.5307
 20
-0.0209
 30
2.2196
 70
192
 0
VERTEX
 8
CA_ON
 10
-0.4625
 20
-0.0209
 30
2.2196
 70
192
 0
VERTEX
 8
CA_ON
 10
-0.3943
 20
-0.0209
 30
2.2196
 70
192
 0
VERTEX
 8
CA_ON
 10
-0.3262
 20
-0.0209
 30
2.2196
 70
192
 0
VERTEX
 8
CA_ON
 10
-0.258
 20
-0.0209
 30
2.2196
 70
192
 0
VERTEX
 8
CA_ON
 10
-0.7351
 20
-0.0212
 30
2.2158
 70
192
 0
VERTEX
 8
CA_ON
 10
-0.667
 20
-0.0212
 30
2.2158
 70
192
 0
VERTEX
 8
CA_ON
 10
-0.5988
 20
-0.0212
 30
2.2158
 70
192
 0
VERTEX
 8
CA_ON
 10
-0.5307
 20
-0.0212
 30
2.2158
 70
192
 0
VERTEX
 8
CA_ON
 10
-0.4625
 20
-0.0212
 30
2.2158
 70
192
 0
VERTEX
 8
CA_ON
 10
-0.3943
 20
-0.0212
 30
2.2158
 70
192
 0
VERTEX
 8
CA_ON
 10
-0.3262
 20
-0.0212
 30
2.2158
 70
192
 0
VERTEX
 8
CA_ON
 10
-0.258
 20
-0.0212
 30
2.2158
 70
192
 0
VERTEX
 8
CA_ON
 10
-0.7351
 20
-0.0209
 30
2.2121
 70
192
 0
VERTEX
 8
CA_ON
 10
-0.667
 20
-0.0209
 30
2.2121
 70
192
 0
VERTEX
 8
CA_ON
 10
-0.5988
 20
-0.0209
 30
2.2121
 70
192
 0
VERTEX
 8
CA_ON
 10
-0.5307
 20
-0.0209
 30
2.2121
 70
192
 0
VERTEX
 8
CA_ON
 10
-0.4625
 20
-0.0209
 30
2.2121
 70
192
 0
VERTEX
 8
CA_ON
 10
-0.3943
 20
-0.0209
 30
2.2121
 70
192
 0
VERTEX
 8
CA_ON
 10
-0.3262
 20
-0.0209
 30
2.2121
 70
192
 0
VERTEX
 8
CA_ON
 10
-0.258
 20
-0.0209
 30
2.2121
 70
192
 0
VERTEX
 8
CA_ON
 10
-0.7351
 20
-0.0199
 30
2.2085
 70
192
 0
VERTEX
 8
CA_ON
 10
-0.667
 20
-0.0199
 30
2.2085
 70
192
 0
VERTEX
 8
CA_ON
 10
-0.5988
 20
-0.0199
 30
2.2085
 70
192
 0
VERTEX
 8
CA_ON
 10
-0.5307
 20
-0.0199
 30
2.2085
 70
192
 0
VERTEX
 8
CA_ON
 10
-0.4625
 20
-0.0199
 30
2.2085
 70
192
 0
VERTEX
 8
CA_ON
 10
-0.3943
 20
-0.0199
 30
2.2085
 70
192
 0
VERTEX
 8
CA_ON
 10
-0.3262
 20
-0.0199
 30
2.2085
 70
192
 0
VERTEX
 8
CA_ON
 10
-0.258
 20
-0.0199
 30
2.2085
 70
192
 0
VERTEX
 8
CA_ON
 10
-0.7351
 20
-0.0183
 30
2.2051
 70
192
 0
VERTEX
 8
CA_ON
 10
-0.667
 20
-0.0183
 30
2.2051
 70
192
 0
VERTEX
 8
CA_ON
 10
-0.5988
 20
-0.0183
 30
2.2051
 70
192
 0
VERTEX
 8
CA_ON
 10
-0.5307
 20
-0.0183
 30
2.2051
 70
192
 0
VERTEX
 8
CA_ON
 10
-0.4625
 20
-0.0183
 30
2.2051
 70
192
 0
VERTEX
 8
CA_ON
 10
-0.3943
 20
-0.0183
 30
2.2051
 70
192
 0
VERTEX
 8
CA_ON
 10
-0.3262
 20
-0.0183
 30
2.2051
 70
192
 0
VERTEX
 8
CA_ON
 10
-0.258
 20
-0.0183
 30
2.2051
 70
192
 0
VERTEX
 8
CA_ON
 10
-0.7351
 20
-0.0161
 30
2.2021
 70
192
 0
VERTEX
 8
CA_ON
 10
-0.667
 20
-0.0161
 30
2.2021
 70
192
 0
VERTEX
 8
CA_ON
 10
-0.5988
 20
-0.0161
 30
2.2021
 70
192
 0
VERTEX
 8
CA_ON
 10
-0.5307
 20
-0.0161
 30
2.2021
 70
192
 0
VERTEX
 8
CA_ON
 10
-0.4625
 20
-0.0161
 30
2.2021
 70
192
 0
VERTEX
 8
CA_ON
 10
-0.3943
 20
-0.0161
 30
2.2021
 70
192
 0
VERTEX
 8
CA_ON
 10
-0.3262
 20
-0.0161
 30
2.2021
 70
192
 0
VERTEX
 8
CA_ON
 10
-0.258
 20
-0.0161
 30
2.2021
 70
192
 0
VERTEX
 8
CA_ON
 10
-0.7351
 20
-0.0134
 30
2.1994
 70
192
 0
VERTEX
 8
CA_ON
 10
-0.667
 20
-0.0134
 30
2.1994
 70
192
 0
VERTEX
 8
CA_ON
 10
-0.5988
 20
-0.0134
 30
2.1994
 70
192
 0
VERTEX
 8
CA_ON
 10
-0.5307
 20
-0.0134
 30
2.1994
 70
192
 0
VERTEX
 8
CA_ON
 10
-0.4625
 20
-0.0134
 30
2.1994
 70
192
 0
VERTEX
 8
CA_ON
 10
-0.3943
 20
-0.0134
 30
2.1994
 70
192
 0
VERTEX
 8
CA_ON
 10
-0.3262
 20
-0.0134
 30
2.1994
 70
192
 0
VERTEX
 8
CA_ON
 10
-0.258
 20
-0.0134
 30
2.1994
 70
192
 0
VERTEX
 8
CA_ON
 10
-0.7351
 20
-0.0103
 30
2.1973
 70
192
 0
VERTEX
 8
CA_ON
 10
-0.667
 20
-0.0103
 30
2.1973
 70
192
 0
VERTEX
 8
CA_ON
 10
-0.5988
 20
-0.0103
 30
2.1973
 70
192
 0
VERTEX
 8
CA_ON
 10
-0.5307
 20
-0.0103
 30
2.1973
 70
192
 0
VERTEX
 8
CA_ON
 10
-0.4625
 20
-0.0103
 30
2.1973
 70
192
 0
VERTEX
 8
CA_ON
 10
-0.3943
 20
-0.0103
 30
2.1973
 70
192
 0
VERTEX
 8
CA_ON
 10
-0.3262
 20
-0.0103
 30
2.1973
 70
192
 0
VERTEX
 8
CA_ON
 10
-0.258
 20
-0.0103
 30
2.1973
 70
192
 0
VERTEX
 8
CA_ON
 10
-0.7351
 20
-0.0069
 30
2.1957
 70
192
 0
VERTEX
 8
CA_ON
 10
-0.667
 20
-0.0069
 30
2.1957
 70
192
 0
VERTEX
 8
CA_ON
 10
-0.5988
 20
-0.0069
 30
2.1957
 70
192
 0
VERTEX
 8
CA_ON
 10
-0.5307
 20
-0.0069
 30
2.1957
 70
192
 0
VERTEX
 8
CA_ON
 10
-0.4625
 20
-0.0069
 30
2.1957
 70
192
 0
VERTEX
 8
CA_ON
 10
-0.3943
 20
-0.0069
 30
2.1957
 70
192
 0
VERTEX
 8
CA_ON
 10
-0.3262
 20
-0.0069
 30
2.1957
 70
192
 0
VERTEX
 8
CA_ON
 10
-0.258
 20
-0.0069
 30
2.1957
 70
192
 0
VERTEX
 8
CA_ON
 10
-0.7351
 20
-0.0032
 30
2.1948
 70
192
 0
VERTEX
 8
CA_ON
 10
-0.667
 20
-0.0032
 30
2.1948
 70
192
 0
VERTEX
 8
CA_ON
 10
-0.5988
 20
-0.0032
 30
2.1948
 70
192
 0
VERTEX
 8
CA_ON
 10
-0.5307
 20
-0.0032
 30
2.1948
 70
192
 0
VERTEX
 8
CA_ON
 10
-0.4625
 20
-0.0032
 30
2.1948
 70
192
 0
VERTEX
 8
CA_ON
 10
-0.3943
 20
-0.0032
 30
2.1948
 70
192
 0
VERTEX
 8
CA_ON
 10
-0.3262
 20
-0.0032
 30
2.1948
 70
192
 0
VERTEX
 8
CA_ON
 10
-0.258
 20
-0.0032
 30
2.1948
 70
192
 0
VERTEX
 8
CA_ON
 10
-1.1708
 20
-0.0009
 30
2.1003
 70
192
 0
VERTEX
 8
CA_ON
 10
-1.0494
 20
-0.0009
 30
2.1003
 70
192
 0
VERTEX
 8
CA_ON
 10
-1.0494
 20
-0.0009
 30
2.1174
 70
192
 0
VERTEX
 8
CA_ON
 10
-1.1708
 20
-0.0009
 30
2.1174
 70
192
 0
VERTEX
 8
CA_ON
 10
-1.1708
 20
0.0056
 30
2.1009
 70
192
 0
VERTEX
 8
CA_ON
 10
-1.0494
 20
0.0056
 30
2.1009
 70
192
 0
VERTEX
 8
CA_ON
 10
-1.0494
 20
0.0027
 30
2.1177
 70
192
 0
VERTEX
 8
CA_ON
 10
-1.1708
 20
0.0027
 30
2.1177
 70
192
 0
VERTEX
 8
CA_ON
 10
-1.1708
 20
0.0061
 30
2.1186
 70
192
 0
VERTEX
 8
CA_ON
 10
-1.1708
 20
0.012
 30
2.1026
 70
192
 0
VERTEX
 8
CA_ON
 10
-1.0494
 20
0.012
 30
2.1026
 70
192
 0
VERTEX
 8
CA_ON
 10
-1.0494
 20
0.0061
 30
2.1186
 70
192
 0
VERTEX
 8
CA_ON
 10
-1.1708
 20
0.0094
 30
2.1202
 70
192
 0
VERTEX
 8
CA_ON
 10
-1.1708
 20
0.0179
 30
2.1054
 70
192
 0
VERTEX
 8
CA_ON
 10
-1.0494
 20
0.0179
 30
2.1054
 70
192
 0
VERTEX
 8
CA_ON
 10
-1.0494
 20
0.0094
 30
2.1202
 70
192
 0
VERTEX
 8
CA_ON
 10
-1.1708
 20
0.0233
 30
2.1092
 70
192
 0
VERTEX
 8
CA_ON
 10
-1.0494
 20
0.0233
 30
2.1092
 70
192
 0
VERTEX
 8
CA_ON
 10
-1.0494
 20
0.0123
 30
2.1222
 70
192
 0
VERTEX
 8
CA_ON
 10
-1.1708
 20
0.0123
 30
2.1222
 70
192
 0
VERTEX
 8
CA_ON
 10
-1.1708
 20
0.0149
 30
2.1248
 70
192
 0
VERTEX
 8
CA_ON
 10
-1.1708
 20
0.0279
 30
2.1138
 70
192
 0
VERTEX
 8
CA_ON
 10
-1.0494
 20
0.0279
 30
2.1138
 70
192
 0
VERTEX
 8
CA_ON
 10
-1.0494
 20
0.0149
 30
2.1248
 70
192
 0
VERTEX
 8
CA_ON
 10
-1.1708
 20
0.0169
 30
2.1277
 70
192
 0
VERTEX
 8
CA_ON
 10
-1.1708
 20
0.0317
 30
2.1192
 70
192
 0
VERTEX
 8
CA_ON
 10
-1.0494
 20
0.0317
 30
2.1192
 70
192
 0
VERTEX
 8
CA_ON
 10
-1.0494
 20
0.0169
 30
2.1277
 70
192
 0
VERTEX
 8
CA_ON
 10
-1.1708
 20
0.0185
 30
2.1309
 70
192
 0
VERTEX
 8
CA_ON
 10
-1.1708
 20
0.0345
 30
2.1251
 70
192
 0
VERTEX
 8
CA_ON
 10
-1.0494
 20
0.0345
 30
2.1251
 70
192
 0
VERTEX
 8
CA_ON
 10
-1.0494
 20
0.0185
 30
2.1309
 70
192
 0
VERTEX
 8
CA_ON
 10
-1.1708
 20
0.0362
 30
2.1315
 70
192
 0
VERTEX
 8
CA_ON
 10
-1.0494
 20
0.0362
 30
2.1315
 70
192
 0
VERTEX
 8
CA_ON
 10
-1.0494
 20
0.0194
 30
2.1344
 70
192
 0
VERTEX
 8
CA_ON
 10
-1.1708
 20
0.0194
 30
2.1344
 70
192
 0
VERTEX
 8
CA_ON
 10
-1.1708
 20
0.0197
 30
2.138
 70
192
 0
VERTEX
 8
CA_ON
 10
-1.1708
 20
0.0367
 30
2.138
 70
192
 0
VERTEX
 8
CA_ON
 10
-1.0494
 20
0.0367
 30
2.138
 70
192
 0
VERTEX
 8
CA_ON
 10
-1.0494
 20
0.0197
 30
2.138
 70
192
 0
VERTEX
 8
CA_ON
 10
-1.1708
 20
0.0194
 30
2.1416
 70
192
 0
VERTEX
 8
CA_ON
 10
-1.1708
 20
0.0362
 30
2.1445
 70
192
 0
VERTEX
 8
CA_ON
 10
-1.0494
 20
0.0362
 30
2.1445
 70
192
 0
VERTEX
 8
CA_ON
 10
-1.0494
 20
0.0194
 30
2.1416
 70
192
 0
VERTEX
 8
CA_ON
 10
-1.1708
 20
0.0185
 30
2.145
 70
192
 0
VERTEX
 8
CA_ON
 10
-1.1708
 20
0.0345
 30
2.1509
 70
192
 0
VERTEX
 8
CA_ON
 10
-1.0494
 20
0.0345
 30
2.1509
 70
192
 0
VERTEX
 8
CA_ON
 10
-1.0494
 20
0.0185
 30
2.145
 70
192
 0
VERTEX
 8
CA_ON
 10
-1.1708
 20
0.0169
 30
2.1483
 70
192
 0
VERTEX
 8
CA_ON
 10
-1.1708
 20
0.0317
 30
2.1568
 70
192
 0
VERTEX
 8
CA_ON
 10
-1.0494
 20
0.0317
 30
2.1568
 70
192
 0
VERTEX
 8
CA_ON
 10
-1.0494
 20
0.0169
 30
2.1483
 70
192
 0
VERTEX
 8
CA_ON
 10
-1.1708
 20
0.0149
 30
2.1512
 70
192
 0
VERTEX
 8
CA_ON
 10
-1.1708
 20
0.0279
 30
2.1622
 70
192
 0
VERTEX
 8
CA_ON
 10
-1.0494
 20
0.0279
 30
2.1622
 70
192
 0
VERTEX
 8
CA_ON
 10
-1.0494
 20
0.0149
 30
2.1512
 70
192
 0
VERTEX
 8
CA_ON
 10
-1.1708
 20
0.0233
 30
2.1668
 70
192
 0
VERTEX
 8
CA_ON
 10
-1.0494
 20
0.0233
 30
2.1668
 70
192
 0
VERTEX
 8
CA_ON
 10
-1.0494
 20
0.0123
 30
2.1538
 70
192
 0
VERTEX
 8
CA_ON
 10
-1.1708
 20
0.0123
 30
2.1538
 70
192
 0
VERTEX
 8
CA_ON
 10
-1.1708
 20
0.0179
 30
2.1706
 70
192
 0
VERTEX
 8
CA_ON
 10
-1.0494
 20
0.0179
 30
2.1706
 70
192
 0
VERTEX
 8
CA_ON
 10
-1.0494
 20
0.0094
 30
2.1558
 70
192
 0
VERTEX
 8
CA_ON
 10
-1.1708
 20
0.0094
 30
2.1558
 70
192
 0
VERTEX
 8
CA_ON
 10
-1.1708
 20
0.012
 30
2.1734
 70
192
 0
VERTEX
 8
CA_ON
 10
-1.0494
 20
0.012
 30
2.1734
 70
192
 0
VERTEX
 8
CA_ON
 10
-1.0494
 20
0.0061
 30
2.1574
 70
192
 0
VERTEX
 8
CA_ON
 10
-1.1708
 20
0.0061
 30
2.1574
 70
192
 0
VERTEX
 8
CA_ON
 10
-1.1708
 20
0.0056
 30
2.1751
 70
192
 0
VERTEX
 8
CA_ON
 10
-1.0494
 20
0.0056
 30
2.1751
 70
192
 0
VERTEX
 8
CA_ON
 10
-1.0494
 20
0.0027
 30
2.1583
 70
192
 0
VERTEX
 8
CA_ON
 10
-1.1708
 20
0.0027
 30
2.1583
 70
192
 0
VERTEX
 8
CA_ON
 10
-1.1708
 20
-0.0009
 30
2.1757
 70
192
 0
VERTEX
 8
CA_ON
 10
-1.0494
 20
-0.0009
 30
2.1757
 70
192
 0
VERTEX
 8
CA_ON
 10
-1.0494
 20
-0.0009
 30
2.1586
 70
192
 0
VERTEX
 8
CA_ON
 10
-1.1708
 20
-0.0009
 30
2.1586
 70
192
 0
VERTEX
 8
CA_ON
 10
-1.1708
 20
-0.0045
 30
2.1583
 70
192
 0
VERTEX
 8
CA_ON
 10
-1.1708
 20
-0.0074
 30
2.1751
 70
192
 0
VERTEX
 8
CA_ON
 10
-1.0494
 20
-0.0074
 30
2.1751
 70
192
 0
VERTEX
 8
CA_ON
 10
-1.0494
 20
-0.0045
 30
2.1583
 70
192
 0
VERTEX
 8
CA_ON
 10
-1.1708
 20
-0.0138
 30
2.1734
 70
192
 0
VERTEX
 8
CA_ON
 10
-1.0494
 20
-0.0138
 30
2.1734
 70
192
 0
VERTEX
 8
CA_ON
 10
-1.0494
 20
-0.008
 30
2.1574
 70
192
 0
VERTEX
 8
CA_ON
 10
-1.1708
 20
-0.008
 30
2.1574
 70
192
 0
VERTEX
 8
CA_ON
 10
-1.1708
 20
-0.0197
 30
2.1706
 70
192
 0
VERTEX
 8
CA_ON
 10
-1.0494
 20
-0.0197
 30
2.1706
 70
192
 0
VERTEX
 8
CA_ON
 10
-1.0494
 20
-0.0112
 30
2.1558
 70
192
 0
VERTEX
 8
CA_ON
 10
-1.1708
 20
-0.0112
 30
2.1558
 70
192
 0
VERTEX
 8
CA_ON
 10
-1.1708
 20
-0.0251
 30
2.1668
 70
192
 0
VERTEX
 8
CA_ON
 10
-1.0494
 20
-0.0251
 30
2.1668
 70
192
 0
VERTEX
 8
CA_ON
 10
-1.0494
 20
-0.0142
 30
2.1538
 70
192
 0
VERTEX
 8
CA_ON
 10
-1.1708
 20
-0.0142
 30
2.1538
 70
192
 0
VERTEX
 8
CA_ON
 10
-1.1708
 20
-0.0298
 30
2.1622
 70
192
 0
VERTEX
 8
CA_ON
 10
-1.0494
 20
-0.0298
 30
2.1622
 70
192
 0
VERTEX
 8
CA_ON
 10
-1.0494
 20
-0.0167
 30
2.1512
 70
192
 0
VERTEX
 8
CA_ON
 10
-1.1708
 20
-0.0167
 30
2.1512
 70
192
 0
VERTEX
 8
CA_ON
 10
-1.1708
 20
-0.0188
 30
2.1483
 70
192
 0
VERTEX
 8
CA_ON
 10
-1.1708
 20
-0.0335
 30
2.1568
 70
192
 0
VERTEX
 8
CA_ON
 10
-1.0494
 20
-0.0335
 30
2.1568
 70
192
 0
VERTEX
 8
CA_ON
 10
-1.0494
 20
-0.0188
 30
2.1483
 70
192
 0
VERTEX
 8
CA_ON
 10
-1.1708
 20
-0.0363
 30
2.1509
 70
192
 0
VERTEX
 8
CA_ON
 10
-1.0494
 20
-0.0363
 30
2.1509
 70
192
 0
VERTEX
 8
CA_ON
 10
-1.0494
 20
-0.0203
 30
2.145
 70
192
 0
VERTEX
 8
CA_ON
 10
-1.1708
 20
-0.0203
 30
2.145
 70
192
 0
VERTEX
 8
CA_ON
 10
-1.1708
 20
-0.0212
 30
2.1416
 70
192
 0
VERTEX
 8
CA_ON
 10
-1.1708
 20
-0.038
 30
2.1445
 70
192
 0
VERTEX
 8
CA_ON
 10
-1.0494
 20
-0.038
 30
2.1445
 70
192
 0
VERTEX
 8
CA_ON
 10
-1.0494
 20
-0.0212
 30
2.1416
 70
192
 0
VERTEX
 8
CA_ON
 10
-1.1708
 20
-0.0215
 30
2.138
 70
192
 0
VERTEX
 8
CA_ON
 10
-1.1708
 20
-0.0386
 30
2.138
 70
192
 0
VERTEX
 8
CA_ON
 10
-1.0494
 20
-0.0386
 30
2.138
 70
192
 0
VERTEX
 8
CA_ON
 10
-1.0494
 20
-0.0215
 30
2.138
 70
192
 0
VERTEX
 8
CA_ON
 10
-1.1708
 20
-0.038
 30
2.1315
 70
192
 0
VERTEX
 8
CA_ON
 10
-1.0494
 20
-0.038
 30
2.1315
 70
192
 0
VERTEX
 8
CA_ON
 10
-1.0494
 20
-0.0212
 30
2.1344
 70
192
 0
VERTEX
 8
CA_ON
 10
-1.1708
 20
-0.0212
 30
2.1344
 70
192
 0
VERTEX
 8
CA_ON
 10
-1.1708
 20
-0.0363
 30
2.1251
 70
192
 0
VERTEX
 8
CA_ON
 10
-1.0494
 20
-0.0363
 30
2.1251
 70
192
 0
VERTEX
 8
CA_ON
 10
-1.0494
 20
-0.0203
 30
2.1309
 70
192
 0
VERTEX
 8
CA_ON
 10
-1.1708
 20
-0.0203
 30
2.1309
 70
192
 0
VERTEX
 8
CA_ON
 10
-1.1708
 20
-0.0188
 30
2.1277
 70
192
 0
VERTEX
 8
CA_ON
 10
-1.1708
 20
-0.0335
 30
2.1192
 70
192
 0
VERTEX
 8
CA_ON
 10
-1.0494
 20
-0.0335
 30
2.1192
 70
192
 0
VERTEX
 8
CA_ON
 10
-1.0494
 20
-0.0188
 30
2.1277
 70
192
 0
VERTEX
 8
CA_ON
 10
-1.1708
 20
-0.0298
 30
2.1138
 70
192
 0
VERTEX
 8
CA_ON
 10
-1.0494
 20
-0.0298
 30
2.1138
 70
192
 0
VERTEX
 8
CA_ON
 10
-1.0494
 20
-0.0167
 30
2.1248
 70
192
 0
VERTEX
 8
CA_ON
 10
-1.1708
 20
-0.0167
 30
2.1248
 70
192
 0
VERTEX
 8
CA_ON
 10
-1.1708
 20
-0.0251
 30
2.1092
 70
192
 0
VERTEX
 8
CA_ON
 10
-1.0494
 20
-0.0251
 30
2.1092
 70
192
 0
VERTEX
 8
CA_ON
 10
-1.0494
 20
-0.0142
 30
2.1222
 70
192
 0
VERTEX
 8
CA_ON
 10
-1.1708
 20
-0.0142
 30
2.1222
 70
192
 0
VERTEX
 8
CA_ON
 10
-1.1708
 20
-0.0112
 30
2.1202
 70
192
 0
VERTEX
 8
CA_ON
 10
-1.1708
 20
-0.0197
 30
2.1054
 70
192
 0
VERTEX
 8
CA_ON
 10
-1.0494
 20
-0.0197
 30
2.1054
 70
192
 0
VERTEX
 8
CA_ON
 10
-1.0494
 20
-0.0112
 30
2.1202
 70
192
 0
VERTEX
 8
CA_ON
 10
-1.1708
 20
-0.0138
 30
2.1026
 70
192
 0
VERTEX
 8
CA_ON
 10
-1.0494
 20
-0.0138
 30
2.1026
 70
192
 0
VERTEX
 8
CA_ON
 10
-1.0494
 20
-0.008
 30
2.1186
 70
192
 0
VERTEX
 8
CA_ON
 10
-1.1708
 20
-0.008
 30
2.1186
 70
192
 0
VERTEX
 8
CA_ON
 10
-1.1708
 20
-0.0074
 30
2.1009
 70
192
 0
VERTEX
 8
CA_ON
 10
-1.0494
 20
-0.0074
 30
2.1009
 70
192
 0
VERTEX
 8
CA_ON
 10
-1.0494
 20
-0.0045
 30
2.1177
 70
192
 0
VERTEX
 8
CA_ON
 10
-1.1708
 20
-0.0045
 30
2.1177
 70
192
 0
VERTEX
 8
CA_ON
 10
-1.021
 20
-0.0146
 30
2.1536
 70
192
 0
VERTEX
 8
CA_ON
 10
-0.936
 20
-0.0146
 30
2.1536
 70
192
 0
VERTEX
 8
CA_ON
 10
-0.936
 20
0.0127
 30
2.1536
 70
192
 0
VERTEX
 8
CA_ON
 10
-1.021
 20
0.0127
 30
2.1536
 70
192
 0
VERTEX
 8
CA_ON
 10
-0.9785
 20
-0.0009
 30
2.2846
 70
192
 0
VERTEX
 8
CA_ON
 10
-1.056
 20
-0.0015
 30
2.1384
 70
192
 0
VERTEX
 8
CA_ON
 10
-1.056
 20
-0.0015
 30
2.1113
 70
192
 0
VERTEX
 8
CA_ON
 10
-1.056
 20
0.0032
 30
2.1117
 70
192
 0
VERTEX
 8
CA_ON
 10
-1.056
 20
0.0078
 30
2.1129
 70
192
 0
VERTEX
 8
CA_ON
 10
-1.056
 20
0.0121
 30
2.1149
 70
192
 0
VERTEX
 8
CA_ON
 10
-1.056
 20
0.0159
 30
2.1177
 70
192
 0
VERTEX
 8
CA_ON
 10
-1.056
 20
0.0193
 30
2.121
 70
192
 0
VERTEX
 8
CA_ON
 10
-1.056
 20
0.022
 30
2.1249
 70
192
 0
VERTEX
 8
CA_ON
 10
-1.056
 20
0.024
 30
2.1292
 70
192
 0
VERTEX
 8
CA_ON
 10
-1.056
 20
0.0252
 30
2.1337
 70
192
 0
VERTEX
 8
CA_ON
 10
-1.056
 20
0.0256
 30
2.1384
 70
192
 0
VERTEX
 8
CA_ON
 10
-1.056
 20
0.0252
 30
2.1432
 70
192
 0
VERTEX
 8
CA_ON
 10
-1.056
 20
0.024
 30
2.1477
 70
192
 0
VERTEX
 8
CA_ON
 10
-1.056
 20
0.022
 30
2.152
 70
192
 0
VERTEX
 8
CA_ON
 10
-1.056
 20
0.0193
 30
2.1559
 70
192
 0
VERTEX
 8
CA_ON
 10
-1.056
 20
0.0159
 30
2.1592
 70
192
 0
VERTEX
 8
CA_ON
 10
-1.056
 20
0.0121
 30
2.1619
 70
192
 0
VERTEX
 8
CA_ON
 10
-1.056
 20
0.0078
 30
2.1639
 70
192
 0
VERTEX
 8
CA_ON
 10
-1.056
 20
0.0032
 30
2.1652
 70
192
 0
VERTEX
 8
CA_ON
 10
-1.056
 20
-0.0015
 30
2.1656
 70
192
 0
VERTEX
 8
CA_ON
 10
-1.056
 20
-0.0062
 30
2.1652
 70
192
 0
VERTEX
 8
CA_ON
 10
-1.056
 20
-0.0108
 30
2.1639
 70
192
 0
VERTEX
 8
CA_ON
 10
-1.056
 20
-0.0151
 30
2.1619
 70
192
 0
VERTEX
 8
CA_ON
 10
-1.056
 20
-0.0189
 30
2.1592
 70
192
 0
VERTEX
 8
CA_ON
 10
-1.056
 20
-0.0223
 30
2.1559
 70
192
 0
VERTEX
 8
CA_ON
 10
-1.056
 20
-0.025
 30
2.152
 70
192
 0
VERTEX
 8
CA_ON
 10
-1.056
 20
-0.027
 30
2.1477
 70
192
 0
VERTEX
 8
CA_ON
 10
-1.056
 20
-0.0282
 30
2.1432
 70
192
 0
VERTEX
 8
CA_ON
 10
-1.056
 20
-0.0286
 30
2.1384
 70
192
 0
VERTEX
 8
CA_ON
 10
-1.056
 20
-0.0282
 30
2.1337
 70
192
 0
VERTEX
 8
CA_ON
 10
-1.056
 20
-0.027
 30
2.1292
 70
192
 0
VERTEX
 8
CA_ON
 10
-1.056
 20
-0.025
 30
2.1249
 70
192
 0
VERTEX
 8
CA_ON
 10
-1.056
 20
-0.0223
 30
2.121
 70
192
 0
VERTEX
 8
CA_ON
 10
-1.056
 20
-0.0189
 30
2.1177
 70
192
 0
VERTEX
 8
CA_ON
 10
-1.056
 20
-0.0151
 30
2.1149
 70
192
 0
VERTEX
 8
CA_ON
 10
-1.056
 20
-0.0108
 30
2.1129
 70
192
 0
VERTEX
 8
CA_ON
 10
-1.056
 20
-0.0062
 30
2.1117
 70
192
 0
VERTEX
 8
CA_ON
 10
-0.5237
 20
-0.0004
 30
2.1384
 70
192
 0
VERTEX
 8
CA_ON
 10
-0.488
 20
-0.0004
 30
2.1384
 70
192
 0
VERTEX
 8
CA_ON
 10
-0.5237
 20
-0.0004
 30
2.1061
 70
192
 0
VERTEX
 8
CA_ON
 10
-0.488
 20
-0.0004
 30
2.1061
 70
192
 0
VERTEX
 8
CA_ON
 10
-0.5237
 20
0.0052
 30
2.1065
 70
192
 0
VERTEX
 8
CA_ON
 10
-0.488
 20
0.0052
 30
2.1065
 70
192
 0
VERTEX
 8
CA_ON
 10
-0.5237
 20
0.0107
 30
2.108
 70
192
 0
VERTEX
 8
CA_ON
 10
-0.488
 20
0.0107
 30
2.108
 70
192
 0
VERTEX
 8
CA_ON
 10
-0.5237
 20
0.0158
 30
2.1104
 70
192
 0
VERTEX
 8
CA_ON
 10
-0.488
 20
0.0158
 30
2.1104
 70
192
 0
VERTEX
 8
CA_ON
 10
-0.5237
 20
0.0204
 30
2.1136
 70
192
 0
VERTEX
 8
CA_ON
 10
-0.488
 20
0.0204
 30
2.1136
 70
192
 0
VERTEX
 8
CA_ON
 10
-0.5237
 20
0.0244
 30
2.1176
 70
192
 0
VERTEX
 8
CA_ON
 10
-0.488
 20
0.0244
 30
2.1176
 70
192
 0
VERTEX
 8
CA_ON
 10
-0.5237
 20
0.0276
 30
2.1222
 70
192
 0
VERTEX
 8
CA_ON
 10
-0.488
 20
0.0276
 30
2.1222
 70
192
 0
VERTEX
 8
CA_ON
 10
-0.5237
 20
0.03
 30
2.1274
 70
192
 0
VERTEX
 8
CA_ON
 10
-0.488
 20
0.03
 30
2.1274
 70
192
 0
VERTEX
 8
CA_ON
 10
-0.5237
 20
0.0315
 30
2.1328
 70
192
 0
VERTEX
 8
CA_ON
 10
-0.488
 20
0.0315
 30
2.1328
 70
192
 0
VERTEX
 8
CA_ON
 10
-0.5237
 20
0.032
 30
2.1384
 70
192
 0
VERTEX
 8
CA_ON
 10
-0.488
 20
0.032
 30
2.1384
 70
192
 0
VERTEX
 8
CA_ON
 10
-0.5237
 20
0.0315
 30
2.1441
 70
192
 0
VERTEX
 8
CA_ON
 10
-0.488
 20
0.0315
 30
2.1441
 70
192
 0
VERTEX
 8
CA_ON
 10
-0.5237
 20
0.03
 30
2.1495
 70
192
 0
VERTEX
 8
CA_ON
 10
-0.488
 20
0.03
 30
2.1495
 70
192
 0
VERTEX
 8
CA_ON
 10
-0.5237
 20
0.0276
 30
2.1546
 70
192
 0
VERTEX
 8
CA_ON
 10
-0.488
 20
0.0276
 30
2.1546
 70
192
 0
VERTEX
 8
CA_ON
 10
-0.5237
 20
0.0244
 30
2.1593
 70
192
 0
VERTEX
 8
CA_ON
 10
-0.488
 20
0.0244
 30
2.1593
 70
192
 0
VERTEX
 8
CA_ON
 10
-0.5237
 20
0.0204
 30
2.1632
 70
192
 0
VERTEX
 8
CA_ON
 10
-0.488
 20
0.0204
 30
2.1632
 70
192
 0
VERTEX
 8
CA_ON
 10
-0.5237
 20
0.0158
 30
2.1665
 70
192
 0
VERTEX
 8
CA_ON
 10
-0.488
 20
0.0158
 30
2.1665
 70
192
 0
VERTEX
 8
CA_ON
 10
-0.5237
 20
0.0107
 30
2.1689
 70
192
 0
VERTEX
 8
CA_ON
 10
-0.488
 20
0.0107
 30
2.1689
 70
192
 0
VERTEX
 8
CA_ON
 10
-0.5237
 20
0.0052
 30
2.1703
 70
192
 0
VERTEX
 8
CA_ON
 10
-0.488
 20
0.0052
 30
2.1703
 70
192
 0
VERTEX
 8
CA_ON
 10
-0.5237
 20
-0.0004
 30
2.1708
 70
192
 0
VERTEX
 8
CA_ON
 10
-0.488
 20
-0.0004
 30
2.1708
 70
192
 0
VERTEX
 8
CA_ON
 10
-0.5237
 20
-0.006
 30
2.1703
 70
192
 0
VERTEX
 8
CA_ON
 10
-0.488
 20
-0.006
 30
2.1703
 70
192
 0
VERTEX
 8
CA_ON
 10
-0.5237
 20
-0.0115
 30
2.1689
 70
192
 0
VERTEX
 8
CA_ON
 10
-0.488
 20
-0.0115
 30
2.1689
 70
192
 0
VERTEX
 8
CA_ON
 10
-0.5237
 20
-0.0166
 30
2.1665
 70
192
 0
VERTEX
 8
CA_ON
 10
-0.488
 20
-0.0166
 30
2.1665
 70
192
 0
VERTEX
 8
CA_ON
 10
-0.5237
 20
-0.0212
 30
2.1632
 70
192
 0
VERTEX
 8
CA_ON
 10
-0.488
 20
-0.0212
 30
2.1632
 70
192
 0
VERTEX
 8
CA_ON
 10
-0.5237
 20
-0.0252
 30
2.1593
 70
192
 0
VERTEX
 8
CA_ON
 10
-0.488
 20
-0.0252
 30
2.1593
 70
192
 0
VERTEX
 8
CA_ON
 10
-0.5237
 20
-0.0284
 30
2.1546
 70
192
 0
VERTEX
 8
CA_ON
 10
-0.488
 20
-0.0284
 30
2.1546
 70
192
 0
VERTEX
 8
CA_ON
 10
-0.5237
 20
-0.0308
 30
2.1495
 70
192
 0
VERTEX
 8
CA_ON
 10
-0.488
 20
-0.0308
 30
2.1495
 70
192
 0
VERTEX
 8
CA_ON
 10
-0.5237
 20
-0.0323
 30
2.1441
 70
192
 0
VERTEX
 8
CA_ON
 10
-0.488
 20
-0.0323
 30
2.1441
 70
192
 0
VERTEX
 8
CA_ON
 10
-0.5237
 20
-0.0328
 30
2.1384
 70
192
 0
VERTEX
 8
CA_ON
 10
-0.488
 20
-0.0328
 30
2.1384
 70
192
 0
VERTEX
 8
CA_ON
 10
-0.5237
 20
-0.0323
 30
2.1328
 70
192
 0
VERTEX
 8
CA_ON
 10
-0.488
 20
-0.0323
 30
2.1328
 70
192
 0
VERTEX
 8
CA_ON
 10
-0.5237
 20
-0.0308
 30
2.1274
 70
192
 0
VERTEX
 8
CA_ON
 10
-0.488
 20
-0.0308
 30
2.1274
 70
192
 0
VERTEX
 8
CA_ON
 10
-0.5237
 20
-0.0284
 30
2.1222
 70
192
 0
VERTEX
 8
CA_ON
 10
-0.488
 20
-0.0284
 30
2.1222
 70
192
 0
VERTEX
 8
CA_ON
 10
-0.5237
 20
-0.0252
 30
2.1176
 70
192
 0
VERTEX
 8
CA_ON
 10
-0.488
 20
-0.0252
 30
2.1176
 70
192
 0
VERTEX
 8
CA_ON
 10
-0.5237
 20
-0.0212
 30
2.1136
 70
192
 0
VERTEX
 8
CA_ON
 10
-0.488
 20
-0.0212
 30
2.1136
 70
192
 0
VERTEX
 8
CA_ON
 10
-0.5237
 20
-0.0166
 30
2.1104
 70
192
 0
VERTEX
 8
CA_ON
 10
-0.488
 20
-0.0166
 30
2.1104
 70
192
 0
VERTEX
 8
CA_ON
 10
-0.5237
 20
-0.0115
 30
2.108
 70
192
 0
VERTEX
 8
CA_ON
 10
-0.488
 20
-0.0115
 30
2.108
 70
192
 0
VERTEX
 8
CA_ON
 10
-0.5237
 20
-0.006
 30
2.1065
 70
192
 0
VERTEX
 8
CA_ON
 10
-0.488
 20
-0.006
 30
2.1065
 70
192
 0
VERTEX
 8
CA_ON
 10
-0.5237
 20
-0.0004
 30
2.2158
 70
192
 0
VERTEX
 8
CA_ON
 10
-0.488
 20
-0.0004
 30
2.2158
 70
192
 0
VERTEX
 8
CA_ON
 10
-0.5237
 20
-0.0004
 30
2.1885
 70
192
 0
VERTEX
 8
CA_ON
 10
-0.488
 20
-0.0004
 30
2.1885
 70
192
 0
VERTEX
 8
CA_ON
 10
-0.5237
 20
0.0043
 30
2.1889
 70
192
 0
VERTEX
 8
CA_ON
 10
-0.488
 20
0.0043
 30
2.1889
 70
192
 0
VERTEX
 8
CA_ON
 10
-0.5237
 20
0.0089
 30
2.1901
 70
192
 0
VERTEX
 8
CA_ON
 10
-0.488
 20
0.0089
 30
2.1901
 70
192
 0
VERTEX
 8
CA_ON
 10
-0.5237
 20
0.0133
 30
2.1921
 70
192
 0
VERTEX
 8
CA_ON
 10
-0.488
 20
0.0133
 30
2.1921
 70
192
 0
VERTEX
 8
CA_ON
 10
-0.5237
 20
0.0172
 30
2.1949
 70
192
 0
VERTEX
 8
CA_ON
 10
-0.488
 20
0.0172
 30
2.1949
 70
192
 0
VERTEX
 8
CA_ON
 10
-0.5237
 20
0.0205
 30
2.1982
 70
192
 0
VERTEX
 8
CA_ON
 10
-0.488
 20
0.0205
 30
2.1982
 70
192
 0
VERTEX
 8
CA_ON
 10
-0.5237
 20
0.0233
 30
2.2021
 70
192
 0
VERTEX
 8
CA_ON
 10
-0.488
 20
0.0233
 30
2.2021
 70
192
 0
VERTEX
 8
CA_ON
 10
-0.5237
 20
0.0253
 30
2.2065
 70
192
 0
VERTEX
 8
CA_ON
 10
-0.488
 20
0.0253
 30
2.2065
 70
192
 0
VERTEX
 8
CA_ON
 10
-0.5237
 20
0.0265
 30
2.2111
 70
192
 0
VERTEX
 8
CA_ON
 10
-0.488
 20
0.0265
 30
2.2111
 70
192
 0
VERTEX
 8
CA_ON
 10
-0.5237
 20
0.0269
 30
2.2158
 70
192
 0
VERTEX
 8
CA_ON
 10
-0.488
 20
0.0269
 30
2.2158
 70
192
 0
VERTEX
 8
CA_ON
 10
-0.5237
 20
0.0265
 30
2.2205
 70
192
 0
VERTEX
 8
CA_ON
 10
-0.488
 20
0.0265
 30
2.2205
 70
192
 0
VERTEX
 8
CA_ON
 10
-0.5237
 20
0.0253
 30
2.2251
 70
192
 0
VERTEX
 8
CA_ON
 10
-0.488
 20
0.0253
 30
2.2251
 70
192
 0
VERTEX
 8
CA_ON
 10
-0.5237
 20
0.0233
 30
2.2295
 70
192
 0
VERTEX
 8
CA_ON
 10
-0.488
 20
0.0233
 30
2.2295
 70
192
 0
VERTEX
 8
CA_ON
 10
-0.5237
 20
0.0205
 30
2.2334
 70
192
 0
VERTEX
 8
CA_ON
 10
-0.488
 20
0.0205
 30
2.2334
 70
192
 0
VERTEX
 8
CA_ON
 10
-0.5237
 20
0.0172
 30
2.2367
 70
192
 0
VERTEX
 8
CA_ON
 10
-0.488
 20
0.0172
 30
2.2367
 70
192
 0
VERTEX
 8
CA_ON
 10
-0.5237
 20
0.0133
 30
2.2395
 70
192
 0
VERTEX
 8
CA_ON
 10
-0.488
 20
0.0133
 30
2.2395
 70
192
 0
VERTEX
 8
CA_ON
 10
-0.5237
 20
0.0089
 30
2.2415
 70
192
 0
VERTEX
 8
CA_ON
 10
-0.488
 20
0.0089
 30
2.2415
 70
192
 0
VERTEX
 8
CA_ON
 10
-0.5237
 20
0.0043
 30
2.2427
 70
192
 0
VERTEX
 8
CA_ON
 10
-0.488
 20
0.0043
 30
2.2427
 70
192
 0
VERTEX
 8
CA_ON
 10
-0.5237
 20
-0.0004
 30
2.2431
 70
192
 0
VERTEX
 8
CA_ON
 10
-0.488
 20
-0.0004
 30
2.2431
 70
192
 0
VERTEX
 8
CA_ON
 10
-0.5237
 20
-0.0051
 30
2.2427
 70
192
 0
VERTEX
 8
CA_ON
 10
-0.488
 20
-0.0051
 30
2.2427
 70
192
 0
VERTEX
 8
CA_ON
 10
-0.5237
 20
-0.0097
 30
2.2415
 70
192
 0
VERTEX
 8
CA_ON
 10
-0.488
 20
-0.0097
 30
2.2415
 70
192
 0
VERTEX
 8
CA_ON
 10
-0.5237
 20
-0.0141
 30
2.2395
 70
192
 0
VERTEX
 8
CA_ON
 10
-0.488
 20
-0.0141
 30
2.2395
 70
192
 0
VERTEX
 8
CA_ON
 10
-0.5237
 20
-0.018
 30
2.2367
 70
192
 0
VERTEX
 8
CA_ON
 10
-0.488
 20
-0.018
 30
2.2367
 70
192
 0
VERTEX
 8
CA_ON
 10
-0.5237
 20
-0.0213
 30
2.2334
 70
192
 0
VERTEX
 8
CA_ON
 10
-0.488
 20
-0.0213
 30
2.2334
 70
192
 0
VERTEX
 8
CA_ON
 10
-0.5237
 20
-0.0241
 30
2.2295
 70
192
 0
VERTEX
 8
CA_ON
 10
-0.488
 20
-0.0241
 30
2.2295
 70
192
 0
VERTEX
 8
CA_ON
 10
-0.5237
 20
-0.0261
 30
2.2251
 70
192
 0
VERTEX
 8
CA_ON
 10
-0.488
 20
-0.0261
 30
2.2251
 70
192
 0
VERTEX
 8
CA_ON
 10
-0.5237
 20
-0.0273
 30
2.2205
 70
192
 0
VERTEX
 8
CA_ON
 10
-0.488
 20
-0.0273
 30
2.2205
 70
192
 0
VERTEX
 8
CA_ON
 10
-0.5237
 20
-0.0277
 30
2.2158
 70
192
 0
VERTEX
 8
CA_ON
 10
-0.488
 20
-0.0277
 30
2.2158
 70
192
 0
VERTEX
 8
CA_ON
 10
-0.5237
 20
-0.0273
 30
2.2111
 70
192
 0
VERTEX
 8
CA_ON
 10
-0.488
 20
-0.0273
 30
2.2111
 70
192
 0
VERTEX
 8
CA_ON
 10
-0.5237
 20
-0.0261
 30
2.2065
 70
192
 0
VERTEX
 8
CA_ON
 10
-0.488
 20
-0.0261
 30
2.2065
 70
192
 0
VERTEX
 8
CA_ON
 10
-0.5237
 20
-0.0241
 30
2.2021
 70
192
 0
VERTEX
 8
CA_ON
 10
-0.488
 20
-0.0241
 30
2.2021
 70
192
 0
VERTEX
 8
CA_ON
 10
-0.5237
 20
-0.0213
 30
2.1982
 70
192
 0
VERTEX
 8
CA_ON
 10
-0.488
 20
-0.0213
 30
2.1982
 70
192
 0
VERTEX
 8
CA_ON
 10
-0.5237
 20
-0.018
 30
2.1949
 70
192
 0
VERTEX
 8
CA_ON
 10
-0.488
 20
-0.018
 30
2.1949
 70
192
 0
VERTEX
 8
CA_ON
 10
-0.5237
 20
-0.0141
 30
2.1921
 70
192
 0
VERTEX
 8
CA_ON
 10
-0.488
 20
-0.0141
 30
2.1921
 70
192
 0
VERTEX
 8
CA_ON
 10
-0.5237
 20
-0.0097
 30
2.1901
 70
192
 0
VERTEX
 8
CA_ON
 10
-0.488
 20
-0.0097
 30
2.1901
 70
192
 0
VERTEX
 8
CA_ON
 10
-0.5237
 20
-0.0051
 30
2.1889
 70
192
 0
VERTEX
 8
CA_ON
 10
-0.488
 20
-0.0051
 30
2.1889
 70
192
 0
VERTEX
 8
CA_ON
 10
-0.2526
 20
-0.0015
 30
2.1113
 70
192
 0
VERTEX
 8
CA_ON
 10
-0.2526
 20
0.0032
 30
2.1117
 70
192
 0
VERTEX
 8
CA_ON
 10
-0.2526
 20
0.0078
 30
2.1129
 70
192
 0
VERTEX
 8
CA_ON
 10
-0.2526
 20
0.0121
 30
2.1149
 70
192
 0
VERTEX
 8
CA_ON
 10
-0.2526
 20
0.0159
 30
2.1177
 70
192
 0
VERTEX
 8
CA_ON
 10
-0.2526
 20
0.0193
 30
2.121
 70
192
 0
VERTEX
 8
CA_ON
 10
-0.2526
 20
0.022
 30
2.1249
 70
192
 0
VERTEX
 8
CA_ON
 10
-0.2526
 20
0.024
 30
2.1292
 70
192
 0
VERTEX
 8
CA_ON
 10
-0.2526
 20
0.0252
 30
2.1337
 70
192
 0
VERTEX
 8
CA_ON
 10
-0.2526
 20
0.0256
 30
2.1384
 70
192
 0
VERTEX
 8
CA_ON
 10
-0.2526
 20
0.0252
 30
2.1432
 70
192
 0
VERTEX
 8
CA_ON
 10
-0.2526
 20
0.024
 30
2.1477
 70
192
 0
VERTEX
 8
CA_ON
 10
-0.2526
 20
0.022
 30
2.152
 70
192
 0
VERTEX
 8
CA_ON
 10
-0.2526
 20
0.0193
 30
2.1559
 70
192
 0
VERTEX
 8
CA_ON
 10
-0.2526
 20
0.0159
 30
2.1592
 70
192
 0
VERTEX
 8
CA_ON
 10
-0.2526
 20
0.0121
 30
2.1619
 70
192
 0
VERTEX
 8
CA_ON
 10
-0.2526
 20
0.0078
 30
2.1639
 70
192
 0
VERTEX
 8
CA_ON
 10
-0.2526
 20
0.0032
 30
2.1652
 70
192
 0
VERTEX
 8
CA_ON
 10
-0.2526
 20
-0.0015
 30
2.1656
 70
192
 0
VERTEX
 8
CA_ON
 10
-0.2526
 20
-0.0062
 30
2.1652
 70
192
 0
VERTEX
 8
CA_ON
 10
-0.2526
 20
-0.0108
 30
2.1639
 70
192
 0
VERTEX
 8
CA_ON
 10
-0.2526
 20
-0.0151
 30
2.1619
 70
192
 0
VERTEX
 8
CA_ON
 10
-0.2526
 20
-0.0189
 30
2.1592
 70
192
 0
VERTEX
 8
CA_ON
 10
-0.2526
 20
-0.0223
 30
2.1559
 70
192
 0
VERTEX
 8
CA_ON
 10
-0.2526
 20
-0.025
 30
2.152
 70
192
 0
VERTEX
 8
CA_ON
 10
-0.2526
 20
-0.027
 30
2.1477
 70
192
 0
VERTEX
 8
CA_ON
 10
-0.2526
 20
-0.0282
 30
2.1432
 70
192
 0
VERTEX
 8
CA_ON
 10
-0.2526
 20
-0.0286
 30
2.1384
 70
192
 0
VERTEX
 8
CA_ON
 10
-0.2526
 20
-0.0282
 30
2.1337
 70
192
 0
VERTEX
 8
CA_ON
 10
-0.2526
 20
-0.027
 30
2.1292
 70
192
 0
VERTEX
 8
CA_ON
 10
-0.2526
 20
-0.025
 30
2.1249
 70
192
 0
VERTEX
 8
CA_ON
 10
-0.2526
 20
-0.0223
 30
2.121
 70
192
 0
VERTEX
 8
CA_ON
 10
-0.2526
 20
-0.0189
 30
2.1177
 70
192
 0
VERTEX
 8
CA_ON
 10
-0.2526
 20
-0.0151
 30
2.1149
 70
192
 0
VERTEX
 8
CA_ON
 10
-0.2526
 20
-0.0108
 30
2.1129
 70
192
 0
VERTEX
 8
CA_ON
 10
-0.2526
 20
-0.0062
 30
2.1117
 70
192
 0
VERTEX
 8
CA_ON
 10
-0.2526
 20
-0.0015
 30
2.1113
 70
192
 0
VERTEX
 8
CA_ON
 10
-0.2526
 20
0.0032
 30
2.1117
 70
192
 0
VERTEX
 8
CA_ON
 10
-0.2526
 20
0.0078
 30
2.1129
 70
192
 0
VERTEX
 8
CA_ON
 10
-0.2526
 20
0.0121
 30
2.1149
 70
192
 0
VERTEX
 8
CA_ON
 10
-0.2526
 20
0.0159
 30
2.1177
 70
192
 0
VERTEX
 8
CA_ON
 10
-0.2526
 20
0.0193
 30
2.121
 70
192
 0
VERTEX
 8
CA_ON
 10
-0.2526
 20
0.022
 30
2.1249
 70
192
 0
VERTEX
 8
CA_ON
 10
-0.2526
 20
0.024
 30
2.1292
 70
192
 0
VERTEX
 8
CA_ON
 10
-0.2526
 20
0.0252
 30
2.1337
 70
192
 0
VERTEX
 8
CA_ON
 10
-0.2526
 20
0.0256
 30
2.1384
 70
192
 0
VERTEX
 8
CA_ON
 10
-0.2526
 20
0.0252
 30
2.1432
 70
192
 0
VERTEX
 8
CA_ON
 10
-0.2526
 20
0.024
 30
2.1477
 70
192
 0
VERTEX
 8
CA_ON
 10
-0.2526
 20
0.022
 30
2.152
 70
192
 0
VERTEX
 8
CA_ON
 10
-0.2526
 20
0.0193
 30
2.1559
 70
192
 0
VERTEX
 8
CA_ON
 10
-0.2526
 20
0.0159
 30
2.1592
 70
192
 0
VERTEX
 8
CA_ON
 10
-0.2526
 20
0.0121
 30
2.1619
 70
192
 0
VERTEX
 8
CA_ON
 10
-0.2526
 20
0.0078
 30
2.1639
 70
192
 0
VERTEX
 8
CA_ON
 10
-0.2526
 20
0.0032
 30
2.1652
 70
192
 0
VERTEX
 8
CA_ON
 10
-0.2526
 20
-0.0015
 30
2.1656
 70
192
 0
VERTEX
 8
CA_ON
 10
-0.2526
 20
-0.0062
 30
2.1652
 70
192
 0
VERTEX
 8
CA_ON
 10
-0.2526
 20
-0.0108
 30
2.1639
 70
192
 0
VERTEX
 8
CA_ON
 10
-0.2526
 20
-0.0151
 30
2.1619
 70
192
 0
VERTEX
 8
CA_ON
 10
-0.2526
 20
-0.0189
 30
2.1592
 70
192
 0
VERTEX
 8
CA_ON
 10
-0.2526
 20
-0.0223
 30
2.1559
 70
192
 0
VERTEX
 8
CA_ON
 10
-0.2526
 20
-0.025
 30
2.152
 70
192
 0
VERTEX
 8
CA_ON
 10
-0.2526
 20
-0.027
 30
2.1477
 70
192
 0
VERTEX
 8
CA_ON
 10
-0.2526
 20
-0.0282
 30
2.1432
 70
192
 0
VERTEX
 8
CA_ON
 10
-0.2526
 20
-0.0286
 30
2.1384
 70
192
 0
VERTEX
 8
CA_ON
 10
-0.2526
 20
-0.0282
 30
2.1337
 70
192
 0
VERTEX
 8
CA_ON
 10
-0.2526
 20
-0.027
 30
2.1292
 70
192
 0
VERTEX
 8
CA_ON
 10
-0.2526
 20
-0.025
 30
2.1249
 70
192
 0
VERTEX
 8
CA_ON
 10
-0.2526
 20
-0.0223
 30
2.121
 70
192
 0
VERTEX
 8
CA_ON
 10
-0.2526
 20
-0.0189
 30
2.1177
 70
192
 0
VERTEX
 8
CA_ON
 10
-0.2526
 20
-0.0151
 30
2.1149
 70
192
 0
VERTEX
 8
CA_ON
 10
-0.2526
 20
-0.0108
 30
2.1129
 70
192
 0
VERTEX
 8
CA_ON
 10
-0.2526
 20
-0.0062
 30
2.1117
 70
192
 0
VERTEX
 8
CA_ON
 10
0
 20
0
 30
0
 70
128
 71
1
 72
2
 73
7
 74
6
 0
VERTEX
 8
CA_ON
 10
0
 20
0
 30
0
 70
128
 71
6
 72
7
 73
12
 74
11
 0
VERTEX
 8
CA_ON
 10
0
 20
0
 30
0
 70
128
 71
11
 72
12
 73
17
 74
16
 0
VERTEX
 8
CA_ON
 10
0
 20
0
 30
0
 70
128
 71
16
 72
17
 73
22
 74
21
 0
VERTEX
 8
CA_ON
 10
0
 20
0
 30
0
 70
128
 71
2
 72
3
 73
8
 74
7
 0
VERTEX
 8
CA_ON
 10
0
 20
0
 30
0
 70
128
 71
7
 72
8
 73
13
 74
12
 0
VERTEX
 8
CA_ON
 10
0
 20
0
 30
0
 70
128
 71
12
 72
13
 73
18
 74
17
 0
VERTEX
 8
CA_ON
 10
0
 20
0
 30
0
 70
128
 71
17
 72
18
 73
23
 74
22
 0
VERTEX
 8
CA_ON
 10
0
 20
0
 30
0
 70
128
 71
3
 72
4
 73
9
 74
8
 0
VERTEX
 8
CA_ON
 10
0
 20
0
 30
0
 70
128
 71
8
 72
9
 73
14
 74
13
 0
VERTEX
 8
CA_ON
 10
0
 20
0
 30
0
 70
128
 71
13
 72
14
 73
19
 74
18
 0
VERTEX
 8
CA_ON
 10
0
 20
0
 30
0
 70
128
 71
18
 72
19
 73
24
 74
23
 0
VERTEX
 8
CA_ON
 10
0
 20
0
 30
0
 70
128
 71
9
 72
4
 73
5
 74
10
 0
VERTEX
 8
CA_ON
 10
0
 20
0
 30
0
 70
128
 71
9
 72
10
 73
15
 74
14
 0
VERTEX
 8
CA_ON
 10
0
 20
0
 30
0
 70
128
 71
14
 72
15
 73
20
 74
19
 0
VERTEX
 8
CA_ON
 10
0
 20
0
 30
0
 70
128
 71
19
 72
20
 73
25
 74
24
 0
VERTEX
 8
CA_ON
 10
0
 20
0
 30
0
 70
128
 71
21
 72
22
 73
27
 74
26
 0
VERTEX
 8
CA_ON
 10
0
 20
0
 30
0
 70
128
 71
22
 72
23
 73
28
 74
27
 0
VERTEX
 8
CA_ON
 10
0
 20
0
 30
0
 70
128
 71
23
 72
24
 73
29
 74
28
 0
VERTEX
 8
CA_ON
 10
0
 20
0
 30
0
 70
128
 71
24
 72
25
 73
30
 74
29
 0
VERTEX
 8
CA_ON
 10
0
 20
0
 30
0
 70
128
 71
26
 72
27
 73
32
 74
31
 0
VERTEX
 8
CA_ON
 10
0
 20
0
 30
0
 70
128
 71
31
 72
32
 73
37
 74
36
 0
VERTEX
 8
CA_ON
 10
0
 20
0
 30
0
 70
128
 71
36
 72
37
 73
42
 74
41
 0
VERTEX
 8
CA_ON
 10
0
 20
0
 30
0
 70
128
 71
41
 72
42
 73
47
 74
46
 0
VERTEX
 8
CA_ON
 10
0
 20
0
 30
0
 70
128
 71
27
 72
28
 73
33
 74
32
 0
VERTEX
 8
CA_ON
 10
0
 20
0
 30
0
 70
128
 71
32
 72
33
 73
38
 74
37
 0
VERTEX
 8
CA_ON
 10
0
 20
0
 30
0
 70
128
 71
37
 72
38
 73
43
 74
42
 0
VERTEX
 8
CA_ON
 10
0
 20
0
 30
0
 70
128
 71
42
 72
43
 73
48
 74
47
 0
VERTEX
 8
CA_ON
 10
0
 20
0
 30
0
 70
128
 71
28
 72
29
 73
34
 74
33
 0
VERTEX
 8
CA_ON
 10
0
 20
0
 30
0
 70
128
 71
33
 72
34
 73
39
 74
38
 0
VERTEX
 8
CA_ON
 10
0
 20
0
 30
0
 70
128
 71
38
 72
39
 73
44
 74
43
 0
VERTEX
 8
CA_ON
 10
0
 20
0
 30
0
 70
128
 71
43
 72
44
 73
49
 74
48
 0
VERTEX
 8
CA_ON
 10
0
 20
0
 30
0
 70
128
 71
29
 72
30
 73
35
 74
34
 0
VERTEX
 8
CA_ON
 10
0
 20
0
 30
0
 70
128
 71
34
 72
35
 73
40
 74
39
 0
VERTEX
 8
CA_ON
 10
0
 20
0
 30
0
 70
128
 71
39
 72
40
 73
45
 74
44
 0
VERTEX
 8
CA_ON
 10
0
 20
0
 30
0
 70
128
 71
44
 72
45
 73
50
 74
49
 0
VERTEX
 8
CA_ON
 10
0
 20
0
 30
0
 70
128
 71
46
 72
47
 73
2
 74
1
 0
VERTEX
 8
CA_ON
 10
0
 20
0
 30
0
 70
128
 71
47
 72
48
 73
3
 74
2
 0
VERTEX
 8
CA_ON
 10
0
 20
0
 30
0
 70
128
 71
48
 72
49
 73
4
 74
3
 0
VERTEX
 8
CA_ON
 10
0
 20
0
 30
0
 70
128
 71
49
 72
50
 73
5
 74
4
 0
VERTEX
 8
CA_ON
 10
0
 20
0
 30
0
 70
128
 71
5
 72
50
 73
45
 74
10
 0
VERTEX
 8
CA_ON
 10
0
 20
0
 30
0
 70
128
 71
10
 72
45
 73
40
 74
15
 0
VERTEX
 8
CA_ON
 10
0
 20
0
 30
0
 70
128
 71
15
 72
40
 73
35
 74
20
 0
VERTEX
 8
CA_ON
 10
0
 20
0
 30
0
 70
128
 71
20
 72
35
 73
30
 74
25
 0
VERTEX
 8
CA_ON
 10
0
 20
0
 30
0
 70
128
 71
46
 72
1
 73
6
 74
41
 0
VERTEX
 8
CA_ON
 10
0
 20
0
 30
0
 70
128
 71
41
 72
6
 73
11
 74
36
 0
VERTEX
 8
CA_ON
 10
0
 20
0
 30
0
 70
128
 71
36
 72
11
 73
16
 74
31
 0
VERTEX
 8
CA_ON
 10
0
 20
0
 30
0
 70
128
 71
31
 72
16
 73
21
 74
26
 0
VERTEX
 8
CA_ON
 10
0
 20
0
 30
0
 70
128
 71
51
 72
53
 73
55
 74
55
 0
VERTEX
 8
CA_ON
 10
0
 20
0
 30
0
 70
128
 71
53
 72
54
 73
56
 74
55
 0
VERTEX
 8
CA_ON
 10
0
 20
0
 30
0
 70
128
 71
54
 72
52
 73
56
 74
56
 0
VERTEX
 8
CA_ON
 10
0
 20
0
 30
0
 70
128
 71
51
 72
55
 73
57
 74
57
 0
VERTEX
 8
CA_ON
 10
0
 20
0
 30
0
 70
128
 71
55
 72
56
 73
58
 74
57
 0
VERTEX
 8
CA_ON
 10
0
 20
0
 30
0
 70
128
 71
56
 72
52
 73
58
 74
58
 0
VERTEX
 8
CA_ON
 10
0
 20
0
 30
0
 70
128
 71
51
 72
57
 73
59
 74
59
 0
VERTEX
 8
CA_ON
 10
0
 20
0
 30
0
 70
128
 71
57
 72
58
 73
60
 74
59
 0
VERTEX
 8
CA_ON
 10
0
 20
0
 30
0
 70
128
 71
58
 72
52
 73
60
 74
60
 0
VERTEX
 8
CA_ON
 10
0
 20
0
 30
0
 70
128
 71
51
 72
59
 73
61
 74
61
 0
VERTEX
 8
CA_ON
 10
0
 20
0
 30
0
 70
128
 71
59
 72
60
 73
62
 74
61
 0
VERTEX
 8
CA_ON
 10
0
 20
0
 30
0
 70
128
 71
60
 72
52
 73
62
 74
62
 0
VERTEX
 8
CA_ON
 10
0
 20
0
 30
0
 70
128
 71
51
 72
61
 73
63
 74
63
 0
VERTEX
 8
CA_ON
 10
0
 20
0
 30
0
 70
128
 71
61
 72
62
 73
64
 74
63
 0
VERTEX
 8
CA_ON
 10
0
 20
0
 30
0
 70
128
 71
62
 72
52
 73
64
 74
64
 0
VERTEX
 8
CA_ON
 10
0
 20
0
 30
0
 70
128
 71
51
 72
63
 73
65
 74
65
 0
VERTEX
 8
CA_ON
 10
0
 20
0
 30
0
 70
128
 71
63
 72
64
 73
66
 74
65
 0
VERTEX
 8
CA_ON
 10
0
 20
0
 30
0
 70
128
 71
64
 72
52
 73
66
 74
66
 0
VERTEX
 8
CA_ON
 10
0
 20
0
 30
0
 70
128
 71
51
 72
65
 73
67
 74
67
 0
VERTEX
 8
CA_ON
 10
0
 20
0
 30
0
 70
128
 71
65
 72
66
 73
68
 74
67
 0
VERTEX
 8
CA_ON
 10
0
 20
0
 30
0
 70
128
 71
66
 72
52
 73
68
 74
68
 0
VERTEX
 8
CA_ON
 10
0
 20
0
 30
0
 70
128
 71
51
 72
67
 73
69
 74
69
 0
VERTEX
 8
CA_ON
 10
0
 20
0
 30
0
 70
128
 71
67
 72
68
 73
70
 74
69
 0
VERTEX
 8
CA_ON
 10
0
 20
0
 30
0
 70
128
 71
68
 72
52
 73
70
 74
70
 0
VERTEX
 8
CA_ON
 10
0
 20
0
 30
0
 70
128
 71
51
 72
69
 73
71
 74
71
 0
VERTEX
 8
CA_ON
 10
0
 20
0
 30
0
 70
128
 71
69
 72
70
 73
72
 74
71
 0
VERTEX
 8
CA_ON
 10
0
 20
0
 30
0
 70
128
 71
70
 72
52
 73
72
 74
72
 0
VERTEX
 8
CA_ON
 10
0
 20
0
 30
0
 70
128
 71
51
 72
71
 73
73
 74
73
 0
VERTEX
 8
CA_ON
 10
0
 20
0
 30
0
 70
128
 71
71
 72
72
 73
74
 74
73
 0
VERTEX
 8
CA_ON
 10
0
 20
0
 30
0
 70
128
 71
72
 72
52
 73
74
 74
74
 0
VERTEX
 8
CA_ON
 10
0
 20
0
 30
0
 70
128
 71
51
 72
73
 73
75
 74
75
 0
VERTEX
 8
CA_ON
 10
0
 20
0
 30
0
 70
128
 71
73
 72
74
 73
76
 74
75
 0
VERTEX
 8
CA_ON
 10
0
 20
0
 30
0
 70
128
 71
74
 72
52
 73
76
 74
76
 0
VERTEX
 8
CA_ON
 10
0
 20
0
 30
0
 70
128
 71
51
 72
75
 73
77
 74
77
 0
VERTEX
 8
CA_ON
 10
0
 20
0
 30
0
 70
128
 71
75
 72
76
 73
78
 74
77
 0
VERTEX
 8
CA_ON
 10
0
 20
0
 30
0
 70
128
 71
76
 72
52
 73
78
 74
78
 0
VERTEX
 8
CA_ON
 10
0
 20
0
 30
0
 70
128
 71
51
 72
77
 73
79
 74
79
 0
VERTEX
 8
CA_ON
 10
0
 20
0
 30
0
 70
128
 71
77
 72
78
 73
80
 74
79
 0
VERTEX
 8
CA_ON
 10
0
 20
0
 30
0
 70
128
 71
78
 72
52
 73
80
 74
80
 0
VERTEX
 8
CA_ON
 10
0
 20
0
 30
0
 70
128
 71
51
 72
79
 73
81
 74
81
 0
VERTEX
 8
CA_ON
 10
0
 20
0
 30
0
 70
128
 71
79
 72
80
 73
82
 74
81
 0
VERTEX
 8
CA_ON
 10
0
 20
0
 30
0
 70
128
 71
80
 72
52
 73
82
 74
82
 0
VERTEX
 8
CA_ON
 10
0
 20
0
 30
0
 70
128
 71
51
 72
81
 73
83
 74
83
 0
VERTEX
 8
CA_ON
 10
0
 20
0
 30
0
 70
128
 71
81
 72
82
 73
84
 74
83
 0
VERTEX
 8
CA_ON
 10
0
 20
0
 30
0
 70
128
 71
82
 72
52
 73
84
 74
84
 0
VERTEX
 8
CA_ON
 10
0
 20
0
 30
0
 70
128
 71
51
 72
83
 73
85
 74
85
 0
VERTEX
 8
CA_ON
 10
0
 20
0
 30
0
 70
128
 71
83
 72
84
 73
86
 74
85
 0
VERTEX
 8
CA_ON
 10
0
 20
0
 30
0
 70
128
 71
84
 72
52
 73
86
 74
86
 0
VERTEX
 8
CA_ON
 10
0
 20
0
 30
0
 70
128
 71
51
 72
85
 73
87
 74
87
 0
VERTEX
 8
CA_ON
 10
0
 20
0
 30
0
 70
128
 71
85
 72
86
 73
88
 74
87
 0
VERTEX
 8
CA_ON
 10
0
 20
0
 30
0
 70
128
 71
86
 72
52
 73
88
 74
88
 0
VERTEX
 8
CA_ON
 10
0
 20
0
 30
0
 70
128
 71
51
 72
87
 73
89
 74
89
 0
VERTEX
 8
CA_ON
 10
0
 20
0
 30
0
 70
128
 71
87
 72
88
 73
90
 74
89
 0
VERTEX
 8
CA_ON
 10
0
 20
0
 30
0
 70
128
 71
88
 72
52
 73
90
 74
90
 0
VERTEX
 8
CA_ON
 10
0
 20
0
 30
0
 70
128
 71
51
 72
89
 73
91
 74
91
 0
VERTEX
 8
CA_ON
 10
0
 20
0
 30
0
 70
128
 71
89
 72
90
 73
92
 74
91
 0
VERTEX
 8
CA_ON
 10
0
 20
0
 30
0
 70
128
 71
90
 72
52
 73
92
 74
92
 0
VERTEX
 8
CA_ON
 10
0
 20
0
 30
0
 70
128
 71
51
 72
91
 73
93
 74
93
 0
VERTEX
 8
CA_ON
 10
0
 20
0
 30
0
 70
128
 71
91
 72
92
 73
94
 74
93
 0
VERTEX
 8
CA_ON
 10
0
 20
0
 30
0
 70
128
 71
92
 72
52
 73
94
 74
94
 0
VERTEX
 8
CA_ON
 10
0
 20
0
 30
0
 70
128
 71
51
 72
93
 73
95
 74
95
 0
VERTEX
 8
CA_ON
 10
0
 20
0
 30
0
 70
128
 71
93
 72
94
 73
96
 74
95
 0
VERTEX
 8
CA_ON
 10
0
 20
0
 30
0
 70
128
 71
94
 72
52
 73
96
 74
96
 0
VERTEX
 8
CA_ON
 10
0
 20
0
 30
0
 70
128
 71
51
 72
95
 73
97
 74
97
 0
VERTEX
 8
CA_ON
 10
0
 20
0
 30
0
 70
128
 71
95
 72
96
 73
98
 74
97
 0
VERTEX
 8
CA_ON
 10
0
 20
0
 30
0
 70
128
 71
96
 72
52
 73
98
 74
98
 0
VERTEX
 8
CA_ON
 10
0
 20
0
 30
0
 70
128
 71
51
 72
97
 73
99
 74
99
 0
VERTEX
 8
CA_ON
 10
0
 20
0
 30
0
 70
128
 71
97
 72
98
 73
100
 74
99
 0
VERTEX
 8
CA_ON
 10
0
 20
0
 30
0
 70
128
 71
98
 72
52
 73
100
 74
100
 0
VERTEX
 8
CA_ON
 10
0
 20
0
 30
0
 70
128
 71
51
 72
99
 73
101
 74
101
 0
VERTEX
 8
CA_ON
 10
0
 20
0
 30
0
 70
128
 71
99
 72
100
 73
102
 74
101
 0
VERTEX
 8
CA_ON
 10
0
 20
0
 30
0
 70
128
 71
100
 72
52
 73
102
 74
102
 0
VERTEX
 8
CA_ON
 10
0
 20
0
 30
0
 70
128
 71
51
 72
101
 73
103
 74
103
 0
VERTEX
 8
CA_ON
 10
0
 20
0
 30
0
 70
128
 71
101
 72
102
 73
104
 74
103
 0
VERTEX
 8
CA_ON
 10
0
 20
0
 30
0
 70
128
 71
102
 72
52
 73
104
 74
104
 0
VERTEX
 8
CA_ON
 10
0
 20
0
 30
0
 70
128
 71
51
 72
103
 73
105
 74
105
 0
VERTEX
 8
CA_ON
 10
0
 20
0
 30
0
 70
128
 71
103
 72
104
 73
106
 74
105
 0
VERTEX
 8
CA_ON
 10
0
 20
0
 30
0
 70
128
 71
104
 72
52
 73
106
 74
106
 0
VERTEX
 8
CA_ON
 10
0
 20
0
 30
0
 70
128
 71
51
 72
105
 73
107
 74
107
 0
VERTEX
 8
CA_ON
 10
0
 20
0
 30
0
 70
128
 71
105
 72
106
 73
108
 74
107
 0
VERTEX
 8
CA_ON
 10
0
 20
0
 30
0
 70
128
 71
106
 72
52
 73
108
 74
108
 0
VERTEX
 8
CA_ON
 10
0
 20
0
 30
0
 70
128
 71
51
 72
107
 73
109
 74
109
 0
VERTEX
 8
CA_ON
 10
0
 20
0
 30
0
 70
128
 71
107
 72
108
 73
110
 74
109
 0
VERTEX
 8
CA_ON
 10
0
 20
0
 30
0
 70
128
 71
108
 72
52
 73
110
 74
110
 0
VERTEX
 8
CA_ON
 10
0
 20
0
 30
0
 70
128
 71
51
 72
109
 73
111
 74
111
 0
VERTEX
 8
CA_ON
 10
0
 20
0
 30
0
 70
128
 71
109
 72
110
 73
112
 74
111
 0
VERTEX
 8
CA_ON
 10
0
 20
0
 30
0
 70
128
 71
110
 72
52
 73
112
 74
112
 0
VERTEX
 8
CA_ON
 10
0
 20
0
 30
0
 70
128
 71
51
 72
111
 73
113
 74
113
 0
VERTEX
 8
CA_ON
 10
0
 20
0
 30
0
 70
128
 71
111
 72
112
 73
114
 74
113
 0
VERTEX
 8
CA_ON
 10
0
 20
0
 30
0
 70
128
 71
112
 72
52
 73
114
 74
114
 0
VERTEX
 8
CA_ON
 10
0
 20
0
 30
0
 70
128
 71
51
 72
113
 73
115
 74
115
 0
VERTEX
 8
CA_ON
 10
0
 20
0
 30
0
 70
128
 71
113
 72
114
 73
116
 74
115
 0
VERTEX
 8
CA_ON
 10
0
 20
0
 30
0
 70
128
 71
114
 72
52
 73
116
 74
116
 0
VERTEX
 8
CA_ON
 10
0
 20
0
 30
0
 70
128
 71
51
 72
115
 73
117
 74
117
 0
VERTEX
 8
CA_ON
 10
0
 20
0
 30
0
 70
128
 71
115
 72
116
 73
118
 74
117
 0
VERTEX
 8
CA_ON
 10
0
 20
0
 30
0
 70
128
 71
116
 72
52
 73
118
 74
118
 0
VERTEX
 8
CA_ON
 10
0
 20
0
 30
0
 70
128
 71
51
 72
117
 73
119
 74
119
 0
VERTEX
 8
CA_ON
 10
0
 20
0
 30
0
 70
128
 71
117
 72
118
 73
120
 74
119
 0
VERTEX
 8
CA_ON
 10
0
 20
0
 30
0
 70
128
 71
118
 72
52
 73
120
 74
120
 0
VERTEX
 8
CA_ON
 10
0
 20
0
 30
0
 70
128
 71
51
 72
119
 73
121
 74
121
 0
VERTEX
 8
CA_ON
 10
0
 20
0
 30
0
 70
128
 71
119
 72
120
 73
122
 74
121
 0
VERTEX
 8
CA_ON
 10
0
 20
0
 30
0
 70
128
 71
120
 72
52
 73
122
 74
122
 0
VERTEX
 8
CA_ON
 10
0
 20
0
 30
0
 70
128
 71
51
 72
121
 73
123
 74
123
 0
VERTEX
 8
CA_ON
 10
0
 20
0
 30
0
 70
128
 71
121
 72
122
 73
124
 74
123
 0
VERTEX
 8
CA_ON
 10
0
 20
0
 30
0
 70
128
 71
122
 72
52
 73
124
 74
124
 0
VERTEX
 8
CA_ON
 10
0
 20
0
 30
0
 70
128
 71
51
 72
123
 73
53
 74
53
 0
VERTEX
 8
CA_ON
 10
0
 20
0
 30
0
 70
128
 71
123
 72
124
 73
54
 74
53
 0
VERTEX
 8
CA_ON
 10
0
 20
0
 30
0
 70
128
 71
124
 72
52
 73
54
 74
54
 0
VERTEX
 8
CA_ON
 10
0
 20
0
 30
0
 70
128
 71
125
 72
127
 73
129
 74
129
 0
VERTEX
 8
CA_ON
 10
0
 20
0
 30
0
 70
128
 71
127
 72
128
 73
130
 74
129
 0
VERTEX
 8
CA_ON
 10
0
 20
0
 30
0
 70
128
 71
128
 72
126
 73
130
 74
130
 0
VERTEX
 8
CA_ON
 10
0
 20
0
 30
0
 70
128
 71
125
 72
129
 73
131
 74
131
 0
VERTEX
 8
CA_ON
 10
0
 20
0
 30
0
 70
128
 71
129
 72
130
 73
132
 74
131
 0
VERTEX
 8
CA_ON
 10
0
 20
0
 30
0
 70
128
 71
130
 72
126
 73
132
 74
132
 0
VERTEX
 8
CA_ON
 10
0
 20
0
 30
0
 70
128
 71
125
 72
131
 73
133
 74
133
 0
VERTEX
 8
CA_ON
 10
0
 20
0
 30
0
 70
128
 71
131
 72
132
 73
134
 74
133
 0
VERTEX
 8
CA_ON
 10
0
 20
0
 30
0
 70
128
 71
132
 72
126
 73
134
 74
134
 0
VERTEX
 8
CA_ON
 10
0
 20
0
 30
0
 70
128
 71
125
 72
133
 73
135
 74
135
 0
VERTEX
 8
CA_ON
 10
0
 20
0
 30
0
 70
128
 71
133
 72
134
 73
136
 74
135
 0
VERTEX
 8
CA_ON
 10
0
 20
0
 30
0
 70
128
 71
134
 72
126
 73
136
 74
136
 0
VERTEX
 8
CA_ON
 10
0
 20
0
 30
0
 70
128
 71
125
 72
135
 73
137
 74
137
 0
VERTEX
 8
CA_ON
 10
0
 20
0
 30
0
 70
128
 71
135
 72
136
 73
138
 74
137
 0
VERTEX
 8
CA_ON
 10
0
 20
0
 30
0
 70
128
 71
136
 72
126
 73
138
 74
138
 0
VERTEX
 8
CA_ON
 10
0
 20
0
 30
0
 70
128
 71
125
 72
137
 73
139
 74
139
 0
VERTEX
 8
CA_ON
 10
0
 20
0
 30
0
 70
128
 71
137
 72
138
 73
140
 74
139
 0
VERTEX
 8
CA_ON
 10
0
 20
0
 30
0
 70
128
 71
138
 72
126
 73
140
 74
140
 0
VERTEX
 8
CA_ON
 10
0
 20
0
 30
0
 70
128
 71
125
 72
139
 73
141
 74
141
 0
VERTEX
 8
CA_ON
 10
0
 20
0
 30
0
 70
128
 71
139
 72
140
 73
142
 74
141
 0
VERTEX
 8
CA_ON
 10
0
 20
0
 30
0
 70
128
 71
140
 72
126
 73
142
 74
142
 0
VERTEX
 8
CA_ON
 10
0
 20
0
 30
0
 70
128
 71
125
 72
141
 73
143
 74
143
 0
VERTEX
 8
CA_ON
 10
0
 20
0
 30
0
 70
128
 71
141
 72
142
 73
144
 74
143
 0
VERTEX
 8
CA_ON
 10
0
 20
0
 30
0
 70
128
 71
142
 72
126
 73
144
 74
144
 0
VERTEX
 8
CA_ON
 10
0
 20
0
 30
0
 70
128
 71
125
 72
143
 73
145
 74
145
 0
VERTEX
 8
CA_ON
 10
0
 20
0
 30
0
 70
128
 71
143
 72
144
 73
146
 74
145
 0
VERTEX
 8
CA_ON
 10
0
 20
0
 30
0
 70
128
 71
144
 72
126
 73
146
 74
146
 0
VERTEX
 8
CA_ON
 10
0
 20
0
 30
0
 70
128
 71
125
 72
145
 73
147
 74
147
 0
VERTEX
 8
CA_ON
 10
0
 20
0
 30
0
 70
128
 71
145
 72
146
 73
148
 74
147
 0
VERTEX
 8
CA_ON
 10
0
 20
0
 30
0
 70
128
 71
146
 72
126
 73
148
 74
148
 0
VERTEX
 8
CA_ON
 10
0
 20
0
 30
0
 70
128
 71
125
 72
147
 73
149
 74
149
 0
VERTEX
 8
CA_ON
 10
0
 20
0
 30
0
 70
128
 71
147
 72
148
 73
150
 74
149
 0
VERTEX
 8
CA_ON
 10
0
 20
0
 30
0
 70
128
 71
148
 72
126
 73
150
 74
150
 0
VERTEX
 8
CA_ON
 10
0
 20
0
 30
0
 70
128
 71
125
 72
149
 73
151
 74
151
 0
VERTEX
 8
CA_ON
 10
0
 20
0
 30
0
 70
128
 71
149
 72
150
 73
152
 74
151
 0
VERTEX
 8
CA_ON
 10
0
 20
0
 30
0
 70
128
 71
150
 72
126
 73
152
 74
152
 0
VERTEX
 8
CA_ON
 10
0
 20
0
 30
0
 70
128
 71
125
 72
151
 73
153
 74
153
 0
VERTEX
 8
CA_ON
 10
0
 20
0
 30
0
 70
128
 71
151
 72
152
 73
154
 74
153
 0
VERTEX
 8
CA_ON
 10
0
 20
0
 30
0
 70
128
 71
152
 72
126
 73
154
 74
154
 0
VERTEX
 8
CA_ON
 10
0
 20
0
 30
0
 70
128
 71
125
 72
153
 73
155
 74
155
 0
VERTEX
 8
CA_ON
 10
0
 20
0
 30
0
 70
128
 71
153
 72
154
 73
156
 74
155
 0
VERTEX
 8
CA_ON
 10
0
 20
0
 30
0
 70
128
 71
154
 72
126
 73
156
 74
156
 0
VERTEX
 8
CA_ON
 10
0
 20
0
 30
0
 70
128
 71
125
 72
155
 73
157
 74
157
 0
VERTEX
 8
CA_ON
 10
0
 20
0
 30
0
 70
128
 71
155
 72
156
 73
158
 74
157
 0
VERTEX
 8
CA_ON
 10
0
 20
0
 30
0
 70
128
 71
156
 72
126
 73
158
 74
158
 0
VERTEX
 8
CA_ON
 10
0
 20
0
 30
0
 70
128
 71
125
 72
157
 73
159
 74
159
 0
VERTEX
 8
CA_ON
 10
0
 20
0
 30
0
 70
128
 71
157
 72
158
 73
160
 74
159
 0
VERTEX
 8
CA_ON
 10
0
 20
0
 30
0
 70
128
 71
158
 72
126
 73
160
 74
160
 0
VERTEX
 8
CA_ON
 10
0
 20
0
 30
0
 70
128
 71
125
 72
159
 73
161
 74
161
 0
VERTEX
 8
CA_ON
 10
0
 20
0
 30
0
 70
128
 71
159
 72
160
 73
162
 74
161
 0
VERTEX
 8
CA_ON
 10
0
 20
0
 30
0
 70
128
 71
160
 72
126
 73
162
 74
162
 0
VERTEX
 8
CA_ON
 10
0
 20
0
 30
0
 70
128
 71
125
 72
161
 73
163
 74
163
 0
VERTEX
 8
CA_ON
 10
0
 20
0
 30
0
 70
128
 71
161
 72
162
 73
164
 74
163
 0
VERTEX
 8
CA_ON
 10
0
 20
0
 30
0
 70
128
 71
162
 72
126
 73
164
 74
164
 0
VERTEX
 8
CA_ON
 10
0
 20
0
 30
0
 70
128
 71
125
 72
163
 73
165
 74
165
 0
VERTEX
 8
CA_ON
 10
0
 20
0
 30
0
 70
128
 71
163
 72
164
 73
166
 74
165
 0
VERTEX
 8
CA_ON
 10
0
 20
0
 30
0
 70
128
 71
164
 72
126
 73
166
 74
166
 0
VERTEX
 8
CA_ON
 10
0
 20
0
 30
0
 70
128
 71
125
 72
165
 73
167
 74
167
 0
VERTEX
 8
CA_ON
 10
0
 20
0
 30
0
 70
128
 71
165
 72
166
 73
168
 74
167
 0
VERTEX
 8
CA_ON
 10
0
 20
0
 30
0
 70
128
 71
166
 72
126
 73
168
 74
168
 0
VERTEX
 8
CA_ON
 10
0
 20
0
 30
0
 70
128
 71
125
 72
167
 73
169
 74
169
 0
VERTEX
 8
CA_ON
 10
0
 20
0
 30
0
 70
128
 71
167
 72
168
 73
170
 74
169
 0
VERTEX
 8
CA_ON
 10
0
 20
0
 30
0
 70
128
 71
168
 72
126
 73
170
 74
170
 0
VERTEX
 8
CA_ON
 10
0
 20
0
 30
0
 70
128
 71
125
 72
169
 73
171
 74
171
 0
VERTEX
 8
CA_ON
 10
0
 20
0
 30
0
 70
128
 71
169
 72
170
 73
172
 74
171
 0
VERTEX
 8
CA_ON
 10
0
 20
0
 30
0
 70
128
 71
170
 72
126
 73
172
 74
172
 0
VERTEX
 8
CA_ON
 10
0
 20
0
 30
0
 70
128
 71
125
 72
171
 73
173
 74
173
 0
VERTEX
 8
CA_ON
 10
0
 20
0
 30
0
 70
128
 71
171
 72
172
 73
174
 74
173
 0
VERTEX
 8
CA_ON
 10
0
 20
0
 30
0
 70
128
 71
172
 72
126
 73
174
 74
174
 0
VERTEX
 8
CA_ON
 10
0
 20
0
 30
0
 70
128
 71
125
 72
173
 73
175
 74
175
 0
VERTEX
 8
CA_ON
 10
0
 20
0
 30
0
 70
128
 71
173
 72
174
 73
176
 74
175
 0
VERTEX
 8
CA_ON
 10
0
 20
0
 30
0
 70
128
 71
174
 72
126
 73
176
 74
176
 0
VERTEX
 8
CA_ON
 10
0
 20
0
 30
0
 70
128
 71
125
 72
175
 73
177
 74
177
 0
VERTEX
 8
CA_ON
 10
0
 20
0
 30
0
 70
128
 71
175
 72
176
 73
178
 74
177
 0
VERTEX
 8
CA_ON
 10
0
 20
0
 30
0
 70
128
 71
176
 72
126
 73
178
 74
178
 0
VERTEX
 8
CA_ON
 10
0
 20
0
 30
0
 70
128
 71
125
 72
177
 73
179
 74
179
 0
VERTEX
 8
CA_ON
 10
0
 20
0
 30
0
 70
128
 71
177
 72
178
 73
180
 74
179
 0
VERTEX
 8
CA_ON
 10
0
 20
0
 30
0
 70
128
 71
178
 72
126
 73
180
 74
180
 0
VERTEX
 8
CA_ON
 10
0
 20
0
 30
0
 70
128
 71
125
 72
179
 73
181
 74
181
 0
VERTEX
 8
CA_ON
 10
0
 20
0
 30
0
 70
128
 71
179
 72
180
 73
182
 74
181
 0
VERTEX
 8
CA_ON
 10
0
 20
0
 30
0
 70
128
 71
180
 72
126
 73
182
 74
182
 0
VERTEX
 8
CA_ON
 10
0
 20
0
 30
0
 70
128
 71
125
 72
181
 73
183
 74
183
 0
VERTEX
 8
CA_ON
 10
0
 20
0
 30
0
 70
128
 71
181
 72
182
 73
184
 74
183
 0
VERTEX
 8
CA_ON
 10
0
 20
0
 30
0
 70
128
 71
182
 72
126
 73
184
 74
184
 0
VERTEX
 8
CA_ON
 10
0
 20
0
 30
0
 70
128
 71
125
 72
183
 73
185
 74
185
 0
VERTEX
 8
CA_ON
 10
0
 20
0
 30
0
 70
128
 71
183
 72
184
 73
186
 74
185
 0
VERTEX
 8
CA_ON
 10
0
 20
0
 30
0
 70
128
 71
184
 72
126
 73
186
 74
186
 0
VERTEX
 8
CA_ON
 10
0
 20
0
 30
0
 70
128
 71
125
 72
185
 73
187
 74
187
 0
VERTEX
 8
CA_ON
 10
0
 20
0
 30
0
 70
128
 71
185
 72
186
 73
188
 74
187
 0
VERTEX
 8
CA_ON
 10
0
 20
0
 30
0
 70
128
 71
186
 72
126
 73
188
 74
188
 0
VERTEX
 8
CA_ON
 10
0
 20
0
 30
0
 70
128
 71
125
 72
187
 73
189
 74
189
 0
VERTEX
 8
CA_ON
 10
0
 20
0
 30
0
 70
128
 71
187
 72
188
 73
190
 74
189
 0
VERTEX
 8
CA_ON
 10
0
 20
0
 30
0
 70
128
 71
188
 72
126
 73
190
 74
190
 0
VERTEX
 8
CA_ON
 10
0
 20
0
 30
0
 70
128
 71
125
 72
189
 73
191
 74
191
 0
VERTEX
 8
CA_ON
 10
0
 20
0
 30
0
 70
128
 71
189
 72
190
 73
192
 74
191
 0
VERTEX
 8
CA_ON
 10
0
 20
0
 30
0
 70
128
 71
190
 72
126
 73
192
 74
192
 0
VERTEX
 8
CA_ON
 10
0
 20
0
 30
0
 70
128
 71
125
 72
191
 73
193
 74
193
 0
VERTEX
 8
CA_ON
 10
0
 20
0
 30
0
 70
128
 71
191
 72
192
 73
194
 74
193
 0
VERTEX
 8
CA_ON
 10
0
 20
0
 30
0
 70
128
 71
192
 72
126
 73
194
 74
194
 0
VERTEX
 8
CA_ON
 10
0
 20
0
 30
0
 70
128
 71
125
 72
193
 73
195
 74
195
 0
VERTEX
 8
CA_ON
 10
0
 20
0
 30
0
 70
128
 71
193
 72
194
 73
196
 74
195
 0
VERTEX
 8
CA_ON
 10
0
 20
0
 30
0
 70
128
 71
194
 72
126
 73
196
 74
196
 0
VERTEX
 8
CA_ON
 10
0
 20
0
 30
0
 70
128
 71
125
 72
195
 73
197
 74
197
 0
VERTEX
 8
CA_ON
 10
0
 20
0
 30
0
 70
128
 71
195
 72
196
 73
198
 74
197
 0
VERTEX
 8
CA_ON
 10
0
 20
0
 30
0
 70
128
 71
196
 72
126
 73
198
 74
198
 0
VERTEX
 8
CA_ON
 10
0
 20
0
 30
0
 70
128
 71
125
 72
197
 73
127
 74
127
 0
VERTEX
 8
CA_ON
 10
0
 20
0
 30
0
 70
128
 71
197
 72
198
 73
128
 74
127
 0
VERTEX
 8
CA_ON
 10
0
 20
0
 30
0
 70
128
 71
198
 72
126
 73
128
 74
128
 0
VERTEX
 8
CA_ON
 10
0
 20
0
 30
0
 70
128
 71
199
 72
201
 73
209
 74
209
 0
VERTEX
 8
CA_ON
 10
0
 20
0
 30
0
 70
128
 71
201
 72
202
 73
210
 74
209
 0
VERTEX
 8
CA_ON
 10
0
 20
0
 30
0
 70
128
 71
202
 72
203
 73
211
 74
210
 0
VERTEX
 8
CA_ON
 10
0
 20
0
 30
0
 70
128
 71
203
 72
204
 73
212
 74
211
 0
VERTEX
 8
CA_ON
 10
0
 20
0
 30
0
 70
128
 71
204
 72
205
 73
213
 74
212
 0
VERTEX
 8
CA_ON
 10
0
 20
0
 30
0
 70
128
 71
205
 72
206
 73
214
 74
213
 0
VERTEX
 8
CA_ON
 10
0
 20
0
 30
0
 70
128
 71
206
 72
207
 73
215
 74
214
 0
VERTEX
 8
CA_ON
 10
0
 20
0
 30
0
 70
128
 71
207
 72
208
 73
216
 74
215
 0
VERTEX
 8
CA_ON
 10
0
 20
0
 30
0
 70
128
 71
208
 72
200
 73
216
 74
216
 0
VERTEX
 8
CA_ON
 10
0
 20
0
 30
0
 70
128
 71
199
 72
209
 73
217
 74
217
 0
VERTEX
 8
CA_ON
 10
0
 20
0
 30
0
 70
128
 71
209
 72
210
 73
218
 74
217
 0
VERTEX
 8
CA_ON
 10
0
 20
0
 30
0
 70
128
 71
210
 72
211
 73
219
 74
218
 0
VERTEX
 8
CA_ON
 10
0
 20
0
 30
0
 70
128
 71
211
 72
212
 73
220
 74
219
 0
VERTEX
 8
CA_ON
 10
0
 20
0
 30
0
 70
128
 71
212
 72
213
 73
221
 74
220
 0
VERTEX
 8
CA_ON
 10
0
 20
0
 30
0
 70
128
 71
213
 72
214
 73
222
 74
221
 0
VERTEX
 8
CA_ON
 10
0
 20
0
 30
0
 70
128
 71
214
 72
215
 73
223
 74
222
 0
VERTEX
 8
CA_ON
 10
0
 20
0
 30
0
 70
128
 71
215
 72
216
 73
224
 74
223
 0
VERTEX
 8
CA_ON
 10
0
 20
0
 30
0
 70
128
 71
216
 72
200
 73
224
 74
224
 0
VERTEX
 8
CA_ON
 10
0
 20
0
 30
0
 70
128
 71
199
 72
217
 73
225
 74
225
 0
VERTEX
 8
CA_ON
 10
0
 20
0
 30
0
 70
128
 71
217
 72
218
 73
226
 74
225
 0
VERTEX
 8
CA_ON
 10
0
 20
0
 30
0
 70
128
 71
218
 72
219
 73
227
 74
226
 0
VERTEX
 8
CA_ON
 10
0
 20
0
 30
0
 70
128
 71
219
 72
220
 73
228
 74
227
 0
VERTEX
 8
CA_ON
 10
0
 20
0
 30
0
 70
128
 71
220
 72
221
 73
229
 74
228
 0
VERTEX
 8
CA_ON
 10
0
 20
0
 30
0
 70
128
 71
221
 72
222
 73
230
 74
229
 0
VERTEX
 8
CA_ON
 10
0
 20
0
 30
0
 70
128
 71
222
 72
223
 73
231
 74
230
 0
VERTEX
 8
CA_ON
 10
0
 20
0
 30
0
 70
128
 71
223
 72
224
 73
232
 74
231
 0
VERTEX
 8
CA_ON
 10
0
 20
0
 30
0
 70
128
 71
224
 72
200
 73
232
 74
232
 0
VERTEX
 8
CA_ON
 10
0
 20
0
 30
0
 70
128
 71
199
 72
225
 73
233
 74
233
 0
VERTEX
 8
CA_ON
 10
0
 20
0
 30
0
 70
128
 71
225
 72
226
 73
234
 74
233
 0
VERTEX
 8
CA_ON
 10
0
 20
0
 30
0
 70
128
 71
226
 72
227
 73
235
 74
234
 0
VERTEX
 8
CA_ON
 10
0
 20
0
 30
0
 70
128
 71
227
 72
228
 73
236
 74
235
 0
VERTEX
 8
CA_ON
 10
0
 20
0
 30
0
 70
128
 71
228
 72
229
 73
237
 74
236
 0
VERTEX
 8
CA_ON
 10
0
 20
0
 30
0
 70
128
 71
229
 72
230
 73
238
 74
237
 0
VERTEX
 8
CA_ON
 10
0
 20
0
 30
0
 70
128
 71
230
 72
231
 73
239
 74
238
 0
VERTEX
 8
CA_ON
 10
0
 20
0
 30
0
 70
128
 71
231
 72
232
 73
240
 74
239
 0
VERTEX
 8
CA_ON
 10
0
 20
0
 30
0
 70
128
 71
232
 72
200
 73
240
 74
240
 0
VERTEX
 8
CA_ON
 10
0
 20
0
 30
0
 70
128
 71
199
 72
233
 73
241
 74
241
 0
VERTEX
 8
CA_ON
 10
0
 20
0
 30
0
 70
128
 71
233
 72
234
 73
242
 74
241
 0
VERTEX
 8
CA_ON
 10
0
 20
0
 30
0
 70
128
 71
234
 72
235
 73
243
 74
242
 0
VERTEX
 8
CA_ON
 10
0
 20
0
 30
0
 70
128
 71
235
 72
236
 73
244
 74
243
 0
VERTEX
 8
CA_ON
 10
0
 20
0
 30
0
 70
128
 71
236
 72
237
 73
245
 74
244
 0
VERTEX
 8
CA_ON
 10
0
 20
0
 30
0
 70
128
 71
237
 72
238
 73
246
 74
245
 0
VERTEX
 8
CA_ON
 10
0
 20
0
 30
0
 70
128
 71
238
 72
239
 73
247
 74
246
 0
VERTEX
 8
CA_ON
 10
0
 20
0
 30
0
 70
128
 71
239
 72
240
 73
248
 74
247
 0
VERTEX
 8
CA_ON
 10
0
 20
0
 30
0
 70
128
 71
240
 72
200
 73
248
 74
248
 0
VERTEX
 8
CA_ON
 10
0
 20
0
 30
0
 70
128
 71
199
 72
241
 73
249
 74
249
 0
VERTEX
 8
CA_ON
 10
0
 20
0
 30
0
 70
128
 71
241
 72
242
 73
250
 74
249
 0
VERTEX
 8
CA_ON
 10
0
 20
0
 30
0
 70
128
 71
242
 72
243
 73
251
 74
250
 0
VERTEX
 8
CA_ON
 10
0
 20
0
 30
0
 70
128
 71
243
 72
244
 73
252
 74
251
 0
VERTEX
 8
CA_ON
 10
0
 20
0
 30
0
 70
128
 71
244
 72
245
 73
253
 74
252
 0
VERTEX
 8
CA_ON
 10
0
 20
0
 30
0
 70
128
 71
245
 72
246
 73
254
 74
253
 0
VERTEX
 8
CA_ON
 10
0
 20
0
 30
0
 70
128
 71
246
 72
247
 73
255
 74
254
 0
VERTEX
 8
CA_ON
 10
0
 20
0
 30
0
 70
128
 71
247
 72
248
 73
256
 74
255
 0
VERTEX
 8
CA_ON
 10
0
 20
0
 30
0
 70
128
 71
248
 72
200
 73
256
 74
256
 0
VERTEX
 8
CA_ON
 10
0
 20
0
 30
0
 70
128
 71
199
 72
249
 73
257
 74
257
 0
VERTEX
 8
CA_ON
 10
0
 20
0
 30
0
 70
128
 71
249
 72
250
 73
258
 74
257
 0
VERTEX
 8
CA_ON
 10
0
 20
0
 30
0
 70
128
 71
250
 72
251
 73
259
 74
258
 0
VERTEX
 8
CA_ON
 10
0
 20
0
 30
0
 70
128
 71
251
 72
252
 73
260
 74
259
 0
VERTEX
 8
CA_ON
 10
0
 20
0
 30
0
 70
128
 71
252
 72
253
 73
261
 74
260
 0
VERTEX
 8
CA_ON
 10
0
 20
0
 30
0
 70
128
 71
253
 72
254
 73
262
 74
261
 0
VERTEX
 8
CA_ON
 10
0
 20
0
 30
0
 70
128
 71
254
 72
255
 73
263
 74
262
 0
VERTEX
 8
CA_ON
 10
0
 20
0
 30
0
 70
128
 71
255
 72
256
 73
264
 74
263
 0
VERTEX
 8
CA_ON
 10
0
 20
0
 30
0
 70
128
 71
256
 72
200
 73
264
 74
264
 0
VERTEX
 8
CA_ON
 10
0
 20
0
 30
0
 70
128
 71
199
 72
257
 73
265
 74
265
 0
VERTEX
 8
CA_ON
 10
0
 20
0
 30
0
 70
128
 71
257
 72
258
 73
266
 74
265
 0
VERTEX
 8
CA_ON
 10
0
 20
0
 30
0
 70
128
 71
258
 72
259
 73
267
 74
266
 0
VERTEX
 8
CA_ON
 10
0
 20
0
 30
0
 70
128
 71
259
 72
260
 73
268
 74
267
 0
VERTEX
 8
CA_ON
 10
0
 20
0
 30
0
 70
128
 71
260
 72
261
 73
269
 74
268
 0
VERTEX
 8
CA_ON
 10
0
 20
0
 30
0
 70
128
 71
261
 72
262
 73
270
 74
269
 0
VERTEX
 8
CA_ON
 10
0
 20
0
 30
0
 70
128
 71
262
 72
263
 73
271
 74
270
 0
VERTEX
 8
CA_ON
 10
0
 20
0
 30
0
 70
128
 71
263
 72
264
 73
272
 74
271
 0
VERTEX
 8
CA_ON
 10
0
 20
0
 30
0
 70
128
 71
264
 72
200
 73
272
 74
272
 0
VERTEX
 8
CA_ON
 10
0
 20
0
 30
0
 70
128
 71
199
 72
265
 73
273
 74
273
 0
VERTEX
 8
CA_ON
 10
0
 20
0
 30
0
 70
128
 71
265
 72
266
 73
274
 74
273
 0
VERTEX
 8
CA_ON
 10
0
 20
0
 30
0
 70
128
 71
266
 72
267
 73
275
 74
274
 0
VERTEX
 8
CA_ON
 10
0
 20
0
 30
0
 70
128
 71
267
 72
268
 73
276
 74
275
 0
VERTEX
 8
CA_ON
 10
0
 20
0
 30
0
 70
128
 71
268
 72
269
 73
277
 74
276
 0
VERTEX
 8
CA_ON
 10
0
 20
0
 30
0
 70
128
 71
269
 72
270
 73
278
 74
277
 0
VERTEX
 8
CA_ON
 10
0
 20
0
 30
0
 70
128
 71
270
 72
271
 73
279
 74
278
 0
VERTEX
 8
CA_ON
 10
0
 20
0
 30
0
 70
128
 71
271
 72
272
 73
280
 74
279
 0
VERTEX
 8
CA_ON
 10
0
 20
0
 30
0
 70
128
 71
272
 72
200
 73
280
 74
280
 0
VERTEX
 8
CA_ON
 10
0
 20
0
 30
0
 70
128
 71
199
 72
273
 73
281
 74
281
 0
VERTEX
 8
CA_ON
 10
0
 20
0
 30
0
 70
128
 71
273
 72
274
 73
282
 74
281
 0
VERTEX
 8
CA_ON
 10
0
 20
0
 30
0
 70
128
 71
274
 72
275
 73
283
 74
282
 0
VERTEX
 8
CA_ON
 10
0
 20
0
 30
0
 70
128
 71
275
 72
276
 73
284
 74
283
 0
VERTEX
 8
CA_ON
 10
0
 20
0
 30
0
 70
128
 71
276
 72
277
 73
285
 74
284
 0
VERTEX
 8
CA_ON
 10
0
 20
0
 30
0
 70
128
 71
277
 72
278
 73
286
 74
285
 0
VERTEX
 8
CA_ON
 10
0
 20
0
 30
0
 70
128
 71
278
 72
279
 73
287
 74
286
 0
VERTEX
 8
CA_ON
 10
0
 20
0
 30
0
 70
128
 71
279
 72
280
 73
288
 74
287
 0
VERTEX
 8
CA_ON
 10
0
 20
0
 30
0
 70
128
 71
280
 72
200
 73
288
 74
288
 0
VERTEX
 8
CA_ON
 10
0
 20
0
 30
0
 70
128
 71
199
 72
281
 73
289
 74
289
 0
VERTEX
 8
CA_ON
 10
0
 20
0
 30
0
 70
128
 71
281
 72
282
 73
290
 74
289
 0
VERTEX
 8
CA_ON
 10
0
 20
0
 30
0
 70
128
 71
282
 72
283
 73
291
 74
290
 0
VERTEX
 8
CA_ON
 10
0
 20
0
 30
0
 70
128
 71
283
 72
284
 73
292
 74
291
 0
VERTEX
 8
CA_ON
 10
0
 20
0
 30
0
 70
128
 71
284
 72
285
 73
293
 74
292
 0
VERTEX
 8
CA_ON
 10
0
 20
0
 30
0
 70
128
 71
285
 72
286
 73
294
 74
293
 0
VERTEX
 8
CA_ON
 10
0
 20
0
 30
0
 70
128
 71
286
 72
287
 73
295
 74
294
 0
VERTEX
 8
CA_ON
 10
0
 20
0
 30
0
 70
128
 71
287
 72
288
 73
296
 74
295
 0
VERTEX
 8
CA_ON
 10
0
 20
0
 30
0
 70
128
 71
288
 72
200
 73
296
 74
296
 0
VERTEX
 8
CA_ON
 10
0
 20
0
 30
0
 70
128
 71
199
 72
289
 73
297
 74
297
 0
VERTEX
 8
CA_ON
 10
0
 20
0
 30
0
 70
128
 71
289
 72
290
 73
298
 74
297
 0
VERTEX
 8
CA_ON
 10
0
 20
0
 30
0
 70
128
 71
290
 72
291
 73
299
 74
298
 0
VERTEX
 8
CA_ON
 10
0
 20
0
 30
0
 70
128
 71
291
 72
292
 73
300
 74
299
 0
VERTEX
 8
CA_ON
 10
0
 20
0
 30
0
 70
128
 71
292
 72
293
 73
301
 74
300
 0
VERTEX
 8
CA_ON
 10
0
 20
0
 30
0
 70
128
 71
293
 72
294
 73
302
 74
301
 0
VERTEX
 8
CA_ON
 10
0
 20
0
 30
0
 70
128
 71
294
 72
295
 73
303
 74
302
 0
VERTEX
 8
CA_ON
 10
0
 20
0
 30
0
 70
128
 71
295
 72
296
 73
304
 74
303
 0
VERTEX
 8
CA_ON
 10
0
 20
0
 30
0
 70
128
 71
296
 72
200
 73
304
 74
304
 0
VERTEX
 8
CA_ON
 10
0
 20
0
 30
0
 70
128
 71
199
 72
297
 73
305
 74
305
 0
VERTEX
 8
CA_ON
 10
0
 20
0
 30
0
 70
128
 71
297
 72
298
 73
306
 74
305
 0
VERTEX
 8
CA_ON
 10
0
 20
0
 30
0
 70
128
 71
298
 72
299
 73
307
 74
306
 0
VERTEX
 8
CA_ON
 10
0
 20
0
 30
0
 70
128
 71
299
 72
300
 73
308
 74
307
 0
VERTEX
 8
CA_ON
 10
0
 20
0
 30
0
 70
128
 71
300
 72
301
 73
309
 74
308
 0
VERTEX
 8
CA_ON
 10
0
 20
0
 30
0
 70
128
 71
301
 72
302
 73
310
 74
309
 0
VERTEX
 8
CA_ON
 10
0
 20
0
 30
0
 70
128
 71
302
 72
303
 73
311
 74
310
 0
VERTEX
 8
CA_ON
 10
0
 20
0
 30
0
 70
128
 71
303
 72
304
 73
312
 74
311
 0
VERTEX
 8
CA_ON
 10
0
 20
0
 30
0
 70
128
 71
304
 72
200
 73
312
 74
312
 0
VERTEX
 8
CA_ON
 10
0
 20
0
 30
0
 70
128
 71
199
 72
305
 73
313
 74
313
 0
VERTEX
 8
CA_ON
 10
0
 20
0
 30
0
 70
128
 71
305
 72
306
 73
314
 74
313
 0
VERTEX
 8
CA_ON
 10
0
 20
0
 30
0
 70
128
 71
306
 72
307
 73
315
 74
314
 0
VERTEX
 8
CA_ON
 10
0
 20
0
 30
0
 70
128
 71
307
 72
308
 73
316
 74
315
 0
VERTEX
 8
CA_ON
 10
0
 20
0
 30
0
 70
128
 71
308
 72
309
 73
317
 74
316
 0
VERTEX
 8
CA_ON
 10
0
 20
0
 30
0
 70
128
 71
309
 72
310
 73
318
 74
317
 0
VERTEX
 8
CA_ON
 10
0
 20
0
 30
0
 70
128
 71
310
 72
311
 73
319
 74
318
 0
VERTEX
 8
CA_ON
 10
0
 20
0
 30
0
 70
128
 71
311
 72
312
 73
320
 74
319
 0
VERTEX
 8
CA_ON
 10
0
 20
0
 30
0
 70
128
 71
312
 72
200
 73
320
 74
320
 0
VERTEX
 8
CA_ON
 10
0
 20
0
 30
0
 70
128
 71
199
 72
313
 73
321
 74
321
 0
VERTEX
 8
CA_ON
 10
0
 20
0
 30
0
 70
128
 71
313
 72
314
 73
322
 74
321
 0
VERTEX
 8
CA_ON
 10
0
 20
0
 30
0
 70
128
 71
314
 72
315
 73
323
 74
322
 0
VERTEX
 8
CA_ON
 10
0
 20
0
 30
0
 70
128
 71
315
 72
316
 73
324
 74
323
 0
VERTEX
 8
CA_ON
 10
0
 20
0
 30
0
 70
128
 71
316
 72
317
 73
325
 74
324
 0
VERTEX
 8
CA_ON
 10
0
 20
0
 30
0
 70
128
 71
317
 72
318
 73
326
 74
325
 0
VERTEX
 8
CA_ON
 10
0
 20
0
 30
0
 70
128
 71
318
 72
319
 73
327
 74
326
 0
VERTEX
 8
CA_ON
 10
0
 20
0
 30
0
 70
128
 71
319
 72
320
 73
328
 74
327
 0
VERTEX
 8
CA_ON
 10
0
 20
0
 30
0
 70
128
 71
320
 72
200
 73
328
 74
328
 0
VERTEX
 8
CA_ON
 10
0
 20
0
 30
0
 70
128
 71
199
 72
321
 73
329
 74
329
 0
VERTEX
 8
CA_ON
 10
0
 20
0
 30
0
 70
128
 71
321
 72
322
 73
330
 74
329
 0
VERTEX
 8
CA_ON
 10
0
 20
0
 30
0
 70
128
 71
322
 72
323
 73
331
 74
330
 0
VERTEX
 8
CA_ON
 10
0
 20
0
 30
0
 70
128
 71
323
 72
324
 73
332
 74
331
 0
VERTEX
 8
CA_ON
 10
0
 20
0
 30
0
 70
128
 71
324
 72
325
 73
333
 74
332
 0
VERTEX
 8
CA_ON
 10
0
 20
0
 30
0
 70
128
 71
325
 72
326
 73
334
 74
333
 0
VERTEX
 8
CA_ON
 10
0
 20
0
 30
0
 70
128
 71
326
 72
327
 73
335
 74
334
 0
VERTEX
 8
CA_ON
 10
0
 20
0
 30
0
 70
128
 71
327
 72
328
 73
336
 74
335
 0
VERTEX
 8
CA_ON
 10
0
 20
0
 30
0
 70
128
 71
328
 72
200
 73
336
 74
336
 0
VERTEX
 8
CA_ON
 10
0
 20
0
 30
0
 70
128
 71
199
 72
329
 73
337
 74
337
 0
VERTEX
 8
CA_ON
 10
0
 20
0
 30
0
 70
128
 71
329
 72
330
 73
338
 74
337
 0
VERTEX
 8
CA_ON
 10
0
 20
0
 30
0
 70
128
 71
330
 72
331
 73
339
 74
338
 0
VERTEX
 8
CA_ON
 10
0
 20
0
 30
0
 70
128
 71
331
 72
332
 73
340
 74
339
 0
VERTEX
 8
CA_ON
 10
0
 20
0
 30
0
 70
128
 71
332
 72
333
 73
341
 74
340
 0
VERTEX
 8
CA_ON
 10
0
 20
0
 30
0
 70
128
 71
333
 72
334
 73
342
 74
341
 0
VERTEX
 8
CA_ON
 10
0
 20
0
 30
0
 70
128
 71
334
 72
335
 73
343
 74
342
 0
VERTEX
 8
CA_ON
 10
0
 20
0
 30
0
 70
128
 71
335
 72
336
 73
344
 74
343
 0
VERTEX
 8
CA_ON
 10
0
 20
0
 30
0
 70
128
 71
336
 72
200
 73
344
 74
344
 0
VERTEX
 8
CA_ON
 10
0
 20
0
 30
0
 70
128
 71
199
 72
337
 73
345
 74
345
 0
VERTEX
 8
CA_ON
 10
0
 20
0
 30
0
 70
128
 71
337
 72
338
 73
346
 74
345
 0
VERTEX
 8
CA_ON
 10
0
 20
0
 30
0
 70
128
 71
338
 72
339
 73
347
 74
346
 0
VERTEX
 8
CA_ON
 10
0
 20
0
 30
0
 70
128
 71
339
 72
340
 73
348
 74
347
 0
VERTEX
 8
CA_ON
 10
0
 20
0
 30
0
 70
128
 71
340
 72
341
 73
349
 74
348
 0
VERTEX
 8
CA_ON
 10
0
 20
0
 30
0
 70
128
 71
341
 72
342
 73
350
 74
349
 0
VERTEX
 8
CA_ON
 10
0
 20
0
 30
0
 70
128
 71
342
 72
343
 73
351
 74
350
 0
VERTEX
 8
CA_ON
 10
0
 20
0
 30
0
 70
128
 71
343
 72
344
 73
352
 74
351
 0
VERTEX
 8
CA_ON
 10
0
 20
0
 30
0
 70
128
 71
344
 72
200
 73
352
 74
352
 0
VERTEX
 8
CA_ON
 10
0
 20
0
 30
0
 70
128
 71
199
 72
345
 73
353
 74
353
 0
VERTEX
 8
CA_ON
 10
0
 20
0
 30
0
 70
128
 71
345
 72
346
 73
354
 74
353
 0
VERTEX
 8
CA_ON
 10
0
 20
0
 30
0
 70
128
 71
346
 72
347
 73
355
 74
354
 0
VERTEX
 8
CA_ON
 10
0
 20
0
 30
0
 70
128
 71
347
 72
348
 73
356
 74
355
 0
VERTEX
 8
CA_ON
 10
0
 20
0
 30
0
 70
128
 71
348
 72
349
 73
357
 74
356
 0
VERTEX
 8
CA_ON
 10
0
 20
0
 30
0
 70
128
 71
349
 72
350
 73
358
 74
357
 0
VERTEX
 8
CA_ON
 10
0
 20
0
 30
0
 70
128
 71
350
 72
351
 73
359
 74
358
 0
VERTEX
 8
CA_ON
 10
0
 20
0
 30
0
 70
128
 71
351
 72
352
 73
360
 74
359
 0
VERTEX
 8
CA_ON
 10
0
 20
0
 30
0
 70
128
 71
352
 72
200
 73
360
 74
360
 0
VERTEX
 8
CA_ON
 10
0
 20
0
 30
0
 70
128
 71
199
 72
353
 73
361
 74
361
 0
VERTEX
 8
CA_ON
 10
0
 20
0
 30
0
 70
128
 71
353
 72
354
 73
362
 74
361
 0
VERTEX
 8
CA_ON
 10
0
 20
0
 30
0
 70
128
 71
354
 72
355
 73
363
 74
362
 0
VERTEX
 8
CA_ON
 10
0
 20
0
 30
0
 70
128
 71
355
 72
356
 73
364
 74
363
 0
VERTEX
 8
CA_ON
 10
0
 20
0
 30
0
 70
128
 71
356
 72
357
 73
365
 74
364
 0
VERTEX
 8
CA_ON
 10
0
 20
0
 30
0
 70
128
 71
357
 72
358
 73
366
 74
365
 0
VERTEX
 8
CA_ON
 10
0
 20
0
 30
0
 70
128
 71
358
 72
359
 73
367
 74
366
 0
VERTEX
 8
CA_ON
 10
0
 20
0
 30
0
 70
128
 71
359
 72
360
 73
368
 74
367
 0
VERTEX
 8
CA_ON
 10
0
 20
0
 30
0
 70
128
 71
360
 72
200
 73
368
 74
368
 0
VERTEX
 8
CA_ON
 10
0
 20
0
 30
0
 70
128
 71
199
 72
361
 73
369
 74
369
 0
VERTEX
 8
CA_ON
 10
0
 20
0
 30
0
 70
128
 71
361
 72
362
 73
370
 74
369
 0
VERTEX
 8
CA_ON
 10
0
 20
0
 30
0
 70
128
 71
362
 72
363
 73
371
 74
370
 0
VERTEX
 8
CA_ON
 10
0
 20
0
 30
0
 70
128
 71
363
 72
364
 73
372
 74
371
 0
VERTEX
 8
CA_ON
 10
0
 20
0
 30
0
 70
128
 71
364
 72
365
 73
373
 74
372
 0
VERTEX
 8
CA_ON
 10
0
 20
0
 30
0
 70
128
 71
365
 72
366
 73
374
 74
373
 0
VERTEX
 8
CA_ON
 10
0
 20
0
 30
0
 70
128
 71
366
 72
367
 73
375
 74
374
 0
VERTEX
 8
CA_ON
 10
0
 20
0
 30
0
 70
128
 71
367
 72
368
 73
376
 74
375
 0
VERTEX
 8
CA_ON
 10
0
 20
0
 30
0
 70
128
 71
368
 72
200
 73
376
 74
376
 0
VERTEX
 8
CA_ON
 10
0
 20
0
 30
0
 70
128
 71
199
 72
369
 73
377
 74
377
 0
VERTEX
 8
CA_ON
 10
0
 20
0
 30
0
 70
128
 71
369
 72
370
 73
378
 74
377
 0
VERTEX
 8
CA_ON
 10
0
 20
0
 30
0
 70
128
 71
370
 72
371
 73
379
 74
378
 0
VERTEX
 8
CA_ON
 10
0
 20
0
 30
0
 70
128
 71
371
 72
372
 73
380
 74
379
 0
VERTEX
 8
CA_ON
 10
0
 20
0
 30
0
 70
128
 71
372
 72
373
 73
381
 74
380
 0
VERTEX
 8
CA_ON
 10
0
 20
0
 30
0
 70
128
 71
373
 72
374
 73
382
 74
381
 0
VERTEX
 8
CA_ON
 10
0
 20
0
 30
0
 70
128
 71
374
 72
375
 73
383
 74
382
 0
VERTEX
 8
CA_ON
 10
0
 20
0
 30
0
 70
128
 71
375
 72
376
 73
384
 74
383
 0
VERTEX
 8
CA_ON
 10
0
 20
0
 30
0
 70
128
 71
376
 72
200
 73
384
 74
384
 0
VERTEX
 8
CA_ON
 10
0
 20
0
 30
0
 70
128
 71
199
 72
377
 73
385
 74
385
 0
VERTEX
 8
CA_ON
 10
0
 20
0
 30
0
 70
128
 71
377
 72
378
 73
386
 74
385
 0
VERTEX
 8
CA_ON
 10
0
 20
0
 30
0
 70
128
 71
378
 72
379
 73
387
 74
386
 0
VERTEX
 8
CA_ON
 10
0
 20
0
 30
0
 70
128
 71
379
 72
380
 73
388
 74
387
 0
VERTEX
 8
CA_ON
 10
0
 20
0
 30
0
 70
128
 71
380
 72
381
 73
389
 74
388
 0
VERTEX
 8
CA_ON
 10
0
 20
0
 30
0
 70
128
 71
381
 72
382
 73
390
 74
389
 0
VERTEX
 8
CA_ON
 10
0
 20
0
 30
0
 70
128
 71
382
 72
383
 73
391
 74
390
 0
VERTEX
 8
CA_ON
 10
0
 20
0
 30
0
 70
128
 71
383
 72
384
 73
392
 74
391
 0
VERTEX
 8
CA_ON
 10
0
 20
0
 30
0
 70
128
 71
384
 72
200
 73
392
 74
392
 0
VERTEX
 8
CA_ON
 10
0
 20
0
 30
0
 70
128
 71
199
 72
385
 73
393
 74
393
 0
VERTEX
 8
CA_ON
 10
0
 20
0
 30
0
 70
128
 71
385
 72
386
 73
394
 74
393
 0
VERTEX
 8
CA_ON
 10
0
 20
0
 30
0
 70
128
 71
386
 72
387
 73
395
 74
394
 0
VERTEX
 8
CA_ON
 10
0
 20
0
 30
0
 70
128
 71
387
 72
388
 73
396
 74
395
 0
VERTEX
 8
CA_ON
 10
0
 20
0
 30
0
 70
128
 71
388
 72
389
 73
397
 74
396
 0
VERTEX
 8
CA_ON
 10
0
 20
0
 30
0
 70
128
 71
389
 72
390
 73
398
 74
397
 0
VERTEX
 8
CA_ON
 10
0
 20
0
 30
0
 70
128
 71
390
 72
391
 73
399
 74
398
 0
VERTEX
 8
CA_ON
 10
0
 20
0
 30
0
 70
128
 71
391
 72
392
 73
400
 74
399
 0
VERTEX
 8
CA_ON
 10
0
 20
0
 30
0
 70
128
 71
392
 72
200
 73
400
 74
400
 0
VERTEX
 8
CA_ON
 10
0
 20
0
 30
0
 70
128
 71
199
 72
393
 73
401
 74
401
 0
VERTEX
 8
CA_ON
 10
0
 20
0
 30
0
 70
128
 71
393
 72
394
 73
402
 74
401
 0
VERTEX
 8
CA_ON
 10
0
 20
0
 30
0
 70
128
 71
394
 72
395
 73
403
 74
402
 0
VERTEX
 8
CA_ON
 10
0
 20
0
 30
0
 70
128
 71
395
 72
396
 73
404
 74
403
 0
VERTEX
 8
CA_ON
 10
0
 20
0
 30
0
 70
128
 71
396
 72
397
 73
405
 74
404
 0
VERTEX
 8
CA_ON
 10
0
 20
0
 30
0
 70
128
 71
397
 72
398
 73
406
 74
405
 0
VERTEX
 8
CA_ON
 10
0
 20
0
 30
0
 70
128
 71
398
 72
399
 73
407
 74
406
 0
VERTEX
 8
CA_ON
 10
0
 20
0
 30
0
 70
128
 71
399
 72
400
 73
408
 74
407
 0
VERTEX
 8
CA_ON
 10
0
 20
0
 30
0
 70
128
 71
400
 72
200
 73
408
 74
408
 0
VERTEX
 8
CA_ON
 10
0
 20
0
 30
0
 70
128
 71
199
 72
401
 73
409
 74
409
 0
VERTEX
 8
CA_ON
 10
0
 20
0
 30
0
 70
128
 71
401
 72
402
 73
410
 74
409
 0
VERTEX
 8
CA_ON
 10
0
 20
0
 30
0
 70
128
 71
402
 72
403
 73
411
 74
410
 0
VERTEX
 8
CA_ON
 10
0
 20
0
 30
0
 70
128
 71
403
 72
404
 73
412
 74
411
 0
VERTEX
 8
CA_ON
 10
0
 20
0
 30
0
 70
128
 71
404
 72
405
 73
413
 74
412
 0
VERTEX
 8
CA_ON
 10
0
 20
0
 30
0
 70
128
 71
405
 72
406
 73
414
 74
413
 0
VERTEX
 8
CA_ON
 10
0
 20
0
 30
0
 70
128
 71
406
 72
407
 73
415
 74
414
 0
VERTEX
 8
CA_ON
 10
0
 20
0
 30
0
 70
128
 71
407
 72
408
 73
416
 74
415
 0
VERTEX
 8
CA_ON
 10
0
 20
0
 30
0
 70
128
 71
408
 72
200
 73
416
 74
416
 0
VERTEX
 8
CA_ON
 10
0
 20
0
 30
0
 70
128
 71
199
 72
409
 73
417
 74
417
 0
VERTEX
 8
CA_ON
 10
0
 20
0
 30
0
 70
128
 71
409
 72
410
 73
418
 74
417
 0
VERTEX
 8
CA_ON
 10
0
 20
0
 30
0
 70
128
 71
410
 72
411
 73
419
 74
418
 0
VERTEX
 8
CA_ON
 10
0
 20
0
 30
0
 70
128
 71
411
 72
412
 73
420
 74
419
 0
VERTEX
 8
CA_ON
 10
0
 20
0
 30
0
 70
128
 71
412
 72
413
 73
421
 74
420
 0
VERTEX
 8
CA_ON
 10
0
 20
0
 30
0
 70
128
 71
413
 72
414
 73
422
 74
421
 0
VERTEX
 8
CA_ON
 10
0
 20
0
 30
0
 70
128
 71
414
 72
415
 73
423
 74
422
 0
VERTEX
 8
CA_ON
 10
0
 20
0
 30
0
 70
128
 71
415
 72
416
 73
424
 74
423
 0
VERTEX
 8
CA_ON
 10
0
 20
0
 30
0
 70
128
 71
416
 72
200
 73
424
 74
424
 0
VERTEX
 8
CA_ON
 10
0
 20
0
 30
0
 70
128
 71
199
 72
417
 73
425
 74
425
 0
VERTEX
 8
CA_ON
 10
0
 20
0
 30
0
 70
128
 71
417
 72
418
 73
426
 74
425
 0
VERTEX
 8
CA_ON
 10
0
 20
0
 30
0
 70
128
 71
418
 72
419
 73
427
 74
426
 0
VERTEX
 8
CA_ON
 10
0
 20
0
 30
0
 70
128
 71
419
 72
420
 73
428
 74
427
 0
VERTEX
 8
CA_ON
 10
0
 20
0
 30
0
 70
128
 71
420
 72
421
 73
429
 74
428
 0
VERTEX
 8
CA_ON
 10
0
 20
0
 30
0
 70
128
 71
421
 72
422
 73
430
 74
429
 0
VERTEX
 8
CA_ON
 10
0
 20
0
 30
0
 70
128
 71
422
 72
423
 73
431
 74
430
 0
VERTEX
 8
CA_ON
 10
0
 20
0
 30
0
 70
128
 71
423
 72
424
 73
432
 74
431
 0
VERTEX
 8
CA_ON
 10
0
 20
0
 30
0
 70
128
 71
424
 72
200
 73
432
 74
432
 0
VERTEX
 8
CA_ON
 10
0
 20
0
 30
0
 70
128
 71
199
 72
425
 73
433
 74
433
 0
VERTEX
 8
CA_ON
 10
0
 20
0
 30
0
 70
128
 71
425
 72
426
 73
434
 74
433
 0
VERTEX
 8
CA_ON
 10
0
 20
0
 30
0
 70
128
 71
426
 72
427
 73
435
 74
434
 0
VERTEX
 8
CA_ON
 10
0
 20
0
 30
0
 70
128
 71
427
 72
428
 73
436
 74
435
 0
VERTEX
 8
CA_ON
 10
0
 20
0
 30
0
 70
128
 71
428
 72
429
 73
437
 74
436
 0
VERTEX
 8
CA_ON
 10
0
 20
0
 30
0
 70
128
 71
429
 72
430
 73
438
 74
437
 0
VERTEX
 8
CA_ON
 10
0
 20
0
 30
0
 70
128
 71
430
 72
431
 73
439
 74
438
 0
VERTEX
 8
CA_ON
 10
0
 20
0
 30
0
 70
128
 71
431
 72
432
 73
440
 74
439
 0
VERTEX
 8
CA_ON
 10
0
 20
0
 30
0
 70
128
 71
432
 72
200
 73
440
 74
440
 0
VERTEX
 8
CA_ON
 10
0
 20
0
 30
0
 70
128
 71
199
 72
433
 73
441
 74
441
 0
VERTEX
 8
CA_ON
 10
0
 20
0
 30
0
 70
128
 71
433
 72
434
 73
442
 74
441
 0
VERTEX
 8
CA_ON
 10
0
 20
0
 30
0
 70
128
 71
434
 72
435
 73
443
 74
442
 0
VERTEX
 8
CA_ON
 10
0
 20
0
 30
0
 70
128
 71
435
 72
436
 73
444
 74
443
 0
VERTEX
 8
CA_ON
 10
0
 20
0
 30
0
 70
128
 71
436
 72
437
 73
445
 74
444
 0
VERTEX
 8
CA_ON
 10
0
 20
0
 30
0
 70
128
 71
437
 72
438
 73
446
 74
445
 0
VERTEX
 8
CA_ON
 10
0
 20
0
 30
0
 70
128
 71
438
 72
439
 73
447
 74
446
 0
VERTEX
 8
CA_ON
 10
0
 20
0
 30
0
 70
128
 71
439
 72
440
 73
448
 74
447
 0
VERTEX
 8
CA_ON
 10
0
 20
0
 30
0
 70
128
 71
440
 72
200
 73
448
 74
448
 0
VERTEX
 8
CA_ON
 10
0
 20
0
 30
0
 70
128
 71
199
 72
441
 73
449
 74
449
 0
VERTEX
 8
CA_ON
 10
0
 20
0
 30
0
 70
128
 71
441
 72
442
 73
450
 74
449
 0
VERTEX
 8
CA_ON
 10
0
 20
0
 30
0
 70
128
 71
442
 72
443
 73
451
 74
450
 0
VERTEX
 8
CA_ON
 10
0
 20
0
 30
0
 70
128
 71
443
 72
444
 73
452
 74
451
 0
VERTEX
 8
CA_ON
 10
0
 20
0
 30
0
 70
128
 71
444
 72
445
 73
453
 74
452
 0
VERTEX
 8
CA_ON
 10
0
 20
0
 30
0
 70
128
 71
445
 72
446
 73
454
 74
453
 0
VERTEX
 8
CA_ON
 10
0
 20
0
 30
0
 70
128
 71
446
 72
447
 73
455
 74
454
 0
VERTEX
 8
CA_ON
 10
0
 20
0
 30
0
 70
128
 71
447
 72
448
 73
456
 74
455
 0
VERTEX
 8
CA_ON
 10
0
 20
0
 30
0
 70
128
 71
448
 72
200
 73
456
 74
456
 0
VERTEX
 8
CA_ON
 10
0
 20
0
 30
0
 70
128
 71
199
 72
449
 73
457
 74
457
 0
VERTEX
 8
CA_ON
 10
0
 20
0
 30
0
 70
128
 71
449
 72
450
 73
458
 74
457
 0
VERTEX
 8
CA_ON
 10
0
 20
0
 30
0
 70
128
 71
450
 72
451
 73
459
 74
458
 0
VERTEX
 8
CA_ON
 10
0
 20
0
 30
0
 70
128
 71
451
 72
452
 73
460
 74
459
 0
VERTEX
 8
CA_ON
 10
0
 20
0
 30
0
 70
128
 71
452
 72
453
 73
461
 74
460
 0
VERTEX
 8
CA_ON
 10
0
 20
0
 30
0
 70
128
 71
453
 72
454
 73
462
 74
461
 0
VERTEX
 8
CA_ON
 10
0
 20
0
 30
0
 70
128
 71
454
 72
455
 73
463
 74
462
 0
VERTEX
 8
CA_ON
 10
0
 20
0
 30
0
 70
128
 71
455
 72
456
 73
464
 74
463
 0
VERTEX
 8
CA_ON
 10
0
 20
0
 30
0
 70
128
 71
456
 72
200
 73
464
 74
464
 0
VERTEX
 8
CA_ON
 10
0
 20
0
 30
0
 70
128
 71
199
 72
457
 73
465
 74
465
 0
VERTEX
 8
CA_ON
 10
0
 20
0
 30
0
 70
128
 71
457
 72
458
 73
466
 74
465
 0
VERTEX
 8
CA_ON
 10
0
 20
0
 30
0
 70
128
 71
458
 72
459
 73
467
 74
466
 0
VERTEX
 8
CA_ON
 10
0
 20
0
 30
0
 70
128
 71
459
 72
460
 73
468
 74
467
 0
VERTEX
 8
CA_ON
 10
0
 20
0
 30
0
 70
128
 71
460
 72
461
 73
469
 74
468
 0
VERTEX
 8
CA_ON
 10
0
 20
0
 30
0
 70
128
 71
461
 72
462
 73
470
 74
469
 0
VERTEX
 8
CA_ON
 10
0
 20
0
 30
0
 70
128
 71
462
 72
463
 73
471
 74
470
 0
VERTEX
 8
CA_ON
 10
0
 20
0
 30
0
 70
128
 71
463
 72
464
 73
472
 74
471
 0
VERTEX
 8
CA_ON
 10
0
 20
0
 30
0
 70
128
 71
464
 72
200
 73
472
 74
472
 0
VERTEX
 8
CA_ON
 10
0
 20
0
 30
0
 70
128
 71
199
 72
465
 73
473
 74
473
 0
VERTEX
 8
CA_ON
 10
0
 20
0
 30
0
 70
128
 71
465
 72
466
 73
474
 74
473
 0
VERTEX
 8
CA_ON
 10
0
 20
0
 30
0
 70
128
 71
466
 72
467
 73
475
 74
474
 0
VERTEX
 8
CA_ON
 10
0
 20
0
 30
0
 70
128
 71
467
 72
468
 73
476
 74
475
 0
VERTEX
 8
CA_ON
 10
0
 20
0
 30
0
 70
128
 71
468
 72
469
 73
477
 74
476
 0
VERTEX
 8
CA_ON
 10
0
 20
0
 30
0
 70
128
 71
469
 72
470
 73
478
 74
477
 0
VERTEX
 8
CA_ON
 10
0
 20
0
 30
0
 70
128
 71
470
 72
471
 73
479
 74
478
 0
VERTEX
 8
CA_ON
 10
0
 20
0
 30
0
 70
128
 71
471
 72
472
 73
480
 74
479
 0
VERTEX
 8
CA_ON
 10
0
 20
0
 30
0
 70
128
 71
472
 72
200
 73
480
 74
480
 0
VERTEX
 8
CA_ON
 10
0
 20
0
 30
0
 70
128
 71
199
 72
473
 73
481
 74
481
 0
VERTEX
 8
CA_ON
 10
0
 20
0
 30
0
 70
128
 71
473
 72
474
 73
482
 74
481
 0
VERTEX
 8
CA_ON
 10
0
 20
0
 30
0
 70
128
 71
474
 72
475
 73
483
 74
482
 0
VERTEX
 8
CA_ON
 10
0
 20
0
 30
0
 70
128
 71
475
 72
476
 73
484
 74
483
 0
VERTEX
 8
CA_ON
 10
0
 20
0
 30
0
 70
128
 71
476
 72
477
 73
485
 74
484
 0
VERTEX
 8
CA_ON
 10
0
 20
0
 30
0
 70
128
 71
477
 72
478
 73
486
 74
485
 0
VERTEX
 8
CA_ON
 10
0
 20
0
 30
0
 70
128
 71
478
 72
479
 73
487
 74
486
 0
VERTEX
 8
CA_ON
 10
0
 20
0
 30
0
 70
128
 71
479
 72
480
 73
488
 74
487
 0
VERTEX
 8
CA_ON
 10
0
 20
0
 30
0
 70
128
 71
480
 72
200
 73
488
 74
488
 0
VERTEX
 8
CA_ON
 10
0
 20
0
 30
0
 70
128
 71
199
 72
481
 73
201
 74
201
 0
VERTEX
 8
CA_ON
 10
0
 20
0
 30
0
 70
128
 71
481
 72
482
 73
202
 74
201
 0
VERTEX
 8
CA_ON
 10
0
 20
0
 30
0
 70
128
 71
482
 72
483
 73
203
 74
202
 0
VERTEX
 8
CA_ON
 10
0
 20
0
 30
0
 70
128
 71
483
 72
484
 73
204
 74
203
 0
VERTEX
 8
CA_ON
 10
0
 20
0
 30
0
 70
128
 71
484
 72
485
 73
205
 74
204
 0
VERTEX
 8
CA_ON
 10
0
 20
0
 30
0
 70
128
 71
485
 72
486
 73
206
 74
205
 0
VERTEX
 8
CA_ON
 10
0
 20
0
 30
0
 70
128
 71
486
 72
487
 73
207
 74
206
 0
VERTEX
 8
CA_ON
 10
0
 20
0
 30
0
 70
128
 71
487
 72
488
 73
208
 74
207
 0
VERTEX
 8
CA_ON
 10
0
 20
0
 30
0
 70
128
 71
488
 72
200
 73
208
 74
208
 0
VERTEX
 8
CA_ON
 10
0
 20
0
 30
0
 70
128
 71
492
 72
489
 73
493
 74
496
 0
VERTEX
 8
CA_ON
 10
0
 20
0
 30
0
 70
128
 71
489
 72
490
 73
494
 74
493
 0
VERTEX
 8
CA_ON
 10
0
 20
0
 30
0
 70
128
 71
490
 72
491
 73
495
 74
494
 0
VERTEX
 8
CA_ON
 10
0
 20
0
 30
0
 70
128
 71
491
 72
492
 73
496
 74
495
 0
VERTEX
 8
CA_ON
 10
0
 20
0
 30
0
 70
128
 71
496
 72
493
 73
498
 74
497
 0
VERTEX
 8
CA_ON
 10
0
 20
0
 30
0
 70
128
 71
493
 72
494
 73
499
 74
498
 0
VERTEX
 8
CA_ON
 10
0
 20
0
 30
0
 70
128
 71
494
 72
495
 73
500
 74
499
 0
VERTEX
 8
CA_ON
 10
0
 20
0
 30
0
 70
128
 71
495
 72
496
 73
497
 74
500
 0
VERTEX
 8
CA_ON
 10
0
 20
0
 30
0
 70
128
 71
497
 72
498
 73
502
 74
501
 0
VERTEX
 8
CA_ON
 10
0
 20
0
 30
0
 70
128
 71
498
 72
499
 73
503
 74
502
 0
VERTEX
 8
CA_ON
 10
0
 20
0
 30
0
 70
128
 71
499
 72
500
 73
504
 74
503
 0
VERTEX
 8
CA_ON
 10
0
 20
0
 30
0
 70
128
 71
500
 72
497
 73
501
 74
504
 0
VERTEX
 8
CA_ON
 10
0
 20
0
 30
0
 70
128
 71
501
 72
502
 73
505
 74
508
 0
VERTEX
 8
CA_ON
 10
0
 20
0
 30
0
 70
128
 71
502
 72
503
 73
506
 74
505
 0
VERTEX
 8
CA_ON
 10
0
 20
0
 30
0
 70
128
 71
503
 72
504
 73
507
 74
506
 0
VERTEX
 8
CA_ON
 10
0
 20
0
 30
0
 70
128
 71
504
 72
501
 73
508
 74
507
 0
VERTEX
 8
CA_ON
 10
0
 20
0
 30
0
 70
128
 71
508
 72
505
 73
510
 74
509
 0
VERTEX
 8
CA_ON
 10
0
 20
0
 30
0
 70
128
 71
505
 72
506
 73
511
 74
510
 0
VERTEX
 8
CA_ON
 10
0
 20
0
 30
0
 70
128
 71
506
 72
507
 73
512
 74
511
 0
VERTEX
 8
CA_ON
 10
0
 20
0
 30
0
 70
128
 71
507
 72
508
 73
509
 74
512
 0
VERTEX
 8
CA_ON
 10
0
 20
0
 30
0
 70
128
 71
509
 72
510
 73
514
 74
513
 0
VERTEX
 8
CA_ON
 10
0
 20
0
 30
0
 70
128
 71
510
 72
511
 73
515
 74
514
 0
VERTEX
 8
CA_ON
 10
0
 20
0
 30
0
 70
128
 71
511
 72
512
 73
516
 74
515
 0
VERTEX
 8
CA_ON
 10
0
 20
0
 30
0
 70
128
 71
512
 72
509
 73
513
 74
516
 0
VERTEX
 8
CA_ON
 10
0
 20
0
 30
0
 70
128
 71
513
 72
514
 73
518
 74
517
 0
VERTEX
 8
CA_ON
 10
0
 20
0
 30
0
 70
128
 71
514
 72
515
 73
519
 74
518
 0
VERTEX
 8
CA_ON
 10
0
 20
0
 30
0
 70
128
 71
515
 72
516
 73
520
 74
519
 0
VERTEX
 8
CA_ON
 10
0
 20
0
 30
0
 70
128
 71
516
 72
513
 73
517
 74
520
 0
VERTEX
 8
CA_ON
 10
0
 20
0
 30
0
 70
128
 71
517
 72
518
 73
521
 74
524
 0
VERTEX
 8
CA_ON
 10
0
 20
0
 30
0
 70
128
 71
518
 72
519
 73
522
 74
521
 0
VERTEX
 8
CA_ON
 10
0
 20
0
 30
0
 70
128
 71
519
 72
520
 73
523
 74
522
 0
VERTEX
 8
CA_ON
 10
0
 20
0
 30
0
 70
128
 71
520
 72
517
 73
524
 74
523
 0
VERTEX
 8
CA_ON
 10
0
 20
0
 30
0
 70
128
 71
524
 72
521
 73
526
 74
525
 0
VERTEX
 8
CA_ON
 10
0
 20
0
 30
0
 70
128
 71
521
 72
522
 73
527
 74
526
 0
VERTEX
 8
CA_ON
 10
0
 20
0
 30
0
 70
128
 71
522
 72
523
 73
528
 74
527
 0
VERTEX
 8
CA_ON
 10
0
 20
0
 30
0
 70
128
 71
523
 72
524
 73
525
 74
528
 0
VERTEX
 8
CA_ON
 10
0
 20
0
 30
0
 70
128
 71
525
 72
526
 73
530
 74
529
 0
VERTEX
 8
CA_ON
 10
0
 20
0
 30
0
 70
128
 71
526
 72
527
 73
531
 74
530
 0
VERTEX
 8
CA_ON
 10
0
 20
0
 30
0
 70
128
 71
527
 72
528
 73
532
 74
531
 0
VERTEX
 8
CA_ON
 10
0
 20
0
 30
0
 70
128
 71
528
 72
525
 73
529
 74
532
 0
VERTEX
 8
CA_ON
 10
0
 20
0
 30
0
 70
128
 71
529
 72
530
 73
534
 74
533
 0
VERTEX
 8
CA_ON
 10
0
 20
0
 30
0
 70
128
 71
530
 72
531
 73
535
 74
534
 0
VERTEX
 8
CA_ON
 10
0
 20
0
 30
0
 70
128
 71
531
 72
532
 73
536
 74
535
 0
VERTEX
 8
CA_ON
 10
0
 20
0
 30
0
 70
128
 71
532
 72
529
 73
533
 74
536
 0
VERTEX
 8
CA_ON
 10
0
 20
0
 30
0
 70
128
 71
533
 72
534
 73
538
 74
537
 0
VERTEX
 8
CA_ON
 10
0
 20
0
 30
0
 70
128
 71
534
 72
535
 73
539
 74
538
 0
VERTEX
 8
CA_ON
 10
0
 20
0
 30
0
 70
128
 71
535
 72
536
 73
540
 74
539
 0
VERTEX
 8
CA_ON
 10
0
 20
0
 30
0
 70
128
 71
536
 72
533
 73
537
 74
540
 0
VERTEX
 8
CA_ON
 10
0
 20
0
 30
0
 70
128
 71
537
 72
538
 73
542
 74
541
 0
VERTEX
 8
CA_ON
 10
0
 20
0
 30
0
 70
128
 71
538
 72
539
 73
543
 74
542
 0
VERTEX
 8
CA_ON
 10
0
 20
0
 30
0
 70
128
 71
539
 72
540
 73
544
 74
543
 0
VERTEX
 8
CA_ON
 10
0
 20
0
 30
0
 70
128
 71
540
 72
537
 73
541
 74
544
 0
VERTEX
 8
CA_ON
 10
0
 20
0
 30
0
 70
128
 71
541
 72
542
 73
545
 74
548
 0
VERTEX
 8
CA_ON
 10
0
 20
0
 30
0
 70
128
 71
542
 72
543
 73
546
 74
545
 0
VERTEX
 8
CA_ON
 10
0
 20
0
 30
0
 70
128
 71
543
 72
544
 73
547
 74
546
 0
VERTEX
 8
CA_ON
 10
0
 20
0
 30
0
 70
128
 71
544
 72
541
 73
548
 74
547
 0
VERTEX
 8
CA_ON
 10
0
 20
0
 30
0
 70
128
 71
548
 72
545
 73
549
 74
552
 0
VERTEX
 8
CA_ON
 10
0
 20
0
 30
0
 70
128
 71
545
 72
546
 73
550
 74
549
 0
VERTEX
 8
CA_ON
 10
0
 20
0
 30
0
 70
128
 71
546
 72
547
 73
551
 74
550
 0
VERTEX
 8
CA_ON
 10
0
 20
0
 30
0
 70
128
 71
547
 72
548
 73
552
 74
551
 0
VERTEX
 8
CA_ON
 10
0
 20
0
 30
0
 70
128
 71
552
 72
549
 73
553
 74
556
 0
VERTEX
 8
CA_ON
 10
0
 20
0
 30
0
 70
128
 71
549
 72
550
 73
554
 74
553
 0
VERTEX
 8
CA_ON
 10
0
 20
0
 30
0
 70
128
 71
550
 72
551
 73
555
 74
554
 0
VERTEX
 8
CA_ON
 10
0
 20
0
 30
0
 70
128
 71
551
 72
552
 73
556
 74
555
 0
VERTEX
 8
CA_ON
 10
0
 20
0
 30
0
 70
128
 71
556
 72
553
 73
557
 74
560
 0
VERTEX
 8
CA_ON
 10
0
 20
0
 30
0
 70
128
 71
553
 72
554
 73
558
 74
557
 0
VERTEX
 8
CA_ON
 10
0
 20
0
 30
0
 70
128
 71
554
 72
555
 73
559
 74
558
 0
VERTEX
 8
CA_ON
 10
0
 20
0
 30
0
 70
128
 71
555
 72
556
 73
560
 74
559
 0
VERTEX
 8
CA_ON
 10
0
 20
0
 30
0
 70
128
 71
560
 72
557
 73
561
 74
564
 0
VERTEX
 8
CA_ON
 10
0
 20
0
 30
0
 70
128
 71
557
 72
558
 73
562
 74
561
 0
VERTEX
 8
CA_ON
 10
0
 20
0
 30
0
 70
128
 71
558
 72
559
 73
563
 74
562
 0
VERTEX
 8
CA_ON
 10
0
 20
0
 30
0
 70
128
 71
559
 72
560
 73
564
 74
563
 0
VERTEX
 8
CA_ON
 10
0
 20
0
 30
0
 70
128
 71
564
 72
561
 73
566
 74
565
 0
VERTEX
 8
CA_ON
 10
0
 20
0
 30
0
 70
128
 71
561
 72
562
 73
567
 74
566
 0
VERTEX
 8
CA_ON
 10
0
 20
0
 30
0
 70
128
 71
562
 72
563
 73
568
 74
567
 0
VERTEX
 8
CA_ON
 10
0
 20
0
 30
0
 70
128
 71
563
 72
564
 73
565
 74
568
 0
VERTEX
 8
CA_ON
 10
0
 20
0
 30
0
 70
128
 71
565
 72
566
 73
569
 74
572
 0
VERTEX
 8
CA_ON
 10
0
 20
0
 30
0
 70
128
 71
566
 72
567
 73
570
 74
569
 0
VERTEX
 8
CA_ON
 10
0
 20
0
 30
0
 70
128
 71
567
 72
568
 73
571
 74
570
 0
VERTEX
 8
CA_ON
 10
0
 20
0
 30
0
 70
128
 71
568
 72
565
 73
572
 74
571
 0
VERTEX
 8
CA_ON
 10
0
 20
0
 30
0
 70
128
 71
572
 72
569
 73
573
 74
576
 0
VERTEX
 8
CA_ON
 10
0
 20
0
 30
0
 70
128
 71
569
 72
570
 73
574
 74
573
 0
VERTEX
 8
CA_ON
 10
0
 20
0
 30
0
 70
128
 71
570
 72
571
 73
575
 74
574
 0
VERTEX
 8
CA_ON
 10
0
 20
0
 30
0
 70
128
 71
571
 72
572
 73
576
 74
575
 0
VERTEX
 8
CA_ON
 10
0
 20
0
 30
0
 70
128
 71
576
 72
573
 73
577
 74
580
 0
VERTEX
 8
CA_ON
 10
0
 20
0
 30
0
 70
128
 71
573
 72
574
 73
578
 74
577
 0
VERTEX
 8
CA_ON
 10
0
 20
0
 30
0
 70
128
 71
574
 72
575
 73
579
 74
578
 0
VERTEX
 8
CA_ON
 10
0
 20
0
 30
0
 70
128
 71
575
 72
576
 73
580
 74
579
 0
VERTEX
 8
CA_ON
 10
0
 20
0
 30
0
 70
128
 71
580
 72
577
 73
581
 74
584
 0
VERTEX
 8
CA_ON
 10
0
 20
0
 30
0
 70
128
 71
577
 72
578
 73
582
 74
581
 0
VERTEX
 8
CA_ON
 10
0
 20
0
 30
0
 70
128
 71
578
 72
579
 73
583
 74
582
 0
VERTEX
 8
CA_ON
 10
0
 20
0
 30
0
 70
128
 71
579
 72
580
 73
584
 74
583
 0
VERTEX
 8
CA_ON
 10
0
 20
0
 30
0
 70
128
 71
584
 72
581
 73
586
 74
585
 0
VERTEX
 8
CA_ON
 10
0
 20
0
 30
0
 70
128
 71
581
 72
582
 73
587
 74
586
 0
VERTEX
 8
CA_ON
 10
0
 20
0
 30
0
 70
128
 71
582
 72
583
 73
588
 74
587
 0
VERTEX
 8
CA_ON
 10
0
 20
0
 30
0
 70
128
 71
583
 72
584
 73
585
 74
588
 0
VERTEX
 8
CA_ON
 10
0
 20
0
 30
0
 70
128
 71
585
 72
586
 73
589
 74
592
 0
VERTEX
 8
CA_ON
 10
0
 20
0
 30
0
 70
128
 71
586
 72
587
 73
590
 74
589
 0
VERTEX
 8
CA_ON
 10
0
 20
0
 30
0
 70
128
 71
587
 72
588
 73
591
 74
590
 0
VERTEX
 8
CA_ON
 10
0
 20
0
 30
0
 70
128
 71
588
 72
585
 73
592
 74
591
 0
VERTEX
 8
CA_ON
 10
0
 20
0
 30
0
 70
128
 71
592
 72
589
 73
594
 74
593
 0
VERTEX
 8
CA_ON
 10
0
 20
0
 30
0
 70
128
 71
589
 72
590
 73
595
 74
594
 0
VERTEX
 8
CA_ON
 10
0
 20
0
 30
0
 70
128
 71
590
 72
591
 73
596
 74
595
 0
VERTEX
 8
CA_ON
 10
0
 20
0
 30
0
 70
128
 71
591
 72
592
 73
593
 74
596
 0
VERTEX
 8
CA_ON
 10
0
 20
0
 30
0
 70
128
 71
593
 72
594
 73
598
 74
597
 0
VERTEX
 8
CA_ON
 10
0
 20
0
 30
0
 70
128
 71
594
 72
595
 73
599
 74
598
 0
VERTEX
 8
CA_ON
 10
0
 20
0
 30
0
 70
128
 71
595
 72
596
 73
600
 74
599
 0
VERTEX
 8
CA_ON
 10
0
 20
0
 30
0
 70
128
 71
596
 72
593
 73
597
 74
600
 0
VERTEX
 8
CA_ON
 10
0
 20
0
 30
0
 70
128
 71
597
 72
598
 73
601
 74
604
 0
VERTEX
 8
CA_ON
 10
0
 20
0
 30
0
 70
128
 71
598
 72
599
 73
602
 74
601
 0
VERTEX
 8
CA_ON
 10
0
 20
0
 30
0
 70
128
 71
599
 72
600
 73
603
 74
602
 0
VERTEX
 8
CA_ON
 10
0
 20
0
 30
0
 70
128
 71
600
 72
597
 73
604
 74
603
 0
VERTEX
 8
CA_ON
 10
0
 20
0
 30
0
 70
128
 71
604
 72
601
 73
605
 74
608
 0
VERTEX
 8
CA_ON
 10
0
 20
0
 30
0
 70
128
 71
601
 72
602
 73
606
 74
605
 0
VERTEX
 8
CA_ON
 10
0
 20
0
 30
0
 70
128
 71
602
 72
603
 73
607
 74
606
 0
VERTEX
 8
CA_ON
 10
0
 20
0
 30
0
 70
128
 71
603
 72
604
 73
608
 74
607
 0
VERTEX
 8
CA_ON
 10
0
 20
0
 30
0
 70
128
 71
608
 72
605
 73
610
 74
609
 0
VERTEX
 8
CA_ON
 10
0
 20
0
 30
0
 70
128
 71
605
 72
606
 73
611
 74
610
 0
VERTEX
 8
CA_ON
 10
0
 20
0
 30
0
 70
128
 71
606
 72
607
 73
612
 74
611
 0
VERTEX
 8
CA_ON
 10
0
 20
0
 30
0
 70
128
 71
607
 72
608
 73
609
 74
612
 0
VERTEX
 8
CA_ON
 10
0
 20
0
 30
0
 70
128
 71
609
 72
610
 73
613
 74
616
 0
VERTEX
 8
CA_ON
 10
0
 20
0
 30
0
 70
128
 71
610
 72
611
 73
614
 74
613
 0
VERTEX
 8
CA_ON
 10
0
 20
0
 30
0
 70
128
 71
611
 72
612
 73
615
 74
614
 0
VERTEX
 8
CA_ON
 10
0
 20
0
 30
0
 70
128
 71
612
 72
609
 73
616
 74
615
 0
VERTEX
 8
CA_ON
 10
0
 20
0
 30
0
 70
128
 71
616
 72
613
 73
617
 74
620
 0
VERTEX
 8
CA_ON
 10
0
 20
0
 30
0
 70
128
 71
613
 72
614
 73
618
 74
617
 0
VERTEX
 8
CA_ON
 10
0
 20
0
 30
0
 70
128
 71
614
 72
615
 73
619
 74
618
 0
VERTEX
 8
CA_ON
 10
0
 20
0
 30
0
 70
128
 71
615
 72
616
 73
620
 74
619
 0
VERTEX
 8
CA_ON
 10
0
 20
0
 30
0
 70
128
 71
620
 72
617
 73
622
 74
621
 0
VERTEX
 8
CA_ON
 10
0
 20
0
 30
0
 70
128
 71
617
 72
618
 73
623
 74
622
 0
VERTEX
 8
CA_ON
 10
0
 20
0
 30
0
 70
128
 71
618
 72
619
 73
624
 74
623
 0
VERTEX
 8
CA_ON
 10
0
 20
0
 30
0
 70
128
 71
619
 72
620
 73
621
 74
624
 0
VERTEX
 8
CA_ON
 10
0
 20
0
 30
0
 70
128
 71
621
 72
622
 73
625
 74
628
 0
VERTEX
 8
CA_ON
 10
0
 20
0
 30
0
 70
128
 71
622
 72
623
 73
626
 74
625
 0
VERTEX
 8
CA_ON
 10
0
 20
0
 30
0
 70
128
 71
623
 72
624
 73
627
 74
626
 0
VERTEX
 8
CA_ON
 10
0
 20
0
 30
0
 70
128
 71
624
 72
621
 73
628
 74
627
 0
VERTEX
 8
CA_ON
 10
0
 20
0
 30
0
 70
128
 71
628
 72
625
 73
629
 74
632
 0
VERTEX
 8
CA_ON
 10
0
 20
0
 30
0
 70
128
 71
625
 72
626
 73
630
 74
629
 0
VERTEX
 8
CA_ON
 10
0
 20
0
 30
0
 70
128
 71
626
 72
627
 73
631
 74
630
 0
VERTEX
 8
CA_ON
 10
0
 20
0
 30
0
 70
128
 71
627
 72
628
 73
632
 74
631
 0
VERTEX
 8
CA_ON
 10
0
 20
0
 30
0
 70
128
 71
632
 72
629
 73
489
 74
492
 0
VERTEX
 8
CA_ON
 10
0
 20
0
 30
0
 70
128
 71
629
 72
630
 73
490
 74
489
 0
VERTEX
 8
CA_ON
 10
0
 20
0
 30
0
 70
128
 71
630
 72
631
 73
491
 74
490
 0
VERTEX
 8
CA_ON
 10
0
 20
0
 30
0
 70
128
 71
631
 72
632
 73
492
 74
491
 0
VERTEX
 8
CA_ON
 10
0
 20
0
 30
0
 70
128
 71
633
 72
634
 73
635
 74
636
 0
VERTEX
 8
CA_ON
 10
0
 20
0
 30
0
 70
128
 71
637
 72
635
 73
634
 74
634
 0
VERTEX
 8
CA_ON
 10
0
 20
0
 30
0
 70
128
 71
637
 72
636
 73
635
 74
635
 0
VERTEX
 8
CA_ON
 10
0
 20
0
 30
0
 70
128
 71
637
 72
633
 73
636
 74
636
 0
VERTEX
 8
CA_ON
 10
0
 20
0
 30
0
 70
128
 71
637
 72
634
 73
633
 74
633
 0
VERTEX
 8
CA_ON
 10
0
 20
0
 30
0
 70
128
 71
638
 72
639
 73
640
 74
640
 0
VERTEX
 8
CA_ON
 10
0
 20
0
 30
0
 70
128
 71
824
 72
640
 73
639
 74
823
 0
VERTEX
 8
CA_ON
 10
0
 20
0
 30
0
 70
128
 71
638
 72
640
 73
641
 74
641
 0
VERTEX
 8
CA_ON
 10
0
 20
0
 30
0
 70
128
 71
825
 72
641
 73
640
 74
824
 0
VERTEX
 8
CA_ON
 10
0
 20
0
 30
0
 70
128
 71
638
 72
641
 73
642
 74
642
 0
VERTEX
 8
CA_ON
 10
0
 20
0
 30
0
 70
128
 71
826
 72
642
 73
641
 74
825
 0
VERTEX
 8
CA_ON
 10
0
 20
0
 30
0
 70
128
 71
638
 72
642
 73
643
 74
643
 0
VERTEX
 8
CA_ON
 10
0
 20
0
 30
0
 70
128
 71
827
 72
643
 73
642
 74
826
 0
VERTEX
 8
CA_ON
 10
0
 20
0
 30
0
 70
128
 71
638
 72
643
 73
644
 74
644
 0
VERTEX
 8
CA_ON
 10
0
 20
0
 30
0
 70
128
 71
828
 72
644
 73
643
 74
827
 0
VERTEX
 8
CA_ON
 10
0
 20
0
 30
0
 70
128
 71
638
 72
644
 73
645
 74
645
 0
VERTEX
 8
CA_ON
 10
0
 20
0
 30
0
 70
128
 71
829
 72
645
 73
644
 74
828
 0
VERTEX
 8
CA_ON
 10
0
 20
0
 30
0
 70
128
 71
638
 72
645
 73
646
 74
646
 0
VERTEX
 8
CA_ON
 10
0
 20
0
 30
0
 70
128
 71
830
 72
646
 73
645
 74
829
 0
VERTEX
 8
CA_ON
 10
0
 20
0
 30
0
 70
128
 71
638
 72
646
 73
647
 74
647
 0
VERTEX
 8
CA_ON
 10
0
 20
0
 30
0
 70
128
 71
831
 72
647
 73
646
 74
830
 0
VERTEX
 8
CA_ON
 10
0
 20
0
 30
0
 70
128
 71
638
 72
647
 73
648
 74
648
 0
VERTEX
 8
CA_ON
 10
0
 20
0
 30
0
 70
128
 71
832
 72
648
 73
647
 74
831
 0
VERTEX
 8
CA_ON
 10
0
 20
0
 30
0
 70
128
 71
638
 72
648
 73
649
 74
649
 0
VERTEX
 8
CA_ON
 10
0
 20
0
 30
0
 70
128
 71
833
 72
649
 73
648
 74
832
 0
VERTEX
 8
CA_ON
 10
0
 20
0
 30
0
 70
128
 71
638
 72
649
 73
650
 74
650
 0
VERTEX
 8
CA_ON
 10
0
 20
0
 30
0
 70
128
 71
834
 72
650
 73
649
 74
833
 0
VERTEX
 8
CA_ON
 10
0
 20
0
 30
0
 70
128
 71
638
 72
650
 73
651
 74
651
 0
VERTEX
 8
CA_ON
 10
0
 20
0
 30
0
 70
128
 71
835
 72
651
 73
650
 74
834
 0
VERTEX
 8
CA_ON
 10
0
 20
0
 30
0
 70
128
 71
638
 72
651
 73
652
 74
652
 0
VERTEX
 8
CA_ON
 10
0
 20
0
 30
0
 70
128
 71
836
 72
652
 73
651
 74
835
 0
VERTEX
 8
CA_ON
 10
0
 20
0
 30
0
 70
128
 71
638
 72
652
 73
653
 74
653
 0
VERTEX
 8
CA_ON
 10
0
 20
0
 30
0
 70
128
 71
837
 72
653
 73
652
 74
836
 0
VERTEX
 8
CA_ON
 10
0
 20
0
 30
0
 70
128
 71
638
 72
653
 73
654
 74
654
 0
VERTEX
 8
CA_ON
 10
0
 20
0
 30
0
 70
128
 71
838
 72
654
 73
653
 74
837
 0
VERTEX
 8
CA_ON
 10
0
 20
0
 30
0
 70
128
 71
638
 72
654
 73
655
 74
655
 0
VERTEX
 8
CA_ON
 10
0
 20
0
 30
0
 70
128
 71
839
 72
655
 73
654
 74
838
 0
VERTEX
 8
CA_ON
 10
0
 20
0
 30
0
 70
128
 71
638
 72
655
 73
656
 74
656
 0
VERTEX
 8
CA_ON
 10
0
 20
0
 30
0
 70
128
 71
840
 72
656
 73
655
 74
839
 0
VERTEX
 8
CA_ON
 10
0
 20
0
 30
0
 70
128
 71
638
 72
656
 73
657
 74
657
 0
VERTEX
 8
CA_ON
 10
0
 20
0
 30
0
 70
128
 71
841
 72
657
 73
656
 74
840
 0
VERTEX
 8
CA_ON
 10
0
 20
0
 30
0
 70
128
 71
638
 72
657
 73
658
 74
658
 0
VERTEX
 8
CA_ON
 10
0
 20
0
 30
0
 70
128
 71
842
 72
658
 73
657
 74
841
 0
VERTEX
 8
CA_ON
 10
0
 20
0
 30
0
 70
128
 71
638
 72
658
 73
659
 74
659
 0
VERTEX
 8
CA_ON
 10
0
 20
0
 30
0
 70
128
 71
843
 72
659
 73
658
 74
842
 0
VERTEX
 8
CA_ON
 10
0
 20
0
 30
0
 70
128
 71
638
 72
659
 73
660
 74
660
 0
VERTEX
 8
CA_ON
 10
0
 20
0
 30
0
 70
128
 71
844
 72
660
 73
659
 74
843
 0
VERTEX
 8
CA_ON
 10
0
 20
0
 30
0
 70
128
 71
638
 72
660
 73
661
 74
661
 0
VERTEX
 8
CA_ON
 10
0
 20
0
 30
0
 70
128
 71
845
 72
661
 73
660
 74
844
 0
VERTEX
 8
CA_ON
 10
0
 20
0
 30
0
 70
128
 71
638
 72
661
 73
662
 74
662
 0
VERTEX
 8
CA_ON
 10
0
 20
0
 30
0
 70
128
 71
846
 72
662
 73
661
 74
845
 0
VERTEX
 8
CA_ON
 10
0
 20
0
 30
0
 70
128
 71
638
 72
662
 73
663
 74
663
 0
VERTEX
 8
CA_ON
 10
0
 20
0
 30
0
 70
128
 71
847
 72
663
 73
662
 74
846
 0
VERTEX
 8
CA_ON
 10
0
 20
0
 30
0
 70
128
 71
638
 72
663
 73
664
 74
664
 0
VERTEX
 8
CA_ON
 10
0
 20
0
 30
0
 70
128
 71
848
 72
664
 73
663
 74
847
 0
VERTEX
 8
CA_ON
 10
0
 20
0
 30
0
 70
128
 71
638
 72
664
 73
665
 74
665
 0
VERTEX
 8
CA_ON
 10
0
 20
0
 30
0
 70
128
 71
849
 72
665
 73
664
 74
848
 0
VERTEX
 8
CA_ON
 10
0
 20
0
 30
0
 70
128
 71
638
 72
665
 73
666
 74
666
 0
VERTEX
 8
CA_ON
 10
0
 20
0
 30
0
 70
128
 71
850
 72
666
 73
665
 74
849
 0
VERTEX
 8
CA_ON
 10
0
 20
0
 30
0
 70
128
 71
638
 72
666
 73
667
 74
667
 0
VERTEX
 8
CA_ON
 10
0
 20
0
 30
0
 70
128
 71
851
 72
667
 73
666
 74
850
 0
VERTEX
 8
CA_ON
 10
0
 20
0
 30
0
 70
128
 71
638
 72
667
 73
668
 74
668
 0
VERTEX
 8
CA_ON
 10
0
 20
0
 30
0
 70
128
 71
852
 72
668
 73
667
 74
851
 0
VERTEX
 8
CA_ON
 10
0
 20
0
 30
0
 70
128
 71
638
 72
668
 73
669
 74
669
 0
VERTEX
 8
CA_ON
 10
0
 20
0
 30
0
 70
128
 71
853
 72
669
 73
668
 74
852
 0
VERTEX
 8
CA_ON
 10
0
 20
0
 30
0
 70
128
 71
638
 72
669
 73
670
 74
670
 0
VERTEX
 8
CA_ON
 10
0
 20
0
 30
0
 70
128
 71
854
 72
670
 73
669
 74
853
 0
VERTEX
 8
CA_ON
 10
0
 20
0
 30
0
 70
128
 71
638
 72
670
 73
671
 74
671
 0
VERTEX
 8
CA_ON
 10
0
 20
0
 30
0
 70
128
 71
855
 72
671
 73
670
 74
854
 0
VERTEX
 8
CA_ON
 10
0
 20
0
 30
0
 70
128
 71
638
 72
671
 73
672
 74
672
 0
VERTEX
 8
CA_ON
 10
0
 20
0
 30
0
 70
128
 71
856
 72
672
 73
671
 74
855
 0
VERTEX
 8
CA_ON
 10
0
 20
0
 30
0
 70
128
 71
638
 72
672
 73
673
 74
673
 0
VERTEX
 8
CA_ON
 10
0
 20
0
 30
0
 70
128
 71
857
 72
673
 73
672
 74
856
 0
VERTEX
 8
CA_ON
 10
0
 20
0
 30
0
 70
128
 71
638
 72
673
 73
674
 74
674
 0
VERTEX
 8
CA_ON
 10
0
 20
0
 30
0
 70
128
 71
858
 72
674
 73
673
 74
857
 0
VERTEX
 8
CA_ON
 10
0
 20
0
 30
0
 70
128
 71
638
 72
674
 73
639
 74
639
 0
VERTEX
 8
CA_ON
 10
0
 20
0
 30
0
 70
128
 71
823
 72
639
 73
674
 74
858
 0
VERTEX
 8
CA_ON
 10
0
 20
0
 30
0
 70
128
 71
675
 72
677
 73
679
 74
679
 0
VERTEX
 8
CA_ON
 10
0
 20
0
 30
0
 70
128
 71
677
 72
678
 73
680
 74
679
 0
VERTEX
 8
CA_ON
 10
0
 20
0
 30
0
 70
128
 71
678
 72
676
 73
680
 74
680
 0
VERTEX
 8
CA_ON
 10
0
 20
0
 30
0
 70
128
 71
675
 72
679
 73
681
 74
681
 0
VERTEX
 8
CA_ON
 10
0
 20
0
 30
0
 70
128
 71
679
 72
680
 73
682
 74
681
 0
VERTEX
 8
CA_ON
 10
0
 20
0
 30
0
 70
128
 71
680
 72
676
 73
682
 74
682
 0
VERTEX
 8
CA_ON
 10
0
 20
0
 30
0
 70
128
 71
675
 72
681
 73
683
 74
683
 0
VERTEX
 8
CA_ON
 10
0
 20
0
 30
0
 70
128
 71
681
 72
682
 73
684
 74
683
 0
VERTEX
 8
CA_ON
 10
0
 20
0
 30
0
 70
128
 71
682
 72
676
 73
684
 74
684
 0
VERTEX
 8
CA_ON
 10
0
 20
0
 30
0
 70
128
 71
675
 72
683
 73
685
 74
685
 0
VERTEX
 8
CA_ON
 10
0
 20
0
 30
0
 70
128
 71
683
 72
684
 73
686
 74
685
 0
VERTEX
 8
CA_ON
 10
0
 20
0
 30
0
 70
128
 71
684
 72
676
 73
686
 74
686
 0
VERTEX
 8
CA_ON
 10
0
 20
0
 30
0
 70
128
 71
675
 72
685
 73
687
 74
687
 0
VERTEX
 8
CA_ON
 10
0
 20
0
 30
0
 70
128
 71
685
 72
686
 73
688
 74
687
 0
VERTEX
 8
CA_ON
 10
0
 20
0
 30
0
 70
128
 71
686
 72
676
 73
688
 74
688
 0
VERTEX
 8
CA_ON
 10
0
 20
0
 30
0
 70
128
 71
675
 72
687
 73
689
 74
689
 0
VERTEX
 8
CA_ON
 10
0
 20
0
 30
0
 70
128
 71
687
 72
688
 73
690
 74
689
 0
VERTEX
 8
CA_ON
 10
0
 20
0
 30
0
 70
128
 71
688
 72
676
 73
690
 74
690
 0
VERTEX
 8
CA_ON
 10
0
 20
0
 30
0
 70
128
 71
675
 72
689
 73
691
 74
691
 0
VERTEX
 8
CA_ON
 10
0
 20
0
 30
0
 70
128
 71
689
 72
690
 73
692
 74
691
 0
VERTEX
 8
CA_ON
 10
0
 20
0
 30
0
 70
128
 71
690
 72
676
 73
692
 74
692
 0
VERTEX
 8
CA_ON
 10
0
 20
0
 30
0
 70
128
 71
675
 72
691
 73
693
 74
693
 0
VERTEX
 8
CA_ON
 10
0
 20
0
 30
0
 70
128
 71
691
 72
692
 73
694
 74
693
 0
VERTEX
 8
CA_ON
 10
0
 20
0
 30
0
 70
128
 71
692
 72
676
 73
694
 74
694
 0
VERTEX
 8
CA_ON
 10
0
 20
0
 30
0
 70
128
 71
675
 72
693
 73
695
 74
695
 0
VERTEX
 8
CA_ON
 10
0
 20
0
 30
0
 70
128
 71
693
 72
694
 73
696
 74
695
 0
VERTEX
 8
CA_ON
 10
0
 20
0
 30
0
 70
128
 71
694
 72
676
 73
696
 74
696
 0
VERTEX
 8
CA_ON
 10
0
 20
0
 30
0
 70
128
 71
675
 72
695
 73
697
 74
697
 0
VERTEX
 8
CA_ON
 10
0
 20
0
 30
0
 70
128
 71
695
 72
696
 73
698
 74
697
 0
VERTEX
 8
CA_ON
 10
0
 20
0
 30
0
 70
128
 71
696
 72
676
 73
698
 74
698
 0
VERTEX
 8
CA_ON
 10
0
 20
0
 30
0
 70
128
 71
675
 72
697
 73
699
 74
699
 0
VERTEX
 8
CA_ON
 10
0
 20
0
 30
0
 70
128
 71
697
 72
698
 73
700
 74
699
 0
VERTEX
 8
CA_ON
 10
0
 20
0
 30
0
 70
128
 71
698
 72
676
 73
700
 74
700
 0
VERTEX
 8
CA_ON
 10
0
 20
0
 30
0
 70
128
 71
675
 72
699
 73
701
 74
701
 0
VERTEX
 8
CA_ON
 10
0
 20
0
 30
0
 70
128
 71
699
 72
700
 73
702
 74
701
 0
VERTEX
 8
CA_ON
 10
0
 20
0
 30
0
 70
128
 71
700
 72
676
 73
702
 74
702
 0
VERTEX
 8
CA_ON
 10
0
 20
0
 30
0
 70
128
 71
675
 72
701
 73
703
 74
703
 0
VERTEX
 8
CA_ON
 10
0
 20
0
 30
0
 70
128
 71
701
 72
702
 73
704
 74
703
 0
VERTEX
 8
CA_ON
 10
0
 20
0
 30
0
 70
128
 71
702
 72
676
 73
704
 74
704
 0
VERTEX
 8
CA_ON
 10
0
 20
0
 30
0
 70
128
 71
675
 72
703
 73
705
 74
705
 0
VERTEX
 8
CA_ON
 10
0
 20
0
 30
0
 70
128
 71
703
 72
704
 73
706
 74
705
 0
VERTEX
 8
CA_ON
 10
0
 20
0
 30
0
 70
128
 71
704
 72
676
 73
706
 74
706
 0
VERTEX
 8
CA_ON
 10
0
 20
0
 30
0
 70
128
 71
675
 72
705
 73
707
 74
707
 0
VERTEX
 8
CA_ON
 10
0
 20
0
 30
0
 70
128
 71
705
 72
706
 73
708
 74
707
 0
VERTEX
 8
CA_ON
 10
0
 20
0
 30
0
 70
128
 71
706
 72
676
 73
708
 74
708
 0
VERTEX
 8
CA_ON
 10
0
 20
0
 30
0
 70
128
 71
675
 72
707
 73
709
 74
709
 0
VERTEX
 8
CA_ON
 10
0
 20
0
 30
0
 70
128
 71
707
 72
708
 73
710
 74
709
 0
VERTEX
 8
CA_ON
 10
0
 20
0
 30
0
 70
128
 71
708
 72
676
 73
710
 74
710
 0
VERTEX
 8
CA_ON
 10
0
 20
0
 30
0
 70
128
 71
675
 72
709
 73
711
 74
711
 0
VERTEX
 8
CA_ON
 10
0
 20
0
 30
0
 70
128
 71
709
 72
710
 73
712
 74
711
 0
VERTEX
 8
CA_ON
 10
0
 20
0
 30
0
 70
128
 71
710
 72
676
 73
712
 74
712
 0
VERTEX
 8
CA_ON
 10
0
 20
0
 30
0
 70
128
 71
675
 72
711
 73
713
 74
713
 0
VERTEX
 8
CA_ON
 10
0
 20
0
 30
0
 70
128
 71
711
 72
712
 73
714
 74
713
 0
VERTEX
 8
CA_ON
 10
0
 20
0
 30
0
 70
128
 71
712
 72
676
 73
714
 74
714
 0
VERTEX
 8
CA_ON
 10
0
 20
0
 30
0
 70
128
 71
675
 72
713
 73
715
 74
715
 0
VERTEX
 8
CA_ON
 10
0
 20
0
 30
0
 70
128
 71
713
 72
714
 73
716
 74
715
 0
VERTEX
 8
CA_ON
 10
0
 20
0
 30
0
 70
128
 71
714
 72
676
 73
716
 74
716
 0
VERTEX
 8
CA_ON
 10
0
 20
0
 30
0
 70
128
 71
675
 72
715
 73
717
 74
717
 0
VERTEX
 8
CA_ON
 10
0
 20
0
 30
0
 70
128
 71
715
 72
716
 73
718
 74
717
 0
VERTEX
 8
CA_ON
 10
0
 20
0
 30
0
 70
128
 71
716
 72
676
 73
718
 74
718
 0
VERTEX
 8
CA_ON
 10
0
 20
0
 30
0
 70
128
 71
675
 72
717
 73
719
 74
719
 0
VERTEX
 8
CA_ON
 10
0
 20
0
 30
0
 70
128
 71
717
 72
718
 73
720
 74
719
 0
VERTEX
 8
CA_ON
 10
0
 20
0
 30
0
 70
128
 71
718
 72
676
 73
720
 74
720
 0
VERTEX
 8
CA_ON
 10
0
 20
0
 30
0
 70
128
 71
675
 72
719
 73
721
 74
721
 0
VERTEX
 8
CA_ON
 10
0
 20
0
 30
0
 70
128
 71
719
 72
720
 73
722
 74
721
 0
VERTEX
 8
CA_ON
 10
0
 20
0
 30
0
 70
128
 71
720
 72
676
 73
722
 74
722
 0
VERTEX
 8
CA_ON
 10
0
 20
0
 30
0
 70
128
 71
675
 72
721
 73
723
 74
723
 0
VERTEX
 8
CA_ON
 10
0
 20
0
 30
0
 70
128
 71
721
 72
722
 73
724
 74
723
 0
VERTEX
 8
CA_ON
 10
0
 20
0
 30
0
 70
128
 71
722
 72
676
 73
724
 74
724
 0
VERTEX
 8
CA_ON
 10
0
 20
0
 30
0
 70
128
 71
675
 72
723
 73
725
 74
725
 0
VERTEX
 8
CA_ON
 10
0
 20
0
 30
0
 70
128
 71
723
 72
724
 73
726
 74
725
 0
VERTEX
 8
CA_ON
 10
0
 20
0
 30
0
 70
128
 71
724
 72
676
 73
726
 74
726
 0
VERTEX
 8
CA_ON
 10
0
 20
0
 30
0
 70
128
 71
675
 72
725
 73
727
 74
727
 0
VERTEX
 8
CA_ON
 10
0
 20
0
 30
0
 70
128
 71
725
 72
726
 73
728
 74
727
 0
VERTEX
 8
CA_ON
 10
0
 20
0
 30
0
 70
128
 71
726
 72
676
 73
728
 74
728
 0
VERTEX
 8
CA_ON
 10
0
 20
0
 30
0
 70
128
 71
675
 72
727
 73
729
 74
729
 0
VERTEX
 8
CA_ON
 10
0
 20
0
 30
0
 70
128
 71
727
 72
728
 73
730
 74
729
 0
VERTEX
 8
CA_ON
 10
0
 20
0
 30
0
 70
128
 71
728
 72
676
 73
730
 74
730
 0
VERTEX
 8
CA_ON
 10
0
 20
0
 30
0
 70
128
 71
675
 72
729
 73
731
 74
731
 0
VERTEX
 8
CA_ON
 10
0
 20
0
 30
0
 70
128
 71
729
 72
730
 73
732
 74
731
 0
VERTEX
 8
CA_ON
 10
0
 20
0
 30
0
 70
128
 71
730
 72
676
 73
732
 74
732
 0
VERTEX
 8
CA_ON
 10
0
 20
0
 30
0
 70
128
 71
675
 72
731
 73
733
 74
733
 0
VERTEX
 8
CA_ON
 10
0
 20
0
 30
0
 70
128
 71
731
 72
732
 73
734
 74
733
 0
VERTEX
 8
CA_ON
 10
0
 20
0
 30
0
 70
128
 71
732
 72
676
 73
734
 74
734
 0
VERTEX
 8
CA_ON
 10
0
 20
0
 30
0
 70
128
 71
675
 72
733
 73
735
 74
735
 0
VERTEX
 8
CA_ON
 10
0
 20
0
 30
0
 70
128
 71
733
 72
734
 73
736
 74
735
 0
VERTEX
 8
CA_ON
 10
0
 20
0
 30
0
 70
128
 71
734
 72
676
 73
736
 74
736
 0
VERTEX
 8
CA_ON
 10
0
 20
0
 30
0
 70
128
 71
675
 72
735
 73
737
 74
737
 0
VERTEX
 8
CA_ON
 10
0
 20
0
 30
0
 70
128
 71
735
 72
736
 73
738
 74
737
 0
VERTEX
 8
CA_ON
 10
0
 20
0
 30
0
 70
128
 71
736
 72
676
 73
738
 74
738
 0
VERTEX
 8
CA_ON
 10
0
 20
0
 30
0
 70
128
 71
675
 72
737
 73
739
 74
739
 0
VERTEX
 8
CA_ON
 10
0
 20
0
 30
0
 70
128
 71
737
 72
738
 73
740
 74
739
 0
VERTEX
 8
CA_ON
 10
0
 20
0
 30
0
 70
128
 71
738
 72
676
 73
740
 74
740
 0
VERTEX
 8
CA_ON
 10
0
 20
0
 30
0
 70
128
 71
675
 72
739
 73
741
 74
741
 0
VERTEX
 8
CA_ON
 10
0
 20
0
 30
0
 70
128
 71
739
 72
740
 73
742
 74
741
 0
VERTEX
 8
CA_ON
 10
0
 20
0
 30
0
 70
128
 71
740
 72
676
 73
742
 74
742
 0
VERTEX
 8
CA_ON
 10
0
 20
0
 30
0
 70
128
 71
675
 72
741
 73
743
 74
743
 0
VERTEX
 8
CA_ON
 10
0
 20
0
 30
0
 70
128
 71
741
 72
742
 73
744
 74
743
 0
VERTEX
 8
CA_ON
 10
0
 20
0
 30
0
 70
128
 71
742
 72
676
 73
744
 74
744
 0
VERTEX
 8
CA_ON
 10
0
 20
0
 30
0
 70
128
 71
675
 72
743
 73
745
 74
745
 0
VERTEX
 8
CA_ON
 10
0
 20
0
 30
0
 70
128
 71
743
 72
744
 73
746
 74
745
 0
VERTEX
 8
CA_ON
 10
0
 20
0
 30
0
 70
128
 71
744
 72
676
 73
746
 74
746
 0
VERTEX
 8
CA_ON
 10
0
 20
0
 30
0
 70
128
 71
675
 72
745
 73
747
 74
747
 0
VERTEX
 8
CA_ON
 10
0
 20
0
 30
0
 70
128
 71
745
 72
746
 73
748
 74
747
 0
VERTEX
 8
CA_ON
 10
0
 20
0
 30
0
 70
128
 71
746
 72
676
 73
748
 74
748
 0
VERTEX
 8
CA_ON
 10
0
 20
0
 30
0
 70
128
 71
675
 72
747
 73
677
 74
677
 0
VERTEX
 8
CA_ON
 10
0
 20
0
 30
0
 70
128
 71
747
 72
748
 73
678
 74
677
 0
VERTEX
 8
CA_ON
 10
0
 20
0
 30
0
 70
128
 71
748
 72
676
 73
678
 74
678
 0
VERTEX
 8
CA_ON
 10
0
 20
0
 30
0
 70
128
 71
749
 72
751
 73
753
 74
753
 0
VERTEX
 8
CA_ON
 10
0
 20
0
 30
0
 70
128
 71
751
 72
752
 73
754
 74
753
 0
VERTEX
 8
CA_ON
 10
0
 20
0
 30
0
 70
128
 71
752
 72
750
 73
754
 74
754
 0
VERTEX
 8
CA_ON
 10
0
 20
0
 30
0
 70
128
 71
749
 72
753
 73
755
 74
755
 0
VERTEX
 8
CA_ON
 10
0
 20
0
 30
0
 70
128
 71
753
 72
754
 73
756
 74
755
 0
VERTEX
 8
CA_ON
 10
0
 20
0
 30
0
 70
128
 71
754
 72
750
 73
756
 74
756
 0
VERTEX
 8
CA_ON
 10
0
 20
0
 30
0
 70
128
 71
749
 72
755
 73
757
 74
757
 0
VERTEX
 8
CA_ON
 10
0
 20
0
 30
0
 70
128
 71
755
 72
756
 73
758
 74
757
 0
VERTEX
 8
CA_ON
 10
0
 20
0
 30
0
 70
128
 71
756
 72
750
 73
758
 74
758
 0
VERTEX
 8
CA_ON
 10
0
 20
0
 30
0
 70
128
 71
749
 72
757
 73
759
 74
759
 0
VERTEX
 8
CA_ON
 10
0
 20
0
 30
0
 70
128
 71
757
 72
758
 73
760
 74
759
 0
VERTEX
 8
CA_ON
 10
0
 20
0
 30
0
 70
128
 71
758
 72
750
 73
760
 74
760
 0
VERTEX
 8
CA_ON
 10
0
 20
0
 30
0
 70
128
 71
749
 72
759
 73
761
 74
761
 0
VERTEX
 8
CA_ON
 10
0
 20
0
 30
0
 70
128
 71
759
 72
760
 73
762
 74
761
 0
VERTEX
 8
CA_ON
 10
0
 20
0
 30
0
 70
128
 71
760
 72
750
 73
762
 74
762
 0
VERTEX
 8
CA_ON
 10
0
 20
0
 30
0
 70
128
 71
749
 72
761
 73
763
 74
763
 0
VERTEX
 8
CA_ON
 10
0
 20
0
 30
0
 70
128
 71
761
 72
762
 73
764
 74
763
 0
VERTEX
 8
CA_ON
 10
0
 20
0
 30
0
 70
128
 71
762
 72
750
 73
764
 74
764
 0
VERTEX
 8
CA_ON
 10
0
 20
0
 30
0
 70
128
 71
749
 72
763
 73
765
 74
765
 0
VERTEX
 8
CA_ON
 10
0
 20
0
 30
0
 70
128
 71
763
 72
764
 73
766
 74
765
 0
VERTEX
 8
CA_ON
 10
0
 20
0
 30
0
 70
128
 71
764
 72
750
 73
766
 74
766
 0
VERTEX
 8
CA_ON
 10
0
 20
0
 30
0
 70
128
 71
749
 72
765
 73
767
 74
767
 0
VERTEX
 8
CA_ON
 10
0
 20
0
 30
0
 70
128
 71
765
 72
766
 73
768
 74
767
 0
VERTEX
 8
CA_ON
 10
0
 20
0
 30
0
 70
128
 71
766
 72
750
 73
768
 74
768
 0
VERTEX
 8
CA_ON
 10
0
 20
0
 30
0
 70
128
 71
749
 72
767
 73
769
 74
769
 0
VERTEX
 8
CA_ON
 10
0
 20
0
 30
0
 70
128
 71
767
 72
768
 73
770
 74
769
 0
VERTEX
 8
CA_ON
 10
0
 20
0
 30
0
 70
128
 71
768
 72
750
 73
770
 74
770
 0
VERTEX
 8
CA_ON
 10
0
 20
0
 30
0
 70
128
 71
749
 72
769
 73
771
 74
771
 0
VERTEX
 8
CA_ON
 10
0
 20
0
 30
0
 70
128
 71
769
 72
770
 73
772
 74
771
 0
VERTEX
 8
CA_ON
 10
0
 20
0
 30
0
 70
128
 71
770
 72
750
 73
772
 74
772
 0
VERTEX
 8
CA_ON
 10
0
 20
0
 30
0
 70
128
 71
749
 72
771
 73
773
 74
773
 0
VERTEX
 8
CA_ON
 10
0
 20
0
 30
0
 70
128
 71
771
 72
772
 73
774
 74
773
 0
VERTEX
 8
CA_ON
 10
0
 20
0
 30
0
 70
128
 71
772
 72
750
 73
774
 74
774
 0
VERTEX
 8
CA_ON
 10
0
 20
0
 30
0
 70
128
 71
749
 72
773
 73
775
 74
775
 0
VERTEX
 8
CA_ON
 10
0
 20
0
 30
0
 70
128
 71
773
 72
774
 73
776
 74
775
 0
VERTEX
 8
CA_ON
 10
0
 20
0
 30
0
 70
128
 71
774
 72
750
 73
776
 74
776
 0
VERTEX
 8
CA_ON
 10
0
 20
0
 30
0
 70
128
 71
749
 72
775
 73
777
 74
777
 0
VERTEX
 8
CA_ON
 10
0
 20
0
 30
0
 70
128
 71
775
 72
776
 73
778
 74
777
 0
VERTEX
 8
CA_ON
 10
0
 20
0
 30
0
 70
128
 71
776
 72
750
 73
778
 74
778
 0
VERTEX
 8
CA_ON
 10
0
 20
0
 30
0
 70
128
 71
749
 72
777
 73
779
 74
779
 0
VERTEX
 8
CA_ON
 10
0
 20
0
 30
0
 70
128
 71
777
 72
778
 73
780
 74
779
 0
VERTEX
 8
CA_ON
 10
0
 20
0
 30
0
 70
128
 71
778
 72
750
 73
780
 74
780
 0
VERTEX
 8
CA_ON
 10
0
 20
0
 30
0
 70
128
 71
749
 72
779
 73
781
 74
781
 0
VERTEX
 8
CA_ON
 10
0
 20
0
 30
0
 70
128
 71
779
 72
780
 73
782
 74
781
 0
VERTEX
 8
CA_ON
 10
0
 20
0
 30
0
 70
128
 71
780
 72
750
 73
782
 74
782
 0
VERTEX
 8
CA_ON
 10
0
 20
0
 30
0
 70
128
 71
749
 72
781
 73
783
 74
783
 0
VERTEX
 8
CA_ON
 10
0
 20
0
 30
0
 70
128
 71
781
 72
782
 73
784
 74
783
 0
VERTEX
 8
CA_ON
 10
0
 20
0
 30
0
 70
128
 71
782
 72
750
 73
784
 74
784
 0
VERTEX
 8
CA_ON
 10
0
 20
0
 30
0
 70
128
 71
749
 72
783
 73
785
 74
785
 0
VERTEX
 8
CA_ON
 10
0
 20
0
 30
0
 70
128
 71
783
 72
784
 73
786
 74
785
 0
VERTEX
 8
CA_ON
 10
0
 20
0
 30
0
 70
128
 71
784
 72
750
 73
786
 74
786
 0
VERTEX
 8
CA_ON
 10
0
 20
0
 30
0
 70
128
 71
749
 72
785
 73
787
 74
787
 0
VERTEX
 8
CA_ON
 10
0
 20
0
 30
0
 70
128
 71
785
 72
786
 73
788
 74
787
 0
VERTEX
 8
CA_ON
 10
0
 20
0
 30
0
 70
128
 71
786
 72
750
 73
788
 74
788
 0
VERTEX
 8
CA_ON
 10
0
 20
0
 30
0
 70
128
 71
749
 72
787
 73
789
 74
789
 0
VERTEX
 8
CA_ON
 10
0
 20
0
 30
0
 70
128
 71
787
 72
788
 73
790
 74
789
 0
VERTEX
 8
CA_ON
 10
0
 20
0
 30
0
 70
128
 71
788
 72
750
 73
790
 74
790
 0
VERTEX
 8
CA_ON
 10
0
 20
0
 30
0
 70
128
 71
749
 72
789
 73
791
 74
791
 0
VERTEX
 8
CA_ON
 10
0
 20
0
 30
0
 70
128
 71
789
 72
790
 73
792
 74
791
 0
VERTEX
 8
CA_ON
 10
0
 20
0
 30
0
 70
128
 71
790
 72
750
 73
792
 74
792
 0
VERTEX
 8
CA_ON
 10
0
 20
0
 30
0
 70
128
 71
749
 72
791
 73
793
 74
793
 0
VERTEX
 8
CA_ON
 10
0
 20
0
 30
0
 70
128
 71
791
 72
792
 73
794
 74
793
 0
VERTEX
 8
CA_ON
 10
0
 20
0
 30
0
 70
128
 71
792
 72
750
 73
794
 74
794
 0
VERTEX
 8
CA_ON
 10
0
 20
0
 30
0
 70
128
 71
749
 72
793
 73
795
 74
795
 0
VERTEX
 8
CA_ON
 10
0
 20
0
 30
0
 70
128
 71
793
 72
794
 73
796
 74
795
 0
VERTEX
 8
CA_ON
 10
0
 20
0
 30
0
 70
128
 71
794
 72
750
 73
796
 74
796
 0
VERTEX
 8
CA_ON
 10
0
 20
0
 30
0
 70
128
 71
749
 72
795
 73
797
 74
797
 0
VERTEX
 8
CA_ON
 10
0
 20
0
 30
0
 70
128
 71
795
 72
796
 73
798
 74
797
 0
VERTEX
 8
CA_ON
 10
0
 20
0
 30
0
 70
128
 71
796
 72
750
 73
798
 74
798
 0
VERTEX
 8
CA_ON
 10
0
 20
0
 30
0
 70
128
 71
749
 72
797
 73
799
 74
799
 0
VERTEX
 8
CA_ON
 10
0
 20
0
 30
0
 70
128
 71
797
 72
798
 73
800
 74
799
 0
VERTEX
 8
CA_ON
 10
0
 20
0
 30
0
 70
128
 71
798
 72
750
 73
800
 74
800
 0
VERTEX
 8
CA_ON
 10
0
 20
0
 30
0
 70
128
 71
749
 72
799
 73
801
 74
801
 0
VERTEX
 8
CA_ON
 10
0
 20
0
 30
0
 70
128
 71
799
 72
800
 73
802
 74
801
 0
VERTEX
 8
CA_ON
 10
0
 20
0
 30
0
 70
128
 71
800
 72
750
 73
802
 74
802
 0
VERTEX
 8
CA_ON
 10
0
 20
0
 30
0
 70
128
 71
749
 72
801
 73
803
 74
803
 0
VERTEX
 8
CA_ON
 10
0
 20
0
 30
0
 70
128
 71
801
 72
802
 73
804
 74
803
 0
VERTEX
 8
CA_ON
 10
0
 20
0
 30
0
 70
128
 71
802
 72
750
 73
804
 74
804
 0
VERTEX
 8
CA_ON
 10
0
 20
0
 30
0
 70
128
 71
749
 72
803
 73
805
 74
805
 0
VERTEX
 8
CA_ON
 10
0
 20
0
 30
0
 70
128
 71
803
 72
804
 73
806
 74
805
 0
VERTEX
 8
CA_ON
 10
0
 20
0
 30
0
 70
128
 71
804
 72
750
 73
806
 74
806
 0
VERTEX
 8
CA_ON
 10
0
 20
0
 30
0
 70
128
 71
749
 72
805
 73
807
 74
807
 0
VERTEX
 8
CA_ON
 10
0
 20
0
 30
0
 70
128
 71
805
 72
806
 73
808
 74
807
 0
VERTEX
 8
CA_ON
 10
0
 20
0
 30
0
 70
128
 71
806
 72
750
 73
808
 74
808
 0
VERTEX
 8
CA_ON
 10
0
 20
0
 30
0
 70
128
 71
749
 72
807
 73
809
 74
809
 0
VERTEX
 8
CA_ON
 10
0
 20
0
 30
0
 70
128
 71
807
 72
808
 73
810
 74
809
 0
VERTEX
 8
CA_ON
 10
0
 20
0
 30
0
 70
128
 71
808
 72
750
 73
810
 74
810
 0
VERTEX
 8
CA_ON
 10
0
 20
0
 30
0
 70
128
 71
749
 72
809
 73
811
 74
811
 0
VERTEX
 8
CA_ON
 10
0
 20
0
 30
0
 70
128
 71
809
 72
810
 73
812
 74
811
 0
VERTEX
 8
CA_ON
 10
0
 20
0
 30
0
 70
128
 71
810
 72
750
 73
812
 74
812
 0
VERTEX
 8
CA_ON
 10
0
 20
0
 30
0
 70
128
 71
749
 72
811
 73
813
 74
813
 0
VERTEX
 8
CA_ON
 10
0
 20
0
 30
0
 70
128
 71
811
 72
812
 73
814
 74
813
 0
VERTEX
 8
CA_ON
 10
0
 20
0
 30
0
 70
128
 71
812
 72
750
 73
814
 74
814
 0
VERTEX
 8
CA_ON
 10
0
 20
0
 30
0
 70
128
 71
749
 72
813
 73
815
 74
815
 0
VERTEX
 8
CA_ON
 10
0
 20
0
 30
0
 70
128
 71
813
 72
814
 73
816
 74
815
 0
VERTEX
 8
CA_ON
 10
0
 20
0
 30
0
 70
128
 71
814
 72
750
 73
816
 74
816
 0
VERTEX
 8
CA_ON
 10
0
 20
0
 30
0
 70
128
 71
749
 72
815
 73
817
 74
817
 0
VERTEX
 8
CA_ON
 10
0
 20
0
 30
0
 70
128
 71
815
 72
816
 73
818
 74
817
 0
VERTEX
 8
CA_ON
 10
0
 20
0
 30
0
 70
128
 71
816
 72
750
 73
818
 74
818
 0
VERTEX
 8
CA_ON
 10
0
 20
0
 30
0
 70
128
 71
749
 72
817
 73
819
 74
819
 0
VERTEX
 8
CA_ON
 10
0
 20
0
 30
0
 70
128
 71
817
 72
818
 73
820
 74
819
 0
VERTEX
 8
CA_ON
 10
0
 20
0
 30
0
 70
128
 71
818
 72
750
 73
820
 74
820
 0
VERTEX
 8
CA_ON
 10
0
 20
0
 30
0
 70
128
 71
749
 72
819
 73
821
 74
821
 0
VERTEX
 8
CA_ON
 10
0
 20
0
 30
0
 70
128
 71
819
 72
820
 73
822
 74
821
 0
VERTEX
 8
CA_ON
 10
0
 20
0
 30
0
 70
128
 71
820
 72
750
 73
822
 74
822
 0
VERTEX
 8
CA_ON
 10
0
 20
0
 30
0
 70
128
 71
749
 72
821
 73
751
 74
751
 0
VERTEX
 8
CA_ON
 10
0
 20
0
 30
0
 70
128
 71
821
 72
822
 73
752
 74
751
 0
VERTEX
 8
CA_ON
 10
0
 20
0
 30
0
 70
128
 71
822
 72
750
 73
752
 74
752
 0
VERTEX
 8
CA_ON
 10
0
 20
0
 30
0
 70
128
 71
894
 72
893
 73
860
 74
859
 0
VERTEX
 8
CA_ON
 10
0
 20
0
 30
0
 70
128
 71
878
 72
877
 73
876
 74
879
 0
VERTEX
 8
CA_ON
 10
0
 20
0
 30
0
 70
128
 71
876
 72
875
 73
892
 74
891
 0
VERTEX
 8
CA_ON
 10
0
 20
0
 30
0
 70
128
 71
884
 72
883
 73
882
 74
885
 0
VERTEX
 8
CA_ON
 10
0
 20
0
 30
0
 70
128
 71
870
 72
869
 73
864
 74
875
 0
VERTEX
 8
CA_ON
 10
0
 20
0
 30
0
 70
128
 71
866
 72
865
 73
864
 74
867
 0
VERTEX
 8
CA_ON
 10
0
 20
0
 30
0
 70
128
 71
888
 72
887
 73
876
 74
891
 0
VERTEX
 8
CA_ON
 10
0
 20
0
 30
0
 70
128
 71
864
 72
863
 73
862
 74
875
 0
VERTEX
 8
CA_ON
 10
0
 20
0
 30
0
 70
128
 71
872
 72
871
 73
870
 74
873
 0
VERTEX
 8
CA_ON
 10
0
 20
0
 30
0
 70
128
 71
862
 72
861
 73
875
 74
875
 0
VERTEX
 8
CA_ON
 10
0
 20
0
 30
0
 70
128
 71
868
 72
867
 73
864
 74
869
 0
VERTEX
 8
CA_ON
 10
0
 20
0
 30
0
 70
128
 71
889
 72
888
 73
891
 74
890
 0
VERTEX
 8
CA_ON
 10
0
 20
0
 30
0
 70
128
 71
885
 72
882
 73
887
 74
886
 0
VERTEX
 8
CA_ON
 10
0
 20
0
 30
0
 70
128
 71
879
 72
876
 73
881
 74
880
 0
VERTEX
 8
CA_ON
 10
0
 20
0
 30
0
 70
128
 71
893
 72
892
 73
875
 74
875
 0
VERTEX
 8
CA_ON
 10
0
 20
0
 30
0
 70
128
 71
873
 72
870
 73
875
 74
874
 0
VERTEX
 8
CA_ON
 10
0
 20
0
 30
0
 70
128
 71
881
 72
876
 73
887
 74
882
 0
VERTEX
 8
CA_ON
 10
0
 20
0
 30
0
 70
128
 71
893
 72
875
 73
861
 74
860
 0
SEQEND
 0
POLYLINE
 8
GATILLO
 66
1
 10
0.0
 20
0.0
 30
0.0
 70
64
 71
8
 72
6
 0
VERTEX
 8
GATILLO
 10
0.529
 20
-0.0128
 30
2.017
 70
192
 0
VERTEX
 8
GATILLO
 10
0.5367
 20
-0.0128
 30
2.0859
 70
192
 0
VERTEX
 8
GATILLO
 10
0.5393
 20
-0.0128
 30
2.0158
 70
192
 0
VERTEX
 8
GATILLO
 10
0.547
 20
-0.0128
 30
2.0848
 70
192
 0
VERTEX
 8
GATILLO
 10
0.5393
 20
0.0128
 30
2.0158
 70
192
 0
VERTEX
 8
GATILLO
 10
0.547
 20
0.0128
 30
2.0848
 70
192
 0
VERTEX
 8
GATILLO
 10
0.529
 20
0.0128
 30
2.017
 70
192
 0
VERTEX
 8
GATILLO
 10
0.5367
 20
0.0128
 30
2.0859
 70
192
 0
VERTEX
 8
GATILLO
 10
0
 20
0
 30
0
 70
128
 71
1
 72
2
 73
4
 74
3
 0
VERTEX
 8
GATILLO
 10
0
 20
0
 30
0
 70
128
 71
3
 72
4
 73
6
 74
5
 0
VERTEX
 8
GATILLO
 10
0
 20
0
 30
0
 70
128
 71
5
 72
6
 73
8
 74
7
 0
VERTEX
 8
GATILLO
 10
0
 20
0
 30
0
 70
128
 71
7
 72
8
 73
2
 74
1
 0
VERTEX
 8
GATILLO
 10
0
 20
0
 30
0
 70
128
 71
2
 72
8
 73
6
 74
4
 0
VERTEX
 8
GATILLO
 10
0
 20
0
 30
0
 70
128
 71
7
 72
1
 73
3
 74
5
 0
SEQEND
 0
POLYLINE
 8
CUERPO.1
 66
1
 10
0.0
 20
0.0
 30
0.0
 70
64
 71
376
 72
289
 0
VERTEX
 8
CUERPO.1
 10
0.7337
 20
0
 30
2.1486
 70
192
 0
VERTEX
 8
CUERPO.1
 10
1.5625
 20
0
 30
1.9826
 70
192
 0
VERTEX
 8
CUERPO.1
 10
0.7344
 20
0
 30
2.1192
 70
192
 0
VERTEX
 8
CUERPO.1
 10
0.7344
 20
0
 30
2.1192
 70
192
 0
VERTEX
 8
CUERPO.1
 10
1.0735
 20
0
 30
2.1171
 70
192
 0
VERTEX
 8
CUERPO.1
 10
1.5399
 20
0
 30
1.958
 70
192
 0
VERTEX
 8
CUERPO.1
 10
1.5399
 20
0
 30
1.958
 70
192
 0
VERTEX
 8
CUERPO.1
 10
0.7344
 20
0.0051
 30
2.1197
 70
192
 0
VERTEX
 8
CUERPO.1
 10
0.7344
 20
0.0051
 30
2.1197
 70
192
 0
VERTEX
 8
CUERPO.1
 10
1.0738
 20
0.0051
 30
2.1175
 70
192
 0
VERTEX
 8
CUERPO.1
 10
1.5401
 20
0.0051
 30
1.9584
 70
192
 0
VERTEX
 8
CUERPO.1
 10
1.5401
 20
0.0051
 30
1.9584
 70
192
 0
VERTEX
 8
CUERPO.1
 10
0.7344
 20
0.0101
 30
2.121
 70
192
 0
VERTEX
 8
CUERPO.1
 10
0.7344
 20
0.0101
 30
2.121
 70
192
 0
VERTEX
 8
CUERPO.1
 10
1.0745
 20
0.0101
 30
2.1187
 70
192
 0
VERTEX
 8
CUERPO.1
 10
1.5409
 20
0.0101
 30
1.9597
 70
192
 0
VERTEX
 8
CUERPO.1
 10
1.5409
 20
0.0101
 30
1.9597
 70
192
 0
VERTEX
 8
CUERPO.1
 10
0.7343
 20
0.0147
 30
2.1232
 70
192
 0
VERTEX
 8
CUERPO.1
 10
0.7343
 20
0.0147
 30
2.1232
 70
192
 0
VERTEX
 8
CUERPO.1
 10
1.0757
 20
0.0147
 30
2.1207
 70
192
 0
VERTEX
 8
CUERPO.1
 10
1.5421
 20
0.0147
 30
1.9616
 70
192
 0
VERTEX
 8
CUERPO.1
 10
1.5421
 20
0.0147
 30
1.9616
 70
192
 0
VERTEX
 8
CUERPO.1
 10
0.7343
 20
0.0189
 30
2.1261
 70
192
 0
VERTEX
 8
CUERPO.1
 10
0.7343
 20
0.0189
 30
2.1261
 70
192
 0
VERTEX
 8
CUERPO.1
 10
1.0773
 20
0.0189
 30
2.1234
 70
192
 0
VERTEX
 8
CUERPO.1
 10
1.5437
 20
0.0189
 30
1.9643
 70
192
 0
VERTEX
 8
CUERPO.1
 10
1.5437
 20
0.0189
 30
1.9643
 70
192
 0
VERTEX
 8
CUERPO.1
 10
0.7342
 20
0.0225
 30
2.1297
 70
192
 0
VERTEX
 8
CUERPO.1
 10
0.7342
 20
0.0225
 30
2.1297
 70
192
 0
VERTEX
 8
CUERPO.1
 10
1.0793
 20
0.0225
 30
2.1267
 70
192
 0
VERTEX
 8
CUERPO.1
 10
1.5457
 20
0.0225
 30
1.9676
 70
192
 0
VERTEX
 8
CUERPO.1
 10
1.5457
 20
0.0225
 30
1.9676
 70
192
 0
VERTEX
 8
CUERPO.1
 10
0.7341
 20
0.0255
 30
2.1339
 70
192
 0
VERTEX
 8
CUERPO.1
 10
0.7341
 20
0.0255
 30
2.1339
 70
192
 0
VERTEX
 8
CUERPO.1
 10
1.0816
 20
0.0255
 30
2.1305
 70
192
 0
VERTEX
 8
CUERPO.1
 10
1.548
 20
0.0255
 30
1.9715
 70
192
 0
VERTEX
 8
CUERPO.1
 10
1.548
 20
0.0255
 30
1.9715
 70
192
 0
VERTEX
 8
CUERPO.1
 10
0.734
 20
0.0276
 30
2.1386
 70
192
 0
VERTEX
 8
CUERPO.1
 10
0.734
 20
0.0276
 30
2.1386
 70
192
 0
VERTEX
 8
CUERPO.1
 10
1.0842
 20
0.0276
 30
2.1348
 70
192
 0
VERTEX
 8
CUERPO.1
 10
1.5505
 20
0.0276
 30
1.9757
 70
192
 0
VERTEX
 8
CUERPO.1
 10
1.5505
 20
0.0276
 30
1.9757
 70
192
 0
VERTEX
 8
CUERPO.1
 10
0.7339
 20
0.029
 30
2.1435
 70
192
 0
VERTEX
 8
CUERPO.1
 10
0.7339
 20
0.029
 30
2.1435
 70
192
 0
VERTEX
 8
CUERPO.1
 10
1.0869
 20
0.029
 30
2.1393
 70
192
 0
VERTEX
 8
CUERPO.1
 10
1.5532
 20
0.029
 30
1.9802
 70
192
 0
VERTEX
 8
CUERPO.1
 10
1.5532
 20
0.029
 30
1.9802
 70
192
 0
VERTEX
 8
CUERPO.1
 10
0.7337
 20
0.0294
 30
2.1486
 70
192
 0
VERTEX
 8
CUERPO.1
 10
0.7337
 20
0.0294
 30
2.1486
 70
192
 0
VERTEX
 8
CUERPO.1
 10
1.0897
 20
0.0294
 30
2.144
 70
192
 0
VERTEX
 8
CUERPO.1
 10
1.556
 20
0.0294
 30
1.9849
 70
192
 0
VERTEX
 8
CUERPO.1
 10
1.556
 20
0.0294
 30
1.9849
 70
192
 0
VERTEX
 8
CUERPO.1
 10
0.7336
 20
0.029
 30
2.1537
 70
192
 0
VERTEX
 8
CUERPO.1
 10
0.7336
 20
0.029
 30
2.1537
 70
192
 0
VERTEX
 8
CUERPO.1
 10
1.0925
 20
0.029
 30
2.1486
 70
192
 0
VERTEX
 8
CUERPO.1
 10
1.5588
 20
0.029
 30
1.9896
 70
192
 0
VERTEX
 8
CUERPO.1
 10
1.5588
 20
0.029
 30
1.9896
 70
192
 0
VERTEX
 8
CUERPO.1
 10
0.7335
 20
0.0276
 30
2.1587
 70
192
 0
VERTEX
 8
CUERPO.1
 10
0.7335
 20
0.0276
 30
2.1587
 70
192
 0
VERTEX
 8
CUERPO.1
 10
1.0952
 20
0.0276
 30
2.1532
 70
192
 0
VERTEX
 8
CUERPO.1
 10
1.5616
 20
0.0276
 30
1.9941
 70
192
 0
VERTEX
 8
CUERPO.1
 10
1.5616
 20
0.0276
 30
1.9941
 70
192
 0
VERTEX
 8
CUERPO.1
 10
0.7334
 20
0.0255
 30
2.1633
 70
192
 0
VERTEX
 8
CUERPO.1
 10
0.7334
 20
0.0255
 30
2.1633
 70
192
 0
VERTEX
 8
CUERPO.1
 10
1.0978
 20
0.0255
 30
2.1574
 70
192
 0
VERTEX
 8
CUERPO.1
 10
1.5629
 20
0.0255
 30
1.9983
 70
192
 0
VERTEX
 8
CUERPO.1
 10
1.5629
 20
0.0255
 30
1.9983
 70
192
 0
VERTEX
 8
CUERPO.1
 10
0.7333
 20
0.0225
 30
2.1675
 70
192
 0
VERTEX
 8
CUERPO.1
 10
0.7333
 20
0.0225
 30
2.1675
 70
192
 0
VERTEX
 8
CUERPO.1
 10
1.1001
 20
0.0225
 30
2.1612
 70
192
 0
VERTEX
 8
CUERPO.1
 10
1.5631
 20
0.0225
 30
2.0028
 70
192
 0
VERTEX
 8
CUERPO.1
 10
1.5631
 20
0.0225
 30
2.0028
 70
192
 0
VERTEX
 8
CUERPO.1
 10
0.7332
 20
0.0189
 30
2.1712
 70
192
 0
VERTEX
 8
CUERPO.1
 10
0.7332
 20
0.0189
 30
2.1712
 70
192
 0
VERTEX
 8
CUERPO.1
 10
1.102
 20
0.0189
 30
2.1646
 70
192
 0
VERTEX
 8
CUERPO.1
 10
1.5632
 20
0.0189
 30
2.0067
 70
192
 0
VERTEX
 8
CUERPO.1
 10
1.5632
 20
0.0189
 30
2.0067
 70
192
 0
VERTEX
 8
CUERPO.1
 10
0.7331
 20
0.0147
 30
2.1741
 70
192
 0
VERTEX
 8
CUERPO.1
 10
0.7331
 20
0.0147
 30
2.1741
 70
192
 0
VERTEX
 8
CUERPO.1
 10
1.1037
 20
0.0147
 30
2.1672
 70
192
 0
VERTEX
 8
CUERPO.1
 10
1.5633
 20
0.0147
 30
2.0098
 70
192
 0
VERTEX
 8
CUERPO.1
 10
1.5633
 20
0.0147
 30
2.0098
 70
192
 0
VERTEX
 8
CUERPO.1
 10
0.7331
 20
0.0101
 30
2.1763
 70
192
 0
VERTEX
 8
CUERPO.1
 10
0.7331
 20
0.0101
 30
2.1763
 70
192
 0
VERTEX
 8
CUERPO.1
 10
1.1048
 20
0.0101
 30
2.1692
 70
192
 0
VERTEX
 8
CUERPO.1
 10
1.5633
 20
0.0101
 30
2.0121
 70
192
 0
VERTEX
 8
CUERPO.1
 10
1.5633
 20
0.0101
 30
2.0121
 70
192
 0
VERTEX
 8
CUERPO.1
 10
0.7331
 20
0.0051
 30
2.1776
 70
192
 0
VERTEX
 8
CUERPO.1
 10
0.7331
 20
0.0051
 30
2.1776
 70
192
 0
VERTEX
 8
CUERPO.1
 10
1.1056
 20
0.0051
 30
2.1704
 70
192
 0
VERTEX
 8
CUERPO.1
 10
1.5634
 20
0.0051
 30
2.0135
 70
192
 0
VERTEX
 8
CUERPO.1
 10
1.5634
 20
0.0051
 30
2.0135
 70
192
 0
VERTEX
 8
CUERPO.1
 10
0.733
 20
0
 30
2.178
 70
192
 0
VERTEX
 8
CUERPO.1
 10
0.733
 20
0
 30
2.178
 70
192
 0
VERTEX
 8
CUERPO.1
 10
1.1058
 20
0
 30
2.1708
 70
192
 0
VERTEX
 8
CUERPO.1
 10
1.5634
 20
0
 30
2.014
 70
192
 0
VERTEX
 8
CUERPO.1
 10
1.5634
 20
0
 30
2.014
 70
192
 0
VERTEX
 8
CUERPO.1
 10
0.7331
 20
-0.0051
 30
2.1776
 70
192
 0
VERTEX
 8
CUERPO.1
 10
0.7331
 20
-0.0051
 30
2.1776
 70
192
 0
VERTEX
 8
CUERPO.1
 10
1.1056
 20
-0.0051
 30
2.1704
 70
192
 0
VERTEX
 8
CUERPO.1
 10
1.5556
 20
-0.0051
 30
2.0135
 70
192
 0
VERTEX
 8
CUERPO.1
 10
1.5634
 20
-0.0051
 30
2.0135
 70
192
 0
VERTEX
 8
CUERPO.1
 10
0.7331
 20
-0.0101
 30
2.1763
 70
192
 0
VERTEX
 8
CUERPO.1
 10
0.7331
 20
-0.0101
 30
2.1763
 70
192
 0
VERTEX
 8
CUERPO.1
 10
1.1048
 20
-0.0101
 30
2.1692
 70
192
 0
VERTEX
 8
CUERPO.1
 10
1.5634
 20
-0.0101
 30
2.0102
 70
192
 0
VERTEX
 8
CUERPO.1
 10
1.5633
 20
-0.0101
 30
2.0121
 70
192
 0
VERTEX
 8
CUERPO.1
 10
0.7331
 20
-0.0147
 30
2.1741
 70
192
 0
VERTEX
 8
CUERPO.1
 10
0.7331
 20
-0.0147
 30
2.1741
 70
192
 0
VERTEX
 8
CUERPO.1
 10
1.1037
 20
-0.0147
 30
2.1672
 70
192
 0
VERTEX
 8
CUERPO.1
 10
1.5622
 20
-0.0147
 30
2.0082
 70
192
 0
VERTEX
 8
CUERPO.1
 10
1.5633
 20
-0.0147
 30
2.0098
 70
192
 0
VERTEX
 8
CUERPO.1
 10
0.7332
 20
-0.0189
 30
2.1712
 70
192
 0
VERTEX
 8
CUERPO.1
 10
0.7332
 20
-0.0189
 30
2.1712
 70
192
 0
VERTEX
 8
CUERPO.1
 10
1.102
 20
-0.0189
 30
2.1646
 70
192
 0
VERTEX
 8
CUERPO.1
 10
1.5606
 20
-0.0189
 30
2.0055
 70
192
 0
VERTEX
 8
CUERPO.1
 10
1.5632
 20
-0.0189
 30
2.0067
 70
192
 0
VERTEX
 8
CUERPO.1
 10
0.7333
 20
-0.0225
 30
2.1675
 70
192
 0
VERTEX
 8
CUERPO.1
 10
0.7333
 20
-0.0225
 30
2.1675
 70
192
 0
VERTEX
 8
CUERPO.1
 10
1.1001
 20
-0.0225
 30
2.1612
 70
192
 0
VERTEX
 8
CUERPO.1
 10
1.5552
 20
-0.0225
 30
2.0028
 70
192
 0
VERTEX
 8
CUERPO.1
 10
1.5631
 20
-0.0225
 30
2.0028
 70
192
 0
VERTEX
 8
CUERPO.1
 10
0.7334
 20
-0.0255
 30
2.1633
 70
192
 0
VERTEX
 8
CUERPO.1
 10
0.7334
 20
-0.0255
 30
2.1633
 70
192
 0
VERTEX
 8
CUERPO.1
 10
1.0978
 20
-0.0255
 30
2.1574
 70
192
 0
VERTEX
 8
CUERPO.1
 10
1.5629
 20
-0.0255
 30
1.9983
 70
192
 0
VERTEX
 8
CUERPO.1
 10
1.5629
 20
-0.0255
 30
1.9983
 70
192
 0
VERTEX
 8
CUERPO.1
 10
0.7335
 20
-0.0276
 30
2.1587
 70
192
 0
VERTEX
 8
CUERPO.1
 10
0.7335
 20
-0.0276
 30
2.1587
 70
192
 0
VERTEX
 8
CUERPO.1
 10
1.0952
 20
-0.0276
 30
2.1532
 70
192
 0
VERTEX
 8
CUERPO.1
 10
1.5616
 20
-0.0276
 30
1.9941
 70
192
 0
VERTEX
 8
CUERPO.1
 10
1.5628
 20
-0.0276
 30
1.9934
 70
192
 0
VERTEX
 8
CUERPO.1
 10
0.7336
 20
-0.029
 30
2.1537
 70
192
 0
VERTEX
 8
CUERPO.1
 10
0.7336
 20
-0.029
 30
2.1537
 70
192
 0
VERTEX
 8
CUERPO.1
 10
1.0925
 20
-0.029
 30
2.1486
 70
192
 0
VERTEX
 8
CUERPO.1
 10
1.5588
 20
-0.029
 30
1.9896
 70
192
 0
VERTEX
 8
CUERPO.1
 10
1.5588
 20
-0.029
 30
1.9896
 70
192
 0
VERTEX
 8
CUERPO.1
 10
0.7337
 20
-0.0294
 30
2.1486
 70
192
 0
VERTEX
 8
CUERPO.1
 10
0.7337
 20
-0.0294
 30
2.1486
 70
192
 0
VERTEX
 8
CUERPO.1
 10
1.0897
 20
-0.0294
 30
2.144
 70
192
 0
VERTEX
 8
CUERPO.1
 10
1.556
 20
-0.0294
 30
1.9849
 70
192
 0
VERTEX
 8
CUERPO.1
 10
1.556
 20
-0.0294
 30
1.9849
 70
192
 0
VERTEX
 8
CUERPO.1
 10
0.7339
 20
-0.029
 30
2.1435
 70
192
 0
VERTEX
 8
CUERPO.1
 10
0.7339
 20
-0.029
 30
2.1435
 70
192
 0
VERTEX
 8
CUERPO.1
 10
1.0869
 20
-0.029
 30
2.1393
 70
192
 0
VERTEX
 8
CUERPO.1
 10
1.5532
 20
-0.029
 30
1.9802
 70
192
 0
VERTEX
 8
CUERPO.1
 10
1.5532
 20
-0.029
 30
1.9802
 70
192
 0
VERTEX
 8
CUERPO.1
 10
0.734
 20
-0.0276
 30
2.1386
 70
192
 0
VERTEX
 8
CUERPO.1
 10
0.734
 20
-0.0276
 30
2.1386
 70
192
 0
VERTEX
 8
CUERPO.1
 10
1.0842
 20
-0.0276
 30
2.1348
 70
192
 0
VERTEX
 8
CUERPO.1
 10
1.5505
 20
-0.0276
 30
1.9757
 70
192
 0
VERTEX
 8
CUERPO.1
 10
1.5505
 20
-0.0276
 30
1.9757
 70
192
 0
VERTEX
 8
CUERPO.1
 10
0.7341
 20
-0.0255
 30
2.1339
 70
192
 0
VERTEX
 8
CUERPO.1
 10
0.7341
 20
-0.0255
 30
2.1339
 70
192
 0
VERTEX
 8
CUERPO.1
 10
1.0816
 20
-0.0255
 30
2.1305
 70
192
 0
VERTEX
 8
CUERPO.1
 10
1.548
 20
-0.0255
 30
1.9715
 70
192
 0
VERTEX
 8
CUERPO.1
 10
1.548
 20
-0.0255
 30
1.9715
 70
192
 0
VERTEX
 8
CUERPO.1
 10
0.7342
 20
-0.0225
 30
2.1297
 70
192
 0
VERTEX
 8
CUERPO.1
 10
0.7342
 20
-0.0225
 30
2.1297
 70
192
 0
VERTEX
 8
CUERPO.1
 10
1.0793
 20
-0.0225
 30
2.1267
 70
192
 0
VERTEX
 8
CUERPO.1
 10
1.5457
 20
-0.0225
 30
1.9676
 70
192
 0
VERTEX
 8
CUERPO.1
 10
1.5457
 20
-0.0225
 30
1.9676
 70
192
 0
VERTEX
 8
CUERPO.1
 10
0.7343
 20
-0.0189
 30
2.1261
 70
192
 0
VERTEX
 8
CUERPO.1
 10
0.7343
 20
-0.0189
 30
2.1261
 70
192
 0
VERTEX
 8
CUERPO.1
 10
1.0773
 20
-0.0189
 30
2.1234
 70
192
 0
VERTEX
 8
CUERPO.1
 10
1.5437
 20
-0.0189
 30
1.9643
 70
192
 0
VERTEX
 8
CUERPO.1
 10
1.5437
 20
-0.0189
 30
1.9643
 70
192
 0
VERTEX
 8
CUERPO.1
 10
0.7343
 20
-0.0147
 30
2.1232
 70
192
 0
VERTEX
 8
CUERPO.1
 10
0.7343
 20
-0.0147
 30
2.1232
 70
192
 0
VERTEX
 8
CUERPO.1
 10
1.0757
 20
-0.0147
 30
2.1207
 70
192
 0
VERTEX
 8
CUERPO.1
 10
1.5421
 20
-0.0147
 30
1.9616
 70
192
 0
VERTEX
 8
CUERPO.1
 10
1.5421
 20
-0.0147
 30
1.9616
 70
192
 0
VERTEX
 8
CUERPO.1
 10
0.7344
 20
-0.0101
 30
2.121
 70
192
 0
VERTEX
 8
CUERPO.1
 10
0.7344
 20
-0.0101
 30
2.121
 70
192
 0
VERTEX
 8
CUERPO.1
 10
1.0745
 20
-0.0101
 30
2.1187
 70
192
 0
VERTEX
 8
CUERPO.1
 10
1.5409
 20
-0.0101
 30
1.9597
 70
192
 0
VERTEX
 8
CUERPO.1
 10
1.5409
 20
-0.0101
 30
1.9597
 70
192
 0
VERTEX
 8
CUERPO.1
 10
0.7344
 20
-0.0051
 30
2.1197
 70
192
 0
VERTEX
 8
CUERPO.1
 10
0.7344
 20
-0.0051
 30
2.1197
 70
192
 0
VERTEX
 8
CUERPO.1
 10
1.0738
 20
-0.0051
 30
2.1175
 70
192
 0
VERTEX
 8
CUERPO.1
 10
1.5401
 20
-0.0051
 30
1.9584
 70
192
 0
VERTEX
 8
CUERPO.1
 10
1.5401
 20
-0.0051
 30
1.9584
 70
192
 0
VERTEX
 8
CUERPO.1
 10
1.5362
 20
-0.045
 30
1.9234
 70
192
 0
VERTEX
 8
CUERPO.1
 10
1.5362
 20
-0.045
 30
2.2824
 70
192
 0
VERTEX
 8
CUERPO.1
 10
1.5709
 20
-0.045
 30
1.9234
 70
192
 0
VERTEX
 8
CUERPO.1
 10
1.5709
 20
-0.045
 30
2.2824
 70
192
 0
VERTEX
 8
CUERPO.1
 10
1.5709
 20
0.045
 30
1.9234
 70
192
 0
VERTEX
 8
CUERPO.1
 10
1.5709
 20
0.045
 30
2.2824
 70
192
 0
VERTEX
 8
CUERPO.1
 10
1.5362
 20
0.045
 30
1.9234
 70
192
 0
VERTEX
 8
CUERPO.1
 10
1.5362
 20
0.045
 30
2.2824
 70
192
 0
VERTEX
 8
CUERPO.1
 10
0.7934
 20
-0.0006
 30
2.2276
 70
192
 0
VERTEX
 8
CUERPO.1
 10
1.5447
 20
-0.0006
 30
2.2276
 70
192
 0
VERTEX
 8
CUERPO.1
 10
0.7934
 20
-0.0006
 30
2.1989
 70
192
 0
VERTEX
 8
CUERPO.1
 10
0.7934
 20
-0.0006
 30
2.1989
 70
192
 0
VERTEX
 8
CUERPO.1
 10
1.5447
 20
-0.0006
 30
2.1989
 70
192
 0
VERTEX
 8
CUERPO.1
 10
1.5447
 20
-0.0006
 30
2.1989
 70
192
 0
VERTEX
 8
CUERPO.1
 10
0.7934
 20
0.0044
 30
2.1994
 70
192
 0
VERTEX
 8
CUERPO.1
 10
0.7934
 20
0.0044
 30
2.1994
 70
192
 0
VERTEX
 8
CUERPO.1
 10
1.5447
 20
0.0044
 30
2.1994
 70
192
 0
VERTEX
 8
CUERPO.1
 10
1.5447
 20
0.0044
 30
2.1994
 70
192
 0
VERTEX
 8
CUERPO.1
 10
0.7934
 20
0.0092
 30
2.2007
 70
192
 0
VERTEX
 8
CUERPO.1
 10
0.7934
 20
0.0092
 30
2.2007
 70
192
 0
VERTEX
 8
CUERPO.1
 10
1.5447
 20
0.0092
 30
2.2007
 70
192
 0
VERTEX
 8
CUERPO.1
 10
1.5447
 20
0.0092
 30
2.2007
 70
192
 0
VERTEX
 8
CUERPO.1
 10
0.7934
 20
0.0137
 30
2.2028
 70
192
 0
VERTEX
 8
CUERPO.1
 10
0.7934
 20
0.0137
 30
2.2028
 70
192
 0
VERTEX
 8
CUERPO.1
 10
1.5447
 20
0.0137
 30
2.2028
 70
192
 0
VERTEX
 8
CUERPO.1
 10
1.5447
 20
0.0137
 30
2.2028
 70
192
 0
VERTEX
 8
CUERPO.1
 10
0.7934
 20
0.0178
 30
2.2056
 70
192
 0
VERTEX
 8
CUERPO.1
 10
0.7934
 20
0.0178
 30
2.2056
 70
192
 0
VERTEX
 8
CUERPO.1
 10
1.5447
 20
0.0178
 30
2.2056
 70
192
 0
VERTEX
 8
CUERPO.1
 10
1.5447
 20
0.0178
 30
2.2056
 70
192
 0
VERTEX
 8
CUERPO.1
 10
0.7934
 20
0.0214
 30
2.2092
 70
192
 0
VERTEX
 8
CUERPO.1
 10
0.7934
 20
0.0214
 30
2.2092
 70
192
 0
VERTEX
 8
CUERPO.1
 10
1.5447
 20
0.0214
 30
2.2092
 70
192
 0
VERTEX
 8
CUERPO.1
 10
1.5447
 20
0.0214
 30
2.2092
 70
192
 0
VERTEX
 8
CUERPO.1
 10
0.7934
 20
0.0242
 30
2.2133
 70
192
 0
VERTEX
 8
CUERPO.1
 10
0.7934
 20
0.0242
 30
2.2133
 70
192
 0
VERTEX
 8
CUERPO.1
 10
1.5447
 20
0.0242
 30
2.2133
 70
192
 0
VERTEX
 8
CUERPO.1
 10
1.5447
 20
0.0242
 30
2.2133
 70
192
 0
VERTEX
 8
CUERPO.1
 10
0.7934
 20
0.0263
 30
2.2178
 70
192
 0
VERTEX
 8
CUERPO.1
 10
0.7934
 20
0.0263
 30
2.2178
 70
192
 0
VERTEX
 8
CUERPO.1
 10
1.5447
 20
0.0263
 30
2.2178
 70
192
 0
VERTEX
 8
CUERPO.1
 10
1.5447
 20
0.0263
 30
2.2178
 70
192
 0
VERTEX
 8
CUERPO.1
 10
0.7934
 20
0.0276
 30
2.2226
 70
192
 0
VERTEX
 8
CUERPO.1
 10
0.7934
 20
0.0276
 30
2.2226
 70
192
 0
VERTEX
 8
CUERPO.1
 10
1.5447
 20
0.0276
 30
2.2226
 70
192
 0
VERTEX
 8
CUERPO.1
 10
1.5447
 20
0.0276
 30
2.2226
 70
192
 0
VERTEX
 8
CUERPO.1
 10
0.7934
 20
0.0281
 30
2.2276
 70
192
 0
VERTEX
 8
CUERPO.1
 10
0.7934
 20
0.0281
 30
2.2276
 70
192
 0
VERTEX
 8
CUERPO.1
 10
1.5447
 20
0.0281
 30
2.2276
 70
192
 0
VERTEX
 8
CUERPO.1
 10
1.5447
 20
0.0281
 30
2.2276
 70
192
 0
VERTEX
 8
CUERPO.1
 10
0.7934
 20
0.0276
 30
2.2326
 70
192
 0
VERTEX
 8
CUERPO.1
 10
0.7934
 20
0.0276
 30
2.2326
 70
192
 0
VERTEX
 8
CUERPO.1
 10
1.5447
 20
0.0276
 30
2.2326
 70
192
 0
VERTEX
 8
CUERPO.1
 10
1.5447
 20
0.0276
 30
2.2326
 70
192
 0
VERTEX
 8
CUERPO.1
 10
0.7934
 20
0.0263
 30
2.2374
 70
192
 0
VERTEX
 8
CUERPO.1
 10
0.7934
 20
0.0263
 30
2.2374
 70
192
 0
VERTEX
 8
CUERPO.1
 10
1.5447
 20
0.0263
 30
2.2374
 70
192
 0
VERTEX
 8
CUERPO.1
 10
1.5447
 20
0.0263
 30
2.2374
 70
192
 0
VERTEX
 8
CUERPO.1
 10
0.7934
 20
0.0242
 30
2.2419
 70
192
 0
VERTEX
 8
CUERPO.1
 10
0.7934
 20
0.0242
 30
2.2419
 70
192
 0
VERTEX
 8
CUERPO.1
 10
1.5447
 20
0.0242
 30
2.2419
 70
192
 0
VERTEX
 8
CUERPO.1
 10
1.5447
 20
0.0242
 30
2.2419
 70
192
 0
VERTEX
 8
CUERPO.1
 10
0.7934
 20
0.0214
 30
2.246
 70
192
 0
VERTEX
 8
CUERPO.1
 10
0.7934
 20
0.0214
 30
2.246
 70
192
 0
VERTEX
 8
CUERPO.1
 10
1.5447
 20
0.0214
 30
2.246
 70
192
 0
VERTEX
 8
CUERPO.1
 10
1.5447
 20
0.0214
 30
2.246
 70
192
 0
VERTEX
 8
CUERPO.1
 10
0.7934
 20
0.0178
 30
2.2496
 70
192
 0
VERTEX
 8
CUERPO.1
 10
0.7934
 20
0.0178
 30
2.2496
 70
192
 0
VERTEX
 8
CUERPO.1
 10
1.5447
 20
0.0178
 30
2.2496
 70
192
 0
VERTEX
 8
CUERPO.1
 10
1.5447
 20
0.0178
 30
2.2496
 70
192
 0
VERTEX
 8
CUERPO.1
 10
0.7934
 20
0.0137
 30
2.2524
 70
192
 0
VERTEX
 8
CUERPO.1
 10
0.7934
 20
0.0137
 30
2.2524
 70
192
 0
VERTEX
 8
CUERPO.1
 10
1.5447
 20
0.0137
 30
2.2524
 70
192
 0
VERTEX
 8
CUERPO.1
 10
1.5447
 20
0.0137
 30
2.2524
 70
192
 0
VERTEX
 8
CUERPO.1
 10
0.7934
 20
0.0092
 30
2.2545
 70
192
 0
VERTEX
 8
CUERPO.1
 10
0.7934
 20
0.0092
 30
2.2545
 70
192
 0
VERTEX
 8
CUERPO.1
 10
1.5447
 20
0.0092
 30
2.2545
 70
192
 0
VERTEX
 8
CUERPO.1
 10
1.5447
 20
0.0092
 30
2.2545
 70
192
 0
VERTEX
 8
CUERPO.1
 10
0.7934
 20
0.0044
 30
2.2558
 70
192
 0
VERTEX
 8
CUERPO.1
 10
0.7934
 20
0.0044
 30
2.2558
 70
192
 0
VERTEX
 8
CUERPO.1
 10
1.5447
 20
0.0044
 30
2.2558
 70
192
 0
VERTEX
 8
CUERPO.1
 10
1.5447
 20
0.0044
 30
2.2558
 70
192
 0
VERTEX
 8
CUERPO.1
 10
0.7934
 20
-0.0006
 30
2.2563
 70
192
 0
VERTEX
 8
CUERPO.1
 10
0.7934
 20
-0.0006
 30
2.2563
 70
192
 0
VERTEX
 8
CUERPO.1
 10
1.5447
 20
-0.0006
 30
2.2563
 70
192
 0
VERTEX
 8
CUERPO.1
 10
1.5447
 20
-0.0006
 30
2.2563
 70
192
 0
VERTEX
 8
CUERPO.1
 10
0.7934
 20
-0.0056
 30
2.2558
 70
192
 0
VERTEX
 8
CUERPO.1
 10
0.7934
 20
-0.0056
 30
2.2558
 70
192
 0
VERTEX
 8
CUERPO.1
 10
1.5447
 20
-0.0056
 30
2.2558
 70
192
 0
VERTEX
 8
CUERPO.1
 10
1.5447
 20
-0.0056
 30
2.2558
 70
192
 0
VERTEX
 8
CUERPO.1
 10
0.7934
 20
-0.0104
 30
2.2545
 70
192
 0
VERTEX
 8
CUERPO.1
 10
0.7934
 20
-0.0104
 30
2.2545
 70
192
 0
VERTEX
 8
CUERPO.1
 10
1.5447
 20
-0.0104
 30
2.2545
 70
192
 0
VERTEX
 8
CUERPO.1
 10
1.5447
 20
-0.0104
 30
2.2545
 70
192
 0
VERTEX
 8
CUERPO.1
 10
0.7934
 20
-0.0149
 30
2.2524
 70
192
 0
VERTEX
 8
CUERPO.1
 10
0.7934
 20
-0.0149
 30
2.2524
 70
192
 0
VERTEX
 8
CUERPO.1
 10
1.5447
 20
-0.0149
 30
2.2524
 70
192
 0
VERTEX
 8
CUERPO.1
 10
1.5447
 20
-0.0149
 30
2.2524
 70
192
 0
VERTEX
 8
CUERPO.1
 10
0.7934
 20
-0.019
 30
2.2496
 70
192
 0
VERTEX
 8
CUERPO.1
 10
0.7934
 20
-0.019
 30
2.2496
 70
192
 0
VERTEX
 8
CUERPO.1
 10
1.5447
 20
-0.019
 30
2.2496
 70
192
 0
VERTEX
 8
CUERPO.1
 10
1.5447
 20
-0.019
 30
2.2496
 70
192
 0
VERTEX
 8
CUERPO.1
 10
0.7934
 20
-0.0226
 30
2.246
 70
192
 0
VERTEX
 8
CUERPO.1
 10
0.7934
 20
-0.0226
 30
2.246
 70
192
 0
VERTEX
 8
CUERPO.1
 10
1.5447
 20
-0.0226
 30
2.246
 70
192
 0
VERTEX
 8
CUERPO.1
 10
1.5447
 20
-0.0226
 30
2.246
 70
192
 0
VERTEX
 8
CUERPO.1
 10
0.7934
 20
-0.0254
 30
2.2419
 70
192
 0
VERTEX
 8
CUERPO.1
 10
0.7934
 20
-0.0254
 30
2.2419
 70
192
 0
VERTEX
 8
CUERPO.1
 10
1.5447
 20
-0.0254
 30
2.2419
 70
192
 0
VERTEX
 8
CUERPO.1
 10
1.5447
 20
-0.0254
 30
2.2419
 70
192
 0
VERTEX
 8
CUERPO.1
 10
0.7934
 20
-0.0275
 30
2.2374
 70
192
 0
VERTEX
 8
CUERPO.1
 10
0.7934
 20
-0.0275
 30
2.2374
 70
192
 0
VERTEX
 8
CUERPO.1
 10
1.5447
 20
-0.0275
 30
2.2374
 70
192
 0
VERTEX
 8
CUERPO.1
 10
1.5447
 20
-0.0275
 30
2.2374
 70
192
 0
VERTEX
 8
CUERPO.1
 10
0.7934
 20
-0.0288
 30
2.2326
 70
192
 0
VERTEX
 8
CUERPO.1
 10
0.7934
 20
-0.0288
 30
2.2326
 70
192
 0
VERTEX
 8
CUERPO.1
 10
1.5447
 20
-0.0288
 30
2.2326
 70
192
 0
VERTEX
 8
CUERPO.1
 10
1.5447
 20
-0.0288
 30
2.2326
 70
192
 0
VERTEX
 8
CUERPO.1
 10
0.7934
 20
-0.0293
 30
2.2276
 70
192
 0
VERTEX
 8
CUERPO.1
 10
0.7934
 20
-0.0293
 30
2.2276
 70
192
 0
VERTEX
 8
CUERPO.1
 10
1.5447
 20
-0.0293
 30
2.2276
 70
192
 0
VERTEX
 8
CUERPO.1
 10
1.5447
 20
-0.0293
 30
2.2276
 70
192
 0
VERTEX
 8
CUERPO.1
 10
0.7934
 20
-0.0288
 30
2.2226
 70
192
 0
VERTEX
 8
CUERPO.1
 10
0.7934
 20
-0.0288
 30
2.2226
 70
192
 0
VERTEX
 8
CUERPO.1
 10
1.5447
 20
-0.0288
 30
2.2226
 70
192
 0
VERTEX
 8
CUERPO.1
 10
1.5447
 20
-0.0288
 30
2.2226
 70
192
 0
VERTEX
 8
CUERPO.1
 10
0.7934
 20
-0.0275
 30
2.2178
 70
192
 0
VERTEX
 8
CUERPO.1
 10
0.7934
 20
-0.0275
 30
2.2178
 70
192
 0
VERTEX
 8
CUERPO.1
 10
1.5447
 20
-0.0275
 30
2.2178
 70
192
 0
VERTEX
 8
CUERPO.1
 10
1.5447
 20
-0.0275
 30
2.2178
 70
192
 0
VERTEX
 8
CUERPO.1
 10
0.7934
 20
-0.0254
 30
2.2133
 70
192
 0
VERTEX
 8
CUERPO.1
 10
0.7934
 20
-0.0254
 30
2.2133
 70
192
 0
VERTEX
 8
CUERPO.1
 10
1.5447
 20
-0.0254
 30
2.2133
 70
192
 0
VERTEX
 8
CUERPO.1
 10
1.5447
 20
-0.0254
 30
2.2133
 70
192
 0
VERTEX
 8
CUERPO.1
 10
0.7934
 20
-0.0226
 30
2.2092
 70
192
 0
VERTEX
 8
CUERPO.1
 10
0.7934
 20
-0.0226
 30
2.2092
 70
192
 0
VERTEX
 8
CUERPO.1
 10
1.5447
 20
-0.0226
 30
2.2092
 70
192
 0
VERTEX
 8
CUERPO.1
 10
1.5447
 20
-0.0226
 30
2.2092
 70
192
 0
VERTEX
 8
CUERPO.1
 10
0.7934
 20
-0.019
 30
2.2056
 70
192
 0
VERTEX
 8
CUERPO.1
 10
0.7934
 20
-0.019
 30
2.2056
 70
192
 0
VERTEX
 8
CUERPO.1
 10
1.5447
 20
-0.019
 30
2.2056
 70
192
 0
VERTEX
 8
CUERPO.1
 10
1.5447
 20
-0.019
 30
2.2056
 70
192
 0
VERTEX
 8
CUERPO.1
 10
0.7934
 20
-0.0149
 30
2.2028
 70
192
 0
VERTEX
 8
CUERPO.1
 10
0.7934
 20
-0.0149
 30
2.2028
 70
192
 0
VERTEX
 8
CUERPO.1
 10
1.5447
 20
-0.0149
 30
2.2028
 70
192
 0
VERTEX
 8
CUERPO.1
 10
1.5447
 20
-0.0149
 30
2.2028
 70
192
 0
VERTEX
 8
CUERPO.1
 10
0.7934
 20
-0.0104
 30
2.2007
 70
192
 0
VERTEX
 8
CUERPO.1
 10
0.7934
 20
-0.0104
 30
2.2007
 70
192
 0
VERTEX
 8
CUERPO.1
 10
1.5447
 20
-0.0104
 30
2.2007
 70
192
 0
VERTEX
 8
CUERPO.1
 10
1.5447
 20
-0.0104
 30
2.2007
 70
192
 0
VERTEX
 8
CUERPO.1
 10
0.7934
 20
-0.0056
 30
2.1994
 70
192
 0
VERTEX
 8
CUERPO.1
 10
0.7934
 20
-0.0056
 30
2.1994
 70
192
 0
VERTEX
 8
CUERPO.1
 10
1.5447
 20
-0.0056
 30
2.1994
 70
192
 0
VERTEX
 8
CUERPO.1
 10
1.5447
 20
-0.0056
 30
2.1994
 70
192
 0
VERTEX
 8
CUERPO.1
 10
-0.1564
 20
-0.0675
 30
2.0832
 70
192
 0
VERTEX
 8
CUERPO.1
 10
-0.1564
 20
-0.0675
 30
2.2811
 70
192
 0
VERTEX
 8
CUERPO.1
 10
0.96
 20
-0.0675
 30
2.0832
 70
192
 0
VERTEX
 8
CUERPO.1
 10
0.96
 20
-0.0675
 30
2.2811
 70
192
 0
VERTEX
 8
CUERPO.1
 10
0.96
 20
0.0675
 30
2.0832
 70
192
 0
VERTEX
 8
CUERPO.1
 10
0.96
 20
0.0675
 30
2.2811
 70
192
 0
VERTEX
 8
CUERPO.1
 10
-0.1564
 20
0.0675
 30
2.0832
 70
192
 0
VERTEX
 8
CUERPO.1
 10
-0.1564
 20
0.0675
 30
2.2811
 70
192
 0
VERTEX
 8
CUERPO.1
 10
0.3087
 20
0.0675
 30
2.2485
 70
192
 0
VERTEX
 8
CUERPO.1
 10
0.3087
 20
0.0675
 30
2.1929
 70
192
 0
VERTEX
 8
CUERPO.1
 10
0.0736
 20
0.0675
 30
2.2485
 70
192
 0
VERTEX
 8
CUERPO.1
 10
0.0736
 20
0.0675
 30
2.1929
 70
192
 0
VERTEX
 8
CUERPO.1
 10
0.0736
 20
0.0047
 30
2.1929
 70
192
 0
VERTEX
 8
CUERPO.1
 10
0.0736
 20
0.0047
 30
2.2485
 70
192
 0
VERTEX
 8
CUERPO.1
 10
0.3087
 20
0.0047
 30
2.1929
 70
192
 0
VERTEX
 8
CUERPO.1
 10
0.3087
 20
0.0047
 30
2.2485
 70
192
 0
VERTEX
 8
CUERPO.1
 10
0.3087
 20
0.0675
 30
2.2485
 70
192
 0
VERTEX
 8
CUERPO.1
 10
0.3087
 20
0.0675
 30
2.1929
 70
192
 0
VERTEX
 8
CUERPO.1
 10
0.0736
 20
0.0675
 30
2.2485
 70
192
 0
VERTEX
 8
CUERPO.1
 10
0.0736
 20
0.0675
 30
2.1929
 70
192
 0
VERTEX
 8
CUERPO.1
 10
0.3936
 20
-0.0413
 30
2.1042
 70
192
 0
VERTEX
 8
CUERPO.1
 10
0.4097
 20
-0.0413
 30
2.1131
 70
192
 0
VERTEX
 8
CUERPO.1
 10
0.4693
 20
-0.0413
 30
1.9688
 70
192
 0
VERTEX
 8
CUERPO.1
 10
0.4804
 20
-0.0413
 30
1.9835
 70
192
 0
VERTEX
 8
CUERPO.1
 10
0.6653
 20
-0.0413
 30
1.9616
 70
192
 0
VERTEX
 8
CUERPO.1
 10
0.6653
 20
-0.0413
 30
1.98
 70
192
 0
VERTEX
 8
CUERPO.1
 10
0.6653
 20
0.0413
 30
1.9616
 70
192
 0
VERTEX
 8
CUERPO.1
 10
0.6653
 20
0.0413
 30
1.98
 70
192
 0
VERTEX
 8
CUERPO.1
 10
0.4693
 20
0.0413
 30
1.9688
 70
192
 0
VERTEX
 8
CUERPO.1
 10
0.4804
 20
0.0413
 30
1.9835
 70
192
 0
VERTEX
 8
CUERPO.1
 10
0.3936
 20
0.0413
 30
2.1042
 70
192
 0
VERTEX
 8
CUERPO.1
 10
0.4097
 20
0.0413
 30
2.1131
 70
192
 0
VERTEX
 8
CUERPO.1
 10
0.0701
 20
-0.0658
 30
2.0196
 70
192
 0
VERTEX
 8
CUERPO.1
 10
0.0701
 20
-0.0658
 30
2.0887
 70
192
 0
VERTEX
 8
CUERPO.1
 10
0.3181
 20
-0.0658
 30
2.0196
 70
192
 0
VERTEX
 8
CUERPO.1
 10
0.3181
 20
-0.0658
 30
2.0887
 70
192
 0
VERTEX
 8
CUERPO.1
 10
0.3181
 20
0.0658
 30
2.0196
 70
192
 0
VERTEX
 8
CUERPO.1
 10
0.3181
 20
0.0658
 30
2.0887
 70
192
 0
VERTEX
 8
CUERPO.1
 10
0.0701
 20
0.0658
 30
2.0196
 70
192
 0
VERTEX
 8
CUERPO.1
 10
0.0701
 20
0.0658
 30
2.0887
 70
192
 0
VERTEX
 8
CUERPO.1
 10
0
 20
0
 30
0
 70
128
 71
1
 72
3
 73
8
 74
8
 0
VERTEX
 8
CUERPO.1
 10
0
 20
0
 30
0
 70
128
 71
4
 72
5
 73
10
 74
9
 0
VERTEX
 8
CUERPO.1
 10
0
 20
0
 30
0
 70
128
 71
5
 72
6
 73
11
 74
10
 0
VERTEX
 8
CUERPO.1
 10
0
 20
0
 30
0
 70
128
 71
7
 72
2
 73
12
 74
12
 0
VERTEX
 8
CUERPO.1
 10
0
 20
0
 30
0
 70
128
 71
1
 72
8
 73
13
 74
13
 0
VERTEX
 8
CUERPO.1
 10
0
 20
0
 30
0
 70
128
 71
9
 72
10
 73
15
 74
14
 0
VERTEX
 8
CUERPO.1
 10
0
 20
0
 30
0
 70
128
 71
10
 72
11
 73
16
 74
15
 0
VERTEX
 8
CUERPO.1
 10
0
 20
0
 30
0
 70
128
 71
12
 72
2
 73
17
 74
17
 0
VERTEX
 8
CUERPO.1
 10
0
 20
0
 30
0
 70
128
 71
1
 72
13
 73
18
 74
18
 0
VERTEX
 8
CUERPO.1
 10
0
 20
0
 30
0
 70
128
 71
14
 72
15
 73
20
 74
19
 0
VERTEX
 8
CUERPO.1
 10
0
 20
0
 30
0
 70
128
 71
15
 72
16
 73
21
 74
20
 0
VERTEX
 8
CUERPO.1
 10
0
 20
0
 30
0
 70
128
 71
17
 72
2
 73
22
 74
22
 0
VERTEX
 8
CUERPO.1
 10
0
 20
0
 30
0
 70
128
 71
1
 72
18
 73
23
 74
23
 0
VERTEX
 8
CUERPO.1
 10
0
 20
0
 30
0
 70
128
 71
19
 72
20
 73
25
 74
24
 0
VERTEX
 8
CUERPO.1
 10
0
 20
0
 30
0
 70
128
 71
20
 72
21
 73
26
 74
25
 0
VERTEX
 8
CUERPO.1
 10
0
 20
0
 30
0
 70
128
 71
22
 72
2
 73
27
 74
27
 0
VERTEX
 8
CUERPO.1
 10
0
 20
0
 30
0
 70
128
 71
1
 72
23
 73
28
 74
28
 0
VERTEX
 8
CUERPO.1
 10
0
 20
0
 30
0
 70
128
 71
24
 72
25
 73
30
 74
29
 0
VERTEX
 8
CUERPO.1
 10
0
 20
0
 30
0
 70
128
 71
25
 72
26
 73
31
 74
30
 0
VERTEX
 8
CUERPO.1
 10
0
 20
0
 30
0
 70
128
 71
27
 72
2
 73
32
 74
32
 0
VERTEX
 8
CUERPO.1
 10
0
 20
0
 30
0
 70
128
 71
1
 72
28
 73
33
 74
33
 0
VERTEX
 8
CUERPO.1
 10
0
 20
0
 30
0
 70
128
 71
29
 72
30
 73
35
 74
34
 0
VERTEX
 8
CUERPO.1
 10
0
 20
0
 30
0
 70
128
 71
30
 72
31
 73
36
 74
35
 0
VERTEX
 8
CUERPO.1
 10
0
 20
0
 30
0
 70
128
 71
32
 72
2
 73
37
 74
37
 0
VERTEX
 8
CUERPO.1
 10
0
 20
0
 30
0
 70
128
 71
1
 72
33
 73
38
 74
38
 0
VERTEX
 8
CUERPO.1
 10
0
 20
0
 30
0
 70
128
 71
34
 72
35
 73
40
 74
39
 0
VERTEX
 8
CUERPO.1
 10
0
 20
0
 30
0
 70
128
 71
35
 72
36
 73
41
 74
40
 0
VERTEX
 8
CUERPO.1
 10
0
 20
0
 30
0
 70
128
 71
37
 72
2
 73
42
 74
42
 0
VERTEX
 8
CUERPO.1
 10
0
 20
0
 30
0
 70
128
 71
1
 72
38
 73
43
 74
43
 0
VERTEX
 8
CUERPO.1
 10
0
 20
0
 30
0
 70
128
 71
39
 72
40
 73
45
 74
44
 0
VERTEX
 8
CUERPO.1
 10
0
 20
0
 30
0
 70
128
 71
40
 72
41
 73
46
 74
45
 0
VERTEX
 8
CUERPO.1
 10
0
 20
0
 30
0
 70
128
 71
42
 72
2
 73
47
 74
47
 0
VERTEX
 8
CUERPO.1
 10
0
 20
0
 30
0
 70
128
 71
1
 72
43
 73
48
 74
48
 0
VERTEX
 8
CUERPO.1
 10
0
 20
0
 30
0
 70
128
 71
44
 72
45
 73
50
 74
49
 0
VERTEX
 8
CUERPO.1
 10
0
 20
0
 30
0
 70
128
 71
45
 72
46
 73
51
 74
50
 0
VERTEX
 8
CUERPO.1
 10
0
 20
0
 30
0
 70
128
 71
47
 72
2
 73
52
 74
52
 0
VERTEX
 8
CUERPO.1
 10
0
 20
0
 30
0
 70
128
 71
1
 72
48
 73
53
 74
53
 0
VERTEX
 8
CUERPO.1
 10
0
 20
0
 30
0
 70
128
 71
49
 72
50
 73
55
 74
54
 0
VERTEX
 8
CUERPO.1
 10
0
 20
0
 30
0
 70
128
 71
50
 72
51
 73
56
 74
55
 0
VERTEX
 8
CUERPO.1
 10
0
 20
0
 30
0
 70
128
 71
52
 72
2
 73
57
 74
57
 0
VERTEX
 8
CUERPO.1
 10
0
 20
0
 30
0
 70
128
 71
1
 72
53
 73
58
 74
58
 0
VERTEX
 8
CUERPO.1
 10
0
 20
0
 30
0
 70
128
 71
54
 72
55
 73
60
 74
59
 0
VERTEX
 8
CUERPO.1
 10
0
 20
0
 30
0
 70
128
 71
55
 72
56
 73
61
 74
60
 0
VERTEX
 8
CUERPO.1
 10
0
 20
0
 30
0
 70
128
 71
57
 72
2
 73
62
 74
62
 0
VERTEX
 8
CUERPO.1
 10
0
 20
0
 30
0
 70
128
 71
1
 72
58
 73
63
 74
63
 0
VERTEX
 8
CUERPO.1
 10
0
 20
0
 30
0
 70
128
 71
59
 72
60
 73
65
 74
64
 0
VERTEX
 8
CUERPO.1
 10
0
 20
0
 30
0
 70
128
 71
60
 72
61
 73
66
 74
65
 0
VERTEX
 8
CUERPO.1
 10
0
 20
0
 30
0
 70
128
 71
62
 72
2
 73
67
 74
67
 0
VERTEX
 8
CUERPO.1
 10
0
 20
0
 30
0
 70
128
 71
1
 72
63
 73
68
 74
68
 0
VERTEX
 8
CUERPO.1
 10
0
 20
0
 30
0
 70
128
 71
64
 72
65
 73
70
 74
69
 0
VERTEX
 8
CUERPO.1
 10
0
 20
0
 30
0
 70
128
 71
65
 72
66
 73
71
 74
70
 0
VERTEX
 8
CUERPO.1
 10
0
 20
0
 30
0
 70
128
 71
67
 72
2
 73
72
 74
72
 0
VERTEX
 8
CUERPO.1
 10
0
 20
0
 30
0
 70
128
 71
1
 72
68
 73
73
 74
73
 0
VERTEX
 8
CUERPO.1
 10
0
 20
0
 30
0
 70
128
 71
69
 72
70
 73
75
 74
74
 0
VERTEX
 8
CUERPO.1
 10
0
 20
0
 30
0
 70
128
 71
70
 72
71
 73
76
 74
75
 0
VERTEX
 8
CUERPO.1
 10
0
 20
0
 30
0
 70
128
 71
72
 72
2
 73
77
 74
77
 0
VERTEX
 8
CUERPO.1
 10
0
 20
0
 30
0
 70
128
 71
1
 72
73
 73
78
 74
78
 0
VERTEX
 8
CUERPO.1
 10
0
 20
0
 30
0
 70
128
 71
74
 72
75
 73
80
 74
79
 0
VERTEX
 8
CUERPO.1
 10
0
 20
0
 30
0
 70
128
 71
75
 72
76
 73
81
 74
80
 0
VERTEX
 8
CUERPO.1
 10
0
 20
0
 30
0
 70
128
 71
77
 72
2
 73
82
 74
82
 0
VERTEX
 8
CUERPO.1
 10
0
 20
0
 30
0
 70
128
 71
1
 72
78
 73
83
 74
83
 0
VERTEX
 8
CUERPO.1
 10
0
 20
0
 30
0
 70
128
 71
79
 72
80
 73
85
 74
84
 0
VERTEX
 8
CUERPO.1
 10
0
 20
0
 30
0
 70
128
 71
80
 72
81
 73
86
 74
85
 0
VERTEX
 8
CUERPO.1
 10
0
 20
0
 30
0
 70
128
 71
82
 72
2
 73
87
 74
87
 0
VERTEX
 8
CUERPO.1
 10
0
 20
0
 30
0
 70
128
 71
1
 72
83
 73
88
 74
88
 0
VERTEX
 8
CUERPO.1
 10
0
 20
0
 30
0
 70
128
 71
84
 72
85
 73
90
 74
89
 0
VERTEX
 8
CUERPO.1
 10
0
 20
0
 30
0
 70
128
 71
85
 72
86
 73
91
 74
90
 0
VERTEX
 8
CUERPO.1
 10
0
 20
0
 30
0
 70
128
 71
87
 72
2
 73
92
 74
92
 0
VERTEX
 8
CUERPO.1
 10
0
 20
0
 30
0
 70
128
 71
1
 72
88
 73
93
 74
93
 0
VERTEX
 8
CUERPO.1
 10
0
 20
0
 30
0
 70
128
 71
89
 72
90
 73
95
 74
94
 0
VERTEX
 8
CUERPO.1
 10
0
 20
0
 30
0
 70
128
 71
90
 72
91
 73
96
 74
95
 0
VERTEX
 8
CUERPO.1
 10
0
 20
0
 30
0
 70
128
 71
92
 72
2
 73
97
 74
97
 0
VERTEX
 8
CUERPO.1
 10
0
 20
0
 30
0
 70
128
 71
1
 72
93
 73
98
 74
98
 0
VERTEX
 8
CUERPO.1
 10
0
 20
0
 30
0
 70
128
 71
94
 72
95
 73
100
 74
99
 0
VERTEX
 8
CUERPO.1
 10
0
 20
0
 30
0
 70
128
 71
95
 72
96
 73
101
 74
100
 0
VERTEX
 8
CUERPO.1
 10
0
 20
0
 30
0
 70
128
 71
97
 72
2
 73
102
 74
102
 0
VERTEX
 8
CUERPO.1
 10
0
 20
0
 30
0
 70
128
 71
1
 72
98
 73
103
 74
103
 0
VERTEX
 8
CUERPO.1
 10
0
 20
0
 30
0
 70
128
 71
99
 72
100
 73
105
 74
104
 0
VERTEX
 8
CUERPO.1
 10
0
 20
0
 30
0
 70
128
 71
100
 72
101
 73
106
 74
105
 0
VERTEX
 8
CUERPO.1
 10
0
 20
0
 30
0
 70
128
 71
102
 72
2
 73
107
 74
107
 0
VERTEX
 8
CUERPO.1
 10
0
 20
0
 30
0
 70
128
 71
1
 72
103
 73
108
 74
108
 0
VERTEX
 8
CUERPO.1
 10
0
 20
0
 30
0
 70
128
 71
104
 72
105
 73
110
 74
109
 0
VERTEX
 8
CUERPO.1
 10
0
 20
0
 30
0
 70
128
 71
105
 72
106
 73
111
 74
110
 0
VERTEX
 8
CUERPO.1
 10
0
 20
0
 30
0
 70
128
 71
107
 72
2
 73
112
 74
112
 0
VERTEX
 8
CUERPO.1
 10
0
 20
0
 30
0
 70
128
 71
1
 72
108
 73
113
 74
113
 0
VERTEX
 8
CUERPO.1
 10
0
 20
0
 30
0
 70
128
 71
109
 72
110
 73
115
 74
114
 0
VERTEX
 8
CUERPO.1
 10
0
 20
0
 30
0
 70
128
 71
110
 72
111
 73
116
 74
115
 0
VERTEX
 8
CUERPO.1
 10
0
 20
0
 30
0
 70
128
 71
112
 72
2
 73
117
 74
117
 0
VERTEX
 8
CUERPO.1
 10
0
 20
0
 30
0
 70
128
 71
1
 72
113
 73
118
 74
118
 0
VERTEX
 8
CUERPO.1
 10
0
 20
0
 30
0
 70
128
 71
114
 72
115
 73
120
 74
119
 0
VERTEX
 8
CUERPO.1
 10
0
 20
0
 30
0
 70
128
 71
115
 72
116
 73
121
 74
120
 0
VERTEX
 8
CUERPO.1
 10
0
 20
0
 30
0
 70
128
 71
117
 72
2
 73
122
 74
122
 0
VERTEX
 8
CUERPO.1
 10
0
 20
0
 30
0
 70
128
 71
1
 72
118
 73
123
 74
123
 0
VERTEX
 8
CUERPO.1
 10
0
 20
0
 30
0
 70
128
 71
119
 72
120
 73
125
 74
124
 0
VERTEX
 8
CUERPO.1
 10
0
 20
0
 30
0
 70
128
 71
120
 72
121
 73
126
 74
125
 0
VERTEX
 8
CUERPO.1
 10
0
 20
0
 30
0
 70
128
 71
122
 72
2
 73
127
 74
127
 0
VERTEX
 8
CUERPO.1
 10
0
 20
0
 30
0
 70
128
 71
1
 72
123
 73
128
 74
128
 0
VERTEX
 8
CUERPO.1
 10
0
 20
0
 30
0
 70
128
 71
124
 72
125
 73
130
 74
129
 0
VERTEX
 8
CUERPO.1
 10
0
 20
0
 30
0
 70
128
 71
125
 72
126
 73
131
 74
130
 0
VERTEX
 8
CUERPO.1
 10
0
 20
0
 30
0
 70
128
 71
127
 72
2
 73
132
 74
132
 0
VERTEX
 8
CUERPO.1
 10
0
 20
0
 30
0
 70
128
 71
1
 72
128
 73
133
 74
133
 0
VERTEX
 8
CUERPO.1
 10
0
 20
0
 30
0
 70
128
 71
129
 72
130
 73
135
 74
134
 0
VERTEX
 8
CUERPO.1
 10
0
 20
0
 30
0
 70
128
 71
130
 72
131
 73
136
 74
135
 0
VERTEX
 8
CUERPO.1
 10
0
 20
0
 30
0
 70
128
 71
132
 72
2
 73
137
 74
137
 0
VERTEX
 8
CUERPO.1
 10
0
 20
0
 30
0
 70
128
 71
1
 72
133
 73
138
 74
138
 0
VERTEX
 8
CUERPO.1
 10
0
 20
0
 30
0
 70
128
 71
134
 72
135
 73
140
 74
139
 0
VERTEX
 8
CUERPO.1
 10
0
 20
0
 30
0
 70
128
 71
135
 72
136
 73
141
 74
140
 0
VERTEX
 8
CUERPO.1
 10
0
 20
0
 30
0
 70
128
 71
137
 72
2
 73
142
 74
142
 0
VERTEX
 8
CUERPO.1
 10
0
 20
0
 30
0
 70
128
 71
1
 72
138
 73
143
 74
143
 0
VERTEX
 8
CUERPO.1
 10
0
 20
0
 30
0
 70
128
 71
139
 72
140
 73
145
 74
144
 0
VERTEX
 8
CUERPO.1
 10
0
 20
0
 30
0
 70
128
 71
140
 72
141
 73
146
 74
145
 0
VERTEX
 8
CUERPO.1
 10
0
 20
0
 30
0
 70
128
 71
142
 72
2
 73
147
 74
147
 0
VERTEX
 8
CUERPO.1
 10
0
 20
0
 30
0
 70
128
 71
1
 72
143
 73
148
 74
148
 0
VERTEX
 8
CUERPO.1
 10
0
 20
0
 30
0
 70
128
 71
144
 72
145
 73
150
 74
149
 0
VERTEX
 8
CUERPO.1
 10
0
 20
0
 30
0
 70
128
 71
145
 72
146
 73
151
 74
150
 0
VERTEX
 8
CUERPO.1
 10
0
 20
0
 30
0
 70
128
 71
147
 72
2
 73
152
 74
152
 0
VERTEX
 8
CUERPO.1
 10
0
 20
0
 30
0
 70
128
 71
1
 72
148
 73
153
 74
153
 0
VERTEX
 8
CUERPO.1
 10
0
 20
0
 30
0
 70
128
 71
149
 72
150
 73
155
 74
154
 0
VERTEX
 8
CUERPO.1
 10
0
 20
0
 30
0
 70
128
 71
150
 72
151
 73
156
 74
155
 0
VERTEX
 8
CUERPO.1
 10
0
 20
0
 30
0
 70
128
 71
152
 72
2
 73
157
 74
157
 0
VERTEX
 8
CUERPO.1
 10
0
 20
0
 30
0
 70
128
 71
1
 72
153
 73
158
 74
158
 0
VERTEX
 8
CUERPO.1
 10
0
 20
0
 30
0
 70
128
 71
154
 72
155
 73
160
 74
159
 0
VERTEX
 8
CUERPO.1
 10
0
 20
0
 30
0
 70
128
 71
155
 72
156
 73
161
 74
160
 0
VERTEX
 8
CUERPO.1
 10
0
 20
0
 30
0
 70
128
 71
157
 72
2
 73
162
 74
162
 0
VERTEX
 8
CUERPO.1
 10
0
 20
0
 30
0
 70
128
 71
1
 72
158
 73
163
 74
163
 0
VERTEX
 8
CUERPO.1
 10
0
 20
0
 30
0
 70
128
 71
159
 72
160
 73
165
 74
164
 0
VERTEX
 8
CUERPO.1
 10
0
 20
0
 30
0
 70
128
 71
160
 72
161
 73
166
 74
165
 0
VERTEX
 8
CUERPO.1
 10
0
 20
0
 30
0
 70
128
 71
162
 72
2
 73
167
 74
167
 0
VERTEX
 8
CUERPO.1
 10
0
 20
0
 30
0
 70
128
 71
1
 72
163
 73
168
 74
168
 0
VERTEX
 8
CUERPO.1
 10
0
 20
0
 30
0
 70
128
 71
164
 72
165
 73
170
 74
169
 0
VERTEX
 8
CUERPO.1
 10
0
 20
0
 30
0
 70
128
 71
165
 72
166
 73
171
 74
170
 0
VERTEX
 8
CUERPO.1
 10
0
 20
0
 30
0
 70
128
 71
167
 72
2
 73
172
 74
172
 0
VERTEX
 8
CUERPO.1
 10
0
 20
0
 30
0
 70
128
 71
1
 72
168
 73
173
 74
173
 0
VERTEX
 8
CUERPO.1
 10
0
 20
0
 30
0
 70
128
 71
169
 72
170
 73
175
 74
174
 0
VERTEX
 8
CUERPO.1
 10
0
 20
0
 30
0
 70
128
 71
170
 72
171
 73
176
 74
175
 0
VERTEX
 8
CUERPO.1
 10
0
 20
0
 30
0
 70
128
 71
172
 72
2
 73
177
 74
177
 0
VERTEX
 8
CUERPO.1
 10
0
 20
0
 30
0
 70
128
 71
1
 72
173
 73
178
 74
178
 0
VERTEX
 8
CUERPO.1
 10
0
 20
0
 30
0
 70
128
 71
174
 72
175
 73
180
 74
179
 0
VERTEX
 8
CUERPO.1
 10
0
 20
0
 30
0
 70
128
 71
175
 72
176
 73
181
 74
180
 0
VERTEX
 8
CUERPO.1
 10
0
 20
0
 30
0
 70
128
 71
177
 72
2
 73
182
 74
182
 0
VERTEX
 8
CUERPO.1
 10
0
 20
0
 30
0
 70
128
 71
1
 72
178
 73
3
 74
3
 0
VERTEX
 8
CUERPO.1
 10
0
 20
0
 30
0
 70
128
 71
179
 72
180
 73
5
 74
4
 0
VERTEX
 8
CUERPO.1
 10
0
 20
0
 30
0
 70
128
 71
180
 72
181
 73
6
 74
5
 0
VERTEX
 8
CUERPO.1
 10
0
 20
0
 30
0
 70
128
 71
182
 72
2
 73
7
 74
7
 0
VERTEX
 8
CUERPO.1
 10
0
 20
0
 30
0
 70
128
 71
183
 72
184
 73
186
 74
185
 0
VERTEX
 8
CUERPO.1
 10
0
 20
0
 30
0
 70
128
 71
185
 72
186
 73
188
 74
187
 0
VERTEX
 8
CUERPO.1
 10
0
 20
0
 30
0
 70
128
 71
187
 72
188
 73
190
 74
189
 0
VERTEX
 8
CUERPO.1
 10
0
 20
0
 30
0
 70
128
 71
189
 72
190
 73
184
 74
183
 0
VERTEX
 8
CUERPO.1
 10
0
 20
0
 30
0
 70
128
 71
184
 72
190
 73
188
 74
186
 0
VERTEX
 8
CUERPO.1
 10
0
 20
0
 30
0
 70
128
 71
189
 72
183
 73
185
 74
187
 0
VERTEX
 8
CUERPO.1
 10
0
 20
0
 30
0
 70
128
 71
191
 72
193
 73
197
 74
197
 0
VERTEX
 8
CUERPO.1
 10
0
 20
0
 30
0
 70
128
 71
194
 72
195
 73
199
 74
198
 0
VERTEX
 8
CUERPO.1
 10
0
 20
0
 30
0
 70
128
 71
196
 72
192
 73
200
 74
200
 0
VERTEX
 8
CUERPO.1
 10
0
 20
0
 30
0
 70
128
 71
191
 72
197
 73
201
 74
201
 0
VERTEX
 8
CUERPO.1
 10
0
 20
0
 30
0
 70
128
 71
198
 72
199
 73
203
 74
202
 0
VERTEX
 8
CUERPO.1
 10
0
 20
0
 30
0
 70
128
 71
200
 72
192
 73
204
 74
204
 0
VERTEX
 8
CUERPO.1
 10
0
 20
0
 30
0
 70
128
 71
191
 72
201
 73
205
 74
205
 0
VERTEX
 8
CUERPO.1
 10
0
 20
0
 30
0
 70
128
 71
202
 72
203
 73
207
 74
206
 0
VERTEX
 8
CUERPO.1
 10
0
 20
0
 30
0
 70
128
 71
204
 72
192
 73
208
 74
208
 0
VERTEX
 8
CUERPO.1
 10
0
 20
0
 30
0
 70
128
 71
191
 72
205
 73
209
 74
209
 0
VERTEX
 8
CUERPO.1
 10
0
 20
0
 30
0
 70
128
 71
206
 72
207
 73
211
 74
210
 0
VERTEX
 8
CUERPO.1
 10
0
 20
0
 30
0
 70
128
 71
208
 72
192
 73
212
 74
212
 0
VERTEX
 8
CUERPO.1
 10
0
 20
0
 30
0
 70
128
 71
191
 72
209
 73
213
 74
213
 0
VERTEX
 8
CUERPO.1
 10
0
 20
0
 30
0
 70
128
 71
210
 72
211
 73
215
 74
214
 0
VERTEX
 8
CUERPO.1
 10
0
 20
0
 30
0
 70
128
 71
212
 72
192
 73
216
 74
216
 0
VERTEX
 8
CUERPO.1
 10
0
 20
0
 30
0
 70
128
 71
191
 72
213
 73
217
 74
217
 0
VERTEX
 8
CUERPO.1
 10
0
 20
0
 30
0
 70
128
 71
214
 72
215
 73
219
 74
218
 0
VERTEX
 8
CUERPO.1
 10
0
 20
0
 30
0
 70
128
 71
216
 72
192
 73
220
 74
220
 0
VERTEX
 8
CUERPO.1
 10
0
 20
0
 30
0
 70
128
 71
191
 72
217
 73
221
 74
221
 0
VERTEX
 8
CUERPO.1
 10
0
 20
0
 30
0
 70
128
 71
218
 72
219
 73
223
 74
222
 0
VERTEX
 8
CUERPO.1
 10
0
 20
0
 30
0
 70
128
 71
220
 72
192
 73
224
 74
224
 0
VERTEX
 8
CUERPO.1
 10
0
 20
0
 30
0
 70
128
 71
191
 72
221
 73
225
 74
225
 0
VERTEX
 8
CUERPO.1
 10
0
 20
0
 30
0
 70
128
 71
222
 72
223
 73
227
 74
226
 0
VERTEX
 8
CUERPO.1
 10
0
 20
0
 30
0
 70
128
 71
224
 72
192
 73
228
 74
228
 0
VERTEX
 8
CUERPO.1
 10
0
 20
0
 30
0
 70
128
 71
191
 72
225
 73
229
 74
229
 0
VERTEX
 8
CUERPO.1
 10
0
 20
0
 30
0
 70
128
 71
226
 72
227
 73
231
 74
230
 0
VERTEX
 8
CUERPO.1
 10
0
 20
0
 30
0
 70
128
 71
228
 72
192
 73
232
 74
232
 0
VERTEX
 8
CUERPO.1
 10
0
 20
0
 30
0
 70
128
 71
191
 72
229
 73
233
 74
233
 0
VERTEX
 8
CUERPO.1
 10
0
 20
0
 30
0
 70
128
 71
230
 72
231
 73
235
 74
234
 0
VERTEX
 8
CUERPO.1
 10
0
 20
0
 30
0
 70
128
 71
232
 72
192
 73
236
 74
236
 0
VERTEX
 8
CUERPO.1
 10
0
 20
0
 30
0
 70
128
 71
191
 72
233
 73
237
 74
237
 0
VERTEX
 8
CUERPO.1
 10
0
 20
0
 30
0
 70
128
 71
234
 72
235
 73
239
 74
238
 0
VERTEX
 8
CUERPO.1
 10
0
 20
0
 30
0
 70
128
 71
236
 72
192
 73
240
 74
240
 0
VERTEX
 8
CUERPO.1
 10
0
 20
0
 30
0
 70
128
 71
191
 72
237
 73
241
 74
241
 0
VERTEX
 8
CUERPO.1
 10
0
 20
0
 30
0
 70
128
 71
238
 72
239
 73
243
 74
242
 0
VERTEX
 8
CUERPO.1
 10
0
 20
0
 30
0
 70
128
 71
240
 72
192
 73
244
 74
244
 0
VERTEX
 8
CUERPO.1
 10
0
 20
0
 30
0
 70
128
 71
191
 72
241
 73
245
 74
245
 0
VERTEX
 8
CUERPO.1
 10
0
 20
0
 30
0
 70
128
 71
242
 72
243
 73
247
 74
246
 0
VERTEX
 8
CUERPO.1
 10
0
 20
0
 30
0
 70
128
 71
244
 72
192
 73
248
 74
248
 0
VERTEX
 8
CUERPO.1
 10
0
 20
0
 30
0
 70
128
 71
191
 72
245
 73
249
 74
249
 0
VERTEX
 8
CUERPO.1
 10
0
 20
0
 30
0
 70
128
 71
246
 72
247
 73
251
 74
250
 0
VERTEX
 8
CUERPO.1
 10
0
 20
0
 30
0
 70
128
 71
248
 72
192
 73
252
 74
252
 0
VERTEX
 8
CUERPO.1
 10
0
 20
0
 30
0
 70
128
 71
191
 72
249
 73
253
 74
253
 0
VERTEX
 8
CUERPO.1
 10
0
 20
0
 30
0
 70
128
 71
250
 72
251
 73
255
 74
254
 0
VERTEX
 8
CUERPO.1
 10
0
 20
0
 30
0
 70
128
 71
252
 72
192
 73
256
 74
256
 0
VERTEX
 8
CUERPO.1
 10
0
 20
0
 30
0
 70
128
 71
191
 72
253
 73
257
 74
257
 0
VERTEX
 8
CUERPO.1
 10
0
 20
0
 30
0
 70
128
 71
254
 72
255
 73
259
 74
258
 0
VERTEX
 8
CUERPO.1
 10
0
 20
0
 30
0
 70
128
 71
256
 72
192
 73
260
 74
260
 0
VERTEX
 8
CUERPO.1
 10
0
 20
0
 30
0
 70
128
 71
191
 72
257
 73
261
 74
261
 0
VERTEX
 8
CUERPO.1
 10
0
 20
0
 30
0
 70
128
 71
258
 72
259
 73
263
 74
262
 0
VERTEX
 8
CUERPO.1
 10
0
 20
0
 30
0
 70
128
 71
260
 72
192
 73
264
 74
264
 0
VERTEX
 8
CUERPO.1
 10
0
 20
0
 30
0
 70
128
 71
191
 72
261
 73
265
 74
265
 0
VERTEX
 8
CUERPO.1
 10
0
 20
0
 30
0
 70
128
 71
262
 72
263
 73
267
 74
266
 0
VERTEX
 8
CUERPO.1
 10
0
 20
0
 30
0
 70
128
 71
264
 72
192
 73
268
 74
268
 0
VERTEX
 8
CUERPO.1
 10
0
 20
0
 30
0
 70
128
 71
191
 72
265
 73
269
 74
269
 0
VERTEX
 8
CUERPO.1
 10
0
 20
0
 30
0
 70
128
 71
266
 72
267
 73
271
 74
270
 0
VERTEX
 8
CUERPO.1
 10
0
 20
0
 30
0
 70
128
 71
268
 72
192
 73
272
 74
272
 0
VERTEX
 8
CUERPO.1
 10
0
 20
0
 30
0
 70
128
 71
191
 72
269
 73
273
 74
273
 0
VERTEX
 8
CUERPO.1
 10
0
 20
0
 30
0
 70
128
 71
270
 72
271
 73
275
 74
274
 0
VERTEX
 8
CUERPO.1
 10
0
 20
0
 30
0
 70
128
 71
272
 72
192
 73
276
 74
276
 0
VERTEX
 8
CUERPO.1
 10
0
 20
0
 30
0
 70
128
 71
191
 72
273
 73
277
 74
277
 0
VERTEX
 8
CUERPO.1
 10
0
 20
0
 30
0
 70
128
 71
274
 72
275
 73
279
 74
278
 0
VERTEX
 8
CUERPO.1
 10
0
 20
0
 30
0
 70
128
 71
276
 72
192
 73
280
 74
280
 0
VERTEX
 8
CUERPO.1
 10
0
 20
0
 30
0
 70
128
 71
191
 72
277
 73
281
 74
281
 0
VERTEX
 8
CUERPO.1
 10
0
 20
0
 30
0
 70
128
 71
278
 72
279
 73
283
 74
282
 0
VERTEX
 8
CUERPO.1
 10
0
 20
0
 30
0
 70
128
 71
280
 72
192
 73
284
 74
284
 0
VERTEX
 8
CUERPO.1
 10
0
 20
0
 30
0
 70
128
 71
191
 72
281
 73
285
 74
285
 0
VERTEX
 8
CUERPO.1
 10
0
 20
0
 30
0
 70
128
 71
282
 72
283
 73
287
 74
286
 0
VERTEX
 8
CUERPO.1
 10
0
 20
0
 30
0
 70
128
 71
284
 72
192
 73
288
 74
288
 0
VERTEX
 8
CUERPO.1
 10
0
 20
0
 30
0
 70
128
 71
191
 72
285
 73
289
 74
289
 0
VERTEX
 8
CUERPO.1
 10
0
 20
0
 30
0
 70
128
 71
286
 72
287
 73
291
 74
290
 0
VERTEX
 8
CUERPO.1
 10
0
 20
0
 30
0
 70
128
 71
288
 72
192
 73
292
 74
292
 0
VERTEX
 8
CUERPO.1
 10
0
 20
0
 30
0
 70
128
 71
191
 72
289
 73
293
 74
293
 0
VERTEX
 8
CUERPO.1
 10
0
 20
0
 30
0
 70
128
 71
290
 72
291
 73
295
 74
294
 0
VERTEX
 8
CUERPO.1
 10
0
 20
0
 30
0
 70
128
 71
292
 72
192
 73
296
 74
296
 0
VERTEX
 8
CUERPO.1
 10
0
 20
0
 30
0
 70
128
 71
191
 72
293
 73
297
 74
297
 0
VERTEX
 8
CUERPO.1
 10
0
 20
0
 30
0
 70
128
 71
294
 72
295
 73
299
 74
298
 0
VERTEX
 8
CUERPO.1
 10
0
 20
0
 30
0
 70
128
 71
296
 72
192
 73
300
 74
300
 0
VERTEX
 8
CUERPO.1
 10
0
 20
0
 30
0
 70
128
 71
191
 72
297
 73
301
 74
301
 0
VERTEX
 8
CUERPO.1
 10
0
 20
0
 30
0
 70
128
 71
298
 72
299
 73
303
 74
302
 0
VERTEX
 8
CUERPO.1
 10
0
 20
0
 30
0
 70
128
 71
300
 72
192
 73
304
 74
304
 0
VERTEX
 8
CUERPO.1
 10
0
 20
0
 30
0
 70
128
 71
191
 72
301
 73
305
 74
305
 0
VERTEX
 8
CUERPO.1
 10
0
 20
0
 30
0
 70
128
 71
302
 72
303
 73
307
 74
306
 0
VERTEX
 8
CUERPO.1
 10
0
 20
0
 30
0
 70
128
 71
304
 72
192
 73
308
 74
308
 0
VERTEX
 8
CUERPO.1
 10
0
 20
0
 30
0
 70
128
 71
191
 72
305
 73
309
 74
309
 0
VERTEX
 8
CUERPO.1
 10
0
 20
0
 30
0
 70
128
 71
306
 72
307
 73
311
 74
310
 0
VERTEX
 8
CUERPO.1
 10
0
 20
0
 30
0
 70
128
 71
308
 72
192
 73
312
 74
312
 0
VERTEX
 8
CUERPO.1
 10
0
 20
0
 30
0
 70
128
 71
191
 72
309
 73
313
 74
313
 0
VERTEX
 8
CUERPO.1
 10
0
 20
0
 30
0
 70
128
 71
310
 72
311
 73
315
 74
314
 0
VERTEX
 8
CUERPO.1
 10
0
 20
0
 30
0
 70
128
 71
312
 72
192
 73
316
 74
316
 0
VERTEX
 8
CUERPO.1
 10
0
 20
0
 30
0
 70
128
 71
191
 72
313
 73
317
 74
317
 0
VERTEX
 8
CUERPO.1
 10
0
 20
0
 30
0
 70
128
 71
314
 72
315
 73
319
 74
318
 0
VERTEX
 8
CUERPO.1
 10
0
 20
0
 30
0
 70
128
 71
316
 72
192
 73
320
 74
320
 0
VERTEX
 8
CUERPO.1
 10
0
 20
0
 30
0
 70
128
 71
191
 72
317
 73
321
 74
321
 0
VERTEX
 8
CUERPO.1
 10
0
 20
0
 30
0
 70
128
 71
318
 72
319
 73
323
 74
322
 0
VERTEX
 8
CUERPO.1
 10
0
 20
0
 30
0
 70
128
 71
320
 72
192
 73
324
 74
324
 0
VERTEX
 8
CUERPO.1
 10
0
 20
0
 30
0
 70
128
 71
191
 72
321
 73
325
 74
325
 0
VERTEX
 8
CUERPO.1
 10
0
 20
0
 30
0
 70
128
 71
322
 72
323
 73
327
 74
326
 0
VERTEX
 8
CUERPO.1
 10
0
 20
0
 30
0
 70
128
 71
324
 72
192
 73
328
 74
328
 0
VERTEX
 8
CUERPO.1
 10
0
 20
0
 30
0
 70
128
 71
191
 72
325
 73
329
 74
329
 0
VERTEX
 8
CUERPO.1
 10
0
 20
0
 30
0
 70
128
 71
326
 72
327
 73
331
 74
330
 0
VERTEX
 8
CUERPO.1
 10
0
 20
0
 30
0
 70
128
 71
328
 72
192
 73
332
 74
332
 0
VERTEX
 8
CUERPO.1
 10
0
 20
0
 30
0
 70
128
 71
191
 72
329
 73
333
 74
333
 0
VERTEX
 8
CUERPO.1
 10
0
 20
0
 30
0
 70
128
 71
330
 72
331
 73
335
 74
334
 0
VERTEX
 8
CUERPO.1
 10
0
 20
0
 30
0
 70
128
 71
332
 72
192
 73
336
 74
336
 0
VERTEX
 8
CUERPO.1
 10
0
 20
0
 30
0
 70
128
 71
191
 72
333
 73
193
 74
193
 0
VERTEX
 8
CUERPO.1
 10
0
 20
0
 30
0
 70
128
 71
334
 72
335
 73
195
 74
194
 0
VERTEX
 8
CUERPO.1
 10
0
 20
0
 30
0
 70
128
 71
336
 72
192
 73
196
 74
196
 0
VERTEX
 8
CUERPO.1
 10
0
 20
0
 30
0
 70
128
 71
337
 72
338
 73
340
 74
339
 0
VERTEX
 8
CUERPO.1
 10
0
 20
0
 30
0
 70
128
 71
339
 72
340
 73
342
 74
341
 0
VERTEX
 8
CUERPO.1
 10
0
 20
0
 30
0
 70
128
 71
344
 72
343
 73
347
 74
347
 0
VERTEX
 8
CUERPO.1
 10
0
 20
0
 30
0
 70
128
 71
348
 72
347
 73
343
 74
343
 0
VERTEX
 8
CUERPO.1
 10
0
 20
0
 30
0
 70
128
 71
346
 72
348
 73
343
 74
341
 0
VERTEX
 8
CUERPO.1
 10
0
 20
0
 30
0
 70
128
 71
344
 72
347
 73
345
 74
342
 0
VERTEX
 8
CUERPO.1
 10
0
 20
0
 30
0
 70
128
 71
346
 72
341
 73
342
 74
345
 0
VERTEX
 8
CUERPO.1
 10
0
 20
0
 30
0
 70
128
 71
343
 72
344
 73
338
 74
337
 0
VERTEX
 8
CUERPO.1
 10
0
 20
0
 30
0
 70
128
 71
338
 72
344
 73
342
 74
340
 0
VERTEX
 8
CUERPO.1
 10
0
 20
0
 30
0
 70
128
 71
343
 72
337
 73
339
 74
341
 0
VERTEX
 8
CUERPO.1
 10
0
 20
0
 30
0
 70
128
 71
350
 72
349
 73
351
 74
352
 0
VERTEX
 8
CUERPO.1
 10
0
 20
0
 30
0
 70
128
 71
351
 72
354
 73
353
 74
352
 0
VERTEX
 8
CUERPO.1
 10
0
 20
0
 30
0
 70
128
 71
350
 72
355
 73
356
 74
349
 0
VERTEX
 8
CUERPO.1
 10
0
 20
0
 30
0
 70
128
 71
352
 72
353
 73
355
 74
350
 0
VERTEX
 8
CUERPO.1
 10
0
 20
0
 30
0
 70
128
 71
349
 72
356
 73
354
 74
351
 0
VERTEX
 8
CUERPO.1
 10
0
 20
0
 30
0
 70
128
 71
357
 72
358
 73
360
 74
359
 0
VERTEX
 8
CUERPO.1
 10
0
 20
0
 30
0
 70
128
 71
359
 72
360
 73
362
 74
361
 0
VERTEX
 8
CUERPO.1
 10
0
 20
0
 30
0
 70
128
 71
361
 72
362
 73
364
 74
363
 0
VERTEX
 8
CUERPO.1
 10
0
 20
0
 30
0
 70
128
 71
363
 72
364
 73
366
 74
365
 0
VERTEX
 8
CUERPO.1
 10
0
 20
0
 30
0
 70
128
 71
365
 72
366
 73
368
 74
367
 0
VERTEX
 8
CUERPO.1
 10
0
 20
0
 30
0
 70
128
 71
367
 72
368
 73
358
 74
357
 0
VERTEX
 8
CUERPO.1
 10
0
 20
0
 30
0
 70
128
 71
358
 72
368
 73
366
 74
360
 0
VERTEX
 8
CUERPO.1
 10
0
 20
0
 30
0
 70
128
 71
360
 72
366
 73
364
 74
362
 0
VERTEX
 8
CUERPO.1
 10
0
 20
0
 30
0
 70
128
 71
367
 72
357
 73
359
 74
365
 0
VERTEX
 8
CUERPO.1
 10
0
 20
0
 30
0
 70
128
 71
365
 72
359
 73
361
 74
363
 0
VERTEX
 8
CUERPO.1
 10
0
 20
0
 30
0
 70
128
 71
369
 72
370
 73
372
 74
371
 0
VERTEX
 8
CUERPO.1
 10
0
 20
0
 30
0
 70
128
 71
371
 72
372
 73
374
 74
373
 0
VERTEX
 8
CUERPO.1
 10
0
 20
0
 30
0
 70
128
 71
373
 72
374
 73
376
 74
375
 0
VERTEX
 8
CUERPO.1
 10
0
 20
0
 30
0
 70
128
 71
375
 72
376
 73
370
 74
369
 0
VERTEX
 8
CUERPO.1
 10
0
 20
0
 30
0
 70
128
 71
370
 72
376
 73
374
 74
372
 0
VERTEX
 8
CUERPO.1
 10
0
 20
0
 30
0
 70
128
 71
375
 72
369
 73
371
 74
373
 0
SEQEND
 0
POLYLINE
 8
CUBO_1
 66
1
 10
0.0
 20
0.0
 30
0.0
 70
64
 71
8
 72
6
 0
VERTEX
 8
CUBO_1
 10
0.5581
 20
-0.0626
 30
2.0933
 70
192
 0
VERTEX
 8
CUBO_1
 10
0.7691
 20
-0.0626
 30
2.0877
 70
192
 0
VERTEX
 8
CUBO_1
 10
0.7991
 20
-0.0626
 30
1.6398
 70
192
 0
VERTEX
 8
CUBO_1
 10
0.9698
 20
-0.0626
 30
1.7305
 70
192
 0
VERTEX
 8
CUBO_1
 10
0.7991
 20
0.0626
 30
1.6398
 70
192
 0
VERTEX
 8
CUBO_1
 10
0.9698
 20
0.0626
 30
1.7305
 70
192
 0
VERTEX
 8
CUBO_1
 10
0.5581
 20
0.0626
 30
2.0933
 70
192
 0
VERTEX
 8
CUBO_1
 10
0.7691
 20
0.0626
 30
2.0877
 70
192
 0
VERTEX
 8
CUBO_1
 10
0
 20
0
 30
0
 70
128
 71
1
 72
2
 73
4
 74
3
 0
VERTEX
 8
CUBO_1
 10
0
 20
0
 30
0
 70
128
 71
3
 72
4
 73
6
 74
5
 0
VERTEX
 8
CUBO_1
 10
0
 20
0
 30
0
 70
128
 71
5
 72
6
 73
8
 74
7
 0
VERTEX
 8
CUBO_1
 10
0
 20
0
 30
0
 70
128
 71
7
 72
8
 73
2
 74
1
 0
VERTEX
 8
CUBO_1
 10
0
 20
0
 30
0
 70
128
 71
2
 72
8
 73
6
 74
4
 0
VERTEX
 8
CUBO_1
 10
0
 20
0
 30
0
 70
128
 71
7
 72
1
 73
3
 74
5
 0
SEQEND
 0
POLYLINE
 8
CUBO_2
 66
1
 10
0.0
 20
0.0
 30
0.0
 70
64
 71
56
 72
54
 0
VERTEX
 8
CUBO_2
 10
-0.5077
 20
-0.045
 30
2.0966
 70
192
 0
VERTEX
 8
CUBO_2
 10
-0.5077
 20
-0.0472
 30
2.1817
 70
192
 0
VERTEX
 8
CUBO_2
 10
-0.5077
 20
-0.0367
 30
2.2005
 70
192
 0
VERTEX
 8
CUBO_2
 10
-0.5077
 20
-0.0322
 30
2.2555
 70
192
 0
VERTEX
 8
CUBO_2
 10
-0.2812
 20
-0.0573
 30
2.0966
 70
192
 0
VERTEX
 8
CUBO_2
 10
-0.2812
 20
-0.0736
 30
2.1821
 70
192
 0
VERTEX
 8
CUBO_2
 10
-0.2812
 20
-0.0506
 30
2.1946
 70
192
 0
VERTEX
 8
CUBO_2
 10
-0.2812
 20
-0.046
 30
2.2784
 70
192
 0
VERTEX
 8
CUBO_2
 10
-0.0547
 20
-0.0736
 30
2.0577
 70
192
 0
VERTEX
 8
CUBO_2
 10
-0.0547
 20
-0.0736
 30
2.1821
 70
192
 0
VERTEX
 8
CUBO_2
 10
-0.0547
 20
-0.0506
 30
2.1946
 70
192
 0
VERTEX
 8
CUBO_2
 10
-0.0547
 20
-0.046
 30
2.2784
 70
192
 0
VERTEX
 8
CUBO_2
 10
0.0322
 20
-0.0736
 30
2.0831
 70
192
 0
VERTEX
 8
CUBO_2
 10
0.0323
 20
-0.0736
 30
2.179
 70
192
 0
VERTEX
 8
CUBO_2
 10
0.0179
 20
-0.0506
 30
2.2002
 70
192
 0
VERTEX
 8
CUBO_2
 10
0.067
 20
-0.046
 30
2.2784
 70
192
 0
VERTEX
 8
CUBO_2
 10
0.0322
 20
-0.0245
 30
2.0831
 70
192
 0
VERTEX
 8
CUBO_2
 10
0.0041
 20
-0.0245
 30
2.1368
 70
192
 0
VERTEX
 8
CUBO_2
 10
0.0222
 20
-0.0245
 30
2.1946
 70
192
 0
VERTEX
 8
CUBO_2
 10
0.063
 20
-0.0245
 30
2.2784
 70
192
 0
VERTEX
 8
CUBO_2
 10
0.0322
 20
0.0245
 30
2.0831
 70
192
 0
VERTEX
 8
CUBO_2
 10
-0.002
 20
0.0245
 30
2.1368
 70
192
 0
VERTEX
 8
CUBO_2
 10
0.024
 20
0.0245
 30
2.1946
 70
192
 0
VERTEX
 8
CUBO_2
 10
0.063
 20
0.0245
 30
2.2784
 70
192
 0
VERTEX
 8
CUBO_2
 10
0.0322
 20
0.0736
 30
2.0831
 70
192
 0
VERTEX
 8
CUBO_2
 10
0.0238
 20
0.0736
 30
2.1826
 70
192
 0
VERTEX
 8
CUBO_2
 10
0.0363
 20
0.052
 30
2.1946
 70
192
 0
VERTEX
 8
CUBO_2
 10
0.063
 20
0.052
 30
2.2784
 70
192
 0
VERTEX
 8
CUBO_2
 10
-0.0547
 20
0.0736
 30
2.0577
 70
192
 0
VERTEX
 8
CUBO_2
 10
-0.0547
 20
0.0736
 30
2.1826
 70
192
 0
VERTEX
 8
CUBO_2
 10
-0.0547
 20
0.052
 30
2.1946
 70
192
 0
VERTEX
 8
CUBO_2
 10
-0.0547
 20
0.052
 30
2.2784
 70
192
 0
VERTEX
 8
CUBO_2
 10
-0.2812
 20
0.0608
 30
2.0966
 70
192
 0
VERTEX
 8
CUBO_2
 10
-0.2812
 20
0.0736
 30
2.1826
 70
192
 0
VERTEX
 8
CUBO_2
 10
-0.2812
 20
0.052
 30
2.1946
 70
192
 0
VERTEX
 8
CUBO_2
 10
-0.2812
 20
0.052
 30
2.2784
 70
192
 0
VERTEX
 8
CUBO_2
 10
-0.5077
 20
0.0461
 30
2.0966
 70
192
 0
VERTEX
 8
CUBO_2
 10
-0.5077
 20
0.0461
 30
2.1798
 70
192
 0
VERTEX
 8
CUBO_2
 10
-0.5077
 20
0.0338
 30
2.1946
 70
192
 0
VERTEX
 8
CUBO_2
 10
-0.5077
 20
0.0338
 30
2.2538
 70
192
 0
VERTEX
 8
CUBO_2
 10
-0.5077
 20
0.0245
 30
2.0966
 70
192
 0
VERTEX
 8
CUBO_2
 10
-0.5077
 20
0.0245
 30
2.1798
 70
192
 0
VERTEX
 8
CUBO_2
 10
-0.5077
 20
0.0245
 30
2.1946
 70
192
 0
VERTEX
 8
CUBO_2
 10
-0.5077
 20
0.0245
 30
2.2659
 70
192
 0
VERTEX
 8
CUBO_2
 10
-0.5077
 20
-0.0245
 30
2.0966
 70
192
 0
VERTEX
 8
CUBO_2
 10
-0.5077
 20
-0.0245
 30
2.1817
 70
192
 0
VERTEX
 8
CUBO_2
 10
-0.5077
 20
-0.0245
 30
2.2005
 70
192
 0
VERTEX
 8
CUBO_2
 10
-0.5077
 20
-0.0245
 30
2.2653
 70
192
 0
VERTEX
 8
CUBO_2
 10
-0.2812
 20
-0.0245
 30
2.2784
 70
192
 0
VERTEX
 8
CUBO_2
 10
-0.2812
 20
0.0245
 30
2.2784
 70
192
 0
VERTEX
 8
CUBO_2
 10
-0.0547
 20
-0.0245
 30
2.2784
 70
192
 0
VERTEX
 8
CUBO_2
 10
-0.0547
 20
0.0245
 30
2.2784
 70
192
 0
VERTEX
 8
CUBO_2
 10
-0.2812
 20
0.0245
 30
2.0966
 70
192
 0
VERTEX
 8
CUBO_2
 10
-0.2812
 20
-0.0245
 30
2.0966
 70
192
 0
VERTEX
 8
CUBO_2
 10
-0.0547
 20
0.0245
 30
2.0577
 70
192
 0
VERTEX
 8
CUBO_2
 10
-0.0547
 20
-0.0245
 30
2.0577
 70
192
 0
VERTEX
 8
CUBO_2
 10
0
 20
0
 30
0
 70
128
 71
1
 72
2
 73
6
 74
5
 0
VERTEX
 8
CUBO_2
 10
0
 20
0
 30
0
 70
128
 71
5
 72
6
 73
10
 74
9
 0
VERTEX
 8
CUBO_2
 10
0
 20
0
 30
0
 70
128
 71
9
 72
10
 73
14
 74
13
 0
VERTEX
 8
CUBO_2
 10
0
 20
0
 30
0
 70
128
 71
2
 72
3
 73
7
 74
6
 0
VERTEX
 8
CUBO_2
 10
0
 20
0
 30
0
 70
128
 71
6
 72
7
 73
11
 74
10
 0
VERTEX
 8
CUBO_2
 10
0
 20
0
 30
0
 70
128
 71
10
 72
11
 73
15
 74
14
 0
VERTEX
 8
CUBO_2
 10
0
 20
0
 30
0
 70
128
 71
3
 72
4
 73
8
 74
7
 0
VERTEX
 8
CUBO_2
 10
0
 20
0
 30
0
 70
128
 71
7
 72
8
 73
12
 74
11
 0
VERTEX
 8
CUBO_2
 10
0
 20
0
 30
0
 70
128
 71
11
 72
12
 73
16
 74
15
 0
VERTEX
 8
CUBO_2
 10
0
 20
0
 30
0
 70
128
 71
13
 72
14
 73
18
 74
17
 0
VERTEX
 8
CUBO_2
 10
0
 20
0
 30
0
 70
128
 71
17
 72
18
 73
22
 74
21
 0
VERTEX
 8
CUBO_2
 10
0
 20
0
 30
0
 70
128
 71
21
 72
22
 73
26
 74
25
 0
VERTEX
 8
CUBO_2
 10
0
 20
0
 30
0
 70
128
 71
14
 72
15
 73
19
 74
18
 0
VERTEX
 8
CUBO_2
 10
0
 20
0
 30
0
 70
128
 71
18
 72
19
 73
23
 74
22
 0
VERTEX
 8
CUBO_2
 10
0
 20
0
 30
0
 70
128
 71
22
 72
23
 73
27
 74
26
 0
VERTEX
 8
CUBO_2
 10
0
 20
0
 30
0
 70
128
 71
15
 72
16
 73
20
 74
19
 0
VERTEX
 8
CUBO_2
 10
0
 20
0
 30
0
 70
128
 71
19
 72
20
 73
24
 74
23
 0
VERTEX
 8
CUBO_2
 10
0
 20
0
 30
0
 70
128
 71
23
 72
24
 73
28
 74
27
 0
VERTEX
 8
CUBO_2
 10
0
 20
0
 30
0
 70
128
 71
25
 72
26
 73
30
 74
29
 0
VERTEX
 8
CUBO_2
 10
0
 20
0
 30
0
 70
128
 71
29
 72
30
 73
34
 74
33
 0
VERTEX
 8
CUBO_2
 10
0
 20
0
 30
0
 70
128
 71
33
 72
34
 73
38
 74
37
 0
VERTEX
 8
CUBO_2
 10
0
 20
0
 30
0
 70
128
 71
26
 72
27
 73
31
 74
30
 0
VERTEX
 8
CUBO_2
 10
0
 20
0
 30
0
 70
128
 71
30
 72
31
 73
35
 74
34
 0
VERTEX
 8
CUBO_2
 10
0
 20
0
 30
0
 70
128
 71
34
 72
35
 73
39
 74
38
 0
VERTEX
 8
CUBO_2
 10
0
 20
0
 30
0
 70
128
 71
27
 72
28
 73
32
 74
31
 0
VERTEX
 8
CUBO_2
 10
0
 20
0
 30
0
 70
128
 71
31
 72
32
 73
36
 74
35
 0
VERTEX
 8
CUBO_2
 10
0
 20
0
 30
0
 70
128
 71
35
 72
36
 73
40
 74
39
 0
VERTEX
 8
CUBO_2
 10
0
 20
0
 30
0
 70
128
 71
37
 72
38
 73
42
 74
41
 0
VERTEX
 8
CUBO_2
 10
0
 20
0
 30
0
 70
128
 71
41
 72
42
 73
46
 74
45
 0
VERTEX
 8
CUBO_2
 10
0
 20
0
 30
0
 70
128
 71
45
 72
46
 73
2
 74
1
 0
VERTEX
 8
CUBO_2
 10
0
 20
0
 30
0
 70
128
 71
38
 72
39
 73
43
 74
42
 0
VERTEX
 8
CUBO_2
 10
0
 20
0
 30
0
 70
128
 71
42
 72
43
 73
47
 74
46
 0
VERTEX
 8
CUBO_2
 10
0
 20
0
 30
0
 70
128
 71
46
 72
47
 73
3
 74
2
 0
VERTEX
 8
CUBO_2
 10
0
 20
0
 30
0
 70
128
 71
39
 72
40
 73
44
 74
43
 0
VERTEX
 8
CUBO_2
 10
0
 20
0
 30
0
 70
128
 71
43
 72
44
 73
48
 74
47
 0
VERTEX
 8
CUBO_2
 10
0
 20
0
 30
0
 70
128
 71
47
 72
48
 73
4
 74
3
 0
VERTEX
 8
CUBO_2
 10
0
 20
0
 30
0
 70
128
 71
4
 72
48
 73
49
 74
8
 0
VERTEX
 8
CUBO_2
 10
0
 20
0
 30
0
 70
128
 71
8
 72
49
 73
51
 74
12
 0
VERTEX
 8
CUBO_2
 10
0
 20
0
 30
0
 70
128
 71
12
 72
51
 73
20
 74
16
 0
VERTEX
 8
CUBO_2
 10
0
 20
0
 30
0
 70
128
 71
48
 72
44
 73
50
 74
49
 0
VERTEX
 8
CUBO_2
 10
0
 20
0
 30
0
 70
128
 71
49
 72
50
 73
52
 74
51
 0
VERTEX
 8
CUBO_2
 10
0
 20
0
 30
0
 70
128
 71
51
 72
52
 73
24
 74
20
 0
VERTEX
 8
CUBO_2
 10
0
 20
0
 30
0
 70
128
 71
44
 72
40
 73
36
 74
50
 0
VERTEX
 8
CUBO_2
 10
0
 20
0
 30
0
 70
128
 71
50
 72
36
 73
32
 74
52
 0
VERTEX
 8
CUBO_2
 10
0
 20
0
 30
0
 70
128
 71
52
 72
32
 73
28
 74
24
 0
VERTEX
 8
CUBO_2
 10
0
 20
0
 30
0
 70
128
 71
37
 72
41
 73
53
 74
33
 0
VERTEX
 8
CUBO_2
 10
0
 20
0
 30
0
 70
128
 71
33
 72
53
 73
55
 74
29
 0
VERTEX
 8
CUBO_2
 10
0
 20
0
 30
0
 70
128
 71
29
 72
55
 73
21
 74
25
 0
VERTEX
 8
CUBO_2
 10
0
 20
0
 30
0
 70
128
 71
41
 72
45
 73
54
 74
53
 0
VERTEX
 8
CUBO_2
 10
0
 20
0
 30
0
 70
128
 71
53
 72
54
 73
56
 74
55
 0
VERTEX
 8
CUBO_2
 10
0
 20
0
 30
0
 70
128
 71
55
 72
56
 73
17
 74
21
 0
VERTEX
 8
CUBO_2
 10
0
 20
0
 30
0
 70
128
 71
45
 72
1
 73
5
 74
54
 0
VERTEX
 8
CUBO_2
 10
0
 20
0
 30
0
 70
128
 71
54
 72
5
 73
9
 74
56
 0
VERTEX
 8
CUBO_2
 10
0
 20
0
 30
0
 70
128
 71
56
 72
9
 73
13
 74
17
 0
SEQEND
 0
POLYLINE
 8
MIRA
 66
1
 10
0.0
 20
0.0
 30
0.0
 70
64
 71
32
 72
22
 0
VERTEX
 8
MIRA
 10
0.4628
 20
-0.0707
 30
2.2789
 70
192
 0
VERTEX
 8
MIRA
 10
0.4628
 20
-0.0707
 30
2.4131
 70
192
 0
VERTEX
 8
MIRA
 10
0.4966
 20
-0.0707
 30
2.2789
 70
192
 0
VERTEX
 8
MIRA
 10
0.4966
 20
-0.0707
 30
2.4131
 70
192
 0
VERTEX
 8
MIRA
 10
0.4966
 20
0.0707
 30
2.2789
 70
192
 0
VERTEX
 8
MIRA
 10
0.4966
 20
0.0707
 30
2.4131
 70
192
 0
VERTEX
 8
MIRA
 10
0.4628
 20
0.0707
 30
2.2789
 70
192
 0
VERTEX
 8
MIRA
 10
0.4628
 20
0.0707
 30
2.4131
 70
192
 0
VERTEX
 8
MIRA
 10
0.4966
 20
-0.0574
 30
2.4018
 70
192
 0
VERTEX
 8
MIRA
 10
0.4966
 20
-0.0574
 30
2.3171
 70
192
 0
VERTEX
 8
MIRA
 10
0.4966
 20
0.0574
 30
2.4018
 70
192
 0
VERTEX
 8
MIRA
 10
0.4966
 20
0.0574
 30
2.3171
 70
192
 0
VERTEX
 8
MIRA
 10
0.4628
 20
-0.0574
 30
2.4018
 70
192
 0
VERTEX
 8
MIRA
 10
0.4628
 20
-0.0574
 30
2.3171
 70
192
 0
VERTEX
 8
MIRA
 10
0.4628
 20
0.0574
 30
2.4018
 70
192
 0
VERTEX
 8
MIRA
 10
0.4628
 20
0.0574
 30
2.3171
 70
192
 0
VERTEX
 8
MIRA
 10
0.4966
 20
-0.0574
 30
2.4018
 70
192
 0
VERTEX
 8
MIRA
 10
0.4966
 20
-0.0574
 30
2.3171
 70
192
 0
VERTEX
 8
MIRA
 10
0.4966
 20
0.0574
 30
2.4018
 70
192
 0
VERTEX
 8
MIRA
 10
0.4966
 20
0.0574
 30
2.3171
 70
192
 0
VERTEX
 8
MIRA
 10
0.4628
 20
-0.0574
 30
2.4018
 70
192
 0
VERTEX
 8
MIRA
 10
0.4628
 20
-0.0574
 30
2.3171
 70
192
 0
VERTEX
 8
MIRA
 10
0.4628
 20
0.0574
 30
2.4018
 70
192
 0
VERTEX
 8
MIRA
 10
0.4628
 20
0.0574
 30
2.3171
 70
192
 0
VERTEX
 8
MIRA
 10
0.466
 20
-0.066
 30
2.2816
 70
192
 0
VERTEX
 8
MIRA
 10
0.466
 20
-0.066
 30
2.307
 70
192
 0
VERTEX
 8
MIRA
 10
0.7164
 20
-0.066
 30
2.2816
 70
192
 0
VERTEX
 8
MIRA
 10
0.7164
 20
-0.066
 30
2.307
 70
192
 0
VERTEX
 8
MIRA
 10
0.7164
 20
0.066
 30
2.2816
 70
192
 0
VERTEX
 8
MIRA
 10
0.7164
 20
0.066
 30
2.307
 70
192
 0
VERTEX
 8
MIRA
 10
0.466
 20
0.066
 30
2.2816
 70
192
 0
VERTEX
 8
MIRA
 10
0.466
 20
0.066
 30
2.307
 70
192
 0
VERTEX
 8
MIRA
 10
0
 20
0
 30
0
 70
128
 71
1
 72
2
 73
4
 74
3
 0
VERTEX
 8
MIRA
 10
0
 20
0
 30
0
 70
128
 71
10
 72
12
 73
5
 74
3
 0
VERTEX
 8
MIRA
 10
0
 20
0
 30
0
 70
128
 71
6
 72
5
 73
12
 74
11
 0
VERTEX
 8
MIRA
 10
0
 20
0
 30
0
 70
128
 71
4
 72
6
 73
11
 74
9
 0
VERTEX
 8
MIRA
 10
0
 20
0
 30
0
 70
128
 71
9
 72
10
 73
3
 74
4
 0
VERTEX
 8
MIRA
 10
0
 20
0
 30
0
 70
128
 71
5
 72
6
 73
8
 74
7
 0
VERTEX
 8
MIRA
 10
0
 20
0
 30
0
 70
128
 71
16
 72
14
 73
1
 74
7
 0
VERTEX
 8
MIRA
 10
0
 20
0
 30
0
 70
128
 71
2
 72
1
 73
14
 74
13
 0
VERTEX
 8
MIRA
 10
0
 20
0
 30
0
 70
128
 71
8
 72
2
 73
13
 74
15
 0
VERTEX
 8
MIRA
 10
0
 20
0
 30
0
 70
128
 71
15
 72
16
 73
7
 74
8
 0
VERTEX
 8
MIRA
 10
0
 20
0
 30
0
 70
128
 71
2
 72
8
 73
6
 74
4
 0
VERTEX
 8
MIRA
 10
0
 20
0
 30
0
 70
128
 71
7
 72
1
 73
3
 74
5
 0
VERTEX
 8
MIRA
 10
0
 20
0
 30
0
 70
128
 71
17
 72
21
 73
22
 74
18
 0
VERTEX
 8
MIRA
 10
0
 20
0
 30
0
 70
128
 71
20
 72
24
 73
23
 74
19
 0
VERTEX
 8
MIRA
 10
0
 20
0
 30
0
 70
128
 71
19
 72
23
 73
21
 74
17
 0
VERTEX
 8
MIRA
 10
0
 20
0
 30
0
 70
128
 71
24
 72
20
 73
18
 74
22
 0
VERTEX
 8
MIRA
 10
0
 20
0
 30
0
 70
128
 71
25
 72
26
 73
28
 74
27
 0
VERTEX
 8
MIRA
 10
0
 20
0
 30
0
 70
128
 71
27
 72
28
 73
30
 74
29
 0
VERTEX
 8
MIRA
 10
0
 20
0
 30
0
 70
128
 71
29
 72
30
 73
32
 74
31
 0
VERTEX
 8
MIRA
 10
0
 20
0
 30
0
 70
128
 71
31
 72
32
 73
26
 74
25
 0
VERTEX
 8
MIRA
 10
0
 20
0
 30
0
 70
128
 71
26
 72
32
 73
30
 74
28
 0
VERTEX
 8
MIRA
 10
0
 20
0
 30
0
 70
128
 71
31
 72
25
 73
27
 74
29
 0
SEQEND
 0
POLYLINE
 8
CUBO_5
 66
1
 10
0.0
 20
0.0
 30
0.0
 70
64
 71
8
 72
6
 0
VERTEX
 8
CUBO_5
 10
0.0699
 20
0.0418
 30
2.1929
 70
192
 0
VERTEX
 8
CUBO_5
 10
0.0699
 20
0.0418
 30
2.2485
 70
192
 0
VERTEX
 8
CUBO_5
 10
0.317
 20
0.0418
 30
2.1929
 70
192
 0
VERTEX
 8
CUBO_5
 10
0.317
 20
0.0418
 30
2.2485
 70
192
 0
VERTEX
 8
CUBO_5
 10
0.317
 20
0.0616
 30
2.1929
 70
192
 0
VERTEX
 8
CUBO_5
 10
0.317
 20
0.0616
 30
2.2485
 70
192
 0
VERTEX
 8
CUBO_5
 10
0.0699
 20
0.0616
 30
2.1929
 70
192
 0
VERTEX
 8
CUBO_5
 10
0.0699
 20
0.0616
 30
2.2485
 70
192
 0
VERTEX
 8
CUBO_5
 10
0
 20
0
 30
0
 70
128
 71
1
 72
2
 73
4
 74
3
 0
VERTEX
 8
CUBO_5
 10
0
 20
0
 30
0
 70
128
 71
3
 72
4
 73
6
 74
5
 0
VERTEX
 8
CUBO_5
 10
0
 20
0
 30
0
 70
128
 71
5
 72
6
 73
8
 74
7
 0
VERTEX
 8
CUBO_5
 10
0
 20
0
 30
0
 70
128
 71
7
 72
8
 73
2
 74
1
 0
VERTEX
 8
CUBO_5
 10
0
 20
0
 30
0
 70
128
 71
2
 72
8
 73
6
 74
4
 0
VERTEX
 8
CUBO_5
 10
0
 20
0
 30
0
 70
128
 71
7
 72
1
 73
3
 74
5
 0
SEQEND
 0
POLYLINE
 8
CARGADOR
 66
1
 10
0.0
 20
0.0
 30
0.0
 70
64
 71
12
 72
10
 0
VERTEX
 8
CARGADOR
 10
-0.0514
 20
-0.0418
 30
1.6599
 70
192
 0
VERTEX
 8
CARGADOR
 10
0.07
 20
-0.043
 30
1.8954
 70
192
 0
VERTEX
 8
CARGADOR
 10
0.1029
 20
-0.043
 30
2.1009
 70
192
 0
VERTEX
 8
CARGADOR
 10
0.1254
 20
-0.0597
 30
1.5589
 70
192
 0
VERTEX
 8
CARGADOR
 10
0.2719
 20
-0.043
 30
1.8632
 70
192
 0
VERTEX
 8
CARGADOR
 10
0.3047
 20
-0.043
 30
2.0686
 70
192
 0
VERTEX
 8
CARGADOR
 10
0.1305
 20
0.0258
 30
1.5527
 70
192
 0
VERTEX
 8
CARGADOR
 10
0.2719
 20
0.043
 30
1.8632
 70
192
 0
VERTEX
 8
CARGADOR
 10
0.3047
 20
0.043
 30
2.0686
 70
192
 0
VERTEX
 8
CARGADOR
 10
-0.0462
 20
0.0438
 30
1.6537
 70
192
 0
VERTEX
 8
CARGADOR
 10
0.07
 20
0.043
 30
1.8954
 70
192
 0
VERTEX
 8
CARGADOR
 10
0.1029
 20
0.043
 30
2.1009
 70
192
 0
VERTEX
 8
CARGADOR
 10
0
 20
0
 30
0
 70
128
 71
1
 72
2
 73
5
 74
4
 0
VERTEX
 8
CARGADOR
 10
0
 20
0
 30
0
 70
128
 71
2
 72
3
 73
6
 74
5
 0
VERTEX
 8
CARGADOR
 10
0
 20
0
 30
0
 70
128
 71
4
 72
5
 73
8
 74
7
 0
VERTEX
 8
CARGADOR
 10
0
 20
0
 30
0
 70
128
 71
5
 72
6
 73
9
 74
8
 0
VERTEX
 8
CARGADOR
 10
0
 20
0
 30
0
 70
128
 71
7
 72
8
 73
11
 74
10
 0
VERTEX
 8
CARGADOR
 10
0
 20
0
 30
0
 70
128
 71
8
 72
9
 73
12
 74
11
 0
VERTEX
 8
CARGADOR
 10
0
 20
0
 30
0
 70
128
 71
10
 72
11
 73
2
 74
1
 0
VERTEX
 8
CARGADOR
 10
0
 20
0
 30
0
 70
128
 71
11
 72
12
 73
3
 74
2
 0
VERTEX
 8
CARGADOR
 10
0
 20
0
 30
0
 70
128
 71
3
 72
12
 73
9
 74
6
 0
VERTEX
 8
CARGADOR
 10
0
 20
0
 30
0
 70
128
 71
10
 72
1
 73
4
 74
7
 0
SEQEND
 0
ENDSEC
 0
EOF
