 0
SECTION
 2
HEADER
 9
$ACADVER
 1
AC1009
 0
ENDSEC
 0
SECTION
 2
TABLES
 0
TABLE
 2
LTYPE
 70
1
 0
LTYPE
 2
CONTINUOUS
 70
64
 3
solid line
 72
65
 73
0
 40
0.0
 0
ENDTAB
 0
TABLE
 2
LAYER
 70
6
 0
LAYER
 2
0
 70
0
 62
7
 6
CONTINUOUS
 0
LAYER
 2
P_1
 70
64
 62
7
 6
CONTINUOUS
 0
LAYER
 2
CUERPO
 70
64
 62
99
 6
CONTINUOUS
 0
LAYER
 2
CARGADOR
 70
64
 62
99
 6
CONTINUOUS
 0
LAYER
 2
GATILLO
 70
64
 62
99
 6
CONTINUOUS
 0
LAYER
 2
CUBO_2
 70
64
 62
252
 6
CONTINUOUS
 0
ENDTAB
 0
ENDSEC
 0
SECTION
 2
BLOCKS
 0
ENDSEC
 0
SECTION
 2
ENTITIES
 0
POLYLINE
 8
CUERPO
 66
1
 10
0.0
 20
0.0
 30
0.0
 70
64
 71
485
 72
330
 0
VERTEX
 8
CUERPO
 10
-0.0849
 20
-0.4146
 30
0.3974
 70
192
 0
VERTEX
 8
CUERPO
 10
-0.0849
 20
-0.4146
 30
0.4264
 70
192
 0
VERTEX
 8
CUERPO
 10
0.0849
 20
-0.4146
 30
0.3974
 70
192
 0
VERTEX
 8
CUERPO
 10
0.0849
 20
-0.4146
 30
0.4264
 70
192
 0
VERTEX
 8
CUERPO
 10
0.0849
 20
-0.0779
 30
0.3974
 70
192
 0
VERTEX
 8
CUERPO
 10
0.0849
 20
-0.0932
 30
0.4264
 70
192
 0
VERTEX
 8
CUERPO
 10
-0.0849
 20
-0.0779
 30
0.3974
 70
192
 0
VERTEX
 8
CUERPO
 10
-0.0849
 20
-0.0932
 30
0.4264
 70
192
 0
VERTEX
 8
CUERPO
 10
0.0798
 20
0.0578
 30
0.6744
 70
192
 0
VERTEX
 8
CUERPO
 10
0.0849
 20
0.0262
 30
0.6792
 70
192
 0
VERTEX
 8
CUERPO
 10
-0.09
 20
0.0578
 30
0.6744
 70
192
 0
VERTEX
 8
CUERPO
 10
-0.0849
 20
0.0262
 30
0.6792
 70
192
 0
VERTEX
 8
CUERPO
 10
0.0611
 20
1.0346
 30
0.9707
 70
192
 0
VERTEX
 8
CUERPO
 10
0.084
 20
1.0346
 30
0.9707
 70
192
 0
VERTEX
 8
CUERPO
 10
0.084
 20
1.0346
 30
0.9707
 70
192
 0
VERTEX
 8
CUERPO
 10
0.084
 20
0.2446
 30
0.9707
 70
192
 0
VERTEX
 8
CUERPO
 10
0.084
 20
0.2446
 30
0.9707
 70
192
 0
VERTEX
 8
CUERPO
 10
0.0611
 20
0.2446
 30
0.9707
 70
192
 0
VERTEX
 8
CUERPO
 10
0.0611
 20
0.2446
 30
0.9707
 70
192
 0
VERTEX
 8
CUERPO
 10
0.0611
 20
1.0346
 30
0.9707
 70
192
 0
VERTEX
 8
CUERPO
 10
0.0602
 20
1.0346
 30
0.9813
 70
192
 0
VERTEX
 8
CUERPO
 10
0.0827
 20
1.0346
 30
0.9852
 70
192
 0
VERTEX
 8
CUERPO
 10
0.0827
 20
1.0346
 30
0.9852
 70
192
 0
VERTEX
 8
CUERPO
 10
0.0827
 20
0.2446
 30
0.9852
 70
192
 0
VERTEX
 8
CUERPO
 10
0.0827
 20
0.2446
 30
0.9852
 70
192
 0
VERTEX
 8
CUERPO
 10
0.0602
 20
0.2446
 30
0.9813
 70
192
 0
VERTEX
 8
CUERPO
 10
0.0602
 20
0.2446
 30
0.9813
 70
192
 0
VERTEX
 8
CUERPO
 10
0.0602
 20
1.0346
 30
0.9813
 70
192
 0
VERTEX
 8
CUERPO
 10
0.0574
 20
1.0346
 30
0.9916
 70
192
 0
VERTEX
 8
CUERPO
 10
0.0789
 20
1.0346
 30
0.9994
 70
192
 0
VERTEX
 8
CUERPO
 10
0.0789
 20
1.0346
 30
0.9994
 70
192
 0
VERTEX
 8
CUERPO
 10
0.0789
 20
0.2446
 30
0.9994
 70
192
 0
VERTEX
 8
CUERPO
 10
0.0789
 20
0.2446
 30
0.9994
 70
192
 0
VERTEX
 8
CUERPO
 10
0.0574
 20
0.2446
 30
0.9916
 70
192
 0
VERTEX
 8
CUERPO
 10
0.0574
 20
0.2446
 30
0.9916
 70
192
 0
VERTEX
 8
CUERPO
 10
0.0574
 20
1.0346
 30
0.9916
 70
192
 0
VERTEX
 8
CUERPO
 10
0.0529
 20
1.0346
 30
1.0012
 70
192
 0
VERTEX
 8
CUERPO
 10
0.0727
 20
1.0346
 30
1.0126
 70
192
 0
VERTEX
 8
CUERPO
 10
0.0727
 20
1.0346
 30
1.0126
 70
192
 0
VERTEX
 8
CUERPO
 10
0.0727
 20
0.2446
 30
1.0126
 70
192
 0
VERTEX
 8
CUERPO
 10
0.0727
 20
0.2446
 30
1.0126
 70
192
 0
VERTEX
 8
CUERPO
 10
0.0529
 20
0.2446
 30
1.0012
 70
192
 0
VERTEX
 8
CUERPO
 10
0.0529
 20
0.2446
 30
1.0012
 70
192
 0
VERTEX
 8
CUERPO
 10
0.0529
 20
1.0346
 30
1.0012
 70
192
 0
VERTEX
 8
CUERPO
 10
0.0468
 20
1.0346
 30
1.0099
 70
192
 0
VERTEX
 8
CUERPO
 10
0.0643
 20
1.0346
 30
1.0246
 70
192
 0
VERTEX
 8
CUERPO
 10
0.0643
 20
1.0346
 30
1.0246
 70
192
 0
VERTEX
 8
CUERPO
 10
0.0643
 20
0.2446
 30
1.0246
 70
192
 0
VERTEX
 8
CUERPO
 10
0.0643
 20
0.2446
 30
1.0246
 70
192
 0
VERTEX
 8
CUERPO
 10
0.0468
 20
0.2446
 30
1.0099
 70
192
 0
VERTEX
 8
CUERPO
 10
0.0468
 20
0.2446
 30
1.0099
 70
192
 0
VERTEX
 8
CUERPO
 10
0.0468
 20
1.0346
 30
1.0099
 70
192
 0
VERTEX
 8
CUERPO
 10
0.0393
 20
1.0346
 30
1.0175
 70
192
 0
VERTEX
 8
CUERPO
 10
0.054
 20
1.0346
 30
1.035
 70
192
 0
VERTEX
 8
CUERPO
 10
0.054
 20
1.0346
 30
1.035
 70
192
 0
VERTEX
 8
CUERPO
 10
0.054
 20
0.2446
 30
1.035
 70
192
 0
VERTEX
 8
CUERPO
 10
0.054
 20
0.2446
 30
1.035
 70
192
 0
VERTEX
 8
CUERPO
 10
0.0393
 20
0.2446
 30
1.0175
 70
192
 0
VERTEX
 8
CUERPO
 10
0.0393
 20
0.2446
 30
1.0175
 70
192
 0
VERTEX
 8
CUERPO
 10
0.0393
 20
1.0346
 30
1.0175
 70
192
 0
VERTEX
 8
CUERPO
 10
0.0306
 20
1.0346
 30
1.0236
 70
192
 0
VERTEX
 8
CUERPO
 10
0.042
 20
1.0346
 30
1.0434
 70
192
 0
VERTEX
 8
CUERPO
 10
0.042
 20
1.0346
 30
1.0434
 70
192
 0
VERTEX
 8
CUERPO
 10
0.042
 20
0.2446
 30
1.0434
 70
192
 0
VERTEX
 8
CUERPO
 10
0.042
 20
0.2446
 30
1.0434
 70
192
 0
VERTEX
 8
CUERPO
 10
0.0306
 20
0.2446
 30
1.0236
 70
192
 0
VERTEX
 8
CUERPO
 10
0.0306
 20
0.2446
 30
1.0236
 70
192
 0
VERTEX
 8
CUERPO
 10
0.0306
 20
1.0346
 30
1.0236
 70
192
 0
VERTEX
 8
CUERPO
 10
0.0209
 20
1.0346
 30
1.0281
 70
192
 0
VERTEX
 8
CUERPO
 10
0.0287
 20
1.0346
 30
1.0496
 70
192
 0
VERTEX
 8
CUERPO
 10
0.0287
 20
1.0346
 30
1.0496
 70
192
 0
VERTEX
 8
CUERPO
 10
0.0287
 20
0.2446
 30
1.0496
 70
192
 0
VERTEX
 8
CUERPO
 10
0.0287
 20
0.2446
 30
1.0496
 70
192
 0
VERTEX
 8
CUERPO
 10
0.0209
 20
0.2446
 30
1.0281
 70
192
 0
VERTEX
 8
CUERPO
 10
0.0209
 20
0.2446
 30
1.0281
 70
192
 0
VERTEX
 8
CUERPO
 10
0.0209
 20
1.0346
 30
1.0281
 70
192
 0
VERTEX
 8
CUERPO
 10
0.0106
 20
1.0346
 30
1.0309
 70
192
 0
VERTEX
 8
CUERPO
 10
0.0146
 20
1.0346
 30
1.0534
 70
192
 0
VERTEX
 8
CUERPO
 10
0.0146
 20
1.0346
 30
1.0534
 70
192
 0
VERTEX
 8
CUERPO
 10
0.0146
 20
0.2446
 30
1.0534
 70
192
 0
VERTEX
 8
CUERPO
 10
0.0146
 20
0.2446
 30
1.0534
 70
192
 0
VERTEX
 8
CUERPO
 10
0.0106
 20
0.2446
 30
1.0309
 70
192
 0
VERTEX
 8
CUERPO
 10
0.0106
 20
0.2446
 30
1.0309
 70
192
 0
VERTEX
 8
CUERPO
 10
0.0106
 20
1.0346
 30
1.0309
 70
192
 0
VERTEX
 8
CUERPO
 10
0
 20
1.0346
 30
1.0318
 70
192
 0
VERTEX
 8
CUERPO
 10
0
 20
1.0346
 30
1.0546
 70
192
 0
VERTEX
 8
CUERPO
 10
0
 20
1.0346
 30
1.0546
 70
192
 0
VERTEX
 8
CUERPO
 10
0
 20
0.2446
 30
1.0546
 70
192
 0
VERTEX
 8
CUERPO
 10
0
 20
0.2446
 30
1.0546
 70
192
 0
VERTEX
 8
CUERPO
 10
0
 20
0.2446
 30
1.0318
 70
192
 0
VERTEX
 8
CUERPO
 10
0
 20
0.2446
 30
1.0318
 70
192
 0
VERTEX
 8
CUERPO
 10
0
 20
1.0346
 30
1.0318
 70
192
 0
VERTEX
 8
CUERPO
 10
-0.0106
 20
1.0346
 30
1.0309
 70
192
 0
VERTEX
 8
CUERPO
 10
-0.0146
 20
1.0346
 30
1.0534
 70
192
 0
VERTEX
 8
CUERPO
 10
-0.0146
 20
1.0346
 30
1.0534
 70
192
 0
VERTEX
 8
CUERPO
 10
-0.0146
 20
0.2446
 30
1.0534
 70
192
 0
VERTEX
 8
CUERPO
 10
-0.0146
 20
0.2446
 30
1.0534
 70
192
 0
VERTEX
 8
CUERPO
 10
-0.0106
 20
0.2446
 30
1.0309
 70
192
 0
VERTEX
 8
CUERPO
 10
-0.0106
 20
0.2446
 30
1.0309
 70
192
 0
VERTEX
 8
CUERPO
 10
-0.0106
 20
1.0346
 30
1.0309
 70
192
 0
VERTEX
 8
CUERPO
 10
-0.0209
 20
1.0346
 30
1.0281
 70
192
 0
VERTEX
 8
CUERPO
 10
-0.0287
 20
1.0346
 30
1.0496
 70
192
 0
VERTEX
 8
CUERPO
 10
-0.0287
 20
1.0346
 30
1.0496
 70
192
 0
VERTEX
 8
CUERPO
 10
-0.0287
 20
0.2446
 30
1.0496
 70
192
 0
VERTEX
 8
CUERPO
 10
-0.0287
 20
0.2446
 30
1.0496
 70
192
 0
VERTEX
 8
CUERPO
 10
-0.0209
 20
0.2446
 30
1.0281
 70
192
 0
VERTEX
 8
CUERPO
 10
-0.0209
 20
0.2446
 30
1.0281
 70
192
 0
VERTEX
 8
CUERPO
 10
-0.0209
 20
1.0346
 30
1.0281
 70
192
 0
VERTEX
 8
CUERPO
 10
-0.0306
 20
1.0346
 30
1.0236
 70
192
 0
VERTEX
 8
CUERPO
 10
-0.042
 20
1.0346
 30
1.0434
 70
192
 0
VERTEX
 8
CUERPO
 10
-0.042
 20
1.0346
 30
1.0434
 70
192
 0
VERTEX
 8
CUERPO
 10
-0.042
 20
0.2446
 30
1.0434
 70
192
 0
VERTEX
 8
CUERPO
 10
-0.042
 20
0.2446
 30
1.0434
 70
192
 0
VERTEX
 8
CUERPO
 10
-0.0306
 20
0.2446
 30
1.0236
 70
192
 0
VERTEX
 8
CUERPO
 10
-0.0306
 20
0.2446
 30
1.0236
 70
192
 0
VERTEX
 8
CUERPO
 10
-0.0306
 20
1.0346
 30
1.0236
 70
192
 0
VERTEX
 8
CUERPO
 10
-0.0393
 20
1.0346
 30
1.0175
 70
192
 0
VERTEX
 8
CUERPO
 10
-0.054
 20
1.0346
 30
1.035
 70
192
 0
VERTEX
 8
CUERPO
 10
-0.054
 20
1.0346
 30
1.035
 70
192
 0
VERTEX
 8
CUERPO
 10
-0.054
 20
0.2446
 30
1.035
 70
192
 0
VERTEX
 8
CUERPO
 10
-0.054
 20
0.2446
 30
1.035
 70
192
 0
VERTEX
 8
CUERPO
 10
-0.0393
 20
0.2446
 30
1.0175
 70
192
 0
VERTEX
 8
CUERPO
 10
-0.0393
 20
0.2446
 30
1.0175
 70
192
 0
VERTEX
 8
CUERPO
 10
-0.0393
 20
1.0346
 30
1.0175
 70
192
 0
VERTEX
 8
CUERPO
 10
-0.0468
 20
1.0346
 30
1.0099
 70
192
 0
VERTEX
 8
CUERPO
 10
-0.0643
 20
1.0346
 30
1.0246
 70
192
 0
VERTEX
 8
CUERPO
 10
-0.0643
 20
1.0346
 30
1.0246
 70
192
 0
VERTEX
 8
CUERPO
 10
-0.0643
 20
0.2446
 30
1.0246
 70
192
 0
VERTEX
 8
CUERPO
 10
-0.0643
 20
0.2446
 30
1.0246
 70
192
 0
VERTEX
 8
CUERPO
 10
-0.0468
 20
0.2446
 30
1.0099
 70
192
 0
VERTEX
 8
CUERPO
 10
-0.0468
 20
0.2446
 30
1.0099
 70
192
 0
VERTEX
 8
CUERPO
 10
-0.0468
 20
1.0346
 30
1.0099
 70
192
 0
VERTEX
 8
CUERPO
 10
-0.0529
 20
1.0346
 30
1.0012
 70
192
 0
VERTEX
 8
CUERPO
 10
-0.0727
 20
1.0346
 30
1.0126
 70
192
 0
VERTEX
 8
CUERPO
 10
-0.0727
 20
1.0346
 30
1.0126
 70
192
 0
VERTEX
 8
CUERPO
 10
-0.0727
 20
0.2446
 30
1.0126
 70
192
 0
VERTEX
 8
CUERPO
 10
-0.0727
 20
0.2446
 30
1.0126
 70
192
 0
VERTEX
 8
CUERPO
 10
-0.0529
 20
0.2446
 30
1.0012
 70
192
 0
VERTEX
 8
CUERPO
 10
-0.0529
 20
0.2446
 30
1.0012
 70
192
 0
VERTEX
 8
CUERPO
 10
-0.0529
 20
1.0346
 30
1.0012
 70
192
 0
VERTEX
 8
CUERPO
 10
-0.0574
 20
1.0346
 30
0.9916
 70
192
 0
VERTEX
 8
CUERPO
 10
-0.0789
 20
1.0346
 30
0.9994
 70
192
 0
VERTEX
 8
CUERPO
 10
-0.0789
 20
1.0346
 30
0.9994
 70
192
 0
VERTEX
 8
CUERPO
 10
-0.0789
 20
0.2446
 30
0.9994
 70
192
 0
VERTEX
 8
CUERPO
 10
-0.0789
 20
0.2446
 30
0.9994
 70
192
 0
VERTEX
 8
CUERPO
 10
-0.0574
 20
0.2446
 30
0.9916
 70
192
 0
VERTEX
 8
CUERPO
 10
-0.0574
 20
0.2446
 30
0.9916
 70
192
 0
VERTEX
 8
CUERPO
 10
-0.0574
 20
1.0346
 30
0.9916
 70
192
 0
VERTEX
 8
CUERPO
 10
-0.0602
 20
1.0346
 30
0.9813
 70
192
 0
VERTEX
 8
CUERPO
 10
-0.0827
 20
1.0346
 30
0.9852
 70
192
 0
VERTEX
 8
CUERPO
 10
-0.0827
 20
1.0346
 30
0.9852
 70
192
 0
VERTEX
 8
CUERPO
 10
-0.0827
 20
0.2446
 30
0.9852
 70
192
 0
VERTEX
 8
CUERPO
 10
-0.0827
 20
0.2446
 30
0.9852
 70
192
 0
VERTEX
 8
CUERPO
 10
-0.0602
 20
0.2446
 30
0.9813
 70
192
 0
VERTEX
 8
CUERPO
 10
-0.0602
 20
0.2446
 30
0.9813
 70
192
 0
VERTEX
 8
CUERPO
 10
-0.0602
 20
1.0346
 30
0.9813
 70
192
 0
VERTEX
 8
CUERPO
 10
-0.0611
 20
1.0346
 30
0.9707
 70
192
 0
VERTEX
 8
CUERPO
 10
-0.084
 20
1.0346
 30
0.9707
 70
192
 0
VERTEX
 8
CUERPO
 10
-0.084
 20
1.0346
 30
0.9707
 70
192
 0
VERTEX
 8
CUERPO
 10
-0.084
 20
0.2446
 30
0.9707
 70
192
 0
VERTEX
 8
CUERPO
 10
-0.084
 20
0.2446
 30
0.9707
 70
192
 0
VERTEX
 8
CUERPO
 10
-0.0611
 20
0.2446
 30
0.9707
 70
192
 0
VERTEX
 8
CUERPO
 10
-0.0611
 20
0.2446
 30
0.9707
 70
192
 0
VERTEX
 8
CUERPO
 10
-0.0611
 20
1.0346
 30
0.9707
 70
192
 0
VERTEX
 8
CUERPO
 10
-0.0602
 20
1.0346
 30
0.96
 70
192
 0
VERTEX
 8
CUERPO
 10
-0.0827
 20
1.0346
 30
0.9561
 70
192
 0
VERTEX
 8
CUERPO
 10
-0.0827
 20
1.0346
 30
0.9561
 70
192
 0
VERTEX
 8
CUERPO
 10
-0.0827
 20
0.2446
 30
0.9561
 70
192
 0
VERTEX
 8
CUERPO
 10
-0.0827
 20
0.2446
 30
0.9561
 70
192
 0
VERTEX
 8
CUERPO
 10
-0.0602
 20
0.2446
 30
0.96
 70
192
 0
VERTEX
 8
CUERPO
 10
-0.0602
 20
0.2446
 30
0.96
 70
192
 0
VERTEX
 8
CUERPO
 10
-0.0602
 20
1.0346
 30
0.96
 70
192
 0
VERTEX
 8
CUERPO
 10
-0.0574
 20
1.0346
 30
0.9497
 70
192
 0
VERTEX
 8
CUERPO
 10
-0.0789
 20
1.0346
 30
0.9419
 70
192
 0
VERTEX
 8
CUERPO
 10
-0.0789
 20
1.0346
 30
0.9419
 70
192
 0
VERTEX
 8
CUERPO
 10
-0.0789
 20
0.2446
 30
0.9419
 70
192
 0
VERTEX
 8
CUERPO
 10
-0.0789
 20
0.2446
 30
0.9419
 70
192
 0
VERTEX
 8
CUERPO
 10
-0.0574
 20
0.2446
 30
0.9497
 70
192
 0
VERTEX
 8
CUERPO
 10
-0.0574
 20
0.2446
 30
0.9497
 70
192
 0
VERTEX
 8
CUERPO
 10
-0.0574
 20
1.0346
 30
0.9497
 70
192
 0
VERTEX
 8
CUERPO
 10
-0.0529
 20
1.0346
 30
0.9401
 70
192
 0
VERTEX
 8
CUERPO
 10
-0.0727
 20
1.0346
 30
0.9287
 70
192
 0
VERTEX
 8
CUERPO
 10
-0.0727
 20
1.0346
 30
0.9287
 70
192
 0
VERTEX
 8
CUERPO
 10
-0.0727
 20
0.2446
 30
0.9287
 70
192
 0
VERTEX
 8
CUERPO
 10
-0.0727
 20
0.2446
 30
0.9287
 70
192
 0
VERTEX
 8
CUERPO
 10
-0.0529
 20
0.2446
 30
0.9401
 70
192
 0
VERTEX
 8
CUERPO
 10
-0.0529
 20
0.2446
 30
0.9401
 70
192
 0
VERTEX
 8
CUERPO
 10
-0.0529
 20
1.0346
 30
0.9401
 70
192
 0
VERTEX
 8
CUERPO
 10
-0.0468
 20
1.0346
 30
0.9314
 70
192
 0
VERTEX
 8
CUERPO
 10
-0.0643
 20
1.0346
 30
0.9167
 70
192
 0
VERTEX
 8
CUERPO
 10
-0.0643
 20
1.0346
 30
0.9167
 70
192
 0
VERTEX
 8
CUERPO
 10
-0.0643
 20
0.2446
 30
0.9167
 70
192
 0
VERTEX
 8
CUERPO
 10
-0.0643
 20
0.2446
 30
0.9167
 70
192
 0
VERTEX
 8
CUERPO
 10
-0.0468
 20
0.2446
 30
0.9314
 70
192
 0
VERTEX
 8
CUERPO
 10
-0.0468
 20
0.2446
 30
0.9314
 70
192
 0
VERTEX
 8
CUERPO
 10
-0.0468
 20
1.0346
 30
0.9314
 70
192
 0
VERTEX
 8
CUERPO
 10
-0.0393
 20
1.0346
 30
0.9238
 70
192
 0
VERTEX
 8
CUERPO
 10
-0.054
 20
1.0346
 30
0.9063
 70
192
 0
VERTEX
 8
CUERPO
 10
-0.054
 20
1.0346
 30
0.9063
 70
192
 0
VERTEX
 8
CUERPO
 10
-0.054
 20
0.2446
 30
0.9063
 70
192
 0
VERTEX
 8
CUERPO
 10
-0.054
 20
0.2446
 30
0.9063
 70
192
 0
VERTEX
 8
CUERPO
 10
-0.0393
 20
0.2446
 30
0.9238
 70
192
 0
VERTEX
 8
CUERPO
 10
-0.0393
 20
0.2446
 30
0.9238
 70
192
 0
VERTEX
 8
CUERPO
 10
-0.0393
 20
1.0346
 30
0.9238
 70
192
 0
VERTEX
 8
CUERPO
 10
-0.0306
 20
1.0346
 30
0.9177
 70
192
 0
VERTEX
 8
CUERPO
 10
-0.042
 20
1.0346
 30
0.8979
 70
192
 0
VERTEX
 8
CUERPO
 10
-0.042
 20
1.0346
 30
0.8979
 70
192
 0
VERTEX
 8
CUERPO
 10
-0.042
 20
0.2446
 30
0.8979
 70
192
 0
VERTEX
 8
CUERPO
 10
-0.042
 20
0.2446
 30
0.8979
 70
192
 0
VERTEX
 8
CUERPO
 10
-0.0306
 20
0.2446
 30
0.9177
 70
192
 0
VERTEX
 8
CUERPO
 10
-0.0306
 20
0.2446
 30
0.9177
 70
192
 0
VERTEX
 8
CUERPO
 10
-0.0306
 20
1.0346
 30
0.9177
 70
192
 0
VERTEX
 8
CUERPO
 10
-0.0209
 20
1.0346
 30
0.9132
 70
192
 0
VERTEX
 8
CUERPO
 10
-0.0287
 20
1.0346
 30
0.8917
 70
192
 0
VERTEX
 8
CUERPO
 10
-0.0287
 20
1.0346
 30
0.8917
 70
192
 0
VERTEX
 8
CUERPO
 10
-0.0287
 20
0.2446
 30
0.8917
 70
192
 0
VERTEX
 8
CUERPO
 10
-0.0287
 20
0.2446
 30
0.8917
 70
192
 0
VERTEX
 8
CUERPO
 10
-0.0209
 20
0.2446
 30
0.9132
 70
192
 0
VERTEX
 8
CUERPO
 10
-0.0209
 20
0.2446
 30
0.9132
 70
192
 0
VERTEX
 8
CUERPO
 10
-0.0209
 20
1.0346
 30
0.9132
 70
192
 0
VERTEX
 8
CUERPO
 10
-0.0106
 20
1.0346
 30
0.9105
 70
192
 0
VERTEX
 8
CUERPO
 10
-0.0146
 20
1.0346
 30
0.8879
 70
192
 0
VERTEX
 8
CUERPO
 10
-0.0146
 20
1.0346
 30
0.8879
 70
192
 0
VERTEX
 8
CUERPO
 10
-0.0146
 20
0.2446
 30
0.8879
 70
192
 0
VERTEX
 8
CUERPO
 10
-0.0146
 20
0.2446
 30
0.8879
 70
192
 0
VERTEX
 8
CUERPO
 10
-0.0106
 20
0.2446
 30
0.9105
 70
192
 0
VERTEX
 8
CUERPO
 10
-0.0106
 20
0.2446
 30
0.9105
 70
192
 0
VERTEX
 8
CUERPO
 10
-0.0106
 20
1.0346
 30
0.9105
 70
192
 0
VERTEX
 8
CUERPO
 10
0
 20
1.0346
 30
0.9095
 70
192
 0
VERTEX
 8
CUERPO
 10
0
 20
1.0346
 30
0.8867
 70
192
 0
VERTEX
 8
CUERPO
 10
0
 20
1.0346
 30
0.8867
 70
192
 0
VERTEX
 8
CUERPO
 10
0
 20
0.2446
 30
0.8867
 70
192
 0
VERTEX
 8
CUERPO
 10
0
 20
0.2446
 30
0.8867
 70
192
 0
VERTEX
 8
CUERPO
 10
0
 20
0.2446
 30
0.9095
 70
192
 0
VERTEX
 8
CUERPO
 10
0
 20
0.2446
 30
0.9095
 70
192
 0
VERTEX
 8
CUERPO
 10
0
 20
1.0346
 30
0.9095
 70
192
 0
VERTEX
 8
CUERPO
 10
0.0106
 20
1.0346
 30
0.9105
 70
192
 0
VERTEX
 8
CUERPO
 10
0.0146
 20
1.0346
 30
0.8879
 70
192
 0
VERTEX
 8
CUERPO
 10
0.0146
 20
1.0346
 30
0.8879
 70
192
 0
VERTEX
 8
CUERPO
 10
0.0146
 20
0.2446
 30
0.8879
 70
192
 0
VERTEX
 8
CUERPO
 10
0.0146
 20
0.2446
 30
0.8879
 70
192
 0
VERTEX
 8
CUERPO
 10
0.0106
 20
0.2446
 30
0.9105
 70
192
 0
VERTEX
 8
CUERPO
 10
0.0106
 20
0.2446
 30
0.9105
 70
192
 0
VERTEX
 8
CUERPO
 10
0.0106
 20
1.0346
 30
0.9105
 70
192
 0
VERTEX
 8
CUERPO
 10
0.0209
 20
1.0346
 30
0.9132
 70
192
 0
VERTEX
 8
CUERPO
 10
0.0287
 20
1.0346
 30
0.8917
 70
192
 0
VERTEX
 8
CUERPO
 10
0.0287
 20
1.0346
 30
0.8917
 70
192
 0
VERTEX
 8
CUERPO
 10
0.0287
 20
0.2446
 30
0.8917
 70
192
 0
VERTEX
 8
CUERPO
 10
0.0287
 20
0.2446
 30
0.8917
 70
192
 0
VERTEX
 8
CUERPO
 10
0.0209
 20
0.2446
 30
0.9132
 70
192
 0
VERTEX
 8
CUERPO
 10
0.0209
 20
0.2446
 30
0.9132
 70
192
 0
VERTEX
 8
CUERPO
 10
0.0209
 20
1.0346
 30
0.9132
 70
192
 0
VERTEX
 8
CUERPO
 10
0.0306
 20
1.0346
 30
0.9177
 70
192
 0
VERTEX
 8
CUERPO
 10
0.042
 20
1.0346
 30
0.8979
 70
192
 0
VERTEX
 8
CUERPO
 10
0.042
 20
1.0346
 30
0.8979
 70
192
 0
VERTEX
 8
CUERPO
 10
0.042
 20
0.2446
 30
0.8979
 70
192
 0
VERTEX
 8
CUERPO
 10
0.042
 20
0.2446
 30
0.8979
 70
192
 0
VERTEX
 8
CUERPO
 10
0.0306
 20
0.2446
 30
0.9177
 70
192
 0
VERTEX
 8
CUERPO
 10
0.0306
 20
0.2446
 30
0.9177
 70
192
 0
VERTEX
 8
CUERPO
 10
0.0306
 20
1.0346
 30
0.9177
 70
192
 0
VERTEX
 8
CUERPO
 10
0.0393
 20
1.0346
 30
0.9238
 70
192
 0
VERTEX
 8
CUERPO
 10
0.054
 20
1.0346
 30
0.9063
 70
192
 0
VERTEX
 8
CUERPO
 10
0.054
 20
1.0346
 30
0.9063
 70
192
 0
VERTEX
 8
CUERPO
 10
0.054
 20
0.2446
 30
0.9063
 70
192
 0
VERTEX
 8
CUERPO
 10
0.054
 20
0.2446
 30
0.9063
 70
192
 0
VERTEX
 8
CUERPO
 10
0.0393
 20
0.2446
 30
0.9238
 70
192
 0
VERTEX
 8
CUERPO
 10
0.0393
 20
0.2446
 30
0.9238
 70
192
 0
VERTEX
 8
CUERPO
 10
0.0393
 20
1.0346
 30
0.9238
 70
192
 0
VERTEX
 8
CUERPO
 10
0.0468
 20
1.0346
 30
0.9314
 70
192
 0
VERTEX
 8
CUERPO
 10
0.0643
 20
1.0346
 30
0.9167
 70
192
 0
VERTEX
 8
CUERPO
 10
0.0643
 20
1.0346
 30
0.9167
 70
192
 0
VERTEX
 8
CUERPO
 10
0.0643
 20
0.2446
 30
0.9167
 70
192
 0
VERTEX
 8
CUERPO
 10
0.0643
 20
0.2446
 30
0.9167
 70
192
 0
VERTEX
 8
CUERPO
 10
0.0468
 20
0.2446
 30
0.9314
 70
192
 0
VERTEX
 8
CUERPO
 10
0.0468
 20
0.2446
 30
0.9314
 70
192
 0
VERTEX
 8
CUERPO
 10
0.0468
 20
1.0346
 30
0.9314
 70
192
 0
VERTEX
 8
CUERPO
 10
0.0529
 20
1.0346
 30
0.9401
 70
192
 0
VERTEX
 8
CUERPO
 10
0.0727
 20
1.0346
 30
0.9287
 70
192
 0
VERTEX
 8
CUERPO
 10
0.0727
 20
1.0346
 30
0.9287
 70
192
 0
VERTEX
 8
CUERPO
 10
0.0727
 20
0.2446
 30
0.9287
 70
192
 0
VERTEX
 8
CUERPO
 10
0.0727
 20
0.2446
 30
0.9287
 70
192
 0
VERTEX
 8
CUERPO
 10
0.0529
 20
0.2446
 30
0.9401
 70
192
 0
VERTEX
 8
CUERPO
 10
0.0529
 20
0.2446
 30
0.9401
 70
192
 0
VERTEX
 8
CUERPO
 10
0.0529
 20
1.0346
 30
0.9401
 70
192
 0
VERTEX
 8
CUERPO
 10
0.0574
 20
1.0346
 30
0.9497
 70
192
 0
VERTEX
 8
CUERPO
 10
0.0789
 20
1.0346
 30
0.9419
 70
192
 0
VERTEX
 8
CUERPO
 10
0.0789
 20
1.0346
 30
0.9419
 70
192
 0
VERTEX
 8
CUERPO
 10
0.0789
 20
0.2446
 30
0.9419
 70
192
 0
VERTEX
 8
CUERPO
 10
0.0789
 20
0.2446
 30
0.9419
 70
192
 0
VERTEX
 8
CUERPO
 10
0.0574
 20
0.2446
 30
0.9497
 70
192
 0
VERTEX
 8
CUERPO
 10
0.0574
 20
0.2446
 30
0.9497
 70
192
 0
VERTEX
 8
CUERPO
 10
0.0574
 20
1.0346
 30
0.9497
 70
192
 0
VERTEX
 8
CUERPO
 10
0.0602
 20
1.0346
 30
0.96
 70
192
 0
VERTEX
 8
CUERPO
 10
0.0827
 20
1.0346
 30
0.9561
 70
192
 0
VERTEX
 8
CUERPO
 10
0.0827
 20
1.0346
 30
0.9561
 70
192
 0
VERTEX
 8
CUERPO
 10
0.0827
 20
0.2446
 30
0.9561
 70
192
 0
VERTEX
 8
CUERPO
 10
0.0827
 20
0.2446
 30
0.9561
 70
192
 0
VERTEX
 8
CUERPO
 10
0.0602
 20
0.2446
 30
0.96
 70
192
 0
VERTEX
 8
CUERPO
 10
0.0602
 20
0.2446
 30
0.96
 70
192
 0
VERTEX
 8
CUERPO
 10
0.0602
 20
1.0346
 30
0.96
 70
192
 0
VERTEX
 8
CUERPO
 10
0.0184
 20
0.9199
 30
1.0982
 70
192
 0
VERTEX
 8
CUERPO
 10
0.0184
 20
0.9199
 30
1.1781
 70
192
 0
VERTEX
 8
CUERPO
 10
-0.0265
 20
0.9199
 30
1.0982
 70
192
 0
VERTEX
 8
CUERPO
 10
-0.0265
 20
0.9199
 30
1.1781
 70
192
 0
VERTEX
 8
CUERPO
 10
-0.0265
 20
0.784
 30
1.0982
 70
192
 0
VERTEX
 8
CUERPO
 10
-0.0265
 20
0.8517
 30
1.1781
 70
192
 0
VERTEX
 8
CUERPO
 10
0.0184
 20
0.784
 30
1.0982
 70
192
 0
VERTEX
 8
CUERPO
 10
0.0184
 20
0.8517
 30
1.1781
 70
192
 0
VERTEX
 8
CUERPO
 10
0.0476
 20
-0.6418
 30
1.0982
 70
192
 0
VERTEX
 8
CUERPO
 10
0.0476
 20
-0.6418
 30
1.1781
 70
192
 0
VERTEX
 8
CUERPO
 10
0.0925
 20
-0.6418
 30
1.0982
 70
192
 0
VERTEX
 8
CUERPO
 10
0.0925
 20
-0.6418
 30
1.1781
 70
192
 0
VERTEX
 8
CUERPO
 10
0.0925
 20
-0.5059
 30
1.0982
 70
192
 0
VERTEX
 8
CUERPO
 10
0.0925
 20
-0.5737
 30
1.1781
 70
192
 0
VERTEX
 8
CUERPO
 10
0.0476
 20
-0.5059
 30
1.0982
 70
192
 0
VERTEX
 8
CUERPO
 10
0.0476
 20
-0.5737
 30
1.1781
 70
192
 0
VERTEX
 8
CUERPO
 10
-0.087
 20
-0.6418
 30
1.0982
 70
192
 0
VERTEX
 8
CUERPO
 10
-0.087
 20
-0.6418
 30
1.1781
 70
192
 0
VERTEX
 8
CUERPO
 10
-0.0422
 20
-0.6418
 30
1.0982
 70
192
 0
VERTEX
 8
CUERPO
 10
-0.0422
 20
-0.6418
 30
1.1781
 70
192
 0
VERTEX
 8
CUERPO
 10
-0.0422
 20
-0.5059
 30
1.0982
 70
192
 0
VERTEX
 8
CUERPO
 10
-0.0422
 20
-0.5737
 30
1.1781
 70
192
 0
VERTEX
 8
CUERPO
 10
-0.087
 20
-0.5059
 30
1.0982
 70
192
 0
VERTEX
 8
CUERPO
 10
-0.087
 20
-0.5737
 30
1.1781
 70
192
 0
VERTEX
 8
CUERPO
 10
-0.1582
 20
-1
 30
0.7437
 70
192
 0
VERTEX
 8
CUERPO
 10
-0.1378
 20
-0.7008
 30
1.1151
 70
192
 0
VERTEX
 8
CUERPO
 10
0.1629
 20
-1
 30
0.7437
 70
192
 0
VERTEX
 8
CUERPO
 10
0.1378
 20
-0.7008
 30
1.1151
 70
192
 0
VERTEX
 8
CUERPO
 10
0.1295
 20
0.9688
 30
0.667
 70
192
 0
VERTEX
 8
CUERPO
 10
0.1378
 20
0.9799
 30
1.1151
 70
192
 0
VERTEX
 8
CUERPO
 10
-0.1295
 20
0.9688
 30
0.667
 70
192
 0
VERTEX
 8
CUERPO
 10
-0.1378
 20
0.9799
 30
1.1151
 70
192
 0
VERTEX
 8
CUERPO
 10
-0.1387
 20
-0.8193
 30
0.5366
 70
192
 0
VERTEX
 8
CUERPO
 10
0.1387
 20
-0.8197
 30
0.5366
 70
192
 0
VERTEX
 8
CUERPO
 10
0.1295
 20
-0.3451
 30
0.667
 70
192
 0
VERTEX
 8
CUERPO
 10
-0.1295
 20
-0.3351
 30
0.667
 70
192
 0
VERTEX
 8
CUERPO
 10
-0.1605
 20
-0.9848
 30
-0.1119
 70
192
 0
VERTEX
 8
CUERPO
 10
0.1605
 20
-0.9852
 30
-0.1119
 70
192
 0
VERTEX
 8
CUERPO
 10
0.1605
 20
-0.5102
 30
-0.1119
 70
192
 0
VERTEX
 8
CUERPO
 10
-0.1605
 20
-0.5002
 30
-0.1119
 70
192
 0
VERTEX
 8
CUERPO
 10
-0.148
 20
-0.8629
 30
0.6526
 70
192
 0
VERTEX
 8
CUERPO
 10
0.1516
 20
-0.8642
 30
0.6526
 70
192
 0
VERTEX
 8
CUERPO
 10
-0.1605
 20
-0.899
 30
0.7865
 70
192
 0
VERTEX
 8
CUERPO
 10
0.1605
 20
-0.8993
 30
0.7858
 70
192
 0
VERTEX
 8
CUERPO
 10
0.1378
 20
0.2149
 30
1.1151
 70
192
 0
VERTEX
 8
CUERPO
 10
0.1351
 20
-0.2765
 30
0.9686
 70
192
 0
VERTEX
 8
CUERPO
 10
0.1351
 20
0.2149
 30
0.9686
 70
192
 0
VERTEX
 8
CUERPO
 10
0.0325
 20
-0.2765
 30
0.9686
 70
192
 0
VERTEX
 8
CUERPO
 10
0.0325
 20
0.2149
 30
0.9686
 70
192
 0
VERTEX
 8
CUERPO
 10
0.0325
 20
-0.2765
 30
1.1151
 70
192
 0
VERTEX
 8
CUERPO
 10
0.0325
 20
0.2149
 30
1.1151
 70
192
 0
VERTEX
 8
CUERPO
 10
0.1378
 20
-0.2765
 30
1.1151
 70
192
 0
VERTEX
 8
CUERPO
 10
0.132
 20
1
 30
0.8148
 70
192
 0
VERTEX
 8
CUERPO
 10
-0.1318
 20
1
 30
0.8136
 70
192
 0
VERTEX
 8
CUERPO
 10
-0.0493
 20
0.9865
 30
1.0166
 70
192
 0
VERTEX
 8
CUERPO
 10
0.0404
 20
0.9932
 30
0.9167
 70
192
 0
VERTEX
 8
CUERPO
 10
0.0676
 20
0.9896
 30
0.9707
 70
192
 0
VERTEX
 8
CUERPO
 10
0.0636
 20
0.988
 30
0.9938
 70
192
 0
VERTEX
 8
CUERPO
 10
0.0586
 20
0.9873
 30
1.0045
 70
192
 0
VERTEX
 8
CUERPO
 10
0.0518
 20
0.9867
 30
1.0141
 70
192
 0
VERTEX
 8
CUERPO
 10
0.0435
 20
0.9861
 30
1.0225
 70
192
 0
VERTEX
 8
CUERPO
 10
0.0338
 20
0.9857
 30
1.0292
 70
192
 0
VERTEX
 8
CUERPO
 10
0.0231
 20
0.9853
 30
1.0342
 70
192
 0
VERTEX
 8
CUERPO
 10
0.0666
 20
0.9888
 30
0.9824
 70
192
 0
VERTEX
 8
CUERPO
 10
0.0117
 20
0.9851
 30
1.0373
 70
192
 0
VERTEX
 8
CUERPO
 10
0
 20
0.9851
 30
1.0383
 70
192
 0
VERTEX
 8
CUERPO
 10
-0.0117
 20
0.9851
 30
1.0373
 70
192
 0
VERTEX
 8
CUERPO
 10
-0.0231
 20
0.9853
 30
1.0342
 70
192
 0
VERTEX
 8
CUERPO
 10
-0.0338
 20
0.9857
 30
1.0292
 70
192
 0
VERTEX
 8
CUERPO
 10
-0.0435
 20
0.9861
 30
1.0225
 70
192
 0
VERTEX
 8
CUERPO
 10
0.0435
 20
0.993
 30
0.9188
 70
192
 0
VERTEX
 8
CUERPO
 10
0.0518
 20
0.9925
 30
0.9272
 70
192
 0
VERTEX
 8
CUERPO
 10
0.0586
 20
0.9918
 30
0.9368
 70
192
 0
VERTEX
 8
CUERPO
 10
0.0636
 20
0.9911
 30
0.9475
 70
192
 0
VERTEX
 8
CUERPO
 10
0.0666
 20
0.9904
 30
0.9589
 70
192
 0
VERTEX
 8
CUERPO
 10
-0.0518
 20
0.9867
 30
1.0141
 70
192
 0
VERTEX
 8
CUERPO
 10
-0.0586
 20
0.9873
 30
1.0045
 70
192
 0
VERTEX
 8
CUERPO
 10
-0.0636
 20
0.988
 30
0.9938
 70
192
 0
VERTEX
 8
CUERPO
 10
-0.0666
 20
0.9888
 30
0.9824
 70
192
 0
VERTEX
 8
CUERPO
 10
-0.0676
 20
0.9896
 30
0.9707
 70
192
 0
VERTEX
 8
CUERPO
 10
-0.0666
 20
0.9903
 30
0.9589
 70
192
 0
VERTEX
 8
CUERPO
 10
-0.0636
 20
0.9911
 30
0.9475
 70
192
 0
VERTEX
 8
CUERPO
 10
-0.0586
 20
0.9918
 30
0.9368
 70
192
 0
VERTEX
 8
CUERPO
 10
-0.0518
 20
0.9925
 30
0.9272
 70
192
 0
VERTEX
 8
CUERPO
 10
-0.0435
 20
0.993
 30
0.9188
 70
192
 0
VERTEX
 8
CUERPO
 10
-0.0338
 20
0.9935
 30
0.9121
 70
192
 0
VERTEX
 8
CUERPO
 10
-0.0231
 20
0.9938
 30
0.9071
 70
192
 0
VERTEX
 8
CUERPO
 10
-0.0117
 20
0.994
 30
0.904
 70
192
 0
VERTEX
 8
CUERPO
 10
0
 20
0.9941
 30
0.903
 70
192
 0
VERTEX
 8
CUERPO
 10
0.0117
 20
0.994
 30
0.904
 70
192
 0
VERTEX
 8
CUERPO
 10
0.0231
 20
0.9938
 30
0.9071
 70
192
 0
VERTEX
 8
CUERPO
 10
0.0338
 20
0.9935
 30
0.9121
 70
192
 0
VERTEX
 8
CUERPO
 10
0.0676
 20
0.458
 30
0.9707
 70
192
 0
VERTEX
 8
CUERPO
 10
0
 20
0.458
 30
0.9707
 70
192
 0
VERTEX
 8
CUERPO
 10
0.0666
 20
0.458
 30
0.9824
 70
192
 0
VERTEX
 8
CUERPO
 10
0.0636
 20
0.458
 30
0.9938
 70
192
 0
VERTEX
 8
CUERPO
 10
0.0586
 20
0.458
 30
1.0045
 70
192
 0
VERTEX
 8
CUERPO
 10
0.0518
 20
0.458
 30
1.0141
 70
192
 0
VERTEX
 8
CUERPO
 10
0.0435
 20
0.458
 30
1.0225
 70
192
 0
VERTEX
 8
CUERPO
 10
0.0338
 20
0.458
 30
1.0292
 70
192
 0
VERTEX
 8
CUERPO
 10
0.0231
 20
0.458
 30
1.0342
 70
192
 0
VERTEX
 8
CUERPO
 10
0.0117
 20
0.458
 30
1.0373
 70
192
 0
VERTEX
 8
CUERPO
 10
0
 20
0.458
 30
1.0383
 70
192
 0
VERTEX
 8
CUERPO
 10
-0.0117
 20
0.458
 30
1.0373
 70
192
 0
VERTEX
 8
CUERPO
 10
-0.0231
 20
0.458
 30
1.0342
 70
192
 0
VERTEX
 8
CUERPO
 10
-0.0338
 20
0.458
 30
1.0292
 70
192
 0
VERTEX
 8
CUERPO
 10
-0.0435
 20
0.458
 30
1.0225
 70
192
 0
VERTEX
 8
CUERPO
 10
-0.0518
 20
0.458
 30
1.0141
 70
192
 0
VERTEX
 8
CUERPO
 10
-0.0586
 20
0.458
 30
1.0045
 70
192
 0
VERTEX
 8
CUERPO
 10
-0.0636
 20
0.458
 30
0.9938
 70
192
 0
VERTEX
 8
CUERPO
 10
-0.0666
 20
0.458
 30
0.9824
 70
192
 0
VERTEX
 8
CUERPO
 10
-0.0676
 20
0.458
 30
0.9707
 70
192
 0
VERTEX
 8
CUERPO
 10
-0.0666
 20
0.458
 30
0.9589
 70
192
 0
VERTEX
 8
CUERPO
 10
-0.0636
 20
0.458
 30
0.9475
 70
192
 0
VERTEX
 8
CUERPO
 10
-0.0586
 20
0.458
 30
0.9368
 70
192
 0
VERTEX
 8
CUERPO
 10
-0.0518
 20
0.458
 30
0.9272
 70
192
 0
VERTEX
 8
CUERPO
 10
-0.0435
 20
0.458
 30
0.9188
 70
192
 0
VERTEX
 8
CUERPO
 10
-0.0338
 20
0.458
 30
0.9121
 70
192
 0
VERTEX
 8
CUERPO
 10
-0.0231
 20
0.458
 30
0.9071
 70
192
 0
VERTEX
 8
CUERPO
 10
-0.0117
 20
0.458
 30
0.904
 70
192
 0
VERTEX
 8
CUERPO
 10
0
 20
0.458
 30
0.903
 70
192
 0
VERTEX
 8
CUERPO
 10
0.0117
 20
0.458
 30
0.904
 70
192
 0
VERTEX
 8
CUERPO
 10
0.0231
 20
0.458
 30
0.9071
 70
192
 0
VERTEX
 8
CUERPO
 10
0.0338
 20
0.458
 30
0.9121
 70
192
 0
VERTEX
 8
CUERPO
 10
0.0435
 20
0.458
 30
0.9188
 70
192
 0
VERTEX
 8
CUERPO
 10
0.0518
 20
0.458
 30
0.9272
 70
192
 0
VERTEX
 8
CUERPO
 10
0.0586
 20
0.458
 30
0.9368
 70
192
 0
VERTEX
 8
CUERPO
 10
0.0636
 20
0.458
 30
0.9475
 70
192
 0
VERTEX
 8
CUERPO
 10
0.0666
 20
0.458
 30
0.9589
 70
192
 0
VERTEX
 8
CUERPO
 10
0.0676
 20
0.9896
 30
0.9707
 70
192
 0
VERTEX
 8
CUERPO
 10
0.0666
 20
0.9888
 30
0.9824
 70
192
 0
VERTEX
 8
CUERPO
 10
0.0636
 20
0.988
 30
0.9938
 70
192
 0
VERTEX
 8
CUERPO
 10
0.0586
 20
0.9873
 30
1.0045
 70
192
 0
VERTEX
 8
CUERPO
 10
0.0518
 20
0.9867
 30
1.0141
 70
192
 0
VERTEX
 8
CUERPO
 10
0.0435
 20
0.9861
 30
1.0225
 70
192
 0
VERTEX
 8
CUERPO
 10
0.0338
 20
0.9857
 30
1.0292
 70
192
 0
VERTEX
 8
CUERPO
 10
0.0231
 20
0.9853
 30
1.0342
 70
192
 0
VERTEX
 8
CUERPO
 10
0.0117
 20
0.9851
 30
1.0373
 70
192
 0
VERTEX
 8
CUERPO
 10
0
 20
0.9851
 30
1.0383
 70
192
 0
VERTEX
 8
CUERPO
 10
-0.0117
 20
0.9851
 30
1.0373
 70
192
 0
VERTEX
 8
CUERPO
 10
-0.0231
 20
0.9853
 30
1.0342
 70
192
 0
VERTEX
 8
CUERPO
 10
-0.0338
 20
0.9857
 30
1.0292
 70
192
 0
VERTEX
 8
CUERPO
 10
-0.0435
 20
0.9861
 30
1.0225
 70
192
 0
VERTEX
 8
CUERPO
 10
-0.0518
 20
0.9867
 30
1.0141
 70
192
 0
VERTEX
 8
CUERPO
 10
-0.0636
 20
0.9911
 30
0.9475
 70
192
 0
VERTEX
 8
CUERPO
 10
0.0435
 20
0.993
 30
0.9188
 70
192
 0
VERTEX
 8
CUERPO
 10
0.0518
 20
0.9925
 30
0.9272
 70
192
 0
VERTEX
 8
CUERPO
 10
0.0586
 20
0.9918
 30
0.9368
 70
192
 0
VERTEX
 8
CUERPO
 10
0.0636
 20
0.9911
 30
0.9475
 70
192
 0
VERTEX
 8
CUERPO
 10
0.0666
 20
0.9904
 30
0.9589
 70
192
 0
VERTEX
 8
CUERPO
 10
0
 20
0.9941
 30
0.903
 70
192
 0
VERTEX
 8
CUERPO
 10
-0.0586
 20
0.9873
 30
1.0045
 70
192
 0
VERTEX
 8
CUERPO
 10
-0.0636
 20
0.988
 30
0.9938
 70
192
 0
VERTEX
 8
CUERPO
 10
-0.0666
 20
0.9888
 30
0.9824
 70
192
 0
VERTEX
 8
CUERPO
 10
-0.0676
 20
0.9896
 30
0.9707
 70
192
 0
VERTEX
 8
CUERPO
 10
-0.0666
 20
0.9903
 30
0.9589
 70
192
 0
VERTEX
 8
CUERPO
 10
-0.0117
 20
0.994
 30
0.904
 70
192
 0
VERTEX
 8
CUERPO
 10
-0.0518
 20
0.9925
 30
0.9272
 70
192
 0
VERTEX
 8
CUERPO
 10
-0.0586
 20
0.9918
 30
0.9368
 70
192
 0
VERTEX
 8
CUERPO
 10
-0.0338
 20
0.9935
 30
0.9121
 70
192
 0
VERTEX
 8
CUERPO
 10
-0.0435
 20
0.993
 30
0.9188
 70
192
 0
VERTEX
 8
CUERPO
 10
0.0117
 20
0.994
 30
0.904
 70
192
 0
VERTEX
 8
CUERPO
 10
-0.0231
 20
0.9938
 30
0.9071
 70
192
 0
VERTEX
 8
CUERPO
 10
0.0338
 20
0.9935
 30
0.9121
 70
192
 0
VERTEX
 8
CUERPO
 10
0.0231
 20
0.9938
 30
0.9071
 70
192
 0
VERTEX
 8
CUERPO
 10
0.0404
 20
0.9932
 30
0.9167
 70
192
 0
VERTEX
 8
CUERPO
 10
-0.0493
 20
0.9865
 30
1.0166
 70
192
 0
VERTEX
 8
CUERPO
 10
-0.0616
 20
-0.8884
 30
0.7657
 70
192
 0
VERTEX
 8
CUERPO
 10
-0.0616
 20
-0.8558
 30
0.899
 70
192
 0
VERTEX
 8
CUERPO
 10
-0.0616
 20
-0.8884
 30
1.0324
 70
192
 0
VERTEX
 8
CUERPO
 10
0.0616
 20
-0.8884
 30
0.7657
 70
192
 0
VERTEX
 8
CUERPO
 10
0.0616
 20
-0.8558
 30
0.899
 70
192
 0
VERTEX
 8
CUERPO
 10
0.0616
 20
-0.8884
 30
1.0324
 70
192
 0
VERTEX
 8
CUERPO
 10
0.0616
 20
-0.8009
 30
0.7657
 70
192
 0
VERTEX
 8
CUERPO
 10
0.0616
 20
-0.8009
 30
0.899
 70
192
 0
VERTEX
 8
CUERPO
 10
0.0616
 20
-0.8009
 30
1.0143
 70
192
 0
VERTEX
 8
CUERPO
 10
0.0616
 20
-0.7134
 30
0.7657
 70
192
 0
VERTEX
 8
CUERPO
 10
0.0616
 20
-0.7134
 30
0.899
 70
192
 0
VERTEX
 8
CUERPO
 10
0.0616
 20
-0.7134
 30
1.0324
 70
192
 0
VERTEX
 8
CUERPO
 10
-0.0616
 20
-0.7134
 30
0.7657
 70
192
 0
VERTEX
 8
CUERPO
 10
-0.0616
 20
-0.7134
 30
0.899
 70
192
 0
VERTEX
 8
CUERPO
 10
-0.0616
 20
-0.7134
 30
1.0324
 70
192
 0
VERTEX
 8
CUERPO
 10
-0.0616
 20
-0.8009
 30
0.7657
 70
192
 0
VERTEX
 8
CUERPO
 10
-0.0616
 20
-0.8009
 30
0.899
 70
192
 0
VERTEX
 8
CUERPO
 10
-0.0616
 20
-0.8009
 30
1.0143
 70
192
 0
VERTEX
 8
CUERPO
 10
0
 20
0
 30
0
 70
128
 71
1
 72
2
 73
4
 74
3
 0
VERTEX
 8
CUERPO
 10
0
 20
0
 30
0
 70
128
 71
3
 72
4
 73
6
 74
5
 0
VERTEX
 8
CUERPO
 10
0
 20
0
 30
0
 70
128
 71
9
 72
10
 73
12
 74
11
 0
VERTEX
 8
CUERPO
 10
0
 20
0
 30
0
 70
128
 71
7
 72
8
 73
2
 74
1
 0
VERTEX
 8
CUERPO
 10
0
 20
0
 30
0
 70
128
 71
2
 72
8
 73
6
 74
4
 0
VERTEX
 8
CUERPO
 10
0
 20
0
 30
0
 70
128
 71
7
 72
1
 73
3
 74
5
 0
VERTEX
 8
CUERPO
 10
0
 20
0
 30
0
 70
128
 71
5
 72
9
 73
11
 74
7
 0
VERTEX
 8
CUERPO
 10
0
 20
0
 30
0
 70
128
 71
7
 72
11
 73
12
 74
8
 0
VERTEX
 8
CUERPO
 10
0
 20
0
 30
0
 70
128
 71
8
 72
12
 73
10
 74
6
 0
VERTEX
 8
CUERPO
 10
0
 20
0
 30
0
 70
128
 71
6
 72
10
 73
9
 74
5
 0
VERTEX
 8
CUERPO
 10
0
 20
0
 30
0
 70
128
 71
13
 72
14
 73
22
 74
21
 0
VERTEX
 8
CUERPO
 10
0
 20
0
 30
0
 70
128
 71
15
 72
16
 73
24
 74
23
 0
VERTEX
 8
CUERPO
 10
0
 20
0
 30
0
 70
128
 71
17
 72
18
 73
26
 74
25
 0
VERTEX
 8
CUERPO
 10
0
 20
0
 30
0
 70
128
 71
19
 72
20
 73
28
 74
27
 0
VERTEX
 8
CUERPO
 10
0
 20
0
 30
0
 70
128
 71
21
 72
22
 73
30
 74
29
 0
VERTEX
 8
CUERPO
 10
0
 20
0
 30
0
 70
128
 71
23
 72
24
 73
32
 74
31
 0
VERTEX
 8
CUERPO
 10
0
 20
0
 30
0
 70
128
 71
25
 72
26
 73
34
 74
33
 0
VERTEX
 8
CUERPO
 10
0
 20
0
 30
0
 70
128
 71
27
 72
28
 73
36
 74
35
 0
VERTEX
 8
CUERPO
 10
0
 20
0
 30
0
 70
128
 71
29
 72
30
 73
38
 74
37
 0
VERTEX
 8
CUERPO
 10
0
 20
0
 30
0
 70
128
 71
31
 72
32
 73
40
 74
39
 0
VERTEX
 8
CUERPO
 10
0
 20
0
 30
0
 70
128
 71
33
 72
34
 73
42
 74
41
 0
VERTEX
 8
CUERPO
 10
0
 20
0
 30
0
 70
128
 71
35
 72
36
 73
44
 74
43
 0
VERTEX
 8
CUERPO
 10
0
 20
0
 30
0
 70
128
 71
37
 72
38
 73
46
 74
45
 0
VERTEX
 8
CUERPO
 10
0
 20
0
 30
0
 70
128
 71
39
 72
40
 73
48
 74
47
 0
VERTEX
 8
CUERPO
 10
0
 20
0
 30
0
 70
128
 71
41
 72
42
 73
50
 74
49
 0
VERTEX
 8
CUERPO
 10
0
 20
0
 30
0
 70
128
 71
43
 72
44
 73
52
 74
51
 0
VERTEX
 8
CUERPO
 10
0
 20
0
 30
0
 70
128
 71
45
 72
46
 73
54
 74
53
 0
VERTEX
 8
CUERPO
 10
0
 20
0
 30
0
 70
128
 71
47
 72
48
 73
56
 74
55
 0
VERTEX
 8
CUERPO
 10
0
 20
0
 30
0
 70
128
 71
49
 72
50
 73
58
 74
57
 0
VERTEX
 8
CUERPO
 10
0
 20
0
 30
0
 70
128
 71
51
 72
52
 73
60
 74
59
 0
VERTEX
 8
CUERPO
 10
0
 20
0
 30
0
 70
128
 71
53
 72
54
 73
62
 74
61
 0
VERTEX
 8
CUERPO
 10
0
 20
0
 30
0
 70
128
 71
55
 72
56
 73
64
 74
63
 0
VERTEX
 8
CUERPO
 10
0
 20
0
 30
0
 70
128
 71
57
 72
58
 73
66
 74
65
 0
VERTEX
 8
CUERPO
 10
0
 20
0
 30
0
 70
128
 71
59
 72
60
 73
68
 74
67
 0
VERTEX
 8
CUERPO
 10
0
 20
0
 30
0
 70
128
 71
61
 72
62
 73
70
 74
69
 0
VERTEX
 8
CUERPO
 10
0
 20
0
 30
0
 70
128
 71
63
 72
64
 73
72
 74
71
 0
VERTEX
 8
CUERPO
 10
0
 20
0
 30
0
 70
128
 71
65
 72
66
 73
74
 74
73
 0
VERTEX
 8
CUERPO
 10
0
 20
0
 30
0
 70
128
 71
67
 72
68
 73
76
 74
75
 0
VERTEX
 8
CUERPO
 10
0
 20
0
 30
0
 70
128
 71
69
 72
70
 73
78
 74
77
 0
VERTEX
 8
CUERPO
 10
0
 20
0
 30
0
 70
128
 71
71
 72
72
 73
80
 74
79
 0
VERTEX
 8
CUERPO
 10
0
 20
0
 30
0
 70
128
 71
73
 72
74
 73
82
 74
81
 0
VERTEX
 8
CUERPO
 10
0
 20
0
 30
0
 70
128
 71
75
 72
76
 73
84
 74
83
 0
VERTEX
 8
CUERPO
 10
0
 20
0
 30
0
 70
128
 71
77
 72
78
 73
86
 74
85
 0
VERTEX
 8
CUERPO
 10
0
 20
0
 30
0
 70
128
 71
79
 72
80
 73
88
 74
87
 0
VERTEX
 8
CUERPO
 10
0
 20
0
 30
0
 70
128
 71
81
 72
82
 73
90
 74
89
 0
VERTEX
 8
CUERPO
 10
0
 20
0
 30
0
 70
128
 71
83
 72
84
 73
92
 74
91
 0
VERTEX
 8
CUERPO
 10
0
 20
0
 30
0
 70
128
 71
85
 72
86
 73
94
 74
93
 0
VERTEX
 8
CUERPO
 10
0
 20
0
 30
0
 70
128
 71
87
 72
88
 73
96
 74
95
 0
VERTEX
 8
CUERPO
 10
0
 20
0
 30
0
 70
128
 71
89
 72
90
 73
98
 74
97
 0
VERTEX
 8
CUERPO
 10
0
 20
0
 30
0
 70
128
 71
91
 72
92
 73
100
 74
99
 0
VERTEX
 8
CUERPO
 10
0
 20
0
 30
0
 70
128
 71
93
 72
94
 73
102
 74
101
 0
VERTEX
 8
CUERPO
 10
0
 20
0
 30
0
 70
128
 71
95
 72
96
 73
104
 74
103
 0
VERTEX
 8
CUERPO
 10
0
 20
0
 30
0
 70
128
 71
97
 72
98
 73
106
 74
105
 0
VERTEX
 8
CUERPO
 10
0
 20
0
 30
0
 70
128
 71
99
 72
100
 73
108
 74
107
 0
VERTEX
 8
CUERPO
 10
0
 20
0
 30
0
 70
128
 71
101
 72
102
 73
110
 74
109
 0
VERTEX
 8
CUERPO
 10
0
 20
0
 30
0
 70
128
 71
103
 72
104
 73
112
 74
111
 0
VERTEX
 8
CUERPO
 10
0
 20
0
 30
0
 70
128
 71
105
 72
106
 73
114
 74
113
 0
VERTEX
 8
CUERPO
 10
0
 20
0
 30
0
 70
128
 71
107
 72
108
 73
116
 74
115
 0
VERTEX
 8
CUERPO
 10
0
 20
0
 30
0
 70
128
 71
109
 72
110
 73
118
 74
117
 0
VERTEX
 8
CUERPO
 10
0
 20
0
 30
0
 70
128
 71
111
 72
112
 73
120
 74
119
 0
VERTEX
 8
CUERPO
 10
0
 20
0
 30
0
 70
128
 71
113
 72
114
 73
122
 74
121
 0
VERTEX
 8
CUERPO
 10
0
 20
0
 30
0
 70
128
 71
115
 72
116
 73
124
 74
123
 0
VERTEX
 8
CUERPO
 10
0
 20
0
 30
0
 70
128
 71
117
 72
118
 73
126
 74
125
 0
VERTEX
 8
CUERPO
 10
0
 20
0
 30
0
 70
128
 71
119
 72
120
 73
128
 74
127
 0
VERTEX
 8
CUERPO
 10
0
 20
0
 30
0
 70
128
 71
121
 72
122
 73
130
 74
129
 0
VERTEX
 8
CUERPO
 10
0
 20
0
 30
0
 70
128
 71
123
 72
124
 73
132
 74
131
 0
VERTEX
 8
CUERPO
 10
0
 20
0
 30
0
 70
128
 71
125
 72
126
 73
134
 74
133
 0
VERTEX
 8
CUERPO
 10
0
 20
0
 30
0
 70
128
 71
127
 72
128
 73
136
 74
135
 0
VERTEX
 8
CUERPO
 10
0
 20
0
 30
0
 70
128
 71
129
 72
130
 73
138
 74
137
 0
VERTEX
 8
CUERPO
 10
0
 20
0
 30
0
 70
128
 71
131
 72
132
 73
140
 74
139
 0
VERTEX
 8
CUERPO
 10
0
 20
0
 30
0
 70
128
 71
133
 72
134
 73
142
 74
141
 0
VERTEX
 8
CUERPO
 10
0
 20
0
 30
0
 70
128
 71
135
 72
136
 73
144
 74
143
 0
VERTEX
 8
CUERPO
 10
0
 20
0
 30
0
 70
128
 71
137
 72
138
 73
146
 74
145
 0
VERTEX
 8
CUERPO
 10
0
 20
0
 30
0
 70
128
 71
139
 72
140
 73
148
 74
147
 0
VERTEX
 8
CUERPO
 10
0
 20
0
 30
0
 70
128
 71
141
 72
142
 73
150
 74
149
 0
VERTEX
 8
CUERPO
 10
0
 20
0
 30
0
 70
128
 71
143
 72
144
 73
152
 74
151
 0
VERTEX
 8
CUERPO
 10
0
 20
0
 30
0
 70
128
 71
145
 72
146
 73
154
 74
153
 0
VERTEX
 8
CUERPO
 10
0
 20
0
 30
0
 70
128
 71
147
 72
148
 73
156
 74
155
 0
VERTEX
 8
CUERPO
 10
0
 20
0
 30
0
 70
128
 71
149
 72
150
 73
158
 74
157
 0
VERTEX
 8
CUERPO
 10
0
 20
0
 30
0
 70
128
 71
151
 72
152
 73
160
 74
159
 0
VERTEX
 8
CUERPO
 10
0
 20
0
 30
0
 70
128
 71
153
 72
154
 73
162
 74
161
 0
VERTEX
 8
CUERPO
 10
0
 20
0
 30
0
 70
128
 71
155
 72
156
 73
164
 74
163
 0
VERTEX
 8
CUERPO
 10
0
 20
0
 30
0
 70
128
 71
157
 72
158
 73
166
 74
165
 0
VERTEX
 8
CUERPO
 10
0
 20
0
 30
0
 70
128
 71
159
 72
160
 73
168
 74
167
 0
VERTEX
 8
CUERPO
 10
0
 20
0
 30
0
 70
128
 71
161
 72
162
 73
170
 74
169
 0
VERTEX
 8
CUERPO
 10
0
 20
0
 30
0
 70
128
 71
163
 72
164
 73
172
 74
171
 0
VERTEX
 8
CUERPO
 10
0
 20
0
 30
0
 70
128
 71
165
 72
166
 73
174
 74
173
 0
VERTEX
 8
CUERPO
 10
0
 20
0
 30
0
 70
128
 71
167
 72
168
 73
176
 74
175
 0
VERTEX
 8
CUERPO
 10
0
 20
0
 30
0
 70
128
 71
169
 72
170
 73
178
 74
177
 0
VERTEX
 8
CUERPO
 10
0
 20
0
 30
0
 70
128
 71
171
 72
172
 73
180
 74
179
 0
VERTEX
 8
CUERPO
 10
0
 20
0
 30
0
 70
128
 71
173
 72
174
 73
182
 74
181
 0
VERTEX
 8
CUERPO
 10
0
 20
0
 30
0
 70
128
 71
175
 72
176
 73
184
 74
183
 0
VERTEX
 8
CUERPO
 10
0
 20
0
 30
0
 70
128
 71
177
 72
178
 73
186
 74
185
 0
VERTEX
 8
CUERPO
 10
0
 20
0
 30
0
 70
128
 71
179
 72
180
 73
188
 74
187
 0
VERTEX
 8
CUERPO
 10
0
 20
0
 30
0
 70
128
 71
181
 72
182
 73
190
 74
189
 0
VERTEX
 8
CUERPO
 10
0
 20
0
 30
0
 70
128
 71
183
 72
184
 73
192
 74
191
 0
VERTEX
 8
CUERPO
 10
0
 20
0
 30
0
 70
128
 71
185
 72
186
 73
194
 74
193
 0
VERTEX
 8
CUERPO
 10
0
 20
0
 30
0
 70
128
 71
187
 72
188
 73
196
 74
195
 0
VERTEX
 8
CUERPO
 10
0
 20
0
 30
0
 70
128
 71
189
 72
190
 73
198
 74
197
 0
VERTEX
 8
CUERPO
 10
0
 20
0
 30
0
 70
128
 71
191
 72
192
 73
200
 74
199
 0
VERTEX
 8
CUERPO
 10
0
 20
0
 30
0
 70
128
 71
193
 72
194
 73
202
 74
201
 0
VERTEX
 8
CUERPO
 10
0
 20
0
 30
0
 70
128
 71
195
 72
196
 73
204
 74
203
 0
VERTEX
 8
CUERPO
 10
0
 20
0
 30
0
 70
128
 71
197
 72
198
 73
206
 74
205
 0
VERTEX
 8
CUERPO
 10
0
 20
0
 30
0
 70
128
 71
199
 72
200
 73
208
 74
207
 0
VERTEX
 8
CUERPO
 10
0
 20
0
 30
0
 70
128
 71
201
 72
202
 73
210
 74
209
 0
VERTEX
 8
CUERPO
 10
0
 20
0
 30
0
 70
128
 71
203
 72
204
 73
212
 74
211
 0
VERTEX
 8
CUERPO
 10
0
 20
0
 30
0
 70
128
 71
205
 72
206
 73
214
 74
213
 0
VERTEX
 8
CUERPO
 10
0
 20
0
 30
0
 70
128
 71
207
 72
208
 73
216
 74
215
 0
VERTEX
 8
CUERPO
 10
0
 20
0
 30
0
 70
128
 71
209
 72
210
 73
218
 74
217
 0
VERTEX
 8
CUERPO
 10
0
 20
0
 30
0
 70
128
 71
211
 72
212
 73
220
 74
219
 0
VERTEX
 8
CUERPO
 10
0
 20
0
 30
0
 70
128
 71
213
 72
214
 73
222
 74
221
 0
VERTEX
 8
CUERPO
 10
0
 20
0
 30
0
 70
128
 71
215
 72
216
 73
224
 74
223
 0
VERTEX
 8
CUERPO
 10
0
 20
0
 30
0
 70
128
 71
217
 72
218
 73
226
 74
225
 0
VERTEX
 8
CUERPO
 10
0
 20
0
 30
0
 70
128
 71
219
 72
220
 73
228
 74
227
 0
VERTEX
 8
CUERPO
 10
0
 20
0
 30
0
 70
128
 71
221
 72
222
 73
230
 74
229
 0
VERTEX
 8
CUERPO
 10
0
 20
0
 30
0
 70
128
 71
223
 72
224
 73
232
 74
231
 0
VERTEX
 8
CUERPO
 10
0
 20
0
 30
0
 70
128
 71
225
 72
226
 73
234
 74
233
 0
VERTEX
 8
CUERPO
 10
0
 20
0
 30
0
 70
128
 71
227
 72
228
 73
236
 74
235
 0
VERTEX
 8
CUERPO
 10
0
 20
0
 30
0
 70
128
 71
229
 72
230
 73
238
 74
237
 0
VERTEX
 8
CUERPO
 10
0
 20
0
 30
0
 70
128
 71
231
 72
232
 73
240
 74
239
 0
VERTEX
 8
CUERPO
 10
0
 20
0
 30
0
 70
128
 71
233
 72
234
 73
242
 74
241
 0
VERTEX
 8
CUERPO
 10
0
 20
0
 30
0
 70
128
 71
235
 72
236
 73
244
 74
243
 0
VERTEX
 8
CUERPO
 10
0
 20
0
 30
0
 70
128
 71
237
 72
238
 73
246
 74
245
 0
VERTEX
 8
CUERPO
 10
0
 20
0
 30
0
 70
128
 71
239
 72
240
 73
248
 74
247
 0
VERTEX
 8
CUERPO
 10
0
 20
0
 30
0
 70
128
 71
241
 72
242
 73
250
 74
249
 0
VERTEX
 8
CUERPO
 10
0
 20
0
 30
0
 70
128
 71
243
 72
244
 73
252
 74
251
 0
VERTEX
 8
CUERPO
 10
0
 20
0
 30
0
 70
128
 71
245
 72
246
 73
254
 74
253
 0
VERTEX
 8
CUERPO
 10
0
 20
0
 30
0
 70
128
 71
247
 72
248
 73
256
 74
255
 0
VERTEX
 8
CUERPO
 10
0
 20
0
 30
0
 70
128
 71
249
 72
250
 73
258
 74
257
 0
VERTEX
 8
CUERPO
 10
0
 20
0
 30
0
 70
128
 71
251
 72
252
 73
260
 74
259
 0
VERTEX
 8
CUERPO
 10
0
 20
0
 30
0
 70
128
 71
253
 72
254
 73
262
 74
261
 0
VERTEX
 8
CUERPO
 10
0
 20
0
 30
0
 70
128
 71
255
 72
256
 73
264
 74
263
 0
VERTEX
 8
CUERPO
 10
0
 20
0
 30
0
 70
128
 71
257
 72
258
 73
266
 74
265
 0
VERTEX
 8
CUERPO
 10
0
 20
0
 30
0
 70
128
 71
259
 72
260
 73
268
 74
267
 0
VERTEX
 8
CUERPO
 10
0
 20
0
 30
0
 70
128
 71
261
 72
262
 73
270
 74
269
 0
VERTEX
 8
CUERPO
 10
0
 20
0
 30
0
 70
128
 71
263
 72
264
 73
272
 74
271
 0
VERTEX
 8
CUERPO
 10
0
 20
0
 30
0
 70
128
 71
265
 72
266
 73
274
 74
273
 0
VERTEX
 8
CUERPO
 10
0
 20
0
 30
0
 70
128
 71
267
 72
268
 73
276
 74
275
 0
VERTEX
 8
CUERPO
 10
0
 20
0
 30
0
 70
128
 71
269
 72
270
 73
278
 74
277
 0
VERTEX
 8
CUERPO
 10
0
 20
0
 30
0
 70
128
 71
271
 72
272
 73
280
 74
279
 0
VERTEX
 8
CUERPO
 10
0
 20
0
 30
0
 70
128
 71
273
 72
274
 73
282
 74
281
 0
VERTEX
 8
CUERPO
 10
0
 20
0
 30
0
 70
128
 71
275
 72
276
 73
284
 74
283
 0
VERTEX
 8
CUERPO
 10
0
 20
0
 30
0
 70
128
 71
277
 72
278
 73
286
 74
285
 0
VERTEX
 8
CUERPO
 10
0
 20
0
 30
0
 70
128
 71
279
 72
280
 73
288
 74
287
 0
VERTEX
 8
CUERPO
 10
0
 20
0
 30
0
 70
128
 71
281
 72
282
 73
290
 74
289
 0
VERTEX
 8
CUERPO
 10
0
 20
0
 30
0
 70
128
 71
283
 72
284
 73
292
 74
291
 0
VERTEX
 8
CUERPO
 10
0
 20
0
 30
0
 70
128
 71
285
 72
286
 73
294
 74
293
 0
VERTEX
 8
CUERPO
 10
0
 20
0
 30
0
 70
128
 71
287
 72
288
 73
296
 74
295
 0
VERTEX
 8
CUERPO
 10
0
 20
0
 30
0
 70
128
 71
289
 72
290
 73
298
 74
297
 0
VERTEX
 8
CUERPO
 10
0
 20
0
 30
0
 70
128
 71
291
 72
292
 73
300
 74
299
 0
VERTEX
 8
CUERPO
 10
0
 20
0
 30
0
 70
128
 71
293
 72
294
 73
14
 74
13
 0
VERTEX
 8
CUERPO
 10
0
 20
0
 30
0
 70
128
 71
295
 72
296
 73
16
 74
15
 0
VERTEX
 8
CUERPO
 10
0
 20
0
 30
0
 70
128
 71
297
 72
298
 73
18
 74
17
 0
VERTEX
 8
CUERPO
 10
0
 20
0
 30
0
 70
128
 71
299
 72
300
 73
20
 74
19
 0
VERTEX
 8
CUERPO
 10
0
 20
0
 30
0
 70
128
 71
301
 72
302
 73
304
 74
303
 0
VERTEX
 8
CUERPO
 10
0
 20
0
 30
0
 70
128
 71
303
 72
304
 73
306
 74
305
 0
VERTEX
 8
CUERPO
 10
0
 20
0
 30
0
 70
128
 71
305
 72
306
 73
308
 74
307
 0
VERTEX
 8
CUERPO
 10
0
 20
0
 30
0
 70
128
 71
307
 72
308
 73
302
 74
301
 0
VERTEX
 8
CUERPO
 10
0
 20
0
 30
0
 70
128
 71
302
 72
308
 73
306
 74
304
 0
VERTEX
 8
CUERPO
 10
0
 20
0
 30
0
 70
128
 71
307
 72
301
 73
303
 74
305
 0
VERTEX
 8
CUERPO
 10
0
 20
0
 30
0
 70
128
 71
309
 72
310
 73
312
 74
311
 0
VERTEX
 8
CUERPO
 10
0
 20
0
 30
0
 70
128
 71
311
 72
312
 73
314
 74
313
 0
VERTEX
 8
CUERPO
 10
0
 20
0
 30
0
 70
128
 71
313
 72
314
 73
316
 74
315
 0
VERTEX
 8
CUERPO
 10
0
 20
0
 30
0
 70
128
 71
315
 72
316
 73
310
 74
309
 0
VERTEX
 8
CUERPO
 10
0
 20
0
 30
0
 70
128
 71
310
 72
316
 73
314
 74
312
 0
VERTEX
 8
CUERPO
 10
0
 20
0
 30
0
 70
128
 71
315
 72
309
 73
311
 74
313
 0
VERTEX
 8
CUERPO
 10
0
 20
0
 30
0
 70
128
 71
317
 72
318
 73
320
 74
319
 0
VERTEX
 8
CUERPO
 10
0
 20
0
 30
0
 70
128
 71
319
 72
320
 73
322
 74
321
 0
VERTEX
 8
CUERPO
 10
0
 20
0
 30
0
 70
128
 71
321
 72
322
 73
324
 74
323
 0
VERTEX
 8
CUERPO
 10
0
 20
0
 30
0
 70
128
 71
323
 72
324
 73
318
 74
317
 0
VERTEX
 8
CUERPO
 10
0
 20
0
 30
0
 70
128
 71
318
 72
324
 73
322
 74
320
 0
VERTEX
 8
CUERPO
 10
0
 20
0
 30
0
 70
128
 71
323
 72
317
 73
319
 74
321
 0
VERTEX
 8
CUERPO
 10
0
 20
0
 30
0
 70
128
 71
325
 72
343
 73
344
 74
327
 0
VERTEX
 8
CUERPO
 10
0
 20
0
 30
0
 70
128
 71
347
 72
345
 73
330
 74
353
 0
VERTEX
 8
CUERPO
 10
0
 20
0
 30
0
 70
128
 71
328
 72
352
 73
346
 74
335
 0
VERTEX
 8
CUERPO
 10
0
 20
0
 30
0
 70
128
 71
347
 72
329
 73
335
 74
346
 0
VERTEX
 8
CUERPO
 10
0
 20
0
 30
0
 70
128
 71
329
 72
353
 73
354
 74
331
 0
VERTEX
 8
CUERPO
 10
0
 20
0
 30
0
 70
128
 71
336
 72
326
 73
341
 74
333
 0
VERTEX
 8
CUERPO
 10
0
 20
0
 30
0
 70
128
 71
352
 72
328
 73
326
 74
350
 0
VERTEX
 8
CUERPO
 10
0
 20
0
 30
0
 70
128
 71
326
 72
332
 73
351
 74
350
 0
VERTEX
 8
CUERPO
 10
0
 20
0
 30
0
 70
128
 71
330
 72
345
 73
351
 74
332
 0
VERTEX
 8
CUERPO
 10
0
 20
0
 30
0
 70
128
 71
340
 72
337
 73
338
 74
339
 0
VERTEX
 8
CUERPO
 10
0
 20
0
 30
0
 70
128
 71
342
 72
328
 73
335
 74
334
 0
VERTEX
 8
CUERPO
 10
0
 20
0
 30
0
 70
128
 71
343
 72
325
 73
341
 74
341
 0
VERTEX
 8
CUERPO
 10
0
 20
0
 30
0
 70
128
 71
333
 72
341
 73
342
 74
334
 0
VERTEX
 8
CUERPO
 10
0
 20
0
 30
0
 70
128
 71
327
 72
344
 73
342
 74
342
 0
VERTEX
 8
CUERPO
 10
0
 20
0
 30
0
 70
128
 71
336
 72
331
 73
354
 74
354
 0
VERTEX
 8
CUERPO
 10
0
 20
0
 30
0
 70
128
 71
335
 72
329
 73
331
 74
336
 0
VERTEX
 8
CUERPO
 10
0
 20
0
 30
0
 70
128
 71
336
 72
340
 73
339
 74
335
 0
VERTEX
 8
CUERPO
 10
0
 20
0
 30
0
 70
128
 71
335
 72
339
 73
338
 74
334
 0
VERTEX
 8
CUERPO
 10
0
 20
0
 30
0
 70
128
 71
334
 72
338
 73
337
 74
333
 0
VERTEX
 8
CUERPO
 10
0
 20
0
 30
0
 70
128
 71
333
 72
337
 73
340
 74
336
 0
VERTEX
 8
CUERPO
 10
0
 20
0
 30
0
 70
128
 71
344
 72
328
 73
342
 74
342
 0
VERTEX
 8
CUERPO
 10
0
 20
0
 30
0
 70
128
 71
326
 72
343
 73
341
 74
341
 0
VERTEX
 8
CUERPO
 10
0
 20
0
 30
0
 70
128
 71
341
 72
325
 73
327
 74
342
 0
VERTEX
 8
CUERPO
 10
0
 20
0
 30
0
 70
128
 71
343
 72
326
 73
328
 74
344
 0
VERTEX
 8
CUERPO
 10
0
 20
0
 30
0
 70
128
 71
348
 72
346
 73
352
 74
350
 0
VERTEX
 8
CUERPO
 10
0
 20
0
 30
0
 70
128
 71
349
 72
351
 73
345
 74
347
 0
VERTEX
 8
CUERPO
 10
0
 20
0
 30
0
 70
128
 71
348
 72
350
 73
351
 74
349
 0
VERTEX
 8
CUERPO
 10
0
 20
0
 30
0
 70
128
 71
349
 72
347
 73
346
 74
348
 0
VERTEX
 8
CUERPO
 10
0
 20
0
 30
0
 70
128
 71
347
 72
353
 73
329
 74
329
 0
VERTEX
 8
CUERPO
 10
0
 20
0
 30
0
 70
128
 71
336
 72
354
 73
332
 74
326
 0
VERTEX
 8
CUERPO
 10
0
 20
0
 30
0
 70
128
 71
332
 72
355
 73
370
 74
370
 0
VERTEX
 8
CUERPO
 10
0
 20
0
 30
0
 70
128
 71
371
 72
356
 73
353
 74
353
 0
VERTEX
 8
CUERPO
 10
0
 20
0
 30
0
 70
128
 71
372
 72
371
 73
353
 74
353
 0
VERTEX
 8
CUERPO
 10
0
 20
0
 30
0
 70
128
 71
332
 72
370
 73
369
 74
369
 0
VERTEX
 8
CUERPO
 10
0
 20
0
 30
0
 70
128
 71
373
 72
372
 73
353
 74
353
 0
VERTEX
 8
CUERPO
 10
0
 20
0
 30
0
 70
128
 71
332
 72
369
 73
368
 74
368
 0
VERTEX
 8
CUERPO
 10
0
 20
0
 30
0
 70
128
 71
374
 72
373
 73
353
 74
353
 0
VERTEX
 8
CUERPO
 10
0
 20
0
 30
0
 70
128
 71
332
 72
368
 73
367
 74
367
 0
VERTEX
 8
CUERPO
 10
0
 20
0
 30
0
 70
128
 71
375
 72
374
 73
353
 74
353
 0
VERTEX
 8
CUERPO
 10
0
 20
0
 30
0
 70
128
 71
357
 72
375
 73
353
 74
353
 0
VERTEX
 8
CUERPO
 10
0
 20
0
 30
0
 70
128
 71
330
 72
332
 73
367
 74
366
 0
VERTEX
 8
CUERPO
 10
0
 20
0
 30
0
 70
128
 71
330
 72
366
 73
365
 74
365
 0
VERTEX
 8
CUERPO
 10
0
 20
0
 30
0
 70
128
 71
357
 72
353
 73
330
 74
364
 0
VERTEX
 8
CUERPO
 10
0
 20
0
 30
0
 70
128
 71
330
 72
365
 73
363
 74
363
 0
VERTEX
 8
CUERPO
 10
0
 20
0
 30
0
 70
128
 71
330
 72
363
 73
362
 74
362
 0
VERTEX
 8
CUERPO
 10
0
 20
0
 30
0
 70
128
 71
358
 72
364
 73
330
 74
330
 0
VERTEX
 8
CUERPO
 10
0
 20
0
 30
0
 70
128
 71
330
 72
362
 73
361
 74
361
 0
VERTEX
 8
CUERPO
 10
0
 20
0
 30
0
 70
128
 71
359
 72
358
 73
330
 74
330
 0
VERTEX
 8
CUERPO
 10
0
 20
0
 30
0
 70
128
 71
330
 72
361
 73
360
 74
360
 0
VERTEX
 8
CUERPO
 10
0
 20
0
 30
0
 70
128
 71
360
 72
359
 73
330
 74
330
 0
VERTEX
 8
CUERPO
 10
0
 20
0
 30
0
 70
128
 71
376
 72
355
 73
332
 74
332
 0
VERTEX
 8
CUERPO
 10
0
 20
0
 30
0
 70
128
 71
353
 72
356
 73
392
 74
392
 0
VERTEX
 8
CUERPO
 10
0
 20
0
 30
0
 70
128
 71
377
 72
376
 73
332
 74
332
 0
VERTEX
 8
CUERPO
 10
0
 20
0
 30
0
 70
128
 71
353
 72
392
 73
391
 74
391
 0
VERTEX
 8
CUERPO
 10
0
 20
0
 30
0
 70
128
 71
378
 72
377
 73
332
 74
332
 0
VERTEX
 8
CUERPO
 10
0
 20
0
 30
0
 70
128
 71
353
 72
391
 73
390
 74
390
 0
VERTEX
 8
CUERPO
 10
0
 20
0
 30
0
 70
128
 71
379
 72
378
 73
332
 74
332
 0
VERTEX
 8
CUERPO
 10
0
 20
0
 30
0
 70
128
 71
354
 72
353
 73
390
 74
389
 0
VERTEX
 8
CUERPO
 10
0
 20
0
 30
0
 70
128
 71
380
 72
379
 73
332
 74
354
 0
VERTEX
 8
CUERPO
 10
0
 20
0
 30
0
 70
128
 71
354
 72
389
 73
388
 74
388
 0
VERTEX
 8
CUERPO
 10
0
 20
0
 30
0
 70
128
 71
354
 72
388
 73
387
 74
387
 0
VERTEX
 8
CUERPO
 10
0
 20
0
 30
0
 70
128
 71
381
 72
380
 73
354
 74
354
 0
VERTEX
 8
CUERPO
 10
0
 20
0
 30
0
 70
128
 71
354
 72
387
 73
386
 74
386
 0
VERTEX
 8
CUERPO
 10
0
 20
0
 30
0
 70
128
 71
382
 72
381
 73
354
 74
354
 0
VERTEX
 8
CUERPO
 10
0
 20
0
 30
0
 70
128
 71
354
 72
386
 73
385
 74
385
 0
VERTEX
 8
CUERPO
 10
0
 20
0
 30
0
 70
128
 71
383
 72
382
 73
354
 74
354
 0
VERTEX
 8
CUERPO
 10
0
 20
0
 30
0
 70
128
 71
354
 72
385
 73
384
 74
384
 0
VERTEX
 8
CUERPO
 10
0
 20
0
 30
0
 70
128
 71
383
 72
354
 73
384
 74
384
 0
VERTEX
 8
CUERPO
 10
0
 20
0
 30
0
 70
128
 71
393
 72
430
 73
431
 74
395
 0
VERTEX
 8
CUERPO
 10
0
 20
0
 30
0
 70
128
 71
394
 72
393
 73
395
 74
395
 0
VERTEX
 8
CUERPO
 10
0
 20
0
 30
0
 70
128
 71
395
 72
431
 73
432
 74
396
 0
VERTEX
 8
CUERPO
 10
0
 20
0
 30
0
 70
128
 71
394
 72
395
 73
396
 74
396
 0
VERTEX
 8
CUERPO
 10
0
 20
0
 30
0
 70
128
 71
396
 72
432
 73
433
 74
397
 0
VERTEX
 8
CUERPO
 10
0
 20
0
 30
0
 70
128
 71
394
 72
396
 73
397
 74
397
 0
VERTEX
 8
CUERPO
 10
0
 20
0
 30
0
 70
128
 71
397
 72
433
 73
434
 74
398
 0
VERTEX
 8
CUERPO
 10
0
 20
0
 30
0
 70
128
 71
394
 72
397
 73
398
 74
398
 0
VERTEX
 8
CUERPO
 10
0
 20
0
 30
0
 70
128
 71
398
 72
434
 73
435
 74
399
 0
VERTEX
 8
CUERPO
 10
0
 20
0
 30
0
 70
128
 71
394
 72
398
 73
399
 74
399
 0
VERTEX
 8
CUERPO
 10
0
 20
0
 30
0
 70
128
 71
399
 72
435
 73
436
 74
400
 0
VERTEX
 8
CUERPO
 10
0
 20
0
 30
0
 70
128
 71
394
 72
399
 73
400
 74
400
 0
VERTEX
 8
CUERPO
 10
0
 20
0
 30
0
 70
128
 71
400
 72
436
 73
437
 74
401
 0
VERTEX
 8
CUERPO
 10
0
 20
0
 30
0
 70
128
 71
394
 72
400
 73
401
 74
401
 0
VERTEX
 8
CUERPO
 10
0
 20
0
 30
0
 70
128
 71
401
 72
437
 73
438
 74
402
 0
VERTEX
 8
CUERPO
 10
0
 20
0
 30
0
 70
128
 71
394
 72
401
 73
402
 74
402
 0
VERTEX
 8
CUERPO
 10
0
 20
0
 30
0
 70
128
 71
402
 72
438
 73
439
 74
403
 0
VERTEX
 8
CUERPO
 10
0
 20
0
 30
0
 70
128
 71
394
 72
402
 73
403
 74
403
 0
VERTEX
 8
CUERPO
 10
0
 20
0
 30
0
 70
128
 71
403
 72
439
 73
440
 74
404
 0
VERTEX
 8
CUERPO
 10
0
 20
0
 30
0
 70
128
 71
394
 72
403
 73
404
 74
404
 0
VERTEX
 8
CUERPO
 10
0
 20
0
 30
0
 70
128
 71
404
 72
440
 73
441
 74
405
 0
VERTEX
 8
CUERPO
 10
0
 20
0
 30
0
 70
128
 71
394
 72
404
 73
405
 74
405
 0
VERTEX
 8
CUERPO
 10
0
 20
0
 30
0
 70
128
 71
405
 72
441
 73
442
 74
406
 0
VERTEX
 8
CUERPO
 10
0
 20
0
 30
0
 70
128
 71
394
 72
405
 73
406
 74
406
 0
VERTEX
 8
CUERPO
 10
0
 20
0
 30
0
 70
128
 71
406
 72
442
 73
443
 74
407
 0
VERTEX
 8
CUERPO
 10
0
 20
0
 30
0
 70
128
 71
394
 72
406
 73
407
 74
407
 0
VERTEX
 8
CUERPO
 10
0
 20
0
 30
0
 70
128
 71
407
 72
443
 73
467
 74
408
 0
VERTEX
 8
CUERPO
 10
0
 20
0
 30
0
 70
128
 71
444
 72
408
 73
467
 74
467
 0
VERTEX
 8
CUERPO
 10
0
 20
0
 30
0
 70
128
 71
394
 72
407
 73
408
 74
408
 0
VERTEX
 8
CUERPO
 10
0
 20
0
 30
0
 70
128
 71
408
 72
444
 73
452
 74
409
 0
VERTEX
 8
CUERPO
 10
0
 20
0
 30
0
 70
128
 71
394
 72
408
 73
409
 74
409
 0
VERTEX
 8
CUERPO
 10
0
 20
0
 30
0
 70
128
 71
409
 72
452
 73
453
 74
410
 0
VERTEX
 8
CUERPO
 10
0
 20
0
 30
0
 70
128
 71
394
 72
409
 73
410
 74
410
 0
VERTEX
 8
CUERPO
 10
0
 20
0
 30
0
 70
128
 71
410
 72
453
 73
454
 74
411
 0
VERTEX
 8
CUERPO
 10
0
 20
0
 30
0
 70
128
 71
394
 72
410
 73
411
 74
411
 0
VERTEX
 8
CUERPO
 10
0
 20
0
 30
0
 70
128
 71
411
 72
454
 73
455
 74
412
 0
VERTEX
 8
CUERPO
 10
0
 20
0
 30
0
 70
128
 71
394
 72
411
 73
412
 74
412
 0
VERTEX
 8
CUERPO
 10
0
 20
0
 30
0
 70
128
 71
412
 72
455
 73
456
 74
413
 0
VERTEX
 8
CUERPO
 10
0
 20
0
 30
0
 70
128
 71
394
 72
412
 73
413
 74
413
 0
VERTEX
 8
CUERPO
 10
0
 20
0
 30
0
 70
128
 71
413
 72
456
 73
445
 74
414
 0
VERTEX
 8
CUERPO
 10
0
 20
0
 30
0
 70
128
 71
394
 72
413
 73
414
 74
414
 0
VERTEX
 8
CUERPO
 10
0
 20
0
 30
0
 70
128
 71
414
 72
445
 73
459
 74
415
 0
VERTEX
 8
CUERPO
 10
0
 20
0
 30
0
 70
128
 71
394
 72
414
 73
415
 74
415
 0
VERTEX
 8
CUERPO
 10
0
 20
0
 30
0
 70
128
 71
415
 72
459
 73
458
 74
416
 0
VERTEX
 8
CUERPO
 10
0
 20
0
 30
0
 70
128
 71
394
 72
415
 73
416
 74
416
 0
VERTEX
 8
CUERPO
 10
0
 20
0
 30
0
 70
128
 71
416
 72
458
 73
461
 74
417
 0
VERTEX
 8
CUERPO
 10
0
 20
0
 30
0
 70
128
 71
394
 72
416
 73
417
 74
417
 0
VERTEX
 8
CUERPO
 10
0
 20
0
 30
0
 70
128
 71
417
 72
461
 73
460
 74
418
 0
VERTEX
 8
CUERPO
 10
0
 20
0
 30
0
 70
128
 71
394
 72
417
 73
418
 74
418
 0
VERTEX
 8
CUERPO
 10
0
 20
0
 30
0
 70
128
 71
418
 72
460
 73
463
 74
419
 0
VERTEX
 8
CUERPO
 10
0
 20
0
 30
0
 70
128
 71
394
 72
418
 73
419
 74
419
 0
VERTEX
 8
CUERPO
 10
0
 20
0
 30
0
 70
128
 71
419
 72
463
 73
457
 74
420
 0
VERTEX
 8
CUERPO
 10
0
 20
0
 30
0
 70
128
 71
394
 72
419
 73
420
 74
420
 0
VERTEX
 8
CUERPO
 10
0
 20
0
 30
0
 70
128
 71
420
 72
457
 73
451
 74
421
 0
VERTEX
 8
CUERPO
 10
0
 20
0
 30
0
 70
128
 71
394
 72
420
 73
421
 74
421
 0
VERTEX
 8
CUERPO
 10
0
 20
0
 30
0
 70
128
 71
421
 72
451
 73
462
 74
422
 0
VERTEX
 8
CUERPO
 10
0
 20
0
 30
0
 70
128
 71
394
 72
421
 73
422
 74
422
 0
VERTEX
 8
CUERPO
 10
0
 20
0
 30
0
 70
128
 71
422
 72
462
 73
465
 74
423
 0
VERTEX
 8
CUERPO
 10
0
 20
0
 30
0
 70
128
 71
394
 72
422
 73
423
 74
423
 0
VERTEX
 8
CUERPO
 10
0
 20
0
 30
0
 70
128
 71
423
 72
465
 73
464
 74
424
 0
VERTEX
 8
CUERPO
 10
0
 20
0
 30
0
 70
128
 71
394
 72
423
 73
424
 74
424
 0
VERTEX
 8
CUERPO
 10
0
 20
0
 30
0
 70
128
 71
424
 72
464
 73
466
 74
466
 0
VERTEX
 8
CUERPO
 10
0
 20
0
 30
0
 70
128
 71
446
 72
425
 73
424
 74
466
 0
VERTEX
 8
CUERPO
 10
0
 20
0
 30
0
 70
128
 71
394
 72
424
 73
425
 74
425
 0
VERTEX
 8
CUERPO
 10
0
 20
0
 30
0
 70
128
 71
425
 72
446
 73
447
 74
426
 0
VERTEX
 8
CUERPO
 10
0
 20
0
 30
0
 70
128
 71
394
 72
425
 73
426
 74
426
 0
VERTEX
 8
CUERPO
 10
0
 20
0
 30
0
 70
128
 71
426
 72
447
 73
448
 74
427
 0
VERTEX
 8
CUERPO
 10
0
 20
0
 30
0
 70
128
 71
394
 72
426
 73
427
 74
427
 0
VERTEX
 8
CUERPO
 10
0
 20
0
 30
0
 70
128
 71
427
 72
448
 73
449
 74
428
 0
VERTEX
 8
CUERPO
 10
0
 20
0
 30
0
 70
128
 71
394
 72
427
 73
428
 74
428
 0
VERTEX
 8
CUERPO
 10
0
 20
0
 30
0
 70
128
 71
428
 72
449
 73
450
 74
429
 0
VERTEX
 8
CUERPO
 10
0
 20
0
 30
0
 70
128
 71
394
 72
428
 73
429
 74
429
 0
VERTEX
 8
CUERPO
 10
0
 20
0
 30
0
 70
128
 71
429
 72
450
 73
430
 74
393
 0
VERTEX
 8
CUERPO
 10
0
 20
0
 30
0
 70
128
 71
394
 72
429
 73
393
 74
393
 0
VERTEX
 8
CUERPO
 10
0
 20
0
 30
0
 70
128
 71
468
 72
469
 73
472
 74
471
 0
VERTEX
 8
CUERPO
 10
0
 20
0
 30
0
 70
128
 71
469
 72
470
 73
473
 74
472
 0
VERTEX
 8
CUERPO
 10
0
 20
0
 30
0
 70
128
 71
471
 72
472
 73
475
 74
474
 0
VERTEX
 8
CUERPO
 10
0
 20
0
 30
0
 70
128
 71
474
 72
475
 73
478
 74
477
 0
VERTEX
 8
CUERPO
 10
0
 20
0
 30
0
 70
128
 71
472
 72
473
 73
476
 74
475
 0
VERTEX
 8
CUERPO
 10
0
 20
0
 30
0
 70
128
 71
475
 72
476
 73
479
 74
478
 0
VERTEX
 8
CUERPO
 10
0
 20
0
 30
0
 70
128
 71
477
 72
478
 73
481
 74
480
 0
VERTEX
 8
CUERPO
 10
0
 20
0
 30
0
 70
128
 71
478
 72
479
 73
482
 74
481
 0
VERTEX
 8
CUERPO
 10
0
 20
0
 30
0
 70
128
 71
480
 72
481
 73
484
 74
483
 0
VERTEX
 8
CUERPO
 10
0
 20
0
 30
0
 70
128
 71
483
 72
484
 73
469
 74
468
 0
VERTEX
 8
CUERPO
 10
0
 20
0
 30
0
 70
128
 71
481
 72
482
 73
485
 74
484
 0
VERTEX
 8
CUERPO
 10
0
 20
0
 30
0
 70
128
 71
484
 72
485
 73
470
 74
469
 0
VERTEX
 8
CUERPO
 10
0
 20
0
 30
0
 70
128
 71
470
 72
485
 73
476
 74
473
 0
VERTEX
 8
CUERPO
 10
0
 20
0
 30
0
 70
128
 71
485
 72
482
 73
479
 74
476
 0
VERTEX
 8
CUERPO
 10
0
 20
0
 30
0
 70
128
 71
480
 72
483
 73
474
 74
477
 0
VERTEX
 8
CUERPO
 10
0
 20
0
 30
0
 70
128
 71
483
 72
468
 73
471
 74
474
 0
SEQEND
 0
POLYLINE
 8
CARGADOR
 66
1
 10
0.0
 20
0.0
 30
0.0
 70
64
 71
20
 72
18
 0
VERTEX
 8
CARGADOR
 10
-0.1411
 20
-0.9677
 30
-0.1636
 70
192
 0
VERTEX
 8
CARGADOR
 10
-0.1411
 20
-0.9606
 30
-0.133
 70
192
 0
VERTEX
 8
CARGADOR
 10
-0.1046
 20
-0.7602
 30
0.7377
 70
192
 0
VERTEX
 8
CARGADOR
 10
0.1411
 20
-0.9677
 30
-0.1636
 70
192
 0
VERTEX
 8
CARGADOR
 10
0.1411
 20
-0.9606
 30
-0.133
 70
192
 0
VERTEX
 8
CARGADOR
 10
0.1046
 20
-0.7602
 30
0.7377
 70
192
 0
VERTEX
 8
CARGADOR
 10
0.1411
 20
-0.5481
 30
-0.1649
 70
192
 0
VERTEX
 8
CARGADOR
 10
0.1411
 20
-0.5405
 30
-0.132
 70
192
 0
VERTEX
 8
CARGADOR
 10
0.104
 20
-0.3363
 30
0.7432
 70
192
 0
VERTEX
 8
CARGADOR
 10
-0.1411
 20
-0.5481
 30
-0.1649
 70
192
 0
VERTEX
 8
CARGADOR
 10
-0.1411
 20
-0.5405
 30
-0.132
 70
192
 0
VERTEX
 8
CARGADOR
 10
-0.104
 20
-0.3363
 30
0.7432
 70
192
 0
VERTEX
 8
CARGADOR
 10
-0.1637
 20
-0.9923
 30
-0.1636
 70
192
 0
VERTEX
 8
CARGADOR
 10
-0.1637
 20
-0.9839
 30
-0.133
 70
192
 0
VERTEX
 8
CARGADOR
 10
0.1637
 20
-0.9923
 30
-0.1636
 70
192
 0
VERTEX
 8
CARGADOR
 10
0.1637
 20
-0.9839
 30
-0.133
 70
192
 0
VERTEX
 8
CARGADOR
 10
0.1637
 20
-0.4982
 30
-0.1649
 70
192
 0
VERTEX
 8
CARGADOR
 10
0.1637
 20
-0.4893
 30
-0.132
 70
192
 0
VERTEX
 8
CARGADOR
 10
-0.1637
 20
-0.4982
 30
-0.1649
 70
192
 0
VERTEX
 8
CARGADOR
 10
-0.1637
 20
-0.4893
 30
-0.132
 70
192
 0
VERTEX
 8
CARGADOR
 10
0
 20
0
 30
0
 70
128
 71
13
 72
14
 73
16
 74
15
 0
VERTEX
 8
CARGADOR
 10
0
 20
0
 30
0
 70
128
 71
2
 72
3
 73
6
 74
5
 0
VERTEX
 8
CARGADOR
 10
0
 20
0
 30
0
 70
128
 71
15
 72
16
 73
18
 74
17
 0
VERTEX
 8
CARGADOR
 10
0
 20
0
 30
0
 70
128
 71
5
 72
6
 73
9
 74
8
 0
VERTEX
 8
CARGADOR
 10
0
 20
0
 30
0
 70
128
 71
17
 72
18
 73
20
 74
19
 0
VERTEX
 8
CARGADOR
 10
0
 20
0
 30
0
 70
128
 71
8
 72
9
 73
12
 74
11
 0
VERTEX
 8
CARGADOR
 10
0
 20
0
 30
0
 70
128
 71
19
 72
20
 73
14
 74
13
 0
VERTEX
 8
CARGADOR
 10
0
 20
0
 30
0
 70
128
 71
11
 72
12
 73
3
 74
2
 0
VERTEX
 8
CARGADOR
 10
0
 20
0
 30
0
 70
128
 71
3
 72
12
 73
9
 74
6
 0
VERTEX
 8
CARGADOR
 10
0
 20
0
 30
0
 70
128
 71
10
 72
1
 73
4
 74
7
 0
VERTEX
 8
CARGADOR
 10
0
 20
0
 30
0
 70
128
 71
1
 72
13
 73
15
 74
4
 0
VERTEX
 8
CARGADOR
 10
0
 20
0
 30
0
 70
128
 71
5
 72
16
 73
14
 74
2
 0
VERTEX
 8
CARGADOR
 10
0
 20
0
 30
0
 70
128
 71
4
 72
15
 73
17
 74
7
 0
VERTEX
 8
CARGADOR
 10
0
 20
0
 30
0
 70
128
 71
8
 72
18
 73
16
 74
5
 0
VERTEX
 8
CARGADOR
 10
0
 20
0
 30
0
 70
128
 71
7
 72
17
 73
19
 74
10
 0
VERTEX
 8
CARGADOR
 10
0
 20
0
 30
0
 70
128
 71
11
 72
20
 73
18
 74
8
 0
VERTEX
 8
CARGADOR
 10
0
 20
0
 30
0
 70
128
 71
10
 72
19
 73
13
 74
1
 0
VERTEX
 8
CARGADOR
 10
0
 20
0
 30
0
 70
128
 71
2
 72
14
 73
20
 74
11
 0
SEQEND
 0
POLYLINE
 8
GATILLO
 66
1
 10
0.0
 20
0.0
 30
0.0
 70
64
 71
8
 72
6
 0
VERTEX
 8
GATILLO
 10
-0.0591
 20
-0.2367
 30
0.4915
 70
192
 0
VERTEX
 8
GATILLO
 10
-0.0591
 20
-0.2763
 30
0.6887
 70
192
 0
VERTEX
 8
GATILLO
 10
0.0591
 20
-0.2367
 30
0.4915
 70
192
 0
VERTEX
 8
GATILLO
 10
0.0591
 20
-0.2763
 30
0.6887
 70
192
 0
VERTEX
 8
GATILLO
 10
0.0591
 20
-0.2182
 30
0.4952
 70
192
 0
VERTEX
 8
GATILLO
 10
0.0591
 20
-0.2578
 30
0.6924
 70
192
 0
VERTEX
 8
GATILLO
 10
-0.0591
 20
-0.2182
 30
0.4952
 70
192
 0
VERTEX
 8
GATILLO
 10
-0.0591
 20
-0.2578
 30
0.6924
 70
192
 0
VERTEX
 8
GATILLO
 10
0
 20
0
 30
0
 70
128
 71
1
 72
2
 73
4
 74
3
 0
VERTEX
 8
GATILLO
 10
0
 20
0
 30
0
 70
128
 71
3
 72
4
 73
6
 74
5
 0
VERTEX
 8
GATILLO
 10
0
 20
0
 30
0
 70
128
 71
5
 72
6
 73
8
 74
7
 0
VERTEX
 8
GATILLO
 10
0
 20
0
 30
0
 70
128
 71
7
 72
8
 73
2
 74
1
 0
VERTEX
 8
GATILLO
 10
0
 20
0
 30
0
 70
128
 71
2
 72
8
 73
6
 74
4
 0
VERTEX
 8
GATILLO
 10
0
 20
0
 30
0
 70
128
 71
7
 72
1
 73
3
 74
5
 0
SEQEND
 0
POLYLINE
 8
CUBO_2
 66
1
 10
0.0
 20
0.0
 30
0.0
 70
64
 71
8
 72
6
 0
VERTEX
 8
CUBO_2
 10
-0.0078
 20
-0.3203
 30
0.9504
 70
192
 0
VERTEX
 8
CUBO_2
 10
-0.0078
 20
-0.3203
 30
1.1084
 70
192
 0
VERTEX
 8
CUBO_2
 10
0.1319
 20
-0.3203
 30
0.9504
 70
192
 0
VERTEX
 8
CUBO_2
 10
0.1319
 20
-0.3203
 30
1.1084
 70
192
 0
VERTEX
 8
CUBO_2
 10
0.1319
 20
0.2588
 30
0.9504
 70
192
 0
VERTEX
 8
CUBO_2
 10
0.1319
 20
0.2588
 30
1.1084
 70
192
 0
VERTEX
 8
CUBO_2
 10
-0.0078
 20
0.2588
 30
0.9504
 70
192
 0
VERTEX
 8
CUBO_2
 10
-0.0078
 20
0.2588
 30
1.1084
 70
192
 0
VERTEX
 8
CUBO_2
 10
0
 20
0
 30
0
 70
128
 71
1
 72
2
 73
4
 74
3
 0
VERTEX
 8
CUBO_2
 10
0
 20
0
 30
0
 70
128
 71
3
 72
4
 73
6
 74
5
 0
VERTEX
 8
CUBO_2
 10
0
 20
0
 30
0
 70
128
 71
5
 72
6
 73
8
 74
7
 0
VERTEX
 8
CUBO_2
 10
0
 20
0
 30
0
 70
128
 71
7
 72
8
 73
2
 74
1
 0
VERTEX
 8
CUBO_2
 10
0
 20
0
 30
0
 70
128
 71
2
 72
8
 73
6
 74
4
 0
VERTEX
 8
CUBO_2
 10
0
 20
0
 30
0
 70
128
 71
7
 72
1
 73
3
 74
5
 0
SEQEND
 0
ENDSEC
 0
EOF
