 0
SECTION
 2
HEADER
 9
$ACADVER
 1
AC1009
 0
ENDSEC
 0
SECTION
 2
TABLES
 0
TABLE
 2
LTYPE
 70
1
 0
LTYPE
 2
CONTINUOUS
 70
64
 3
solid line
 72
65
 73
0
 40
0.0
 0
ENDTAB
 0
TABLE
 2
LAYER
 70
6
 0
LAYER
 2
0
 70
0
 62
7
 6
CONTINUOUS
 0
LAYER
 2
AR_1
 70
64
 62
7
 6
CONTINUOUS
 0
LAYER
 2
CUBO_5
 70
64
 62
88
 6
CONTINUOUS
 0
LAYER
 2
CUERPO
 70
64
 62
88
 6
CONTINUOUS
 0
LAYER
 2
CARGADOR
 70
64
 62
88
 6
CONTINUOUS
 0
LAYER
 2
CULATA
 70
64
 62
88
 6
CONTINUOUS
 0
LAYER
 2
CA_ON
 70
64
 62
88
 6
CONTINUOUS
 0
LAYER
 2
GATILLO
 70
64
 62
88
 6
CONTINUOUS
 0
LAYER
 2
MIRA
 70
64
 62
88
 6
CONTINUOUS
 0
LAYER
 2
GRIP
 70
64
 62
88
 6
CONTINUOUS
 0
ENDTAB
 0
ENDSEC
 0
SECTION
 2
BLOCKS
 0
ENDSEC
 0
SECTION
 2
ENTITIES
 0
POLYLINE
 8
CUBO_5
 66
1
 10
0.0
 20
0.0
 30
0.0
 70
64
 71
8
 72
6
 0
VERTEX
 8
CUBO_5
 10
0.042
 20
0.0477
 30
2.1929
 70
192
 0
VERTEX
 8
CUBO_5
 10
0.042
 20
0.0477
 30
2.2485
 70
192
 0
VERTEX
 8
CUBO_5
 10
0.2771
 20
0.0477
 30
2.1929
 70
192
 0
VERTEX
 8
CUBO_5
 10
0.2771
 20
0.0477
 30
2.2485
 70
192
 0
VERTEX
 8
CUBO_5
 10
0.2771
 20
0.0675
 30
2.1929
 70
192
 0
VERTEX
 8
CUBO_5
 10
0.2771
 20
0.0675
 30
2.2485
 70
192
 0
VERTEX
 8
CUBO_5
 10
0.042
 20
0.0675
 30
2.1929
 70
192
 0
VERTEX
 8
CUBO_5
 10
0.042
 20
0.0675
 30
2.2485
 70
192
 0
VERTEX
 8
CUBO_5
 10
0
 20
0
 30
0
 70
128
 71
1
 72
2
 73
4
 74
3
 0
VERTEX
 8
CUBO_5
 10
0
 20
0
 30
0
 70
128
 71
3
 72
4
 73
6
 74
5
 0
VERTEX
 8
CUBO_5
 10
0
 20
0
 30
0
 70
128
 71
5
 72
6
 73
8
 74
7
 0
VERTEX
 8
CUBO_5
 10
0
 20
0
 30
0
 70
128
 71
7
 72
8
 73
2
 74
1
 0
VERTEX
 8
CUBO_5
 10
0
 20
0
 30
0
 70
128
 71
2
 72
8
 73
6
 74
4
 0
VERTEX
 8
CUBO_5
 10
0
 20
0
 30
0
 70
128
 71
7
 72
1
 73
3
 74
5
 0
SEQEND
 0
POLYLINE
 8
CUERPO
 66
1
 10
0.0
 20
0.0
 30
0.0
 70
64
 71
56
 72
43
 0
VERTEX
 8
CUERPO
 10
-0.1564
 20
-0.0727
 30
2.0832
 70
192
 0
VERTEX
 8
CUERPO
 10
-0.1564
 20
-0.0727
 30
2.2811
 70
192
 0
VERTEX
 8
CUERPO
 10
0.96
 20
-0.0727
 30
2.0832
 70
192
 0
VERTEX
 8
CUERPO
 10
0.96
 20
-0.0727
 30
2.2811
 70
192
 0
VERTEX
 8
CUERPO
 10
0.96
 20
0.0727
 30
2.0832
 70
192
 0
VERTEX
 8
CUERPO
 10
0.96
 20
0.0727
 30
2.2811
 70
192
 0
VERTEX
 8
CUERPO
 10
-0.1564
 20
0.0727
 30
2.0832
 70
192
 0
VERTEX
 8
CUERPO
 10
-0.1564
 20
0.0727
 30
2.2811
 70
192
 0
VERTEX
 8
CUERPO
 10
0.2771
 20
0.0727
 30
2.2485
 70
192
 0
VERTEX
 8
CUERPO
 10
0.2771
 20
0.0727
 30
2.1929
 70
192
 0
VERTEX
 8
CUERPO
 10
0.042
 20
0.0727
 30
2.2485
 70
192
 0
VERTEX
 8
CUERPO
 10
0.042
 20
0.0727
 30
2.1929
 70
192
 0
VERTEX
 8
CUERPO
 10
0.042
 20
0.0047
 30
2.1929
 70
192
 0
VERTEX
 8
CUERPO
 10
0.042
 20
0.0047
 30
2.2485
 70
192
 0
VERTEX
 8
CUERPO
 10
0.2771
 20
0.0047
 30
2.1929
 70
192
 0
VERTEX
 8
CUERPO
 10
0.2771
 20
0.0047
 30
2.2485
 70
192
 0
VERTEX
 8
CUERPO
 10
0.2771
 20
0.0727
 30
2.2485
 70
192
 0
VERTEX
 8
CUERPO
 10
0.2771
 20
0.0727
 30
2.1929
 70
192
 0
VERTEX
 8
CUERPO
 10
0.042
 20
0.0727
 30
2.2485
 70
192
 0
VERTEX
 8
CUERPO
 10
0.042
 20
0.0727
 30
2.1929
 70
192
 0
VERTEX
 8
CUERPO
 10
0.3936
 20
-0.0413
 30
2.1042
 70
192
 0
VERTEX
 8
CUERPO
 10
0.4097
 20
-0.0413
 30
2.1131
 70
192
 0
VERTEX
 8
CUERPO
 10
0.4693
 20
-0.0413
 30
1.9688
 70
192
 0
VERTEX
 8
CUERPO
 10
0.4804
 20
-0.0413
 30
1.9835
 70
192
 0
VERTEX
 8
CUERPO
 10
0.6653
 20
-0.0413
 30
1.9616
 70
192
 0
VERTEX
 8
CUERPO
 10
0.6653
 20
-0.0413
 30
1.98
 70
192
 0
VERTEX
 8
CUERPO
 10
0.6653
 20
0.0413
 30
1.9616
 70
192
 0
VERTEX
 8
CUERPO
 10
0.6653
 20
0.0413
 30
1.98
 70
192
 0
VERTEX
 8
CUERPO
 10
0.4693
 20
0.0413
 30
1.9688
 70
192
 0
VERTEX
 8
CUERPO
 10
0.4804
 20
0.0413
 30
1.9835
 70
192
 0
VERTEX
 8
CUERPO
 10
0.3936
 20
0.0413
 30
2.1042
 70
192
 0
VERTEX
 8
CUERPO
 10
0.4097
 20
0.0413
 30
2.1131
 70
192
 0
VERTEX
 8
CUERPO
 10
-0.5826
 20
-0.0519
 30
2.1231
 70
192
 0
VERTEX
 8
CUERPO
 10
-0.5826
 20
-0.0519
 30
2.264
 70
192
 0
VERTEX
 8
CUERPO
 10
0.9929
 20
-0.0519
 30
2.1231
 70
192
 0
VERTEX
 8
CUERPO
 10
0.9929
 20
-0.0519
 30
2.264
 70
192
 0
VERTEX
 8
CUERPO
 10
0.9929
 20
0.0519
 30
2.1231
 70
192
 0
VERTEX
 8
CUERPO
 10
0.9929
 20
0.0519
 30
2.264
 70
192
 0
VERTEX
 8
CUERPO
 10
-0.5826
 20
0.0519
 30
2.1231
 70
192
 0
VERTEX
 8
CUERPO
 10
-0.5826
 20
0.0519
 30
2.264
 70
192
 0
VERTEX
 8
CUERPO
 10
0.0236
 20
-0.0658
 30
2.0196
 70
192
 0
VERTEX
 8
CUERPO
 10
0.0236
 20
-0.0658
 30
2.0887
 70
192
 0
VERTEX
 8
CUERPO
 10
0.2717
 20
-0.0658
 30
2.0196
 70
192
 0
VERTEX
 8
CUERPO
 10
0.2717
 20
-0.0658
 30
2.0887
 70
192
 0
VERTEX
 8
CUERPO
 10
0.2717
 20
0.0658
 30
2.0196
 70
192
 0
VERTEX
 8
CUERPO
 10
0.2717
 20
0.0658
 30
2.0887
 70
192
 0
VERTEX
 8
CUERPO
 10
0.0236
 20
0.0658
 30
2.0196
 70
192
 0
VERTEX
 8
CUERPO
 10
0.0236
 20
0.0658
 30
2.0887
 70
192
 0
VERTEX
 8
CUERPO
 10
0.5581
 20
-0.0626
 30
2.0933
 70
192
 0
VERTEX
 8
CUERPO
 10
0.7288
 20
-0.0626
 30
2.184
 70
192
 0
VERTEX
 8
CUERPO
 10
0.7991
 20
-0.0626
 30
1.6398
 70
192
 0
VERTEX
 8
CUERPO
 10
0.9698
 20
-0.0626
 30
1.7305
 70
192
 0
VERTEX
 8
CUERPO
 10
0.7991
 20
0.0626
 30
1.6398
 70
192
 0
VERTEX
 8
CUERPO
 10
0.9698
 20
0.0626
 30
1.7305
 70
192
 0
VERTEX
 8
CUERPO
 10
0.5581
 20
0.0626
 30
2.0933
 70
192
 0
VERTEX
 8
CUERPO
 10
0.7288
 20
0.0626
 30
2.184
 70
192
 0
VERTEX
 8
CUERPO
 10
0
 20
0
 30
0
 70
128
 71
1
 72
2
 73
4
 74
3
 0
VERTEX
 8
CUERPO
 10
0
 20
0
 30
0
 70
128
 71
3
 72
4
 73
6
 74
5
 0
VERTEX
 8
CUERPO
 10
0
 20
0
 30
0
 70
128
 71
7
 72
5
 73
10
 74
12
 0
VERTEX
 8
CUERPO
 10
0
 20
0
 30
0
 70
128
 71
8
 72
7
 73
11
 74
11
 0
VERTEX
 8
CUERPO
 10
0
 20
0
 30
0
 70
128
 71
12
 72
11
 73
7
 74
7
 0
VERTEX
 8
CUERPO
 10
0
 20
0
 30
0
 70
128
 71
6
 72
8
 73
11
 74
9
 0
VERTEX
 8
CUERPO
 10
0
 20
0
 30
0
 70
128
 71
10
 72
5
 73
6
 74
9
 0
VERTEX
 8
CUERPO
 10
0
 20
0
 30
0
 70
128
 71
7
 72
8
 73
2
 74
1
 0
VERTEX
 8
CUERPO
 10
0
 20
0
 30
0
 70
128
 71
2
 72
8
 73
6
 74
4
 0
VERTEX
 8
CUERPO
 10
0
 20
0
 30
0
 70
128
 71
7
 72
1
 73
3
 74
5
 0
VERTEX
 8
CUERPO
 10
0
 20
0
 30
0
 70
128
 71
14
 72
13
 73
15
 74
16
 0
VERTEX
 8
CUERPO
 10
0
 20
0
 30
0
 70
128
 71
15
 72
18
 73
17
 74
16
 0
VERTEX
 8
CUERPO
 10
0
 20
0
 30
0
 70
128
 71
14
 72
19
 73
20
 74
13
 0
VERTEX
 8
CUERPO
 10
0
 20
0
 30
0
 70
128
 71
16
 72
17
 73
19
 74
14
 0
VERTEX
 8
CUERPO
 10
0
 20
0
 30
0
 70
128
 71
13
 72
20
 73
18
 74
15
 0
VERTEX
 8
CUERPO
 10
0
 20
0
 30
0
 70
128
 71
21
 72
22
 73
24
 74
23
 0
VERTEX
 8
CUERPO
 10
0
 20
0
 30
0
 70
128
 71
23
 72
24
 73
26
 74
25
 0
VERTEX
 8
CUERPO
 10
0
 20
0
 30
0
 70
128
 71
25
 72
26
 73
28
 74
27
 0
VERTEX
 8
CUERPO
 10
0
 20
0
 30
0
 70
128
 71
27
 72
28
 73
30
 74
29
 0
VERTEX
 8
CUERPO
 10
0
 20
0
 30
0
 70
128
 71
29
 72
30
 73
32
 74
31
 0
VERTEX
 8
CUERPO
 10
0
 20
0
 30
0
 70
128
 71
31
 72
32
 73
22
 74
21
 0
VERTEX
 8
CUERPO
 10
0
 20
0
 30
0
 70
128
 71
22
 72
32
 73
30
 74
24
 0
VERTEX
 8
CUERPO
 10
0
 20
0
 30
0
 70
128
 71
24
 72
30
 73
28
 74
26
 0
VERTEX
 8
CUERPO
 10
0
 20
0
 30
0
 70
128
 71
31
 72
21
 73
23
 74
29
 0
VERTEX
 8
CUERPO
 10
0
 20
0
 30
0
 70
128
 71
29
 72
23
 73
25
 74
27
 0
VERTEX
 8
CUERPO
 10
0
 20
0
 30
0
 70
128
 71
33
 72
34
 73
36
 74
35
 0
VERTEX
 8
CUERPO
 10
0
 20
0
 30
0
 70
128
 71
35
 72
36
 73
38
 74
37
 0
VERTEX
 8
CUERPO
 10
0
 20
0
 30
0
 70
128
 71
37
 72
38
 73
40
 74
39
 0
VERTEX
 8
CUERPO
 10
0
 20
0
 30
0
 70
128
 71
39
 72
40
 73
34
 74
33
 0
VERTEX
 8
CUERPO
 10
0
 20
0
 30
0
 70
128
 71
34
 72
40
 73
38
 74
36
 0
VERTEX
 8
CUERPO
 10
0
 20
0
 30
0
 70
128
 71
39
 72
33
 73
35
 74
37
 0
VERTEX
 8
CUERPO
 10
0
 20
0
 30
0
 70
128
 71
41
 72
42
 73
44
 74
43
 0
VERTEX
 8
CUERPO
 10
0
 20
0
 30
0
 70
128
 71
43
 72
44
 73
46
 74
45
 0
VERTEX
 8
CUERPO
 10
0
 20
0
 30
0
 70
128
 71
45
 72
46
 73
48
 74
47
 0
VERTEX
 8
CUERPO
 10
0
 20
0
 30
0
 70
128
 71
47
 72
48
 73
42
 74
41
 0
VERTEX
 8
CUERPO
 10
0
 20
0
 30
0
 70
128
 71
42
 72
48
 73
46
 74
44
 0
VERTEX
 8
CUERPO
 10
0
 20
0
 30
0
 70
128
 71
47
 72
41
 73
43
 74
45
 0
VERTEX
 8
CUERPO
 10
0
 20
0
 30
0
 70
128
 71
49
 72
50
 73
52
 74
51
 0
VERTEX
 8
CUERPO
 10
0
 20
0
 30
0
 70
128
 71
51
 72
52
 73
54
 74
53
 0
VERTEX
 8
CUERPO
 10
0
 20
0
 30
0
 70
128
 71
53
 72
54
 73
56
 74
55
 0
VERTEX
 8
CUERPO
 10
0
 20
0
 30
0
 70
128
 71
55
 72
56
 73
50
 74
49
 0
VERTEX
 8
CUERPO
 10
0
 20
0
 30
0
 70
128
 71
50
 72
56
 73
54
 74
52
 0
VERTEX
 8
CUERPO
 10
0
 20
0
 30
0
 70
128
 71
55
 72
49
 73
51
 74
53
 0
SEQEND
 0
POLYLINE
 8
CARGADOR
 66
1
 10
0.0
 20
0.0
 30
0.0
 70
64
 71
12
 72
10
 0
VERTEX
 8
CARGADOR
 10
-0.0979
 20
-0.0418
 30
1.6599
 70
192
 0
VERTEX
 8
CARGADOR
 10
0.0236
 20
-0.043
 30
1.8954
 70
192
 0
VERTEX
 8
CARGADOR
 10
0.0564
 20
-0.043
 30
2.1009
 70
192
 0
VERTEX
 8
CARGADOR
 10
0.0789
 20
-0.0597
 30
1.5589
 70
192
 0
VERTEX
 8
CARGADOR
 10
0.2254
 20
-0.043
 30
1.8632
 70
192
 0
VERTEX
 8
CARGADOR
 10
0.2582
 20
-0.043
 30
2.0686
 70
192
 0
VERTEX
 8
CARGADOR
 10
0.0841
 20
0.0258
 30
1.5527
 70
192
 0
VERTEX
 8
CARGADOR
 10
0.2254
 20
0.043
 30
1.8632
 70
192
 0
VERTEX
 8
CARGADOR
 10
0.2582
 20
0.043
 30
2.0686
 70
192
 0
VERTEX
 8
CARGADOR
 10
-0.0927
 20
0.0438
 30
1.6537
 70
192
 0
VERTEX
 8
CARGADOR
 10
0.0236
 20
0.043
 30
1.8954
 70
192
 0
VERTEX
 8
CARGADOR
 10
0.0564
 20
0.043
 30
2.1009
 70
192
 0
VERTEX
 8
CARGADOR
 10
0
 20
0
 30
0
 70
128
 71
1
 72
2
 73
5
 74
4
 0
VERTEX
 8
CARGADOR
 10
0
 20
0
 30
0
 70
128
 71
2
 72
3
 73
6
 74
5
 0
VERTEX
 8
CARGADOR
 10
0
 20
0
 30
0
 70
128
 71
4
 72
5
 73
8
 74
7
 0
VERTEX
 8
CARGADOR
 10
0
 20
0
 30
0
 70
128
 71
5
 72
6
 73
9
 74
8
 0
VERTEX
 8
CARGADOR
 10
0
 20
0
 30
0
 70
128
 71
7
 72
8
 73
11
 74
10
 0
VERTEX
 8
CARGADOR
 10
0
 20
0
 30
0
 70
128
 71
8
 72
9
 73
12
 74
11
 0
VERTEX
 8
CARGADOR
 10
0
 20
0
 30
0
 70
128
 71
10
 72
11
 73
2
 74
1
 0
VERTEX
 8
CARGADOR
 10
0
 20
0
 30
0
 70
128
 71
11
 72
12
 73
3
 74
2
 0
VERTEX
 8
CARGADOR
 10
0
 20
0
 30
0
 70
128
 71
3
 72
12
 73
9
 74
6
 0
VERTEX
 8
CARGADOR
 10
0
 20
0
 30
0
 70
128
 71
10
 72
1
 73
4
 74
7
 0
SEQEND
 0
POLYLINE
 8
CULATA
 66
1
 10
0.0
 20
0.0
 30
0.0
 70
64
 71
154
 72
114
 0
VERTEX
 8
CULATA
 10
1.5262
 20
-0.045
 30
1.8322
 70
192
 0
VERTEX
 8
CULATA
 10
1.5262
 20
-0.045
 30
2.233
 70
192
 0
VERTEX
 8
CULATA
 10
1.5653
 20
-0.045
 30
1.8322
 70
192
 0
VERTEX
 8
CULATA
 10
1.5653
 20
-0.045
 30
2.233
 70
192
 0
VERTEX
 8
CULATA
 10
1.5653
 20
0.045
 30
1.8322
 70
192
 0
VERTEX
 8
CULATA
 10
1.5653
 20
0.045
 30
2.233
 70
192
 0
VERTEX
 8
CULATA
 10
1.5262
 20
0.045
 30
1.8322
 70
192
 0
VERTEX
 8
CULATA
 10
1.5262
 20
0.045
 30
2.233
 70
192
 0
VERTEX
 8
CULATA
 10
0.7934
 20
-0.0006
 30
2.1758
 70
192
 0
VERTEX
 8
CULATA
 10
1.5447
 20
-0.0006
 30
2.1758
 70
192
 0
VERTEX
 8
CULATA
 10
0.7934
 20
-0.0006
 30
2.1471
 70
192
 0
VERTEX
 8
CULATA
 10
0.7934
 20
-0.0006
 30
2.1471
 70
192
 0
VERTEX
 8
CULATA
 10
1.5447
 20
-0.0006
 30
2.1471
 70
192
 0
VERTEX
 8
CULATA
 10
1.5447
 20
-0.0006
 30
2.1471
 70
192
 0
VERTEX
 8
CULATA
 10
0.7934
 20
0.0044
 30
2.1475
 70
192
 0
VERTEX
 8
CULATA
 10
0.7934
 20
0.0044
 30
2.1475
 70
192
 0
VERTEX
 8
CULATA
 10
1.5447
 20
0.0044
 30
2.1475
 70
192
 0
VERTEX
 8
CULATA
 10
1.5447
 20
0.0044
 30
2.1475
 70
192
 0
VERTEX
 8
CULATA
 10
0.7934
 20
0.0092
 30
2.1488
 70
192
 0
VERTEX
 8
CULATA
 10
0.7934
 20
0.0092
 30
2.1488
 70
192
 0
VERTEX
 8
CULATA
 10
1.5447
 20
0.0092
 30
2.1488
 70
192
 0
VERTEX
 8
CULATA
 10
1.5447
 20
0.0092
 30
2.1488
 70
192
 0
VERTEX
 8
CULATA
 10
0.7934
 20
0.0137
 30
2.1509
 70
192
 0
VERTEX
 8
CULATA
 10
0.7934
 20
0.0137
 30
2.1509
 70
192
 0
VERTEX
 8
CULATA
 10
1.5447
 20
0.0137
 30
2.1509
 70
192
 0
VERTEX
 8
CULATA
 10
1.5447
 20
0.0137
 30
2.1509
 70
192
 0
VERTEX
 8
CULATA
 10
0.7934
 20
0.0178
 30
2.1538
 70
192
 0
VERTEX
 8
CULATA
 10
0.7934
 20
0.0178
 30
2.1538
 70
192
 0
VERTEX
 8
CULATA
 10
1.5447
 20
0.0178
 30
2.1538
 70
192
 0
VERTEX
 8
CULATA
 10
1.5447
 20
0.0178
 30
2.1538
 70
192
 0
VERTEX
 8
CULATA
 10
0.7934
 20
0.0214
 30
2.1573
 70
192
 0
VERTEX
 8
CULATA
 10
0.7934
 20
0.0214
 30
2.1573
 70
192
 0
VERTEX
 8
CULATA
 10
1.5447
 20
0.0214
 30
2.1573
 70
192
 0
VERTEX
 8
CULATA
 10
1.5447
 20
0.0214
 30
2.1573
 70
192
 0
VERTEX
 8
CULATA
 10
0.7934
 20
0.0242
 30
2.1614
 70
192
 0
VERTEX
 8
CULATA
 10
0.7934
 20
0.0242
 30
2.1614
 70
192
 0
VERTEX
 8
CULATA
 10
1.5447
 20
0.0242
 30
2.1614
 70
192
 0
VERTEX
 8
CULATA
 10
1.5447
 20
0.0242
 30
2.1614
 70
192
 0
VERTEX
 8
CULATA
 10
0.7934
 20
0.0263
 30
2.166
 70
192
 0
VERTEX
 8
CULATA
 10
0.7934
 20
0.0263
 30
2.166
 70
192
 0
VERTEX
 8
CULATA
 10
1.5447
 20
0.0263
 30
2.166
 70
192
 0
VERTEX
 8
CULATA
 10
1.5447
 20
0.0263
 30
2.166
 70
192
 0
VERTEX
 8
CULATA
 10
0.7934
 20
0.0276
 30
2.1708
 70
192
 0
VERTEX
 8
CULATA
 10
0.7934
 20
0.0276
 30
2.1708
 70
192
 0
VERTEX
 8
CULATA
 10
1.5447
 20
0.0276
 30
2.1708
 70
192
 0
VERTEX
 8
CULATA
 10
1.5447
 20
0.0276
 30
2.1708
 70
192
 0
VERTEX
 8
CULATA
 10
0.7934
 20
0.0281
 30
2.1758
 70
192
 0
VERTEX
 8
CULATA
 10
0.7934
 20
0.0281
 30
2.1758
 70
192
 0
VERTEX
 8
CULATA
 10
1.5447
 20
0.0281
 30
2.1758
 70
192
 0
VERTEX
 8
CULATA
 10
1.5447
 20
0.0281
 30
2.1758
 70
192
 0
VERTEX
 8
CULATA
 10
0.7934
 20
0.0276
 30
2.1807
 70
192
 0
VERTEX
 8
CULATA
 10
0.7934
 20
0.0276
 30
2.1807
 70
192
 0
VERTEX
 8
CULATA
 10
1.5447
 20
0.0276
 30
2.1807
 70
192
 0
VERTEX
 8
CULATA
 10
1.5447
 20
0.0276
 30
2.1807
 70
192
 0
VERTEX
 8
CULATA
 10
0.7934
 20
0.0263
 30
2.1856
 70
192
 0
VERTEX
 8
CULATA
 10
0.7934
 20
0.0263
 30
2.1856
 70
192
 0
VERTEX
 8
CULATA
 10
1.5447
 20
0.0263
 30
2.1856
 70
192
 0
VERTEX
 8
CULATA
 10
1.5447
 20
0.0263
 30
2.1856
 70
192
 0
VERTEX
 8
CULATA
 10
0.7934
 20
0.0242
 30
2.1901
 70
192
 0
VERTEX
 8
CULATA
 10
0.7934
 20
0.0242
 30
2.1901
 70
192
 0
VERTEX
 8
CULATA
 10
1.5447
 20
0.0242
 30
2.1901
 70
192
 0
VERTEX
 8
CULATA
 10
1.5447
 20
0.0242
 30
2.1901
 70
192
 0
VERTEX
 8
CULATA
 10
0.7934
 20
0.0214
 30
2.1942
 70
192
 0
VERTEX
 8
CULATA
 10
0.7934
 20
0.0214
 30
2.1942
 70
192
 0
VERTEX
 8
CULATA
 10
1.5447
 20
0.0214
 30
2.1942
 70
192
 0
VERTEX
 8
CULATA
 10
1.5447
 20
0.0214
 30
2.1942
 70
192
 0
VERTEX
 8
CULATA
 10
0.7934
 20
0.0178
 30
2.1977
 70
192
 0
VERTEX
 8
CULATA
 10
0.7934
 20
0.0178
 30
2.1977
 70
192
 0
VERTEX
 8
CULATA
 10
1.5447
 20
0.0178
 30
2.1977
 70
192
 0
VERTEX
 8
CULATA
 10
1.5447
 20
0.0178
 30
2.1977
 70
192
 0
VERTEX
 8
CULATA
 10
0.7934
 20
0.0137
 30
2.2006
 70
192
 0
VERTEX
 8
CULATA
 10
0.7934
 20
0.0137
 30
2.2006
 70
192
 0
VERTEX
 8
CULATA
 10
1.5447
 20
0.0137
 30
2.2006
 70
192
 0
VERTEX
 8
CULATA
 10
1.5447
 20
0.0137
 30
2.2006
 70
192
 0
VERTEX
 8
CULATA
 10
0.7934
 20
0.0092
 30
2.2027
 70
192
 0
VERTEX
 8
CULATA
 10
0.7934
 20
0.0092
 30
2.2027
 70
192
 0
VERTEX
 8
CULATA
 10
1.5447
 20
0.0092
 30
2.2027
 70
192
 0
VERTEX
 8
CULATA
 10
1.5447
 20
0.0092
 30
2.2027
 70
192
 0
VERTEX
 8
CULATA
 10
0.7934
 20
0.0044
 30
2.204
 70
192
 0
VERTEX
 8
CULATA
 10
0.7934
 20
0.0044
 30
2.204
 70
192
 0
VERTEX
 8
CULATA
 10
1.5447
 20
0.0044
 30
2.204
 70
192
 0
VERTEX
 8
CULATA
 10
1.5447
 20
0.0044
 30
2.204
 70
192
 0
VERTEX
 8
CULATA
 10
0.7934
 20
-0.0006
 30
2.2044
 70
192
 0
VERTEX
 8
CULATA
 10
0.7934
 20
-0.0006
 30
2.2044
 70
192
 0
VERTEX
 8
CULATA
 10
1.5447
 20
-0.0006
 30
2.2044
 70
192
 0
VERTEX
 8
CULATA
 10
1.5447
 20
-0.0006
 30
2.2044
 70
192
 0
VERTEX
 8
CULATA
 10
0.7934
 20
-0.0056
 30
2.204
 70
192
 0
VERTEX
 8
CULATA
 10
0.7934
 20
-0.0056
 30
2.204
 70
192
 0
VERTEX
 8
CULATA
 10
1.5447
 20
-0.0056
 30
2.204
 70
192
 0
VERTEX
 8
CULATA
 10
1.5447
 20
-0.0056
 30
2.204
 70
192
 0
VERTEX
 8
CULATA
 10
0.7934
 20
-0.0104
 30
2.2027
 70
192
 0
VERTEX
 8
CULATA
 10
0.7934
 20
-0.0104
 30
2.2027
 70
192
 0
VERTEX
 8
CULATA
 10
1.5447
 20
-0.0104
 30
2.2027
 70
192
 0
VERTEX
 8
CULATA
 10
1.5447
 20
-0.0104
 30
2.2027
 70
192
 0
VERTEX
 8
CULATA
 10
0.7934
 20
-0.0149
 30
2.2006
 70
192
 0
VERTEX
 8
CULATA
 10
0.7934
 20
-0.0149
 30
2.2006
 70
192
 0
VERTEX
 8
CULATA
 10
1.5447
 20
-0.0149
 30
2.2006
 70
192
 0
VERTEX
 8
CULATA
 10
1.5447
 20
-0.0149
 30
2.2006
 70
192
 0
VERTEX
 8
CULATA
 10
0.7934
 20
-0.019
 30
2.1977
 70
192
 0
VERTEX
 8
CULATA
 10
0.7934
 20
-0.019
 30
2.1977
 70
192
 0
VERTEX
 8
CULATA
 10
1.5447
 20
-0.019
 30
2.1977
 70
192
 0
VERTEX
 8
CULATA
 10
1.5447
 20
-0.019
 30
2.1977
 70
192
 0
VERTEX
 8
CULATA
 10
0.7934
 20
-0.0226
 30
2.1942
 70
192
 0
VERTEX
 8
CULATA
 10
0.7934
 20
-0.0226
 30
2.1942
 70
192
 0
VERTEX
 8
CULATA
 10
1.5447
 20
-0.0226
 30
2.1942
 70
192
 0
VERTEX
 8
CULATA
 10
1.5447
 20
-0.0226
 30
2.1942
 70
192
 0
VERTEX
 8
CULATA
 10
0.7934
 20
-0.0254
 30
2.1901
 70
192
 0
VERTEX
 8
CULATA
 10
0.7934
 20
-0.0254
 30
2.1901
 70
192
 0
VERTEX
 8
CULATA
 10
1.5447
 20
-0.0254
 30
2.1901
 70
192
 0
VERTEX
 8
CULATA
 10
1.5447
 20
-0.0254
 30
2.1901
 70
192
 0
VERTEX
 8
CULATA
 10
0.7934
 20
-0.0275
 30
2.1856
 70
192
 0
VERTEX
 8
CULATA
 10
0.7934
 20
-0.0275
 30
2.1856
 70
192
 0
VERTEX
 8
CULATA
 10
1.5447
 20
-0.0275
 30
2.1856
 70
192
 0
VERTEX
 8
CULATA
 10
1.5447
 20
-0.0275
 30
2.1856
 70
192
 0
VERTEX
 8
CULATA
 10
0.7934
 20
-0.0288
 30
2.1807
 70
192
 0
VERTEX
 8
CULATA
 10
0.7934
 20
-0.0288
 30
2.1807
 70
192
 0
VERTEX
 8
CULATA
 10
1.5447
 20
-0.0288
 30
2.1807
 70
192
 0
VERTEX
 8
CULATA
 10
1.5447
 20
-0.0288
 30
2.1807
 70
192
 0
VERTEX
 8
CULATA
 10
0.7934
 20
-0.0293
 30
2.1758
 70
192
 0
VERTEX
 8
CULATA
 10
0.7934
 20
-0.0293
 30
2.1758
 70
192
 0
VERTEX
 8
CULATA
 10
1.5447
 20
-0.0293
 30
2.1758
 70
192
 0
VERTEX
 8
CULATA
 10
1.5447
 20
-0.0293
 30
2.1758
 70
192
 0
VERTEX
 8
CULATA
 10
0.7934
 20
-0.0288
 30
2.1708
 70
192
 0
VERTEX
 8
CULATA
 10
0.7934
 20
-0.0288
 30
2.1708
 70
192
 0
VERTEX
 8
CULATA
 10
1.5447
 20
-0.0288
 30
2.1708
 70
192
 0
VERTEX
 8
CULATA
 10
1.5447
 20
-0.0288
 30
2.1708
 70
192
 0
VERTEX
 8
CULATA
 10
0.7934
 20
-0.0275
 30
2.166
 70
192
 0
VERTEX
 8
CULATA
 10
0.7934
 20
-0.0275
 30
2.166
 70
192
 0
VERTEX
 8
CULATA
 10
1.5447
 20
-0.0275
 30
2.166
 70
192
 0
VERTEX
 8
CULATA
 10
1.5447
 20
-0.0275
 30
2.166
 70
192
 0
VERTEX
 8
CULATA
 10
0.7934
 20
-0.0254
 30
2.1614
 70
192
 0
VERTEX
 8
CULATA
 10
0.7934
 20
-0.0254
 30
2.1614
 70
192
 0
VERTEX
 8
CULATA
 10
1.5447
 20
-0.0254
 30
2.1614
 70
192
 0
VERTEX
 8
CULATA
 10
1.5447
 20
-0.0254
 30
2.1614
 70
192
 0
VERTEX
 8
CULATA
 10
0.7934
 20
-0.0226
 30
2.1573
 70
192
 0
VERTEX
 8
CULATA
 10
0.7934
 20
-0.0226
 30
2.1573
 70
192
 0
VERTEX
 8
CULATA
 10
1.5447
 20
-0.0226
 30
2.1573
 70
192
 0
VERTEX
 8
CULATA
 10
1.5447
 20
-0.0226
 30
2.1573
 70
192
 0
VERTEX
 8
CULATA
 10
0.7934
 20
-0.019
 30
2.1538
 70
192
 0
VERTEX
 8
CULATA
 10
0.7934
 20
-0.019
 30
2.1538
 70
192
 0
VERTEX
 8
CULATA
 10
1.5447
 20
-0.019
 30
2.1538
 70
192
 0
VERTEX
 8
CULATA
 10
1.5447
 20
-0.019
 30
2.1538
 70
192
 0
VERTEX
 8
CULATA
 10
0.7934
 20
-0.0149
 30
2.1509
 70
192
 0
VERTEX
 8
CULATA
 10
0.7934
 20
-0.0149
 30
2.1509
 70
192
 0
VERTEX
 8
CULATA
 10
1.5447
 20
-0.0149
 30
2.1509
 70
192
 0
VERTEX
 8
CULATA
 10
1.5447
 20
-0.0149
 30
2.1509
 70
192
 0
VERTEX
 8
CULATA
 10
0.7934
 20
-0.0104
 30
2.1488
 70
192
 0
VERTEX
 8
CULATA
 10
0.7934
 20
-0.0104
 30
2.1488
 70
192
 0
VERTEX
 8
CULATA
 10
1.5447
 20
-0.0104
 30
2.1488
 70
192
 0
VERTEX
 8
CULATA
 10
1.5447
 20
-0.0104
 30
2.1488
 70
192
 0
VERTEX
 8
CULATA
 10
0.7934
 20
-0.0056
 30
2.1475
 70
192
 0
VERTEX
 8
CULATA
 10
0.7934
 20
-0.0056
 30
2.1475
 70
192
 0
VERTEX
 8
CULATA
 10
1.5447
 20
-0.0056
 30
2.1475
 70
192
 0
VERTEX
 8
CULATA
 10
1.5447
 20
-0.0056
 30
2.1475
 70
192
 0
VERTEX
 8
CULATA
 10
0
 20
0
 30
0
 70
128
 71
1
 72
2
 73
4
 74
3
 0
VERTEX
 8
CULATA
 10
0
 20
0
 30
0
 70
128
 71
3
 72
4
 73
6
 74
5
 0
VERTEX
 8
CULATA
 10
0
 20
0
 30
0
 70
128
 71
5
 72
6
 73
8
 74
7
 0
VERTEX
 8
CULATA
 10
0
 20
0
 30
0
 70
128
 71
7
 72
8
 73
2
 74
1
 0
VERTEX
 8
CULATA
 10
0
 20
0
 30
0
 70
128
 71
2
 72
8
 73
6
 74
4
 0
VERTEX
 8
CULATA
 10
0
 20
0
 30
0
 70
128
 71
7
 72
1
 73
3
 74
5
 0
VERTEX
 8
CULATA
 10
0
 20
0
 30
0
 70
128
 71
9
 72
11
 73
15
 74
15
 0
VERTEX
 8
CULATA
 10
0
 20
0
 30
0
 70
128
 71
12
 72
13
 73
17
 74
16
 0
VERTEX
 8
CULATA
 10
0
 20
0
 30
0
 70
128
 71
14
 72
10
 73
18
 74
18
 0
VERTEX
 8
CULATA
 10
0
 20
0
 30
0
 70
128
 71
9
 72
15
 73
19
 74
19
 0
VERTEX
 8
CULATA
 10
0
 20
0
 30
0
 70
128
 71
16
 72
17
 73
21
 74
20
 0
VERTEX
 8
CULATA
 10
0
 20
0
 30
0
 70
128
 71
18
 72
10
 73
22
 74
22
 0
VERTEX
 8
CULATA
 10
0
 20
0
 30
0
 70
128
 71
9
 72
19
 73
23
 74
23
 0
VERTEX
 8
CULATA
 10
0
 20
0
 30
0
 70
128
 71
20
 72
21
 73
25
 74
24
 0
VERTEX
 8
CULATA
 10
0
 20
0
 30
0
 70
128
 71
22
 72
10
 73
26
 74
26
 0
VERTEX
 8
CULATA
 10
0
 20
0
 30
0
 70
128
 71
9
 72
23
 73
27
 74
27
 0
VERTEX
 8
CULATA
 10
0
 20
0
 30
0
 70
128
 71
24
 72
25
 73
29
 74
28
 0
VERTEX
 8
CULATA
 10
0
 20
0
 30
0
 70
128
 71
26
 72
10
 73
30
 74
30
 0
VERTEX
 8
CULATA
 10
0
 20
0
 30
0
 70
128
 71
9
 72
27
 73
31
 74
31
 0
VERTEX
 8
CULATA
 10
0
 20
0
 30
0
 70
128
 71
28
 72
29
 73
33
 74
32
 0
VERTEX
 8
CULATA
 10
0
 20
0
 30
0
 70
128
 71
30
 72
10
 73
34
 74
34
 0
VERTEX
 8
CULATA
 10
0
 20
0
 30
0
 70
128
 71
9
 72
31
 73
35
 74
35
 0
VERTEX
 8
CULATA
 10
0
 20
0
 30
0
 70
128
 71
32
 72
33
 73
37
 74
36
 0
VERTEX
 8
CULATA
 10
0
 20
0
 30
0
 70
128
 71
34
 72
10
 73
38
 74
38
 0
VERTEX
 8
CULATA
 10
0
 20
0
 30
0
 70
128
 71
9
 72
35
 73
39
 74
39
 0
VERTEX
 8
CULATA
 10
0
 20
0
 30
0
 70
128
 71
36
 72
37
 73
41
 74
40
 0
VERTEX
 8
CULATA
 10
0
 20
0
 30
0
 70
128
 71
38
 72
10
 73
42
 74
42
 0
VERTEX
 8
CULATA
 10
0
 20
0
 30
0
 70
128
 71
9
 72
39
 73
43
 74
43
 0
VERTEX
 8
CULATA
 10
0
 20
0
 30
0
 70
128
 71
40
 72
41
 73
45
 74
44
 0
VERTEX
 8
CULATA
 10
0
 20
0
 30
0
 70
128
 71
42
 72
10
 73
46
 74
46
 0
VERTEX
 8
CULATA
 10
0
 20
0
 30
0
 70
128
 71
9
 72
43
 73
47
 74
47
 0
VERTEX
 8
CULATA
 10
0
 20
0
 30
0
 70
128
 71
44
 72
45
 73
49
 74
48
 0
VERTEX
 8
CULATA
 10
0
 20
0
 30
0
 70
128
 71
46
 72
10
 73
50
 74
50
 0
VERTEX
 8
CULATA
 10
0
 20
0
 30
0
 70
128
 71
9
 72
47
 73
51
 74
51
 0
VERTEX
 8
CULATA
 10
0
 20
0
 30
0
 70
128
 71
48
 72
49
 73
53
 74
52
 0
VERTEX
 8
CULATA
 10
0
 20
0
 30
0
 70
128
 71
50
 72
10
 73
54
 74
54
 0
VERTEX
 8
CULATA
 10
0
 20
0
 30
0
 70
128
 71
9
 72
51
 73
55
 74
55
 0
VERTEX
 8
CULATA
 10
0
 20
0
 30
0
 70
128
 71
52
 72
53
 73
57
 74
56
 0
VERTEX
 8
CULATA
 10
0
 20
0
 30
0
 70
128
 71
54
 72
10
 73
58
 74
58
 0
VERTEX
 8
CULATA
 10
0
 20
0
 30
0
 70
128
 71
9
 72
55
 73
59
 74
59
 0
VERTEX
 8
CULATA
 10
0
 20
0
 30
0
 70
128
 71
56
 72
57
 73
61
 74
60
 0
VERTEX
 8
CULATA
 10
0
 20
0
 30
0
 70
128
 71
58
 72
10
 73
62
 74
62
 0
VERTEX
 8
CULATA
 10
0
 20
0
 30
0
 70
128
 71
9
 72
59
 73
63
 74
63
 0
VERTEX
 8
CULATA
 10
0
 20
0
 30
0
 70
128
 71
60
 72
61
 73
65
 74
64
 0
VERTEX
 8
CULATA
 10
0
 20
0
 30
0
 70
128
 71
62
 72
10
 73
66
 74
66
 0
VERTEX
 8
CULATA
 10
0
 20
0
 30
0
 70
128
 71
9
 72
63
 73
67
 74
67
 0
VERTEX
 8
CULATA
 10
0
 20
0
 30
0
 70
128
 71
64
 72
65
 73
69
 74
68
 0
VERTEX
 8
CULATA
 10
0
 20
0
 30
0
 70
128
 71
66
 72
10
 73
70
 74
70
 0
VERTEX
 8
CULATA
 10
0
 20
0
 30
0
 70
128
 71
9
 72
67
 73
71
 74
71
 0
VERTEX
 8
CULATA
 10
0
 20
0
 30
0
 70
128
 71
68
 72
69
 73
73
 74
72
 0
VERTEX
 8
CULATA
 10
0
 20
0
 30
0
 70
128
 71
70
 72
10
 73
74
 74
74
 0
VERTEX
 8
CULATA
 10
0
 20
0
 30
0
 70
128
 71
9
 72
71
 73
75
 74
75
 0
VERTEX
 8
CULATA
 10
0
 20
0
 30
0
 70
128
 71
72
 72
73
 73
77
 74
76
 0
VERTEX
 8
CULATA
 10
0
 20
0
 30
0
 70
128
 71
74
 72
10
 73
78
 74
78
 0
VERTEX
 8
CULATA
 10
0
 20
0
 30
0
 70
128
 71
9
 72
75
 73
79
 74
79
 0
VERTEX
 8
CULATA
 10
0
 20
0
 30
0
 70
128
 71
76
 72
77
 73
81
 74
80
 0
VERTEX
 8
CULATA
 10
0
 20
0
 30
0
 70
128
 71
78
 72
10
 73
82
 74
82
 0
VERTEX
 8
CULATA
 10
0
 20
0
 30
0
 70
128
 71
9
 72
79
 73
83
 74
83
 0
VERTEX
 8
CULATA
 10
0
 20
0
 30
0
 70
128
 71
80
 72
81
 73
85
 74
84
 0
VERTEX
 8
CULATA
 10
0
 20
0
 30
0
 70
128
 71
82
 72
10
 73
86
 74
86
 0
VERTEX
 8
CULATA
 10
0
 20
0
 30
0
 70
128
 71
9
 72
83
 73
87
 74
87
 0
VERTEX
 8
CULATA
 10
0
 20
0
 30
0
 70
128
 71
84
 72
85
 73
89
 74
88
 0
VERTEX
 8
CULATA
 10
0
 20
0
 30
0
 70
128
 71
86
 72
10
 73
90
 74
90
 0
VERTEX
 8
CULATA
 10
0
 20
0
 30
0
 70
128
 71
9
 72
87
 73
91
 74
91
 0
VERTEX
 8
CULATA
 10
0
 20
0
 30
0
 70
128
 71
88
 72
89
 73
93
 74
92
 0
VERTEX
 8
CULATA
 10
0
 20
0
 30
0
 70
128
 71
90
 72
10
 73
94
 74
94
 0
VERTEX
 8
CULATA
 10
0
 20
0
 30
0
 70
128
 71
9
 72
91
 73
95
 74
95
 0
VERTEX
 8
CULATA
 10
0
 20
0
 30
0
 70
128
 71
92
 72
93
 73
97
 74
96
 0
VERTEX
 8
CULATA
 10
0
 20
0
 30
0
 70
128
 71
94
 72
10
 73
98
 74
98
 0
VERTEX
 8
CULATA
 10
0
 20
0
 30
0
 70
128
 71
9
 72
95
 73
99
 74
99
 0
VERTEX
 8
CULATA
 10
0
 20
0
 30
0
 70
128
 71
96
 72
97
 73
101
 74
100
 0
VERTEX
 8
CULATA
 10
0
 20
0
 30
0
 70
128
 71
98
 72
10
 73
102
 74
102
 0
VERTEX
 8
CULATA
 10
0
 20
0
 30
0
 70
128
 71
9
 72
99
 73
103
 74
103
 0
VERTEX
 8
CULATA
 10
0
 20
0
 30
0
 70
128
 71
100
 72
101
 73
105
 74
104
 0
VERTEX
 8
CULATA
 10
0
 20
0
 30
0
 70
128
 71
102
 72
10
 73
106
 74
106
 0
VERTEX
 8
CULATA
 10
0
 20
0
 30
0
 70
128
 71
9
 72
103
 73
107
 74
107
 0
VERTEX
 8
CULATA
 10
0
 20
0
 30
0
 70
128
 71
104
 72
105
 73
109
 74
108
 0
VERTEX
 8
CULATA
 10
0
 20
0
 30
0
 70
128
 71
106
 72
10
 73
110
 74
110
 0
VERTEX
 8
CULATA
 10
0
 20
0
 30
0
 70
128
 71
9
 72
107
 73
111
 74
111
 0
VERTEX
 8
CULATA
 10
0
 20
0
 30
0
 70
128
 71
108
 72
109
 73
113
 74
112
 0
VERTEX
 8
CULATA
 10
0
 20
0
 30
0
 70
128
 71
110
 72
10
 73
114
 74
114
 0
VERTEX
 8
CULATA
 10
0
 20
0
 30
0
 70
128
 71
9
 72
111
 73
115
 74
115
 0
VERTEX
 8
CULATA
 10
0
 20
0
 30
0
 70
128
 71
112
 72
113
 73
117
 74
116
 0
VERTEX
 8
CULATA
 10
0
 20
0
 30
0
 70
128
 71
114
 72
10
 73
118
 74
118
 0
VERTEX
 8
CULATA
 10
0
 20
0
 30
0
 70
128
 71
9
 72
115
 73
119
 74
119
 0
VERTEX
 8
CULATA
 10
0
 20
0
 30
0
 70
128
 71
116
 72
117
 73
121
 74
120
 0
VERTEX
 8
CULATA
 10
0
 20
0
 30
0
 70
128
 71
118
 72
10
 73
122
 74
122
 0
VERTEX
 8
CULATA
 10
0
 20
0
 30
0
 70
128
 71
9
 72
119
 73
123
 74
123
 0
VERTEX
 8
CULATA
 10
0
 20
0
 30
0
 70
128
 71
120
 72
121
 73
125
 74
124
 0
VERTEX
 8
CULATA
 10
0
 20
0
 30
0
 70
128
 71
122
 72
10
 73
126
 74
126
 0
VERTEX
 8
CULATA
 10
0
 20
0
 30
0
 70
128
 71
9
 72
123
 73
127
 74
127
 0
VERTEX
 8
CULATA
 10
0
 20
0
 30
0
 70
128
 71
124
 72
125
 73
129
 74
128
 0
VERTEX
 8
CULATA
 10
0
 20
0
 30
0
 70
128
 71
126
 72
10
 73
130
 74
130
 0
VERTEX
 8
CULATA
 10
0
 20
0
 30
0
 70
128
 71
9
 72
127
 73
131
 74
131
 0
VERTEX
 8
CULATA
 10
0
 20
0
 30
0
 70
128
 71
128
 72
129
 73
133
 74
132
 0
VERTEX
 8
CULATA
 10
0
 20
0
 30
0
 70
128
 71
130
 72
10
 73
134
 74
134
 0
VERTEX
 8
CULATA
 10
0
 20
0
 30
0
 70
128
 71
9
 72
131
 73
135
 74
135
 0
VERTEX
 8
CULATA
 10
0
 20
0
 30
0
 70
128
 71
132
 72
133
 73
137
 74
136
 0
VERTEX
 8
CULATA
 10
0
 20
0
 30
0
 70
128
 71
134
 72
10
 73
138
 74
138
 0
VERTEX
 8
CULATA
 10
0
 20
0
 30
0
 70
128
 71
9
 72
135
 73
139
 74
139
 0
VERTEX
 8
CULATA
 10
0
 20
0
 30
0
 70
128
 71
136
 72
137
 73
141
 74
140
 0
VERTEX
 8
CULATA
 10
0
 20
0
 30
0
 70
128
 71
138
 72
10
 73
142
 74
142
 0
VERTEX
 8
CULATA
 10
0
 20
0
 30
0
 70
128
 71
9
 72
139
 73
143
 74
143
 0
VERTEX
 8
CULATA
 10
0
 20
0
 30
0
 70
128
 71
140
 72
141
 73
145
 74
144
 0
VERTEX
 8
CULATA
 10
0
 20
0
 30
0
 70
128
 71
142
 72
10
 73
146
 74
146
 0
VERTEX
 8
CULATA
 10
0
 20
0
 30
0
 70
128
 71
9
 72
143
 73
147
 74
147
 0
VERTEX
 8
CULATA
 10
0
 20
0
 30
0
 70
128
 71
144
 72
145
 73
149
 74
148
 0
VERTEX
 8
CULATA
 10
0
 20
0
 30
0
 70
128
 71
146
 72
10
 73
150
 74
150
 0
VERTEX
 8
CULATA
 10
0
 20
0
 30
0
 70
128
 71
9
 72
147
 73
151
 74
151
 0
VERTEX
 8
CULATA
 10
0
 20
0
 30
0
 70
128
 71
148
 72
149
 73
153
 74
152
 0
VERTEX
 8
CULATA
 10
0
 20
0
 30
0
 70
128
 71
150
 72
10
 73
154
 74
154
 0
VERTEX
 8
CULATA
 10
0
 20
0
 30
0
 70
128
 71
9
 72
151
 73
11
 74
11
 0
VERTEX
 8
CULATA
 10
0
 20
0
 30
0
 70
128
 71
152
 72
153
 73
13
 74
12
 0
VERTEX
 8
CULATA
 10
0
 20
0
 30
0
 70
128
 71
154
 72
10
 73
14
 74
14
 0
SEQEND
 0
POLYLINE
 8
CA_ON
 66
1
 10
0.0
 20
0.0
 30
0.0
 70
64
 71
439
 72
257
 0
VERTEX
 8
CA_ON
 10
-1.0656
 20
0
 30
2.1689
 70
192
 0
VERTEX
 8
CA_ON
 10
-1.0656
 20
0
 30
2.1548
 70
192
 0
VERTEX
 8
CA_ON
 10
-1.0656
 20
0
 30
2.1548
 70
192
 0
VERTEX
 8
CA_ON
 10
-0.9745
 20
0
 30
2.1548
 70
192
 0
VERTEX
 8
CA_ON
 10
-0.9745
 20
0
 30
2.1548
 70
192
 0
VERTEX
 8
CA_ON
 10
-0.9745
 20
0
 30
2.1689
 70
192
 0
VERTEX
 8
CA_ON
 10
-0.9745
 20
0
 30
2.1689
 70
192
 0
VERTEX
 8
CA_ON
 10
-1.0656
 20
0
 30
2.1689
 70
192
 0
VERTEX
 8
CA_ON
 10
-1.0656
 20
0.0036
 30
2.1693
 70
192
 0
VERTEX
 8
CA_ON
 10
-1.0656
 20
0.0061
 30
2.1554
 70
192
 0
VERTEX
 8
CA_ON
 10
-1.0656
 20
0.0061
 30
2.1554
 70
192
 0
VERTEX
 8
CA_ON
 10
-0.9745
 20
0.0061
 30
2.1554
 70
192
 0
VERTEX
 8
CA_ON
 10
-0.9745
 20
0.0061
 30
2.1554
 70
192
 0
VERTEX
 8
CA_ON
 10
-0.9745
 20
0.0036
 30
2.1693
 70
192
 0
VERTEX
 8
CA_ON
 10
-0.9745
 20
0.0036
 30
2.1693
 70
192
 0
VERTEX
 8
CA_ON
 10
-1.0656
 20
0.0036
 30
2.1693
 70
192
 0
VERTEX
 8
CA_ON
 10
-1.0656
 20
0.0071
 30
2.1702
 70
192
 0
VERTEX
 8
CA_ON
 10
-1.0656
 20
0.0119
 30
2.157
 70
192
 0
VERTEX
 8
CA_ON
 10
-1.0656
 20
0.0119
 30
2.157
 70
192
 0
VERTEX
 8
CA_ON
 10
-0.9745
 20
0.0119
 30
2.157
 70
192
 0
VERTEX
 8
CA_ON
 10
-0.9745
 20
0.0119
 30
2.157
 70
192
 0
VERTEX
 8
CA_ON
 10
-0.9745
 20
0.0071
 30
2.1702
 70
192
 0
VERTEX
 8
CA_ON
 10
-0.9745
 20
0.0071
 30
2.1702
 70
192
 0
VERTEX
 8
CA_ON
 10
-1.0656
 20
0.0071
 30
2.1702
 70
192
 0
VERTEX
 8
CA_ON
 10
-1.0656
 20
0.0104
 30
2.1717
 70
192
 0
VERTEX
 8
CA_ON
 10
-1.0656
 20
0.0174
 30
2.1595
 70
192
 0
VERTEX
 8
CA_ON
 10
-1.0656
 20
0.0174
 30
2.1595
 70
192
 0
VERTEX
 8
CA_ON
 10
-0.9745
 20
0.0174
 30
2.1595
 70
192
 0
VERTEX
 8
CA_ON
 10
-0.9745
 20
0.0174
 30
2.1595
 70
192
 0
VERTEX
 8
CA_ON
 10
-0.9745
 20
0.0104
 30
2.1717
 70
192
 0
VERTEX
 8
CA_ON
 10
-0.9745
 20
0.0104
 30
2.1717
 70
192
 0
VERTEX
 8
CA_ON
 10
-1.0656
 20
0.0104
 30
2.1717
 70
192
 0
VERTEX
 8
CA_ON
 10
-1.0656
 20
0.0134
 30
2.1738
 70
192
 0
VERTEX
 8
CA_ON
 10
-1.0656
 20
0.0224
 30
2.163
 70
192
 0
VERTEX
 8
CA_ON
 10
-1.0656
 20
0.0224
 30
2.163
 70
192
 0
VERTEX
 8
CA_ON
 10
-0.9745
 20
0.0224
 30
2.163
 70
192
 0
VERTEX
 8
CA_ON
 10
-0.9745
 20
0.0224
 30
2.163
 70
192
 0
VERTEX
 8
CA_ON
 10
-0.9745
 20
0.0134
 30
2.1738
 70
192
 0
VERTEX
 8
CA_ON
 10
-0.9745
 20
0.0134
 30
2.1738
 70
192
 0
VERTEX
 8
CA_ON
 10
-1.0656
 20
0.0134
 30
2.1738
 70
192
 0
VERTEX
 8
CA_ON
 10
-1.0656
 20
0.0159
 30
2.1764
 70
192
 0
VERTEX
 8
CA_ON
 10
-1.0656
 20
0.0267
 30
2.1673
 70
192
 0
VERTEX
 8
CA_ON
 10
-1.0656
 20
0.0267
 30
2.1673
 70
192
 0
VERTEX
 8
CA_ON
 10
-0.9745
 20
0.0267
 30
2.1673
 70
192
 0
VERTEX
 8
CA_ON
 10
-0.9745
 20
0.0267
 30
2.1673
 70
192
 0
VERTEX
 8
CA_ON
 10
-0.9745
 20
0.0159
 30
2.1764
 70
192
 0
VERTEX
 8
CA_ON
 10
-0.9745
 20
0.0159
 30
2.1764
 70
192
 0
VERTEX
 8
CA_ON
 10
-1.0656
 20
0.0159
 30
2.1764
 70
192
 0
VERTEX
 8
CA_ON
 10
-1.0656
 20
0.018
 30
2.1793
 70
192
 0
VERTEX
 8
CA_ON
 10
-1.0656
 20
0.0302
 30
2.1723
 70
192
 0
VERTEX
 8
CA_ON
 10
-1.0656
 20
0.0302
 30
2.1723
 70
192
 0
VERTEX
 8
CA_ON
 10
-0.9745
 20
0.0302
 30
2.1723
 70
192
 0
VERTEX
 8
CA_ON
 10
-0.9745
 20
0.0302
 30
2.1723
 70
192
 0
VERTEX
 8
CA_ON
 10
-0.9745
 20
0.018
 30
2.1793
 70
192
 0
VERTEX
 8
CA_ON
 10
-0.9745
 20
0.018
 30
2.1793
 70
192
 0
VERTEX
 8
CA_ON
 10
-1.0656
 20
0.018
 30
2.1793
 70
192
 0
VERTEX
 8
CA_ON
 10
-1.0656
 20
0.0196
 30
2.1826
 70
192
 0
VERTEX
 8
CA_ON
 10
-1.0656
 20
0.0328
 30
2.1778
 70
192
 0
VERTEX
 8
CA_ON
 10
-1.0656
 20
0.0328
 30
2.1778
 70
192
 0
VERTEX
 8
CA_ON
 10
-0.9745
 20
0.0328
 30
2.1778
 70
192
 0
VERTEX
 8
CA_ON
 10
-0.9745
 20
0.0328
 30
2.1778
 70
192
 0
VERTEX
 8
CA_ON
 10
-0.9745
 20
0.0196
 30
2.1826
 70
192
 0
VERTEX
 8
CA_ON
 10
-0.9745
 20
0.0196
 30
2.1826
 70
192
 0
VERTEX
 8
CA_ON
 10
-1.0656
 20
0.0196
 30
2.1826
 70
192
 0
VERTEX
 8
CA_ON
 10
-1.0656
 20
0.0205
 30
2.1861
 70
192
 0
VERTEX
 8
CA_ON
 10
-1.0656
 20
0.0344
 30
2.1837
 70
192
 0
VERTEX
 8
CA_ON
 10
-1.0656
 20
0.0344
 30
2.1837
 70
192
 0
VERTEX
 8
CA_ON
 10
-0.9745
 20
0.0344
 30
2.1837
 70
192
 0
VERTEX
 8
CA_ON
 10
-0.9745
 20
0.0344
 30
2.1837
 70
192
 0
VERTEX
 8
CA_ON
 10
-0.9745
 20
0.0205
 30
2.1861
 70
192
 0
VERTEX
 8
CA_ON
 10
-0.9745
 20
0.0205
 30
2.1861
 70
192
 0
VERTEX
 8
CA_ON
 10
-1.0656
 20
0.0205
 30
2.1861
 70
192
 0
VERTEX
 8
CA_ON
 10
-1.0656
 20
0.0208
 30
2.1897
 70
192
 0
VERTEX
 8
CA_ON
 10
-1.0656
 20
0.0349
 30
2.1897
 70
192
 0
VERTEX
 8
CA_ON
 10
-1.0656
 20
0.0349
 30
2.1897
 70
192
 0
VERTEX
 8
CA_ON
 10
-0.9745
 20
0.0349
 30
2.1897
 70
192
 0
VERTEX
 8
CA_ON
 10
-0.9745
 20
0.0349
 30
2.1897
 70
192
 0
VERTEX
 8
CA_ON
 10
-0.9745
 20
0.0208
 30
2.1897
 70
192
 0
VERTEX
 8
CA_ON
 10
-0.9745
 20
0.0208
 30
2.1897
 70
192
 0
VERTEX
 8
CA_ON
 10
-1.0656
 20
0.0208
 30
2.1897
 70
192
 0
VERTEX
 8
CA_ON
 10
-1.0656
 20
0.0205
 30
2.1934
 70
192
 0
VERTEX
 8
CA_ON
 10
-1.0656
 20
0.0344
 30
2.1958
 70
192
 0
VERTEX
 8
CA_ON
 10
-1.0656
 20
0.0344
 30
2.1958
 70
192
 0
VERTEX
 8
CA_ON
 10
-0.9745
 20
0.0344
 30
2.1958
 70
192
 0
VERTEX
 8
CA_ON
 10
-0.9745
 20
0.0344
 30
2.1958
 70
192
 0
VERTEX
 8
CA_ON
 10
-0.9745
 20
0.0205
 30
2.1934
 70
192
 0
VERTEX
 8
CA_ON
 10
-0.9745
 20
0.0205
 30
2.1934
 70
192
 0
VERTEX
 8
CA_ON
 10
-1.0656
 20
0.0205
 30
2.1934
 70
192
 0
VERTEX
 8
CA_ON
 10
-1.0656
 20
0.0196
 30
2.1969
 70
192
 0
VERTEX
 8
CA_ON
 10
-1.0656
 20
0.0328
 30
2.2017
 70
192
 0
VERTEX
 8
CA_ON
 10
-1.0656
 20
0.0328
 30
2.2017
 70
192
 0
VERTEX
 8
CA_ON
 10
-0.9745
 20
0.0328
 30
2.2017
 70
192
 0
VERTEX
 8
CA_ON
 10
-0.9745
 20
0.0328
 30
2.2017
 70
192
 0
VERTEX
 8
CA_ON
 10
-0.9745
 20
0.0196
 30
2.1969
 70
192
 0
VERTEX
 8
CA_ON
 10
-0.9745
 20
0.0196
 30
2.1969
 70
192
 0
VERTEX
 8
CA_ON
 10
-1.0656
 20
0.0196
 30
2.1969
 70
192
 0
VERTEX
 8
CA_ON
 10
-1.0656
 20
0.018
 30
2.2002
 70
192
 0
VERTEX
 8
CA_ON
 10
-1.0656
 20
0.0302
 30
2.2072
 70
192
 0
VERTEX
 8
CA_ON
 10
-1.0656
 20
0.0302
 30
2.2072
 70
192
 0
VERTEX
 8
CA_ON
 10
-0.9745
 20
0.0302
 30
2.2072
 70
192
 0
VERTEX
 8
CA_ON
 10
-0.9745
 20
0.0302
 30
2.2072
 70
192
 0
VERTEX
 8
CA_ON
 10
-0.9745
 20
0.018
 30
2.2002
 70
192
 0
VERTEX
 8
CA_ON
 10
-0.9745
 20
0.018
 30
2.2002
 70
192
 0
VERTEX
 8
CA_ON
 10
-1.0656
 20
0.018
 30
2.2002
 70
192
 0
VERTEX
 8
CA_ON
 10
-1.0656
 20
0.0159
 30
2.2031
 70
192
 0
VERTEX
 8
CA_ON
 10
-1.0656
 20
0.0267
 30
2.2122
 70
192
 0
VERTEX
 8
CA_ON
 10
-1.0656
 20
0.0267
 30
2.2122
 70
192
 0
VERTEX
 8
CA_ON
 10
-0.9745
 20
0.0267
 30
2.2122
 70
192
 0
VERTEX
 8
CA_ON
 10
-0.9745
 20
0.0267
 30
2.2122
 70
192
 0
VERTEX
 8
CA_ON
 10
-0.9745
 20
0.0159
 30
2.2031
 70
192
 0
VERTEX
 8
CA_ON
 10
-0.9745
 20
0.0159
 30
2.2031
 70
192
 0
VERTEX
 8
CA_ON
 10
-1.0656
 20
0.0159
 30
2.2031
 70
192
 0
VERTEX
 8
CA_ON
 10
-1.0656
 20
0.0134
 30
2.2057
 70
192
 0
VERTEX
 8
CA_ON
 10
-1.0656
 20
0.0224
 30
2.2165
 70
192
 0
VERTEX
 8
CA_ON
 10
-1.0656
 20
0.0224
 30
2.2165
 70
192
 0
VERTEX
 8
CA_ON
 10
-0.9745
 20
0.0224
 30
2.2165
 70
192
 0
VERTEX
 8
CA_ON
 10
-0.9745
 20
0.0224
 30
2.2165
 70
192
 0
VERTEX
 8
CA_ON
 10
-0.9745
 20
0.0134
 30
2.2057
 70
192
 0
VERTEX
 8
CA_ON
 10
-0.9745
 20
0.0134
 30
2.2057
 70
192
 0
VERTEX
 8
CA_ON
 10
-1.0656
 20
0.0134
 30
2.2057
 70
192
 0
VERTEX
 8
CA_ON
 10
-1.0656
 20
0.0104
 30
2.2078
 70
192
 0
VERTEX
 8
CA_ON
 10
-1.0656
 20
0.0174
 30
2.22
 70
192
 0
VERTEX
 8
CA_ON
 10
-1.0656
 20
0.0174
 30
2.22
 70
192
 0
VERTEX
 8
CA_ON
 10
-0.9745
 20
0.0174
 30
2.22
 70
192
 0
VERTEX
 8
CA_ON
 10
-0.9745
 20
0.0174
 30
2.22
 70
192
 0
VERTEX
 8
CA_ON
 10
-0.9745
 20
0.0104
 30
2.2078
 70
192
 0
VERTEX
 8
CA_ON
 10
-0.9745
 20
0.0104
 30
2.2078
 70
192
 0
VERTEX
 8
CA_ON
 10
-1.0656
 20
0.0104
 30
2.2078
 70
192
 0
VERTEX
 8
CA_ON
 10
-1.0656
 20
0.0071
 30
2.2093
 70
192
 0
VERTEX
 8
CA_ON
 10
-1.0656
 20
0.0119
 30
2.2225
 70
192
 0
VERTEX
 8
CA_ON
 10
-1.0656
 20
0.0119
 30
2.2225
 70
192
 0
VERTEX
 8
CA_ON
 10
-0.9745
 20
0.0119
 30
2.2225
 70
192
 0
VERTEX
 8
CA_ON
 10
-0.9745
 20
0.0119
 30
2.2225
 70
192
 0
VERTEX
 8
CA_ON
 10
-0.9745
 20
0.0071
 30
2.2093
 70
192
 0
VERTEX
 8
CA_ON
 10
-0.9745
 20
0.0071
 30
2.2093
 70
192
 0
VERTEX
 8
CA_ON
 10
-1.0656
 20
0.0071
 30
2.2093
 70
192
 0
VERTEX
 8
CA_ON
 10
-1.0656
 20
0.0036
 30
2.2102
 70
192
 0
VERTEX
 8
CA_ON
 10
-1.0656
 20
0.0061
 30
2.2241
 70
192
 0
VERTEX
 8
CA_ON
 10
-1.0656
 20
0.0061
 30
2.2241
 70
192
 0
VERTEX
 8
CA_ON
 10
-0.9745
 20
0.0061
 30
2.2241
 70
192
 0
VERTEX
 8
CA_ON
 10
-0.9745
 20
0.0061
 30
2.2241
 70
192
 0
VERTEX
 8
CA_ON
 10
-0.9745
 20
0.0036
 30
2.2102
 70
192
 0
VERTEX
 8
CA_ON
 10
-0.9745
 20
0.0036
 30
2.2102
 70
192
 0
VERTEX
 8
CA_ON
 10
-1.0656
 20
0.0036
 30
2.2102
 70
192
 0
VERTEX
 8
CA_ON
 10
-1.0656
 20
0
 30
2.2106
 70
192
 0
VERTEX
 8
CA_ON
 10
-1.0656
 20
0
 30
2.2246
 70
192
 0
VERTEX
 8
CA_ON
 10
-1.0656
 20
0
 30
2.2246
 70
192
 0
VERTEX
 8
CA_ON
 10
-0.9745
 20
0
 30
2.2246
 70
192
 0
VERTEX
 8
CA_ON
 10
-0.9745
 20
0
 30
2.2246
 70
192
 0
VERTEX
 8
CA_ON
 10
-0.9745
 20
0
 30
2.2106
 70
192
 0
VERTEX
 8
CA_ON
 10
-0.9745
 20
0
 30
2.2106
 70
192
 0
VERTEX
 8
CA_ON
 10
-1.0656
 20
0
 30
2.2106
 70
192
 0
VERTEX
 8
CA_ON
 10
-1.0656
 20
-0.0036
 30
2.2102
 70
192
 0
VERTEX
 8
CA_ON
 10
-1.0656
 20
-0.0061
 30
2.2241
 70
192
 0
VERTEX
 8
CA_ON
 10
-1.0656
 20
-0.0061
 30
2.2241
 70
192
 0
VERTEX
 8
CA_ON
 10
-0.9745
 20
-0.0061
 30
2.2241
 70
192
 0
VERTEX
 8
CA_ON
 10
-0.9745
 20
-0.0061
 30
2.2241
 70
192
 0
VERTEX
 8
CA_ON
 10
-0.9745
 20
-0.0036
 30
2.2102
 70
192
 0
VERTEX
 8
CA_ON
 10
-0.9745
 20
-0.0036
 30
2.2102
 70
192
 0
VERTEX
 8
CA_ON
 10
-1.0656
 20
-0.0036
 30
2.2102
 70
192
 0
VERTEX
 8
CA_ON
 10
-1.0656
 20
-0.0071
 30
2.2093
 70
192
 0
VERTEX
 8
CA_ON
 10
-1.0656
 20
-0.0119
 30
2.2225
 70
192
 0
VERTEX
 8
CA_ON
 10
-1.0656
 20
-0.0119
 30
2.2225
 70
192
 0
VERTEX
 8
CA_ON
 10
-0.9745
 20
-0.0119
 30
2.2225
 70
192
 0
VERTEX
 8
CA_ON
 10
-0.9745
 20
-0.0119
 30
2.2225
 70
192
 0
VERTEX
 8
CA_ON
 10
-0.9745
 20
-0.0071
 30
2.2093
 70
192
 0
VERTEX
 8
CA_ON
 10
-0.9745
 20
-0.0071
 30
2.2093
 70
192
 0
VERTEX
 8
CA_ON
 10
-1.0656
 20
-0.0071
 30
2.2093
 70
192
 0
VERTEX
 8
CA_ON
 10
-1.0656
 20
-0.0104
 30
2.2078
 70
192
 0
VERTEX
 8
CA_ON
 10
-1.0656
 20
-0.0174
 30
2.22
 70
192
 0
VERTEX
 8
CA_ON
 10
-1.0656
 20
-0.0174
 30
2.22
 70
192
 0
VERTEX
 8
CA_ON
 10
-0.9745
 20
-0.0174
 30
2.22
 70
192
 0
VERTEX
 8
CA_ON
 10
-0.9745
 20
-0.0174
 30
2.22
 70
192
 0
VERTEX
 8
CA_ON
 10
-0.9745
 20
-0.0104
 30
2.2078
 70
192
 0
VERTEX
 8
CA_ON
 10
-0.9745
 20
-0.0104
 30
2.2078
 70
192
 0
VERTEX
 8
CA_ON
 10
-1.0656
 20
-0.0104
 30
2.2078
 70
192
 0
VERTEX
 8
CA_ON
 10
-1.0656
 20
-0.0134
 30
2.2057
 70
192
 0
VERTEX
 8
CA_ON
 10
-1.0656
 20
-0.0224
 30
2.2165
 70
192
 0
VERTEX
 8
CA_ON
 10
-1.0656
 20
-0.0224
 30
2.2165
 70
192
 0
VERTEX
 8
CA_ON
 10
-0.9745
 20
-0.0224
 30
2.2165
 70
192
 0
VERTEX
 8
CA_ON
 10
-0.9745
 20
-0.0224
 30
2.2165
 70
192
 0
VERTEX
 8
CA_ON
 10
-0.9745
 20
-0.0134
 30
2.2057
 70
192
 0
VERTEX
 8
CA_ON
 10
-0.9745
 20
-0.0134
 30
2.2057
 70
192
 0
VERTEX
 8
CA_ON
 10
-1.0656
 20
-0.0134
 30
2.2057
 70
192
 0
VERTEX
 8
CA_ON
 10
-1.0656
 20
-0.0159
 30
2.2031
 70
192
 0
VERTEX
 8
CA_ON
 10
-1.0656
 20
-0.0267
 30
2.2122
 70
192
 0
VERTEX
 8
CA_ON
 10
-1.0656
 20
-0.0267
 30
2.2122
 70
192
 0
VERTEX
 8
CA_ON
 10
-0.9745
 20
-0.0267
 30
2.2122
 70
192
 0
VERTEX
 8
CA_ON
 10
-0.9745
 20
-0.0267
 30
2.2122
 70
192
 0
VERTEX
 8
CA_ON
 10
-0.9745
 20
-0.0159
 30
2.2031
 70
192
 0
VERTEX
 8
CA_ON
 10
-0.9745
 20
-0.0159
 30
2.2031
 70
192
 0
VERTEX
 8
CA_ON
 10
-1.0656
 20
-0.0159
 30
2.2031
 70
192
 0
VERTEX
 8
CA_ON
 10
-1.0656
 20
-0.018
 30
2.2002
 70
192
 0
VERTEX
 8
CA_ON
 10
-1.0656
 20
-0.0302
 30
2.2072
 70
192
 0
VERTEX
 8
CA_ON
 10
-1.0656
 20
-0.0302
 30
2.2072
 70
192
 0
VERTEX
 8
CA_ON
 10
-0.9745
 20
-0.0302
 30
2.2072
 70
192
 0
VERTEX
 8
CA_ON
 10
-0.9745
 20
-0.0302
 30
2.2072
 70
192
 0
VERTEX
 8
CA_ON
 10
-0.9745
 20
-0.018
 30
2.2002
 70
192
 0
VERTEX
 8
CA_ON
 10
-0.9745
 20
-0.018
 30
2.2002
 70
192
 0
VERTEX
 8
CA_ON
 10
-1.0656
 20
-0.018
 30
2.2002
 70
192
 0
VERTEX
 8
CA_ON
 10
-1.0656
 20
-0.0196
 30
2.1969
 70
192
 0
VERTEX
 8
CA_ON
 10
-1.0656
 20
-0.0328
 30
2.2017
 70
192
 0
VERTEX
 8
CA_ON
 10
-1.0656
 20
-0.0328
 30
2.2017
 70
192
 0
VERTEX
 8
CA_ON
 10
-0.9745
 20
-0.0328
 30
2.2017
 70
192
 0
VERTEX
 8
CA_ON
 10
-0.9745
 20
-0.0328
 30
2.2017
 70
192
 0
VERTEX
 8
CA_ON
 10
-0.9745
 20
-0.0196
 30
2.1969
 70
192
 0
VERTEX
 8
CA_ON
 10
-0.9745
 20
-0.0196
 30
2.1969
 70
192
 0
VERTEX
 8
CA_ON
 10
-1.0656
 20
-0.0196
 30
2.1969
 70
192
 0
VERTEX
 8
CA_ON
 10
-1.0656
 20
-0.0205
 30
2.1934
 70
192
 0
VERTEX
 8
CA_ON
 10
-1.0656
 20
-0.0344
 30
2.1958
 70
192
 0
VERTEX
 8
CA_ON
 10
-1.0656
 20
-0.0344
 30
2.1958
 70
192
 0
VERTEX
 8
CA_ON
 10
-0.9745
 20
-0.0344
 30
2.1958
 70
192
 0
VERTEX
 8
CA_ON
 10
-0.9745
 20
-0.0344
 30
2.1958
 70
192
 0
VERTEX
 8
CA_ON
 10
-0.9745
 20
-0.0205
 30
2.1934
 70
192
 0
VERTEX
 8
CA_ON
 10
-0.9745
 20
-0.0205
 30
2.1934
 70
192
 0
VERTEX
 8
CA_ON
 10
-1.0656
 20
-0.0205
 30
2.1934
 70
192
 0
VERTEX
 8
CA_ON
 10
-1.0656
 20
-0.0208
 30
2.1897
 70
192
 0
VERTEX
 8
CA_ON
 10
-1.0656
 20
-0.0349
 30
2.1897
 70
192
 0
VERTEX
 8
CA_ON
 10
-1.0656
 20
-0.0349
 30
2.1897
 70
192
 0
VERTEX
 8
CA_ON
 10
-0.9745
 20
-0.0349
 30
2.1897
 70
192
 0
VERTEX
 8
CA_ON
 10
-0.9745
 20
-0.0349
 30
2.1897
 70
192
 0
VERTEX
 8
CA_ON
 10
-0.9745
 20
-0.0208
 30
2.1897
 70
192
 0
VERTEX
 8
CA_ON
 10
-0.9745
 20
-0.0208
 30
2.1897
 70
192
 0
VERTEX
 8
CA_ON
 10
-1.0656
 20
-0.0208
 30
2.1897
 70
192
 0
VERTEX
 8
CA_ON
 10
-1.0656
 20
-0.0205
 30
2.1861
 70
192
 0
VERTEX
 8
CA_ON
 10
-1.0656
 20
-0.0344
 30
2.1837
 70
192
 0
VERTEX
 8
CA_ON
 10
-1.0656
 20
-0.0344
 30
2.1837
 70
192
 0
VERTEX
 8
CA_ON
 10
-0.9745
 20
-0.0344
 30
2.1837
 70
192
 0
VERTEX
 8
CA_ON
 10
-0.9745
 20
-0.0344
 30
2.1837
 70
192
 0
VERTEX
 8
CA_ON
 10
-0.9745
 20
-0.0205
 30
2.1861
 70
192
 0
VERTEX
 8
CA_ON
 10
-0.9745
 20
-0.0205
 30
2.1861
 70
192
 0
VERTEX
 8
CA_ON
 10
-1.0656
 20
-0.0205
 30
2.1861
 70
192
 0
VERTEX
 8
CA_ON
 10
-1.0656
 20
-0.0196
 30
2.1826
 70
192
 0
VERTEX
 8
CA_ON
 10
-1.0656
 20
-0.0328
 30
2.1778
 70
192
 0
VERTEX
 8
CA_ON
 10
-1.0656
 20
-0.0328
 30
2.1778
 70
192
 0
VERTEX
 8
CA_ON
 10
-0.9745
 20
-0.0328
 30
2.1778
 70
192
 0
VERTEX
 8
CA_ON
 10
-0.9745
 20
-0.0328
 30
2.1778
 70
192
 0
VERTEX
 8
CA_ON
 10
-0.9745
 20
-0.0196
 30
2.1826
 70
192
 0
VERTEX
 8
CA_ON
 10
-0.9745
 20
-0.0196
 30
2.1826
 70
192
 0
VERTEX
 8
CA_ON
 10
-1.0656
 20
-0.0196
 30
2.1826
 70
192
 0
VERTEX
 8
CA_ON
 10
-1.0656
 20
-0.018
 30
2.1793
 70
192
 0
VERTEX
 8
CA_ON
 10
-1.0656
 20
-0.0302
 30
2.1723
 70
192
 0
VERTEX
 8
CA_ON
 10
-1.0656
 20
-0.0302
 30
2.1723
 70
192
 0
VERTEX
 8
CA_ON
 10
-0.9745
 20
-0.0302
 30
2.1723
 70
192
 0
VERTEX
 8
CA_ON
 10
-0.9745
 20
-0.0302
 30
2.1723
 70
192
 0
VERTEX
 8
CA_ON
 10
-0.9745
 20
-0.018
 30
2.1793
 70
192
 0
VERTEX
 8
CA_ON
 10
-0.9745
 20
-0.018
 30
2.1793
 70
192
 0
VERTEX
 8
CA_ON
 10
-1.0656
 20
-0.018
 30
2.1793
 70
192
 0
VERTEX
 8
CA_ON
 10
-1.0656
 20
-0.0159
 30
2.1764
 70
192
 0
VERTEX
 8
CA_ON
 10
-1.0656
 20
-0.0267
 30
2.1673
 70
192
 0
VERTEX
 8
CA_ON
 10
-1.0656
 20
-0.0267
 30
2.1673
 70
192
 0
VERTEX
 8
CA_ON
 10
-0.9745
 20
-0.0267
 30
2.1673
 70
192
 0
VERTEX
 8
CA_ON
 10
-0.9745
 20
-0.0267
 30
2.1673
 70
192
 0
VERTEX
 8
CA_ON
 10
-0.9745
 20
-0.0159
 30
2.1764
 70
192
 0
VERTEX
 8
CA_ON
 10
-0.9745
 20
-0.0159
 30
2.1764
 70
192
 0
VERTEX
 8
CA_ON
 10
-1.0656
 20
-0.0159
 30
2.1764
 70
192
 0
VERTEX
 8
CA_ON
 10
-1.0656
 20
-0.0134
 30
2.1738
 70
192
 0
VERTEX
 8
CA_ON
 10
-1.0656
 20
-0.0224
 30
2.163
 70
192
 0
VERTEX
 8
CA_ON
 10
-1.0656
 20
-0.0224
 30
2.163
 70
192
 0
VERTEX
 8
CA_ON
 10
-0.9745
 20
-0.0224
 30
2.163
 70
192
 0
VERTEX
 8
CA_ON
 10
-0.9745
 20
-0.0224
 30
2.163
 70
192
 0
VERTEX
 8
CA_ON
 10
-0.9745
 20
-0.0134
 30
2.1738
 70
192
 0
VERTEX
 8
CA_ON
 10
-0.9745
 20
-0.0134
 30
2.1738
 70
192
 0
VERTEX
 8
CA_ON
 10
-1.0656
 20
-0.0134
 30
2.1738
 70
192
 0
VERTEX
 8
CA_ON
 10
-1.0656
 20
-0.0104
 30
2.1717
 70
192
 0
VERTEX
 8
CA_ON
 10
-1.0656
 20
-0.0174
 30
2.1595
 70
192
 0
VERTEX
 8
CA_ON
 10
-1.0656
 20
-0.0174
 30
2.1595
 70
192
 0
VERTEX
 8
CA_ON
 10
-0.9745
 20
-0.0174
 30
2.1595
 70
192
 0
VERTEX
 8
CA_ON
 10
-0.9745
 20
-0.0174
 30
2.1595
 70
192
 0
VERTEX
 8
CA_ON
 10
-0.9745
 20
-0.0104
 30
2.1717
 70
192
 0
VERTEX
 8
CA_ON
 10
-0.9745
 20
-0.0104
 30
2.1717
 70
192
 0
VERTEX
 8
CA_ON
 10
-1.0656
 20
-0.0104
 30
2.1717
 70
192
 0
VERTEX
 8
CA_ON
 10
-1.0656
 20
-0.0071
 30
2.1702
 70
192
 0
VERTEX
 8
CA_ON
 10
-1.0656
 20
-0.0119
 30
2.157
 70
192
 0
VERTEX
 8
CA_ON
 10
-1.0656
 20
-0.0119
 30
2.157
 70
192
 0
VERTEX
 8
CA_ON
 10
-0.9745
 20
-0.0119
 30
2.157
 70
192
 0
VERTEX
 8
CA_ON
 10
-0.9745
 20
-0.0119
 30
2.157
 70
192
 0
VERTEX
 8
CA_ON
 10
-0.9745
 20
-0.0071
 30
2.1702
 70
192
 0
VERTEX
 8
CA_ON
 10
-0.9745
 20
-0.0071
 30
2.1702
 70
192
 0
VERTEX
 8
CA_ON
 10
-1.0656
 20
-0.0071
 30
2.1702
 70
192
 0
VERTEX
 8
CA_ON
 10
-1.0656
 20
-0.0036
 30
2.1693
 70
192
 0
VERTEX
 8
CA_ON
 10
-1.0656
 20
-0.0061
 30
2.1554
 70
192
 0
VERTEX
 8
CA_ON
 10
-1.0656
 20
-0.0061
 30
2.1554
 70
192
 0
VERTEX
 8
CA_ON
 10
-0.9745
 20
-0.0061
 30
2.1554
 70
192
 0
VERTEX
 8
CA_ON
 10
-0.9745
 20
-0.0061
 30
2.1554
 70
192
 0
VERTEX
 8
CA_ON
 10
-0.9745
 20
-0.0036
 30
2.1693
 70
192
 0
VERTEX
 8
CA_ON
 10
-0.9745
 20
-0.0036
 30
2.1693
 70
192
 0
VERTEX
 8
CA_ON
 10
-1.0656
 20
-0.0036
 30
2.1693
 70
192
 0
VERTEX
 8
CA_ON
 10
-1.0207
 20
-0.0006
 30
2.1902
 70
192
 0
VERTEX
 8
CA_ON
 10
-0.3021
 20
-0.0006
 30
2.1902
 70
192
 0
VERTEX
 8
CA_ON
 10
-1.0207
 20
-0.0006
 30
2.1631
 70
192
 0
VERTEX
 8
CA_ON
 10
-1.0207
 20
-0.0006
 30
2.1631
 70
192
 0
VERTEX
 8
CA_ON
 10
-0.3021
 20
-0.0006
 30
2.1631
 70
192
 0
VERTEX
 8
CA_ON
 10
-0.3021
 20
-0.0006
 30
2.1631
 70
192
 0
VERTEX
 8
CA_ON
 10
-1.0207
 20
0.0041
 30
2.1635
 70
192
 0
VERTEX
 8
CA_ON
 10
-1.0207
 20
0.0041
 30
2.1635
 70
192
 0
VERTEX
 8
CA_ON
 10
-0.3021
 20
0.0041
 30
2.1635
 70
192
 0
VERTEX
 8
CA_ON
 10
-0.3021
 20
0.0041
 30
2.1635
 70
192
 0
VERTEX
 8
CA_ON
 10
-1.0207
 20
0.0087
 30
2.1647
 70
192
 0
VERTEX
 8
CA_ON
 10
-1.0207
 20
0.0087
 30
2.1647
 70
192
 0
VERTEX
 8
CA_ON
 10
-0.3021
 20
0.0087
 30
2.1647
 70
192
 0
VERTEX
 8
CA_ON
 10
-0.3021
 20
0.0087
 30
2.1647
 70
192
 0
VERTEX
 8
CA_ON
 10
-1.0207
 20
0.013
 30
2.1667
 70
192
 0
VERTEX
 8
CA_ON
 10
-1.0207
 20
0.013
 30
2.1667
 70
192
 0
VERTEX
 8
CA_ON
 10
-0.3021
 20
0.013
 30
2.1667
 70
192
 0
VERTEX
 8
CA_ON
 10
-0.3021
 20
0.013
 30
2.1667
 70
192
 0
VERTEX
 8
CA_ON
 10
-1.0207
 20
0.0168
 30
2.1694
 70
192
 0
VERTEX
 8
CA_ON
 10
-1.0207
 20
0.0168
 30
2.1694
 70
192
 0
VERTEX
 8
CA_ON
 10
-0.3021
 20
0.0168
 30
2.1694
 70
192
 0
VERTEX
 8
CA_ON
 10
-0.3021
 20
0.0168
 30
2.1694
 70
192
 0
VERTEX
 8
CA_ON
 10
-1.0207
 20
0.0202
 30
2.1727
 70
192
 0
VERTEX
 8
CA_ON
 10
-1.0207
 20
0.0202
 30
2.1727
 70
192
 0
VERTEX
 8
CA_ON
 10
-0.3021
 20
0.0202
 30
2.1727
 70
192
 0
VERTEX
 8
CA_ON
 10
-0.3021
 20
0.0202
 30
2.1727
 70
192
 0
VERTEX
 8
CA_ON
 10
-1.0207
 20
0.0229
 30
2.1766
 70
192
 0
VERTEX
 8
CA_ON
 10
-1.0207
 20
0.0229
 30
2.1766
 70
192
 0
VERTEX
 8
CA_ON
 10
-0.3021
 20
0.0229
 30
2.1766
 70
192
 0
VERTEX
 8
CA_ON
 10
-0.3021
 20
0.0229
 30
2.1766
 70
192
 0
VERTEX
 8
CA_ON
 10
-1.0207
 20
0.0249
 30
2.1809
 70
192
 0
VERTEX
 8
CA_ON
 10
-1.0207
 20
0.0249
 30
2.1809
 70
192
 0
VERTEX
 8
CA_ON
 10
-0.3021
 20
0.0249
 30
2.1809
 70
192
 0
VERTEX
 8
CA_ON
 10
-0.3021
 20
0.0249
 30
2.1809
 70
192
 0
VERTEX
 8
CA_ON
 10
-1.0207
 20
0.0261
 30
2.1855
 70
192
 0
VERTEX
 8
CA_ON
 10
-1.0207
 20
0.0261
 30
2.1855
 70
192
 0
VERTEX
 8
CA_ON
 10
-0.3021
 20
0.0261
 30
2.1855
 70
192
 0
VERTEX
 8
CA_ON
 10
-0.3021
 20
0.0261
 30
2.1855
 70
192
 0
VERTEX
 8
CA_ON
 10
-1.0207
 20
0.0265
 30
2.1902
 70
192
 0
VERTEX
 8
CA_ON
 10
-1.0207
 20
0.0265
 30
2.1902
 70
192
 0
VERTEX
 8
CA_ON
 10
-0.3021
 20
0.0265
 30
2.1902
 70
192
 0
VERTEX
 8
CA_ON
 10
-0.3021
 20
0.0265
 30
2.1902
 70
192
 0
VERTEX
 8
CA_ON
 10
-1.0207
 20
0.0261
 30
2.1949
 70
192
 0
VERTEX
 8
CA_ON
 10
-1.0207
 20
0.0261
 30
2.1949
 70
192
 0
VERTEX
 8
CA_ON
 10
-0.3021
 20
0.0261
 30
2.1949
 70
192
 0
VERTEX
 8
CA_ON
 10
-0.3021
 20
0.0261
 30
2.1949
 70
192
 0
VERTEX
 8
CA_ON
 10
-1.0207
 20
0.0249
 30
2.1995
 70
192
 0
VERTEX
 8
CA_ON
 10
-1.0207
 20
0.0249
 30
2.1995
 70
192
 0
VERTEX
 8
CA_ON
 10
-0.3021
 20
0.0249
 30
2.1995
 70
192
 0
VERTEX
 8
CA_ON
 10
-0.3021
 20
0.0249
 30
2.1995
 70
192
 0
VERTEX
 8
CA_ON
 10
-1.0207
 20
0.0229
 30
2.2038
 70
192
 0
VERTEX
 8
CA_ON
 10
-1.0207
 20
0.0229
 30
2.2038
 70
192
 0
VERTEX
 8
CA_ON
 10
-0.3021
 20
0.0229
 30
2.2038
 70
192
 0
VERTEX
 8
CA_ON
 10
-0.3021
 20
0.0229
 30
2.2038
 70
192
 0
VERTEX
 8
CA_ON
 10
-1.0207
 20
0.0202
 30
2.2076
 70
192
 0
VERTEX
 8
CA_ON
 10
-1.0207
 20
0.0202
 30
2.2076
 70
192
 0
VERTEX
 8
CA_ON
 10
-0.3021
 20
0.0202
 30
2.2076
 70
192
 0
VERTEX
 8
CA_ON
 10
-0.3021
 20
0.0202
 30
2.2076
 70
192
 0
VERTEX
 8
CA_ON
 10
-1.0207
 20
0.0168
 30
2.211
 70
192
 0
VERTEX
 8
CA_ON
 10
-1.0207
 20
0.0168
 30
2.211
 70
192
 0
VERTEX
 8
CA_ON
 10
-0.3021
 20
0.0168
 30
2.211
 70
192
 0
VERTEX
 8
CA_ON
 10
-0.3021
 20
0.0168
 30
2.211
 70
192
 0
VERTEX
 8
CA_ON
 10
-1.0207
 20
0.013
 30
2.2137
 70
192
 0
VERTEX
 8
CA_ON
 10
-1.0207
 20
0.013
 30
2.2137
 70
192
 0
VERTEX
 8
CA_ON
 10
-0.3021
 20
0.013
 30
2.2137
 70
192
 0
VERTEX
 8
CA_ON
 10
-0.3021
 20
0.013
 30
2.2137
 70
192
 0
VERTEX
 8
CA_ON
 10
-1.0207
 20
0.0087
 30
2.2157
 70
192
 0
VERTEX
 8
CA_ON
 10
-1.0207
 20
0.0087
 30
2.2157
 70
192
 0
VERTEX
 8
CA_ON
 10
-0.3021
 20
0.0087
 30
2.2157
 70
192
 0
VERTEX
 8
CA_ON
 10
-0.3021
 20
0.0087
 30
2.2157
 70
192
 0
VERTEX
 8
CA_ON
 10
-1.0207
 20
0.0041
 30
2.2169
 70
192
 0
VERTEX
 8
CA_ON
 10
-1.0207
 20
0.0041
 30
2.2169
 70
192
 0
VERTEX
 8
CA_ON
 10
-0.3021
 20
0.0041
 30
2.2169
 70
192
 0
VERTEX
 8
CA_ON
 10
-0.3021
 20
0.0041
 30
2.2169
 70
192
 0
VERTEX
 8
CA_ON
 10
-1.0207
 20
-0.0006
 30
2.2173
 70
192
 0
VERTEX
 8
CA_ON
 10
-1.0207
 20
-0.0006
 30
2.2173
 70
192
 0
VERTEX
 8
CA_ON
 10
-0.3021
 20
-0.0006
 30
2.2173
 70
192
 0
VERTEX
 8
CA_ON
 10
-0.3021
 20
-0.0006
 30
2.2173
 70
192
 0
VERTEX
 8
CA_ON
 10
-1.0207
 20
-0.0053
 30
2.2169
 70
192
 0
VERTEX
 8
CA_ON
 10
-1.0207
 20
-0.0053
 30
2.2169
 70
192
 0
VERTEX
 8
CA_ON
 10
-0.3021
 20
-0.0053
 30
2.2169
 70
192
 0
VERTEX
 8
CA_ON
 10
-0.3021
 20
-0.0053
 30
2.2169
 70
192
 0
VERTEX
 8
CA_ON
 10
-1.0207
 20
-0.0099
 30
2.2157
 70
192
 0
VERTEX
 8
CA_ON
 10
-1.0207
 20
-0.0099
 30
2.2157
 70
192
 0
VERTEX
 8
CA_ON
 10
-0.3021
 20
-0.0099
 30
2.2157
 70
192
 0
VERTEX
 8
CA_ON
 10
-0.3021
 20
-0.0099
 30
2.2157
 70
192
 0
VERTEX
 8
CA_ON
 10
-1.0207
 20
-0.0142
 30
2.2137
 70
192
 0
VERTEX
 8
CA_ON
 10
-1.0207
 20
-0.0142
 30
2.2137
 70
192
 0
VERTEX
 8
CA_ON
 10
-0.3021
 20
-0.0142
 30
2.2137
 70
192
 0
VERTEX
 8
CA_ON
 10
-0.3021
 20
-0.0142
 30
2.2137
 70
192
 0
VERTEX
 8
CA_ON
 10
-1.0207
 20
-0.018
 30
2.211
 70
192
 0
VERTEX
 8
CA_ON
 10
-1.0207
 20
-0.018
 30
2.211
 70
192
 0
VERTEX
 8
CA_ON
 10
-0.3021
 20
-0.018
 30
2.211
 70
192
 0
VERTEX
 8
CA_ON
 10
-0.3021
 20
-0.018
 30
2.211
 70
192
 0
VERTEX
 8
CA_ON
 10
-1.0207
 20
-0.0214
 30
2.2076
 70
192
 0
VERTEX
 8
CA_ON
 10
-1.0207
 20
-0.0214
 30
2.2076
 70
192
 0
VERTEX
 8
CA_ON
 10
-0.3021
 20
-0.0214
 30
2.2076
 70
192
 0
VERTEX
 8
CA_ON
 10
-0.3021
 20
-0.0214
 30
2.2076
 70
192
 0
VERTEX
 8
CA_ON
 10
-1.0207
 20
-0.0241
 30
2.2038
 70
192
 0
VERTEX
 8
CA_ON
 10
-1.0207
 20
-0.0241
 30
2.2038
 70
192
 0
VERTEX
 8
CA_ON
 10
-0.3021
 20
-0.0241
 30
2.2038
 70
192
 0
VERTEX
 8
CA_ON
 10
-0.3021
 20
-0.0241
 30
2.2038
 70
192
 0
VERTEX
 8
CA_ON
 10
-1.0207
 20
-0.0261
 30
2.1995
 70
192
 0
VERTEX
 8
CA_ON
 10
-1.0207
 20
-0.0261
 30
2.1995
 70
192
 0
VERTEX
 8
CA_ON
 10
-0.3021
 20
-0.0261
 30
2.1995
 70
192
 0
VERTEX
 8
CA_ON
 10
-0.3021
 20
-0.0261
 30
2.1995
 70
192
 0
VERTEX
 8
CA_ON
 10
-1.0207
 20
-0.0273
 30
2.1949
 70
192
 0
VERTEX
 8
CA_ON
 10
-1.0207
 20
-0.0273
 30
2.1949
 70
192
 0
VERTEX
 8
CA_ON
 10
-0.3021
 20
-0.0273
 30
2.1949
 70
192
 0
VERTEX
 8
CA_ON
 10
-0.3021
 20
-0.0273
 30
2.1949
 70
192
 0
VERTEX
 8
CA_ON
 10
-1.0207
 20
-0.0277
 30
2.1902
 70
192
 0
VERTEX
 8
CA_ON
 10
-1.0207
 20
-0.0277
 30
2.1902
 70
192
 0
VERTEX
 8
CA_ON
 10
-0.3021
 20
-0.0277
 30
2.1902
 70
192
 0
VERTEX
 8
CA_ON
 10
-0.3021
 20
-0.0277
 30
2.1902
 70
192
 0
VERTEX
 8
CA_ON
 10
-1.0207
 20
-0.0273
 30
2.1855
 70
192
 0
VERTEX
 8
CA_ON
 10
-1.0207
 20
-0.0273
 30
2.1855
 70
192
 0
VERTEX
 8
CA_ON
 10
-0.3021
 20
-0.0273
 30
2.1855
 70
192
 0
VERTEX
 8
CA_ON
 10
-0.3021
 20
-0.0273
 30
2.1855
 70
192
 0
VERTEX
 8
CA_ON
 10
-1.0207
 20
-0.0261
 30
2.1809
 70
192
 0
VERTEX
 8
CA_ON
 10
-1.0207
 20
-0.0261
 30
2.1809
 70
192
 0
VERTEX
 8
CA_ON
 10
-0.3021
 20
-0.0261
 30
2.1809
 70
192
 0
VERTEX
 8
CA_ON
 10
-0.3021
 20
-0.0261
 30
2.1809
 70
192
 0
VERTEX
 8
CA_ON
 10
-1.0207
 20
-0.0241
 30
2.1766
 70
192
 0
VERTEX
 8
CA_ON
 10
-1.0207
 20
-0.0241
 30
2.1766
 70
192
 0
VERTEX
 8
CA_ON
 10
-0.3021
 20
-0.0241
 30
2.1766
 70
192
 0
VERTEX
 8
CA_ON
 10
-0.3021
 20
-0.0241
 30
2.1766
 70
192
 0
VERTEX
 8
CA_ON
 10
-1.0207
 20
-0.0214
 30
2.1727
 70
192
 0
VERTEX
 8
CA_ON
 10
-1.0207
 20
-0.0214
 30
2.1727
 70
192
 0
VERTEX
 8
CA_ON
 10
-0.3021
 20
-0.0214
 30
2.1727
 70
192
 0
VERTEX
 8
CA_ON
 10
-0.3021
 20
-0.0214
 30
2.1727
 70
192
 0
VERTEX
 8
CA_ON
 10
-1.0207
 20
-0.018
 30
2.1694
 70
192
 0
VERTEX
 8
CA_ON
 10
-1.0207
 20
-0.018
 30
2.1694
 70
192
 0
VERTEX
 8
CA_ON
 10
-0.3021
 20
-0.018
 30
2.1694
 70
192
 0
VERTEX
 8
CA_ON
 10
-0.3021
 20
-0.018
 30
2.1694
 70
192
 0
VERTEX
 8
CA_ON
 10
-1.0207
 20
-0.0142
 30
2.1667
 70
192
 0
VERTEX
 8
CA_ON
 10
-1.0207
 20
-0.0142
 30
2.1667
 70
192
 0
VERTEX
 8
CA_ON
 10
-0.3021
 20
-0.0142
 30
2.1667
 70
192
 0
VERTEX
 8
CA_ON
 10
-0.3021
 20
-0.0142
 30
2.1667
 70
192
 0
VERTEX
 8
CA_ON
 10
-1.0207
 20
-0.0099
 30
2.1647
 70
192
 0
VERTEX
 8
CA_ON
 10
-1.0207
 20
-0.0099
 30
2.1647
 70
192
 0
VERTEX
 8
CA_ON
 10
-0.3021
 20
-0.0099
 30
2.1647
 70
192
 0
VERTEX
 8
CA_ON
 10
-0.3021
 20
-0.0099
 30
2.1647
 70
192
 0
VERTEX
 8
CA_ON
 10
-1.0207
 20
-0.0053
 30
2.1635
 70
192
 0
VERTEX
 8
CA_ON
 10
-1.0207
 20
-0.0053
 30
2.1635
 70
192
 0
VERTEX
 8
CA_ON
 10
-0.3021
 20
-0.0053
 30
2.1635
 70
192
 0
VERTEX
 8
CA_ON
 10
-0.3021
 20
-0.0053
 30
2.1635
 70
192
 0
VERTEX
 8
CA_ON
 10
-0.9561
 20
-0.0136
 30
2.2054
 70
192
 0
VERTEX
 8
CA_ON
 10
-0.871
 20
-0.0136
 30
2.2054
 70
192
 0
VERTEX
 8
CA_ON
 10
-0.871
 20
0.0136
 30
2.2054
 70
192
 0
VERTEX
 8
CA_ON
 10
-0.9561
 20
0.0136
 30
2.2054
 70
192
 0
VERTEX
 8
CA_ON
 10
-0.9136
 20
0
 30
2.3363
 70
192
 0
VERTEX
 8
CA_ON
 10
0
 20
0
 30
0
 70
128
 71
1
 72
2
 73
10
 74
9
 0
VERTEX
 8
CA_ON
 10
0
 20
0
 30
0
 70
128
 71
3
 72
4
 73
12
 74
11
 0
VERTEX
 8
CA_ON
 10
0
 20
0
 30
0
 70
128
 71
5
 72
6
 73
14
 74
13
 0
VERTEX
 8
CA_ON
 10
0
 20
0
 30
0
 70
128
 71
7
 72
8
 73
16
 74
15
 0
VERTEX
 8
CA_ON
 10
0
 20
0
 30
0
 70
128
 71
9
 72
10
 73
18
 74
17
 0
VERTEX
 8
CA_ON
 10
0
 20
0
 30
0
 70
128
 71
11
 72
12
 73
20
 74
19
 0
VERTEX
 8
CA_ON
 10
0
 20
0
 30
0
 70
128
 71
13
 72
14
 73
22
 74
21
 0
VERTEX
 8
CA_ON
 10
0
 20
0
 30
0
 70
128
 71
15
 72
16
 73
24
 74
23
 0
VERTEX
 8
CA_ON
 10
0
 20
0
 30
0
 70
128
 71
17
 72
18
 73
26
 74
25
 0
VERTEX
 8
CA_ON
 10
0
 20
0
 30
0
 70
128
 71
19
 72
20
 73
28
 74
27
 0
VERTEX
 8
CA_ON
 10
0
 20
0
 30
0
 70
128
 71
21
 72
22
 73
30
 74
29
 0
VERTEX
 8
CA_ON
 10
0
 20
0
 30
0
 70
128
 71
23
 72
24
 73
32
 74
31
 0
VERTEX
 8
CA_ON
 10
0
 20
0
 30
0
 70
128
 71
25
 72
26
 73
34
 74
33
 0
VERTEX
 8
CA_ON
 10
0
 20
0
 30
0
 70
128
 71
27
 72
28
 73
36
 74
35
 0
VERTEX
 8
CA_ON
 10
0
 20
0
 30
0
 70
128
 71
29
 72
30
 73
38
 74
37
 0
VERTEX
 8
CA_ON
 10
0
 20
0
 30
0
 70
128
 71
31
 72
32
 73
40
 74
39
 0
VERTEX
 8
CA_ON
 10
0
 20
0
 30
0
 70
128
 71
33
 72
34
 73
42
 74
41
 0
VERTEX
 8
CA_ON
 10
0
 20
0
 30
0
 70
128
 71
35
 72
36
 73
44
 74
43
 0
VERTEX
 8
CA_ON
 10
0
 20
0
 30
0
 70
128
 71
37
 72
38
 73
46
 74
45
 0
VERTEX
 8
CA_ON
 10
0
 20
0
 30
0
 70
128
 71
39
 72
40
 73
48
 74
47
 0
VERTEX
 8
CA_ON
 10
0
 20
0
 30
0
 70
128
 71
41
 72
42
 73
50
 74
49
 0
VERTEX
 8
CA_ON
 10
0
 20
0
 30
0
 70
128
 71
43
 72
44
 73
52
 74
51
 0
VERTEX
 8
CA_ON
 10
0
 20
0
 30
0
 70
128
 71
45
 72
46
 73
54
 74
53
 0
VERTEX
 8
CA_ON
 10
0
 20
0
 30
0
 70
128
 71
47
 72
48
 73
56
 74
55
 0
VERTEX
 8
CA_ON
 10
0
 20
0
 30
0
 70
128
 71
49
 72
50
 73
58
 74
57
 0
VERTEX
 8
CA_ON
 10
0
 20
0
 30
0
 70
128
 71
51
 72
52
 73
60
 74
59
 0
VERTEX
 8
CA_ON
 10
0
 20
0
 30
0
 70
128
 71
53
 72
54
 73
62
 74
61
 0
VERTEX
 8
CA_ON
 10
0
 20
0
 30
0
 70
128
 71
55
 72
56
 73
64
 74
63
 0
VERTEX
 8
CA_ON
 10
0
 20
0
 30
0
 70
128
 71
57
 72
58
 73
66
 74
65
 0
VERTEX
 8
CA_ON
 10
0
 20
0
 30
0
 70
128
 71
59
 72
60
 73
68
 74
67
 0
VERTEX
 8
CA_ON
 10
0
 20
0
 30
0
 70
128
 71
61
 72
62
 73
70
 74
69
 0
VERTEX
 8
CA_ON
 10
0
 20
0
 30
0
 70
128
 71
63
 72
64
 73
72
 74
71
 0
VERTEX
 8
CA_ON
 10
0
 20
0
 30
0
 70
128
 71
65
 72
66
 73
74
 74
73
 0
VERTEX
 8
CA_ON
 10
0
 20
0
 30
0
 70
128
 71
67
 72
68
 73
76
 74
75
 0
VERTEX
 8
CA_ON
 10
0
 20
0
 30
0
 70
128
 71
69
 72
70
 73
78
 74
77
 0
VERTEX
 8
CA_ON
 10
0
 20
0
 30
0
 70
128
 71
71
 72
72
 73
80
 74
79
 0
VERTEX
 8
CA_ON
 10
0
 20
0
 30
0
 70
128
 71
73
 72
74
 73
82
 74
81
 0
VERTEX
 8
CA_ON
 10
0
 20
0
 30
0
 70
128
 71
75
 72
76
 73
84
 74
83
 0
VERTEX
 8
CA_ON
 10
0
 20
0
 30
0
 70
128
 71
77
 72
78
 73
86
 74
85
 0
VERTEX
 8
CA_ON
 10
0
 20
0
 30
0
 70
128
 71
79
 72
80
 73
88
 74
87
 0
VERTEX
 8
CA_ON
 10
0
 20
0
 30
0
 70
128
 71
81
 72
82
 73
90
 74
89
 0
VERTEX
 8
CA_ON
 10
0
 20
0
 30
0
 70
128
 71
83
 72
84
 73
92
 74
91
 0
VERTEX
 8
CA_ON
 10
0
 20
0
 30
0
 70
128
 71
85
 72
86
 73
94
 74
93
 0
VERTEX
 8
CA_ON
 10
0
 20
0
 30
0
 70
128
 71
87
 72
88
 73
96
 74
95
 0
VERTEX
 8
CA_ON
 10
0
 20
0
 30
0
 70
128
 71
89
 72
90
 73
98
 74
97
 0
VERTEX
 8
CA_ON
 10
0
 20
0
 30
0
 70
128
 71
91
 72
92
 73
100
 74
99
 0
VERTEX
 8
CA_ON
 10
0
 20
0
 30
0
 70
128
 71
93
 72
94
 73
102
 74
101
 0
VERTEX
 8
CA_ON
 10
0
 20
0
 30
0
 70
128
 71
95
 72
96
 73
104
 74
103
 0
VERTEX
 8
CA_ON
 10
0
 20
0
 30
0
 70
128
 71
97
 72
98
 73
106
 74
105
 0
VERTEX
 8
CA_ON
 10
0
 20
0
 30
0
 70
128
 71
99
 72
100
 73
108
 74
107
 0
VERTEX
 8
CA_ON
 10
0
 20
0
 30
0
 70
128
 71
101
 72
102
 73
110
 74
109
 0
VERTEX
 8
CA_ON
 10
0
 20
0
 30
0
 70
128
 71
103
 72
104
 73
112
 74
111
 0
VERTEX
 8
CA_ON
 10
0
 20
0
 30
0
 70
128
 71
105
 72
106
 73
114
 74
113
 0
VERTEX
 8
CA_ON
 10
0
 20
0
 30
0
 70
128
 71
107
 72
108
 73
116
 74
115
 0
VERTEX
 8
CA_ON
 10
0
 20
0
 30
0
 70
128
 71
109
 72
110
 73
118
 74
117
 0
VERTEX
 8
CA_ON
 10
0
 20
0
 30
0
 70
128
 71
111
 72
112
 73
120
 74
119
 0
VERTEX
 8
CA_ON
 10
0
 20
0
 30
0
 70
128
 71
113
 72
114
 73
122
 74
121
 0
VERTEX
 8
CA_ON
 10
0
 20
0
 30
0
 70
128
 71
115
 72
116
 73
124
 74
123
 0
VERTEX
 8
CA_ON
 10
0
 20
0
 30
0
 70
128
 71
117
 72
118
 73
126
 74
125
 0
VERTEX
 8
CA_ON
 10
0
 20
0
 30
0
 70
128
 71
119
 72
120
 73
128
 74
127
 0
VERTEX
 8
CA_ON
 10
0
 20
0
 30
0
 70
128
 71
121
 72
122
 73
130
 74
129
 0
VERTEX
 8
CA_ON
 10
0
 20
0
 30
0
 70
128
 71
123
 72
124
 73
132
 74
131
 0
VERTEX
 8
CA_ON
 10
0
 20
0
 30
0
 70
128
 71
125
 72
126
 73
134
 74
133
 0
VERTEX
 8
CA_ON
 10
0
 20
0
 30
0
 70
128
 71
127
 72
128
 73
136
 74
135
 0
VERTEX
 8
CA_ON
 10
0
 20
0
 30
0
 70
128
 71
129
 72
130
 73
138
 74
137
 0
VERTEX
 8
CA_ON
 10
0
 20
0
 30
0
 70
128
 71
131
 72
132
 73
140
 74
139
 0
VERTEX
 8
CA_ON
 10
0
 20
0
 30
0
 70
128
 71
133
 72
134
 73
142
 74
141
 0
VERTEX
 8
CA_ON
 10
0
 20
0
 30
0
 70
128
 71
135
 72
136
 73
144
 74
143
 0
VERTEX
 8
CA_ON
 10
0
 20
0
 30
0
 70
128
 71
137
 72
138
 73
146
 74
145
 0
VERTEX
 8
CA_ON
 10
0
 20
0
 30
0
 70
128
 71
139
 72
140
 73
148
 74
147
 0
VERTEX
 8
CA_ON
 10
0
 20
0
 30
0
 70
128
 71
141
 72
142
 73
150
 74
149
 0
VERTEX
 8
CA_ON
 10
0
 20
0
 30
0
 70
128
 71
143
 72
144
 73
152
 74
151
 0
VERTEX
 8
CA_ON
 10
0
 20
0
 30
0
 70
128
 71
145
 72
146
 73
154
 74
153
 0
VERTEX
 8
CA_ON
 10
0
 20
0
 30
0
 70
128
 71
147
 72
148
 73
156
 74
155
 0
VERTEX
 8
CA_ON
 10
0
 20
0
 30
0
 70
128
 71
149
 72
150
 73
158
 74
157
 0
VERTEX
 8
CA_ON
 10
0
 20
0
 30
0
 70
128
 71
151
 72
152
 73
160
 74
159
 0
VERTEX
 8
CA_ON
 10
0
 20
0
 30
0
 70
128
 71
153
 72
154
 73
162
 74
161
 0
VERTEX
 8
CA_ON
 10
0
 20
0
 30
0
 70
128
 71
155
 72
156
 73
164
 74
163
 0
VERTEX
 8
CA_ON
 10
0
 20
0
 30
0
 70
128
 71
157
 72
158
 73
166
 74
165
 0
VERTEX
 8
CA_ON
 10
0
 20
0
 30
0
 70
128
 71
159
 72
160
 73
168
 74
167
 0
VERTEX
 8
CA_ON
 10
0
 20
0
 30
0
 70
128
 71
161
 72
162
 73
170
 74
169
 0
VERTEX
 8
CA_ON
 10
0
 20
0
 30
0
 70
128
 71
163
 72
164
 73
172
 74
171
 0
VERTEX
 8
CA_ON
 10
0
 20
0
 30
0
 70
128
 71
165
 72
166
 73
174
 74
173
 0
VERTEX
 8
CA_ON
 10
0
 20
0
 30
0
 70
128
 71
167
 72
168
 73
176
 74
175
 0
VERTEX
 8
CA_ON
 10
0
 20
0
 30
0
 70
128
 71
169
 72
170
 73
178
 74
177
 0
VERTEX
 8
CA_ON
 10
0
 20
0
 30
0
 70
128
 71
171
 72
172
 73
180
 74
179
 0
VERTEX
 8
CA_ON
 10
0
 20
0
 30
0
 70
128
 71
173
 72
174
 73
182
 74
181
 0
VERTEX
 8
CA_ON
 10
0
 20
0
 30
0
 70
128
 71
175
 72
176
 73
184
 74
183
 0
VERTEX
 8
CA_ON
 10
0
 20
0
 30
0
 70
128
 71
177
 72
178
 73
186
 74
185
 0
VERTEX
 8
CA_ON
 10
0
 20
0
 30
0
 70
128
 71
179
 72
180
 73
188
 74
187
 0
VERTEX
 8
CA_ON
 10
0
 20
0
 30
0
 70
128
 71
181
 72
182
 73
190
 74
189
 0
VERTEX
 8
CA_ON
 10
0
 20
0
 30
0
 70
128
 71
183
 72
184
 73
192
 74
191
 0
VERTEX
 8
CA_ON
 10
0
 20
0
 30
0
 70
128
 71
185
 72
186
 73
194
 74
193
 0
VERTEX
 8
CA_ON
 10
0
 20
0
 30
0
 70
128
 71
187
 72
188
 73
196
 74
195
 0
VERTEX
 8
CA_ON
 10
0
 20
0
 30
0
 70
128
 71
189
 72
190
 73
198
 74
197
 0
VERTEX
 8
CA_ON
 10
0
 20
0
 30
0
 70
128
 71
191
 72
192
 73
200
 74
199
 0
VERTEX
 8
CA_ON
 10
0
 20
0
 30
0
 70
128
 71
193
 72
194
 73
202
 74
201
 0
VERTEX
 8
CA_ON
 10
0
 20
0
 30
0
 70
128
 71
195
 72
196
 73
204
 74
203
 0
VERTEX
 8
CA_ON
 10
0
 20
0
 30
0
 70
128
 71
197
 72
198
 73
206
 74
205
 0
VERTEX
 8
CA_ON
 10
0
 20
0
 30
0
 70
128
 71
199
 72
200
 73
208
 74
207
 0
VERTEX
 8
CA_ON
 10
0
 20
0
 30
0
 70
128
 71
201
 72
202
 73
210
 74
209
 0
VERTEX
 8
CA_ON
 10
0
 20
0
 30
0
 70
128
 71
203
 72
204
 73
212
 74
211
 0
VERTEX
 8
CA_ON
 10
0
 20
0
 30
0
 70
128
 71
205
 72
206
 73
214
 74
213
 0
VERTEX
 8
CA_ON
 10
0
 20
0
 30
0
 70
128
 71
207
 72
208
 73
216
 74
215
 0
VERTEX
 8
CA_ON
 10
0
 20
0
 30
0
 70
128
 71
209
 72
210
 73
218
 74
217
 0
VERTEX
 8
CA_ON
 10
0
 20
0
 30
0
 70
128
 71
211
 72
212
 73
220
 74
219
 0
VERTEX
 8
CA_ON
 10
0
 20
0
 30
0
 70
128
 71
213
 72
214
 73
222
 74
221
 0
VERTEX
 8
CA_ON
 10
0
 20
0
 30
0
 70
128
 71
215
 72
216
 73
224
 74
223
 0
VERTEX
 8
CA_ON
 10
0
 20
0
 30
0
 70
128
 71
217
 72
218
 73
226
 74
225
 0
VERTEX
 8
CA_ON
 10
0
 20
0
 30
0
 70
128
 71
219
 72
220
 73
228
 74
227
 0
VERTEX
 8
CA_ON
 10
0
 20
0
 30
0
 70
128
 71
221
 72
222
 73
230
 74
229
 0
VERTEX
 8
CA_ON
 10
0
 20
0
 30
0
 70
128
 71
223
 72
224
 73
232
 74
231
 0
VERTEX
 8
CA_ON
 10
0
 20
0
 30
0
 70
128
 71
225
 72
226
 73
234
 74
233
 0
VERTEX
 8
CA_ON
 10
0
 20
0
 30
0
 70
128
 71
227
 72
228
 73
236
 74
235
 0
VERTEX
 8
CA_ON
 10
0
 20
0
 30
0
 70
128
 71
229
 72
230
 73
238
 74
237
 0
VERTEX
 8
CA_ON
 10
0
 20
0
 30
0
 70
128
 71
231
 72
232
 73
240
 74
239
 0
VERTEX
 8
CA_ON
 10
0
 20
0
 30
0
 70
128
 71
233
 72
234
 73
242
 74
241
 0
VERTEX
 8
CA_ON
 10
0
 20
0
 30
0
 70
128
 71
235
 72
236
 73
244
 74
243
 0
VERTEX
 8
CA_ON
 10
0
 20
0
 30
0
 70
128
 71
237
 72
238
 73
246
 74
245
 0
VERTEX
 8
CA_ON
 10
0
 20
0
 30
0
 70
128
 71
239
 72
240
 73
248
 74
247
 0
VERTEX
 8
CA_ON
 10
0
 20
0
 30
0
 70
128
 71
241
 72
242
 73
250
 74
249
 0
VERTEX
 8
CA_ON
 10
0
 20
0
 30
0
 70
128
 71
243
 72
244
 73
252
 74
251
 0
VERTEX
 8
CA_ON
 10
0
 20
0
 30
0
 70
128
 71
245
 72
246
 73
254
 74
253
 0
VERTEX
 8
CA_ON
 10
0
 20
0
 30
0
 70
128
 71
247
 72
248
 73
256
 74
255
 0
VERTEX
 8
CA_ON
 10
0
 20
0
 30
0
 70
128
 71
249
 72
250
 73
258
 74
257
 0
VERTEX
 8
CA_ON
 10
0
 20
0
 30
0
 70
128
 71
251
 72
252
 73
260
 74
259
 0
VERTEX
 8
CA_ON
 10
0
 20
0
 30
0
 70
128
 71
253
 72
254
 73
262
 74
261
 0
VERTEX
 8
CA_ON
 10
0
 20
0
 30
0
 70
128
 71
255
 72
256
 73
264
 74
263
 0
VERTEX
 8
CA_ON
 10
0
 20
0
 30
0
 70
128
 71
257
 72
258
 73
266
 74
265
 0
VERTEX
 8
CA_ON
 10
0
 20
0
 30
0
 70
128
 71
259
 72
260
 73
268
 74
267
 0
VERTEX
 8
CA_ON
 10
0
 20
0
 30
0
 70
128
 71
261
 72
262
 73
270
 74
269
 0
VERTEX
 8
CA_ON
 10
0
 20
0
 30
0
 70
128
 71
263
 72
264
 73
272
 74
271
 0
VERTEX
 8
CA_ON
 10
0
 20
0
 30
0
 70
128
 71
265
 72
266
 73
274
 74
273
 0
VERTEX
 8
CA_ON
 10
0
 20
0
 30
0
 70
128
 71
267
 72
268
 73
276
 74
275
 0
VERTEX
 8
CA_ON
 10
0
 20
0
 30
0
 70
128
 71
269
 72
270
 73
278
 74
277
 0
VERTEX
 8
CA_ON
 10
0
 20
0
 30
0
 70
128
 71
271
 72
272
 73
280
 74
279
 0
VERTEX
 8
CA_ON
 10
0
 20
0
 30
0
 70
128
 71
273
 72
274
 73
282
 74
281
 0
VERTEX
 8
CA_ON
 10
0
 20
0
 30
0
 70
128
 71
275
 72
276
 73
284
 74
283
 0
VERTEX
 8
CA_ON
 10
0
 20
0
 30
0
 70
128
 71
277
 72
278
 73
286
 74
285
 0
VERTEX
 8
CA_ON
 10
0
 20
0
 30
0
 70
128
 71
279
 72
280
 73
288
 74
287
 0
VERTEX
 8
CA_ON
 10
0
 20
0
 30
0
 70
128
 71
281
 72
282
 73
2
 74
1
 0
VERTEX
 8
CA_ON
 10
0
 20
0
 30
0
 70
128
 71
283
 72
284
 73
4
 74
3
 0
VERTEX
 8
CA_ON
 10
0
 20
0
 30
0
 70
128
 71
285
 72
286
 73
6
 74
5
 0
VERTEX
 8
CA_ON
 10
0
 20
0
 30
0
 70
128
 71
287
 72
288
 73
8
 74
7
 0
VERTEX
 8
CA_ON
 10
0
 20
0
 30
0
 70
128
 71
289
 72
291
 73
295
 74
295
 0
VERTEX
 8
CA_ON
 10
0
 20
0
 30
0
 70
128
 71
292
 72
293
 73
297
 74
296
 0
VERTEX
 8
CA_ON
 10
0
 20
0
 30
0
 70
128
 71
294
 72
290
 73
298
 74
298
 0
VERTEX
 8
CA_ON
 10
0
 20
0
 30
0
 70
128
 71
289
 72
295
 73
299
 74
299
 0
VERTEX
 8
CA_ON
 10
0
 20
0
 30
0
 70
128
 71
296
 72
297
 73
301
 74
300
 0
VERTEX
 8
CA_ON
 10
0
 20
0
 30
0
 70
128
 71
298
 72
290
 73
302
 74
302
 0
VERTEX
 8
CA_ON
 10
0
 20
0
 30
0
 70
128
 71
289
 72
299
 73
303
 74
303
 0
VERTEX
 8
CA_ON
 10
0
 20
0
 30
0
 70
128
 71
300
 72
301
 73
305
 74
304
 0
VERTEX
 8
CA_ON
 10
0
 20
0
 30
0
 70
128
 71
302
 72
290
 73
306
 74
306
 0
VERTEX
 8
CA_ON
 10
0
 20
0
 30
0
 70
128
 71
289
 72
303
 73
307
 74
307
 0
VERTEX
 8
CA_ON
 10
0
 20
0
 30
0
 70
128
 71
304
 72
305
 73
309
 74
308
 0
VERTEX
 8
CA_ON
 10
0
 20
0
 30
0
 70
128
 71
306
 72
290
 73
310
 74
310
 0
VERTEX
 8
CA_ON
 10
0
 20
0
 30
0
 70
128
 71
289
 72
307
 73
311
 74
311
 0
VERTEX
 8
CA_ON
 10
0
 20
0
 30
0
 70
128
 71
308
 72
309
 73
313
 74
312
 0
VERTEX
 8
CA_ON
 10
0
 20
0
 30
0
 70
128
 71
310
 72
290
 73
314
 74
314
 0
VERTEX
 8
CA_ON
 10
0
 20
0
 30
0
 70
128
 71
289
 72
311
 73
315
 74
315
 0
VERTEX
 8
CA_ON
 10
0
 20
0
 30
0
 70
128
 71
312
 72
313
 73
317
 74
316
 0
VERTEX
 8
CA_ON
 10
0
 20
0
 30
0
 70
128
 71
314
 72
290
 73
318
 74
318
 0
VERTEX
 8
CA_ON
 10
0
 20
0
 30
0
 70
128
 71
289
 72
315
 73
319
 74
319
 0
VERTEX
 8
CA_ON
 10
0
 20
0
 30
0
 70
128
 71
316
 72
317
 73
321
 74
320
 0
VERTEX
 8
CA_ON
 10
0
 20
0
 30
0
 70
128
 71
318
 72
290
 73
322
 74
322
 0
VERTEX
 8
CA_ON
 10
0
 20
0
 30
0
 70
128
 71
289
 72
319
 73
323
 74
323
 0
VERTEX
 8
CA_ON
 10
0
 20
0
 30
0
 70
128
 71
320
 72
321
 73
325
 74
324
 0
VERTEX
 8
CA_ON
 10
0
 20
0
 30
0
 70
128
 71
322
 72
290
 73
326
 74
326
 0
VERTEX
 8
CA_ON
 10
0
 20
0
 30
0
 70
128
 71
289
 72
323
 73
327
 74
327
 0
VERTEX
 8
CA_ON
 10
0
 20
0
 30
0
 70
128
 71
324
 72
325
 73
329
 74
328
 0
VERTEX
 8
CA_ON
 10
0
 20
0
 30
0
 70
128
 71
326
 72
290
 73
330
 74
330
 0
VERTEX
 8
CA_ON
 10
0
 20
0
 30
0
 70
128
 71
289
 72
327
 73
331
 74
331
 0
VERTEX
 8
CA_ON
 10
0
 20
0
 30
0
 70
128
 71
328
 72
329
 73
333
 74
332
 0
VERTEX
 8
CA_ON
 10
0
 20
0
 30
0
 70
128
 71
330
 72
290
 73
334
 74
334
 0
VERTEX
 8
CA_ON
 10
0
 20
0
 30
0
 70
128
 71
289
 72
331
 73
335
 74
335
 0
VERTEX
 8
CA_ON
 10
0
 20
0
 30
0
 70
128
 71
332
 72
333
 73
337
 74
336
 0
VERTEX
 8
CA_ON
 10
0
 20
0
 30
0
 70
128
 71
334
 72
290
 73
338
 74
338
 0
VERTEX
 8
CA_ON
 10
0
 20
0
 30
0
 70
128
 71
289
 72
335
 73
339
 74
339
 0
VERTEX
 8
CA_ON
 10
0
 20
0
 30
0
 70
128
 71
336
 72
337
 73
341
 74
340
 0
VERTEX
 8
CA_ON
 10
0
 20
0
 30
0
 70
128
 71
338
 72
290
 73
342
 74
342
 0
VERTEX
 8
CA_ON
 10
0
 20
0
 30
0
 70
128
 71
289
 72
339
 73
343
 74
343
 0
VERTEX
 8
CA_ON
 10
0
 20
0
 30
0
 70
128
 71
340
 72
341
 73
345
 74
344
 0
VERTEX
 8
CA_ON
 10
0
 20
0
 30
0
 70
128
 71
342
 72
290
 73
346
 74
346
 0
VERTEX
 8
CA_ON
 10
0
 20
0
 30
0
 70
128
 71
289
 72
343
 73
347
 74
347
 0
VERTEX
 8
CA_ON
 10
0
 20
0
 30
0
 70
128
 71
344
 72
345
 73
349
 74
348
 0
VERTEX
 8
CA_ON
 10
0
 20
0
 30
0
 70
128
 71
346
 72
290
 73
350
 74
350
 0
VERTEX
 8
CA_ON
 10
0
 20
0
 30
0
 70
128
 71
289
 72
347
 73
351
 74
351
 0
VERTEX
 8
CA_ON
 10
0
 20
0
 30
0
 70
128
 71
348
 72
349
 73
353
 74
352
 0
VERTEX
 8
CA_ON
 10
0
 20
0
 30
0
 70
128
 71
350
 72
290
 73
354
 74
354
 0
VERTEX
 8
CA_ON
 10
0
 20
0
 30
0
 70
128
 71
289
 72
351
 73
355
 74
355
 0
VERTEX
 8
CA_ON
 10
0
 20
0
 30
0
 70
128
 71
352
 72
353
 73
357
 74
356
 0
VERTEX
 8
CA_ON
 10
0
 20
0
 30
0
 70
128
 71
354
 72
290
 73
358
 74
358
 0
VERTEX
 8
CA_ON
 10
0
 20
0
 30
0
 70
128
 71
289
 72
355
 73
359
 74
359
 0
VERTEX
 8
CA_ON
 10
0
 20
0
 30
0
 70
128
 71
356
 72
357
 73
361
 74
360
 0
VERTEX
 8
CA_ON
 10
0
 20
0
 30
0
 70
128
 71
358
 72
290
 73
362
 74
362
 0
VERTEX
 8
CA_ON
 10
0
 20
0
 30
0
 70
128
 71
289
 72
359
 73
363
 74
363
 0
VERTEX
 8
CA_ON
 10
0
 20
0
 30
0
 70
128
 71
360
 72
361
 73
365
 74
364
 0
VERTEX
 8
CA_ON
 10
0
 20
0
 30
0
 70
128
 71
362
 72
290
 73
366
 74
366
 0
VERTEX
 8
CA_ON
 10
0
 20
0
 30
0
 70
128
 71
289
 72
363
 73
367
 74
367
 0
VERTEX
 8
CA_ON
 10
0
 20
0
 30
0
 70
128
 71
364
 72
365
 73
369
 74
368
 0
VERTEX
 8
CA_ON
 10
0
 20
0
 30
0
 70
128
 71
366
 72
290
 73
370
 74
370
 0
VERTEX
 8
CA_ON
 10
0
 20
0
 30
0
 70
128
 71
289
 72
367
 73
371
 74
371
 0
VERTEX
 8
CA_ON
 10
0
 20
0
 30
0
 70
128
 71
368
 72
369
 73
373
 74
372
 0
VERTEX
 8
CA_ON
 10
0
 20
0
 30
0
 70
128
 71
370
 72
290
 73
374
 74
374
 0
VERTEX
 8
CA_ON
 10
0
 20
0
 30
0
 70
128
 71
289
 72
371
 73
375
 74
375
 0
VERTEX
 8
CA_ON
 10
0
 20
0
 30
0
 70
128
 71
372
 72
373
 73
377
 74
376
 0
VERTEX
 8
CA_ON
 10
0
 20
0
 30
0
 70
128
 71
374
 72
290
 73
378
 74
378
 0
VERTEX
 8
CA_ON
 10
0
 20
0
 30
0
 70
128
 71
289
 72
375
 73
379
 74
379
 0
VERTEX
 8
CA_ON
 10
0
 20
0
 30
0
 70
128
 71
376
 72
377
 73
381
 74
380
 0
VERTEX
 8
CA_ON
 10
0
 20
0
 30
0
 70
128
 71
378
 72
290
 73
382
 74
382
 0
VERTEX
 8
CA_ON
 10
0
 20
0
 30
0
 70
128
 71
289
 72
379
 73
383
 74
383
 0
VERTEX
 8
CA_ON
 10
0
 20
0
 30
0
 70
128
 71
380
 72
381
 73
385
 74
384
 0
VERTEX
 8
CA_ON
 10
0
 20
0
 30
0
 70
128
 71
382
 72
290
 73
386
 74
386
 0
VERTEX
 8
CA_ON
 10
0
 20
0
 30
0
 70
128
 71
289
 72
383
 73
387
 74
387
 0
VERTEX
 8
CA_ON
 10
0
 20
0
 30
0
 70
128
 71
384
 72
385
 73
389
 74
388
 0
VERTEX
 8
CA_ON
 10
0
 20
0
 30
0
 70
128
 71
386
 72
290
 73
390
 74
390
 0
VERTEX
 8
CA_ON
 10
0
 20
0
 30
0
 70
128
 71
289
 72
387
 73
391
 74
391
 0
VERTEX
 8
CA_ON
 10
0
 20
0
 30
0
 70
128
 71
388
 72
389
 73
393
 74
392
 0
VERTEX
 8
CA_ON
 10
0
 20
0
 30
0
 70
128
 71
390
 72
290
 73
394
 74
394
 0
VERTEX
 8
CA_ON
 10
0
 20
0
 30
0
 70
128
 71
289
 72
391
 73
395
 74
395
 0
VERTEX
 8
CA_ON
 10
0
 20
0
 30
0
 70
128
 71
392
 72
393
 73
397
 74
396
 0
VERTEX
 8
CA_ON
 10
0
 20
0
 30
0
 70
128
 71
394
 72
290
 73
398
 74
398
 0
VERTEX
 8
CA_ON
 10
0
 20
0
 30
0
 70
128
 71
289
 72
395
 73
399
 74
399
 0
VERTEX
 8
CA_ON
 10
0
 20
0
 30
0
 70
128
 71
396
 72
397
 73
401
 74
400
 0
VERTEX
 8
CA_ON
 10
0
 20
0
 30
0
 70
128
 71
398
 72
290
 73
402
 74
402
 0
VERTEX
 8
CA_ON
 10
0
 20
0
 30
0
 70
128
 71
289
 72
399
 73
403
 74
403
 0
VERTEX
 8
CA_ON
 10
0
 20
0
 30
0
 70
128
 71
400
 72
401
 73
405
 74
404
 0
VERTEX
 8
CA_ON
 10
0
 20
0
 30
0
 70
128
 71
402
 72
290
 73
406
 74
406
 0
VERTEX
 8
CA_ON
 10
0
 20
0
 30
0
 70
128
 71
289
 72
403
 73
407
 74
407
 0
VERTEX
 8
CA_ON
 10
0
 20
0
 30
0
 70
128
 71
404
 72
405
 73
409
 74
408
 0
VERTEX
 8
CA_ON
 10
0
 20
0
 30
0
 70
128
 71
406
 72
290
 73
410
 74
410
 0
VERTEX
 8
CA_ON
 10
0
 20
0
 30
0
 70
128
 71
289
 72
407
 73
411
 74
411
 0
VERTEX
 8
CA_ON
 10
0
 20
0
 30
0
 70
128
 71
408
 72
409
 73
413
 74
412
 0
VERTEX
 8
CA_ON
 10
0
 20
0
 30
0
 70
128
 71
410
 72
290
 73
414
 74
414
 0
VERTEX
 8
CA_ON
 10
0
 20
0
 30
0
 70
128
 71
289
 72
411
 73
415
 74
415
 0
VERTEX
 8
CA_ON
 10
0
 20
0
 30
0
 70
128
 71
412
 72
413
 73
417
 74
416
 0
VERTEX
 8
CA_ON
 10
0
 20
0
 30
0
 70
128
 71
414
 72
290
 73
418
 74
418
 0
VERTEX
 8
CA_ON
 10
0
 20
0
 30
0
 70
128
 71
289
 72
415
 73
419
 74
419
 0
VERTEX
 8
CA_ON
 10
0
 20
0
 30
0
 70
128
 71
416
 72
417
 73
421
 74
420
 0
VERTEX
 8
CA_ON
 10
0
 20
0
 30
0
 70
128
 71
418
 72
290
 73
422
 74
422
 0
VERTEX
 8
CA_ON
 10
0
 20
0
 30
0
 70
128
 71
289
 72
419
 73
423
 74
423
 0
VERTEX
 8
CA_ON
 10
0
 20
0
 30
0
 70
128
 71
420
 72
421
 73
425
 74
424
 0
VERTEX
 8
CA_ON
 10
0
 20
0
 30
0
 70
128
 71
422
 72
290
 73
426
 74
426
 0
VERTEX
 8
CA_ON
 10
0
 20
0
 30
0
 70
128
 71
289
 72
423
 73
427
 74
427
 0
VERTEX
 8
CA_ON
 10
0
 20
0
 30
0
 70
128
 71
424
 72
425
 73
429
 74
428
 0
VERTEX
 8
CA_ON
 10
0
 20
0
 30
0
 70
128
 71
426
 72
290
 73
430
 74
430
 0
VERTEX
 8
CA_ON
 10
0
 20
0
 30
0
 70
128
 71
289
 72
427
 73
431
 74
431
 0
VERTEX
 8
CA_ON
 10
0
 20
0
 30
0
 70
128
 71
428
 72
429
 73
433
 74
432
 0
VERTEX
 8
CA_ON
 10
0
 20
0
 30
0
 70
128
 71
430
 72
290
 73
434
 74
434
 0
VERTEX
 8
CA_ON
 10
0
 20
0
 30
0
 70
128
 71
289
 72
431
 73
291
 74
291
 0
VERTEX
 8
CA_ON
 10
0
 20
0
 30
0
 70
128
 71
432
 72
433
 73
293
 74
292
 0
VERTEX
 8
CA_ON
 10
0
 20
0
 30
0
 70
128
 71
434
 72
290
 73
294
 74
294
 0
VERTEX
 8
CA_ON
 10
0
 20
0
 30
0
 70
128
 71
435
 72
436
 73
437
 74
438
 0
VERTEX
 8
CA_ON
 10
0
 20
0
 30
0
 70
128
 71
439
 72
437
 73
436
 74
436
 0
VERTEX
 8
CA_ON
 10
0
 20
0
 30
0
 70
128
 71
439
 72
438
 73
437
 74
437
 0
VERTEX
 8
CA_ON
 10
0
 20
0
 30
0
 70
128
 71
439
 72
435
 73
438
 74
438
 0
VERTEX
 8
CA_ON
 10
0
 20
0
 30
0
 70
128
 71
439
 72
436
 73
435
 74
435
 0
SEQEND
 0
POLYLINE
 8
GATILLO
 66
1
 10
0.0
 20
0.0
 30
0.0
 70
64
 71
8
 72
6
 0
VERTEX
 8
GATILLO
 10
0.529
 20
-0.0128
 30
2.017
 70
192
 0
VERTEX
 8
GATILLO
 10
0.5367
 20
-0.0128
 30
2.0859
 70
192
 0
VERTEX
 8
GATILLO
 10
0.5393
 20
-0.0128
 30
2.0158
 70
192
 0
VERTEX
 8
GATILLO
 10
0.547
 20
-0.0128
 30
2.0848
 70
192
 0
VERTEX
 8
GATILLO
 10
0.5393
 20
0.0128
 30
2.0158
 70
192
 0
VERTEX
 8
GATILLO
 10
0.547
 20
0.0128
 30
2.0848
 70
192
 0
VERTEX
 8
GATILLO
 10
0.529
 20
0.0128
 30
2.017
 70
192
 0
VERTEX
 8
GATILLO
 10
0.5367
 20
0.0128
 30
2.0859
 70
192
 0
VERTEX
 8
GATILLO
 10
0
 20
0
 30
0
 70
128
 71
1
 72
2
 73
4
 74
3
 0
VERTEX
 8
GATILLO
 10
0
 20
0
 30
0
 70
128
 71
3
 72
4
 73
6
 74
5
 0
VERTEX
 8
GATILLO
 10
0
 20
0
 30
0
 70
128
 71
5
 72
6
 73
8
 74
7
 0
VERTEX
 8
GATILLO
 10
0
 20
0
 30
0
 70
128
 71
7
 72
8
 73
2
 74
1
 0
VERTEX
 8
GATILLO
 10
0
 20
0
 30
0
 70
128
 71
2
 72
8
 73
6
 74
4
 0
VERTEX
 8
GATILLO
 10
0
 20
0
 30
0
 70
128
 71
7
 72
1
 73
3
 74
5
 0
SEQEND
 0
POLYLINE
 8
MIRA
 66
1
 10
0.0
 20
0.0
 30
0.0
 70
64
 71
32
 72
22
 0
VERTEX
 8
MIRA
 10
0.3998
 20
-0.0707
 30
2.2789
 70
192
 0
VERTEX
 8
MIRA
 10
0.3998
 20
-0.0707
 30
2.4131
 70
192
 0
VERTEX
 8
MIRA
 10
0.4337
 20
-0.0707
 30
2.2789
 70
192
 0
VERTEX
 8
MIRA
 10
0.4337
 20
-0.0707
 30
2.4131
 70
192
 0
VERTEX
 8
MIRA
 10
0.4337
 20
0.0707
 30
2.2789
 70
192
 0
VERTEX
 8
MIRA
 10
0.4337
 20
0.0707
 30
2.4131
 70
192
 0
VERTEX
 8
MIRA
 10
0.3998
 20
0.0707
 30
2.2789
 70
192
 0
VERTEX
 8
MIRA
 10
0.3998
 20
0.0707
 30
2.4131
 70
192
 0
VERTEX
 8
MIRA
 10
0.4337
 20
-0.0574
 30
2.4018
 70
192
 0
VERTEX
 8
MIRA
 10
0.4337
 20
-0.0574
 30
2.3171
 70
192
 0
VERTEX
 8
MIRA
 10
0.4337
 20
0.0574
 30
2.4018
 70
192
 0
VERTEX
 8
MIRA
 10
0.4337
 20
0.0574
 30
2.3171
 70
192
 0
VERTEX
 8
MIRA
 10
0.3998
 20
-0.0574
 30
2.4018
 70
192
 0
VERTEX
 8
MIRA
 10
0.3998
 20
-0.0574
 30
2.3171
 70
192
 0
VERTEX
 8
MIRA
 10
0.3998
 20
0.0574
 30
2.4018
 70
192
 0
VERTEX
 8
MIRA
 10
0.3998
 20
0.0574
 30
2.3171
 70
192
 0
VERTEX
 8
MIRA
 10
0.4337
 20
-0.0574
 30
2.4018
 70
192
 0
VERTEX
 8
MIRA
 10
0.4337
 20
-0.0574
 30
2.3171
 70
192
 0
VERTEX
 8
MIRA
 10
0.4337
 20
0.0574
 30
2.4018
 70
192
 0
VERTEX
 8
MIRA
 10
0.4337
 20
0.0574
 30
2.3171
 70
192
 0
VERTEX
 8
MIRA
 10
0.3998
 20
-0.0574
 30
2.4018
 70
192
 0
VERTEX
 8
MIRA
 10
0.3998
 20
-0.0574
 30
2.3171
 70
192
 0
VERTEX
 8
MIRA
 10
0.3998
 20
0.0574
 30
2.4018
 70
192
 0
VERTEX
 8
MIRA
 10
0.3998
 20
0.0574
 30
2.3171
 70
192
 0
VERTEX
 8
MIRA
 10
0.4031
 20
-0.066
 30
2.2816
 70
192
 0
VERTEX
 8
MIRA
 10
0.4031
 20
-0.066
 30
2.307
 70
192
 0
VERTEX
 8
MIRA
 10
0.6534
 20
-0.066
 30
2.2816
 70
192
 0
VERTEX
 8
MIRA
 10
0.6534
 20
-0.066
 30
2.307
 70
192
 0
VERTEX
 8
MIRA
 10
0.6534
 20
0.066
 30
2.2816
 70
192
 0
VERTEX
 8
MIRA
 10
0.6534
 20
0.066
 30
2.307
 70
192
 0
VERTEX
 8
MIRA
 10
0.4031
 20
0.066
 30
2.2816
 70
192
 0
VERTEX
 8
MIRA
 10
0.4031
 20
0.066
 30
2.307
 70
192
 0
VERTEX
 8
MIRA
 10
0
 20
0
 30
0
 70
128
 71
1
 72
2
 73
4
 74
3
 0
VERTEX
 8
MIRA
 10
0
 20
0
 30
0
 70
128
 71
10
 72
12
 73
5
 74
3
 0
VERTEX
 8
MIRA
 10
0
 20
0
 30
0
 70
128
 71
6
 72
5
 73
12
 74
11
 0
VERTEX
 8
MIRA
 10
0
 20
0
 30
0
 70
128
 71
4
 72
6
 73
11
 74
9
 0
VERTEX
 8
MIRA
 10
0
 20
0
 30
0
 70
128
 71
9
 72
10
 73
3
 74
4
 0
VERTEX
 8
MIRA
 10
0
 20
0
 30
0
 70
128
 71
5
 72
6
 73
8
 74
7
 0
VERTEX
 8
MIRA
 10
0
 20
0
 30
0
 70
128
 71
16
 72
14
 73
1
 74
7
 0
VERTEX
 8
MIRA
 10
0
 20
0
 30
0
 70
128
 71
2
 72
1
 73
14
 74
13
 0
VERTEX
 8
MIRA
 10
0
 20
0
 30
0
 70
128
 71
8
 72
2
 73
13
 74
15
 0
VERTEX
 8
MIRA
 10
0
 20
0
 30
0
 70
128
 71
15
 72
16
 73
7
 74
8
 0
VERTEX
 8
MIRA
 10
0
 20
0
 30
0
 70
128
 71
2
 72
8
 73
6
 74
4
 0
VERTEX
 8
MIRA
 10
0
 20
0
 30
0
 70
128
 71
7
 72
1
 73
3
 74
5
 0
VERTEX
 8
MIRA
 10
0
 20
0
 30
0
 70
128
 71
17
 72
21
 73
22
 74
18
 0
VERTEX
 8
MIRA
 10
0
 20
0
 30
0
 70
128
 71
20
 72
24
 73
23
 74
19
 0
VERTEX
 8
MIRA
 10
0
 20
0
 30
0
 70
128
 71
19
 72
23
 73
21
 74
17
 0
VERTEX
 8
MIRA
 10
0
 20
0
 30
0
 70
128
 71
24
 72
20
 73
18
 74
22
 0
VERTEX
 8
MIRA
 10
0
 20
0
 30
0
 70
128
 71
25
 72
26
 73
28
 74
27
 0
VERTEX
 8
MIRA
 10
0
 20
0
 30
0
 70
128
 71
27
 72
28
 73
30
 74
29
 0
VERTEX
 8
MIRA
 10
0
 20
0
 30
0
 70
128
 71
29
 72
30
 73
32
 74
31
 0
VERTEX
 8
MIRA
 10
0
 20
0
 30
0
 70
128
 71
31
 72
32
 73
26
 74
25
 0
VERTEX
 8
MIRA
 10
0
 20
0
 30
0
 70
128
 71
26
 72
32
 73
30
 74
28
 0
VERTEX
 8
MIRA
 10
0
 20
0
 30
0
 70
128
 71
31
 72
25
 73
27
 74
29
 0
SEQEND
 0
POLYLINE
 8
GRIP
 66
1
 10
0.0
 20
0.0
 30
0.0
 70
64
 71
16
 72
12
 0
VERTEX
 8
GRIP
 10
-0.3851
 20
-0.0407
 30
1.8415
 70
192
 0
VERTEX
 8
GRIP
 10
-0.3851
 20
-0.0407
 30
2.1301
 70
192
 0
VERTEX
 8
GRIP
 10
-0.3003
 20
-0.0407
 30
1.8415
 70
192
 0
VERTEX
 8
GRIP
 10
-0.3003
 20
-0.0407
 30
2.1301
 70
192
 0
VERTEX
 8
GRIP
 10
-0.3003
 20
0.0407
 30
1.8415
 70
192
 0
VERTEX
 8
GRIP
 10
-0.3003
 20
0.0407
 30
2.1301
 70
192
 0
VERTEX
 8
GRIP
 10
-0.3851
 20
0.0407
 30
1.8415
 70
192
 0
VERTEX
 8
GRIP
 10
-0.3851
 20
0.0407
 30
2.1301
 70
192
 0
VERTEX
 8
GRIP
 10
-0.4457
 20
-0.0688
 30
2.107
 70
192
 0
VERTEX
 8
GRIP
 10
-0.4457
 20
-0.0688
 30
2.1996
 70
192
 0
VERTEX
 8
GRIP
 10
-0.2381
 20
-0.0688
 30
2.107
 70
192
 0
VERTEX
 8
GRIP
 10
-0.2381
 20
-0.0688
 30
2.1996
 70
192
 0
VERTEX
 8
GRIP
 10
-0.2381
 20
0.0688
 30
2.107
 70
192
 0
VERTEX
 8
GRIP
 10
-0.2381
 20
0.0688
 30
2.1996
 70
192
 0
VERTEX
 8
GRIP
 10
-0.4457
 20
0.0688
 30
2.107
 70
192
 0
VERTEX
 8
GRIP
 10
-0.4457
 20
0.0688
 30
2.1996
 70
192
 0
VERTEX
 8
GRIP
 10
0
 20
0
 30
0
 70
128
 71
1
 72
2
 73
4
 74
3
 0
VERTEX
 8
GRIP
 10
0
 20
0
 30
0
 70
128
 71
3
 72
4
 73
6
 74
5
 0
VERTEX
 8
GRIP
 10
0
 20
0
 30
0
 70
128
 71
5
 72
6
 73
8
 74
7
 0
VERTEX
 8
GRIP
 10
0
 20
0
 30
0
 70
128
 71
7
 72
8
 73
2
 74
1
 0
VERTEX
 8
GRIP
 10
0
 20
0
 30
0
 70
128
 71
2
 72
8
 73
6
 74
4
 0
VERTEX
 8
GRIP
 10
0
 20
0
 30
0
 70
128
 71
7
 72
1
 73
3
 74
5
 0
VERTEX
 8
GRIP
 10
0
 20
0
 30
0
 70
128
 71
9
 72
10
 73
12
 74
11
 0
VERTEX
 8
GRIP
 10
0
 20
0
 30
0
 70
128
 71
11
 72
12
 73
14
 74
13
 0
VERTEX
 8
GRIP
 10
0
 20
0
 30
0
 70
128
 71
13
 72
14
 73
16
 74
15
 0
VERTEX
 8
GRIP
 10
0
 20
0
 30
0
 70
128
 71
15
 72
16
 73
10
 74
9
 0
VERTEX
 8
GRIP
 10
0
 20
0
 30
0
 70
128
 71
10
 72
16
 73
14
 74
12
 0
VERTEX
 8
GRIP
 10
0
 20
0
 30
0
 70
128
 71
15
 72
9
 73
11
 74
13
 0
SEQEND
 0
ENDSEC
 0
EOF
