 0
SECTION
 2
HEADER
 9
$ACADVER
 1
AC1009
 0
ENDSEC
 0
SECTION
 2
TABLES
 0
TABLE
 2
LTYPE
 70
1
 0
LTYPE
 2
CONTINUOUS
 70
64
 3
solid line
 72
65
 73
0
 40
0.0
 0
ENDTAB
 0
TABLE
 2
LAYER
 70
6
 0
LAYER
 2
0
 70
0
 62
7
 6
CONTINUOUS
 0
LAYER
 2
SMG_2
 70
64
 62
7
 6
CONTINUOUS
 0
LAYER
 2
SILENCIADOR
 70
64
 62
88
 6
CONTINUOUS
 0
LAYER
 2
GRIP
 70
64
 62
88
 6
CONTINUOUS
 0
LAYER
 2
CARGADOR
 70
64
 62
88
 6
CONTINUOUS
 0
LAYER
 2
MIRA
 70
64
 62
88
 6
CONTINUOUS
 0
LAYER
 2
CUBO_5
 70
64
 62
88
 6
CONTINUOUS
 0
LAYER
 2
GATILLO
 70
64
 62
88
 6
CONTINUOUS
 0
LAYER
 2
CUERPO
 70
64
 62
88
 6
CONTINUOUS
 0
ENDTAB
 0
ENDSEC
 0
SECTION
 2
BLOCKS
 0
ENDSEC
 0
SECTION
 2
ENTITIES
 0
POLYLINE
 8
SILENCIADOR
 66
1
 10
0.0
 20
0.0
 30
0.0
 70
64
 71
288
 72
144
 0
VERTEX
 8
SILENCIADOR
 10
-0.8412
 20
-0.0005
 30
2.1318
 70
192
 0
VERTEX
 8
SILENCIADOR
 10
-0.8412
 20
-0.0005
 30
2.0812
 70
192
 0
VERTEX
 8
SILENCIADOR
 10
-0.8412
 20
-0.0005
 30
2.0812
 70
192
 0
VERTEX
 8
SILENCIADOR
 10
-0.2613
 20
-0.0005
 30
2.0812
 70
192
 0
VERTEX
 8
SILENCIADOR
 10
-0.2613
 20
-0.0005
 30
2.0812
 70
192
 0
VERTEX
 8
SILENCIADOR
 10
-0.2613
 20
-0.0005
 30
2.1318
 70
192
 0
VERTEX
 8
SILENCIADOR
 10
-0.2613
 20
-0.0005
 30
2.1318
 70
192
 0
VERTEX
 8
SILENCIADOR
 10
-0.8412
 20
-0.0005
 30
2.1318
 70
192
 0
VERTEX
 8
SILENCIADOR
 10
-0.8412
 20
0.003
 30
2.1321
 70
192
 0
VERTEX
 8
SILENCIADOR
 10
-0.8412
 20
0.0118
 30
2.0823
 70
192
 0
VERTEX
 8
SILENCIADOR
 10
-0.8412
 20
0.0118
 30
2.0823
 70
192
 0
VERTEX
 8
SILENCIADOR
 10
-0.2613
 20
0.0118
 30
2.0823
 70
192
 0
VERTEX
 8
SILENCIADOR
 10
-0.2613
 20
0.0118
 30
2.0823
 70
192
 0
VERTEX
 8
SILENCIADOR
 10
-0.2613
 20
0.003
 30
2.1321
 70
192
 0
VERTEX
 8
SILENCIADOR
 10
-0.2613
 20
0.003
 30
2.1321
 70
192
 0
VERTEX
 8
SILENCIADOR
 10
-0.8412
 20
0.003
 30
2.1321
 70
192
 0
VERTEX
 8
SILENCIADOR
 10
-0.8412
 20
0.0064
 30
2.133
 70
192
 0
VERTEX
 8
SILENCIADOR
 10
-0.8412
 20
0.0237
 30
2.0855
 70
192
 0
VERTEX
 8
SILENCIADOR
 10
-0.8412
 20
0.0237
 30
2.0855
 70
192
 0
VERTEX
 8
SILENCIADOR
 10
-0.2613
 20
0.0237
 30
2.0855
 70
192
 0
VERTEX
 8
SILENCIADOR
 10
-0.2613
 20
0.0237
 30
2.0855
 70
192
 0
VERTEX
 8
SILENCIADOR
 10
-0.2613
 20
0.0064
 30
2.133
 70
192
 0
VERTEX
 8
SILENCIADOR
 10
-0.2613
 20
0.0064
 30
2.133
 70
192
 0
VERTEX
 8
SILENCIADOR
 10
-0.8412
 20
0.0064
 30
2.133
 70
192
 0
VERTEX
 8
SILENCIADOR
 10
-0.8412
 20
0.0096
 30
2.1345
 70
192
 0
VERTEX
 8
SILENCIADOR
 10
-0.8412
 20
0.0348
 30
2.0907
 70
192
 0
VERTEX
 8
SILENCIADOR
 10
-0.8412
 20
0.0348
 30
2.0907
 70
192
 0
VERTEX
 8
SILENCIADOR
 10
-0.2613
 20
0.0348
 30
2.0907
 70
192
 0
VERTEX
 8
SILENCIADOR
 10
-0.2613
 20
0.0348
 30
2.0907
 70
192
 0
VERTEX
 8
SILENCIADOR
 10
-0.2613
 20
0.0096
 30
2.1345
 70
192
 0
VERTEX
 8
SILENCIADOR
 10
-0.2613
 20
0.0096
 30
2.1345
 70
192
 0
VERTEX
 8
SILENCIADOR
 10
-0.8412
 20
0.0096
 30
2.1345
 70
192
 0
VERTEX
 8
SILENCIADOR
 10
-0.8412
 20
0.0124
 30
2.1365
 70
192
 0
VERTEX
 8
SILENCIADOR
 10
-0.8412
 20
0.0449
 30
2.0978
 70
192
 0
VERTEX
 8
SILENCIADOR
 10
-0.8412
 20
0.0449
 30
2.0978
 70
192
 0
VERTEX
 8
SILENCIADOR
 10
-0.2613
 20
0.0449
 30
2.0978
 70
192
 0
VERTEX
 8
SILENCIADOR
 10
-0.2613
 20
0.0449
 30
2.0978
 70
192
 0
VERTEX
 8
SILENCIADOR
 10
-0.2613
 20
0.0124
 30
2.1365
 70
192
 0
VERTEX
 8
SILENCIADOR
 10
-0.2613
 20
0.0124
 30
2.1365
 70
192
 0
VERTEX
 8
SILENCIADOR
 10
-0.8412
 20
0.0124
 30
2.1365
 70
192
 0
VERTEX
 8
SILENCIADOR
 10
-0.8412
 20
0.0149
 30
2.139
 70
192
 0
VERTEX
 8
SILENCIADOR
 10
-0.8412
 20
0.0536
 30
2.1065
 70
192
 0
VERTEX
 8
SILENCIADOR
 10
-0.8412
 20
0.0536
 30
2.1065
 70
192
 0
VERTEX
 8
SILENCIADOR
 10
-0.2613
 20
0.0536
 30
2.1065
 70
192
 0
VERTEX
 8
SILENCIADOR
 10
-0.2613
 20
0.0536
 30
2.1065
 70
192
 0
VERTEX
 8
SILENCIADOR
 10
-0.2613
 20
0.0149
 30
2.139
 70
192
 0
VERTEX
 8
SILENCIADOR
 10
-0.2613
 20
0.0149
 30
2.139
 70
192
 0
VERTEX
 8
SILENCIADOR
 10
-0.8412
 20
0.0149
 30
2.139
 70
192
 0
VERTEX
 8
SILENCIADOR
 10
-0.8412
 20
0.0169
 30
2.1418
 70
192
 0
VERTEX
 8
SILENCIADOR
 10
-0.8412
 20
0.0607
 30
2.1166
 70
192
 0
VERTEX
 8
SILENCIADOR
 10
-0.8412
 20
0.0607
 30
2.1166
 70
192
 0
VERTEX
 8
SILENCIADOR
 10
-0.2613
 20
0.0607
 30
2.1166
 70
192
 0
VERTEX
 8
SILENCIADOR
 10
-0.2613
 20
0.0607
 30
2.1166
 70
192
 0
VERTEX
 8
SILENCIADOR
 10
-0.2613
 20
0.0169
 30
2.1418
 70
192
 0
VERTEX
 8
SILENCIADOR
 10
-0.2613
 20
0.0169
 30
2.1418
 70
192
 0
VERTEX
 8
SILENCIADOR
 10
-0.8412
 20
0.0169
 30
2.1418
 70
192
 0
VERTEX
 8
SILENCIADOR
 10
-0.8412
 20
0.0184
 30
2.145
 70
192
 0
VERTEX
 8
SILENCIADOR
 10
-0.8412
 20
0.0659
 30
2.1277
 70
192
 0
VERTEX
 8
SILENCIADOR
 10
-0.8412
 20
0.0659
 30
2.1277
 70
192
 0
VERTEX
 8
SILENCIADOR
 10
-0.2613
 20
0.0659
 30
2.1277
 70
192
 0
VERTEX
 8
SILENCIADOR
 10
-0.2613
 20
0.0659
 30
2.1277
 70
192
 0
VERTEX
 8
SILENCIADOR
 10
-0.2613
 20
0.0184
 30
2.145
 70
192
 0
VERTEX
 8
SILENCIADOR
 10
-0.2613
 20
0.0184
 30
2.145
 70
192
 0
VERTEX
 8
SILENCIADOR
 10
-0.8412
 20
0.0184
 30
2.145
 70
192
 0
VERTEX
 8
SILENCIADOR
 10
-0.8412
 20
0.0193
 30
2.1484
 70
192
 0
VERTEX
 8
SILENCIADOR
 10
-0.8412
 20
0.0691
 30
2.1396
 70
192
 0
VERTEX
 8
SILENCIADOR
 10
-0.8412
 20
0.0691
 30
2.1396
 70
192
 0
VERTEX
 8
SILENCIADOR
 10
-0.2613
 20
0.0691
 30
2.1396
 70
192
 0
VERTEX
 8
SILENCIADOR
 10
-0.2613
 20
0.0691
 30
2.1396
 70
192
 0
VERTEX
 8
SILENCIADOR
 10
-0.2613
 20
0.0193
 30
2.1484
 70
192
 0
VERTEX
 8
SILENCIADOR
 10
-0.2613
 20
0.0193
 30
2.1484
 70
192
 0
VERTEX
 8
SILENCIADOR
 10
-0.8412
 20
0.0193
 30
2.1484
 70
192
 0
VERTEX
 8
SILENCIADOR
 10
-0.8412
 20
0.0196
 30
2.1519
 70
192
 0
VERTEX
 8
SILENCIADOR
 10
-0.8412
 20
0.0702
 30
2.1519
 70
192
 0
VERTEX
 8
SILENCIADOR
 10
-0.8412
 20
0.0702
 30
2.1519
 70
192
 0
VERTEX
 8
SILENCIADOR
 10
-0.2613
 20
0.0702
 30
2.1519
 70
192
 0
VERTEX
 8
SILENCIADOR
 10
-0.2613
 20
0.0702
 30
2.1519
 70
192
 0
VERTEX
 8
SILENCIADOR
 10
-0.2613
 20
0.0196
 30
2.1519
 70
192
 0
VERTEX
 8
SILENCIADOR
 10
-0.2613
 20
0.0196
 30
2.1519
 70
192
 0
VERTEX
 8
SILENCIADOR
 10
-0.8412
 20
0.0196
 30
2.1519
 70
192
 0
VERTEX
 8
SILENCIADOR
 10
-0.8412
 20
0.0193
 30
2.1554
 70
192
 0
VERTEX
 8
SILENCIADOR
 10
-0.8412
 20
0.0691
 30
2.1642
 70
192
 0
VERTEX
 8
SILENCIADOR
 10
-0.8412
 20
0.0691
 30
2.1642
 70
192
 0
VERTEX
 8
SILENCIADOR
 10
-0.2613
 20
0.0691
 30
2.1642
 70
192
 0
VERTEX
 8
SILENCIADOR
 10
-0.2613
 20
0.0691
 30
2.1642
 70
192
 0
VERTEX
 8
SILENCIADOR
 10
-0.2613
 20
0.0193
 30
2.1554
 70
192
 0
VERTEX
 8
SILENCIADOR
 10
-0.2613
 20
0.0193
 30
2.1554
 70
192
 0
VERTEX
 8
SILENCIADOR
 10
-0.8412
 20
0.0193
 30
2.1554
 70
192
 0
VERTEX
 8
SILENCIADOR
 10
-0.8412
 20
0.0184
 30
2.1588
 70
192
 0
VERTEX
 8
SILENCIADOR
 10
-0.8412
 20
0.0659
 30
2.176
 70
192
 0
VERTEX
 8
SILENCIADOR
 10
-0.8412
 20
0.0659
 30
2.176
 70
192
 0
VERTEX
 8
SILENCIADOR
 10
-0.2613
 20
0.0659
 30
2.176
 70
192
 0
VERTEX
 8
SILENCIADOR
 10
-0.2613
 20
0.0659
 30
2.176
 70
192
 0
VERTEX
 8
SILENCIADOR
 10
-0.2613
 20
0.0184
 30
2.1588
 70
192
 0
VERTEX
 8
SILENCIADOR
 10
-0.2613
 20
0.0184
 30
2.1588
 70
192
 0
VERTEX
 8
SILENCIADOR
 10
-0.8412
 20
0.0184
 30
2.1588
 70
192
 0
VERTEX
 8
SILENCIADOR
 10
-0.8412
 20
0.0169
 30
2.1619
 70
192
 0
VERTEX
 8
SILENCIADOR
 10
-0.8412
 20
0.0607
 30
2.1872
 70
192
 0
VERTEX
 8
SILENCIADOR
 10
-0.8412
 20
0.0607
 30
2.1872
 70
192
 0
VERTEX
 8
SILENCIADOR
 10
-0.2613
 20
0.0607
 30
2.1872
 70
192
 0
VERTEX
 8
SILENCIADOR
 10
-0.2613
 20
0.0607
 30
2.1872
 70
192
 0
VERTEX
 8
SILENCIADOR
 10
-0.2613
 20
0.0169
 30
2.1619
 70
192
 0
VERTEX
 8
SILENCIADOR
 10
-0.2613
 20
0.0169
 30
2.1619
 70
192
 0
VERTEX
 8
SILENCIADOR
 10
-0.8412
 20
0.0169
 30
2.1619
 70
192
 0
VERTEX
 8
SILENCIADOR
 10
-0.8412
 20
0.0149
 30
2.1648
 70
192
 0
VERTEX
 8
SILENCIADOR
 10
-0.8412
 20
0.0536
 30
2.1973
 70
192
 0
VERTEX
 8
SILENCIADOR
 10
-0.8412
 20
0.0536
 30
2.1973
 70
192
 0
VERTEX
 8
SILENCIADOR
 10
-0.2613
 20
0.0536
 30
2.1973
 70
192
 0
VERTEX
 8
SILENCIADOR
 10
-0.2613
 20
0.0536
 30
2.1973
 70
192
 0
VERTEX
 8
SILENCIADOR
 10
-0.2613
 20
0.0149
 30
2.1648
 70
192
 0
VERTEX
 8
SILENCIADOR
 10
-0.2613
 20
0.0149
 30
2.1648
 70
192
 0
VERTEX
 8
SILENCIADOR
 10
-0.8412
 20
0.0149
 30
2.1648
 70
192
 0
VERTEX
 8
SILENCIADOR
 10
-0.8412
 20
0.0124
 30
2.1673
 70
192
 0
VERTEX
 8
SILENCIADOR
 10
-0.8412
 20
0.0449
 30
2.206
 70
192
 0
VERTEX
 8
SILENCIADOR
 10
-0.8412
 20
0.0449
 30
2.206
 70
192
 0
VERTEX
 8
SILENCIADOR
 10
-0.2613
 20
0.0449
 30
2.206
 70
192
 0
VERTEX
 8
SILENCIADOR
 10
-0.2613
 20
0.0449
 30
2.206
 70
192
 0
VERTEX
 8
SILENCIADOR
 10
-0.2613
 20
0.0124
 30
2.1673
 70
192
 0
VERTEX
 8
SILENCIADOR
 10
-0.2613
 20
0.0124
 30
2.1673
 70
192
 0
VERTEX
 8
SILENCIADOR
 10
-0.8412
 20
0.0124
 30
2.1673
 70
192
 0
VERTEX
 8
SILENCIADOR
 10
-0.8412
 20
0.0096
 30
2.1693
 70
192
 0
VERTEX
 8
SILENCIADOR
 10
-0.8412
 20
0.0348
 30
2.2131
 70
192
 0
VERTEX
 8
SILENCIADOR
 10
-0.8412
 20
0.0348
 30
2.2131
 70
192
 0
VERTEX
 8
SILENCIADOR
 10
-0.2613
 20
0.0348
 30
2.2131
 70
192
 0
VERTEX
 8
SILENCIADOR
 10
-0.2613
 20
0.0348
 30
2.2131
 70
192
 0
VERTEX
 8
SILENCIADOR
 10
-0.2613
 20
0.0096
 30
2.1693
 70
192
 0
VERTEX
 8
SILENCIADOR
 10
-0.2613
 20
0.0096
 30
2.1693
 70
192
 0
VERTEX
 8
SILENCIADOR
 10
-0.8412
 20
0.0096
 30
2.1693
 70
192
 0
VERTEX
 8
SILENCIADOR
 10
-0.8412
 20
0.0064
 30
2.1708
 70
192
 0
VERTEX
 8
SILENCIADOR
 10
-0.8412
 20
0.0237
 30
2.2183
 70
192
 0
VERTEX
 8
SILENCIADOR
 10
-0.8412
 20
0.0237
 30
2.2183
 70
192
 0
VERTEX
 8
SILENCIADOR
 10
-0.2613
 20
0.0237
 30
2.2183
 70
192
 0
VERTEX
 8
SILENCIADOR
 10
-0.2613
 20
0.0237
 30
2.2183
 70
192
 0
VERTEX
 8
SILENCIADOR
 10
-0.2613
 20
0.0064
 30
2.1708
 70
192
 0
VERTEX
 8
SILENCIADOR
 10
-0.2613
 20
0.0064
 30
2.1708
 70
192
 0
VERTEX
 8
SILENCIADOR
 10
-0.8412
 20
0.0064
 30
2.1708
 70
192
 0
VERTEX
 8
SILENCIADOR
 10
-0.8412
 20
0.003
 30
2.1717
 70
192
 0
VERTEX
 8
SILENCIADOR
 10
-0.8412
 20
0.0118
 30
2.2215
 70
192
 0
VERTEX
 8
SILENCIADOR
 10
-0.8412
 20
0.0118
 30
2.2215
 70
192
 0
VERTEX
 8
SILENCIADOR
 10
-0.2613
 20
0.0118
 30
2.2215
 70
192
 0
VERTEX
 8
SILENCIADOR
 10
-0.2613
 20
0.0118
 30
2.2215
 70
192
 0
VERTEX
 8
SILENCIADOR
 10
-0.2613
 20
0.003
 30
2.1717
 70
192
 0
VERTEX
 8
SILENCIADOR
 10
-0.2613
 20
0.003
 30
2.1717
 70
192
 0
VERTEX
 8
SILENCIADOR
 10
-0.8412
 20
0.003
 30
2.1717
 70
192
 0
VERTEX
 8
SILENCIADOR
 10
-0.8412
 20
-0.0005
 30
2.172
 70
192
 0
VERTEX
 8
SILENCIADOR
 10
-0.8412
 20
-0.0005
 30
2.2225
 70
192
 0
VERTEX
 8
SILENCIADOR
 10
-0.8412
 20
-0.0005
 30
2.2225
 70
192
 0
VERTEX
 8
SILENCIADOR
 10
-0.2613
 20
-0.0005
 30
2.2225
 70
192
 0
VERTEX
 8
SILENCIADOR
 10
-0.2613
 20
-0.0005
 30
2.2225
 70
192
 0
VERTEX
 8
SILENCIADOR
 10
-0.2613
 20
-0.0005
 30
2.172
 70
192
 0
VERTEX
 8
SILENCIADOR
 10
-0.2613
 20
-0.0005
 30
2.172
 70
192
 0
VERTEX
 8
SILENCIADOR
 10
-0.8412
 20
-0.0005
 30
2.172
 70
192
 0
VERTEX
 8
SILENCIADOR
 10
-0.8412
 20
-0.004
 30
2.1717
 70
192
 0
VERTEX
 8
SILENCIADOR
 10
-0.8412
 20
-0.0128
 30
2.2215
 70
192
 0
VERTEX
 8
SILENCIADOR
 10
-0.8412
 20
-0.0128
 30
2.2215
 70
192
 0
VERTEX
 8
SILENCIADOR
 10
-0.2613
 20
-0.0128
 30
2.2215
 70
192
 0
VERTEX
 8
SILENCIADOR
 10
-0.2613
 20
-0.0128
 30
2.2215
 70
192
 0
VERTEX
 8
SILENCIADOR
 10
-0.2613
 20
-0.004
 30
2.1717
 70
192
 0
VERTEX
 8
SILENCIADOR
 10
-0.2613
 20
-0.004
 30
2.1717
 70
192
 0
VERTEX
 8
SILENCIADOR
 10
-0.8412
 20
-0.004
 30
2.1717
 70
192
 0
VERTEX
 8
SILENCIADOR
 10
-0.8412
 20
-0.0074
 30
2.1708
 70
192
 0
VERTEX
 8
SILENCIADOR
 10
-0.8412
 20
-0.0247
 30
2.2183
 70
192
 0
VERTEX
 8
SILENCIADOR
 10
-0.8412
 20
-0.0247
 30
2.2183
 70
192
 0
VERTEX
 8
SILENCIADOR
 10
-0.2613
 20
-0.0247
 30
2.2183
 70
192
 0
VERTEX
 8
SILENCIADOR
 10
-0.2613
 20
-0.0247
 30
2.2183
 70
192
 0
VERTEX
 8
SILENCIADOR
 10
-0.2613
 20
-0.0074
 30
2.1708
 70
192
 0
VERTEX
 8
SILENCIADOR
 10
-0.2613
 20
-0.0074
 30
2.1708
 70
192
 0
VERTEX
 8
SILENCIADOR
 10
-0.8412
 20
-0.0074
 30
2.1708
 70
192
 0
VERTEX
 8
SILENCIADOR
 10
-0.8412
 20
-0.0105
 30
2.1693
 70
192
 0
VERTEX
 8
SILENCIADOR
 10
-0.8412
 20
-0.0358
 30
2.2131
 70
192
 0
VERTEX
 8
SILENCIADOR
 10
-0.8412
 20
-0.0358
 30
2.2131
 70
192
 0
VERTEX
 8
SILENCIADOR
 10
-0.2613
 20
-0.0358
 30
2.2131
 70
192
 0
VERTEX
 8
SILENCIADOR
 10
-0.2613
 20
-0.0358
 30
2.2131
 70
192
 0
VERTEX
 8
SILENCIADOR
 10
-0.2613
 20
-0.0105
 30
2.1693
 70
192
 0
VERTEX
 8
SILENCIADOR
 10
-0.2613
 20
-0.0105
 30
2.1693
 70
192
 0
VERTEX
 8
SILENCIADOR
 10
-0.8412
 20
-0.0105
 30
2.1693
 70
192
 0
VERTEX
 8
SILENCIADOR
 10
-0.8412
 20
-0.0134
 30
2.1673
 70
192
 0
VERTEX
 8
SILENCIADOR
 10
-0.8412
 20
-0.0459
 30
2.206
 70
192
 0
VERTEX
 8
SILENCIADOR
 10
-0.8412
 20
-0.0459
 30
2.206
 70
192
 0
VERTEX
 8
SILENCIADOR
 10
-0.2613
 20
-0.0459
 30
2.206
 70
192
 0
VERTEX
 8
SILENCIADOR
 10
-0.2613
 20
-0.0459
 30
2.206
 70
192
 0
VERTEX
 8
SILENCIADOR
 10
-0.2613
 20
-0.0134
 30
2.1673
 70
192
 0
VERTEX
 8
SILENCIADOR
 10
-0.2613
 20
-0.0134
 30
2.1673
 70
192
 0
VERTEX
 8
SILENCIADOR
 10
-0.8412
 20
-0.0134
 30
2.1673
 70
192
 0
VERTEX
 8
SILENCIADOR
 10
-0.8412
 20
-0.0159
 30
2.1648
 70
192
 0
VERTEX
 8
SILENCIADOR
 10
-0.8412
 20
-0.0546
 30
2.1973
 70
192
 0
VERTEX
 8
SILENCIADOR
 10
-0.8412
 20
-0.0546
 30
2.1973
 70
192
 0
VERTEX
 8
SILENCIADOR
 10
-0.2613
 20
-0.0546
 30
2.1973
 70
192
 0
VERTEX
 8
SILENCIADOR
 10
-0.2613
 20
-0.0546
 30
2.1973
 70
192
 0
VERTEX
 8
SILENCIADOR
 10
-0.2613
 20
-0.0159
 30
2.1648
 70
192
 0
VERTEX
 8
SILENCIADOR
 10
-0.2613
 20
-0.0159
 30
2.1648
 70
192
 0
VERTEX
 8
SILENCIADOR
 10
-0.8412
 20
-0.0159
 30
2.1648
 70
192
 0
VERTEX
 8
SILENCIADOR
 10
-0.8412
 20
-0.0179
 30
2.1619
 70
192
 0
VERTEX
 8
SILENCIADOR
 10
-0.8412
 20
-0.0617
 30
2.1872
 70
192
 0
VERTEX
 8
SILENCIADOR
 10
-0.8412
 20
-0.0617
 30
2.1872
 70
192
 0
VERTEX
 8
SILENCIADOR
 10
-0.2613
 20
-0.0617
 30
2.1872
 70
192
 0
VERTEX
 8
SILENCIADOR
 10
-0.2613
 20
-0.0617
 30
2.1872
 70
192
 0
VERTEX
 8
SILENCIADOR
 10
-0.2613
 20
-0.0179
 30
2.1619
 70
192
 0
VERTEX
 8
SILENCIADOR
 10
-0.2613
 20
-0.0179
 30
2.1619
 70
192
 0
VERTEX
 8
SILENCIADOR
 10
-0.8412
 20
-0.0179
 30
2.1619
 70
192
 0
VERTEX
 8
SILENCIADOR
 10
-0.8412
 20
-0.0194
 30
2.1588
 70
192
 0
VERTEX
 8
SILENCIADOR
 10
-0.8412
 20
-0.0669
 30
2.176
 70
192
 0
VERTEX
 8
SILENCIADOR
 10
-0.8412
 20
-0.0669
 30
2.176
 70
192
 0
VERTEX
 8
SILENCIADOR
 10
-0.2613
 20
-0.0669
 30
2.176
 70
192
 0
VERTEX
 8
SILENCIADOR
 10
-0.2613
 20
-0.0669
 30
2.176
 70
192
 0
VERTEX
 8
SILENCIADOR
 10
-0.2613
 20
-0.0194
 30
2.1588
 70
192
 0
VERTEX
 8
SILENCIADOR
 10
-0.2613
 20
-0.0194
 30
2.1588
 70
192
 0
VERTEX
 8
SILENCIADOR
 10
-0.8412
 20
-0.0194
 30
2.1588
 70
192
 0
VERTEX
 8
SILENCIADOR
 10
-0.8412
 20
-0.0203
 30
2.1554
 70
192
 0
VERTEX
 8
SILENCIADOR
 10
-0.8412
 20
-0.0701
 30
2.1642
 70
192
 0
VERTEX
 8
SILENCIADOR
 10
-0.8412
 20
-0.0701
 30
2.1642
 70
192
 0
VERTEX
 8
SILENCIADOR
 10
-0.2613
 20
-0.0701
 30
2.1642
 70
192
 0
VERTEX
 8
SILENCIADOR
 10
-0.2613
 20
-0.0701
 30
2.1642
 70
192
 0
VERTEX
 8
SILENCIADOR
 10
-0.2613
 20
-0.0203
 30
2.1554
 70
192
 0
VERTEX
 8
SILENCIADOR
 10
-0.2613
 20
-0.0203
 30
2.1554
 70
192
 0
VERTEX
 8
SILENCIADOR
 10
-0.8412
 20
-0.0203
 30
2.1554
 70
192
 0
VERTEX
 8
SILENCIADOR
 10
-0.8412
 20
-0.0206
 30
2.1519
 70
192
 0
VERTEX
 8
SILENCIADOR
 10
-0.8412
 20
-0.0711
 30
2.1519
 70
192
 0
VERTEX
 8
SILENCIADOR
 10
-0.8412
 20
-0.0711
 30
2.1519
 70
192
 0
VERTEX
 8
SILENCIADOR
 10
-0.2613
 20
-0.0711
 30
2.1519
 70
192
 0
VERTEX
 8
SILENCIADOR
 10
-0.2613
 20
-0.0711
 30
2.1519
 70
192
 0
VERTEX
 8
SILENCIADOR
 10
-0.2613
 20
-0.0206
 30
2.1519
 70
192
 0
VERTEX
 8
SILENCIADOR
 10
-0.2613
 20
-0.0206
 30
2.1519
 70
192
 0
VERTEX
 8
SILENCIADOR
 10
-0.8412
 20
-0.0206
 30
2.1519
 70
192
 0
VERTEX
 8
SILENCIADOR
 10
-0.8412
 20
-0.0203
 30
2.1484
 70
192
 0
VERTEX
 8
SILENCIADOR
 10
-0.8412
 20
-0.0701
 30
2.1396
 70
192
 0
VERTEX
 8
SILENCIADOR
 10
-0.8412
 20
-0.0701
 30
2.1396
 70
192
 0
VERTEX
 8
SILENCIADOR
 10
-0.2613
 20
-0.0701
 30
2.1396
 70
192
 0
VERTEX
 8
SILENCIADOR
 10
-0.2613
 20
-0.0701
 30
2.1396
 70
192
 0
VERTEX
 8
SILENCIADOR
 10
-0.2613
 20
-0.0203
 30
2.1484
 70
192
 0
VERTEX
 8
SILENCIADOR
 10
-0.2613
 20
-0.0203
 30
2.1484
 70
192
 0
VERTEX
 8
SILENCIADOR
 10
-0.8412
 20
-0.0203
 30
2.1484
 70
192
 0
VERTEX
 8
SILENCIADOR
 10
-0.8412
 20
-0.0194
 30
2.145
 70
192
 0
VERTEX
 8
SILENCIADOR
 10
-0.8412
 20
-0.0669
 30
2.1277
 70
192
 0
VERTEX
 8
SILENCIADOR
 10
-0.8412
 20
-0.0669
 30
2.1277
 70
192
 0
VERTEX
 8
SILENCIADOR
 10
-0.2613
 20
-0.0669
 30
2.1277
 70
192
 0
VERTEX
 8
SILENCIADOR
 10
-0.2613
 20
-0.0669
 30
2.1277
 70
192
 0
VERTEX
 8
SILENCIADOR
 10
-0.2613
 20
-0.0194
 30
2.145
 70
192
 0
VERTEX
 8
SILENCIADOR
 10
-0.2613
 20
-0.0194
 30
2.145
 70
192
 0
VERTEX
 8
SILENCIADOR
 10
-0.8412
 20
-0.0194
 30
2.145
 70
192
 0
VERTEX
 8
SILENCIADOR
 10
-0.8412
 20
-0.0179
 30
2.1418
 70
192
 0
VERTEX
 8
SILENCIADOR
 10
-0.8412
 20
-0.0617
 30
2.1166
 70
192
 0
VERTEX
 8
SILENCIADOR
 10
-0.8412
 20
-0.0617
 30
2.1166
 70
192
 0
VERTEX
 8
SILENCIADOR
 10
-0.2613
 20
-0.0617
 30
2.1166
 70
192
 0
VERTEX
 8
SILENCIADOR
 10
-0.2613
 20
-0.0617
 30
2.1166
 70
192
 0
VERTEX
 8
SILENCIADOR
 10
-0.2613
 20
-0.0179
 30
2.1418
 70
192
 0
VERTEX
 8
SILENCIADOR
 10
-0.2613
 20
-0.0179
 30
2.1418
 70
192
 0
VERTEX
 8
SILENCIADOR
 10
-0.8412
 20
-0.0179
 30
2.1418
 70
192
 0
VERTEX
 8
SILENCIADOR
 10
-0.8412
 20
-0.0159
 30
2.139
 70
192
 0
VERTEX
 8
SILENCIADOR
 10
-0.8412
 20
-0.0546
 30
2.1065
 70
192
 0
VERTEX
 8
SILENCIADOR
 10
-0.8412
 20
-0.0546
 30
2.1065
 70
192
 0
VERTEX
 8
SILENCIADOR
 10
-0.2613
 20
-0.0546
 30
2.1065
 70
192
 0
VERTEX
 8
SILENCIADOR
 10
-0.2613
 20
-0.0546
 30
2.1065
 70
192
 0
VERTEX
 8
SILENCIADOR
 10
-0.2613
 20
-0.0159
 30
2.139
 70
192
 0
VERTEX
 8
SILENCIADOR
 10
-0.2613
 20
-0.0159
 30
2.139
 70
192
 0
VERTEX
 8
SILENCIADOR
 10
-0.8412
 20
-0.0159
 30
2.139
 70
192
 0
VERTEX
 8
SILENCIADOR
 10
-0.8412
 20
-0.0134
 30
2.1365
 70
192
 0
VERTEX
 8
SILENCIADOR
 10
-0.8412
 20
-0.0459
 30
2.0978
 70
192
 0
VERTEX
 8
SILENCIADOR
 10
-0.8412
 20
-0.0459
 30
2.0978
 70
192
 0
VERTEX
 8
SILENCIADOR
 10
-0.2613
 20
-0.0459
 30
2.0978
 70
192
 0
VERTEX
 8
SILENCIADOR
 10
-0.2613
 20
-0.0459
 30
2.0978
 70
192
 0
VERTEX
 8
SILENCIADOR
 10
-0.2613
 20
-0.0134
 30
2.1365
 70
192
 0
VERTEX
 8
SILENCIADOR
 10
-0.2613
 20
-0.0134
 30
2.1365
 70
192
 0
VERTEX
 8
SILENCIADOR
 10
-0.8412
 20
-0.0134
 30
2.1365
 70
192
 0
VERTEX
 8
SILENCIADOR
 10
-0.8412
 20
-0.0105
 30
2.1345
 70
192
 0
VERTEX
 8
SILENCIADOR
 10
-0.8412
 20
-0.0358
 30
2.0907
 70
192
 0
VERTEX
 8
SILENCIADOR
 10
-0.8412
 20
-0.0358
 30
2.0907
 70
192
 0
VERTEX
 8
SILENCIADOR
 10
-0.2613
 20
-0.0358
 30
2.0907
 70
192
 0
VERTEX
 8
SILENCIADOR
 10
-0.2613
 20
-0.0358
 30
2.0907
 70
192
 0
VERTEX
 8
SILENCIADOR
 10
-0.2613
 20
-0.0105
 30
2.1345
 70
192
 0
VERTEX
 8
SILENCIADOR
 10
-0.2613
 20
-0.0105
 30
2.1345
 70
192
 0
VERTEX
 8
SILENCIADOR
 10
-0.8412
 20
-0.0105
 30
2.1345
 70
192
 0
VERTEX
 8
SILENCIADOR
 10
-0.8412
 20
-0.0074
 30
2.133
 70
192
 0
VERTEX
 8
SILENCIADOR
 10
-0.8412
 20
-0.0247
 30
2.0855
 70
192
 0
VERTEX
 8
SILENCIADOR
 10
-0.8412
 20
-0.0247
 30
2.0855
 70
192
 0
VERTEX
 8
SILENCIADOR
 10
-0.2613
 20
-0.0247
 30
2.0855
 70
192
 0
VERTEX
 8
SILENCIADOR
 10
-0.2613
 20
-0.0247
 30
2.0855
 70
192
 0
VERTEX
 8
SILENCIADOR
 10
-0.2613
 20
-0.0074
 30
2.133
 70
192
 0
VERTEX
 8
SILENCIADOR
 10
-0.2613
 20
-0.0074
 30
2.133
 70
192
 0
VERTEX
 8
SILENCIADOR
 10
-0.8412
 20
-0.0074
 30
2.133
 70
192
 0
VERTEX
 8
SILENCIADOR
 10
-0.8412
 20
-0.004
 30
2.1321
 70
192
 0
VERTEX
 8
SILENCIADOR
 10
-0.8412
 20
-0.0128
 30
2.0823
 70
192
 0
VERTEX
 8
SILENCIADOR
 10
-0.8412
 20
-0.0128
 30
2.0823
 70
192
 0
VERTEX
 8
SILENCIADOR
 10
-0.2613
 20
-0.0128
 30
2.0823
 70
192
 0
VERTEX
 8
SILENCIADOR
 10
-0.2613
 20
-0.0128
 30
2.0823
 70
192
 0
VERTEX
 8
SILENCIADOR
 10
-0.2613
 20
-0.004
 30
2.1321
 70
192
 0
VERTEX
 8
SILENCIADOR
 10
-0.2613
 20
-0.004
 30
2.1321
 70
192
 0
VERTEX
 8
SILENCIADOR
 10
-0.8412
 20
-0.004
 30
2.1321
 70
192
 0
VERTEX
 8
SILENCIADOR
 10
0
 20
0
 30
0
 70
128
 71
1
 72
2
 73
10
 74
9
 0
VERTEX
 8
SILENCIADOR
 10
0
 20
0
 30
0
 70
128
 71
3
 72
4
 73
12
 74
11
 0
VERTEX
 8
SILENCIADOR
 10
0
 20
0
 30
0
 70
128
 71
5
 72
6
 73
14
 74
13
 0
VERTEX
 8
SILENCIADOR
 10
0
 20
0
 30
0
 70
128
 71
7
 72
8
 73
16
 74
15
 0
VERTEX
 8
SILENCIADOR
 10
0
 20
0
 30
0
 70
128
 71
9
 72
10
 73
18
 74
17
 0
VERTEX
 8
SILENCIADOR
 10
0
 20
0
 30
0
 70
128
 71
11
 72
12
 73
20
 74
19
 0
VERTEX
 8
SILENCIADOR
 10
0
 20
0
 30
0
 70
128
 71
13
 72
14
 73
22
 74
21
 0
VERTEX
 8
SILENCIADOR
 10
0
 20
0
 30
0
 70
128
 71
15
 72
16
 73
24
 74
23
 0
VERTEX
 8
SILENCIADOR
 10
0
 20
0
 30
0
 70
128
 71
17
 72
18
 73
26
 74
25
 0
VERTEX
 8
SILENCIADOR
 10
0
 20
0
 30
0
 70
128
 71
19
 72
20
 73
28
 74
27
 0
VERTEX
 8
SILENCIADOR
 10
0
 20
0
 30
0
 70
128
 71
21
 72
22
 73
30
 74
29
 0
VERTEX
 8
SILENCIADOR
 10
0
 20
0
 30
0
 70
128
 71
23
 72
24
 73
32
 74
31
 0
VERTEX
 8
SILENCIADOR
 10
0
 20
0
 30
0
 70
128
 71
25
 72
26
 73
34
 74
33
 0
VERTEX
 8
SILENCIADOR
 10
0
 20
0
 30
0
 70
128
 71
27
 72
28
 73
36
 74
35
 0
VERTEX
 8
SILENCIADOR
 10
0
 20
0
 30
0
 70
128
 71
29
 72
30
 73
38
 74
37
 0
VERTEX
 8
SILENCIADOR
 10
0
 20
0
 30
0
 70
128
 71
31
 72
32
 73
40
 74
39
 0
VERTEX
 8
SILENCIADOR
 10
0
 20
0
 30
0
 70
128
 71
33
 72
34
 73
42
 74
41
 0
VERTEX
 8
SILENCIADOR
 10
0
 20
0
 30
0
 70
128
 71
35
 72
36
 73
44
 74
43
 0
VERTEX
 8
SILENCIADOR
 10
0
 20
0
 30
0
 70
128
 71
37
 72
38
 73
46
 74
45
 0
VERTEX
 8
SILENCIADOR
 10
0
 20
0
 30
0
 70
128
 71
39
 72
40
 73
48
 74
47
 0
VERTEX
 8
SILENCIADOR
 10
0
 20
0
 30
0
 70
128
 71
41
 72
42
 73
50
 74
49
 0
VERTEX
 8
SILENCIADOR
 10
0
 20
0
 30
0
 70
128
 71
43
 72
44
 73
52
 74
51
 0
VERTEX
 8
SILENCIADOR
 10
0
 20
0
 30
0
 70
128
 71
45
 72
46
 73
54
 74
53
 0
VERTEX
 8
SILENCIADOR
 10
0
 20
0
 30
0
 70
128
 71
47
 72
48
 73
56
 74
55
 0
VERTEX
 8
SILENCIADOR
 10
0
 20
0
 30
0
 70
128
 71
49
 72
50
 73
58
 74
57
 0
VERTEX
 8
SILENCIADOR
 10
0
 20
0
 30
0
 70
128
 71
51
 72
52
 73
60
 74
59
 0
VERTEX
 8
SILENCIADOR
 10
0
 20
0
 30
0
 70
128
 71
53
 72
54
 73
62
 74
61
 0
VERTEX
 8
SILENCIADOR
 10
0
 20
0
 30
0
 70
128
 71
55
 72
56
 73
64
 74
63
 0
VERTEX
 8
SILENCIADOR
 10
0
 20
0
 30
0
 70
128
 71
57
 72
58
 73
66
 74
65
 0
VERTEX
 8
SILENCIADOR
 10
0
 20
0
 30
0
 70
128
 71
59
 72
60
 73
68
 74
67
 0
VERTEX
 8
SILENCIADOR
 10
0
 20
0
 30
0
 70
128
 71
61
 72
62
 73
70
 74
69
 0
VERTEX
 8
SILENCIADOR
 10
0
 20
0
 30
0
 70
128
 71
63
 72
64
 73
72
 74
71
 0
VERTEX
 8
SILENCIADOR
 10
0
 20
0
 30
0
 70
128
 71
65
 72
66
 73
74
 74
73
 0
VERTEX
 8
SILENCIADOR
 10
0
 20
0
 30
0
 70
128
 71
67
 72
68
 73
76
 74
75
 0
VERTEX
 8
SILENCIADOR
 10
0
 20
0
 30
0
 70
128
 71
69
 72
70
 73
78
 74
77
 0
VERTEX
 8
SILENCIADOR
 10
0
 20
0
 30
0
 70
128
 71
71
 72
72
 73
80
 74
79
 0
VERTEX
 8
SILENCIADOR
 10
0
 20
0
 30
0
 70
128
 71
73
 72
74
 73
82
 74
81
 0
VERTEX
 8
SILENCIADOR
 10
0
 20
0
 30
0
 70
128
 71
75
 72
76
 73
84
 74
83
 0
VERTEX
 8
SILENCIADOR
 10
0
 20
0
 30
0
 70
128
 71
77
 72
78
 73
86
 74
85
 0
VERTEX
 8
SILENCIADOR
 10
0
 20
0
 30
0
 70
128
 71
79
 72
80
 73
88
 74
87
 0
VERTEX
 8
SILENCIADOR
 10
0
 20
0
 30
0
 70
128
 71
81
 72
82
 73
90
 74
89
 0
VERTEX
 8
SILENCIADOR
 10
0
 20
0
 30
0
 70
128
 71
83
 72
84
 73
92
 74
91
 0
VERTEX
 8
SILENCIADOR
 10
0
 20
0
 30
0
 70
128
 71
85
 72
86
 73
94
 74
93
 0
VERTEX
 8
SILENCIADOR
 10
0
 20
0
 30
0
 70
128
 71
87
 72
88
 73
96
 74
95
 0
VERTEX
 8
SILENCIADOR
 10
0
 20
0
 30
0
 70
128
 71
89
 72
90
 73
98
 74
97
 0
VERTEX
 8
SILENCIADOR
 10
0
 20
0
 30
0
 70
128
 71
91
 72
92
 73
100
 74
99
 0
VERTEX
 8
SILENCIADOR
 10
0
 20
0
 30
0
 70
128
 71
93
 72
94
 73
102
 74
101
 0
VERTEX
 8
SILENCIADOR
 10
0
 20
0
 30
0
 70
128
 71
95
 72
96
 73
104
 74
103
 0
VERTEX
 8
SILENCIADOR
 10
0
 20
0
 30
0
 70
128
 71
97
 72
98
 73
106
 74
105
 0
VERTEX
 8
SILENCIADOR
 10
0
 20
0
 30
0
 70
128
 71
99
 72
100
 73
108
 74
107
 0
VERTEX
 8
SILENCIADOR
 10
0
 20
0
 30
0
 70
128
 71
101
 72
102
 73
110
 74
109
 0
VERTEX
 8
SILENCIADOR
 10
0
 20
0
 30
0
 70
128
 71
103
 72
104
 73
112
 74
111
 0
VERTEX
 8
SILENCIADOR
 10
0
 20
0
 30
0
 70
128
 71
105
 72
106
 73
114
 74
113
 0
VERTEX
 8
SILENCIADOR
 10
0
 20
0
 30
0
 70
128
 71
107
 72
108
 73
116
 74
115
 0
VERTEX
 8
SILENCIADOR
 10
0
 20
0
 30
0
 70
128
 71
109
 72
110
 73
118
 74
117
 0
VERTEX
 8
SILENCIADOR
 10
0
 20
0
 30
0
 70
128
 71
111
 72
112
 73
120
 74
119
 0
VERTEX
 8
SILENCIADOR
 10
0
 20
0
 30
0
 70
128
 71
113
 72
114
 73
122
 74
121
 0
VERTEX
 8
SILENCIADOR
 10
0
 20
0
 30
0
 70
128
 71
115
 72
116
 73
124
 74
123
 0
VERTEX
 8
SILENCIADOR
 10
0
 20
0
 30
0
 70
128
 71
117
 72
118
 73
126
 74
125
 0
VERTEX
 8
SILENCIADOR
 10
0
 20
0
 30
0
 70
128
 71
119
 72
120
 73
128
 74
127
 0
VERTEX
 8
SILENCIADOR
 10
0
 20
0
 30
0
 70
128
 71
121
 72
122
 73
130
 74
129
 0
VERTEX
 8
SILENCIADOR
 10
0
 20
0
 30
0
 70
128
 71
123
 72
124
 73
132
 74
131
 0
VERTEX
 8
SILENCIADOR
 10
0
 20
0
 30
0
 70
128
 71
125
 72
126
 73
134
 74
133
 0
VERTEX
 8
SILENCIADOR
 10
0
 20
0
 30
0
 70
128
 71
127
 72
128
 73
136
 74
135
 0
VERTEX
 8
SILENCIADOR
 10
0
 20
0
 30
0
 70
128
 71
129
 72
130
 73
138
 74
137
 0
VERTEX
 8
SILENCIADOR
 10
0
 20
0
 30
0
 70
128
 71
131
 72
132
 73
140
 74
139
 0
VERTEX
 8
SILENCIADOR
 10
0
 20
0
 30
0
 70
128
 71
133
 72
134
 73
142
 74
141
 0
VERTEX
 8
SILENCIADOR
 10
0
 20
0
 30
0
 70
128
 71
135
 72
136
 73
144
 74
143
 0
VERTEX
 8
SILENCIADOR
 10
0
 20
0
 30
0
 70
128
 71
137
 72
138
 73
146
 74
145
 0
VERTEX
 8
SILENCIADOR
 10
0
 20
0
 30
0
 70
128
 71
139
 72
140
 73
148
 74
147
 0
VERTEX
 8
SILENCIADOR
 10
0
 20
0
 30
0
 70
128
 71
141
 72
142
 73
150
 74
149
 0
VERTEX
 8
SILENCIADOR
 10
0
 20
0
 30
0
 70
128
 71
143
 72
144
 73
152
 74
151
 0
VERTEX
 8
SILENCIADOR
 10
0
 20
0
 30
0
 70
128
 71
145
 72
146
 73
154
 74
153
 0
VERTEX
 8
SILENCIADOR
 10
0
 20
0
 30
0
 70
128
 71
147
 72
148
 73
156
 74
155
 0
VERTEX
 8
SILENCIADOR
 10
0
 20
0
 30
0
 70
128
 71
149
 72
150
 73
158
 74
157
 0
VERTEX
 8
SILENCIADOR
 10
0
 20
0
 30
0
 70
128
 71
151
 72
152
 73
160
 74
159
 0
VERTEX
 8
SILENCIADOR
 10
0
 20
0
 30
0
 70
128
 71
153
 72
154
 73
162
 74
161
 0
VERTEX
 8
SILENCIADOR
 10
0
 20
0
 30
0
 70
128
 71
155
 72
156
 73
164
 74
163
 0
VERTEX
 8
SILENCIADOR
 10
0
 20
0
 30
0
 70
128
 71
157
 72
158
 73
166
 74
165
 0
VERTEX
 8
SILENCIADOR
 10
0
 20
0
 30
0
 70
128
 71
159
 72
160
 73
168
 74
167
 0
VERTEX
 8
SILENCIADOR
 10
0
 20
0
 30
0
 70
128
 71
161
 72
162
 73
170
 74
169
 0
VERTEX
 8
SILENCIADOR
 10
0
 20
0
 30
0
 70
128
 71
163
 72
164
 73
172
 74
171
 0
VERTEX
 8
SILENCIADOR
 10
0
 20
0
 30
0
 70
128
 71
165
 72
166
 73
174
 74
173
 0
VERTEX
 8
SILENCIADOR
 10
0
 20
0
 30
0
 70
128
 71
167
 72
168
 73
176
 74
175
 0
VERTEX
 8
SILENCIADOR
 10
0
 20
0
 30
0
 70
128
 71
169
 72
170
 73
178
 74
177
 0
VERTEX
 8
SILENCIADOR
 10
0
 20
0
 30
0
 70
128
 71
171
 72
172
 73
180
 74
179
 0
VERTEX
 8
SILENCIADOR
 10
0
 20
0
 30
0
 70
128
 71
173
 72
174
 73
182
 74
181
 0
VERTEX
 8
SILENCIADOR
 10
0
 20
0
 30
0
 70
128
 71
175
 72
176
 73
184
 74
183
 0
VERTEX
 8
SILENCIADOR
 10
0
 20
0
 30
0
 70
128
 71
177
 72
178
 73
186
 74
185
 0
VERTEX
 8
SILENCIADOR
 10
0
 20
0
 30
0
 70
128
 71
179
 72
180
 73
188
 74
187
 0
VERTEX
 8
SILENCIADOR
 10
0
 20
0
 30
0
 70
128
 71
181
 72
182
 73
190
 74
189
 0
VERTEX
 8
SILENCIADOR
 10
0
 20
0
 30
0
 70
128
 71
183
 72
184
 73
192
 74
191
 0
VERTEX
 8
SILENCIADOR
 10
0
 20
0
 30
0
 70
128
 71
185
 72
186
 73
194
 74
193
 0
VERTEX
 8
SILENCIADOR
 10
0
 20
0
 30
0
 70
128
 71
187
 72
188
 73
196
 74
195
 0
VERTEX
 8
SILENCIADOR
 10
0
 20
0
 30
0
 70
128
 71
189
 72
190
 73
198
 74
197
 0
VERTEX
 8
SILENCIADOR
 10
0
 20
0
 30
0
 70
128
 71
191
 72
192
 73
200
 74
199
 0
VERTEX
 8
SILENCIADOR
 10
0
 20
0
 30
0
 70
128
 71
193
 72
194
 73
202
 74
201
 0
VERTEX
 8
SILENCIADOR
 10
0
 20
0
 30
0
 70
128
 71
195
 72
196
 73
204
 74
203
 0
VERTEX
 8
SILENCIADOR
 10
0
 20
0
 30
0
 70
128
 71
197
 72
198
 73
206
 74
205
 0
VERTEX
 8
SILENCIADOR
 10
0
 20
0
 30
0
 70
128
 71
199
 72
200
 73
208
 74
207
 0
VERTEX
 8
SILENCIADOR
 10
0
 20
0
 30
0
 70
128
 71
201
 72
202
 73
210
 74
209
 0
VERTEX
 8
SILENCIADOR
 10
0
 20
0
 30
0
 70
128
 71
203
 72
204
 73
212
 74
211
 0
VERTEX
 8
SILENCIADOR
 10
0
 20
0
 30
0
 70
128
 71
205
 72
206
 73
214
 74
213
 0
VERTEX
 8
SILENCIADOR
 10
0
 20
0
 30
0
 70
128
 71
207
 72
208
 73
216
 74
215
 0
VERTEX
 8
SILENCIADOR
 10
0
 20
0
 30
0
 70
128
 71
209
 72
210
 73
218
 74
217
 0
VERTEX
 8
SILENCIADOR
 10
0
 20
0
 30
0
 70
128
 71
211
 72
212
 73
220
 74
219
 0
VERTEX
 8
SILENCIADOR
 10
0
 20
0
 30
0
 70
128
 71
213
 72
214
 73
222
 74
221
 0
VERTEX
 8
SILENCIADOR
 10
0
 20
0
 30
0
 70
128
 71
215
 72
216
 73
224
 74
223
 0
VERTEX
 8
SILENCIADOR
 10
0
 20
0
 30
0
 70
128
 71
217
 72
218
 73
226
 74
225
 0
VERTEX
 8
SILENCIADOR
 10
0
 20
0
 30
0
 70
128
 71
219
 72
220
 73
228
 74
227
 0
VERTEX
 8
SILENCIADOR
 10
0
 20
0
 30
0
 70
128
 71
221
 72
222
 73
230
 74
229
 0
VERTEX
 8
SILENCIADOR
 10
0
 20
0
 30
0
 70
128
 71
223
 72
224
 73
232
 74
231
 0
VERTEX
 8
SILENCIADOR
 10
0
 20
0
 30
0
 70
128
 71
225
 72
226
 73
234
 74
233
 0
VERTEX
 8
SILENCIADOR
 10
0
 20
0
 30
0
 70
128
 71
227
 72
228
 73
236
 74
235
 0
VERTEX
 8
SILENCIADOR
 10
0
 20
0
 30
0
 70
128
 71
229
 72
230
 73
238
 74
237
 0
VERTEX
 8
SILENCIADOR
 10
0
 20
0
 30
0
 70
128
 71
231
 72
232
 73
240
 74
239
 0
VERTEX
 8
SILENCIADOR
 10
0
 20
0
 30
0
 70
128
 71
233
 72
234
 73
242
 74
241
 0
VERTEX
 8
SILENCIADOR
 10
0
 20
0
 30
0
 70
128
 71
235
 72
236
 73
244
 74
243
 0
VERTEX
 8
SILENCIADOR
 10
0
 20
0
 30
0
 70
128
 71
237
 72
238
 73
246
 74
245
 0
VERTEX
 8
SILENCIADOR
 10
0
 20
0
 30
0
 70
128
 71
239
 72
240
 73
248
 74
247
 0
VERTEX
 8
SILENCIADOR
 10
0
 20
0
 30
0
 70
128
 71
241
 72
242
 73
250
 74
249
 0
VERTEX
 8
SILENCIADOR
 10
0
 20
0
 30
0
 70
128
 71
243
 72
244
 73
252
 74
251
 0
VERTEX
 8
SILENCIADOR
 10
0
 20
0
 30
0
 70
128
 71
245
 72
246
 73
254
 74
253
 0
VERTEX
 8
SILENCIADOR
 10
0
 20
0
 30
0
 70
128
 71
247
 72
248
 73
256
 74
255
 0
VERTEX
 8
SILENCIADOR
 10
0
 20
0
 30
0
 70
128
 71
249
 72
250
 73
258
 74
257
 0
VERTEX
 8
SILENCIADOR
 10
0
 20
0
 30
0
 70
128
 71
251
 72
252
 73
260
 74
259
 0
VERTEX
 8
SILENCIADOR
 10
0
 20
0
 30
0
 70
128
 71
253
 72
254
 73
262
 74
261
 0
VERTEX
 8
SILENCIADOR
 10
0
 20
0
 30
0
 70
128
 71
255
 72
256
 73
264
 74
263
 0
VERTEX
 8
SILENCIADOR
 10
0
 20
0
 30
0
 70
128
 71
257
 72
258
 73
266
 74
265
 0
VERTEX
 8
SILENCIADOR
 10
0
 20
0
 30
0
 70
128
 71
259
 72
260
 73
268
 74
267
 0
VERTEX
 8
SILENCIADOR
 10
0
 20
0
 30
0
 70
128
 71
261
 72
262
 73
270
 74
269
 0
VERTEX
 8
SILENCIADOR
 10
0
 20
0
 30
0
 70
128
 71
263
 72
264
 73
272
 74
271
 0
VERTEX
 8
SILENCIADOR
 10
0
 20
0
 30
0
 70
128
 71
265
 72
266
 73
274
 74
273
 0
VERTEX
 8
SILENCIADOR
 10
0
 20
0
 30
0
 70
128
 71
267
 72
268
 73
276
 74
275
 0
VERTEX
 8
SILENCIADOR
 10
0
 20
0
 30
0
 70
128
 71
269
 72
270
 73
278
 74
277
 0
VERTEX
 8
SILENCIADOR
 10
0
 20
0
 30
0
 70
128
 71
271
 72
272
 73
280
 74
279
 0
VERTEX
 8
SILENCIADOR
 10
0
 20
0
 30
0
 70
128
 71
273
 72
274
 73
282
 74
281
 0
VERTEX
 8
SILENCIADOR
 10
0
 20
0
 30
0
 70
128
 71
275
 72
276
 73
284
 74
283
 0
VERTEX
 8
SILENCIADOR
 10
0
 20
0
 30
0
 70
128
 71
277
 72
278
 73
286
 74
285
 0
VERTEX
 8
SILENCIADOR
 10
0
 20
0
 30
0
 70
128
 71
279
 72
280
 73
288
 74
287
 0
VERTEX
 8
SILENCIADOR
 10
0
 20
0
 30
0
 70
128
 71
281
 72
282
 73
2
 74
1
 0
VERTEX
 8
SILENCIADOR
 10
0
 20
0
 30
0
 70
128
 71
283
 72
284
 73
4
 74
3
 0
VERTEX
 8
SILENCIADOR
 10
0
 20
0
 30
0
 70
128
 71
285
 72
286
 73
6
 74
5
 0
VERTEX
 8
SILENCIADOR
 10
0
 20
0
 30
0
 70
128
 71
287
 72
288
 73
8
 74
7
 0
SEQEND
 0
POLYLINE
 8
GRIP
 66
1
 10
0.0
 20
0.0
 30
0.0
 70
64
 71
16
 72
12
 0
VERTEX
 8
GRIP
 10
-0.0189
 20
-0.0402
 30
2.0678
 70
192
 0
VERTEX
 8
GRIP
 10
0.0736
 20
-0.0402
 30
2.0678
 70
192
 0
VERTEX
 8
GRIP
 10
-0.0189
 20
-0.0402
 30
1.7594
 70
192
 0
VERTEX
 8
GRIP
 10
0.0736
 20
-0.0402
 30
1.7594
 70
192
 0
VERTEX
 8
GRIP
 10
-0.0189
 20
0.0402
 30
1.7594
 70
192
 0
VERTEX
 8
GRIP
 10
0.0736
 20
0.0402
 30
1.7594
 70
192
 0
VERTEX
 8
GRIP
 10
-0.0189
 20
0.0402
 30
2.0678
 70
192
 0
VERTEX
 8
GRIP
 10
0.0736
 20
0.0402
 30
2.0678
 70
192
 0
VERTEX
 8
GRIP
 10
-0.0693
 20
-0.0626
 30
2.0842
 70
192
 0
VERTEX
 8
GRIP
 10
0.124
 20
-0.0626
 30
2.0842
 70
192
 0
VERTEX
 8
GRIP
 10
-0.0693
 20
-0.0626
 30
2.0458
 70
192
 0
VERTEX
 8
GRIP
 10
0.124
 20
-0.0626
 30
2.0458
 70
192
 0
VERTEX
 8
GRIP
 10
-0.0693
 20
0.0626
 30
2.0458
 70
192
 0
VERTEX
 8
GRIP
 10
0.124
 20
0.0626
 30
2.0458
 70
192
 0
VERTEX
 8
GRIP
 10
-0.0693
 20
0.0626
 30
2.0842
 70
192
 0
VERTEX
 8
GRIP
 10
0.124
 20
0.0626
 30
2.0842
 70
192
 0
VERTEX
 8
GRIP
 10
0
 20
0
 30
0
 70
128
 71
1
 72
2
 73
4
 74
3
 0
VERTEX
 8
GRIP
 10
0
 20
0
 30
0
 70
128
 71
3
 72
4
 73
6
 74
5
 0
VERTEX
 8
GRIP
 10
0
 20
0
 30
0
 70
128
 71
5
 72
6
 73
8
 74
7
 0
VERTEX
 8
GRIP
 10
0
 20
0
 30
0
 70
128
 71
7
 72
8
 73
2
 74
1
 0
VERTEX
 8
GRIP
 10
0
 20
0
 30
0
 70
128
 71
2
 72
8
 73
6
 74
4
 0
VERTEX
 8
GRIP
 10
0
 20
0
 30
0
 70
128
 71
7
 72
1
 73
3
 74
5
 0
VERTEX
 8
GRIP
 10
0
 20
0
 30
0
 70
128
 71
9
 72
10
 73
12
 74
11
 0
VERTEX
 8
GRIP
 10
0
 20
0
 30
0
 70
128
 71
11
 72
12
 73
14
 74
13
 0
VERTEX
 8
GRIP
 10
0
 20
0
 30
0
 70
128
 71
13
 72
14
 73
16
 74
15
 0
VERTEX
 8
GRIP
 10
0
 20
0
 30
0
 70
128
 71
15
 72
16
 73
10
 74
9
 0
VERTEX
 8
GRIP
 10
0
 20
0
 30
0
 70
128
 71
10
 72
16
 73
14
 74
12
 0
VERTEX
 8
GRIP
 10
0
 20
0
 30
0
 70
128
 71
15
 72
9
 73
11
 74
13
 0
SEQEND
 0
POLYLINE
 8
CARGADOR
 66
1
 10
0.0
 20
0.0
 30
0.0
 70
64
 71
8
 72
6
 0
VERTEX
 8
CARGADOR
 10
0.4515
 20
-0.0427
 30
1.4216
 70
192
 0
VERTEX
 8
CARGADOR
 10
0.4515
 20
-0.0427
 30
2.0181
 70
192
 0
VERTEX
 8
CARGADOR
 10
0.6052
 20
-0.0427
 30
1.4216
 70
192
 0
VERTEX
 8
CARGADOR
 10
0.6052
 20
-0.0427
 30
2.0181
 70
192
 0
VERTEX
 8
CARGADOR
 10
0.6052
 20
0.0427
 30
1.4216
 70
192
 0
VERTEX
 8
CARGADOR
 10
0.6052
 20
0.0427
 30
2.0181
 70
192
 0
VERTEX
 8
CARGADOR
 10
0.4515
 20
0.0427
 30
1.4216
 70
192
 0
VERTEX
 8
CARGADOR
 10
0.4515
 20
0.0427
 30
2.0181
 70
192
 0
VERTEX
 8
CARGADOR
 10
0
 20
0
 30
0
 70
128
 71
1
 72
2
 73
4
 74
3
 0
VERTEX
 8
CARGADOR
 10
0
 20
0
 30
0
 70
128
 71
3
 72
4
 73
6
 74
5
 0
VERTEX
 8
CARGADOR
 10
0
 20
0
 30
0
 70
128
 71
5
 72
6
 73
8
 74
7
 0
VERTEX
 8
CARGADOR
 10
0
 20
0
 30
0
 70
128
 71
7
 72
8
 73
2
 74
1
 0
VERTEX
 8
CARGADOR
 10
0
 20
0
 30
0
 70
128
 71
2
 72
8
 73
6
 74
4
 0
VERTEX
 8
CARGADOR
 10
0
 20
0
 30
0
 70
128
 71
7
 72
1
 73
3
 74
5
 0
SEQEND
 0
POLYLINE
 8
MIRA
 66
1
 10
0.0
 20
0.0
 30
0.0
 70
64
 71
296
 72
150
 0
VERTEX
 8
MIRA
 10
0.4902
 20
0.0002
 30
2.2868
 70
192
 0
VERTEX
 8
MIRA
 10
0.4902
 20
0.0002
 30
2.2787
 70
192
 0
VERTEX
 8
MIRA
 10
0.4902
 20
0.0002
 30
2.2787
 70
192
 0
VERTEX
 8
MIRA
 10
0.533
 20
0.0002
 30
2.2787
 70
192
 0
VERTEX
 8
MIRA
 10
0.533
 20
0.0002
 30
2.2787
 70
192
 0
VERTEX
 8
MIRA
 10
0.533
 20
0.0002
 30
2.2868
 70
192
 0
VERTEX
 8
MIRA
 10
0.533
 20
0.0002
 30
2.2868
 70
192
 0
VERTEX
 8
MIRA
 10
0.4902
 20
0.0002
 30
2.2868
 70
192
 0
VERTEX
 8
MIRA
 10
0.4902
 20
0.008
 30
2.2875
 70
192
 0
VERTEX
 8
MIRA
 10
0.4902
 20
0.0094
 30
2.2795
 70
192
 0
VERTEX
 8
MIRA
 10
0.4902
 20
0.0094
 30
2.2795
 70
192
 0
VERTEX
 8
MIRA
 10
0.533
 20
0.0094
 30
2.2795
 70
192
 0
VERTEX
 8
MIRA
 10
0.533
 20
0.0094
 30
2.2795
 70
192
 0
VERTEX
 8
MIRA
 10
0.533
 20
0.008
 30
2.2875
 70
192
 0
VERTEX
 8
MIRA
 10
0.533
 20
0.008
 30
2.2875
 70
192
 0
VERTEX
 8
MIRA
 10
0.4902
 20
0.008
 30
2.2875
 70
192
 0
VERTEX
 8
MIRA
 10
0.4902
 20
0.0156
 30
2.2895
 70
192
 0
VERTEX
 8
MIRA
 10
0.4902
 20
0.0184
 30
2.2819
 70
192
 0
VERTEX
 8
MIRA
 10
0.4902
 20
0.0184
 30
2.2819
 70
192
 0
VERTEX
 8
MIRA
 10
0.533
 20
0.0184
 30
2.2819
 70
192
 0
VERTEX
 8
MIRA
 10
0.533
 20
0.0184
 30
2.2819
 70
192
 0
VERTEX
 8
MIRA
 10
0.533
 20
0.0156
 30
2.2895
 70
192
 0
VERTEX
 8
MIRA
 10
0.533
 20
0.0156
 30
2.2895
 70
192
 0
VERTEX
 8
MIRA
 10
0.4902
 20
0.0156
 30
2.2895
 70
192
 0
VERTEX
 8
MIRA
 10
0.4902
 20
0.0228
 30
2.2929
 70
192
 0
VERTEX
 8
MIRA
 10
0.4902
 20
0.0268
 30
2.2858
 70
192
 0
VERTEX
 8
MIRA
 10
0.4902
 20
0.0268
 30
2.2858
 70
192
 0
VERTEX
 8
MIRA
 10
0.533
 20
0.0268
 30
2.2858
 70
192
 0
VERTEX
 8
MIRA
 10
0.533
 20
0.0268
 30
2.2858
 70
192
 0
VERTEX
 8
MIRA
 10
0.533
 20
0.0228
 30
2.2929
 70
192
 0
VERTEX
 8
MIRA
 10
0.533
 20
0.0228
 30
2.2929
 70
192
 0
VERTEX
 8
MIRA
 10
0.4902
 20
0.0228
 30
2.2929
 70
192
 0
VERTEX
 8
MIRA
 10
0.4902
 20
0.0293
 30
2.2974
 70
192
 0
VERTEX
 8
MIRA
 10
0.4902
 20
0.0345
 30
2.2912
 70
192
 0
VERTEX
 8
MIRA
 10
0.4902
 20
0.0345
 30
2.2912
 70
192
 0
VERTEX
 8
MIRA
 10
0.533
 20
0.0345
 30
2.2912
 70
192
 0
VERTEX
 8
MIRA
 10
0.533
 20
0.0345
 30
2.2912
 70
192
 0
VERTEX
 8
MIRA
 10
0.533
 20
0.0293
 30
2.2974
 70
192
 0
VERTEX
 8
MIRA
 10
0.533
 20
0.0293
 30
2.2974
 70
192
 0
VERTEX
 8
MIRA
 10
0.4902
 20
0.0293
 30
2.2974
 70
192
 0
VERTEX
 8
MIRA
 10
0.4902
 20
0.0348
 30
2.303
 70
192
 0
VERTEX
 8
MIRA
 10
0.4902
 20
0.0411
 30
2.2978
 70
192
 0
VERTEX
 8
MIRA
 10
0.4902
 20
0.0411
 30
2.2978
 70
192
 0
VERTEX
 8
MIRA
 10
0.533
 20
0.0411
 30
2.2978
 70
192
 0
VERTEX
 8
MIRA
 10
0.533
 20
0.0411
 30
2.2978
 70
192
 0
VERTEX
 8
MIRA
 10
0.533
 20
0.0348
 30
2.303
 70
192
 0
VERTEX
 8
MIRA
 10
0.533
 20
0.0348
 30
2.303
 70
192
 0
VERTEX
 8
MIRA
 10
0.4902
 20
0.0348
 30
2.303
 70
192
 0
VERTEX
 8
MIRA
 10
0.4902
 20
0.0394
 30
2.3094
 70
192
 0
VERTEX
 8
MIRA
 10
0.4902
 20
0.0464
 30
2.3054
 70
192
 0
VERTEX
 8
MIRA
 10
0.4902
 20
0.0464
 30
2.3054
 70
192
 0
VERTEX
 8
MIRA
 10
0.533
 20
0.0464
 30
2.3054
 70
192
 0
VERTEX
 8
MIRA
 10
0.533
 20
0.0464
 30
2.3054
 70
192
 0
VERTEX
 8
MIRA
 10
0.533
 20
0.0394
 30
2.3094
 70
192
 0
VERTEX
 8
MIRA
 10
0.533
 20
0.0394
 30
2.3094
 70
192
 0
VERTEX
 8
MIRA
 10
0.4902
 20
0.0394
 30
2.3094
 70
192
 0
VERTEX
 8
MIRA
 10
0.4902
 20
0.0427
 30
2.3166
 70
192
 0
VERTEX
 8
MIRA
 10
0.4902
 20
0.0503
 30
2.3138
 70
192
 0
VERTEX
 8
MIRA
 10
0.4902
 20
0.0503
 30
2.3138
 70
192
 0
VERTEX
 8
MIRA
 10
0.533
 20
0.0503
 30
2.3138
 70
192
 0
VERTEX
 8
MIRA
 10
0.533
 20
0.0503
 30
2.3138
 70
192
 0
VERTEX
 8
MIRA
 10
0.533
 20
0.0427
 30
2.3166
 70
192
 0
VERTEX
 8
MIRA
 10
0.533
 20
0.0427
 30
2.3166
 70
192
 0
VERTEX
 8
MIRA
 10
0.4902
 20
0.0427
 30
2.3166
 70
192
 0
VERTEX
 8
MIRA
 10
0.4902
 20
0.0447
 30
2.3242
 70
192
 0
VERTEX
 8
MIRA
 10
0.4902
 20
0.0527
 30
2.3228
 70
192
 0
VERTEX
 8
MIRA
 10
0.4902
 20
0.0527
 30
2.3228
 70
192
 0
VERTEX
 8
MIRA
 10
0.533
 20
0.0527
 30
2.3228
 70
192
 0
VERTEX
 8
MIRA
 10
0.533
 20
0.0527
 30
2.3228
 70
192
 0
VERTEX
 8
MIRA
 10
0.533
 20
0.0447
 30
2.3242
 70
192
 0
VERTEX
 8
MIRA
 10
0.533
 20
0.0447
 30
2.3242
 70
192
 0
VERTEX
 8
MIRA
 10
0.4902
 20
0.0447
 30
2.3242
 70
192
 0
VERTEX
 8
MIRA
 10
0.4902
 20
0.0454
 30
2.3321
 70
192
 0
VERTEX
 8
MIRA
 10
0.4902
 20
0.0535
 30
2.3321
 70
192
 0
VERTEX
 8
MIRA
 10
0.4902
 20
0.0535
 30
2.3321
 70
192
 0
VERTEX
 8
MIRA
 10
0.533
 20
0.0535
 30
2.3321
 70
192
 0
VERTEX
 8
MIRA
 10
0.533
 20
0.0535
 30
2.3321
 70
192
 0
VERTEX
 8
MIRA
 10
0.533
 20
0.0454
 30
2.3321
 70
192
 0
VERTEX
 8
MIRA
 10
0.533
 20
0.0454
 30
2.3321
 70
192
 0
VERTEX
 8
MIRA
 10
0.4902
 20
0.0454
 30
2.3321
 70
192
 0
VERTEX
 8
MIRA
 10
0.4902
 20
0.0447
 30
2.3399
 70
192
 0
VERTEX
 8
MIRA
 10
0.4902
 20
0.0527
 30
2.3413
 70
192
 0
VERTEX
 8
MIRA
 10
0.4902
 20
0.0527
 30
2.3413
 70
192
 0
VERTEX
 8
MIRA
 10
0.533
 20
0.0527
 30
2.3413
 70
192
 0
VERTEX
 8
MIRA
 10
0.533
 20
0.0527
 30
2.3413
 70
192
 0
VERTEX
 8
MIRA
 10
0.533
 20
0.0447
 30
2.3399
 70
192
 0
VERTEX
 8
MIRA
 10
0.533
 20
0.0447
 30
2.3399
 70
192
 0
VERTEX
 8
MIRA
 10
0.4902
 20
0.0447
 30
2.3399
 70
192
 0
VERTEX
 8
MIRA
 10
0.4902
 20
0.0427
 30
2.3476
 70
192
 0
VERTEX
 8
MIRA
 10
0.4902
 20
0.0503
 30
2.3503
 70
192
 0
VERTEX
 8
MIRA
 10
0.4902
 20
0.0503
 30
2.3503
 70
192
 0
VERTEX
 8
MIRA
 10
0.533
 20
0.0503
 30
2.3503
 70
192
 0
VERTEX
 8
MIRA
 10
0.533
 20
0.0503
 30
2.3503
 70
192
 0
VERTEX
 8
MIRA
 10
0.533
 20
0.0427
 30
2.3476
 70
192
 0
VERTEX
 8
MIRA
 10
0.533
 20
0.0427
 30
2.3476
 70
192
 0
VERTEX
 8
MIRA
 10
0.4902
 20
0.0427
 30
2.3476
 70
192
 0
VERTEX
 8
MIRA
 10
0.4902
 20
0.0394
 30
2.3547
 70
192
 0
VERTEX
 8
MIRA
 10
0.4902
 20
0.0464
 30
2.3588
 70
192
 0
VERTEX
 8
MIRA
 10
0.4902
 20
0.0464
 30
2.3588
 70
192
 0
VERTEX
 8
MIRA
 10
0.533
 20
0.0464
 30
2.3588
 70
192
 0
VERTEX
 8
MIRA
 10
0.533
 20
0.0464
 30
2.3588
 70
192
 0
VERTEX
 8
MIRA
 10
0.533
 20
0.0394
 30
2.3547
 70
192
 0
VERTEX
 8
MIRA
 10
0.533
 20
0.0394
 30
2.3547
 70
192
 0
VERTEX
 8
MIRA
 10
0.4902
 20
0.0394
 30
2.3547
 70
192
 0
VERTEX
 8
MIRA
 10
0.4902
 20
0.0348
 30
2.3612
 70
192
 0
VERTEX
 8
MIRA
 10
0.4902
 20
0.0411
 30
2.3664
 70
192
 0
VERTEX
 8
MIRA
 10
0.4902
 20
0.0411
 30
2.3664
 70
192
 0
VERTEX
 8
MIRA
 10
0.533
 20
0.0411
 30
2.3664
 70
192
 0
VERTEX
 8
MIRA
 10
0.533
 20
0.0411
 30
2.3664
 70
192
 0
VERTEX
 8
MIRA
 10
0.533
 20
0.0348
 30
2.3612
 70
192
 0
VERTEX
 8
MIRA
 10
0.533
 20
0.0348
 30
2.3612
 70
192
 0
VERTEX
 8
MIRA
 10
0.4902
 20
0.0348
 30
2.3612
 70
192
 0
VERTEX
 8
MIRA
 10
0.4902
 20
0.0293
 30
2.3668
 70
192
 0
VERTEX
 8
MIRA
 10
0.4902
 20
0.0345
 30
2.373
 70
192
 0
VERTEX
 8
MIRA
 10
0.4902
 20
0.0345
 30
2.373
 70
192
 0
VERTEX
 8
MIRA
 10
0.533
 20
0.0345
 30
2.373
 70
192
 0
VERTEX
 8
MIRA
 10
0.533
 20
0.0345
 30
2.373
 70
192
 0
VERTEX
 8
MIRA
 10
0.533
 20
0.0293
 30
2.3668
 70
192
 0
VERTEX
 8
MIRA
 10
0.533
 20
0.0293
 30
2.3668
 70
192
 0
VERTEX
 8
MIRA
 10
0.4902
 20
0.0293
 30
2.3668
 70
192
 0
VERTEX
 8
MIRA
 10
0.4902
 20
0.0228
 30
2.3713
 70
192
 0
VERTEX
 8
MIRA
 10
0.4902
 20
0.0268
 30
2.3783
 70
192
 0
VERTEX
 8
MIRA
 10
0.4902
 20
0.0268
 30
2.3783
 70
192
 0
VERTEX
 8
MIRA
 10
0.533
 20
0.0268
 30
2.3783
 70
192
 0
VERTEX
 8
MIRA
 10
0.533
 20
0.0268
 30
2.3783
 70
192
 0
VERTEX
 8
MIRA
 10
0.533
 20
0.0228
 30
2.3713
 70
192
 0
VERTEX
 8
MIRA
 10
0.533
 20
0.0228
 30
2.3713
 70
192
 0
VERTEX
 8
MIRA
 10
0.4902
 20
0.0228
 30
2.3713
 70
192
 0
VERTEX
 8
MIRA
 10
0.4902
 20
0.0156
 30
2.3746
 70
192
 0
VERTEX
 8
MIRA
 10
0.4902
 20
0.0184
 30
2.3823
 70
192
 0
VERTEX
 8
MIRA
 10
0.4902
 20
0.0184
 30
2.3823
 70
192
 0
VERTEX
 8
MIRA
 10
0.533
 20
0.0184
 30
2.3823
 70
192
 0
VERTEX
 8
MIRA
 10
0.533
 20
0.0184
 30
2.3823
 70
192
 0
VERTEX
 8
MIRA
 10
0.533
 20
0.0156
 30
2.3746
 70
192
 0
VERTEX
 8
MIRA
 10
0.533
 20
0.0156
 30
2.3746
 70
192
 0
VERTEX
 8
MIRA
 10
0.4902
 20
0.0156
 30
2.3746
 70
192
 0
VERTEX
 8
MIRA
 10
0.4902
 20
0.008
 30
2.3767
 70
192
 0
VERTEX
 8
MIRA
 10
0.4902
 20
0.0094
 30
2.3847
 70
192
 0
VERTEX
 8
MIRA
 10
0.4902
 20
0.0094
 30
2.3847
 70
192
 0
VERTEX
 8
MIRA
 10
0.533
 20
0.0094
 30
2.3847
 70
192
 0
VERTEX
 8
MIRA
 10
0.533
 20
0.0094
 30
2.3847
 70
192
 0
VERTEX
 8
MIRA
 10
0.533
 20
0.008
 30
2.3767
 70
192
 0
VERTEX
 8
MIRA
 10
0.533
 20
0.008
 30
2.3767
 70
192
 0
VERTEX
 8
MIRA
 10
0.4902
 20
0.008
 30
2.3767
 70
192
 0
VERTEX
 8
MIRA
 10
0.4902
 20
0.0002
 30
2.3774
 70
192
 0
VERTEX
 8
MIRA
 10
0.4902
 20
0.0002
 30
2.3855
 70
192
 0
VERTEX
 8
MIRA
 10
0.4902
 20
0.0002
 30
2.3855
 70
192
 0
VERTEX
 8
MIRA
 10
0.533
 20
0.0002
 30
2.3855
 70
192
 0
VERTEX
 8
MIRA
 10
0.533
 20
0.0002
 30
2.3855
 70
192
 0
VERTEX
 8
MIRA
 10
0.533
 20
0.0002
 30
2.3774
 70
192
 0
VERTEX
 8
MIRA
 10
0.533
 20
0.0002
 30
2.3774
 70
192
 0
VERTEX
 8
MIRA
 10
0.4902
 20
0.0002
 30
2.3774
 70
192
 0
VERTEX
 8
MIRA
 10
0.4902
 20
-0.0077
 30
2.3767
 70
192
 0
VERTEX
 8
MIRA
 10
0.4902
 20
-0.0091
 30
2.3847
 70
192
 0
VERTEX
 8
MIRA
 10
0.4902
 20
-0.0091
 30
2.3847
 70
192
 0
VERTEX
 8
MIRA
 10
0.533
 20
-0.0091
 30
2.3847
 70
192
 0
VERTEX
 8
MIRA
 10
0.533
 20
-0.0091
 30
2.3847
 70
192
 0
VERTEX
 8
MIRA
 10
0.533
 20
-0.0077
 30
2.3767
 70
192
 0
VERTEX
 8
MIRA
 10
0.533
 20
-0.0077
 30
2.3767
 70
192
 0
VERTEX
 8
MIRA
 10
0.4902
 20
-0.0077
 30
2.3767
 70
192
 0
VERTEX
 8
MIRA
 10
0.4902
 20
-0.0153
 30
2.3746
 70
192
 0
VERTEX
 8
MIRA
 10
0.4902
 20
-0.0181
 30
2.3823
 70
192
 0
VERTEX
 8
MIRA
 10
0.4902
 20
-0.0181
 30
2.3823
 70
192
 0
VERTEX
 8
MIRA
 10
0.533
 20
-0.0181
 30
2.3823
 70
192
 0
VERTEX
 8
MIRA
 10
0.533
 20
-0.0181
 30
2.3823
 70
192
 0
VERTEX
 8
MIRA
 10
0.533
 20
-0.0153
 30
2.3746
 70
192
 0
VERTEX
 8
MIRA
 10
0.533
 20
-0.0153
 30
2.3746
 70
192
 0
VERTEX
 8
MIRA
 10
0.4902
 20
-0.0153
 30
2.3746
 70
192
 0
VERTEX
 8
MIRA
 10
0.4902
 20
-0.0225
 30
2.3713
 70
192
 0
VERTEX
 8
MIRA
 10
0.4902
 20
-0.0265
 30
2.3783
 70
192
 0
VERTEX
 8
MIRA
 10
0.4902
 20
-0.0265
 30
2.3783
 70
192
 0
VERTEX
 8
MIRA
 10
0.533
 20
-0.0265
 30
2.3783
 70
192
 0
VERTEX
 8
MIRA
 10
0.533
 20
-0.0265
 30
2.3783
 70
192
 0
VERTEX
 8
MIRA
 10
0.533
 20
-0.0225
 30
2.3713
 70
192
 0
VERTEX
 8
MIRA
 10
0.533
 20
-0.0225
 30
2.3713
 70
192
 0
VERTEX
 8
MIRA
 10
0.4902
 20
-0.0225
 30
2.3713
 70
192
 0
VERTEX
 8
MIRA
 10
0.4902
 20
-0.029
 30
2.3668
 70
192
 0
VERTEX
 8
MIRA
 10
0.4902
 20
-0.0342
 30
2.373
 70
192
 0
VERTEX
 8
MIRA
 10
0.4902
 20
-0.0342
 30
2.373
 70
192
 0
VERTEX
 8
MIRA
 10
0.533
 20
-0.0342
 30
2.373
 70
192
 0
VERTEX
 8
MIRA
 10
0.533
 20
-0.0342
 30
2.373
 70
192
 0
VERTEX
 8
MIRA
 10
0.533
 20
-0.029
 30
2.3668
 70
192
 0
VERTEX
 8
MIRA
 10
0.533
 20
-0.029
 30
2.3668
 70
192
 0
VERTEX
 8
MIRA
 10
0.4902
 20
-0.029
 30
2.3668
 70
192
 0
VERTEX
 8
MIRA
 10
0.4902
 20
-0.0345
 30
2.3612
 70
192
 0
VERTEX
 8
MIRA
 10
0.4902
 20
-0.0408
 30
2.3664
 70
192
 0
VERTEX
 8
MIRA
 10
0.4902
 20
-0.0408
 30
2.3664
 70
192
 0
VERTEX
 8
MIRA
 10
0.533
 20
-0.0408
 30
2.3664
 70
192
 0
VERTEX
 8
MIRA
 10
0.533
 20
-0.0408
 30
2.3664
 70
192
 0
VERTEX
 8
MIRA
 10
0.533
 20
-0.0345
 30
2.3612
 70
192
 0
VERTEX
 8
MIRA
 10
0.533
 20
-0.0345
 30
2.3612
 70
192
 0
VERTEX
 8
MIRA
 10
0.4902
 20
-0.0345
 30
2.3612
 70
192
 0
VERTEX
 8
MIRA
 10
0.4902
 20
-0.0391
 30
2.3547
 70
192
 0
VERTEX
 8
MIRA
 10
0.4902
 20
-0.0461
 30
2.3588
 70
192
 0
VERTEX
 8
MIRA
 10
0.4902
 20
-0.0461
 30
2.3588
 70
192
 0
VERTEX
 8
MIRA
 10
0.533
 20
-0.0461
 30
2.3588
 70
192
 0
VERTEX
 8
MIRA
 10
0.533
 20
-0.0461
 30
2.3588
 70
192
 0
VERTEX
 8
MIRA
 10
0.533
 20
-0.0391
 30
2.3547
 70
192
 0
VERTEX
 8
MIRA
 10
0.533
 20
-0.0391
 30
2.3547
 70
192
 0
VERTEX
 8
MIRA
 10
0.4902
 20
-0.0391
 30
2.3547
 70
192
 0
VERTEX
 8
MIRA
 10
0.4902
 20
-0.0424
 30
2.3476
 70
192
 0
VERTEX
 8
MIRA
 10
0.4902
 20
-0.05
 30
2.3503
 70
192
 0
VERTEX
 8
MIRA
 10
0.4902
 20
-0.05
 30
2.3503
 70
192
 0
VERTEX
 8
MIRA
 10
0.533
 20
-0.05
 30
2.3503
 70
192
 0
VERTEX
 8
MIRA
 10
0.533
 20
-0.05
 30
2.3503
 70
192
 0
VERTEX
 8
MIRA
 10
0.533
 20
-0.0424
 30
2.3476
 70
192
 0
VERTEX
 8
MIRA
 10
0.533
 20
-0.0424
 30
2.3476
 70
192
 0
VERTEX
 8
MIRA
 10
0.4902
 20
-0.0424
 30
2.3476
 70
192
 0
VERTEX
 8
MIRA
 10
0.4902
 20
-0.0444
 30
2.3399
 70
192
 0
VERTEX
 8
MIRA
 10
0.4902
 20
-0.0524
 30
2.3413
 70
192
 0
VERTEX
 8
MIRA
 10
0.4902
 20
-0.0524
 30
2.3413
 70
192
 0
VERTEX
 8
MIRA
 10
0.533
 20
-0.0524
 30
2.3413
 70
192
 0
VERTEX
 8
MIRA
 10
0.533
 20
-0.0524
 30
2.3413
 70
192
 0
VERTEX
 8
MIRA
 10
0.533
 20
-0.0444
 30
2.3399
 70
192
 0
VERTEX
 8
MIRA
 10
0.533
 20
-0.0444
 30
2.3399
 70
192
 0
VERTEX
 8
MIRA
 10
0.4902
 20
-0.0444
 30
2.3399
 70
192
 0
VERTEX
 8
MIRA
 10
0.4902
 20
-0.0451
 30
2.3321
 70
192
 0
VERTEX
 8
MIRA
 10
0.4902
 20
-0.0532
 30
2.3321
 70
192
 0
VERTEX
 8
MIRA
 10
0.4902
 20
-0.0532
 30
2.3321
 70
192
 0
VERTEX
 8
MIRA
 10
0.533
 20
-0.0532
 30
2.3321
 70
192
 0
VERTEX
 8
MIRA
 10
0.533
 20
-0.0532
 30
2.3321
 70
192
 0
VERTEX
 8
MIRA
 10
0.533
 20
-0.0451
 30
2.3321
 70
192
 0
VERTEX
 8
MIRA
 10
0.533
 20
-0.0451
 30
2.3321
 70
192
 0
VERTEX
 8
MIRA
 10
0.4902
 20
-0.0451
 30
2.3321
 70
192
 0
VERTEX
 8
MIRA
 10
0.4902
 20
-0.0444
 30
2.3242
 70
192
 0
VERTEX
 8
MIRA
 10
0.4902
 20
-0.0524
 30
2.3228
 70
192
 0
VERTEX
 8
MIRA
 10
0.4902
 20
-0.0524
 30
2.3228
 70
192
 0
VERTEX
 8
MIRA
 10
0.533
 20
-0.0524
 30
2.3228
 70
192
 0
VERTEX
 8
MIRA
 10
0.533
 20
-0.0524
 30
2.3228
 70
192
 0
VERTEX
 8
MIRA
 10
0.533
 20
-0.0444
 30
2.3242
 70
192
 0
VERTEX
 8
MIRA
 10
0.533
 20
-0.0444
 30
2.3242
 70
192
 0
VERTEX
 8
MIRA
 10
0.4902
 20
-0.0444
 30
2.3242
 70
192
 0
VERTEX
 8
MIRA
 10
0.4902
 20
-0.0424
 30
2.3166
 70
192
 0
VERTEX
 8
MIRA
 10
0.4902
 20
-0.05
 30
2.3138
 70
192
 0
VERTEX
 8
MIRA
 10
0.4902
 20
-0.05
 30
2.3138
 70
192
 0
VERTEX
 8
MIRA
 10
0.533
 20
-0.05
 30
2.3138
 70
192
 0
VERTEX
 8
MIRA
 10
0.533
 20
-0.05
 30
2.3138
 70
192
 0
VERTEX
 8
MIRA
 10
0.533
 20
-0.0424
 30
2.3166
 70
192
 0
VERTEX
 8
MIRA
 10
0.533
 20
-0.0424
 30
2.3166
 70
192
 0
VERTEX
 8
MIRA
 10
0.4902
 20
-0.0424
 30
2.3166
 70
192
 0
VERTEX
 8
MIRA
 10
0.4902
 20
-0.0391
 30
2.3094
 70
192
 0
VERTEX
 8
MIRA
 10
0.4902
 20
-0.0461
 30
2.3054
 70
192
 0
VERTEX
 8
MIRA
 10
0.4902
 20
-0.0461
 30
2.3054
 70
192
 0
VERTEX
 8
MIRA
 10
0.533
 20
-0.0461
 30
2.3054
 70
192
 0
VERTEX
 8
MIRA
 10
0.533
 20
-0.0461
 30
2.3054
 70
192
 0
VERTEX
 8
MIRA
 10
0.533
 20
-0.0391
 30
2.3094
 70
192
 0
VERTEX
 8
MIRA
 10
0.533
 20
-0.0391
 30
2.3094
 70
192
 0
VERTEX
 8
MIRA
 10
0.4902
 20
-0.0391
 30
2.3094
 70
192
 0
VERTEX
 8
MIRA
 10
0.4902
 20
-0.0345
 30
2.303
 70
192
 0
VERTEX
 8
MIRA
 10
0.4902
 20
-0.0408
 30
2.2978
 70
192
 0
VERTEX
 8
MIRA
 10
0.4902
 20
-0.0408
 30
2.2978
 70
192
 0
VERTEX
 8
MIRA
 10
0.533
 20
-0.0408
 30
2.2978
 70
192
 0
VERTEX
 8
MIRA
 10
0.533
 20
-0.0408
 30
2.2978
 70
192
 0
VERTEX
 8
MIRA
 10
0.533
 20
-0.0345
 30
2.303
 70
192
 0
VERTEX
 8
MIRA
 10
0.533
 20
-0.0345
 30
2.303
 70
192
 0
VERTEX
 8
MIRA
 10
0.4902
 20
-0.0345
 30
2.303
 70
192
 0
VERTEX
 8
MIRA
 10
0.4902
 20
-0.029
 30
2.2974
 70
192
 0
VERTEX
 8
MIRA
 10
0.4902
 20
-0.0342
 30
2.2912
 70
192
 0
VERTEX
 8
MIRA
 10
0.4902
 20
-0.0342
 30
2.2912
 70
192
 0
VERTEX
 8
MIRA
 10
0.533
 20
-0.0342
 30
2.2912
 70
192
 0
VERTEX
 8
MIRA
 10
0.533
 20
-0.0342
 30
2.2912
 70
192
 0
VERTEX
 8
MIRA
 10
0.533
 20
-0.029
 30
2.2974
 70
192
 0
VERTEX
 8
MIRA
 10
0.533
 20
-0.029
 30
2.2974
 70
192
 0
VERTEX
 8
MIRA
 10
0.4902
 20
-0.029
 30
2.2974
 70
192
 0
VERTEX
 8
MIRA
 10
0.4902
 20
-0.0225
 30
2.2929
 70
192
 0
VERTEX
 8
MIRA
 10
0.4902
 20
-0.0265
 30
2.2858
 70
192
 0
VERTEX
 8
MIRA
 10
0.4902
 20
-0.0265
 30
2.2858
 70
192
 0
VERTEX
 8
MIRA
 10
0.533
 20
-0.0265
 30
2.2858
 70
192
 0
VERTEX
 8
MIRA
 10
0.533
 20
-0.0265
 30
2.2858
 70
192
 0
VERTEX
 8
MIRA
 10
0.533
 20
-0.0225
 30
2.2929
 70
192
 0
VERTEX
 8
MIRA
 10
0.533
 20
-0.0225
 30
2.2929
 70
192
 0
VERTEX
 8
MIRA
 10
0.4902
 20
-0.0225
 30
2.2929
 70
192
 0
VERTEX
 8
MIRA
 10
0.4902
 20
-0.0153
 30
2.2895
 70
192
 0
VERTEX
 8
MIRA
 10
0.4902
 20
-0.0181
 30
2.2819
 70
192
 0
VERTEX
 8
MIRA
 10
0.4902
 20
-0.0181
 30
2.2819
 70
192
 0
VERTEX
 8
MIRA
 10
0.533
 20
-0.0181
 30
2.2819
 70
192
 0
VERTEX
 8
MIRA
 10
0.533
 20
-0.0181
 30
2.2819
 70
192
 0
VERTEX
 8
MIRA
 10
0.533
 20
-0.0153
 30
2.2895
 70
192
 0
VERTEX
 8
MIRA
 10
0.533
 20
-0.0153
 30
2.2895
 70
192
 0
VERTEX
 8
MIRA
 10
0.4902
 20
-0.0153
 30
2.2895
 70
192
 0
VERTEX
 8
MIRA
 10
0.4902
 20
-0.0077
 30
2.2875
 70
192
 0
VERTEX
 8
MIRA
 10
0.4902
 20
-0.0091
 30
2.2795
 70
192
 0
VERTEX
 8
MIRA
 10
0.4902
 20
-0.0091
 30
2.2795
 70
192
 0
VERTEX
 8
MIRA
 10
0.533
 20
-0.0091
 30
2.2795
 70
192
 0
VERTEX
 8
MIRA
 10
0.533
 20
-0.0091
 30
2.2795
 70
192
 0
VERTEX
 8
MIRA
 10
0.533
 20
-0.0077
 30
2.2875
 70
192
 0
VERTEX
 8
MIRA
 10
0.533
 20
-0.0077
 30
2.2875
 70
192
 0
VERTEX
 8
MIRA
 10
0.4902
 20
-0.0077
 30
2.2875
 70
192
 0
VERTEX
 8
MIRA
 10
0.4882
 20
-0.0376
 30
2.2681
 70
192
 0
VERTEX
 8
MIRA
 10
0.4882
 20
-0.0376
 30
2.2948
 70
192
 0
VERTEX
 8
MIRA
 10
0.7166
 20
-0.0376
 30
2.2681
 70
192
 0
VERTEX
 8
MIRA
 10
0.7166
 20
-0.0376
 30
2.2948
 70
192
 0
VERTEX
 8
MIRA
 10
0.7166
 20
0.0376
 30
2.2681
 70
192
 0
VERTEX
 8
MIRA
 10
0.7166
 20
0.0376
 30
2.2948
 70
192
 0
VERTEX
 8
MIRA
 10
0.4882
 20
0.0376
 30
2.2681
 70
192
 0
VERTEX
 8
MIRA
 10
0.4882
 20
0.0376
 30
2.2948
 70
192
 0
VERTEX
 8
MIRA
 10
0
 20
0
 30
0
 70
128
 71
1
 72
2
 73
10
 74
9
 0
VERTEX
 8
MIRA
 10
0
 20
0
 30
0
 70
128
 71
3
 72
4
 73
12
 74
11
 0
VERTEX
 8
MIRA
 10
0
 20
0
 30
0
 70
128
 71
5
 72
6
 73
14
 74
13
 0
VERTEX
 8
MIRA
 10
0
 20
0
 30
0
 70
128
 71
7
 72
8
 73
16
 74
15
 0
VERTEX
 8
MIRA
 10
0
 20
0
 30
0
 70
128
 71
9
 72
10
 73
18
 74
17
 0
VERTEX
 8
MIRA
 10
0
 20
0
 30
0
 70
128
 71
11
 72
12
 73
20
 74
19
 0
VERTEX
 8
MIRA
 10
0
 20
0
 30
0
 70
128
 71
13
 72
14
 73
22
 74
21
 0
VERTEX
 8
MIRA
 10
0
 20
0
 30
0
 70
128
 71
15
 72
16
 73
24
 74
23
 0
VERTEX
 8
MIRA
 10
0
 20
0
 30
0
 70
128
 71
17
 72
18
 73
26
 74
25
 0
VERTEX
 8
MIRA
 10
0
 20
0
 30
0
 70
128
 71
19
 72
20
 73
28
 74
27
 0
VERTEX
 8
MIRA
 10
0
 20
0
 30
0
 70
128
 71
21
 72
22
 73
30
 74
29
 0
VERTEX
 8
MIRA
 10
0
 20
0
 30
0
 70
128
 71
23
 72
24
 73
32
 74
31
 0
VERTEX
 8
MIRA
 10
0
 20
0
 30
0
 70
128
 71
25
 72
26
 73
34
 74
33
 0
VERTEX
 8
MIRA
 10
0
 20
0
 30
0
 70
128
 71
27
 72
28
 73
36
 74
35
 0
VERTEX
 8
MIRA
 10
0
 20
0
 30
0
 70
128
 71
29
 72
30
 73
38
 74
37
 0
VERTEX
 8
MIRA
 10
0
 20
0
 30
0
 70
128
 71
31
 72
32
 73
40
 74
39
 0
VERTEX
 8
MIRA
 10
0
 20
0
 30
0
 70
128
 71
33
 72
34
 73
42
 74
41
 0
VERTEX
 8
MIRA
 10
0
 20
0
 30
0
 70
128
 71
35
 72
36
 73
44
 74
43
 0
VERTEX
 8
MIRA
 10
0
 20
0
 30
0
 70
128
 71
37
 72
38
 73
46
 74
45
 0
VERTEX
 8
MIRA
 10
0
 20
0
 30
0
 70
128
 71
39
 72
40
 73
48
 74
47
 0
VERTEX
 8
MIRA
 10
0
 20
0
 30
0
 70
128
 71
41
 72
42
 73
50
 74
49
 0
VERTEX
 8
MIRA
 10
0
 20
0
 30
0
 70
128
 71
43
 72
44
 73
52
 74
51
 0
VERTEX
 8
MIRA
 10
0
 20
0
 30
0
 70
128
 71
45
 72
46
 73
54
 74
53
 0
VERTEX
 8
MIRA
 10
0
 20
0
 30
0
 70
128
 71
47
 72
48
 73
56
 74
55
 0
VERTEX
 8
MIRA
 10
0
 20
0
 30
0
 70
128
 71
49
 72
50
 73
58
 74
57
 0
VERTEX
 8
MIRA
 10
0
 20
0
 30
0
 70
128
 71
51
 72
52
 73
60
 74
59
 0
VERTEX
 8
MIRA
 10
0
 20
0
 30
0
 70
128
 71
53
 72
54
 73
62
 74
61
 0
VERTEX
 8
MIRA
 10
0
 20
0
 30
0
 70
128
 71
55
 72
56
 73
64
 74
63
 0
VERTEX
 8
MIRA
 10
0
 20
0
 30
0
 70
128
 71
57
 72
58
 73
66
 74
65
 0
VERTEX
 8
MIRA
 10
0
 20
0
 30
0
 70
128
 71
59
 72
60
 73
68
 74
67
 0
VERTEX
 8
MIRA
 10
0
 20
0
 30
0
 70
128
 71
61
 72
62
 73
70
 74
69
 0
VERTEX
 8
MIRA
 10
0
 20
0
 30
0
 70
128
 71
63
 72
64
 73
72
 74
71
 0
VERTEX
 8
MIRA
 10
0
 20
0
 30
0
 70
128
 71
65
 72
66
 73
74
 74
73
 0
VERTEX
 8
MIRA
 10
0
 20
0
 30
0
 70
128
 71
67
 72
68
 73
76
 74
75
 0
VERTEX
 8
MIRA
 10
0
 20
0
 30
0
 70
128
 71
69
 72
70
 73
78
 74
77
 0
VERTEX
 8
MIRA
 10
0
 20
0
 30
0
 70
128
 71
71
 72
72
 73
80
 74
79
 0
VERTEX
 8
MIRA
 10
0
 20
0
 30
0
 70
128
 71
73
 72
74
 73
82
 74
81
 0
VERTEX
 8
MIRA
 10
0
 20
0
 30
0
 70
128
 71
75
 72
76
 73
84
 74
83
 0
VERTEX
 8
MIRA
 10
0
 20
0
 30
0
 70
128
 71
77
 72
78
 73
86
 74
85
 0
VERTEX
 8
MIRA
 10
0
 20
0
 30
0
 70
128
 71
79
 72
80
 73
88
 74
87
 0
VERTEX
 8
MIRA
 10
0
 20
0
 30
0
 70
128
 71
81
 72
82
 73
90
 74
89
 0
VERTEX
 8
MIRA
 10
0
 20
0
 30
0
 70
128
 71
83
 72
84
 73
92
 74
91
 0
VERTEX
 8
MIRA
 10
0
 20
0
 30
0
 70
128
 71
85
 72
86
 73
94
 74
93
 0
VERTEX
 8
MIRA
 10
0
 20
0
 30
0
 70
128
 71
87
 72
88
 73
96
 74
95
 0
VERTEX
 8
MIRA
 10
0
 20
0
 30
0
 70
128
 71
89
 72
90
 73
98
 74
97
 0
VERTEX
 8
MIRA
 10
0
 20
0
 30
0
 70
128
 71
91
 72
92
 73
100
 74
99
 0
VERTEX
 8
MIRA
 10
0
 20
0
 30
0
 70
128
 71
93
 72
94
 73
102
 74
101
 0
VERTEX
 8
MIRA
 10
0
 20
0
 30
0
 70
128
 71
95
 72
96
 73
104
 74
103
 0
VERTEX
 8
MIRA
 10
0
 20
0
 30
0
 70
128
 71
97
 72
98
 73
106
 74
105
 0
VERTEX
 8
MIRA
 10
0
 20
0
 30
0
 70
128
 71
99
 72
100
 73
108
 74
107
 0
VERTEX
 8
MIRA
 10
0
 20
0
 30
0
 70
128
 71
101
 72
102
 73
110
 74
109
 0
VERTEX
 8
MIRA
 10
0
 20
0
 30
0
 70
128
 71
103
 72
104
 73
112
 74
111
 0
VERTEX
 8
MIRA
 10
0
 20
0
 30
0
 70
128
 71
105
 72
106
 73
114
 74
113
 0
VERTEX
 8
MIRA
 10
0
 20
0
 30
0
 70
128
 71
107
 72
108
 73
116
 74
115
 0
VERTEX
 8
MIRA
 10
0
 20
0
 30
0
 70
128
 71
109
 72
110
 73
118
 74
117
 0
VERTEX
 8
MIRA
 10
0
 20
0
 30
0
 70
128
 71
111
 72
112
 73
120
 74
119
 0
VERTEX
 8
MIRA
 10
0
 20
0
 30
0
 70
128
 71
113
 72
114
 73
122
 74
121
 0
VERTEX
 8
MIRA
 10
0
 20
0
 30
0
 70
128
 71
115
 72
116
 73
124
 74
123
 0
VERTEX
 8
MIRA
 10
0
 20
0
 30
0
 70
128
 71
117
 72
118
 73
126
 74
125
 0
VERTEX
 8
MIRA
 10
0
 20
0
 30
0
 70
128
 71
119
 72
120
 73
128
 74
127
 0
VERTEX
 8
MIRA
 10
0
 20
0
 30
0
 70
128
 71
121
 72
122
 73
130
 74
129
 0
VERTEX
 8
MIRA
 10
0
 20
0
 30
0
 70
128
 71
123
 72
124
 73
132
 74
131
 0
VERTEX
 8
MIRA
 10
0
 20
0
 30
0
 70
128
 71
125
 72
126
 73
134
 74
133
 0
VERTEX
 8
MIRA
 10
0
 20
0
 30
0
 70
128
 71
127
 72
128
 73
136
 74
135
 0
VERTEX
 8
MIRA
 10
0
 20
0
 30
0
 70
128
 71
129
 72
130
 73
138
 74
137
 0
VERTEX
 8
MIRA
 10
0
 20
0
 30
0
 70
128
 71
131
 72
132
 73
140
 74
139
 0
VERTEX
 8
MIRA
 10
0
 20
0
 30
0
 70
128
 71
133
 72
134
 73
142
 74
141
 0
VERTEX
 8
MIRA
 10
0
 20
0
 30
0
 70
128
 71
135
 72
136
 73
144
 74
143
 0
VERTEX
 8
MIRA
 10
0
 20
0
 30
0
 70
128
 71
137
 72
138
 73
146
 74
145
 0
VERTEX
 8
MIRA
 10
0
 20
0
 30
0
 70
128
 71
139
 72
140
 73
148
 74
147
 0
VERTEX
 8
MIRA
 10
0
 20
0
 30
0
 70
128
 71
141
 72
142
 73
150
 74
149
 0
VERTEX
 8
MIRA
 10
0
 20
0
 30
0
 70
128
 71
143
 72
144
 73
152
 74
151
 0
VERTEX
 8
MIRA
 10
0
 20
0
 30
0
 70
128
 71
145
 72
146
 73
154
 74
153
 0
VERTEX
 8
MIRA
 10
0
 20
0
 30
0
 70
128
 71
147
 72
148
 73
156
 74
155
 0
VERTEX
 8
MIRA
 10
0
 20
0
 30
0
 70
128
 71
149
 72
150
 73
158
 74
157
 0
VERTEX
 8
MIRA
 10
0
 20
0
 30
0
 70
128
 71
151
 72
152
 73
160
 74
159
 0
VERTEX
 8
MIRA
 10
0
 20
0
 30
0
 70
128
 71
153
 72
154
 73
162
 74
161
 0
VERTEX
 8
MIRA
 10
0
 20
0
 30
0
 70
128
 71
155
 72
156
 73
164
 74
163
 0
VERTEX
 8
MIRA
 10
0
 20
0
 30
0
 70
128
 71
157
 72
158
 73
166
 74
165
 0
VERTEX
 8
MIRA
 10
0
 20
0
 30
0
 70
128
 71
159
 72
160
 73
168
 74
167
 0
VERTEX
 8
MIRA
 10
0
 20
0
 30
0
 70
128
 71
161
 72
162
 73
170
 74
169
 0
VERTEX
 8
MIRA
 10
0
 20
0
 30
0
 70
128
 71
163
 72
164
 73
172
 74
171
 0
VERTEX
 8
MIRA
 10
0
 20
0
 30
0
 70
128
 71
165
 72
166
 73
174
 74
173
 0
VERTEX
 8
MIRA
 10
0
 20
0
 30
0
 70
128
 71
167
 72
168
 73
176
 74
175
 0
VERTEX
 8
MIRA
 10
0
 20
0
 30
0
 70
128
 71
169
 72
170
 73
178
 74
177
 0
VERTEX
 8
MIRA
 10
0
 20
0
 30
0
 70
128
 71
171
 72
172
 73
180
 74
179
 0
VERTEX
 8
MIRA
 10
0
 20
0
 30
0
 70
128
 71
173
 72
174
 73
182
 74
181
 0
VERTEX
 8
MIRA
 10
0
 20
0
 30
0
 70
128
 71
175
 72
176
 73
184
 74
183
 0
VERTEX
 8
MIRA
 10
0
 20
0
 30
0
 70
128
 71
177
 72
178
 73
186
 74
185
 0
VERTEX
 8
MIRA
 10
0
 20
0
 30
0
 70
128
 71
179
 72
180
 73
188
 74
187
 0
VERTEX
 8
MIRA
 10
0
 20
0
 30
0
 70
128
 71
181
 72
182
 73
190
 74
189
 0
VERTEX
 8
MIRA
 10
0
 20
0
 30
0
 70
128
 71
183
 72
184
 73
192
 74
191
 0
VERTEX
 8
MIRA
 10
0
 20
0
 30
0
 70
128
 71
185
 72
186
 73
194
 74
193
 0
VERTEX
 8
MIRA
 10
0
 20
0
 30
0
 70
128
 71
187
 72
188
 73
196
 74
195
 0
VERTEX
 8
MIRA
 10
0
 20
0
 30
0
 70
128
 71
189
 72
190
 73
198
 74
197
 0
VERTEX
 8
MIRA
 10
0
 20
0
 30
0
 70
128
 71
191
 72
192
 73
200
 74
199
 0
VERTEX
 8
MIRA
 10
0
 20
0
 30
0
 70
128
 71
193
 72
194
 73
202
 74
201
 0
VERTEX
 8
MIRA
 10
0
 20
0
 30
0
 70
128
 71
195
 72
196
 73
204
 74
203
 0
VERTEX
 8
MIRA
 10
0
 20
0
 30
0
 70
128
 71
197
 72
198
 73
206
 74
205
 0
VERTEX
 8
MIRA
 10
0
 20
0
 30
0
 70
128
 71
199
 72
200
 73
208
 74
207
 0
VERTEX
 8
MIRA
 10
0
 20
0
 30
0
 70
128
 71
201
 72
202
 73
210
 74
209
 0
VERTEX
 8
MIRA
 10
0
 20
0
 30
0
 70
128
 71
203
 72
204
 73
212
 74
211
 0
VERTEX
 8
MIRA
 10
0
 20
0
 30
0
 70
128
 71
205
 72
206
 73
214
 74
213
 0
VERTEX
 8
MIRA
 10
0
 20
0
 30
0
 70
128
 71
207
 72
208
 73
216
 74
215
 0
VERTEX
 8
MIRA
 10
0
 20
0
 30
0
 70
128
 71
209
 72
210
 73
218
 74
217
 0
VERTEX
 8
MIRA
 10
0
 20
0
 30
0
 70
128
 71
211
 72
212
 73
220
 74
219
 0
VERTEX
 8
MIRA
 10
0
 20
0
 30
0
 70
128
 71
213
 72
214
 73
222
 74
221
 0
VERTEX
 8
MIRA
 10
0
 20
0
 30
0
 70
128
 71
215
 72
216
 73
224
 74
223
 0
VERTEX
 8
MIRA
 10
0
 20
0
 30
0
 70
128
 71
217
 72
218
 73
226
 74
225
 0
VERTEX
 8
MIRA
 10
0
 20
0
 30
0
 70
128
 71
219
 72
220
 73
228
 74
227
 0
VERTEX
 8
MIRA
 10
0
 20
0
 30
0
 70
128
 71
221
 72
222
 73
230
 74
229
 0
VERTEX
 8
MIRA
 10
0
 20
0
 30
0
 70
128
 71
223
 72
224
 73
232
 74
231
 0
VERTEX
 8
MIRA
 10
0
 20
0
 30
0
 70
128
 71
225
 72
226
 73
234
 74
233
 0
VERTEX
 8
MIRA
 10
0
 20
0
 30
0
 70
128
 71
227
 72
228
 73
236
 74
235
 0
VERTEX
 8
MIRA
 10
0
 20
0
 30
0
 70
128
 71
229
 72
230
 73
238
 74
237
 0
VERTEX
 8
MIRA
 10
0
 20
0
 30
0
 70
128
 71
231
 72
232
 73
240
 74
239
 0
VERTEX
 8
MIRA
 10
0
 20
0
 30
0
 70
128
 71
233
 72
234
 73
242
 74
241
 0
VERTEX
 8
MIRA
 10
0
 20
0
 30
0
 70
128
 71
235
 72
236
 73
244
 74
243
 0
VERTEX
 8
MIRA
 10
0
 20
0
 30
0
 70
128
 71
237
 72
238
 73
246
 74
245
 0
VERTEX
 8
MIRA
 10
0
 20
0
 30
0
 70
128
 71
239
 72
240
 73
248
 74
247
 0
VERTEX
 8
MIRA
 10
0
 20
0
 30
0
 70
128
 71
241
 72
242
 73
250
 74
249
 0
VERTEX
 8
MIRA
 10
0
 20
0
 30
0
 70
128
 71
243
 72
244
 73
252
 74
251
 0
VERTEX
 8
MIRA
 10
0
 20
0
 30
0
 70
128
 71
245
 72
246
 73
254
 74
253
 0
VERTEX
 8
MIRA
 10
0
 20
0
 30
0
 70
128
 71
247
 72
248
 73
256
 74
255
 0
VERTEX
 8
MIRA
 10
0
 20
0
 30
0
 70
128
 71
249
 72
250
 73
258
 74
257
 0
VERTEX
 8
MIRA
 10
0
 20
0
 30
0
 70
128
 71
251
 72
252
 73
260
 74
259
 0
VERTEX
 8
MIRA
 10
0
 20
0
 30
0
 70
128
 71
253
 72
254
 73
262
 74
261
 0
VERTEX
 8
MIRA
 10
0
 20
0
 30
0
 70
128
 71
255
 72
256
 73
264
 74
263
 0
VERTEX
 8
MIRA
 10
0
 20
0
 30
0
 70
128
 71
257
 72
258
 73
266
 74
265
 0
VERTEX
 8
MIRA
 10
0
 20
0
 30
0
 70
128
 71
259
 72
260
 73
268
 74
267
 0
VERTEX
 8
MIRA
 10
0
 20
0
 30
0
 70
128
 71
261
 72
262
 73
270
 74
269
 0
VERTEX
 8
MIRA
 10
0
 20
0
 30
0
 70
128
 71
263
 72
264
 73
272
 74
271
 0
VERTEX
 8
MIRA
 10
0
 20
0
 30
0
 70
128
 71
265
 72
266
 73
274
 74
273
 0
VERTEX
 8
MIRA
 10
0
 20
0
 30
0
 70
128
 71
267
 72
268
 73
276
 74
275
 0
VERTEX
 8
MIRA
 10
0
 20
0
 30
0
 70
128
 71
269
 72
270
 73
278
 74
277
 0
VERTEX
 8
MIRA
 10
0
 20
0
 30
0
 70
128
 71
271
 72
272
 73
280
 74
279
 0
VERTEX
 8
MIRA
 10
0
 20
0
 30
0
 70
128
 71
273
 72
274
 73
282
 74
281
 0
VERTEX
 8
MIRA
 10
0
 20
0
 30
0
 70
128
 71
275
 72
276
 73
284
 74
283
 0
VERTEX
 8
MIRA
 10
0
 20
0
 30
0
 70
128
 71
277
 72
278
 73
286
 74
285
 0
VERTEX
 8
MIRA
 10
0
 20
0
 30
0
 70
128
 71
279
 72
280
 73
288
 74
287
 0
VERTEX
 8
MIRA
 10
0
 20
0
 30
0
 70
128
 71
281
 72
282
 73
2
 74
1
 0
VERTEX
 8
MIRA
 10
0
 20
0
 30
0
 70
128
 71
283
 72
284
 73
4
 74
3
 0
VERTEX
 8
MIRA
 10
0
 20
0
 30
0
 70
128
 71
285
 72
286
 73
6
 74
5
 0
VERTEX
 8
MIRA
 10
0
 20
0
 30
0
 70
128
 71
287
 72
288
 73
8
 74
7
 0
VERTEX
 8
MIRA
 10
0
 20
0
 30
0
 70
128
 71
289
 72
290
 73
292
 74
291
 0
VERTEX
 8
MIRA
 10
0
 20
0
 30
0
 70
128
 71
291
 72
292
 73
294
 74
293
 0
VERTEX
 8
MIRA
 10
0
 20
0
 30
0
 70
128
 71
293
 72
294
 73
296
 74
295
 0
VERTEX
 8
MIRA
 10
0
 20
0
 30
0
 70
128
 71
295
 72
296
 73
290
 74
289
 0
VERTEX
 8
MIRA
 10
0
 20
0
 30
0
 70
128
 71
290
 72
296
 73
294
 74
292
 0
VERTEX
 8
MIRA
 10
0
 20
0
 30
0
 70
128
 71
295
 72
289
 73
291
 74
293
 0
SEQEND
 0
POLYLINE
 8
CUBO_5
 66
1
 10
0.0
 20
0.0
 30
0.0
 70
64
 71
8
 72
6
 0
VERTEX
 8
CUBO_5
 10
0.4193
 20
0.0477
 30
2.1929
 70
192
 0
VERTEX
 8
CUBO_5
 10
0.4193
 20
0.0477
 30
2.2485
 70
192
 0
VERTEX
 8
CUBO_5
 10
0.6217
 20
0.0477
 30
2.1929
 70
192
 0
VERTEX
 8
CUBO_5
 10
0.6217
 20
0.0477
 30
2.2485
 70
192
 0
VERTEX
 8
CUBO_5
 10
0.6217
 20
0.0675
 30
2.1929
 70
192
 0
VERTEX
 8
CUBO_5
 10
0.6217
 20
0.0675
 30
2.2485
 70
192
 0
VERTEX
 8
CUBO_5
 10
0.4193
 20
0.0675
 30
2.1929
 70
192
 0
VERTEX
 8
CUBO_5
 10
0.4193
 20
0.0675
 30
2.2485
 70
192
 0
VERTEX
 8
CUBO_5
 10
0
 20
0
 30
0
 70
128
 71
1
 72
2
 73
4
 74
3
 0
VERTEX
 8
CUBO_5
 10
0
 20
0
 30
0
 70
128
 71
3
 72
4
 73
6
 74
5
 0
VERTEX
 8
CUBO_5
 10
0
 20
0
 30
0
 70
128
 71
5
 72
6
 73
8
 74
7
 0
VERTEX
 8
CUBO_5
 10
0
 20
0
 30
0
 70
128
 71
7
 72
8
 73
2
 74
1
 0
VERTEX
 8
CUBO_5
 10
0
 20
0
 30
0
 70
128
 71
2
 72
8
 73
6
 74
4
 0
VERTEX
 8
CUBO_5
 10
0
 20
0
 30
0
 70
128
 71
7
 72
1
 73
3
 74
5
 0
SEQEND
 0
POLYLINE
 8
GATILLO
 66
1
 10
0.0
 20
0.0
 30
0.0
 70
64
 71
8
 72
6
 0
VERTEX
 8
GATILLO
 10
0.3563
 20
-0.0128
 30
2.017
 70
192
 0
VERTEX
 8
GATILLO
 10
0.364
 20
-0.0128
 30
2.0859
 70
192
 0
VERTEX
 8
GATILLO
 10
0.3665
 20
-0.0128
 30
2.0158
 70
192
 0
VERTEX
 8
GATILLO
 10
0.3742
 20
-0.0128
 30
2.0848
 70
192
 0
VERTEX
 8
GATILLO
 10
0.3665
 20
0.0128
 30
2.0158
 70
192
 0
VERTEX
 8
GATILLO
 10
0.3742
 20
0.0128
 30
2.0848
 70
192
 0
VERTEX
 8
GATILLO
 10
0.3563
 20
0.0128
 30
2.017
 70
192
 0
VERTEX
 8
GATILLO
 10
0.364
 20
0.0128
 30
2.0859
 70
192
 0
VERTEX
 8
GATILLO
 10
0
 20
0
 30
0
 70
128
 71
1
 72
2
 73
4
 74
3
 0
VERTEX
 8
GATILLO
 10
0
 20
0
 30
0
 70
128
 71
3
 72
4
 73
6
 74
5
 0
VERTEX
 8
GATILLO
 10
0
 20
0
 30
0
 70
128
 71
5
 72
6
 73
8
 74
7
 0
VERTEX
 8
GATILLO
 10
0
 20
0
 30
0
 70
128
 71
7
 72
8
 73
2
 74
1
 0
VERTEX
 8
GATILLO
 10
0
 20
0
 30
0
 70
128
 71
2
 72
8
 73
6
 74
4
 0
VERTEX
 8
GATILLO
 10
0
 20
0
 30
0
 70
128
 71
7
 72
1
 73
3
 74
5
 0
SEQEND
 0
POLYLINE
 8
CUERPO
 66
1
 10
0.0
 20
0.0
 30
0.0
 70
64
 71
423
 72
259
 0
VERTEX
 8
CUERPO
 10
-0.1215
 20
-0.0299
 30
2.1243
 70
192
 0
VERTEX
 8
CUERPO
 10
0.1762
 20
-0.0299
 30
2.1243
 70
192
 0
VERTEX
 8
CUERPO
 10
-0.1215
 20
-0.0299
 30
2.0665
 70
192
 0
VERTEX
 8
CUERPO
 10
0.1762
 20
-0.0299
 30
2.0665
 70
192
 0
VERTEX
 8
CUERPO
 10
-0.1215
 20
0.0299
 30
2.0665
 70
192
 0
VERTEX
 8
CUERPO
 10
0.1762
 20
0.0299
 30
2.0665
 70
192
 0
VERTEX
 8
CUERPO
 10
-0.1215
 20
0.0299
 30
2.1243
 70
192
 0
VERTEX
 8
CUERPO
 10
0.1762
 20
0.0299
 30
2.1243
 70
192
 0
VERTEX
 8
CUERPO
 10
-0.1618
 20
-0.0291
 30
2.0907
 70
192
 0
VERTEX
 8
CUERPO
 10
-0.1466
 20
-0.0291
 30
2.0955
 70
192
 0
VERTEX
 8
CUERPO
 10
-0.1441
 20
-0.0291
 30
2.0345
 70
192
 0
VERTEX
 8
CUERPO
 10
-0.1289
 20
-0.0291
 30
2.0393
 70
192
 0
VERTEX
 8
CUERPO
 10
-0.1441
 20
0.0291
 30
2.0345
 70
192
 0
VERTEX
 8
CUERPO
 10
-0.1289
 20
0.0291
 30
2.0393
 70
192
 0
VERTEX
 8
CUERPO
 10
-0.1618
 20
0.0291
 30
2.0907
 70
192
 0
VERTEX
 8
CUERPO
 10
-0.1466
 20
0.0291
 30
2.0955
 70
192
 0
VERTEX
 8
CUERPO
 10
-0.2792
 20
-0.0005
 30
2.1318
 70
192
 0
VERTEX
 8
CUERPO
 10
-0.2792
 20
-0.0005
 30
2.1242
 70
192
 0
VERTEX
 8
CUERPO
 10
-0.2792
 20
-0.0005
 30
2.1242
 70
192
 0
VERTEX
 8
CUERPO
 10
-0.0848
 20
-0.0005
 30
2.1242
 70
192
 0
VERTEX
 8
CUERPO
 10
-0.0848
 20
-0.0005
 30
2.1242
 70
192
 0
VERTEX
 8
CUERPO
 10
-0.0848
 20
-0.0005
 30
2.1318
 70
192
 0
VERTEX
 8
CUERPO
 10
-0.0848
 20
-0.0005
 30
2.1318
 70
192
 0
VERTEX
 8
CUERPO
 10
-0.2792
 20
-0.0005
 30
2.1318
 70
192
 0
VERTEX
 8
CUERPO
 10
-0.2792
 20
0.003
 30
2.1321
 70
192
 0
VERTEX
 8
CUERPO
 10
-0.2792
 20
0.0043
 30
2.1247
 70
192
 0
VERTEX
 8
CUERPO
 10
-0.2792
 20
0.0043
 30
2.1247
 70
192
 0
VERTEX
 8
CUERPO
 10
-0.0848
 20
0.0043
 30
2.1247
 70
192
 0
VERTEX
 8
CUERPO
 10
-0.0848
 20
0.0043
 30
2.1247
 70
192
 0
VERTEX
 8
CUERPO
 10
-0.0848
 20
0.003
 30
2.1321
 70
192
 0
VERTEX
 8
CUERPO
 10
-0.0848
 20
0.003
 30
2.1321
 70
192
 0
VERTEX
 8
CUERPO
 10
-0.2792
 20
0.003
 30
2.1321
 70
192
 0
VERTEX
 8
CUERPO
 10
-0.2792
 20
0.0064
 30
2.133
 70
192
 0
VERTEX
 8
CUERPO
 10
-0.2792
 20
0.009
 30
2.1259
 70
192
 0
VERTEX
 8
CUERPO
 10
-0.2792
 20
0.009
 30
2.1259
 70
192
 0
VERTEX
 8
CUERPO
 10
-0.0848
 20
0.009
 30
2.1259
 70
192
 0
VERTEX
 8
CUERPO
 10
-0.0848
 20
0.009
 30
2.1259
 70
192
 0
VERTEX
 8
CUERPO
 10
-0.0848
 20
0.0064
 30
2.133
 70
192
 0
VERTEX
 8
CUERPO
 10
-0.0848
 20
0.0064
 30
2.133
 70
192
 0
VERTEX
 8
CUERPO
 10
-0.2792
 20
0.0064
 30
2.133
 70
192
 0
VERTEX
 8
CUERPO
 10
-0.2792
 20
0.0096
 30
2.1345
 70
192
 0
VERTEX
 8
CUERPO
 10
-0.2792
 20
0.0133
 30
2.1279
 70
192
 0
VERTEX
 8
CUERPO
 10
-0.2792
 20
0.0133
 30
2.1279
 70
192
 0
VERTEX
 8
CUERPO
 10
-0.0848
 20
0.0133
 30
2.1279
 70
192
 0
VERTEX
 8
CUERPO
 10
-0.0848
 20
0.0133
 30
2.1279
 70
192
 0
VERTEX
 8
CUERPO
 10
-0.0848
 20
0.0096
 30
2.1345
 70
192
 0
VERTEX
 8
CUERPO
 10
-0.0848
 20
0.0096
 30
2.1345
 70
192
 0
VERTEX
 8
CUERPO
 10
-0.2792
 20
0.0096
 30
2.1345
 70
192
 0
VERTEX
 8
CUERPO
 10
-0.2792
 20
0.0124
 30
2.1365
 70
192
 0
VERTEX
 8
CUERPO
 10
-0.2792
 20
0.0173
 30
2.1307
 70
192
 0
VERTEX
 8
CUERPO
 10
-0.2792
 20
0.0173
 30
2.1307
 70
192
 0
VERTEX
 8
CUERPO
 10
-0.0848
 20
0.0173
 30
2.1307
 70
192
 0
VERTEX
 8
CUERPO
 10
-0.0848
 20
0.0173
 30
2.1307
 70
192
 0
VERTEX
 8
CUERPO
 10
-0.0848
 20
0.0124
 30
2.1365
 70
192
 0
VERTEX
 8
CUERPO
 10
-0.0848
 20
0.0124
 30
2.1365
 70
192
 0
VERTEX
 8
CUERPO
 10
-0.2792
 20
0.0124
 30
2.1365
 70
192
 0
VERTEX
 8
CUERPO
 10
-0.2792
 20
0.0149
 30
2.139
 70
192
 0
VERTEX
 8
CUERPO
 10
-0.2792
 20
0.0207
 30
2.1341
 70
192
 0
VERTEX
 8
CUERPO
 10
-0.2792
 20
0.0207
 30
2.1341
 70
192
 0
VERTEX
 8
CUERPO
 10
-0.0848
 20
0.0207
 30
2.1341
 70
192
 0
VERTEX
 8
CUERPO
 10
-0.0848
 20
0.0207
 30
2.1341
 70
192
 0
VERTEX
 8
CUERPO
 10
-0.0848
 20
0.0149
 30
2.139
 70
192
 0
VERTEX
 8
CUERPO
 10
-0.0848
 20
0.0149
 30
2.139
 70
192
 0
VERTEX
 8
CUERPO
 10
-0.2792
 20
0.0149
 30
2.139
 70
192
 0
VERTEX
 8
CUERPO
 10
-0.2792
 20
0.0169
 30
2.1418
 70
192
 0
VERTEX
 8
CUERPO
 10
-0.2792
 20
0.0234
 30
2.1381
 70
192
 0
VERTEX
 8
CUERPO
 10
-0.2792
 20
0.0234
 30
2.1381
 70
192
 0
VERTEX
 8
CUERPO
 10
-0.0848
 20
0.0234
 30
2.1381
 70
192
 0
VERTEX
 8
CUERPO
 10
-0.0848
 20
0.0234
 30
2.1381
 70
192
 0
VERTEX
 8
CUERPO
 10
-0.0848
 20
0.0169
 30
2.1418
 70
192
 0
VERTEX
 8
CUERPO
 10
-0.0848
 20
0.0169
 30
2.1418
 70
192
 0
VERTEX
 8
CUERPO
 10
-0.2792
 20
0.0169
 30
2.1418
 70
192
 0
VERTEX
 8
CUERPO
 10
-0.2792
 20
0.0184
 30
2.145
 70
192
 0
VERTEX
 8
CUERPO
 10
-0.2792
 20
0.0255
 30
2.1424
 70
192
 0
VERTEX
 8
CUERPO
 10
-0.2792
 20
0.0255
 30
2.1424
 70
192
 0
VERTEX
 8
CUERPO
 10
-0.0848
 20
0.0255
 30
2.1424
 70
192
 0
VERTEX
 8
CUERPO
 10
-0.0848
 20
0.0255
 30
2.1424
 70
192
 0
VERTEX
 8
CUERPO
 10
-0.0848
 20
0.0184
 30
2.145
 70
192
 0
VERTEX
 8
CUERPO
 10
-0.0848
 20
0.0184
 30
2.145
 70
192
 0
VERTEX
 8
CUERPO
 10
-0.2792
 20
0.0184
 30
2.145
 70
192
 0
VERTEX
 8
CUERPO
 10
-0.2792
 20
0.0193
 30
2.1484
 70
192
 0
VERTEX
 8
CUERPO
 10
-0.2792
 20
0.0267
 30
2.1471
 70
192
 0
VERTEX
 8
CUERPO
 10
-0.2792
 20
0.0267
 30
2.1471
 70
192
 0
VERTEX
 8
CUERPO
 10
-0.0848
 20
0.0267
 30
2.1471
 70
192
 0
VERTEX
 8
CUERPO
 10
-0.0848
 20
0.0267
 30
2.1471
 70
192
 0
VERTEX
 8
CUERPO
 10
-0.0848
 20
0.0193
 30
2.1484
 70
192
 0
VERTEX
 8
CUERPO
 10
-0.0848
 20
0.0193
 30
2.1484
 70
192
 0
VERTEX
 8
CUERPO
 10
-0.2792
 20
0.0193
 30
2.1484
 70
192
 0
VERTEX
 8
CUERPO
 10
-0.2792
 20
0.0196
 30
2.1519
 70
192
 0
VERTEX
 8
CUERPO
 10
-0.2792
 20
0.0272
 30
2.1519
 70
192
 0
VERTEX
 8
CUERPO
 10
-0.2792
 20
0.0272
 30
2.1519
 70
192
 0
VERTEX
 8
CUERPO
 10
-0.0848
 20
0.0272
 30
2.1519
 70
192
 0
VERTEX
 8
CUERPO
 10
-0.0848
 20
0.0272
 30
2.1519
 70
192
 0
VERTEX
 8
CUERPO
 10
-0.0848
 20
0.0196
 30
2.1519
 70
192
 0
VERTEX
 8
CUERPO
 10
-0.0848
 20
0.0196
 30
2.1519
 70
192
 0
VERTEX
 8
CUERPO
 10
-0.2792
 20
0.0196
 30
2.1519
 70
192
 0
VERTEX
 8
CUERPO
 10
-0.2792
 20
0.0193
 30
2.1554
 70
192
 0
VERTEX
 8
CUERPO
 10
-0.2792
 20
0.0267
 30
2.1567
 70
192
 0
VERTEX
 8
CUERPO
 10
-0.2792
 20
0.0267
 30
2.1567
 70
192
 0
VERTEX
 8
CUERPO
 10
-0.0848
 20
0.0267
 30
2.1567
 70
192
 0
VERTEX
 8
CUERPO
 10
-0.0848
 20
0.0267
 30
2.1567
 70
192
 0
VERTEX
 8
CUERPO
 10
-0.0848
 20
0.0193
 30
2.1554
 70
192
 0
VERTEX
 8
CUERPO
 10
-0.0848
 20
0.0193
 30
2.1554
 70
192
 0
VERTEX
 8
CUERPO
 10
-0.2792
 20
0.0193
 30
2.1554
 70
192
 0
VERTEX
 8
CUERPO
 10
-0.2792
 20
0.0184
 30
2.1588
 70
192
 0
VERTEX
 8
CUERPO
 10
-0.2792
 20
0.0255
 30
2.1613
 70
192
 0
VERTEX
 8
CUERPO
 10
-0.2792
 20
0.0255
 30
2.1613
 70
192
 0
VERTEX
 8
CUERPO
 10
-0.0848
 20
0.0255
 30
2.1613
 70
192
 0
VERTEX
 8
CUERPO
 10
-0.0848
 20
0.0255
 30
2.1613
 70
192
 0
VERTEX
 8
CUERPO
 10
-0.0848
 20
0.0184
 30
2.1588
 70
192
 0
VERTEX
 8
CUERPO
 10
-0.0848
 20
0.0184
 30
2.1588
 70
192
 0
VERTEX
 8
CUERPO
 10
-0.2792
 20
0.0184
 30
2.1588
 70
192
 0
VERTEX
 8
CUERPO
 10
-0.2792
 20
0.0169
 30
2.1619
 70
192
 0
VERTEX
 8
CUERPO
 10
-0.2792
 20
0.0234
 30
2.1657
 70
192
 0
VERTEX
 8
CUERPO
 10
-0.2792
 20
0.0234
 30
2.1657
 70
192
 0
VERTEX
 8
CUERPO
 10
-0.0848
 20
0.0234
 30
2.1657
 70
192
 0
VERTEX
 8
CUERPO
 10
-0.0848
 20
0.0234
 30
2.1657
 70
192
 0
VERTEX
 8
CUERPO
 10
-0.0848
 20
0.0169
 30
2.1619
 70
192
 0
VERTEX
 8
CUERPO
 10
-0.0848
 20
0.0169
 30
2.1619
 70
192
 0
VERTEX
 8
CUERPO
 10
-0.2792
 20
0.0169
 30
2.1619
 70
192
 0
VERTEX
 8
CUERPO
 10
-0.2792
 20
0.0149
 30
2.1648
 70
192
 0
VERTEX
 8
CUERPO
 10
-0.2792
 20
0.0207
 30
2.1696
 70
192
 0
VERTEX
 8
CUERPO
 10
-0.2792
 20
0.0207
 30
2.1696
 70
192
 0
VERTEX
 8
CUERPO
 10
-0.0848
 20
0.0207
 30
2.1696
 70
192
 0
VERTEX
 8
CUERPO
 10
-0.0848
 20
0.0207
 30
2.1696
 70
192
 0
VERTEX
 8
CUERPO
 10
-0.0848
 20
0.0149
 30
2.1648
 70
192
 0
VERTEX
 8
CUERPO
 10
-0.0848
 20
0.0149
 30
2.1648
 70
192
 0
VERTEX
 8
CUERPO
 10
-0.2792
 20
0.0149
 30
2.1648
 70
192
 0
VERTEX
 8
CUERPO
 10
-0.2792
 20
0.0124
 30
2.1673
 70
192
 0
VERTEX
 8
CUERPO
 10
-0.2792
 20
0.0173
 30
2.1731
 70
192
 0
VERTEX
 8
CUERPO
 10
-0.2792
 20
0.0173
 30
2.1731
 70
192
 0
VERTEX
 8
CUERPO
 10
-0.0848
 20
0.0173
 30
2.1731
 70
192
 0
VERTEX
 8
CUERPO
 10
-0.0848
 20
0.0173
 30
2.1731
 70
192
 0
VERTEX
 8
CUERPO
 10
-0.0848
 20
0.0124
 30
2.1673
 70
192
 0
VERTEX
 8
CUERPO
 10
-0.0848
 20
0.0124
 30
2.1673
 70
192
 0
VERTEX
 8
CUERPO
 10
-0.2792
 20
0.0124
 30
2.1673
 70
192
 0
VERTEX
 8
CUERPO
 10
-0.2792
 20
0.0096
 30
2.1693
 70
192
 0
VERTEX
 8
CUERPO
 10
-0.2792
 20
0.0133
 30
2.1758
 70
192
 0
VERTEX
 8
CUERPO
 10
-0.2792
 20
0.0133
 30
2.1758
 70
192
 0
VERTEX
 8
CUERPO
 10
-0.0848
 20
0.0133
 30
2.1758
 70
192
 0
VERTEX
 8
CUERPO
 10
-0.0848
 20
0.0133
 30
2.1758
 70
192
 0
VERTEX
 8
CUERPO
 10
-0.0848
 20
0.0096
 30
2.1693
 70
192
 0
VERTEX
 8
CUERPO
 10
-0.0848
 20
0.0096
 30
2.1693
 70
192
 0
VERTEX
 8
CUERPO
 10
-0.2792
 20
0.0096
 30
2.1693
 70
192
 0
VERTEX
 8
CUERPO
 10
-0.2792
 20
0.0064
 30
2.1708
 70
192
 0
VERTEX
 8
CUERPO
 10
-0.2792
 20
0.009
 30
2.1779
 70
192
 0
VERTEX
 8
CUERPO
 10
-0.2792
 20
0.009
 30
2.1779
 70
192
 0
VERTEX
 8
CUERPO
 10
-0.0848
 20
0.009
 30
2.1779
 70
192
 0
VERTEX
 8
CUERPO
 10
-0.0848
 20
0.009
 30
2.1779
 70
192
 0
VERTEX
 8
CUERPO
 10
-0.0848
 20
0.0064
 30
2.1708
 70
192
 0
VERTEX
 8
CUERPO
 10
-0.0848
 20
0.0064
 30
2.1708
 70
192
 0
VERTEX
 8
CUERPO
 10
-0.2792
 20
0.0064
 30
2.1708
 70
192
 0
VERTEX
 8
CUERPO
 10
-0.2792
 20
0.003
 30
2.1717
 70
192
 0
VERTEX
 8
CUERPO
 10
-0.2792
 20
0.0043
 30
2.1791
 70
192
 0
VERTEX
 8
CUERPO
 10
-0.2792
 20
0.0043
 30
2.1791
 70
192
 0
VERTEX
 8
CUERPO
 10
-0.0848
 20
0.0043
 30
2.1791
 70
192
 0
VERTEX
 8
CUERPO
 10
-0.0848
 20
0.0043
 30
2.1791
 70
192
 0
VERTEX
 8
CUERPO
 10
-0.0848
 20
0.003
 30
2.1717
 70
192
 0
VERTEX
 8
CUERPO
 10
-0.0848
 20
0.003
 30
2.1717
 70
192
 0
VERTEX
 8
CUERPO
 10
-0.2792
 20
0.003
 30
2.1717
 70
192
 0
VERTEX
 8
CUERPO
 10
-0.2792
 20
-0.0005
 30
2.172
 70
192
 0
VERTEX
 8
CUERPO
 10
-0.2792
 20
-0.0005
 30
2.1795
 70
192
 0
VERTEX
 8
CUERPO
 10
-0.2792
 20
-0.0005
 30
2.1795
 70
192
 0
VERTEX
 8
CUERPO
 10
-0.0848
 20
-0.0005
 30
2.1795
 70
192
 0
VERTEX
 8
CUERPO
 10
-0.0848
 20
-0.0005
 30
2.1795
 70
192
 0
VERTEX
 8
CUERPO
 10
-0.0848
 20
-0.0005
 30
2.172
 70
192
 0
VERTEX
 8
CUERPO
 10
-0.0848
 20
-0.0005
 30
2.172
 70
192
 0
VERTEX
 8
CUERPO
 10
-0.2792
 20
-0.0005
 30
2.172
 70
192
 0
VERTEX
 8
CUERPO
 10
-0.2792
 20
-0.004
 30
2.1717
 70
192
 0
VERTEX
 8
CUERPO
 10
-0.2792
 20
-0.0053
 30
2.1791
 70
192
 0
VERTEX
 8
CUERPO
 10
-0.2792
 20
-0.0053
 30
2.1791
 70
192
 0
VERTEX
 8
CUERPO
 10
-0.0848
 20
-0.0053
 30
2.1791
 70
192
 0
VERTEX
 8
CUERPO
 10
-0.0848
 20
-0.0053
 30
2.1791
 70
192
 0
VERTEX
 8
CUERPO
 10
-0.0848
 20
-0.004
 30
2.1717
 70
192
 0
VERTEX
 8
CUERPO
 10
-0.0848
 20
-0.004
 30
2.1717
 70
192
 0
VERTEX
 8
CUERPO
 10
-0.2792
 20
-0.004
 30
2.1717
 70
192
 0
VERTEX
 8
CUERPO
 10
-0.2792
 20
-0.0074
 30
2.1708
 70
192
 0
VERTEX
 8
CUERPO
 10
-0.2792
 20
-0.0099
 30
2.1779
 70
192
 0
VERTEX
 8
CUERPO
 10
-0.2792
 20
-0.0099
 30
2.1779
 70
192
 0
VERTEX
 8
CUERPO
 10
-0.0848
 20
-0.0099
 30
2.1779
 70
192
 0
VERTEX
 8
CUERPO
 10
-0.0848
 20
-0.0099
 30
2.1779
 70
192
 0
VERTEX
 8
CUERPO
 10
-0.0848
 20
-0.0074
 30
2.1708
 70
192
 0
VERTEX
 8
CUERPO
 10
-0.0848
 20
-0.0074
 30
2.1708
 70
192
 0
VERTEX
 8
CUERPO
 10
-0.2792
 20
-0.0074
 30
2.1708
 70
192
 0
VERTEX
 8
CUERPO
 10
-0.2792
 20
-0.0105
 30
2.1693
 70
192
 0
VERTEX
 8
CUERPO
 10
-0.2792
 20
-0.0143
 30
2.1758
 70
192
 0
VERTEX
 8
CUERPO
 10
-0.2792
 20
-0.0143
 30
2.1758
 70
192
 0
VERTEX
 8
CUERPO
 10
-0.0848
 20
-0.0143
 30
2.1758
 70
192
 0
VERTEX
 8
CUERPO
 10
-0.0848
 20
-0.0143
 30
2.1758
 70
192
 0
VERTEX
 8
CUERPO
 10
-0.0848
 20
-0.0105
 30
2.1693
 70
192
 0
VERTEX
 8
CUERPO
 10
-0.0848
 20
-0.0105
 30
2.1693
 70
192
 0
VERTEX
 8
CUERPO
 10
-0.2792
 20
-0.0105
 30
2.1693
 70
192
 0
VERTEX
 8
CUERPO
 10
-0.2792
 20
-0.0134
 30
2.1673
 70
192
 0
VERTEX
 8
CUERPO
 10
-0.2792
 20
-0.0183
 30
2.1731
 70
192
 0
VERTEX
 8
CUERPO
 10
-0.2792
 20
-0.0183
 30
2.1731
 70
192
 0
VERTEX
 8
CUERPO
 10
-0.0848
 20
-0.0183
 30
2.1731
 70
192
 0
VERTEX
 8
CUERPO
 10
-0.0848
 20
-0.0183
 30
2.1731
 70
192
 0
VERTEX
 8
CUERPO
 10
-0.0848
 20
-0.0134
 30
2.1673
 70
192
 0
VERTEX
 8
CUERPO
 10
-0.0848
 20
-0.0134
 30
2.1673
 70
192
 0
VERTEX
 8
CUERPO
 10
-0.2792
 20
-0.0134
 30
2.1673
 70
192
 0
VERTEX
 8
CUERPO
 10
-0.2792
 20
-0.0159
 30
2.1648
 70
192
 0
VERTEX
 8
CUERPO
 10
-0.2792
 20
-0.0217
 30
2.1696
 70
192
 0
VERTEX
 8
CUERPO
 10
-0.2792
 20
-0.0217
 30
2.1696
 70
192
 0
VERTEX
 8
CUERPO
 10
-0.0848
 20
-0.0217
 30
2.1696
 70
192
 0
VERTEX
 8
CUERPO
 10
-0.0848
 20
-0.0217
 30
2.1696
 70
192
 0
VERTEX
 8
CUERPO
 10
-0.0848
 20
-0.0159
 30
2.1648
 70
192
 0
VERTEX
 8
CUERPO
 10
-0.0848
 20
-0.0159
 30
2.1648
 70
192
 0
VERTEX
 8
CUERPO
 10
-0.2792
 20
-0.0159
 30
2.1648
 70
192
 0
VERTEX
 8
CUERPO
 10
-0.2792
 20
-0.0179
 30
2.1619
 70
192
 0
VERTEX
 8
CUERPO
 10
-0.2792
 20
-0.0244
 30
2.1657
 70
192
 0
VERTEX
 8
CUERPO
 10
-0.2792
 20
-0.0244
 30
2.1657
 70
192
 0
VERTEX
 8
CUERPO
 10
-0.0848
 20
-0.0244
 30
2.1657
 70
192
 0
VERTEX
 8
CUERPO
 10
-0.0848
 20
-0.0244
 30
2.1657
 70
192
 0
VERTEX
 8
CUERPO
 10
-0.0848
 20
-0.0179
 30
2.1619
 70
192
 0
VERTEX
 8
CUERPO
 10
-0.0848
 20
-0.0179
 30
2.1619
 70
192
 0
VERTEX
 8
CUERPO
 10
-0.2792
 20
-0.0179
 30
2.1619
 70
192
 0
VERTEX
 8
CUERPO
 10
-0.2792
 20
-0.0194
 30
2.1588
 70
192
 0
VERTEX
 8
CUERPO
 10
-0.2792
 20
-0.0265
 30
2.1613
 70
192
 0
VERTEX
 8
CUERPO
 10
-0.2792
 20
-0.0265
 30
2.1613
 70
192
 0
VERTEX
 8
CUERPO
 10
-0.0848
 20
-0.0265
 30
2.1613
 70
192
 0
VERTEX
 8
CUERPO
 10
-0.0848
 20
-0.0265
 30
2.1613
 70
192
 0
VERTEX
 8
CUERPO
 10
-0.0848
 20
-0.0194
 30
2.1588
 70
192
 0
VERTEX
 8
CUERPO
 10
-0.0848
 20
-0.0194
 30
2.1588
 70
192
 0
VERTEX
 8
CUERPO
 10
-0.2792
 20
-0.0194
 30
2.1588
 70
192
 0
VERTEX
 8
CUERPO
 10
-0.2792
 20
-0.0203
 30
2.1554
 70
192
 0
VERTEX
 8
CUERPO
 10
-0.2792
 20
-0.0277
 30
2.1567
 70
192
 0
VERTEX
 8
CUERPO
 10
-0.2792
 20
-0.0277
 30
2.1567
 70
192
 0
VERTEX
 8
CUERPO
 10
-0.0848
 20
-0.0277
 30
2.1567
 70
192
 0
VERTEX
 8
CUERPO
 10
-0.0848
 20
-0.0277
 30
2.1567
 70
192
 0
VERTEX
 8
CUERPO
 10
-0.0848
 20
-0.0203
 30
2.1554
 70
192
 0
VERTEX
 8
CUERPO
 10
-0.0848
 20
-0.0203
 30
2.1554
 70
192
 0
VERTEX
 8
CUERPO
 10
-0.2792
 20
-0.0203
 30
2.1554
 70
192
 0
VERTEX
 8
CUERPO
 10
-0.2792
 20
-0.0206
 30
2.1519
 70
192
 0
VERTEX
 8
CUERPO
 10
-0.2792
 20
-0.0281
 30
2.1519
 70
192
 0
VERTEX
 8
CUERPO
 10
-0.2792
 20
-0.0281
 30
2.1519
 70
192
 0
VERTEX
 8
CUERPO
 10
-0.0848
 20
-0.0281
 30
2.1519
 70
192
 0
VERTEX
 8
CUERPO
 10
-0.0848
 20
-0.0281
 30
2.1519
 70
192
 0
VERTEX
 8
CUERPO
 10
-0.0848
 20
-0.0206
 30
2.1519
 70
192
 0
VERTEX
 8
CUERPO
 10
-0.0848
 20
-0.0206
 30
2.1519
 70
192
 0
VERTEX
 8
CUERPO
 10
-0.2792
 20
-0.0206
 30
2.1519
 70
192
 0
VERTEX
 8
CUERPO
 10
-0.2792
 20
-0.0203
 30
2.1484
 70
192
 0
VERTEX
 8
CUERPO
 10
-0.2792
 20
-0.0277
 30
2.1471
 70
192
 0
VERTEX
 8
CUERPO
 10
-0.2792
 20
-0.0277
 30
2.1471
 70
192
 0
VERTEX
 8
CUERPO
 10
-0.0848
 20
-0.0277
 30
2.1471
 70
192
 0
VERTEX
 8
CUERPO
 10
-0.0848
 20
-0.0277
 30
2.1471
 70
192
 0
VERTEX
 8
CUERPO
 10
-0.0848
 20
-0.0203
 30
2.1484
 70
192
 0
VERTEX
 8
CUERPO
 10
-0.0848
 20
-0.0203
 30
2.1484
 70
192
 0
VERTEX
 8
CUERPO
 10
-0.2792
 20
-0.0203
 30
2.1484
 70
192
 0
VERTEX
 8
CUERPO
 10
-0.2792
 20
-0.0194
 30
2.145
 70
192
 0
VERTEX
 8
CUERPO
 10
-0.2792
 20
-0.0265
 30
2.1424
 70
192
 0
VERTEX
 8
CUERPO
 10
-0.2792
 20
-0.0265
 30
2.1424
 70
192
 0
VERTEX
 8
CUERPO
 10
-0.0848
 20
-0.0265
 30
2.1424
 70
192
 0
VERTEX
 8
CUERPO
 10
-0.0848
 20
-0.0265
 30
2.1424
 70
192
 0
VERTEX
 8
CUERPO
 10
-0.0848
 20
-0.0194
 30
2.145
 70
192
 0
VERTEX
 8
CUERPO
 10
-0.0848
 20
-0.0194
 30
2.145
 70
192
 0
VERTEX
 8
CUERPO
 10
-0.2792
 20
-0.0194
 30
2.145
 70
192
 0
VERTEX
 8
CUERPO
 10
-0.2792
 20
-0.0179
 30
2.1418
 70
192
 0
VERTEX
 8
CUERPO
 10
-0.2792
 20
-0.0244
 30
2.1381
 70
192
 0
VERTEX
 8
CUERPO
 10
-0.2792
 20
-0.0244
 30
2.1381
 70
192
 0
VERTEX
 8
CUERPO
 10
-0.0848
 20
-0.0244
 30
2.1381
 70
192
 0
VERTEX
 8
CUERPO
 10
-0.0848
 20
-0.0244
 30
2.1381
 70
192
 0
VERTEX
 8
CUERPO
 10
-0.0848
 20
-0.0179
 30
2.1418
 70
192
 0
VERTEX
 8
CUERPO
 10
-0.0848
 20
-0.0179
 30
2.1418
 70
192
 0
VERTEX
 8
CUERPO
 10
-0.2792
 20
-0.0179
 30
2.1418
 70
192
 0
VERTEX
 8
CUERPO
 10
-0.2792
 20
-0.0159
 30
2.139
 70
192
 0
VERTEX
 8
CUERPO
 10
-0.2792
 20
-0.0217
 30
2.1341
 70
192
 0
VERTEX
 8
CUERPO
 10
-0.2792
 20
-0.0217
 30
2.1341
 70
192
 0
VERTEX
 8
CUERPO
 10
-0.0848
 20
-0.0217
 30
2.1341
 70
192
 0
VERTEX
 8
CUERPO
 10
-0.0848
 20
-0.0217
 30
2.1341
 70
192
 0
VERTEX
 8
CUERPO
 10
-0.0848
 20
-0.0159
 30
2.139
 70
192
 0
VERTEX
 8
CUERPO
 10
-0.0848
 20
-0.0159
 30
2.139
 70
192
 0
VERTEX
 8
CUERPO
 10
-0.2792
 20
-0.0159
 30
2.139
 70
192
 0
VERTEX
 8
CUERPO
 10
-0.2792
 20
-0.0134
 30
2.1365
 70
192
 0
VERTEX
 8
CUERPO
 10
-0.2792
 20
-0.0183
 30
2.1307
 70
192
 0
VERTEX
 8
CUERPO
 10
-0.2792
 20
-0.0183
 30
2.1307
 70
192
 0
VERTEX
 8
CUERPO
 10
-0.0848
 20
-0.0183
 30
2.1307
 70
192
 0
VERTEX
 8
CUERPO
 10
-0.0848
 20
-0.0183
 30
2.1307
 70
192
 0
VERTEX
 8
CUERPO
 10
-0.0848
 20
-0.0134
 30
2.1365
 70
192
 0
VERTEX
 8
CUERPO
 10
-0.0848
 20
-0.0134
 30
2.1365
 70
192
 0
VERTEX
 8
CUERPO
 10
-0.2792
 20
-0.0134
 30
2.1365
 70
192
 0
VERTEX
 8
CUERPO
 10
-0.2792
 20
-0.0105
 30
2.1345
 70
192
 0
VERTEX
 8
CUERPO
 10
-0.2792
 20
-0.0143
 30
2.1279
 70
192
 0
VERTEX
 8
CUERPO
 10
-0.2792
 20
-0.0143
 30
2.1279
 70
192
 0
VERTEX
 8
CUERPO
 10
-0.0848
 20
-0.0143
 30
2.1279
 70
192
 0
VERTEX
 8
CUERPO
 10
-0.0848
 20
-0.0143
 30
2.1279
 70
192
 0
VERTEX
 8
CUERPO
 10
-0.0848
 20
-0.0105
 30
2.1345
 70
192
 0
VERTEX
 8
CUERPO
 10
-0.0848
 20
-0.0105
 30
2.1345
 70
192
 0
VERTEX
 8
CUERPO
 10
-0.2792
 20
-0.0105
 30
2.1345
 70
192
 0
VERTEX
 8
CUERPO
 10
-0.2792
 20
-0.0074
 30
2.133
 70
192
 0
VERTEX
 8
CUERPO
 10
-0.2792
 20
-0.0099
 30
2.1259
 70
192
 0
VERTEX
 8
CUERPO
 10
-0.2792
 20
-0.0099
 30
2.1259
 70
192
 0
VERTEX
 8
CUERPO
 10
-0.0848
 20
-0.0099
 30
2.1259
 70
192
 0
VERTEX
 8
CUERPO
 10
-0.0848
 20
-0.0099
 30
2.1259
 70
192
 0
VERTEX
 8
CUERPO
 10
-0.0848
 20
-0.0074
 30
2.133
 70
192
 0
VERTEX
 8
CUERPO
 10
-0.0848
 20
-0.0074
 30
2.133
 70
192
 0
VERTEX
 8
CUERPO
 10
-0.2792
 20
-0.0074
 30
2.133
 70
192
 0
VERTEX
 8
CUERPO
 10
-0.2792
 20
-0.004
 30
2.1321
 70
192
 0
VERTEX
 8
CUERPO
 10
-0.2792
 20
-0.0053
 30
2.1247
 70
192
 0
VERTEX
 8
CUERPO
 10
-0.2792
 20
-0.0053
 30
2.1247
 70
192
 0
VERTEX
 8
CUERPO
 10
-0.0848
 20
-0.0053
 30
2.1247
 70
192
 0
VERTEX
 8
CUERPO
 10
-0.0848
 20
-0.0053
 30
2.1247
 70
192
 0
VERTEX
 8
CUERPO
 10
-0.0848
 20
-0.004
 30
2.1321
 70
192
 0
VERTEX
 8
CUERPO
 10
-0.0848
 20
-0.004
 30
2.1321
 70
192
 0
VERTEX
 8
CUERPO
 10
-0.2792
 20
-0.004
 30
2.1321
 70
192
 0
VERTEX
 8
CUERPO
 10
0.9414
 20
-0.0441
 30
2.1628
 70
192
 0
VERTEX
 8
CUERPO
 10
0.9414
 20
-0.0441
 30
2.2481
 70
192
 0
VERTEX
 8
CUERPO
 10
1.0131
 20
-0.0441
 30
2.1628
 70
192
 0
VERTEX
 8
CUERPO
 10
1.0131
 20
-0.0441
 30
2.2481
 70
192
 0
VERTEX
 8
CUERPO
 10
1.0131
 20
0.0509
 30
2.1628
 70
192
 0
VERTEX
 8
CUERPO
 10
1.0131
 20
0.0509
 30
2.2481
 70
192
 0
VERTEX
 8
CUERPO
 10
0.9414
 20
0.0509
 30
2.1628
 70
192
 0
VERTEX
 8
CUERPO
 10
0.9414
 20
0.0509
 30
2.2481
 70
192
 0
VERTEX
 8
CUERPO
 10
0.9868
 20
-0.0626
 30
2.2673
 70
192
 0
VERTEX
 8
CUERPO
 10
1.0451
 20
-0.0626
 30
2.2673
 70
192
 0
VERTEX
 8
CUERPO
 10
0.9868
 20
-0.0626
 30
1.9028
 70
192
 0
VERTEX
 8
CUERPO
 10
1.0451
 20
-0.0626
 30
1.9028
 70
192
 0
VERTEX
 8
CUERPO
 10
0.9868
 20
0.0626
 30
1.9028
 70
192
 0
VERTEX
 8
CUERPO
 10
1.0451
 20
0.0626
 30
1.9028
 70
192
 0
VERTEX
 8
CUERPO
 10
0.9868
 20
0.0626
 30
2.2673
 70
192
 0
VERTEX
 8
CUERPO
 10
1.0451
 20
0.0626
 30
2.2673
 70
192
 0
VERTEX
 8
CUERPO
 10
-0.167
 20
-0.0727
 30
2.0832
 70
192
 0
VERTEX
 8
CUERPO
 10
-0.167
 20
-0.0727
 30
2.1492
 70
192
 0
VERTEX
 8
CUERPO
 10
-0.167
 20
-0.0727
 30
2.2152
 70
192
 0
VERTEX
 8
CUERPO
 10
0.0161
 20
-0.0727
 30
2.2811
 70
192
 0
VERTEX
 8
CUERPO
 10
-0.0045
 20
-0.0727
 30
2.0832
 70
192
 0
VERTEX
 8
CUERPO
 10
-0.0045
 20
-0.0727
 30
2.1492
 70
192
 0
VERTEX
 8
CUERPO
 10
-0.0045
 20
-0.0727
 30
2.2152
 70
192
 0
VERTEX
 8
CUERPO
 10
0.0562
 20
-0.0727
 30
2.2811
 70
192
 0
VERTEX
 8
CUERPO
 10
0.158
 20
-0.0727
 30
2.0832
 70
192
 0
VERTEX
 8
CUERPO
 10
0.158
 20
-0.0727
 30
2.1492
 70
192
 0
VERTEX
 8
CUERPO
 10
0.158
 20
-0.0727
 30
2.2152
 70
192
 0
VERTEX
 8
CUERPO
 10
0.158
 20
-0.0727
 30
2.2811
 70
192
 0
VERTEX
 8
CUERPO
 10
0.3206
 20
-0.0727
 30
2.0832
 70
192
 0
VERTEX
 8
CUERPO
 10
0.3206
 20
-0.0727
 30
2.1492
 70
192
 0
VERTEX
 8
CUERPO
 10
0.3206
 20
-0.0727
 30
2.2152
 70
192
 0
VERTEX
 8
CUERPO
 10
0.3206
 20
-0.0727
 30
2.2811
 70
192
 0
VERTEX
 8
CUERPO
 10
0.4831
 20
-0.0727
 30
2.0832
 70
192
 0
VERTEX
 8
CUERPO
 10
0.4831
 20
-0.0727
 30
2.1492
 70
192
 0
VERTEX
 8
CUERPO
 10
0.4831
 20
-0.0727
 30
2.2152
 70
192
 0
VERTEX
 8
CUERPO
 10
0.4831
 20
-0.0727
 30
2.2811
 70
192
 0
VERTEX
 8
CUERPO
 10
0.6456
 20
-0.0727
 30
2.0832
 70
192
 0
VERTEX
 8
CUERPO
 10
0.6456
 20
-0.0727
 30
2.1492
 70
192
 0
VERTEX
 8
CUERPO
 10
0.6456
 20
-0.0727
 30
2.2152
 70
192
 0
VERTEX
 8
CUERPO
 10
0.6456
 20
-0.0727
 30
2.2811
 70
192
 0
VERTEX
 8
CUERPO
 10
0.8081
 20
-0.0727
 30
2.0832
 70
192
 0
VERTEX
 8
CUERPO
 10
0.8081
 20
-0.0727
 30
2.1492
 70
192
 0
VERTEX
 8
CUERPO
 10
0.8081
 20
-0.0727
 30
2.2152
 70
192
 0
VERTEX
 8
CUERPO
 10
0.8081
 20
-0.0727
 30
2.2811
 70
192
 0
VERTEX
 8
CUERPO
 10
0.9706
 20
-0.0727
 30
2.142
 70
192
 0
VERTEX
 8
CUERPO
 10
0.9706
 20
-0.0727
 30
2.1492
 70
192
 0
VERTEX
 8
CUERPO
 10
0.9706
 20
-0.0727
 30
2.2152
 70
192
 0
VERTEX
 8
CUERPO
 10
0.9706
 20
-0.0727
 30
2.2811
 70
192
 0
VERTEX
 8
CUERPO
 10
0.9706
 20
0.0727
 30
2.142
 70
192
 0
VERTEX
 8
CUERPO
 10
0.9706
 20
0.0727
 30
2.1492
 70
192
 0
VERTEX
 8
CUERPO
 10
0.9706
 20
0.0727
 30
2.2152
 70
192
 0
VERTEX
 8
CUERPO
 10
0.9706
 20
0.0727
 30
2.2811
 70
192
 0
VERTEX
 8
CUERPO
 10
0.8081
 20
0.0727
 30
2.0832
 70
192
 0
VERTEX
 8
CUERPO
 10
0.8081
 20
0.0727
 30
2.1492
 70
192
 0
VERTEX
 8
CUERPO
 10
0.8081
 20
0.0727
 30
2.2152
 70
192
 0
VERTEX
 8
CUERPO
 10
0.8081
 20
0.0727
 30
2.2811
 70
192
 0
VERTEX
 8
CUERPO
 10
0.6456
 20
0.0727
 30
2.0832
 70
192
 0
VERTEX
 8
CUERPO
 10
0.6456
 20
0.0727
 30
2.1492
 70
192
 0
VERTEX
 8
CUERPO
 10
0.6456
 20
0.0727
 30
2.2152
 70
192
 0
VERTEX
 8
CUERPO
 10
0.6456
 20
0.0727
 30
2.2811
 70
192
 0
VERTEX
 8
CUERPO
 10
0.4831
 20
0.0727
 30
2.0832
 70
192
 0
VERTEX
 8
CUERPO
 10
0.4831
 20
0.0727
 30
2.1492
 70
192
 0
VERTEX
 8
CUERPO
 10
0.4831
 20
0.0727
 30
2.2811
 70
192
 0
VERTEX
 8
CUERPO
 10
0.3206
 20
0.0727
 30
2.0832
 70
192
 0
VERTEX
 8
CUERPO
 10
0.3206
 20
0.0727
 30
2.1492
 70
192
 0
VERTEX
 8
CUERPO
 10
0.3206
 20
0.0727
 30
2.2152
 70
192
 0
VERTEX
 8
CUERPO
 10
0.3206
 20
0.0727
 30
2.2811
 70
192
 0
VERTEX
 8
CUERPO
 10
0.158
 20
0.0727
 30
2.0832
 70
192
 0
VERTEX
 8
CUERPO
 10
0.158
 20
0.0727
 30
2.1492
 70
192
 0
VERTEX
 8
CUERPO
 10
0.158
 20
0.0727
 30
2.2152
 70
192
 0
VERTEX
 8
CUERPO
 10
0.158
 20
0.0727
 30
2.2811
 70
192
 0
VERTEX
 8
CUERPO
 10
-0.0045
 20
0.0727
 30
2.0832
 70
192
 0
VERTEX
 8
CUERPO
 10
-0.0045
 20
0.0727
 30
2.1492
 70
192
 0
VERTEX
 8
CUERPO
 10
-0.0045
 20
0.0727
 30
2.2152
 70
192
 0
VERTEX
 8
CUERPO
 10
0.0562
 20
0.0727
 30
2.2811
 70
192
 0
VERTEX
 8
CUERPO
 10
-0.167
 20
0.0727
 30
2.0832
 70
192
 0
VERTEX
 8
CUERPO
 10
-0.167
 20
0.0727
 30
2.1492
 70
192
 0
VERTEX
 8
CUERPO
 10
-0.167
 20
0.0727
 30
2.2152
 70
192
 0
VERTEX
 8
CUERPO
 10
0.0161
 20
0.0727
 30
2.2811
 70
192
 0
VERTEX
 8
CUERPO
 10
0.4415
 20
0.0727
 30
2.2152
 70
192
 0
VERTEX
 8
CUERPO
 10
0.6074
 20
0.0727
 30
2.2152
 70
192
 0
VERTEX
 8
CUERPO
 10
0.4831
 20
0.0727
 30
2.201
 70
192
 0
VERTEX
 8
CUERPO
 10
0.4831
 20
0.0727
 30
2.2403
 70
192
 0
VERTEX
 8
CUERPO
 10
0.6074
 20
0.0727
 30
2.201
 70
192
 0
VERTEX
 8
CUERPO
 10
0.4415
 20
0.0727
 30
2.201
 70
192
 0
VERTEX
 8
CUERPO
 10
0.6074
 20
0.0727
 30
2.2403
 70
192
 0
VERTEX
 8
CUERPO
 10
0.4415
 20
0.0727
 30
2.2403
 70
192
 0
VERTEX
 8
CUERPO
 10
0.4415
 20
0.0047
 30
2.201
 70
192
 0
VERTEX
 8
CUERPO
 10
0.4415
 20
0.0047
 30
2.2403
 70
192
 0
VERTEX
 8
CUERPO
 10
0.6074
 20
0.0047
 30
2.201
 70
192
 0
VERTEX
 8
CUERPO
 10
0.6074
 20
0.0047
 30
2.2403
 70
192
 0
VERTEX
 8
CUERPO
 10
0.6074
 20
0.0727
 30
2.201
 70
192
 0
VERTEX
 8
CUERPO
 10
0.4415
 20
0.0727
 30
2.201
 70
192
 0
VERTEX
 8
CUERPO
 10
0.6074
 20
0.0727
 30
2.2403
 70
192
 0
VERTEX
 8
CUERPO
 10
0.4415
 20
0.0727
 30
2.2403
 70
192
 0
VERTEX
 8
CUERPO
 10
0.4831
 20
0.0727
 30
2.201
 70
192
 0
VERTEX
 8
CUERPO
 10
0.6074
 20
0.0727
 30
2.2152
 70
192
 0
VERTEX
 8
CUERPO
 10
0.4831
 20
0.0727
 30
2.2403
 70
192
 0
VERTEX
 8
CUERPO
 10
0.4415
 20
0.0727
 30
2.2152
 70
192
 0
VERTEX
 8
CUERPO
 10
0.2208
 20
-0.0413
 30
2.1042
 70
192
 0
VERTEX
 8
CUERPO
 10
0.2369
 20
-0.0413
 30
2.1131
 70
192
 0
VERTEX
 8
CUERPO
 10
0.2965
 20
-0.0413
 30
1.9688
 70
192
 0
VERTEX
 8
CUERPO
 10
0.3076
 20
-0.0413
 30
1.9835
 70
192
 0
VERTEX
 8
CUERPO
 10
0.4925
 20
-0.0413
 30
1.9616
 70
192
 0
VERTEX
 8
CUERPO
 10
0.4925
 20
-0.0413
 30
1.98
 70
192
 0
VERTEX
 8
CUERPO
 10
0.4925
 20
0.0413
 30
1.9616
 70
192
 0
VERTEX
 8
CUERPO
 10
0.4925
 20
0.0413
 30
1.98
 70
192
 0
VERTEX
 8
CUERPO
 10
0.2965
 20
0.0413
 30
1.9688
 70
192
 0
VERTEX
 8
CUERPO
 10
0.3076
 20
0.0413
 30
1.9835
 70
192
 0
VERTEX
 8
CUERPO
 10
0.2208
 20
0.0413
 30
2.1042
 70
192
 0
VERTEX
 8
CUERPO
 10
0.2369
 20
0.0413
 30
2.1131
 70
192
 0
VERTEX
 8
CUERPO
 10
0.4327
 20
-0.0626
 30
2.1163
 70
192
 0
VERTEX
 8
CUERPO
 10
0.626
 20
-0.0626
 30
2.1163
 70
192
 0
VERTEX
 8
CUERPO
 10
0.4327
 20
-0.0626
 30
1.7518
 70
192
 0
VERTEX
 8
CUERPO
 10
0.626
 20
-0.0626
 30
1.7518
 70
192
 0
VERTEX
 8
CUERPO
 10
0.4327
 20
0.0626
 30
1.7518
 70
192
 0
VERTEX
 8
CUERPO
 10
0.626
 20
0.0626
 30
1.7518
 70
192
 0
VERTEX
 8
CUERPO
 10
0.4327
 20
0.0626
 30
2.1163
 70
192
 0
VERTEX
 8
CUERPO
 10
0.626
 20
0.0626
 30
2.1163
 70
192
 0
VERTEX
 8
CUERPO
 10
0
 20
0
 30
0
 70
128
 71
1
 72
2
 73
4
 74
3
 0
VERTEX
 8
CUERPO
 10
0
 20
0
 30
0
 70
128
 71
3
 72
4
 73
6
 74
5
 0
VERTEX
 8
CUERPO
 10
0
 20
0
 30
0
 70
128
 71
5
 72
6
 73
8
 74
7
 0
VERTEX
 8
CUERPO
 10
0
 20
0
 30
0
 70
128
 71
7
 72
8
 73
2
 74
1
 0
VERTEX
 8
CUERPO
 10
0
 20
0
 30
0
 70
128
 71
2
 72
8
 73
6
 74
4
 0
VERTEX
 8
CUERPO
 10
0
 20
0
 30
0
 70
128
 71
7
 72
1
 73
3
 74
5
 0
VERTEX
 8
CUERPO
 10
0
 20
0
 30
0
 70
128
 71
9
 72
10
 73
12
 74
11
 0
VERTEX
 8
CUERPO
 10
0
 20
0
 30
0
 70
128
 71
11
 72
12
 73
14
 74
13
 0
VERTEX
 8
CUERPO
 10
0
 20
0
 30
0
 70
128
 71
13
 72
14
 73
16
 74
15
 0
VERTEX
 8
CUERPO
 10
0
 20
0
 30
0
 70
128
 71
15
 72
16
 73
10
 74
9
 0
VERTEX
 8
CUERPO
 10
0
 20
0
 30
0
 70
128
 71
10
 72
16
 73
14
 74
12
 0
VERTEX
 8
CUERPO
 10
0
 20
0
 30
0
 70
128
 71
15
 72
9
 73
11
 74
13
 0
VERTEX
 8
CUERPO
 10
0
 20
0
 30
0
 70
128
 71
17
 72
18
 73
26
 74
25
 0
VERTEX
 8
CUERPO
 10
0
 20
0
 30
0
 70
128
 71
19
 72
20
 73
28
 74
27
 0
VERTEX
 8
CUERPO
 10
0
 20
0
 30
0
 70
128
 71
21
 72
22
 73
30
 74
29
 0
VERTEX
 8
CUERPO
 10
0
 20
0
 30
0
 70
128
 71
23
 72
24
 73
32
 74
31
 0
VERTEX
 8
CUERPO
 10
0
 20
0
 30
0
 70
128
 71
25
 72
26
 73
34
 74
33
 0
VERTEX
 8
CUERPO
 10
0
 20
0
 30
0
 70
128
 71
27
 72
28
 73
36
 74
35
 0
VERTEX
 8
CUERPO
 10
0
 20
0
 30
0
 70
128
 71
29
 72
30
 73
38
 74
37
 0
VERTEX
 8
CUERPO
 10
0
 20
0
 30
0
 70
128
 71
31
 72
32
 73
40
 74
39
 0
VERTEX
 8
CUERPO
 10
0
 20
0
 30
0
 70
128
 71
33
 72
34
 73
42
 74
41
 0
VERTEX
 8
CUERPO
 10
0
 20
0
 30
0
 70
128
 71
35
 72
36
 73
44
 74
43
 0
VERTEX
 8
CUERPO
 10
0
 20
0
 30
0
 70
128
 71
37
 72
38
 73
46
 74
45
 0
VERTEX
 8
CUERPO
 10
0
 20
0
 30
0
 70
128
 71
39
 72
40
 73
48
 74
47
 0
VERTEX
 8
CUERPO
 10
0
 20
0
 30
0
 70
128
 71
41
 72
42
 73
50
 74
49
 0
VERTEX
 8
CUERPO
 10
0
 20
0
 30
0
 70
128
 71
43
 72
44
 73
52
 74
51
 0
VERTEX
 8
CUERPO
 10
0
 20
0
 30
0
 70
128
 71
45
 72
46
 73
54
 74
53
 0
VERTEX
 8
CUERPO
 10
0
 20
0
 30
0
 70
128
 71
47
 72
48
 73
56
 74
55
 0
VERTEX
 8
CUERPO
 10
0
 20
0
 30
0
 70
128
 71
49
 72
50
 73
58
 74
57
 0
VERTEX
 8
CUERPO
 10
0
 20
0
 30
0
 70
128
 71
51
 72
52
 73
60
 74
59
 0
VERTEX
 8
CUERPO
 10
0
 20
0
 30
0
 70
128
 71
53
 72
54
 73
62
 74
61
 0
VERTEX
 8
CUERPO
 10
0
 20
0
 30
0
 70
128
 71
55
 72
56
 73
64
 74
63
 0
VERTEX
 8
CUERPO
 10
0
 20
0
 30
0
 70
128
 71
57
 72
58
 73
66
 74
65
 0
VERTEX
 8
CUERPO
 10
0
 20
0
 30
0
 70
128
 71
59
 72
60
 73
68
 74
67
 0
VERTEX
 8
CUERPO
 10
0
 20
0
 30
0
 70
128
 71
61
 72
62
 73
70
 74
69
 0
VERTEX
 8
CUERPO
 10
0
 20
0
 30
0
 70
128
 71
63
 72
64
 73
72
 74
71
 0
VERTEX
 8
CUERPO
 10
0
 20
0
 30
0
 70
128
 71
65
 72
66
 73
74
 74
73
 0
VERTEX
 8
CUERPO
 10
0
 20
0
 30
0
 70
128
 71
67
 72
68
 73
76
 74
75
 0
VERTEX
 8
CUERPO
 10
0
 20
0
 30
0
 70
128
 71
69
 72
70
 73
78
 74
77
 0
VERTEX
 8
CUERPO
 10
0
 20
0
 30
0
 70
128
 71
71
 72
72
 73
80
 74
79
 0
VERTEX
 8
CUERPO
 10
0
 20
0
 30
0
 70
128
 71
73
 72
74
 73
82
 74
81
 0
VERTEX
 8
CUERPO
 10
0
 20
0
 30
0
 70
128
 71
75
 72
76
 73
84
 74
83
 0
VERTEX
 8
CUERPO
 10
0
 20
0
 30
0
 70
128
 71
77
 72
78
 73
86
 74
85
 0
VERTEX
 8
CUERPO
 10
0
 20
0
 30
0
 70
128
 71
79
 72
80
 73
88
 74
87
 0
VERTEX
 8
CUERPO
 10
0
 20
0
 30
0
 70
128
 71
81
 72
82
 73
90
 74
89
 0
VERTEX
 8
CUERPO
 10
0
 20
0
 30
0
 70
128
 71
83
 72
84
 73
92
 74
91
 0
VERTEX
 8
CUERPO
 10
0
 20
0
 30
0
 70
128
 71
85
 72
86
 73
94
 74
93
 0
VERTEX
 8
CUERPO
 10
0
 20
0
 30
0
 70
128
 71
87
 72
88
 73
96
 74
95
 0
VERTEX
 8
CUERPO
 10
0
 20
0
 30
0
 70
128
 71
89
 72
90
 73
98
 74
97
 0
VERTEX
 8
CUERPO
 10
0
 20
0
 30
0
 70
128
 71
91
 72
92
 73
100
 74
99
 0
VERTEX
 8
CUERPO
 10
0
 20
0
 30
0
 70
128
 71
93
 72
94
 73
102
 74
101
 0
VERTEX
 8
CUERPO
 10
0
 20
0
 30
0
 70
128
 71
95
 72
96
 73
104
 74
103
 0
VERTEX
 8
CUERPO
 10
0
 20
0
 30
0
 70
128
 71
97
 72
98
 73
106
 74
105
 0
VERTEX
 8
CUERPO
 10
0
 20
0
 30
0
 70
128
 71
99
 72
100
 73
108
 74
107
 0
VERTEX
 8
CUERPO
 10
0
 20
0
 30
0
 70
128
 71
101
 72
102
 73
110
 74
109
 0
VERTEX
 8
CUERPO
 10
0
 20
0
 30
0
 70
128
 71
103
 72
104
 73
112
 74
111
 0
VERTEX
 8
CUERPO
 10
0
 20
0
 30
0
 70
128
 71
105
 72
106
 73
114
 74
113
 0
VERTEX
 8
CUERPO
 10
0
 20
0
 30
0
 70
128
 71
107
 72
108
 73
116
 74
115
 0
VERTEX
 8
CUERPO
 10
0
 20
0
 30
0
 70
128
 71
109
 72
110
 73
118
 74
117
 0
VERTEX
 8
CUERPO
 10
0
 20
0
 30
0
 70
128
 71
111
 72
112
 73
120
 74
119
 0
VERTEX
 8
CUERPO
 10
0
 20
0
 30
0
 70
128
 71
113
 72
114
 73
122
 74
121
 0
VERTEX
 8
CUERPO
 10
0
 20
0
 30
0
 70
128
 71
115
 72
116
 73
124
 74
123
 0
VERTEX
 8
CUERPO
 10
0
 20
0
 30
0
 70
128
 71
117
 72
118
 73
126
 74
125
 0
VERTEX
 8
CUERPO
 10
0
 20
0
 30
0
 70
128
 71
119
 72
120
 73
128
 74
127
 0
VERTEX
 8
CUERPO
 10
0
 20
0
 30
0
 70
128
 71
121
 72
122
 73
130
 74
129
 0
VERTEX
 8
CUERPO
 10
0
 20
0
 30
0
 70
128
 71
123
 72
124
 73
132
 74
131
 0
VERTEX
 8
CUERPO
 10
0
 20
0
 30
0
 70
128
 71
125
 72
126
 73
134
 74
133
 0
VERTEX
 8
CUERPO
 10
0
 20
0
 30
0
 70
128
 71
127
 72
128
 73
136
 74
135
 0
VERTEX
 8
CUERPO
 10
0
 20
0
 30
0
 70
128
 71
129
 72
130
 73
138
 74
137
 0
VERTEX
 8
CUERPO
 10
0
 20
0
 30
0
 70
128
 71
131
 72
132
 73
140
 74
139
 0
VERTEX
 8
CUERPO
 10
0
 20
0
 30
0
 70
128
 71
133
 72
134
 73
142
 74
141
 0
VERTEX
 8
CUERPO
 10
0
 20
0
 30
0
 70
128
 71
135
 72
136
 73
144
 74
143
 0
VERTEX
 8
CUERPO
 10
0
 20
0
 30
0
 70
128
 71
137
 72
138
 73
146
 74
145
 0
VERTEX
 8
CUERPO
 10
0
 20
0
 30
0
 70
128
 71
139
 72
140
 73
148
 74
147
 0
VERTEX
 8
CUERPO
 10
0
 20
0
 30
0
 70
128
 71
141
 72
142
 73
150
 74
149
 0
VERTEX
 8
CUERPO
 10
0
 20
0
 30
0
 70
128
 71
143
 72
144
 73
152
 74
151
 0
VERTEX
 8
CUERPO
 10
0
 20
0
 30
0
 70
128
 71
145
 72
146
 73
154
 74
153
 0
VERTEX
 8
CUERPO
 10
0
 20
0
 30
0
 70
128
 71
147
 72
148
 73
156
 74
155
 0
VERTEX
 8
CUERPO
 10
0
 20
0
 30
0
 70
128
 71
149
 72
150
 73
158
 74
157
 0
VERTEX
 8
CUERPO
 10
0
 20
0
 30
0
 70
128
 71
151
 72
152
 73
160
 74
159
 0
VERTEX
 8
CUERPO
 10
0
 20
0
 30
0
 70
128
 71
153
 72
154
 73
162
 74
161
 0
VERTEX
 8
CUERPO
 10
0
 20
0
 30
0
 70
128
 71
155
 72
156
 73
164
 74
163
 0
VERTEX
 8
CUERPO
 10
0
 20
0
 30
0
 70
128
 71
157
 72
158
 73
166
 74
165
 0
VERTEX
 8
CUERPO
 10
0
 20
0
 30
0
 70
128
 71
159
 72
160
 73
168
 74
167
 0
VERTEX
 8
CUERPO
 10
0
 20
0
 30
0
 70
128
 71
161
 72
162
 73
170
 74
169
 0
VERTEX
 8
CUERPO
 10
0
 20
0
 30
0
 70
128
 71
163
 72
164
 73
172
 74
171
 0
VERTEX
 8
CUERPO
 10
0
 20
0
 30
0
 70
128
 71
165
 72
166
 73
174
 74
173
 0
VERTEX
 8
CUERPO
 10
0
 20
0
 30
0
 70
128
 71
167
 72
168
 73
176
 74
175
 0
VERTEX
 8
CUERPO
 10
0
 20
0
 30
0
 70
128
 71
169
 72
170
 73
178
 74
177
 0
VERTEX
 8
CUERPO
 10
0
 20
0
 30
0
 70
128
 71
171
 72
172
 73
180
 74
179
 0
VERTEX
 8
CUERPO
 10
0
 20
0
 30
0
 70
128
 71
173
 72
174
 73
182
 74
181
 0
VERTEX
 8
CUERPO
 10
0
 20
0
 30
0
 70
128
 71
175
 72
176
 73
184
 74
183
 0
VERTEX
 8
CUERPO
 10
0
 20
0
 30
0
 70
128
 71
177
 72
178
 73
186
 74
185
 0
VERTEX
 8
CUERPO
 10
0
 20
0
 30
0
 70
128
 71
179
 72
180
 73
188
 74
187
 0
VERTEX
 8
CUERPO
 10
0
 20
0
 30
0
 70
128
 71
181
 72
182
 73
190
 74
189
 0
VERTEX
 8
CUERPO
 10
0
 20
0
 30
0
 70
128
 71
183
 72
184
 73
192
 74
191
 0
VERTEX
 8
CUERPO
 10
0
 20
0
 30
0
 70
128
 71
185
 72
186
 73
194
 74
193
 0
VERTEX
 8
CUERPO
 10
0
 20
0
 30
0
 70
128
 71
187
 72
188
 73
196
 74
195
 0
VERTEX
 8
CUERPO
 10
0
 20
0
 30
0
 70
128
 71
189
 72
190
 73
198
 74
197
 0
VERTEX
 8
CUERPO
 10
0
 20
0
 30
0
 70
128
 71
191
 72
192
 73
200
 74
199
 0
VERTEX
 8
CUERPO
 10
0
 20
0
 30
0
 70
128
 71
193
 72
194
 73
202
 74
201
 0
VERTEX
 8
CUERPO
 10
0
 20
0
 30
0
 70
128
 71
195
 72
196
 73
204
 74
203
 0
VERTEX
 8
CUERPO
 10
0
 20
0
 30
0
 70
128
 71
197
 72
198
 73
206
 74
205
 0
VERTEX
 8
CUERPO
 10
0
 20
0
 30
0
 70
128
 71
199
 72
200
 73
208
 74
207
 0
VERTEX
 8
CUERPO
 10
0
 20
0
 30
0
 70
128
 71
201
 72
202
 73
210
 74
209
 0
VERTEX
 8
CUERPO
 10
0
 20
0
 30
0
 70
128
 71
203
 72
204
 73
212
 74
211
 0
VERTEX
 8
CUERPO
 10
0
 20
0
 30
0
 70
128
 71
205
 72
206
 73
214
 74
213
 0
VERTEX
 8
CUERPO
 10
0
 20
0
 30
0
 70
128
 71
207
 72
208
 73
216
 74
215
 0
VERTEX
 8
CUERPO
 10
0
 20
0
 30
0
 70
128
 71
209
 72
210
 73
218
 74
217
 0
VERTEX
 8
CUERPO
 10
0
 20
0
 30
0
 70
128
 71
211
 72
212
 73
220
 74
219
 0
VERTEX
 8
CUERPO
 10
0
 20
0
 30
0
 70
128
 71
213
 72
214
 73
222
 74
221
 0
VERTEX
 8
CUERPO
 10
0
 20
0
 30
0
 70
128
 71
215
 72
216
 73
224
 74
223
 0
VERTEX
 8
CUERPO
 10
0
 20
0
 30
0
 70
128
 71
217
 72
218
 73
226
 74
225
 0
VERTEX
 8
CUERPO
 10
0
 20
0
 30
0
 70
128
 71
219
 72
220
 73
228
 74
227
 0
VERTEX
 8
CUERPO
 10
0
 20
0
 30
0
 70
128
 71
221
 72
222
 73
230
 74
229
 0
VERTEX
 8
CUERPO
 10
0
 20
0
 30
0
 70
128
 71
223
 72
224
 73
232
 74
231
 0
VERTEX
 8
CUERPO
 10
0
 20
0
 30
0
 70
128
 71
225
 72
226
 73
234
 74
233
 0
VERTEX
 8
CUERPO
 10
0
 20
0
 30
0
 70
128
 71
227
 72
228
 73
236
 74
235
 0
VERTEX
 8
CUERPO
 10
0
 20
0
 30
0
 70
128
 71
229
 72
230
 73
238
 74
237
 0
VERTEX
 8
CUERPO
 10
0
 20
0
 30
0
 70
128
 71
231
 72
232
 73
240
 74
239
 0
VERTEX
 8
CUERPO
 10
0
 20
0
 30
0
 70
128
 71
233
 72
234
 73
242
 74
241
 0
VERTEX
 8
CUERPO
 10
0
 20
0
 30
0
 70
128
 71
235
 72
236
 73
244
 74
243
 0
VERTEX
 8
CUERPO
 10
0
 20
0
 30
0
 70
128
 71
237
 72
238
 73
246
 74
245
 0
VERTEX
 8
CUERPO
 10
0
 20
0
 30
0
 70
128
 71
239
 72
240
 73
248
 74
247
 0
VERTEX
 8
CUERPO
 10
0
 20
0
 30
0
 70
128
 71
241
 72
242
 73
250
 74
249
 0
VERTEX
 8
CUERPO
 10
0
 20
0
 30
0
 70
128
 71
243
 72
244
 73
252
 74
251
 0
VERTEX
 8
CUERPO
 10
0
 20
0
 30
0
 70
128
 71
245
 72
246
 73
254
 74
253
 0
VERTEX
 8
CUERPO
 10
0
 20
0
 30
0
 70
128
 71
247
 72
248
 73
256
 74
255
 0
VERTEX
 8
CUERPO
 10
0
 20
0
 30
0
 70
128
 71
249
 72
250
 73
258
 74
257
 0
VERTEX
 8
CUERPO
 10
0
 20
0
 30
0
 70
128
 71
251
 72
252
 73
260
 74
259
 0
VERTEX
 8
CUERPO
 10
0
 20
0
 30
0
 70
128
 71
253
 72
254
 73
262
 74
261
 0
VERTEX
 8
CUERPO
 10
0
 20
0
 30
0
 70
128
 71
255
 72
256
 73
264
 74
263
 0
VERTEX
 8
CUERPO
 10
0
 20
0
 30
0
 70
128
 71
257
 72
258
 73
266
 74
265
 0
VERTEX
 8
CUERPO
 10
0
 20
0
 30
0
 70
128
 71
259
 72
260
 73
268
 74
267
 0
VERTEX
 8
CUERPO
 10
0
 20
0
 30
0
 70
128
 71
261
 72
262
 73
270
 74
269
 0
VERTEX
 8
CUERPO
 10
0
 20
0
 30
0
 70
128
 71
263
 72
264
 73
272
 74
271
 0
VERTEX
 8
CUERPO
 10
0
 20
0
 30
0
 70
128
 71
265
 72
266
 73
274
 74
273
 0
VERTEX
 8
CUERPO
 10
0
 20
0
 30
0
 70
128
 71
267
 72
268
 73
276
 74
275
 0
VERTEX
 8
CUERPO
 10
0
 20
0
 30
0
 70
128
 71
269
 72
270
 73
278
 74
277
 0
VERTEX
 8
CUERPO
 10
0
 20
0
 30
0
 70
128
 71
271
 72
272
 73
280
 74
279
 0
VERTEX
 8
CUERPO
 10
0
 20
0
 30
0
 70
128
 71
273
 72
274
 73
282
 74
281
 0
VERTEX
 8
CUERPO
 10
0
 20
0
 30
0
 70
128
 71
275
 72
276
 73
284
 74
283
 0
VERTEX
 8
CUERPO
 10
0
 20
0
 30
0
 70
128
 71
277
 72
278
 73
286
 74
285
 0
VERTEX
 8
CUERPO
 10
0
 20
0
 30
0
 70
128
 71
279
 72
280
 73
288
 74
287
 0
VERTEX
 8
CUERPO
 10
0
 20
0
 30
0
 70
128
 71
281
 72
282
 73
290
 74
289
 0
VERTEX
 8
CUERPO
 10
0
 20
0
 30
0
 70
128
 71
283
 72
284
 73
292
 74
291
 0
VERTEX
 8
CUERPO
 10
0
 20
0
 30
0
 70
128
 71
285
 72
286
 73
294
 74
293
 0
VERTEX
 8
CUERPO
 10
0
 20
0
 30
0
 70
128
 71
287
 72
288
 73
296
 74
295
 0
VERTEX
 8
CUERPO
 10
0
 20
0
 30
0
 70
128
 71
289
 72
290
 73
298
 74
297
 0
VERTEX
 8
CUERPO
 10
0
 20
0
 30
0
 70
128
 71
291
 72
292
 73
300
 74
299
 0
VERTEX
 8
CUERPO
 10
0
 20
0
 30
0
 70
128
 71
293
 72
294
 73
302
 74
301
 0
VERTEX
 8
CUERPO
 10
0
 20
0
 30
0
 70
128
 71
295
 72
296
 73
304
 74
303
 0
VERTEX
 8
CUERPO
 10
0
 20
0
 30
0
 70
128
 71
297
 72
298
 73
18
 74
17
 0
VERTEX
 8
CUERPO
 10
0
 20
0
 30
0
 70
128
 71
299
 72
300
 73
20
 74
19
 0
VERTEX
 8
CUERPO
 10
0
 20
0
 30
0
 70
128
 71
301
 72
302
 73
22
 74
21
 0
VERTEX
 8
CUERPO
 10
0
 20
0
 30
0
 70
128
 71
303
 72
304
 73
24
 74
23
 0
VERTEX
 8
CUERPO
 10
0
 20
0
 30
0
 70
128
 71
305
 72
306
 73
308
 74
307
 0
VERTEX
 8
CUERPO
 10
0
 20
0
 30
0
 70
128
 71
307
 72
308
 73
310
 74
309
 0
VERTEX
 8
CUERPO
 10
0
 20
0
 30
0
 70
128
 71
309
 72
310
 73
312
 74
311
 0
VERTEX
 8
CUERPO
 10
0
 20
0
 30
0
 70
128
 71
311
 72
312
 73
306
 74
305
 0
VERTEX
 8
CUERPO
 10
0
 20
0
 30
0
 70
128
 71
306
 72
312
 73
310
 74
308
 0
VERTEX
 8
CUERPO
 10
0
 20
0
 30
0
 70
128
 71
311
 72
305
 73
307
 74
309
 0
VERTEX
 8
CUERPO
 10
0
 20
0
 30
0
 70
128
 71
313
 72
314
 73
316
 74
315
 0
VERTEX
 8
CUERPO
 10
0
 20
0
 30
0
 70
128
 71
315
 72
316
 73
318
 74
317
 0
VERTEX
 8
CUERPO
 10
0
 20
0
 30
0
 70
128
 71
317
 72
318
 73
320
 74
319
 0
VERTEX
 8
CUERPO
 10
0
 20
0
 30
0
 70
128
 71
319
 72
320
 73
314
 74
313
 0
VERTEX
 8
CUERPO
 10
0
 20
0
 30
0
 70
128
 71
314
 72
320
 73
318
 74
316
 0
VERTEX
 8
CUERPO
 10
0
 20
0
 30
0
 70
128
 71
319
 72
313
 73
315
 74
317
 0
VERTEX
 8
CUERPO
 10
0
 20
0
 30
0
 70
128
 71
321
 72
322
 73
326
 74
325
 0
VERTEX
 8
CUERPO
 10
0
 20
0
 30
0
 70
128
 71
325
 72
326
 73
330
 74
329
 0
VERTEX
 8
CUERPO
 10
0
 20
0
 30
0
 70
128
 71
329
 72
330
 73
334
 74
333
 0
VERTEX
 8
CUERPO
 10
0
 20
0
 30
0
 70
128
 71
333
 72
334
 73
338
 74
337
 0
VERTEX
 8
CUERPO
 10
0
 20
0
 30
0
 70
128
 71
337
 72
338
 73
342
 74
341
 0
VERTEX
 8
CUERPO
 10
0
 20
0
 30
0
 70
128
 71
341
 72
342
 73
346
 74
345
 0
VERTEX
 8
CUERPO
 10
0
 20
0
 30
0
 70
128
 71
345
 72
346
 73
350
 74
349
 0
VERTEX
 8
CUERPO
 10
0
 20
0
 30
0
 70
128
 71
322
 72
323
 73
327
 74
326
 0
VERTEX
 8
CUERPO
 10
0
 20
0
 30
0
 70
128
 71
326
 72
327
 73
331
 74
330
 0
VERTEX
 8
CUERPO
 10
0
 20
0
 30
0
 70
128
 71
330
 72
331
 73
335
 74
334
 0
VERTEX
 8
CUERPO
 10
0
 20
0
 30
0
 70
128
 71
334
 72
335
 73
339
 74
338
 0
VERTEX
 8
CUERPO
 10
0
 20
0
 30
0
 70
128
 71
338
 72
339
 73
343
 74
342
 0
VERTEX
 8
CUERPO
 10
0
 20
0
 30
0
 70
128
 71
342
 72
343
 73
347
 74
346
 0
VERTEX
 8
CUERPO
 10
0
 20
0
 30
0
 70
128
 71
346
 72
347
 73
351
 74
350
 0
VERTEX
 8
CUERPO
 10
0
 20
0
 30
0
 70
128
 71
323
 72
324
 73
328
 74
327
 0
VERTEX
 8
CUERPO
 10
0
 20
0
 30
0
 70
128
 71
327
 72
328
 73
332
 74
331
 0
VERTEX
 8
CUERPO
 10
0
 20
0
 30
0
 70
128
 71
331
 72
332
 73
336
 74
335
 0
VERTEX
 8
CUERPO
 10
0
 20
0
 30
0
 70
128
 71
335
 72
336
 73
340
 74
339
 0
VERTEX
 8
CUERPO
 10
0
 20
0
 30
0
 70
128
 71
339
 72
340
 73
344
 74
343
 0
VERTEX
 8
CUERPO
 10
0
 20
0
 30
0
 70
128
 71
343
 72
344
 73
348
 74
347
 0
VERTEX
 8
CUERPO
 10
0
 20
0
 30
0
 70
128
 71
347
 72
348
 73
352
 74
351
 0
VERTEX
 8
CUERPO
 10
0
 20
0
 30
0
 70
128
 71
349
 72
350
 73
354
 74
353
 0
VERTEX
 8
CUERPO
 10
0
 20
0
 30
0
 70
128
 71
350
 72
351
 73
355
 74
354
 0
VERTEX
 8
CUERPO
 10
0
 20
0
 30
0
 70
128
 71
351
 72
352
 73
356
 74
355
 0
VERTEX
 8
CUERPO
 10
0
 20
0
 30
0
 70
128
 71
353
 72
354
 73
358
 74
357
 0
VERTEX
 8
CUERPO
 10
0
 20
0
 30
0
 70
128
 71
357
 72
358
 73
362
 74
361
 0
VERTEX
 8
CUERPO
 10
0
 20
0
 30
0
 70
128
 71
361
 72
362
 73
366
 74
365
 0
VERTEX
 8
CUERPO
 10
0
 20
0
 30
0
 70
128
 71
365
 72
366
 73
369
 74
368
 0
VERTEX
 8
CUERPO
 10
0
 20
0
 30
0
 70
128
 71
368
 72
369
 73
373
 74
372
 0
VERTEX
 8
CUERPO
 10
0
 20
0
 30
0
 70
128
 71
372
 72
373
 73
377
 74
376
 0
VERTEX
 8
CUERPO
 10
0
 20
0
 30
0
 70
128
 71
376
 72
377
 73
381
 74
380
 0
VERTEX
 8
CUERPO
 10
0
 20
0
 30
0
 70
128
 71
354
 72
355
 73
359
 74
358
 0
VERTEX
 8
CUERPO
 10
0
 20
0
 30
0
 70
128
 71
358
 72
359
 73
363
 74
362
 0
VERTEX
 8
CUERPO
 10
0
 20
0
 30
0
 70
128
 71
386
 72
366
 73
362
 74
388
 0
VERTEX
 8
CUERPO
 10
0
 20
0
 30
0
 70
128
 71
362
 72
363
 73
385
 74
388
 0
VERTEX
 8
CUERPO
 10
0
 20
0
 30
0
 70
128
 71
384
 72
370
 73
369
 74
389
 0
VERTEX
 8
CUERPO
 10
0
 20
0
 30
0
 70
128
 71
369
 72
366
 73
386
 74
389
 0
VERTEX
 8
CUERPO
 10
0
 20
0
 30
0
 70
128
 71
369
 72
370
 73
374
 74
373
 0
VERTEX
 8
CUERPO
 10
0
 20
0
 30
0
 70
128
 71
373
 72
374
 73
378
 74
377
 0
VERTEX
 8
CUERPO
 10
0
 20
0
 30
0
 70
128
 71
377
 72
378
 73
382
 74
381
 0
VERTEX
 8
CUERPO
 10
0
 20
0
 30
0
 70
128
 71
355
 72
356
 73
360
 74
359
 0
VERTEX
 8
CUERPO
 10
0
 20
0
 30
0
 70
128
 71
359
 72
360
 73
364
 74
363
 0
VERTEX
 8
CUERPO
 10
0
 20
0
 30
0
 70
128
 71
390
 72
385
 73
363
 74
364
 0
VERTEX
 8
CUERPO
 10
0
 20
0
 30
0
 70
128
 71
364
 72
367
 73
387
 74
390
 0
VERTEX
 8
CUERPO
 10
0
 20
0
 30
0
 70
128
 71
391
 72
387
 73
367
 74
371
 0
VERTEX
 8
CUERPO
 10
0
 20
0
 30
0
 70
128
 71
370
 72
384
 73
391
 74
371
 0
VERTEX
 8
CUERPO
 10
0
 20
0
 30
0
 70
128
 71
370
 72
371
 73
375
 74
374
 0
VERTEX
 8
CUERPO
 10
0
 20
0
 30
0
 70
128
 71
374
 72
375
 73
379
 74
378
 0
VERTEX
 8
CUERPO
 10
0
 20
0
 30
0
 70
128
 71
378
 72
379
 73
383
 74
382
 0
VERTEX
 8
CUERPO
 10
0
 20
0
 30
0
 70
128
 71
380
 72
381
 73
322
 74
321
 0
VERTEX
 8
CUERPO
 10
0
 20
0
 30
0
 70
128
 71
381
 72
382
 73
323
 74
322
 0
VERTEX
 8
CUERPO
 10
0
 20
0
 30
0
 70
128
 71
382
 72
383
 73
324
 74
323
 0
VERTEX
 8
CUERPO
 10
0
 20
0
 30
0
 70
128
 71
324
 72
383
 73
379
 74
328
 0
VERTEX
 8
CUERPO
 10
0
 20
0
 30
0
 70
128
 71
328
 72
379
 73
375
 74
332
 0
VERTEX
 8
CUERPO
 10
0
 20
0
 30
0
 70
128
 71
332
 72
375
 73
371
 74
336
 0
VERTEX
 8
CUERPO
 10
0
 20
0
 30
0
 70
128
 71
336
 72
371
 73
367
 74
340
 0
VERTEX
 8
CUERPO
 10
0
 20
0
 30
0
 70
128
 71
340
 72
367
 73
364
 74
344
 0
VERTEX
 8
CUERPO
 10
0
 20
0
 30
0
 70
128
 71
344
 72
364
 73
360
 74
348
 0
VERTEX
 8
CUERPO
 10
0
 20
0
 30
0
 70
128
 71
348
 72
360
 73
356
 74
352
 0
VERTEX
 8
CUERPO
 10
0
 20
0
 30
0
 70
128
 71
380
 72
321
 73
325
 74
376
 0
VERTEX
 8
CUERPO
 10
0
 20
0
 30
0
 70
128
 71
376
 72
325
 73
329
 74
372
 0
VERTEX
 8
CUERPO
 10
0
 20
0
 30
0
 70
128
 71
372
 72
329
 73
333
 74
368
 0
VERTEX
 8
CUERPO
 10
0
 20
0
 30
0
 70
128
 71
368
 72
333
 73
337
 74
365
 0
VERTEX
 8
CUERPO
 10
0
 20
0
 30
0
 70
128
 71
365
 72
337
 73
341
 74
361
 0
VERTEX
 8
CUERPO
 10
0
 20
0
 30
0
 70
128
 71
361
 72
341
 73
345
 74
357
 0
VERTEX
 8
CUERPO
 10
0
 20
0
 30
0
 70
128
 71
357
 72
345
 73
349
 74
353
 0
VERTEX
 8
CUERPO
 10
0
 20
0
 30
0
 70
128
 71
393
 72
392
 73
394
 74
395
 0
VERTEX
 8
CUERPO
 10
0
 20
0
 30
0
 70
128
 71
394
 72
396
 73
401
 74
395
 0
VERTEX
 8
CUERPO
 10
0
 20
0
 30
0
 70
128
 71
398
 72
395
 73
401
 74
401
 0
VERTEX
 8
CUERPO
 10
0
 20
0
 30
0
 70
128
 71
399
 72
403
 73
393
 74
393
 0
VERTEX
 8
CUERPO
 10
0
 20
0
 30
0
 70
128
 71
392
 72
393
 73
403
 74
397
 0
VERTEX
 8
CUERPO
 10
0
 20
0
 30
0
 70
128
 71
398
 72
402
 73
393
 74
395
 0
VERTEX
 8
CUERPO
 10
0
 20
0
 30
0
 70
128
 71
393
 72
402
 73
399
 74
399
 0
VERTEX
 8
CUERPO
 10
0
 20
0
 30
0
 70
128
 71
397
 72
400
 73
392
 74
392
 0
VERTEX
 8
CUERPO
 10
0
 20
0
 30
0
 70
128
 71
394
 72
392
 73
400
 74
396
 0
VERTEX
 8
CUERPO
 10
0
 20
0
 30
0
 70
128
 71
404
 72
405
 73
407
 74
406
 0
VERTEX
 8
CUERPO
 10
0
 20
0
 30
0
 70
128
 71
406
 72
407
 73
409
 74
408
 0
VERTEX
 8
CUERPO
 10
0
 20
0
 30
0
 70
128
 71
408
 72
409
 73
411
 74
410
 0
VERTEX
 8
CUERPO
 10
0
 20
0
 30
0
 70
128
 71
410
 72
411
 73
413
 74
412
 0
VERTEX
 8
CUERPO
 10
0
 20
0
 30
0
 70
128
 71
412
 72
413
 73
415
 74
414
 0
VERTEX
 8
CUERPO
 10
0
 20
0
 30
0
 70
128
 71
414
 72
415
 73
405
 74
404
 0
VERTEX
 8
CUERPO
 10
0
 20
0
 30
0
 70
128
 71
405
 72
415
 73
413
 74
407
 0
VERTEX
 8
CUERPO
 10
0
 20
0
 30
0
 70
128
 71
407
 72
413
 73
411
 74
409
 0
VERTEX
 8
CUERPO
 10
0
 20
0
 30
0
 70
128
 71
414
 72
404
 73
406
 74
412
 0
VERTEX
 8
CUERPO
 10
0
 20
0
 30
0
 70
128
 71
412
 72
406
 73
408
 74
410
 0
VERTEX
 8
CUERPO
 10
0
 20
0
 30
0
 70
128
 71
416
 72
417
 73
419
 74
418
 0
VERTEX
 8
CUERPO
 10
0
 20
0
 30
0
 70
128
 71
418
 72
419
 73
421
 74
420
 0
VERTEX
 8
CUERPO
 10
0
 20
0
 30
0
 70
128
 71
420
 72
421
 73
423
 74
422
 0
VERTEX
 8
CUERPO
 10
0
 20
0
 30
0
 70
128
 71
422
 72
423
 73
417
 74
416
 0
VERTEX
 8
CUERPO
 10
0
 20
0
 30
0
 70
128
 71
417
 72
423
 73
421
 74
419
 0
VERTEX
 8
CUERPO
 10
0
 20
0
 30
0
 70
128
 71
422
 72
416
 73
418
 74
420
 0
SEQEND
 0
ENDSEC
 0
EOF
